<svg width="32" height="32" viewBox="0 0 32 32" fill="none" xmlns="http://www.w3.org/2000/svg">
<path d="M16.0013 2.66699C8.65464 2.66699 2.66797 8.65366 2.66797 16.0003C2.66797 23.347 8.65464 29.3337 16.0013 29.3337C23.348 29.3337 29.3346 23.347 29.3346 16.0003C29.3346 8.65366 23.348 2.66699 16.0013 2.66699ZM22.3746 12.9337L14.8146 20.4937C14.628 20.6803 14.3746 20.787 14.108 20.787C13.8413 20.787 13.588 20.6803 13.4013 20.4937L9.62797 16.7203C9.2413 16.3337 9.2413 15.6937 9.62797 15.307C10.0146 14.9203 10.6546 14.9203 11.0413 15.307L14.108 18.3737L20.9613 11.5203C21.348 11.1337 21.988 11.1337 22.3746 11.5203C22.7613 11.907 22.7613 12.5337 22.3746 12.9337Z" fill="#0D9488"/>
</svg>
