<svg width="512" height="512" viewBox="0 0 512 512" fill="none" xmlns="http://www.w3.org/2000/svg">
<path fill-rule="evenodd" clip-rule="evenodd" d="M323.452 121.446C322.393 120.036 320.539 119.488 318.884 120.092C304.494 125.356 291.27 133.718 280.227 144.762C260.288 164.701 249.087 191.743 249.087 219.94V219.959C249.087 245.108 269.475 265.496 294.624 265.496H437.858C463.007 265.496 483.395 245.108 483.395 219.959C483.395 219.951 483.395 219.945 483.395 219.94C483.395 191.743 472.194 164.701 452.257 144.762C441.213 133.718 427.99 125.356 413.6 120.092C411.945 119.488 410.089 120.036 409.032 121.446C399.274 134.453 383.733 142.873 366.241 142.873C348.75 142.873 333.21 134.453 323.452 121.446Z" fill="#3CA6DF"/>
<path fill-rule="evenodd" clip-rule="evenodd" d="M102.329 339.347C101.272 337.937 99.4162 337.387 97.7613 337.993C83.3716 343.255 70.1478 351.617 59.1043 362.663C39.167 382.6 27.9644 409.642 27.9644 437.839V437.858C27.9644 463.007 48.3523 483.395 73.5036 483.395H216.735C241.886 483.395 262.274 463.007 262.274 437.858C262.274 437.852 262.274 437.846 262.274 437.839C262.274 409.642 251.072 382.6 231.134 362.663C220.091 351.617 206.867 343.255 192.477 337.993C190.823 337.387 188.966 337.937 187.91 339.347C178.151 352.352 162.611 360.772 145.12 360.772C127.628 360.772 112.088 352.352 102.329 339.347Z" fill="#3CA6DF"/>
<path fill-rule="evenodd" clip-rule="evenodd" d="M371.954 430.017C403.504 418.233 422.506 401.496 433.998 384.378C461.492 343.42 448.347 298.596 447.799 296.78C444.288 284.419 431.411 277.216 419.037 280.704C406.697 284.183 399.483 296.989 402.877 309.332C403.239 311.118 408.837 341.046 383.538 361.53C377.728 366.235 370.414 370.232 361.344 373.44C360.604 364.914 356.283 356.749 348.787 351.378C335.17 341.619 316.19 344.752 306.431 358.371L277.625 398.572C272.739 405.389 270.892 413.924 272.522 422.151C274.152 430.379 279.113 437.564 286.229 442.006L328.186 468.187C342.4 477.055 361.14 472.716 370.009 458.503C375.563 449.605 375.939 438.932 371.954 430.017Z" fill="#66BC6A"/>
<path fill-rule="evenodd" clip-rule="evenodd" d="M172.105 83.9105C139.404 91.9663 118.594 106.392 105.2 122.065C73.1508 159.568 81.0207 205.611 81.3563 207.479C83.4138 220.164 95.3701 228.806 108.065 226.774C120.725 224.745 129.373 212.86 127.429 200.207C127.277 198.391 125.177 168.018 152.678 150.597C158.992 146.597 166.718 143.473 176.099 141.335C175.85 149.889 179.196 158.499 186.019 164.701C198.416 175.969 217.631 175.052 228.9 162.655L262.163 126.057C267.805 119.852 270.627 111.587 269.96 103.227C269.293 94.8658 265.195 87.1532 258.642 81.92L219.995 51.06C206.904 40.6072 187.787 42.7491 177.332 55.8406C170.788 64.0364 169.177 74.5948 172.105 83.9105Z" fill="#66BC6A"/>
<path fill-rule="evenodd" clip-rule="evenodd" d="M107.399 345.178C117.902 364.005 138.024 376.753 161.1 376.753C182.941 376.753 202.135 365.334 213.034 348.143C206.557 344.02 199.663 340.62 192.478 337.993C190.823 337.387 188.967 337.937 187.91 339.347C178.151 352.352 162.611 360.772 145.121 360.772C130.405 360.772 117.072 354.814 107.399 345.178Z" fill="#3890DA"/>
<path d="M145.12 368.763C179.058 368.763 206.57 341.251 206.57 307.313C206.57 273.375 179.058 245.864 145.12 245.864C111.183 245.864 83.6709 273.375 83.6709 307.313C83.6709 341.251 111.183 368.763 145.12 368.763Z" fill="#F9C5BB"/>
<path fill-rule="evenodd" clip-rule="evenodd" d="M328.522 127.279C339.025 146.106 359.146 158.852 382.221 158.852C404.062 158.852 423.257 147.433 434.157 130.244C427.679 126.121 420.784 122.721 413.6 120.092C411.945 119.488 410.089 120.036 409.033 121.446C399.274 134.453 383.734 142.873 366.241 142.873C351.527 142.873 338.194 136.915 328.522 127.279Z" fill="#3890DA"/>
<path d="M366.241 150.864C400.179 150.864 427.691 123.352 427.691 89.4139C427.691 55.4763 400.179 27.9644 366.241 27.9644C332.303 27.9644 304.792 55.4763 304.792 89.4139C304.792 123.352 332.303 150.864 366.241 150.864Z" fill="#F9C5BB"/>
<path fill-rule="evenodd" clip-rule="evenodd" d="M366.241 27.9644C332.326 27.9644 304.793 55.4992 304.793 89.4139C304.793 123.329 332.326 150.864 366.241 150.864C400.156 150.864 427.691 123.329 427.691 89.4139C427.691 55.4992 400.156 27.9644 366.241 27.9644ZM366.241 35.955C395.745 35.955 419.7 59.9097 419.7 89.4139C419.7 118.918 395.745 142.873 366.241 142.873C336.737 142.873 312.782 118.918 312.782 89.4139C312.782 59.9097 336.737 35.955 366.241 35.955Z" fill="#1B1B3E"/>
<path fill-rule="evenodd" clip-rule="evenodd" d="M145.12 245.865C111.206 245.865 83.6709 273.4 83.6709 307.313C83.6709 341.228 111.206 368.763 145.12 368.763C179.033 368.763 206.568 341.228 206.568 307.313C206.568 273.4 179.033 245.865 145.12 245.865ZM145.12 253.854C174.625 253.854 198.578 277.809 198.578 307.313C198.578 336.819 174.625 360.772 145.12 360.772C115.614 360.772 91.6615 336.819 91.6615 307.313C91.6615 277.809 115.614 253.854 145.12 253.854Z" fill="#1B1B3E"/>
<path fill-rule="evenodd" clip-rule="evenodd" d="M323.452 121.446C322.393 120.036 320.539 119.488 318.884 120.092C304.494 125.356 291.27 133.718 280.227 144.762C260.288 164.701 249.087 191.743 249.087 219.939V219.959C249.087 245.108 269.475 265.496 294.624 265.496H437.858C463.007 265.496 483.395 245.108 483.395 219.959C483.395 219.951 483.395 219.945 483.395 219.939C483.395 191.743 472.194 164.701 452.257 144.762C441.213 133.718 427.99 125.356 413.6 120.092C411.945 119.488 410.089 120.036 409.032 121.446C399.274 134.453 383.733 142.873 366.241 142.873C348.75 142.873 333.21 134.453 323.452 121.446ZM318.939 128.623C330.217 142.209 347.226 150.863 366.241 150.863C385.256 150.863 402.265 142.209 413.542 128.623C425.811 133.523 437.085 140.89 446.606 150.411C465.045 168.851 475.406 193.862 475.406 219.939V219.957C475.406 240.696 458.595 257.505 437.858 257.505C397.12 257.505 335.362 257.505 294.624 257.505C273.887 257.505 257.078 240.696 257.078 219.959C257.078 219.957 257.078 219.939 257.078 219.939C257.078 193.862 267.436 168.851 285.876 150.411C295.399 140.89 306.673 133.523 318.939 128.623Z" fill="#1B1B3E"/>
<path fill-rule="evenodd" clip-rule="evenodd" d="M102.329 339.347C101.272 337.937 99.4162 337.387 97.7613 337.993C83.3716 343.255 70.1478 351.617 59.1043 362.663C39.167 382.6 27.9644 409.642 27.9644 437.839V437.858C27.9644 463.007 48.3523 483.395 73.5036 483.395H216.735C241.886 483.395 262.274 463.007 262.274 437.858C262.274 437.852 262.274 437.846 262.274 437.839C262.274 409.642 251.072 382.6 231.134 362.663C220.091 351.617 206.867 343.255 192.477 337.993C190.823 337.387 188.966 337.937 187.91 339.347C178.151 352.352 162.611 360.772 145.12 360.772C127.628 360.772 112.088 352.352 102.329 339.347ZM97.8188 346.524C109.094 360.109 126.105 368.763 145.12 368.763C164.133 368.763 181.144 360.109 192.42 346.522C204.689 351.422 215.962 358.789 225.485 368.312C243.925 386.752 254.284 411.761 254.284 437.839V437.858C254.284 458.595 237.472 475.406 216.735 475.406C175.999 475.406 114.239 475.406 73.5036 475.406C52.7666 475.406 35.955 458.595 35.955 437.858V437.839C35.955 411.761 46.3139 386.752 64.7536 368.312C74.2764 358.789 85.55 351.422 97.8188 346.524Z" fill="#1B1B3E"/>
<path fill-rule="evenodd" clip-rule="evenodd" d="M172.105 83.9104C139.404 91.9662 118.594 106.392 105.2 122.065C73.1508 159.567 81.0207 205.611 81.3563 207.479C83.4138 220.164 95.3701 228.806 108.065 226.774C120.725 224.745 129.373 212.86 127.429 200.207C127.277 198.391 125.177 168.018 152.678 150.597C158.992 146.597 166.718 143.473 176.099 141.335C175.85 149.889 179.196 158.499 186.019 164.701C198.416 175.969 217.631 175.052 228.9 162.655L262.163 126.057C267.805 119.852 270.627 111.587 269.96 103.226C269.293 94.8656 265.195 87.153 258.642 81.9199L219.995 51.0599C206.904 40.6071 187.787 42.749 177.332 55.8405C170.788 64.0363 169.177 74.5946 172.105 83.9104ZM178.42 90.6412C179.626 90.3746 180.642 89.5654 181.169 88.4474C181.699 87.3314 181.679 86.0332 181.121 84.9305C177.273 77.3522 177.931 67.8965 183.576 60.8263C191.279 51.1807 205.364 49.6025 215.009 57.3036L253.657 88.1636C258.485 92.0199 261.504 97.7018 261.994 103.861C262.487 110.022 260.407 116.111 256.251 120.684L222.987 157.282C214.685 166.415 200.528 167.09 191.394 158.789C185.198 153.159 182.897 144.836 184.642 137.214C184.941 135.908 184.565 134.539 183.643 133.569C182.719 132.598 181.371 132.155 180.051 132.389C167.017 134.698 156.634 138.633 148.401 143.847C115.779 164.513 119.484 201.085 119.484 201.085C119.492 201.164 119.503 201.243 119.515 201.321C120.853 209.676 115.156 217.546 106.801 218.883C98.4459 220.221 90.5761 214.524 89.2376 206.169C89.2338 206.135 89.2261 206.1 89.2203 206.065C89.2203 206.065 81.0993 162.567 111.273 127.256C124.414 111.881 145.257 97.9568 178.42 90.6412Z" fill="#1B1B3E"/>
<path fill-rule="evenodd" clip-rule="evenodd" d="M371.953 430.017C403.504 418.233 422.505 401.496 433.997 384.378C461.492 343.42 448.347 298.596 447.798 296.78C444.287 284.419 431.411 277.216 419.036 280.704C406.696 284.183 399.482 296.989 402.877 309.332C403.239 311.118 408.837 341.046 383.538 361.53C377.727 366.235 370.413 370.232 361.343 373.44C360.603 364.914 356.283 356.749 348.787 351.378C335.17 341.619 316.189 344.752 306.431 358.371L277.625 398.572C272.738 405.389 270.892 413.924 272.522 422.151C274.152 430.379 279.113 437.564 286.229 442.006L328.186 468.187C342.399 477.055 361.14 472.716 370.009 458.503C375.562 449.605 375.938 438.932 371.953 430.017ZM364.904 424.063C363.736 424.465 362.822 425.388 362.425 426.557C362.03 427.729 362.198 429.016 362.881 430.045C367.581 437.129 368.02 446.596 363.23 454.272C356.695 464.746 342.888 467.943 332.416 461.408L290.459 435.227C285.216 431.955 281.561 426.661 280.359 420.599C279.159 414.536 280.52 408.248 284.119 403.224L312.926 363.025C320.117 352.992 334.1 350.684 344.133 357.873C350.936 362.749 354.187 370.749 353.335 378.521C353.19 379.852 353.721 381.17 354.751 382.027C355.78 382.884 357.171 383.168 358.453 382.782C371.131 378.982 380.991 373.873 388.566 367.741C418.576 343.439 410.666 307.541 410.666 307.541C410.649 307.465 410.629 307.388 410.608 307.311C408.313 299.167 413.061 290.691 421.205 288.396C429.349 286.099 437.825 290.847 440.12 298.991C440.13 299.025 440.139 299.06 440.151 299.094C440.151 299.094 453.25 341.362 427.362 379.925C416.091 396.718 396.997 412.958 364.904 424.063Z" fill="#1B1B3E"/>
</svg>
