<svg width="22" height="22" viewBox="0 0 22 22" fill="none" xmlns="http://www.w3.org/2000/svg">
<path d="M3.66699 12.375V3.66665C3.66699 3.18042 3.86015 2.7141 4.20396 2.37028C4.54778 2.02647 5.0141 1.83331 5.50033 1.83331H13.292L18.3337 6.87498V18.3333C18.3337 18.8195 18.1405 19.2859 17.7967 19.6297C17.4529 19.9735 16.9866 20.1666 16.5003 20.1666H11.4587" stroke="black" stroke-linecap="round" stroke-linejoin="round"/>
<path d="M12.833 1.83331V7.33331H18.333" stroke="black" stroke-linecap="round" stroke-linejoin="round"/>
<path d="M9.55199 11.5591C9.73075 11.3804 9.94298 11.2386 10.1765 11.1418C10.4101 11.0451 10.6604 10.9953 10.9132 10.9953C11.166 10.9953 11.4164 11.0451 11.6499 11.1418C11.8835 11.2386 12.0957 11.3804 12.2745 11.5591C12.4533 11.7379 12.5951 11.9501 12.6918 12.1837C12.7885 12.4173 12.8383 12.6676 12.8383 12.9204C12.8383 13.1732 12.7885 13.4235 12.6918 13.6571C12.5951 13.8907 12.4533 14.1029 12.2745 14.2816L7.28783 19.25L3.66699 20.1666L4.57449 16.5458L9.55199 11.5591Z" stroke="black" stroke-linecap="round" stroke-linejoin="round"/>
</svg>
