<svg width="18" height="18" viewBox="0 0 18 18" fill="none" xmlns="http://www.w3.org/2000/svg">
<path d="M3 10.125V3C3 2.60218 3.15804 2.22064 3.43934 1.93934C3.72064 1.65804 4.10218 1.5 4.5 1.5H10.875L15 5.625V15C15 15.3978 14.842 15.7794 14.5607 16.0607C14.2794 16.342 13.8978 16.5 13.5 16.5H9.375" stroke="black" stroke-linecap="round" stroke-linejoin="round"/>
<path d="M10.5 1.5V6H15" stroke="black" stroke-linecap="round" stroke-linejoin="round"/>
<path d="M7.815 9.45742C7.96126 9.31116 8.1349 9.19514 8.32599 9.11599C8.51709 9.03683 8.72191 8.99609 8.92875 8.99609C9.13559 8.99609 9.34041 9.03683 9.53151 9.11599C9.7226 9.19514 9.89624 9.31116 10.0425 9.45742C10.1888 9.60368 10.3048 9.77732 10.3839 9.96842C10.4631 10.1595 10.5038 10.3643 10.5038 10.5712C10.5038 10.778 10.4631 10.9828 10.3839 11.1739C10.3048 11.365 10.1888 11.5387 10.0425 11.6849L5.9625 15.7499L3 16.4999L3.7425 13.5374L7.815 9.45742Z" stroke="black" stroke-linecap="round" stroke-linejoin="round"/>
</svg>
