<svg width="16" height="16" viewBox="0 0 16 16" fill="none" xmlns="http://www.w3.org/2000/svg">
<path d="M2.66602 14.6666H11.9993C12.353 14.6666 12.6921 14.5262 12.9422 14.2761C13.1922 14.0261 13.3327 13.6869 13.3327 13.3333V4.99998L9.66602 1.33331H3.99935C3.64573 1.33331 3.30659 1.47379 3.05654 1.72384C2.80649 1.97389 2.66602 2.31302 2.66602 2.66665V4.66665" stroke="black" stroke-linecap="round" stroke-linejoin="round"/>
<path d="M9.33398 1.33331V5.33331H13.334" stroke="black" stroke-linecap="round" stroke-linejoin="round"/>
<path d="M3.33398 11.3333C3.59663 11.3333 3.8567 11.2816 4.09935 11.1811C4.342 11.0806 4.56248 10.9332 4.7482 10.7475C4.93392 10.5618 5.08123 10.3413 5.18174 10.0987C5.28225 9.85603 5.33398 9.59596 5.33398 9.33331C5.33398 9.07067 5.28225 8.8106 5.18174 8.56795C5.08123 8.32529 4.93392 8.10482 4.7482 7.9191C4.56248 7.73338 4.342 7.58606 4.09935 7.48555C3.8567 7.38504 3.59663 7.33331 3.33398 7.33331C2.80355 7.33331 2.29484 7.54403 1.91977 7.9191C1.5447 8.29417 1.33398 8.80288 1.33398 9.33331C1.33398 9.86375 1.5447 10.3725 1.91977 10.7475C2.29484 11.1226 2.80355 11.3333 3.33398 11.3333Z" stroke="black" stroke-linecap="round" stroke-linejoin="round"/>
<path d="M6 12L5 11" stroke="black" stroke-linecap="round" stroke-linejoin="round"/>
</svg>
