<svg width="12" height="12" viewBox="0 0 12 12" fill="none" xmlns="http://www.w3.org/2000/svg">
<path d="M10.0155 7.76561C9.98069 7.80047 9.93934 7.82813 9.89381 7.84701C9.84829 7.86588 9.79949 7.87559 9.75021 7.87559C9.70093 7.87559 9.65213 7.86588 9.60661 7.84701C9.56108 7.82813 9.51972 7.80047 9.4849 7.76561L6.00021 4.28045L2.51552 7.76561C2.44516 7.83597 2.34972 7.8755 2.25021 7.8755C2.1507 7.8755 2.05526 7.83597 1.9849 7.76561C1.91453 7.69524 1.875 7.59981 1.875 7.5003C1.875 7.40078 1.91453 7.30535 1.9849 7.23498L5.7349 3.48498C5.76972 3.45012 5.81108 3.42246 5.85661 3.40359C5.90213 3.38471 5.95093 3.375 6.00021 3.375C6.04949 3.375 6.09829 3.38471 6.14381 3.40359C6.18934 3.42246 6.23069 3.45012 6.26552 3.48498L10.0155 7.23498C10.0504 7.26981 10.078 7.31117 10.0969 7.35669C10.1158 7.40222 10.1255 7.45101 10.1255 7.5003C10.1255 7.54958 10.1158 7.59837 10.0969 7.6439C10.078 7.68942 10.0504 7.73078 10.0155 7.76561Z" fill="black"/>
</svg>
