<svg width="32" height="32" viewBox="0 0 32 32" fill="none" xmlns="http://www.w3.org/2000/svg">
<path d="M21.588 2.66699H10.4146C5.5613 2.66699 2.66797 5.56033 2.66797 10.4137V21.5737C2.66797 26.4403 5.5613 29.3337 10.4146 29.3337H21.5746C26.428 29.3337 29.3213 26.4403 29.3213 21.587V10.4137C29.3346 5.56033 26.4413 2.66699 21.588 2.66699ZM11.2946 14.6403C11.6813 14.2537 12.3213 14.2537 12.708 14.6403L15.0013 16.9337V8.68033C15.0013 8.13366 15.4546 7.68033 16.0013 7.68033C16.548 7.68033 17.0013 8.13366 17.0013 8.68033V16.9337L19.2946 14.6403C19.6813 14.2537 20.3213 14.2537 20.708 14.6403C21.0946 15.027 21.0946 15.667 20.708 16.0537L16.708 20.0537C16.6146 20.147 16.508 20.2137 16.388 20.267C16.268 20.3203 16.1346 20.347 16.0013 20.347C15.868 20.347 15.748 20.3203 15.6146 20.267C15.4946 20.2137 15.388 20.147 15.2946 20.0537L11.2946 16.0537C10.908 15.667 10.908 15.0403 11.2946 14.6403ZM24.3213 22.9603C21.6413 23.8537 18.828 24.307 16.0013 24.307C13.1746 24.307 10.3613 23.8537 7.6813 22.9603C7.1613 22.787 6.8813 22.2137 7.05464 21.6937C7.22797 21.1737 7.78797 20.8803 8.3213 21.067C13.2813 22.7203 18.7346 22.7203 23.6946 21.067C24.2146 20.8937 24.788 21.1737 24.9613 21.6937C25.1213 22.227 24.8413 22.787 24.3213 22.9603Z" fill="#64748B"/>
</svg>
