<svg width="22" height="22" viewBox="0 0 22 22" fill="none" xmlns="http://www.w3.org/2000/svg">
<path d="M18.3327 17.875V18.3333C18.3327 18.8195 18.1395 19.2859 17.7957 19.6297C17.4519 19.9735 16.9856 20.1666 16.4993 20.1666H5.49935C5.01312 20.1666 4.5468 19.9735 4.20299 19.6297C3.85917 19.2859 3.66602 18.8195 3.66602 18.3333V3.66665C3.66602 3.18042 3.85917 2.7141 4.20299 2.37028C4.5468 2.02647 5.01312 1.83331 5.49935 1.83331H13.291L16.4993 5.04165" stroke="white" stroke-linecap="round" stroke-linejoin="round"/>
<path d="M7.33398 16.5H8.25065" stroke="white" stroke-linecap="round" stroke-linejoin="round"/>
<path d="M16.8843 8.80915C17.0631 8.63039 17.2753 8.48858 17.5089 8.39184C17.7425 8.29509 17.9928 8.2453 18.2456 8.2453C18.4984 8.2453 18.7487 8.29509 18.9823 8.39184C19.2159 8.48858 19.4281 8.63039 19.6068 8.80915C19.7856 8.98791 19.9274 9.20013 20.0242 9.4337C20.1209 9.66726 20.1707 9.91759 20.1707 10.1704C20.1707 10.4232 20.1209 10.6735 20.0242 10.9071C19.9274 11.1407 19.7856 11.3529 19.6068 11.5316L15.5368 15.5833L11.916 16.5L12.8235 12.8791L16.8843 8.80915Z" stroke="white" stroke-linecap="round" stroke-linejoin="round"/>
</svg>
