<svg width="24" height="24" viewBox="0 0 24 24" fill="none" xmlns="http://www.w3.org/2000/svg">
<g clip-path="url(#clip0_2008_132716)">
<mask id="mask0_2008_132716" style="mask-type:luminance" maskUnits="userSpaceOnUse" x="0" y="0" width="24" height="24">
<path d="M23.3642 0H0.634766V23.9294H23.3642V0Z" fill="white"/>
</mask>
<g mask="url(#mask0_2008_132716)">
<path d="M7.83385 19.2704C7.83385 20.0468 7.19855 20.7527 6.35149 20.7527C5.50443 20.7527 4.86914 20.1174 4.86914 19.2704V12.9174C4.86914 12.1409 5.50443 11.4351 6.35149 11.4351C7.19855 11.4351 7.83385 12.0704 7.83385 12.9174V19.2704Z" fill="#231F20"/>
</g>
<mask id="mask1_2008_132716" style="mask-type:luminance" maskUnits="userSpaceOnUse" x="0" y="0" width="24" height="24">
<path d="M23.3642 0H0.634766V23.9294H23.3642V0Z" fill="white"/>
</mask>
<g mask="url(#mask1_2008_132716)">
<path d="M12.0699 20.9645C12.0699 21.7409 11.4346 22.4468 10.5875 22.4468C9.74049 22.4468 9.17578 21.8115 9.17578 20.9645V11.2939C9.17578 10.5174 9.81108 9.81152 10.6581 9.81152C11.5052 9.81152 12.1405 10.4468 12.1405 11.2939V20.9645H12.0699Z" fill="#231F20"/>
</g>
<mask id="mask2_2008_132716" style="mask-type:luminance" maskUnits="userSpaceOnUse" x="0" y="0" width="24" height="24">
<path d="M23.3642 0H0.634766V23.9294H23.3642V0Z" fill="white"/>
</mask>
<g mask="url(#mask2_2008_132716)">
<path d="M3.52916 17.8587C3.52916 18.6351 2.89387 19.341 2.04681 19.341C1.19975 19.341 0.564453 18.7057 0.564453 17.8587V14.3998C0.564453 13.6234 1.19975 12.9175 2.04681 12.9175C2.89387 12.9175 3.52916 13.6234 3.52916 14.3998V17.8587Z" fill="#231F20"/>
</g>
<mask id="mask3_2008_132716" style="mask-type:luminance" maskUnits="userSpaceOnUse" x="0" y="0" width="24" height="24">
<path d="M23.3642 0H0.634766V23.9294H23.3642V0Z" fill="white"/>
</mask>
<g mask="url(#mask3_2008_132716)">
<path d="M16.3062 22.5179C16.3062 23.2944 15.6709 24.0002 14.8239 24.0002C14.0474 24.0002 13.4121 23.2944 13.4121 22.5179V9.67083C13.4121 8.89436 14.0474 8.18848 14.8945 8.18848C15.6709 8.18848 16.3768 8.82377 16.3768 9.67083V22.5179H16.3062Z" fill="#231F20"/>
</g>
<mask id="mask4_2008_132716" style="mask-type:luminance" maskUnits="userSpaceOnUse" x="0" y="0" width="24" height="24">
<path d="M23.3642 0H0.634766V23.9294H23.3642V0Z" fill="white"/>
</mask>
<g mask="url(#mask4_2008_132716)">
<path d="M20.9634 21.8823C20.681 21.8823 20.4693 21.8117 20.1869 21.7411L18.4222 21.1764C18.1398 21.1058 17.9281 20.7529 18.0693 20.4705C18.1398 20.1882 18.4928 19.9764 18.7751 20.1176L20.6104 20.6823C20.9634 20.8234 21.3869 20.7529 21.7398 20.4705C22.0928 20.2587 22.234 19.8352 22.234 19.4823V7.69403C22.234 7.12933 21.881 6.63521 21.3869 6.49403L4.09279 1.2705C3.73984 1.12933 3.31631 1.19991 2.96337 1.41168C2.68102 1.69403 2.46926 2.04697 2.46926 2.4705V10.5881C2.46926 10.9411 2.1869 11.1529 1.90455 11.1529C1.55161 11.1529 1.33984 10.8705 1.33984 10.5881V2.4705C1.33984 1.69403 1.69278 0.98815 2.32808 0.56462C2.96337 0.0705027 3.73984 -8.55001e-05 4.44573 0.211679L21.6693 5.43521C22.6575 5.71756 23.3634 6.7058 23.3634 7.76462V19.5529C23.3634 20.3293 23.0104 21.0352 22.3751 21.5293C21.9516 21.6705 21.4575 21.8823 20.9634 21.8823Z" fill="#231F20"/>
</g>
</g>
<defs>
<clipPath id="clip0_2008_132716">
<rect width="24" height="24" fill="white"/>
</clipPath>
</defs>
</svg>
