<svg width="11" height="11" viewBox="0 0 11 11" fill="none" xmlns="http://www.w3.org/2000/svg">
<path d="M5.49935 5.95866C5.75248 5.95866 5.95768 5.75346 5.95768 5.50033C5.95768 5.2472 5.75248 5.04199 5.49935 5.04199C5.24622 5.04199 5.04102 5.2472 5.04102 5.50033C5.04102 5.75346 5.24622 5.95866 5.49935 5.95866Z" stroke="white" stroke-linecap="round" stroke-linejoin="round"/>
<path d="M5.49935 2.74967C5.75248 2.74967 5.95768 2.54447 5.95768 2.29134C5.95768 2.03821 5.75248 1.83301 5.49935 1.83301C5.24622 1.83301 5.04102 2.03821 5.04102 2.29134C5.04102 2.54447 5.24622 2.74967 5.49935 2.74967Z" stroke="white" stroke-linecap="round" stroke-linejoin="round"/>
<path d="M5.49935 9.16667C5.75248 9.16667 5.95768 8.96146 5.95768 8.70833C5.95768 8.4552 5.75248 8.25 5.49935 8.25C5.24622 8.25 5.04102 8.4552 5.04102 8.70833C5.04102 8.96146 5.24622 9.16667 5.49935 9.16667Z" stroke="white" stroke-linecap="round" stroke-linejoin="round"/>
</svg>
