<svg width="16" height="16" viewBox="0 0 16 16" fill="none" xmlns="http://www.w3.org/2000/svg">
<path d="M2.66732 13.3333H13.334C13.6876 13.3333 14.0267 13.1929 14.2768 12.9428C14.5268 12.6928 14.6673 12.3536 14.6673 12V5.33333C14.6673 4.97971 14.5268 4.64057 14.2768 4.39052C14.0267 4.14048 13.6876 4 13.334 4H8.04732C7.82771 3.99886 7.61178 3.9435 7.41872 3.83883C7.22565 3.73415 7.06143 3.58341 6.94065 3.4L6.39398 2.6C6.2732 2.41659 6.10898 2.26585 5.91592 2.16117C5.72286 2.0565 5.50693 2.00114 5.28732 2H2.66732C2.3137 2 1.97456 2.14048 1.72451 2.39052C1.47446 2.64057 1.33398 2.97971 1.33398 3.33333V12C1.33398 12.7333 1.93398 13.3333 2.66732 13.3333Z" stroke="black" stroke-linecap="round" stroke-linejoin="round"/>
<path d="M8 6.6665V10.6665" stroke="black" stroke-linecap="round" stroke-linejoin="round"/>
<path d="M6 8.6665H10" stroke="black" stroke-linecap="round" stroke-linejoin="round"/>
</svg>
