<svg width="22" height="22" viewBox="0 0 22 22" fill="none" xmlns="http://www.w3.org/2000/svg">
<path fill-rule="evenodd" clip-rule="evenodd" d="M5.6375 0H12.9928L19.2267 6.49776V19.1359C19.2267 20.7191 17.9458 22 16.3681 22H5.6375C4.05429 22 2.77344 20.7191 2.77344 19.1359V2.86406C2.77341 1.28086 4.05426 0 5.6375 0Z" fill="#E5252A"/>
<path opacity="0.302" fill-rule="evenodd" clip-rule="evenodd" d="M12.9883 0V6.44828H19.2277L12.9883 0Z" fill="white"/>
<path d="M5.95703 16.415V12.3965H7.66668C8.08997 12.3965 8.42532 12.5119 8.67818 12.7483C8.93105 12.9792 9.0575 13.2925 9.0575 13.6828C9.0575 14.0731 8.93105 14.3865 8.67818 14.6174C8.42532 14.8538 8.08997 14.9692 7.66668 14.9692H6.98502V16.415H5.95703ZM6.98502 14.0952H7.55124C7.70515 14.0952 7.8261 14.0622 7.90857 13.9852C7.99102 13.9138 8.03502 13.8148 8.03502 13.6829C8.03502 13.5509 7.99104 13.452 7.90857 13.3805C7.82612 13.3036 7.70518 13.2706 7.55124 13.2706H6.98502V14.0952ZM9.48077 16.415V12.3965H10.9046C11.1849 12.3965 11.4488 12.435 11.6962 12.5174C11.9435 12.5999 12.1689 12.7153 12.3668 12.8748C12.5647 13.0287 12.7241 13.2376 12.8396 13.5014C12.9495 13.7653 13.01 14.0677 13.01 14.4085C13.01 14.7438 12.9495 15.0462 12.8396 15.31C12.7241 15.5739 12.5647 15.7828 12.3668 15.9367C12.1689 16.0961 11.9435 16.2116 11.6962 16.294C11.4488 16.3765 11.1849 16.415 10.9046 16.415H9.48077ZM10.4868 15.5409H10.7836C10.943 15.5409 11.0915 15.5244 11.2289 15.4859C11.3608 15.4475 11.4873 15.387 11.6082 15.3045C11.7236 15.2221 11.8171 15.1066 11.8831 14.9527C11.949 14.7988 11.982 14.6174 11.982 14.4085C11.982 14.1941 11.949 14.0127 11.8831 13.8588C11.8171 13.7049 11.7236 13.5894 11.6082 13.5069C11.4873 13.4245 11.3608 13.364 11.2289 13.3255C11.0915 13.2871 10.943 13.2706 10.7836 13.2706H10.4868V15.5409ZM13.5268 16.415V12.3965H16.3853V13.2706H14.5547V13.9137H16.017V14.7823H14.5547V16.415H13.5268Z" fill="white"/>
</svg>
