<svg width="24" height="24" viewBox="0 0 24 24" fill="none" xmlns="http://www.w3.org/2000/svg">
<path d="M3.84995 8.61912C3.70399 7.96165 3.7264 7.27796 3.91511 6.63146C4.10381 5.98496 4.4527 5.39657 4.92942 4.92084C5.40614 4.44512 5.99526 4.09747 6.64216 3.91012C7.28905 3.72277 7.97278 3.70179 8.62995 3.84912C8.99166 3.28342 9.48995 2.81788 10.0789 2.49541C10.6678 2.17293 11.3285 2.00391 11.9999 2.00391C12.6714 2.00391 13.332 2.17293 13.921 2.49541C14.5099 2.81788 15.0082 3.28342 15.3699 3.84912C16.0281 3.70114 16.713 3.72203 17.3609 3.90983C18.0089 4.09764 18.5988 4.44626 19.0758 4.92327C19.5528 5.40029 19.9014 5.99019 20.0892 6.63812C20.277 7.28605 20.2979 7.97095 20.1499 8.62912C20.7156 8.99083 21.1812 9.48912 21.5037 10.0781C21.8261 10.667 21.9952 11.3277 21.9952 11.9991C21.9952 12.6706 21.8261 13.3312 21.5037 13.9202C21.1812 14.5091 20.7156 15.0074 20.1499 15.3691C20.2973 16.0263 20.2763 16.71 20.089 17.3569C19.9016 18.0038 19.554 18.5929 19.0782 19.0697C18.6025 19.5464 18.0141 19.8953 17.3676 20.084C16.7211 20.2727 16.0374 20.2951 15.3799 20.1491C15.0187 20.717 14.52 21.1845 13.9301 21.5084C13.3401 21.8324 12.678 22.0022 12.0049 22.0022C11.3319 22.0022 10.6698 21.8324 10.0798 21.5084C9.48987 21.1845 8.99119 20.717 8.62995 20.1491C7.97278 20.2965 7.28905 20.2755 6.64216 20.0881C5.99526 19.9008 5.40614 19.5531 4.92942 19.0774C4.4527 18.6017 4.10381 18.0133 3.91511 17.3668C3.7264 16.7203 3.70399 16.0366 3.84995 15.3791C3.27991 15.0184 2.81036 14.5193 2.485 13.9283C2.15963 13.3374 1.98901 12.6737 1.98901 11.9991C1.98901 11.3245 2.15963 10.6609 2.485 10.0699C2.81036 9.47895 3.27991 8.97988 3.84995 8.61912Z" stroke="#0D9488" stroke-linecap="round" stroke-linejoin="round"/>
<path d="M16 8H10C9.46957 8 8.96086 8.21071 8.58579 8.58579C8.21071 8.96086 8 9.46957 8 10C8 10.5304 8.21071 11.0391 8.58579 11.4142C8.96086 11.7893 9.46957 12 10 12H14C14.5304 12 15.0391 12.2107 15.4142 12.5858C15.7893 12.9609 16 13.4696 16 14C16 14.5304 15.7893 15.0391 15.4142 15.4142C15.0391 15.7893 14.5304 16 14 16H8" stroke="#0D9488" stroke-linecap="round" stroke-linejoin="round"/>
<path d="M12 18V6" stroke="#0D9488" stroke-linecap="round" stroke-linejoin="round"/>
</svg>
