<svg width="22" height="22" viewBox="0 0 22 22" fill="none" xmlns="http://www.w3.org/2000/svg">
<path d="M5.5 8.25016V1.8335H16.5V8.25016" stroke="black" stroke-linecap="round" stroke-linejoin="round"/>
<path d="M5.50065 16.5H3.66732C3.18109 16.5 2.71477 16.3068 2.37096 15.963C2.02714 15.6192 1.83398 15.1529 1.83398 14.6667V10.0833C1.83398 9.5971 2.02714 9.13079 2.37096 8.78697C2.71477 8.44315 3.18109 8.25 3.66732 8.25H18.334C18.8202 8.25 19.2865 8.44315 19.6303 8.78697C19.9742 9.13079 20.1673 9.5971 20.1673 10.0833V14.6667C20.1673 15.1529 19.9742 15.6192 19.6303 15.963C19.2865 16.3068 18.8202 16.5 18.334 16.5H16.5007" stroke="black" stroke-linecap="round" stroke-linejoin="round"/>
<path d="M16.5 12.8335H5.5V20.1668H16.5V12.8335Z" stroke="black" stroke-linecap="round" stroke-linejoin="round"/>
</svg>
