<svg id="Layer_1" enable-background="new 0 0 66 66" viewBox="0 0 66 66" xmlns="http://www.w3.org/2000/svg"><g><g><path d="m29.21 13.8c2.06-1.63 4.72-3.36 7.11-2.28 1.09.49 1.85 1.47 2.58 2.42 5.43 7.11 10.86 14.21 16.28 21.32.74.96 1.49 1.97 1.73 3.16.53 2.65-1.62 5.03-3.61 6.85-6.7 6.14-13.7 11.96-20.96 17.43-.82.62-1.7 1.26-2.72 1.4-2.13.3-3.88-1.57-5.21-3.27-5.58-7.1-11.16-14.2-16.73-21.31-1.97-2.51-4.02-4.88-1.26-7.59 3.16-3.11 7.13-5.68 10.6-8.44 4.06-3.22 8.13-6.46 12.19-9.69z" fill="#e92e89"/></g><g><path d="m29.16 64.38c-.99 0-1.96-.42-2.97-1.27-.1-.09-.12-.24-.03-.34s.24-.12.34-.03c1.07.9 2.08 1.27 3.08 1.12.92-.13 1.73-.69 2.61-1.36 2.01-1.51 4.02-3.07 5.97-4.63.1-.08.26-.07.34.04s.07.26-.04.34c-1.96 1.56-3.97 3.12-5.98 4.64-.76.57-1.71 1.29-2.83 1.45-.17.03-.33.04-.49.04z"/></g><g><path d="m60.32 44.93c-.6.89-1.61 1.42-2.57 1.91-8.47 4.3-17.14 8.18-25.98 11.65-2.63 1.03-5.84 1.96-8.08.24-1-.77-1.6-1.94-2.17-3.08-4.16-8.35-8.34-16.7-12.5-25.06-.56-1.11-1.13-2.28-1.08-3.52.09-2.74 2.93-4.44 5.41-5.62.5-.23 1.01-.48 1.5-.71.5-.24.99-.47 1.49-.71.41-.2.82-.39 1.23-.59.5-.23 1.01-.48 1.5-.71.55-.27 1.1-.53 1.66-.79.51-.24 1.01-.48 1.51-.72.35-.16.69-.32 1.04-.49.51-.24 1.01-.48 1.51-.71 1.08-.52 2.16-1.03 3.25-1.54 4.18-1.99 8.41-4.54 12.78-6.06 3.81-1.34 5.09 1.67 6.54 4.67 4.09 8.49 8.19 16.98 12.28 25.48.99 2 1.94 4.5.68 6.36z" fill="#ffa803"/></g><g><path d="m14.9 42.61c-.09 0-.18-.05-.22-.14-1.96-3.93-3.92-7.85-5.88-11.78-.51-1.02-1.15-2.3-1.1-3.64.05-1.52.88-2.86 2.55-4.1.11-.08.26-.06.34.05s.06.26-.05.34c-1.54 1.14-2.31 2.36-2.36 3.72-.05 1.22.56 2.43 1.05 3.41 1.96 3.93 3.92 7.86 5.88 11.78.06.12.01.27-.11.33-.03.02-.07.03-.1.03z"/></g><g><g><path d="m28.56 29.87c.15 1.07-.12 2.08-.73 2.77-.43.47-1 .78-1.64.91-.73.14-1.54.05-2.3-.29-1.15-.52-1.99-1.49-2.69-2.35-2.59-3.2-4.72-6.61-6.33-10.18-.57-1.24-1.07-2.5-1.51-3.77-.33-.97-.51-1.86-.55-2.75-.09-2.08 1.08-3.78 3.17-4.53.95-.34 2.12-.26 3.19.21.94.42 1.67 1.11 2.31 1.8 1.25 1.34 2.34 2.79 3.34 4.31-.51.24-1.01.48-1.51.71-.9-1.37-1.91-2.7-3.03-3.9-.53-.56-1.1-1.12-1.78-1.41-.69-.31-1.43-.37-1.97-.17-1.39.5-2.14 1.56-2.08 2.9.03.72.18 1.48.47 2.28.42 1.22.89 2.42 1.43 3.6 1.56 3.45 3.61 6.75 6.13 9.85.6.75 1.27 1.51 2.09 1.89.64.29 1.56.3 2.03-.22.29-.32.42-.86.33-1.44-.09-.62-.38-1.26-.65-1.88-1.48-3.27-3.01-6.64-5.05-9.62l-.06-.08c-.13-.18-.27-.39-.42-.59-.3-.41-.64-.79-.99-.96-.57-.28-.64-.2-.78 0-.26.36-.1 1.07.05 1.57l.06.19c-.5.23-1.01.48-1.5.71-.05-.14-.1-.28-.14-.43-.24-.84-.5-2.07.21-3.02.68-.92 1.63-1.08 2.82-.49.76.37 1.32 1.06 1.78 1.72.09.12.18.25.27.38l.06.08c2.13 3.1 3.69 6.54 5.19 9.87.3.68.66 1.47.78 2.33z" fill="#d8d4d3"/></g></g><g><path d="m20.73 5.06c.15 1.23-.1 2.47-.54 3.63s-1.03 2.25-1.55 3.37c-.46 1.02-.86 2.08-1.01 3.18-.02.16-.19.23-.32.14-.9-.66-1.95-1.1-3-1.46-1.17-.41-2.37-.73-3.51-1.21s-2.21-1.16-3-2.12c-.64-.78-.97-1.82-.88-2.84.05-.58.23-1.15.53-1.64.57-.95 1.58-1.62 2.67-1.78.94-.14 2.18.33 2.94 1.08.11.1.28.03.27-.12-.01-1.07.52-2.29 1.27-2.88.87-.68 2.05-.94 3.13-.7.57.13 1.1.39 1.56.75.79.64 1.32 1.59 1.44 2.6z" fill="#e5221c"/></g><g><path d="m17.84 14.49c-.02 0-.04 0-.06-.01-.13-.03-.21-.17-.17-.3.18-.66.44-1.37.82-2.22.18-.39.37-.77.55-1.16.35-.71.71-1.45.99-2.2.3-.79.49-1.57.54-2.31.01-.13.14-.23.26-.22.14.01.24.13.23.26-.06.79-.25 1.61-.57 2.45-.29.77-.66 1.52-1.01 2.24-.19.38-.37.76-.55 1.15-.37.82-.63 1.5-.8 2.14-.03.1-.13.18-.23.18z"/></g><g><g><g><path d="m54.57 25.67c-.07 0-.14-.03-.19-.09-.08-.11-.07-.26.04-.34 1.51-1.2 3.52-1.79 6.17-1.81.13 0 .24.11.24.24s-.11.24-.24.25c-2.53.02-4.45.57-5.87 1.7-.05.04-.1.05-.15.05z"/></g><g><path d="m54.21 24.19c-.07 0-.14-.03-.19-.09-.09-.1-.07-.26.03-.34 1.35-1.14 3.12-1.78 4.9-1.75.13 0 .24.11.24.25s-.12.24-.25.24c-1.64-.02-3.31.57-4.57 1.64-.05.04-.11.05-.16.05z"/></g><g><path d="m54.39 22.75c-.06 0-.13-.02-.18-.07-.09-.1-.09-.25.01-.35.78-.75 1.67-1.21 2.67-1.36.14-.02.26.07.28.2s-.07.26-.2.28c-.9.14-1.71.55-2.41 1.23-.04.04-.11.07-.17.07z"/></g></g><g><path d="m42.53 22.77c-1.08 2.24-1.06 4.69-.15 6.58.56 1.15 1.44 2.1 2.62 2.66 3.1 1.49 7.02-.22 8.76-3.83s.63-7.74-2.47-9.24c-1.88-.9-4.06-.63-5.87.52-1.18.76-2.2 1.89-2.89 3.31z" fill="#fff"/></g><g><path d="m47.39 32.8c-.86 0-1.71-.19-2.49-.57-1.19-.57-2.13-1.53-2.73-2.78-.98-2.03-.92-4.57.15-6.79.68-1.42 1.72-2.6 2.99-3.4 1.94-1.24 4.22-1.44 6.1-.53 1.56.75 2.69 2.17 3.18 3.98.48 1.8.27 3.78-.6 5.58s-2.28 3.2-3.99 3.94c-.87.38-1.75.57-2.61.57zm-4.64-9.92c-1.01 2.09-1.06 4.47-.15 6.37.55 1.14 1.42 2.02 2.51 2.55 1.43.69 3.1.69 4.69 0 1.6-.7 2.93-2.02 3.75-3.71s1.02-3.55.57-5.24c-.45-1.67-1.48-2.98-2.92-3.67-1.72-.83-3.83-.64-5.63.51-1.2.74-2.17 1.85-2.82 3.19z"/></g><g><path d="m42.53 22.77c-1.08 2.24-1.06 4.69-.15 6.58 1.36-.43 2.75-1.7 3.62-3.5 1.25-2.58.98-5.34-.57-6.38-1.19.75-2.21 1.88-2.9 3.3z"/></g><g><g><path d="m28.86 14.49c-.13 0-.24-.11-.24-.24 0-1.81-.76-3.66-2.32-5.65-.08-.11-.06-.26.04-.34.11-.08.26-.06.34.04 1.63 2.08 2.43 4.02 2.43 5.95-.01.13-.12.24-.25.24z"/></g><g><path d="m30.24 13.85c-.14 0-.25-.12-.24-.25.05-1.65-.52-3.32-1.57-4.6-.09-.1-.07-.26.03-.34.1-.09.26-.07.34.03 1.12 1.36 1.73 3.16 1.68 4.92 0 .13-.11.24-.24.24z"/></g><g><path d="m31.26 12.8c-.01 0-.02 0-.02 0-.13-.01-.23-.13-.22-.27.1-.97-.09-1.86-.54-2.65-.07-.12-.03-.27.09-.33.12-.07.27-.03.33.09.5.87.7 1.86.6 2.94-.01.13-.12.22-.24.22z"/></g></g><g><path d="m27.16 16.57c-1.08 2.24-1.06 4.69-.15 6.58.56 1.15 1.44 2.1 2.62 2.66 3.1 1.49 7.02-.22 8.76-3.83s.63-7.74-2.47-9.24c-1.88-.9-4.06-.63-5.87.52-1.17.76-2.2 1.88-2.89 3.31z" fill="#fff"/></g><g><path d="m32.02 26.59c-.86 0-1.71-.19-2.49-.57-1.19-.57-2.13-1.53-2.73-2.78-.98-2.03-.92-4.57.15-6.79.68-1.42 1.72-2.6 2.99-3.4 1.94-1.24 4.22-1.44 6.1-.53 1.56.75 2.69 2.17 3.18 3.98.48 1.8.27 3.78-.6 5.58s-2.28 3.2-3.99 3.94c-.87.39-1.75.57-2.61.57zm-4.64-9.92c-1.01 2.09-1.06 4.47-.15 6.37.55 1.14 1.42 2.02 2.51 2.55 1.43.69 3.1.69 4.69 0 1.6-.7 2.93-2.02 3.75-3.71s1.02-3.55.57-5.24c-.45-1.67-1.48-2.98-2.92-3.67-1.72-.83-3.83-.64-5.63.51-1.2.75-2.17 1.85-2.82 3.19z"/></g><g><path d="m27.16 16.57c-1.08 2.24-1.06 4.69-.15 6.58 1.36-.43 2.75-1.7 3.62-3.5 1.25-2.58.98-5.34-.57-6.38-1.18.75-2.21 1.87-2.9 3.3z"/></g><g><path d="m45.24 37.33c-.15-1.47-1.57-2.66-3.04-2.83-.53-.06-1.09.01-1.56.25-.47.25-.86.69-.98 1.21-.63-1.14-2-1.83-3.29-1.64s-2.41 1.24-2.67 2.52c.4.92.77 1.85 1.34 2.68s1.31 1.56 2.21 2.01c1.53.76 3.43.61 4.91-.24 1.49-.85 3.12-3.63 3.08-3.96z" fill="#e5221c"/></g><g><path d="m39.93 38.62c-.31 0-.61-.01-.91-.04-2.45-.22-4.77-1-6.7-2.25-.11-.07-.15-.23-.07-.34.07-.11.23-.14.34-.07 1.87 1.21 4.1 1.96 6.47 2.18 2.43.22 5.32-.56 7.21-1.36.12-.05.27.01.32.13s-.01.27-.13.32c-2.17.92-4.54 1.43-6.53 1.43z"/></g></g><g><g><path d="m11.9 32.03c-.21.08-.66-.42-1.14-1.38-.23-.48-.47-1.09-.61-1.83-.14-.73-.18-1.62.1-2.54.27-.92.88-1.67 1.49-2.15.62-.49 1.24-.76 1.77-.94 1.06-.32 1.75-.26 1.81-.04.07.23-.5.58-1.3 1.12-.79.55-1.81 1.33-2.15 2.51-.36 1.18-.11 2.53.03 3.51.17.98.23 1.65 0 1.74z" fill="#fff"/></g><g><path d="m14.14 36.53c-.17.11-.73-.48-1.19-1.36-.46-.87-.64-1.67-.45-1.75s.65.56 1.1 1.4c.45.85.72 1.6.54 1.71z" fill="#fff"/></g></g><g><g><path d="m51.37 47.1c-.22-.41 1.23-1.64 3.28-2.69 2.05-1.06 3.9-1.53 4.1-1.11s-1.29 1.57-3.32 2.62c-2.03 1.03-3.83 1.59-4.06 1.18z" fill="#fff"/></g><g><path d="m48.15 48.88c-.1-.18.32-.61.94-.95.62-.35 1.21-.48 1.31-.3s-.33.6-.95.95c-.62.34-1.2.48-1.3.3z" fill="#fff"/></g></g></g></svg>