<svg width="16" height="16" viewBox="0 0 16 16" fill="none" xmlns="http://www.w3.org/2000/svg">
<path d="M5.61398 7.07316C5.74399 6.94315 5.89834 6.84002 6.0682 6.76966C6.23806 6.6993 6.42012 6.66309 6.60398 6.66309C6.78784 6.66309 6.9699 6.6993 7.13977 6.76966C7.30963 6.84002 7.46398 6.94315 7.59398 7.07316C7.72399 7.20317 7.82712 7.35751 7.89748 7.52737C7.96784 7.69724 8.00406 7.8793 8.00406 8.06316C8.00406 8.24702 7.96784 8.42908 7.89748 8.59894C7.82712 8.76881 7.72399 8.92315 7.59398 9.05316L3.96732 12.6665L1.33398 13.3332L1.99398 10.6998L5.61398 7.07316Z" stroke="black" stroke-linecap="round" stroke-linejoin="round"/>
<path d="M1.33398 7.66667V3.33333C1.33398 2.6 1.93398 2 2.66732 2H5.28732C5.50693 2.00114 5.72286 2.0565 5.91592 2.16117C6.10898 2.26585 6.2732 2.41659 6.39398 2.6L6.94065 3.4C7.06143 3.58341 7.22565 3.73415 7.41872 3.83883C7.61178 3.9435 7.82771 3.99886 8.04732 4H13.334C13.6876 4 14.0267 4.14048 14.2768 4.39052C14.5268 4.64057 14.6673 4.97971 14.6673 5.33333V12C14.6673 12.3536 14.5268 12.6928 14.2768 12.9428C14.0267 13.1929 13.6876 13.3333 13.334 13.3333H7.00065" stroke="black" stroke-linecap="round" stroke-linejoin="round"/>
</svg>
