<svg width="26" height="26" viewBox="0 0 26 26" fill="none" xmlns="http://www.w3.org/2000/svg">
<path d="M22.9389 10.4427C22.556 10.0425 22.1599 9.63016 22.0106 9.26758C21.8725 8.93547 21.8644 8.385 21.8562 7.8518C21.841 6.86055 21.8248 5.73727 21.0437 4.95625C20.2627 4.17523 19.1395 4.15898 18.1482 4.14375C17.615 4.13562 17.0645 4.1275 16.7324 3.98937C16.3709 3.84008 15.9575 3.44398 15.5573 3.06109C14.8566 2.38773 14.0603 1.625 13 1.625C11.9397 1.625 11.1445 2.38773 10.4427 3.06109C10.0425 3.44398 9.63016 3.84008 9.26758 3.98937C8.9375 4.1275 8.385 4.13562 7.8518 4.14375C6.86055 4.15898 5.73727 4.17523 4.95625 4.95625C4.17523 5.73727 4.16406 6.86055 4.14375 7.8518C4.13562 8.385 4.1275 8.93547 3.98937 9.26758C3.84008 9.62914 3.44398 10.0425 3.06109 10.4427C2.38773 11.1434 1.625 11.9397 1.625 13C1.625 14.0603 2.38773 14.8555 3.06109 15.5573C3.44398 15.9575 3.84008 16.3698 3.98937 16.7324C4.1275 17.0645 4.13562 17.615 4.14375 18.1482C4.15898 19.1395 4.17523 20.2627 4.95625 21.0437C5.73727 21.8248 6.86055 21.841 7.8518 21.8562C8.385 21.8644 8.93547 21.8725 9.26758 22.0106C9.62914 22.1599 10.0425 22.556 10.4427 22.9389C11.1434 23.6123 11.9397 24.375 13 24.375C14.0603 24.375 14.8555 23.6123 15.5573 22.9389C15.9575 22.556 16.3698 22.1599 16.7324 22.0106C17.0645 21.8725 17.615 21.8644 18.1482 21.8562C19.1395 21.841 20.2627 21.8248 21.0437 21.0437C21.8248 20.2627 21.841 19.1395 21.8562 18.1482C21.8644 17.615 21.8725 17.0645 22.0106 16.7324C22.1599 16.3709 22.556 15.9575 22.9389 15.5573C23.6123 14.8566 24.375 14.0603 24.375 13C24.375 11.9397 23.6123 11.1445 22.9389 10.4427ZM17.6373 11.1373L11.9498 16.8248C11.8744 16.9004 11.7848 16.9603 11.6861 17.0012C11.5875 17.0421 11.4818 17.0631 11.375 17.0631C11.2682 17.0631 11.1625 17.0421 11.0639 17.0012C10.9652 16.9603 10.8756 16.9004 10.8002 16.8248L8.36266 14.3873C8.2102 14.2349 8.12455 14.0281 8.12455 13.8125C8.12455 13.5969 8.2102 13.3901 8.36266 13.2377C8.51511 13.0852 8.72189 12.9995 8.9375 12.9995C9.15311 12.9995 9.35989 13.0852 9.51234 13.2377L11.375 15.1013L16.4877 9.98766C16.5631 9.91217 16.6528 9.85228 16.7514 9.81143C16.85 9.77058 16.9557 9.74955 17.0625 9.74955C17.1693 9.74955 17.275 9.77058 17.3736 9.81143C17.4722 9.85228 17.5619 9.91217 17.6373 9.98766C17.7128 10.0631 17.7727 10.1528 17.8136 10.2514C17.8544 10.35 17.8755 10.4557 17.8755 10.5625C17.8755 10.6693 17.8544 10.775 17.8136 10.8736C17.7727 10.9722 17.7128 11.0619 17.6373 11.1373Z" fill="#0D9488"/>
</svg>
