<svg width="12" height="12" viewBox="0 0 12 12" fill="none" xmlns="http://www.w3.org/2000/svg">
<path d="M1.98448 3.48537C2.01931 3.4505 2.06066 3.42284 2.10619 3.40397C2.15171 3.3851 2.20051 3.37539 2.24979 3.37539C2.29907 3.37539 2.34787 3.3851 2.39339 3.40397C2.43892 3.42284 2.48028 3.4505 2.5151 3.48537L5.99979 6.97053L9.48448 3.48537C9.55484 3.415 9.65028 3.37547 9.74979 3.37547C9.8493 3.37547 9.94474 3.415 10.0151 3.48537C10.0855 3.55573 10.125 3.65117 10.125 3.75068C10.125 3.85019 10.0855 3.94563 10.0151 4.01599L6.2651 7.76599C6.23028 7.80086 6.18892 7.82852 6.14339 7.84739C6.09787 7.86626 6.04907 7.87598 5.99979 7.87598C5.95051 7.87598 5.90171 7.86626 5.85619 7.84739C5.81066 7.82852 5.76931 7.80086 5.73448 7.76599L1.98448 4.01599C1.94961 3.98117 1.92195 3.93981 1.90308 3.89428C1.88421 3.84876 1.8745 3.79996 1.8745 3.75068C1.8745 3.7014 1.88421 3.6526 1.90308 3.60708C1.92195 3.56155 1.94961 3.5202 1.98448 3.48537Z" fill="black"/>
</svg>
