<svg width="24" height="24" viewBox="0 0 24 24" fill="none" xmlns="http://www.w3.org/2000/svg">
<path d="M12 13V2L20 6L12 10" stroke="black" stroke-width="1.5" stroke-linecap="round" stroke-linejoin="round"/>
<path d="M20.5509 10.2299C21.0831 11.8701 21.1329 13.6286 20.6944 15.2962C20.2559 16.9638 19.3476 18.4704 18.0775 19.6366C16.8074 20.8029 15.229 21.5797 13.5302 21.8748C11.8313 22.1698 10.0834 21.9706 8.49447 21.3008C6.90555 20.6311 5.54247 19.519 4.5674 18.0968C3.59233 16.6747 3.04632 15.0024 2.99433 13.2789C2.94233 11.5553 3.38655 9.85316 4.27412 8.37483C5.16169 6.8965 6.45525 5.70425 8.00092 4.93994" stroke="black" stroke-width="1.5" stroke-linecap="round" stroke-linejoin="round"/>
<path d="M8.00043 10C7.49934 10.667 7.17311 11.4488 7.05148 12.2742C6.92984 13.0996 7.01666 13.9422 7.30403 14.7254C7.5914 15.5087 8.07019 16.2075 8.69676 16.7584C9.32333 17.3092 10.0778 17.6945 10.8914 17.8792C11.7049 18.0638 12.5518 18.042 13.3548 17.8156C14.1578 17.5892 14.8913 17.1655 15.4886 16.5831C16.086 16.0007 16.5281 15.278 16.7747 14.481C17.0212 13.684 17.0645 12.838 16.9004 12.02" stroke="black" stroke-width="1.5" stroke-linecap="round" stroke-linejoin="round"/>
</svg>
