<svg width="22" height="22" viewBox="0 0 22 22" fill="none" xmlns="http://www.w3.org/2000/svg">
<path fill-rule="evenodd" clip-rule="evenodd" d="M5.63182 0H12.9946L19.2253 6.50365V19.1336C19.2253 20.7153 17.9486 22 16.3669 22H5.63182C4.0581 22 2.77344 20.7153 2.77344 19.1336V2.85839C2.77341 1.28466 4.0581 0 5.63182 0Z" fill="#00733B"/>
<path opacity="0.302" fill-rule="evenodd" clip-rule="evenodd" d="M12.9863 0V6.44744H19.225L12.9863 0Z" fill="white"/>
<path d="M9.61486 16.0182H8.54699L7.81634 14.7897L7.08567 16.0182H6.00977L7.27839 13.8824L6.16234 12.0276H7.23822L7.81632 12.9911L8.38638 12.0276H9.46229L8.35424 13.8904L9.61486 16.0182ZM9.99223 16.0182V12.0276H11.0119V15.151H12.7462V16.0181H9.99223V16.0182ZM14.4324 16.0663C14.0309 16.0663 13.6776 15.9379 13.3725 15.689C13.0754 15.4481 12.9069 15.143 12.8828 14.7817L13.7579 14.5247C13.782 14.7174 13.8623 14.8861 13.9988 15.0145C14.1433 15.143 14.3039 15.2072 14.4806 15.2072C14.6251 15.2072 14.7455 15.1751 14.8419 15.1109C14.9302 15.0466 14.9784 14.9583 14.9784 14.8539C14.9784 14.7656 14.9382 14.6934 14.866 14.6291C14.7937 14.5729 14.6973 14.5247 14.5849 14.4846C14.4725 14.4445 14.336 14.4043 14.1995 14.3722C14.055 14.3321 13.9105 14.2839 13.774 14.2196C13.6295 14.1634 13.501 14.0912 13.3886 14.0029C13.2681 13.9226 13.1798 13.8021 13.1075 13.6496C13.0353 13.505 12.9951 13.3284 12.9951 13.1277C12.9951 12.7985 13.1316 12.5255 13.4126 12.3087C13.6937 12.0839 14.0309 11.9795 14.4243 11.9795C14.8178 11.9795 15.163 12.0758 15.4521 12.2605C15.7411 12.4532 15.9258 12.7021 15.998 13.0072L15.0827 13.3926C15.0426 13.224 14.9623 13.0875 14.8499 12.9832C14.7374 12.8868 14.5929 12.8306 14.4243 12.8306C14.2958 12.8306 14.1995 12.8627 14.1192 12.9109C14.0469 12.9591 14.0148 13.0314 14.0148 13.1197C14.0148 13.2 14.063 13.2722 14.1594 13.3284C14.2557 13.3766 14.3842 13.4167 14.5287 13.4408C14.6732 13.4649 14.8338 13.5051 15.0024 13.5613C15.1791 13.6255 15.3316 13.6898 15.4842 13.7781C15.6287 13.8584 15.7491 13.9949 15.8455 14.1715C15.9498 14.3562 15.998 14.573 15.998 14.8219C15.998 15.1912 15.8535 15.4963 15.5644 15.7211C15.2754 15.9459 14.8981 16.0663 14.4324 16.0663Z" fill="white"/>
</svg>
