<svg width="32" height="32" viewBox="0 0 32 32" fill="none" xmlns="http://www.w3.org/2000/svg">
<path d="M16.0013 2.66699C8.65463 2.66699 2.66797 8.65366 2.66797 16.0003C2.66797 23.347 8.65463 29.3337 16.0013 29.3337C23.348 29.3337 29.3346 23.347 29.3346 16.0003C29.3346 8.65366 23.348 2.66699 16.0013 2.66699ZM20.4813 19.067C20.868 19.4537 20.868 20.0937 20.4813 20.4803C20.2813 20.6803 20.028 20.7737 19.7746 20.7737C19.5213 20.7737 19.268 20.6803 19.068 20.4803L16.0013 17.4137L12.9346 20.4803C12.7346 20.6803 12.4813 20.7737 12.228 20.7737C11.9746 20.7737 11.7213 20.6803 11.5213 20.4803C11.1346 20.0937 11.1346 19.4537 11.5213 19.067L14.588 16.0003L11.5213 12.9337C11.1346 12.547 11.1346 11.907 11.5213 11.5203C11.908 11.1337 12.548 11.1337 12.9346 11.5203L16.0013 14.587L19.068 11.5203C19.4546 11.1337 20.0946 11.1337 20.4813 11.5203C20.868 11.907 20.868 12.547 20.4813 12.9337L17.4146 16.0003L20.4813 19.067Z" fill="white"/>
</svg>
