<?xml version="1.0" standalone="no"?>
<!DOCTYPE svg PUBLIC "-//W3C//DTD SVG 1.1//EN" "http://www.w3.org/Graphics/SVG/1.1/DTD/svg11.dtd" >
<svg xmlns="http://www.w3.org/2000/svg" xmlns:xlink="http://www.w3.org/1999/xlink" version="1.1">
<metadata></metadata>
<defs>
<font id="promptextrabold_italic" horiz-adv-x="0" >
<font-face units-per-em="2048" ascent="1536" descent="-512" />
<missing-glyph horiz-adv-x="655" />
<glyph unicode="fi" horiz-adv-x="1396" d="M45 0l156 733h-138l54 250h137l25 119q43 205 187 313.5t365 108.5q111 0 189 -37l-62 -287q-51 29 -122 29q-168 0 -203 -158l-19 -88h736l-209 -983h-361l156 733h-375l-155 -733h-361zM1038 1257q0 61 33 114.5t87 86.5t116 33q70 0 114 -42t44 -108q0 -14 -5 -38 q-18 -80 -85.5 -134.5t-147.5 -54.5q-70 0 -113 40t-43 103z" />
<glyph unicode="fl" horiz-adv-x="1392" d="M45 0l156 733h-138l54 250h137l25 123q41 205 182 311.5t370 106.5q111 0 189 -37l-62 -287q-51 29 -122 29q-82 0 -134.5 -38t-68.5 -116l-19 -92h381l105 500h360l-313 -1483h-361l156 733h-381l-155 -733h-361z" />
<glyph unicode="&#xe24;&#xe45;" horiz-adv-x="1898" d="M90 195q0 39 8 77l74 353l-63 182q330 319 725 319q201 0 325 -65q55 27 148.5 46t177.5 19q186 0 284.5 -90t98.5 -245q0 -57 -13 -119l-227 -1073h-409l221 1046q8 35 8 68q0 43 -25.5 66.5t-89.5 25.5q2 -10 2 -35q0 -49 -12 -104l-227 -1067h-410l219 1036q8 31 8 61 q0 57 -35.5 84t-113.5 27q-129 0 -227 -64l45 -127l-54 -256q-4 -25 -4 -34q0 -23 14.5 -34t47.5 -11h98l-59 -281h-320q-106 0 -160.5 51t-54.5 144z" />
<glyph unicode="&#xe26;&#xe45;" horiz-adv-x="1912" d="M-61 0l59 281h78q45 0 63.5 16t26.5 59l57 269l-104 182q147 152 333.5 235.5t393.5 83.5q205 0 325 -65q55 27 148.5 46t177.5 19q184 0 284.5 -91t100.5 -249q0 -53 -12 -114l-228 -1073h-411l221 1046q8 33 8 66q0 47 -26.5 70.5t-87.5 25.5q2 -10 2 -35 q0 -51 -13 -106l-227 -1067h-410l220 1036q8 31 8 63q0 55 -36 82t-114 27q-117 0 -217 -62l74 -129l-72 -342q-27 -127 -110.5 -200.5t-210.5 -73.5h-301z" />
<glyph unicode=" "  horiz-adv-x="655" />
<glyph unicode="&#x09;" horiz-adv-x="655" />
<glyph unicode="&#xa0;" horiz-adv-x="655" />
<glyph unicode="!" horiz-adv-x="509" d="M-29 135q0 29 4 45q20 90 94 150.5t167 60.5q76 0 125 -46t49 -118q0 -68 -38 -128t-99.5 -95t-127.5 -35q-79 0 -126.5 46t-47.5 120zM53 494l199 938h410l-199 -938h-410z" />
<glyph unicode="&#x22;" horiz-adv-x="759" d="M150 999l92 433h297l-93 -433h-296zM530 999l93 433h297l-93 -433h-297z" />
<glyph unicode="#" horiz-adv-x="1603" d="M-8 260l67 318h242l102 208h-210l67 316h299l164 330h373l-164 -330h242l163 330h375l-164 -330h146l-68 -316h-233l-103 -208h201l-68 -318h-290l-127 -260h-375l127 260h-242l-127 -260h-373l127 260h-151zM674 578h241l103 208h-242z" />
<glyph unicode="$" horiz-adv-x="1175" d="M-47 70l80 374q98 -61 216 -91.5t226 -30.5q80 0 120 20t50 64q2 8 2 20q0 39 -41 67.5t-162 86.5q-152 72 -222 155.5t-70 196.5q0 39 10 94q33 156 161 267.5t312 150.5l43 198h295l-39 -184q168 -14 305 -86l-78 -362q-162 98 -344 98q-86 0 -140 -27.5t-54 -83.5 q0 -39 43 -64.5t174 -80.5q158 -74 224 -146.5t66 -181.5q0 -59 -14 -123q-37 -168 -161 -276.5t-334 -140.5l-41 -195h-295l39 184q-113 10 -211.5 35t-159.5 62z" />
<glyph unicode="%" horiz-adv-x="1839" d="M160 1006q0 41 8 79q23 104 88.5 190.5t160.5 136.5t206 50q135 0 220 -84t85 -213q0 -45 -8 -80q-23 -104 -89.5 -189t-163 -135t-204.5 -50q-135 0 -219 83t-84 212zM213 0l1096 1432h417l-1095 -1432h-418zM410 1040q0 -90 104 -90q66 0 114 49.5t48 116.5 q0 43 -25.5 68.5t-81.5 25.5q-55 0 -100 -37.5t-55 -93.5q-4 -14 -4 -39zM1008 264q0 41 8 80q23 104 88 190.5t160.5 136.5t205.5 50q135 0 220.5 -84t85.5 -213q0 -45 -9 -80q-23 -104 -89 -189t-162.5 -135.5t-204.5 -50.5q-135 0 -219 83t-84 212zM1257 299 q0 -90 105 -90q65 0 113.5 49t48.5 117q0 43 -25.5 68.5t-81.5 25.5q-55 0 -100 -38t-55 -93q-4 -14 -5 -39z" />
<glyph unicode="&#x26;" horiz-adv-x="1648" d="M8 295q0 33 10 84q29 133 107 226t223 175q-41 55 -61.5 108.5t-20.5 115.5q0 35 10 90q35 164 180.5 266t362.5 102q180 0 280.5 -82t100.5 -213q0 -41 -8 -73q-25 -117 -90.5 -196t-194.5 -157l170 -200q41 63 74 215h350q-35 -164 -80 -266.5t-125 -210.5l230 -279 h-504l-76 84q-86 -59 -202.5 -87t-276.5 -28q-209 0 -334 86t-125 240zM418 346q0 -49 34.5 -73.5t98.5 -24.5q121 0 203 63l-183 224q-68 -27 -103.5 -65t-45.5 -89q-4 -25 -4 -35zM629 1047q0 -29 16.5 -56.5t52.5 -66.5q80 45 113 80.5t33 87.5q0 37 -23.5 56t-62.5 19 q-47 0 -82 -26.5t-45 -75.5q-2 -6 -2 -18z" />
<glyph unicode="'" horiz-adv-x="378" d="M150 999l92 433h297l-93 -433h-296z" />
<glyph unicode="(" horiz-adv-x="784" d="M18 217q0 158 37 336q111 530 500 909h436q-395 -399 -504 -909q-35 -170 -34 -317q0 -319 153 -592h-436q-152 245 -152 573z" />
<glyph unicode=")" horiz-adv-x="784" d="M-176 -356q393 399 502 909q35 170 34 317q0 319 -153 592h436q152 -246 152 -575q0 -156 -37 -334q-115 -535 -500 -909h-434z" />
<glyph unicode="*" horiz-adv-x="909" d="M174 1122l137 201l170 -66l37 175h275l-37 -175l198 68l47 -213l-235 -76l102 -192l-229 -139l-88 174l-164 -177l-192 150l184 192z" />
<glyph unicode="+" horiz-adv-x="835" d="M37 465l67 317h213l41 193h326l-41 -193h215l-67 -317h-216l-40 -193h-326l41 193h-213z" />
<glyph unicode="," horiz-adv-x="675" d="M-125 -307l260 440h424l-313 -440h-371z" />
<glyph unicode="-" horiz-adv-x="835" d="M35 461l69 325h754l-70 -325h-753z" />
<glyph unicode="." horiz-adv-x="366" d="M-37 111q0 70 54.5 122t121.5 52q51 0 84 -32t33 -83q0 -68 -54.5 -119t-121.5 -51q-51 0 -84 31.5t-33 79.5z" />
<glyph unicode="/" horiz-adv-x="1085" d="M-61 0l892 1462h420l-893 -1462h-419z" />
<glyph unicode="0" horiz-adv-x="1439" d="M68 508q0 106 22 207q74 354 292 550.5t544 196.5q252 0 398 -142t146 -396q0 -106 -22 -209q-76 -354 -295 -550t-545 -196q-164 0 -285.5 63.5t-188 185.5t-66.5 290zM502 559q0 -96 45 -145t145 -49q121 0 204 91t118 255q18 86 18 153q0 96 -44 146.5t-144 50.5 q-123 0 -206 -93.5t-118 -256.5q-18 -86 -18 -152z" />
<glyph unicode="1" horiz-adv-x="831" d="M102 772l84 397l412 263h352l-303 -1432h-424l207 977z" />
<glyph unicode="2" horiz-adv-x="1198" d="M-61 0l47 225l237 181q98 74 146 106q199 145 287.5 226t105.5 163q6 25 6 45q0 115 -172 115q-98 0 -209 -37t-209 -102l86 401q109 66 246 102.5t281 36.5q135 0 235 -47t154.5 -130t54.5 -187q0 -39 -10 -90q-35 -166 -128 -285t-274 -254l-182 -137h483l-69 -332 h-1116z" />
<glyph unicode="3" horiz-adv-x="1191" d="M-49 63l69 324q186 -96 400 -96q143 0 207.5 33.5t79.5 105.5q4 20 4 31q0 55 -55.5 78.5t-176.5 23.5h-209l68 316h199q225 0 254 133q4 25 4 32q0 49 -42 73t-139 24q-227 0 -434 -115l70 332q104 49 233 76.5t258 27.5q244 0 371 -88t127 -246q0 -47 -12 -100 q-18 -86 -72.5 -166t-142.5 -141q133 -82 133 -223q0 -37 -10 -88q-92 -440 -723 -441q-140 0 -261.5 22.5t-199.5 71.5z" />
<glyph unicode="4" horiz-adv-x="1273" d="M-45 279l55 253l862 900h404l-176 -828h198l-69 -325h-199l-57 -279h-432l57 279h-643zM492 604h239l70 324z" />
<glyph unicode="5" horiz-adv-x="1198" d="M-47 74l78 360q80 -63 191.5 -98t215.5 -35q246 0 281 170q6 25 6 45q0 59 -49 89t-158 30q-68 0 -149.5 -13.5t-143.5 -35.5l-135 88l219 758h957l-70 -332h-555l-53 -176q88 20 186 20q182 0 288.5 -88t106.5 -252q0 -55 -12 -121q-55 -254 -229 -384t-541 -130 q-127 0 -245.5 28t-188.5 77z" />
<glyph unicode="6" horiz-adv-x="1304" d="M53 459q0 90 21 180q53 256 189 442.5t324.5 283.5t401.5 97q158 0 273 -41l-74 -350q-84 55 -238 55q-129 0 -232.5 -65.5t-152.5 -190.5q61 43 148.5 69t187.5 26q172 0 274.5 -91.5t102.5 -259.5q0 -63 -14 -127q-51 -236 -224.5 -377t-492.5 -141q-225 0 -359.5 132 t-134.5 358zM479 420q0 -59 35 -95t102 -36q93 0 157.5 66.5t64.5 166.5q0 123 -146 123q-86 0 -149.5 -65.5t-63.5 -159.5z" />
<glyph unicode="7" horiz-adv-x="1091" d="M16 0l736 1100h-600l69 332h1051l-58 -267l-778 -1165h-420z" />
<glyph unicode="8" horiz-adv-x="1296" d="M16 328q0 37 11 88q25 115 91 197.5t163 125.5q-86 86 -86 215q0 45 8 84q43 203 213 313.5t440 110.5q217 0 349 -89t132 -249q0 -35 -10 -86q-39 -184 -205 -299q61 -35 95 -94t34 -141q0 -37 -10 -88q-47 -213 -236.5 -330t-465.5 -117q-230 0 -376.5 94.5 t-146.5 264.5zM459 410q0 -121 147 -121q88 0 152.5 59.5t64.5 147.5q0 59 -39 96t-104 37q-76 0 -138.5 -48.5t-76.5 -121.5q-6 -25 -6 -49zM598 956q0 -51 35 -82.5t92 -31.5q78 0 133 56t55 132q0 51 -31.5 81t-93.5 30q-74 0 -123 -42t-63 -110q-4 -20 -4 -33z" />
<glyph unicode="9" horiz-adv-x="1304" d="M125 825q0 63 14 127q31 145 124 261t243.5 182.5t345.5 66.5q252 0 377 -120.5t125 -342.5q0 -94 -25 -208q-57 -264 -186 -448.5t-316.5 -279t-416.5 -94.5q-160 0 -273 39l76 350q90 -55 236 -55q131 0 236.5 64.5t152.5 189.5q-57 -41 -142.5 -65.5t-175.5 -24.5 q-182 0 -288.5 94t-106.5 264zM567 922q0 -61 38 -99.5t106 -38.5q88 0 152.5 64.5t64.5 163.5q0 59 -36 94t-106 35q-86 0 -141 -48.5t-74 -129.5q-4 -29 -4 -41z" />
<glyph unicode=":" horiz-adv-x="475" d="M-23 168q0 61 35 115.5t91.5 87t115.5 32.5q70 0 115 -45t45 -112q0 -59 -36 -113.5t-91 -88.5t-115 -34q-69 0 -114.5 45t-45.5 113zM111 797q0 61 35.5 115.5t92 87t115.5 32.5q70 0 114 -44t44 -111q0 -61 -35 -115.5t-91 -88.5t-116 -34q-69 0 -114 45t-45 113z" />
<glyph unicode=";" horiz-adv-x="675" d="M-125 -307l260 440h424l-313 -440h-371zM276 797q0 61 36 115.5t92.5 87t115.5 32.5q70 0 114 -44t44 -111q0 -61 -35 -115.5t-91 -88.5t-116 -34q-69 0 -114.5 45t-45.5 113z" />
<glyph unicode="&#x3c;" horiz-adv-x="1081" d="M49 524l62 287l1101 489l-90 -442l-501 -205l413 -207l-90 -413z" />
<glyph unicode="=" horiz-adv-x="1038" d="M-2 285l68 319h956l-68 -319h-956zM98 752l68 319h956l-67 -319h-957z" />
<glyph unicode="&#x3e;" horiz-adv-x="1081" d="M-55 33l90 442l502 207l-414 205l90 413l897 -489l-61 -287z" />
<glyph unicode="?" horiz-adv-x="1083" d="M154 1012l75 360q205 90 457 90q223 0 355.5 -86t132.5 -237q0 -43 -9 -78q-23 -102 -81 -168t-181 -139q-121 -74 -168 -116t-63 -110l-6 -34h-410l8 38q20 98 74.5 178.5t140.5 133.5l72 41q84 49 115.5 77.5t31.5 75.5q0 37 -36.5 54.5t-116.5 17.5 q-90 0 -191.5 -24.5t-199.5 -73.5zM174 135q0 29 4 45q20 90 94 150.5t164 60.5q78 0 127 -46t49 -118q0 -68 -37.5 -128t-100 -95t-128.5 -35q-78 0 -125 46t-47 120z" />
<glyph unicode="@" horiz-adv-x="1847" d="M45 420q0 82 18 170q55 258 206 454.5t384.5 307t528.5 110.5q217 0 372.5 -70.5t238.5 -198.5t83 -300q0 -76 -14 -148q-47 -248 -185.5 -389t-351.5 -141q-72 0 -130 28.5t-75 75.5q-61 -51 -140 -77.5t-163 -26.5q-154 0 -246 68.5t-92 205.5q0 53 10 97 q31 143 117 256.5t214 178t280 64.5q94 0 192.5 -23.5t155.5 -64.5l-125 -467q-8 -37 -8 -45q0 -49 47 -49q57 0 103 82t79 227q18 84 19 152q0 147 -101.5 219t-339.5 72q-295 0 -488.5 -154.5t-254.5 -443.5q-16 -72 -17 -148q0 -168 115 -249.5t359 -81.5q199 0 360 49 l-55 -260q-166 -55 -363 -56q-217 0 -383 68t-258 197t-92 311zM819 551q0 -88 78 -88q112 0 143 117l66 239q-25 10 -68 10q-72 0 -132 -62t-81 -161q-6 -31 -6 -55z" />
<glyph unicode="A" horiz-adv-x="1634" d="M-61 0l876 1432h408l268 -1432h-414l-49 272h-469l-166 -272h-454zM723 594h274l-51 401z" />
<glyph unicode="B" horiz-adv-x="1376" d="M-20 0l303 1432h747q168 0 277.5 -82t109.5 -230q0 -37 -10 -88q-18 -86 -72.5 -161.5t-136.5 -122.5q70 -33 103.5 -85.5t33.5 -127.5q0 -51 -10 -99q-45 -207 -193.5 -321.5t-371.5 -114.5h-780zM467 301h238q84 0 129 30.5t61 106.5q4 16 4 43q0 51 -34 76t-105 25 h-234zM588 877h213q70 0 112.5 30.5t57.5 98.5q6 29 6 47q0 43 -28.5 60t-94.5 17h-211z" />
<glyph unicode="C" horiz-adv-x="1384" d="M70 530q0 90 20 185q76 352 317.5 549.5t626.5 197.5q154 0 268.5 -28.5t206.5 -92.5l-84 -391q-76 70 -181 100.5t-253 30.5q-193 0 -311.5 -92t-157.5 -274q-16 -82 -16 -137q0 -119 75.5 -175.5t252.5 -56.5q145 0 269 33t240 104l-83 -389q-225 -125 -543 -125 q-199 0 -344.5 66.5t-224 193.5t-78.5 301z" />
<glyph unicode="D" horiz-adv-x="1439" d="M-20 0l303 1432h530q197 0 345.5 -72t228 -199t79.5 -289q0 -68 -16 -149q-78 -360 -310.5 -541.5t-607.5 -181.5h-552zM477 356h133q158 0 264.5 99.5t143.5 267.5q16 78 16 137q0 104 -61.5 159.5t-202.5 55.5h-139z" />
<glyph unicode="E" horiz-adv-x="1140" d="M-20 0l303 1432h1038l-76 -357h-614l-41 -196h442l-69 -326h-443l-43 -197h615l-74 -356h-1038z" />
<glyph unicode="F" horiz-adv-x="1120" d="M-20 0l303 1432h1038l-76 -357h-614l-41 -196h442l-69 -326h-443l-117 -553h-423z" />
<glyph unicode="G" horiz-adv-x="1415" d="M70 537q0 88 20 178q74 352 319.5 549.5t624.5 197.5q156 0 279 -30.5t196 -88.5l-84 -391q-76 68 -181 98.5t-253 30.5q-207 0 -319.5 -94t-149.5 -272q-18 -82 -18 -148q0 -119 71.5 -170t237.5 -51q88 0 150 25l38 182h-196l57 268h584l-154 -717q-244 -135 -575 -135 q-193 0 -339.5 67.5t-227 195.5t-80.5 305z" />
<glyph unicode="H" horiz-adv-x="1488" d="M-20 0l303 1432h424l-113 -527h477l113 527h424l-303 -1432h-424l114 549h-477l-115 -549h-423z" />
<glyph unicode="I" horiz-adv-x="587" d="M-20 0l303 1432h424l-304 -1432h-423z" />
<glyph unicode="J" horiz-adv-x="815" d="M-98 20l75 365q61 -33 162 -33q86 0 127 35t58 117l196 928h424l-207 -977q-49 -236 -190 -361t-393 -125q-70 0 -146 15.5t-106 35.5z" />
<glyph unicode="K" horiz-adv-x="1525" d="M-20 0l303 1432h424l-119 -555l559 555h500l-699 -695l434 -737h-499l-353 598l-127 -598h-423z" />
<glyph unicode="L" horiz-adv-x="1083" d="M-20 0l303 1432h424l-230 -1076h578l-74 -356h-1001z" />
<glyph unicode="M" horiz-adv-x="1716" d="M-20 0l303 1432h366l211 -842l567 842h408l-303 -1432h-395l133 635l-426 -635h-176l-160 635l-133 -635h-395z" />
<glyph unicode="N" horiz-adv-x="1445" d="M-20 0l303 1432h411l287 -750l160 750h424l-303 -1432h-410l-291 750l-158 -750h-423z" />
<glyph unicode="O" horiz-adv-x="1626" d="M72 543q0 84 18 172q47 221 180 391t329 263t423 93q186 0 329.5 -70.5t222.5 -201.5t79 -303q0 -82 -19 -172q-47 -221 -180 -390t-328.5 -262.5t-420.5 -93.5q-187 0 -331.5 71t-223 201t-78.5 302zM510 612q0 -119 71.5 -182t209.5 -63q145 0 260.5 94t150.5 254 q12 55 12 100q0 119 -70.5 182.5t-205.5 63.5q-147 0 -265 -94.5t-151 -251.5q-12 -55 -12 -103z" />
<glyph unicode="P" horiz-adv-x="1325" d="M-20 0l303 1432h659q207 0 338 -101.5t131 -288.5q0 -45 -14 -120q-53 -252 -223 -382t-449 -130h-236l-86 -410h-423zM561 745h156q98 0 161.5 39t84.5 138q8 33 8 63q0 61 -43 86t-137 25h-156z" />
<glyph unicode="Q" horiz-adv-x="1636" d="M72 555q0 78 18 160q47 223 177 392t324.5 262t430.5 93q186 0 329.5 -70.5t222.5 -201.5t79 -303q0 -82 -19 -172q-25 -111 -98.5 -220.5t-165.5 -177.5h219l-65 -317h-760q-209 0 -365.5 66.5t-241.5 191.5t-85 297zM510 604q0 -237 279 -237h2q163 0 269.5 91 t141.5 257q12 55 12 104q0 117 -69.5 179.5t-206.5 62.5q-147 0 -265 -94.5t-151 -251.5q-12 -57 -12 -111z" />
<glyph unicode="R" horiz-adv-x="1345" d="M-20 0l303 1432h665q211 0 337 -102.5t126 -285.5q0 -53 -12 -118q-35 -160 -125 -272.5t-225 -172.5l137 -481h-434l-119 420h-141l-89 -420h-423zM563 756h158q109 0 166 36.5t78 133.5q8 45 8 61q0 61 -42 85t-138 24h-158z" />
<glyph unicode="S" horiz-adv-x="1175" d="M-47 70l80 374q98 -61 216 -91.5t226 -30.5q178 0 178 102q0 41 -42 70.5t-167 89.5q-152 72 -222 154.5t-70 195.5q0 37 10 92q43 199 215 317.5t438 118.5q135 0 235.5 -21.5t188.5 -68.5l-78 -362q-158 98 -344 98q-88 0 -144.5 -27.5t-56.5 -81.5q0 -37 40 -63.5 t143 -71.5l39 -16q160 -72 226 -144.5t66 -181.5q0 -57 -14 -121q-43 -207 -207 -319.5t-477 -112.5q-139 0 -271 28t-208 73z" />
<glyph unicode="T" horiz-adv-x="1214" d="M135 1075l76 357h1194l-76 -357h-385l-227 -1075h-424l227 1075h-385z" />
<glyph unicode="U" horiz-adv-x="1482" d="M82 459q0 78 18 164l172 809h424l-170 -805q-14 -76 -14 -111q0 -84 46 -120t147 -36q102 0 163.5 29t95 86t54.5 152l170 805h424l-172 -809q-68 -315 -257.5 -484.5t-551.5 -169.5q-256 0 -402.5 131t-146.5 359z" />
<glyph unicode="V" horiz-adv-x="1634" d="M242 1432h432l141 -863l508 863h471l-874 -1432h-408z" />
<glyph unicode="W" horiz-adv-x="2027" d="M242 1432h438l39 -750l350 750h307l15 -752l356 752h440l-684 -1432h-377l-34 760l-355 -760h-418z" />
<glyph unicode="X" horiz-adv-x="1601" d="M-61 0l669 719l-360 713h485l189 -375l350 375h485l-663 -713l364 -719h-485l-195 381l-354 -381h-485z" />
<glyph unicode="Y" horiz-adv-x="1568" d="M242 1432h436l178 -494l406 494h467l-730 -887l-114 -545h-424l114 545z" />
<glyph unicode="Z" horiz-adv-x="1251" d="M-61 0l57 279l768 796h-584l76 357h1108l-59 -281l-766 -795h643l-74 -356h-1169z" />
<glyph unicode="[" horiz-adv-x="716" d="M-102 -197l383 1809h655l-76 -357h-231l-234 -1095h232l-76 -357h-653z" />
<glyph unicode="\" horiz-adv-x="1085" d="M248 1462h420l274 -1462h-420z" />
<glyph unicode="]" horiz-adv-x="716" d="M-123 -197l74 357h231l234 1095h-232l76 357h655l-385 -1809h-653z" />
<glyph unicode="^" horiz-adv-x="1228" d="M102 772l557 701h328l262 -701h-377l-112 328l-252 -328h-406z" />
<glyph unicode="_" horiz-adv-x="980" d="M-131 -332l70 332h899l-72 -332h-897z" />
<glyph unicode="`" horiz-adv-x="632" d="M262 1528h412l61 -369h-360z" />
<glyph unicode="a" horiz-adv-x="1370" d="M27 365q0 49 14 124q51 240 219 382.5t416 142.5q94 0 171 -28t122 -75l16 72h410l-209 -983h-395l18 90q-74 -57 -166 -89t-190 -32q-193 0 -309.5 106.5t-116.5 289.5zM457 424q0 -137 174 -137q69 0 130.5 32.5t100.5 90.5l35 161q-14 57 -61.5 90t-116.5 33 q-96 0 -165 -54t-89 -151q-8 -45 -8 -65z" />
<glyph unicode="b" horiz-adv-x="1370" d="M-20 0l321 1513h410l-129 -602q63 47 154 75t184 28q199 0 311 -105.5t112 -283.5q0 -70 -14 -136q-33 -156 -122 -273.5t-222 -182t-289 -64.5q-98 0 -176 31t-127 90l-18 -90h-395zM475 410q14 -57 61.5 -90t116.5 -33q97 0 164.5 53t87.5 149q8 45 8 64 q0 68 -43 104.5t-129 36.5q-70 0 -131 -32.5t-100 -90.5z" />
<glyph unicode="c" horiz-adv-x="1105" d="M29 375q0 53 12 114q55 256 237.5 390.5t466.5 134.5q123 0 229.5 -23.5t168.5 -66.5l-68 -318q-51 45 -131 68.5t-172 23.5q-119 0 -202 -52t-105 -157q-6 -33 -6 -61q0 -76 54 -110.5t169 -34.5q92 0 184 24.5t174 71.5l-67 -316q-84 -45 -201 -69.5t-252 -24.5 q-137 0 -248.5 46t-177 138.5t-65.5 221.5z" />
<glyph unicode="d" horiz-adv-x="1370" d="M29 369q0 57 12 120q51 238 219 381.5t416 143.5q94 0 171 -28t122 -75l129 602h409l-321 -1513h-395l18 90q-74 -57 -166 -89t-190 -32q-189 0 -306.5 108.5t-117.5 291.5zM457 420q0 -66 41 -99.5t133 -33.5q69 0 130.5 32.5t100.5 90.5l35 161q-14 57 -61.5 90 t-116.5 33q-102 0 -167 -53t-87 -152q-8 -33 -8 -69z" />
<glyph unicode="e" horiz-adv-x="1228" d="M29 375q0 51 12 112q53 250 222 388.5t470 138.5q145 0 252 -52.5t163 -144.5t56 -209q0 -51 -12 -106l-29 -133h-757q4 -68 62 -99.5t206 -31.5q98 0 204.5 15t184.5 44l-53 -256q-86 -33 -207 -52.5t-244 -19.5q-242 0 -386 106.5t-144 299.5zM455 606h370v14 q1 58 -29 88q-34 34 -126 35q-82 0 -136.5 -36.5t-78.5 -100.5z" />
<glyph unicode="f" horiz-adv-x="786" d="M45 0l156 733h-138l54 250h137l25 123q84 418 542 418q111 0 189 -37l-62 -287q-51 29 -123 29q-86 0 -131 -36t-61 -118l-19 -92h228l-54 -250h-227l-155 -733h-361z" />
<glyph unicode="g" horiz-adv-x="1370" d="M29 373q0 47 14 119q49 240 217 381t416 141q96 0 175 -32t128 -89l20 90h396l-195 -911q-59 -276 -241.5 -409.5t-538.5 -133.5q-96 0 -194.5 18.5t-164.5 49.5l58 272q147 -70 358 -70q133 0 206 54.5t95 158.5l13 58q-63 -45 -153.5 -73t-182.5 -28 q-123 0 -219.5 50.5t-151.5 142.5t-55 211zM459 420q0 -68 40 -100.5t132 -32.5q149 0 231 125l35 159q-14 57 -61.5 90t-116.5 33q-96 0 -164 -53t-88 -147q-8 -35 -8 -74z" />
<glyph unicode="h" horiz-adv-x="1288" d="M-20 0l321 1513h410l-133 -618q160 119 342 119q166 0 250.5 -79t84.5 -218q0 -51 -12 -107l-129 -610h-412l117 553q6 31 6 55q0 86 -100 86q-123 0 -213 -110l-123 -584h-409z" />
<glyph unicode="i" horiz-adv-x="593" d="M-10 0l209 983h409l-209 -983h-409zM250 1255q0 70 37 129.5t98 95.5t131 36q78 0 126 -47.5t48 -120.5q0 -29 -4 -43q-20 -90 -95 -150.5t-165 -60.5q-80 0 -128 45t-48 116z" />
<glyph unicode="j" horiz-adv-x="589" d="M-389 -434l70 325q53 -30 134 -30h5q63 0 106 33.5t58 103.5l211 985h411l-221 -1036q-45 -211 -192.5 -315.5t-380.5 -104.5q-127 0 -201 39zM246 1257q0 68 38 127.5t99 95.5t129 36q78 0 126 -47.5t48 -120.5q0 -29 -4 -43q-20 -90 -95 -150.5t-165 -60.5 q-78 0 -127 45t-49 118z" />
<glyph unicode="k" horiz-adv-x="1347" d="M-20 0l321 1513h410l-195 -907l373 377h469l-469 -473l315 -510h-469l-258 418l-88 -418h-409z" />
<glyph unicode="l" horiz-adv-x="573" d="M-20 0l321 1513h410l-322 -1513h-409z" />
<glyph unicode="m" horiz-adv-x="1800" d="M-20 0l208 983h379l-20 -94q150 125 327 125q109 0 167.5 -30t88.5 -91q74 57 166.5 89t180.5 32q158 0 227.5 -64.5t69.5 -187.5q0 -61 -17 -144l-131 -618h-391l119 559q6 31 6 55q0 43 -20.5 61.5t-69.5 18.5q-72 0 -123 -43l-137 -651h-392l121 578q6 29 6 49 q0 35 -18 51t-61 16q-88 0 -166 -96l-127 -598h-393z" />
<glyph unicode="n" horiz-adv-x="1288" d="M-20 0l208 983h396l-21 -96q74 61 168 94t189 33q166 0 250.5 -79t84.5 -218q0 -51 -12 -107l-129 -610h-412l117 553q8 45 8 59q0 41 -23.5 61.5t-78.5 20.5q-123 0 -213 -110l-123 -584h-409z" />
<glyph unicode="o" horiz-adv-x="1325" d="M31 385q0 51 12 107q33 154 128 271.5t248.5 184t354.5 66.5q160 0 278.5 -53.5t182 -147.5t63.5 -217q0 -49 -12 -104q-33 -154 -130 -272t-251.5 -184.5t-353.5 -66.5q-156 0 -273.5 52.5t-182 146.5t-64.5 217zM455 426q0 -139 163 -139q93 0 160.5 55t87.5 150 q6 35 6 65q0 68 -38.5 102.5t-126.5 34.5q-92 0 -159 -54t-85 -148q-8 -45 -8 -66z" />
<glyph unicode="p" horiz-adv-x="1370" d="M-115 -449l303 1432h396l-21 -90q74 57 167 89t190 32q195 0 310.5 -107.5t115.5 -288.5q0 -47 -15 -126q-51 -238 -218 -380.5t-417 -142.5q-92 0 -169.5 28t-123.5 73l-110 -519h-408zM475 412q14 -57 61.5 -91t116.5 -34q101 0 166.5 53t87.5 154q6 35 6 61 q0 141 -172 141q-68 0 -130 -33.5t-101 -91.5z" />
<glyph unicode="q" horiz-adv-x="1370" d="M29 367q0 66 14 125q49 242 216 382t417 140q96 0 175 -32t128 -89l20 90h396l-305 -1432h-410l111 519q-63 -45 -154.5 -73t-183.5 -28q-190 0 -307 108.5t-117 289.5zM459 422q0 -68 41 -101.5t131 -33.5q67 0 129.5 33.5t101.5 91.5l35 159q-14 57 -61.5 91t-116.5 34 q-111 0 -171.5 -51t-80.5 -151q-8 -35 -8 -72z" />
<glyph unicode="r" horiz-adv-x="858" d="M-20 0l208 983h396l-25 -106q72 59 180.5 94t229.5 35l-68 -318q-129 0 -237.5 -35t-157.5 -102l-117 -551h-409z" />
<glyph unicode="s" horiz-adv-x="1060" d="M-37 57l62 289q74 -49 188.5 -83t212.5 -34q63 0 92 8.5t29 34.5q0 16 -22.5 25.5t-86.5 28.5l-88 26q-147 47 -211.5 102.5t-64.5 147.5q0 33 10 84q70 328 559 328q109 0 229.5 -23.5t174.5 -62.5l-62 -285q-53 41 -153.5 70.5t-188.5 29.5q-121 0 -131 -41 q-4 -18 20.5 -29t90.5 -26q18 -6 41.5 -11t50.5 -13q147 -43 209.5 -100.5t62.5 -147.5q0 -33 -10 -88q-31 -147 -170 -232.5t-393 -85.5q-123 0 -252 22.5t-199 65.5z" />
<glyph unicode="t" horiz-adv-x="808" d="M47 707l59 276h136l61 295h412l-62 -295h219l-59 -276h-219l-62 -283q-8 -35 -8 -64q0 -41 23.5 -57t77.5 -16q76 0 149 39l-63 -303q-66 -27 -133.5 -40.5t-165.5 -13.5q-160 0 -239 73t-79 204q0 43 15 119l73 342h-135z" />
<glyph unicode="u" horiz-adv-x="1288" d="M39 283q0 53 12 104l127 596h410l-117 -547q-8 -33 -8 -65q0 -45 24.5 -64.5t81.5 -19.5q121 0 207 110l125 586h412l-209 -983h-397l18 94q-74 -61 -167 -93t-187 -32q-162 0 -247 87t-85 227z" />
<glyph unicode="v" horiz-adv-x="1302" d="M147 983h396l90 -516l311 516h424l-623 -983h-393z" />
<glyph unicode="w" horiz-adv-x="1775" d="M147 983h410l27 -512l247 512h326l27 -512l248 512h409l-541 -983h-352l-43 496l-250 -496h-385z" />
<glyph unicode="x" horiz-adv-x="1392" d="M-61 0l528 508l-295 475h465l121 -199l209 199h465l-500 -475l317 -508h-461l-145 231l-244 -231h-460z" />
<glyph unicode="y" horiz-adv-x="1314" d="M-4 -403l57 272q147 -70 359 -70q139 0 206.5 53.5t90.5 159.5l22 111q-74 -61 -167 -93t-187 -32q-160 0 -245 88t-85 229q0 57 10 101l121 567h410l-111 -518q-8 -45 -8 -62q0 -45 25.5 -66.5t80.5 -21.5q121 0 207 111l119 557h412l-191 -893q-57 -274 -239.5 -417.5 t-528.5 -143.5q-96 0 -194.5 18.5t-163.5 49.5z" />
<glyph unicode="z" horiz-adv-x="1087" d="M-61 0l45 213l542 494h-428l60 276h979l-47 -213l-539 -494h450l-57 -276h-1005z" />
<glyph unicode="{" horiz-adv-x="755" d="M8 526l78 361h64q49 0 80.5 28.5t41.5 79.5l78 367q27 125 100.5 187.5t180.5 62.5h344l-76 -357h-80q-37 0 -55.5 -16t-26.5 -53l-55 -260q-37 -170 -193 -217v-4q106 -41 107 -154q0 -18 -8 -64l-56 -260q-4 -20 -4 -26q0 -43 58 -43h80l-76 -357h-344q-86 0 -135.5 42 t-49.5 126q0 33 11 80l78 367q2 10 2 30q0 80 -80 80h-64z" />
<glyph unicode="|" horiz-adv-x="505" d="M-123 -295l414 1958h424l-416 -1958h-422z" />
<glyph unicode="}" horiz-adv-x="755" d="M-123 -199l74 357h78q39 0 57 16t27 53l55 260q37 168 190 218v4q-104 39 -104 151q0 33 8 66l55 260q2 8 2 24q0 23 -13 34t-44 11h-78l76 357h344q88 0 136 -42t48 -128q0 -33 -10 -80l-78 -367q-4 -25 -4 -32q0 -37 20.5 -56.5t59.5 -19.5h66l-78 -361h-66 q-47 0 -78.5 -29.5t-41.5 -80.5l-78 -367q-27 -123 -101.5 -185.5t-179.5 -62.5h-342z" />
<glyph unicode="~" horiz-adv-x="1030" d="M37 467l76 354q96 90 252 90q51 0 103 -14t132 -43q72 -27 123 -41t98 -14q141 0 258 110l-75 -354q-94 -92 -252 -92q-54 0 -106 14.5t-136 44.5q-78 27 -125 40t-92 13q-139 0 -256 -108z" />
<glyph unicode="&#xa1;" horiz-adv-x="509" d="M-121 -336l197 938h409l-198 -938h-408zM127 866q0 68 37 128.5t98.5 96t128.5 35.5q76 0 125 -48t49 -120q0 -14 -4 -43q-20 -90 -95 -150t-163 -60q-80 0 -128 45t-48 116z" />
<glyph unicode="&#xa2;" horiz-adv-x="1103" d="M29 375q0 53 12 114q47 223 193.5 355.5t375.5 161.5l39 184h291l-39 -186q156 -23 242 -80l-68 -318q-51 45 -131 68.5t-172 23.5q-119 0 -202 -52t-105 -157q-6 -33 -6 -61q0 -76 54 -110.5t169 -34.5q92 0 184 24.5t174 71.5l-67 -316q-113 -61 -291 -83l-39 -187 h-291l39 189q-164 29 -263 130t-99 263z" />
<glyph unicode="&#xa3;" horiz-adv-x="989" d="M-51 0l63 305h142l65 305h-135l59 285h136l30 139q45 209 192.5 318.5t372.5 109.5q117 0 191 -37l-59 -286q-53 29 -125 28q-84 0 -141.5 -42t-73.5 -121l-25 -109h279l-60 -285h-278l-66 -305h383l-63 -305h-887z" />
<glyph unicode="&#xa4;" horiz-adv-x="1249" d="M-8 258l198 127q-16 53 -16 102q0 39 10 86q23 100 88 191l-143 127l209 205l156 -148q113 59 241 60q131 0 219 -60l215 146l123 -203l-196 -127q16 -55 16 -105q0 -39 -10 -86q-23 -106 -88 -188l145 -129l-211 -207l-155 146q-115 -57 -242 -58q-125 0 -215 58 l-219 -146zM481 535q0 -53 33 -86t96 -33q66 0 122 46t71 111q4 14 4 43q0 53 -32 85t-97 32q-76 0 -136.5 -60.5t-60.5 -137.5z" />
<glyph unicode="&#xa5;" horiz-adv-x="1568" d="M242 133l57 264h246l14 72h-246l56 262h155l-282 701h436l178 -494l406 494h467l-596 -701h151l-55 -262h-246l-14 -72h245l-57 -264h-246l-26 -133h-424l26 133h-245z" />
<glyph unicode="&#xa6;" horiz-adv-x="505" d="M-123 -295l174 834h424l-176 -834h-422zM113 827l178 836h424l-178 -836h-424z" />
<glyph unicode="&#xa7;" horiz-adv-x="1175" d="M-113 -248l78 375q98 -61 216 -92t227 -31q80 0 119.5 20.5t50.5 63.5q2 8 2 21q0 39 -41 67.5t-162 85.5q-152 72 -222.5 156t-70.5 196q0 39 10 95q18 90 80 157q-20 41 -20 92q0 23 8 68q43 199 214 317.5t439 118.5q135 0 235.5 -21.5t188.5 -68.5l-78 -362 q-158 98 -344 98q-78 0 -130 -23.5t-62 -68.5q-6 -33 14 -56.5t60 -44t141 -65.5q158 -72 224 -144.5t66 -181.5q0 -59 -14 -123q-18 -78 -74 -151q14 -37 15 -88q0 -43 -8 -78q-43 -207 -207 -319.5t-477 -112.5q-140 0 -272 27.5t-206 72.5zM489 623q0 -35 27 -57.5 t94 -53.5q49 -20 78 -35.5t45 -34.5q11 19 15 39t4 27q0 33 -27 54.5t-94 47.5q-37 14 -72 36t-53 38q-8 -18 -14 -41q-2 -8 -3 -20z" />
<glyph unicode="&#xa8;" horiz-adv-x="899" d="M215 1290q0 53 30.5 100.5t80 76t100.5 28.5q59 0 96 -38t37 -95q0 -82 -62.5 -142.5t-142.5 -60.5q-59 0 -99 37t-40 94zM696 1290q0 53 31 100.5t80 76t100 28.5q57 0 95 -38t38 -95q0 -82 -63.5 -142.5t-140.5 -60.5q-60 0 -100 37t-40 94z" />
<glyph unicode="&#xa9;" horiz-adv-x="1613" d="M72 547q0 80 18 168q47 223 176 392t321.5 262t426.5 93q182 0 324.5 -71.5t222 -201.5t79.5 -304q0 -80 -18 -170q-47 -221 -178 -390t-325.5 -262.5t-422.5 -93.5q-182 0 -323.5 72t-221 202t-79.5 304zM332 555q0 -346 416 -346q147 0 274 58.5t216 173t124 274.5 q18 86 18 159q0 344 -417 345q-227 0 -394.5 -132.5t-218.5 -371.5q-18 -88 -18 -160zM414 610q0 57 10 103q45 205 180 312.5t342 107.5q199 0 305 -72l-53 -248q-86 74 -227 74q-84 0 -141.5 -44t-77.5 -130q-8 -45 -9 -62q0 -59 35 -85.5t115 -26.5q143 0 274 79 l-53 -249q-152 -76 -348 -76q-156 0 -254 83t-98 234z" />
<glyph unicode="&#xaa;" horiz-adv-x="888" d="M135 903q0 25 6 51q25 119 117 181.5t246 62.5q51 0 104.5 -11t89.5 -30l2 14q2 8 2 21q0 39 -37.5 57.5t-123.5 18.5q-131 0 -246 -51l41 192q53 25 133 39t170 14q170 0 264 -65.5t94 -175.5q0 -27 -6 -56l-90 -428h-276l12 56q-43 -35 -108.5 -56.5t-139.5 -21.5 q-110 0 -182 49t-72 139zM442 936q0 -51 72 -51q39 0 76 14t61 39l13 55q-49 33 -119 33q-47 0 -70.5 -17.5t-30.5 -54.5q-2 -6 -2 -18z" />
<glyph unicode="&#xab;" horiz-adv-x="1470" d="M72 627l16 82l614 473l191 -242l-379 -289l256 -289l-287 -208zM709 627l16 82l614 473l191 -242l-379 -289l256 -289l-287 -208z" />
<glyph unicode="&#xac;" horiz-adv-x="925" d="M41 485l63 301h844l-112 -532h-355l49 231h-489z" />
<glyph unicode="&#xad;" horiz-adv-x="835" d="M35 461l69 325h754l-70 -325h-753z" />
<glyph unicode="&#xae;" horiz-adv-x="1613" d="M72 547q0 80 18 168q47 223 176 392t321.5 262t426.5 93q182 0 324.5 -71.5t222 -201.5t79.5 -304q0 -80 -18 -170q-47 -221 -178 -390t-325.5 -262.5t-422.5 -93.5q-182 0 -323.5 72t-221 202t-79.5 304zM332 555q0 -346 416 -346q147 0 274 58.5t216 173t124 274.5 q18 86 18 159q0 344 -417 345q-227 0 -394.5 -132.5t-218.5 -371.5q-18 -88 -18 -160zM459 340l164 770h368q121 0 188.5 -53t67.5 -154q0 -37 -8 -72q-39 -178 -188 -245l67 -246h-246l-57 211h-63l-45 -211h-248zM793 748h81q100 0 119 83q2 8 2 23q0 59 -86 59h-82z" />
<glyph unicode="&#xaf;" horiz-adv-x="811" d="M188 1176l52 241h729l-51 -241h-730z" />
<glyph unicode="&#xb0;" horiz-adv-x="671" d="M184 1135q0 29 6 59q27 125 127.5 210t231.5 85q104 0 170.5 -66.5t66.5 -167.5q0 -31 -6 -61q-25 -123 -126 -209t-230 -86q-105 0 -172.5 67.5t-67.5 168.5zM393 1171q0 -31 18.5 -50t55.5 -19q43 0 77 37t34 80q0 29 -17.5 47t-54.5 18q-43 0 -78 -35t-35 -78z" />
<glyph unicode="&#xb1;" horiz-adv-x="835" d="M-61 0l65 317h754l-66 -317h-753zM66 602l67 318h213l41 192h326l-41 -192h215l-68 -318h-215l-41 -192h-325l41 192h-213z" />
<glyph unicode="&#xb2;" horiz-adv-x="700" d="M98 758l31 147q190 106 269 160.5t87 97.5q6 29 -11 42.5t-62 13.5q-51 0 -106.5 -18.5t-100.5 -49.5l49 235q47 29 132 47.5t161 18.5q129 0 194.5 -52t65.5 -132q0 -14 -4 -43q-18 -78 -75.5 -134.5t-186.5 -136.5h219l-43 -196h-619z" />
<glyph unicode="&#xb3;" horiz-adv-x="706" d="M104 782l39 183q39 -23 89.5 -35t95.5 -12q109 0 121 55q8 29 -15.5 40t-87.5 11h-88l31 143h86q111 0 110 60q0 20 -23.5 31.5t-64.5 11.5q-96 0 -190 -53l39 184q51 23 133 37t158 14q129 0 202.5 -46t73.5 -126q0 -53 -27.5 -100t-78.5 -84q63 -35 63 -103 q0 -115 -104.5 -185.5t-284.5 -70.5q-82 0 -158 11.5t-119 33.5z" />
<glyph unicode="&#xb4;" horiz-adv-x="632" d="M184 1159l217 369h412l-268 -369h-361z" />
<glyph unicode="&#xb6;" horiz-adv-x="1613" d="M143 901q0 59 17 141q35 168 133 285t239.5 175.5t307.5 58.5h960l-389 -1835h-422l320 1503h-129l-320 -1503h-422l172 809h-51q-193 0 -304.5 94t-111.5 272z" />
<glyph unicode="&#xb7;" horiz-adv-x="366" d="M63 578q0 70 54.5 123t122.5 53q51 0 83.5 -33t32.5 -82q0 -68 -55 -120t-123 -52q-51 0 -83 30.5t-32 80.5z" />
<glyph unicode="&#xb8;" horiz-adv-x="710" d="M-121 -477l33 164q20 -14 57 -22.5t72 -8.5q66 0 101.5 16.5t45.5 59.5q2 6 2 18q0 37 -45 54.5t-147 17.5l106 178h269l-58 -94q76 -10 115 -49t39 -101q0 -12 -4 -41q-23 -102 -118 -162.5t-253 -60.5q-147 0 -215 31z" />
<glyph unicode="&#xb9;" horiz-adv-x="477" d="M160 1042l55 261l201 129h262l-143 -674h-295l82 385z" />
<glyph unicode="&#xba;" horiz-adv-x="972" d="M160 1012q0 41 8 75q37 168 174 271.5t352 103.5q170 0 271.5 -83t101.5 -216q0 -41 -8 -76q-35 -168 -175.5 -271t-348.5 -103q-175 0 -275 82t-100 217zM465 1042q0 -100 119 -100q75 0 127.5 54.5t52.5 138.5q0 98 -119 98q-66 0 -114 -39t-62 -107q-4 -16 -4 -45z " />
<glyph unicode="&#xbb;" horiz-adv-x="1470" d="M18 395l379 289l-256 289l283 209l416 -473l-17 -82l-618 -473zM655 395l379 289l-256 289l283 209l416 -473l-17 -82l-618 -473z" />
<glyph unicode="&#xbc;" horiz-adv-x="1617" d="M90 0l1096 1432h418l-1096 -1432h-418zM160 1042l55 261l201 129h262l-143 -674h-295l82 385zM821 109l37 180l359 385h309l-78 -371h90l-41 -194h-90l-23 -109h-294l22 109h-291zM1118 303h125l35 160z" />
<glyph unicode="&#xbd;" horiz-adv-x="1665" d="M90 0l1096 1432h418l-1096 -1432h-418zM160 1042l55 261l201 129h262l-143 -674h-295l82 385zM903 0l31 147q201 113 278.5 170.5t77.5 102.5q0 41 -78 41q-51 0 -105 -18.5t-99 -49.5l51 236q47 29 132 47t161 18q129 0 192.5 -51t63.5 -133q0 -29 -4 -43 q-16 -78 -75 -134.5t-188 -135.5h222l-41 -197h-619z" />
<glyph unicode="&#xbe;" horiz-adv-x="1648" d="M104 782l39 183q39 -23 89.5 -35t95.5 -12q109 0 121 55q8 29 -15.5 40t-87.5 11h-88l31 143h86q111 0 110 60q0 20 -23.5 31.5t-64.5 11.5q-96 0 -190 -53l39 184q51 23 133 37t158 14q129 0 202.5 -46t73.5 -126q0 -53 -27.5 -100t-78.5 -84q63 -35 63 -103 q0 -115 -104.5 -185.5t-284.5 -70.5q-82 0 -158 11.5t-119 33.5zM129 0l1096 1432h420l-1096 -1432h-420zM852 109l37 180l358 385h309l-77 -371h90l-41 -194h-90l-23 -109h-295l23 109h-291zM1149 303h125l35 160z" />
<glyph unicode="&#xbf;" horiz-adv-x="1083" d="M-63 -39q0 23 8 72q23 104 81 168.5t181 138.5q119 74 166 117t61 108l8 37h412l-8 -41q-20 -98 -74.5 -177t-140.5 -132q-55 -35 -72 -43q-78 -45 -108.5 -70.5t-38.5 -62.5q-2 -8 -2 -21q0 -37 35.5 -53t119.5 -16q184 0 391 98l-75 -363q-211 -88 -459 -88 q-217 0 -351 87t-134 241zM496 868q0 70 37.5 129.5t99 94t127.5 34.5q80 0 128 -46t48 -119q0 -31 -4 -46q-20 -92 -94 -151t-166 -59q-78 0 -127 45t-49 118z" />
<glyph unicode="&#xc0;" horiz-adv-x="1634" d="M-61 0l876 1432h408l268 -1432h-414l-49 272h-469l-166 -272h-454zM692 1878h412l63 -369h-362zM723 594h274l-51 401z" />
<glyph unicode="&#xc1;" horiz-adv-x="1634" d="M-61 0l876 1432h408l268 -1432h-414l-49 272h-469l-166 -272h-454zM723 594h274l-51 401zM834 1509l219 369h411l-268 -369h-362z" />
<glyph unicode="&#xc2;" horiz-adv-x="1634" d="M-61 0l876 1432h408l268 -1432h-414l-49 272h-469l-166 -272h-454zM528 1532l377 352h338l227 -352h-342l-88 145l-149 -145h-363zM723 594h274l-51 401z" />
<glyph unicode="&#xc3;" horiz-adv-x="1634" d="M-61 0l876 1432h408l268 -1432h-414l-49 272h-469l-166 -272h-454zM571 1520l62 288q90 84 237 84q45 0 88 -12t111 -39q61 -25 103 -38t88 -13q131 0 237 100l-59 -286q-86 -84 -236 -84q-51 0 -97 13t-112 40q-59 25 -99 37t-83 12q-129 0 -240 -102zM723 594h274 l-51 401z" />
<glyph unicode="&#xc4;" horiz-adv-x="1634" d="M-61 0l876 1432h408l268 -1432h-414l-49 272h-469l-166 -272h-454zM618 1651q0 53 32 100t80 75.5t97 28.5q59 0 97.5 -37.5t38.5 -95.5q0 -82 -63.5 -142t-143.5 -60q-60 0 -99 36.5t-39 94.5zM723 594h274l-51 401zM1100 1651q0 53 30.5 100t80 75.5t100.5 28.5 q57 0 95 -37.5t38 -95.5q0 -82 -63.5 -142t-141.5 -60q-59 0 -99 36.5t-40 94.5z" />
<glyph unicode="&#xc5;" horiz-adv-x="1634" d="M-61 0l843 1378q-45 61 -45 144q0 29 6 59q29 131 129.5 216t239.5 85q111 0 180.5 -66.5t69.5 -170.5q0 -29 -6 -64q-25 -121 -123 -207l258 -1374h-414l-49 272h-469l-166 -272h-454zM723 594h274l-51 401zM942 1554q0 -34 21.5 -55.5t62.5 -21.5q45 0 82 30.5t47 73.5 q4 25 4 33q0 35 -21.5 54.5t-66.5 19.5q-49 0 -89 -39t-40 -95z" />
<glyph unicode="&#xc6;" horiz-adv-x="1880" d="M-61 0l903 1432h1198l-76 -357h-573l-41 -196h403l-70 -326h-403l-43 -197h573l-73 -356h-955l58 272h-289l-170 -272h-442zM709 598h200l101 477h-13z" />
<glyph unicode="&#xc7;" horiz-adv-x="1384" d="M70 530q0 90 20 185q76 352 317.5 549.5t626.5 197.5q154 0 268.5 -28.5t206.5 -92.5l-84 -391q-76 70 -181 100.5t-253 30.5q-192 0 -311 -92t-158 -274q-16 -82 -16 -137q0 -119 75.5 -175.5t252.5 -56.5q145 0 269 33t240 104l-83 -389q-182 -100 -416 -119l-41 -69 q76 -10 114.5 -49t38.5 -101q0 -12 -4 -41q-23 -102 -118 -162.5t-250 -60.5q-145 0 -217 31l34 164q20 -14 57.5 -22.5t71.5 -8.5q66 0 102 16.5t46 59.5q2 6 2 18q0 37 -45 54.5t-148 17.5l93 155q-240 35 -375 178.5t-135 374.5z" />
<glyph unicode="&#xc8;" horiz-adv-x="1140" d="M-20 0l303 1432h1038l-76 -357h-614l-41 -196h442l-69 -326h-443l-43 -197h615l-74 -356h-1038zM508 1890h412l63 -368h-362z" />
<glyph unicode="&#xc9;" horiz-adv-x="1140" d="M-20 0l303 1432h1038l-76 -357h-614l-41 -196h442l-69 -326h-443l-43 -197h615l-74 -356h-1038zM580 1509l219 369h411l-268 -369h-362z" />
<glyph unicode="&#xca;" horiz-adv-x="1140" d="M-20 0l303 1432h1038l-76 -357h-614l-41 -196h442l-69 -326h-443l-43 -197h615l-74 -356h-1038zM305 1524l377 352h338l227 -352h-342l-88 145l-149 -145h-363z" />
<glyph unicode="&#xcb;" horiz-adv-x="1140" d="M-20 0l303 1432h1038l-76 -357h-614l-41 -196h442l-69 -326h-443l-43 -197h615l-74 -356h-1038zM420 1661q0 53 31.5 100t80 76t97.5 29q59 0 97 -38t38 -95q0 -82 -63.5 -142.5t-143.5 -60.5q-59 0 -98 37t-39 94zM901 1661q0 53 31 100t80 76t100 29q57 0 95 -38 t38 -95q0 -82 -63.5 -142.5t-141.5 -60.5q-59 0 -99 37t-40 94z" />
<glyph unicode="&#xcc;" horiz-adv-x="587" d="M-20 0l303 1432h424l-304 -1432h-423zM180 1878h412l63 -369h-362z" />
<glyph unicode="&#xcd;" horiz-adv-x="587" d="M-20 0l303 1432h424l-304 -1432h-423zM285 1509l219 369h411l-268 -369h-362z" />
<glyph unicode="&#xce;" horiz-adv-x="587" d="M-20 0l303 1432h424l-304 -1432h-423zM0 1518l377 352h338l227 -352h-342l-88 145l-150 -145h-362z" />
<glyph unicode="&#xcf;" horiz-adv-x="587" d="M-20 0l303 1432h424l-304 -1432h-423zM94 1651q0 53 32 100t80 75.5t97 28.5q59 0 97 -37.5t38 -95.5q0 -82 -63.5 -142t-143.5 -60q-59 0 -98 36.5t-39 94.5zM575 1651q0 53 31 100t80 75.5t100 28.5q57 0 95.5 -37.5t38.5 -95.5q0 -82 -63.5 -142t-141.5 -60 q-60 0 -100 36.5t-40 94.5z" />
<glyph unicode="&#xd0;" horiz-adv-x="1513" d="M53 0l119 561h-94l65 307h95l118 564h531q197 0 345 -72t228 -199t80 -289q0 -68 -16 -149q-78 -360 -310.5 -541.5t-607.5 -181.5h-553zM551 356h133q158 0 264.5 99.5t143.5 267.5q16 78 16 137q0 104 -61.5 159.5t-202.5 55.5h-139l-46 -207h256l-65 -307h-256z" />
<glyph unicode="&#xd1;" horiz-adv-x="1445" d="M-20 0l303 1432h411l287 -750l160 750h424l-303 -1432h-410l-291 750l-158 -750h-423zM504 1520l61 288q90 84 238 84q45 0 88 -12t110 -39q61 -25 103.5 -38t87.5 -13q131 0 238 100l-60 -286q-86 -84 -235 -84q-51 0 -97.5 13t-111.5 40q-59 25 -99.5 37t-83.5 12 q-129 0 -239 -102z" />
<glyph unicode="&#xd2;" horiz-adv-x="1626" d="M72 543q0 84 18 172q47 221 180 391t329 263t423 93q186 0 329.5 -70.5t222.5 -201.5t79 -303q0 -82 -19 -172q-47 -221 -180 -390t-328.5 -262.5t-420.5 -93.5q-187 0 -331.5 71t-223 201t-78.5 302zM510 612q0 -119 71.5 -182t209.5 -63q145 0 260.5 94t150.5 254 q12 55 12 100q0 119 -70.5 182.5t-205.5 63.5q-147 0 -265 -94.5t-151 -251.5q-12 -55 -12 -103zM723 1878h412l63 -369h-362z" />
<glyph unicode="&#xd3;" horiz-adv-x="1626" d="M72 543q0 84 18 172q47 221 180 391t329 263t423 93q186 0 329.5 -70.5t222.5 -201.5t79 -303q0 -82 -19 -172q-47 -221 -180 -390t-328.5 -262.5t-420.5 -93.5q-187 0 -331.5 71t-223 201t-78.5 302zM510 612q0 -119 71.5 -182t209.5 -63q145 0 260.5 94t150.5 254 q12 55 12 100q0 119 -70.5 182.5t-205.5 63.5q-147 0 -265 -94.5t-151 -251.5q-12 -55 -12 -103zM788 1509l220 369h411l-268 -369h-363z" />
<glyph unicode="&#xd4;" horiz-adv-x="1626" d="M72 543q0 84 18 172q47 221 180 391t329 263t423 93q186 0 329.5 -70.5t222.5 -201.5t79 -303q0 -82 -19 -172q-47 -221 -180 -390t-328.5 -262.5t-420.5 -93.5q-187 0 -331.5 71t-223 201t-78.5 302zM510 612q0 -119 71.5 -182t209.5 -63q145 0 260.5 94t150.5 254 q12 55 12 100q0 119 -70.5 182.5t-205.5 63.5q-147 0 -265 -94.5t-151 -251.5q-12 -55 -12 -103zM524 1534l377 352h338l227 -352h-342l-88 145l-149 -145h-363z" />
<glyph unicode="&#xd5;" horiz-adv-x="1626" d="M72 543q0 84 18 172q47 221 180 391t329 263t423 93q186 0 329.5 -70.5t222.5 -201.5t79 -303q0 -82 -19 -172q-47 -221 -180 -390t-328.5 -262.5t-420.5 -93.5q-187 0 -331.5 71t-223 201t-78.5 302zM510 612q0 -119 71.5 -182t209.5 -63q145 0 260.5 94t150.5 254 q12 55 12 100q0 119 -70.5 182.5t-205.5 63.5q-147 0 -265 -94.5t-151 -251.5q-12 -55 -12 -103zM575 1538l62 289q90 84 237 84q45 0 88.5 -12.5t110.5 -38.5q61 -25 103.5 -38.5t87.5 -13.5q131 0 237 101l-59 -287q-86 -84 -236 -84q-51 0 -97 13.5t-112 39.5 q-59 25 -99 37t-83 12q-129 0 -240 -102z" />
<glyph unicode="&#xd6;" horiz-adv-x="1626" d="M72 543q0 84 18 172q47 221 180 391t329 263t423 93q186 0 329.5 -70.5t222.5 -201.5t79 -303q0 -82 -19 -172q-47 -221 -180 -390t-328.5 -262.5t-420.5 -93.5q-187 0 -331.5 71t-223 201t-78.5 302zM510 612q0 -119 71.5 -182t209.5 -63q145 0 260.5 94t150.5 254 q12 55 12 100q0 119 -70.5 182.5t-205.5 63.5q-147 0 -265 -94.5t-151 -251.5q-12 -55 -12 -103zM616 1665q0 53 32 100t80 76t97 29q59 0 97.5 -38t38.5 -95q0 -82 -63.5 -142.5t-143.5 -60.5q-60 0 -99 37t-39 94zM1098 1665q0 53 30.5 100t79.5 76t101 29q57 0 95 -38 t38 -95q0 -82 -63.5 -142.5t-141.5 -60.5q-59 0 -99 37t-40 94z" />
<glyph unicode="&#xd7;" horiz-adv-x="845" d="M41 489l182 152l-117 150l281 231l117 -150l184 152l182 -233l-184 -152l119 -150l-281 -231l-118 152l-183 -150z" />
<glyph unicode="&#xd8;" horiz-adv-x="1626" d="M72 543q0 84 18 172q47 221 180 391t329 263t423 93q90 0 160 -14l98 158h248l-144 -232q127 -74 198 -199.5t71 -287.5q0 -82 -19 -172q-47 -221 -180 -390t-327.5 -262.5t-421.5 -93.5q-92 0 -175 19l-98 -164h-248l146 237q-123 76 -190.5 199t-67.5 283zM510 610 q0 -104 55 -166l379 617h-6q-147 0 -265 -94.5t-151 -251.5q-12 -55 -12 -105zM766 367h25q145 0 260.5 94t150.5 254q10 57 10 98q0 115 -63 178z" />
<glyph unicode="&#xd9;" horiz-adv-x="1482" d="M82 459q0 78 18 164l172 809h424l-170 -805q-14 -76 -14 -111q0 -84 46 -120t147 -36q102 0 163.5 29t95 86t54.5 152l170 805h424l-172 -809q-68 -315 -257.5 -484.5t-551.5 -169.5q-256 0 -402.5 131t-146.5 359zM649 1878h412l63 -369h-362z" />
<glyph unicode="&#xda;" horiz-adv-x="1482" d="M82 459q0 78 18 164l172 809h424l-170 -805q-14 -76 -14 -111q0 -84 46 -120t147 -36q102 0 163.5 29t95 86t54.5 152l170 805h424l-172 -809q-68 -315 -257.5 -484.5t-551.5 -169.5q-256 0 -402.5 131t-146.5 359zM743 1509l220 369h411l-268 -369h-363z" />
<glyph unicode="&#xdb;" horiz-adv-x="1482" d="M82 459q0 78 18 164l172 809h424l-170 -805q-14 -76 -14 -111q0 -84 46 -120t147 -36q102 0 163.5 29t95 86t54.5 152l170 805h424l-172 -809q-68 -315 -257.5 -484.5t-551.5 -169.5q-256 0 -402.5 131t-146.5 359zM453 1532l376 352h338l228 -352h-342l-88 145 l-150 -145h-362z" />
<glyph unicode="&#xdc;" horiz-adv-x="1482" d="M82 459q0 78 18 164l172 809h424l-170 -805q-14 -76 -14 -111q0 -84 46 -120t147 -36q102 0 163.5 29t95 86t54.5 152l170 805h424l-172 -809q-68 -315 -257.5 -484.5t-551.5 -169.5q-256 0 -402.5 131t-146.5 359zM545 1665q0 53 31.5 100t80 76t97.5 29q59 0 97 -38 t38 -95q0 -82 -63.5 -142.5t-143.5 -60.5q-59 0 -98 37t-39 94zM1026 1665q0 53 30.5 100t80 76t100.5 29q57 0 95 -38t38 -95q0 -82 -63.5 -142.5t-141.5 -60.5q-59 0 -99 37t-40 94z" />
<glyph unicode="&#xdd;" horiz-adv-x="1568" d="M242 1432h436l178 -494l406 494h467l-730 -887l-114 -545h-424l114 545zM778 1522l219 368h412l-268 -368h-363z" />
<glyph unicode="&#xde;" horiz-adv-x="1325" d="M-20 0l303 1432h424l-45 -209h239q131 0 236.5 -46.5t167 -134.5t61.5 -208q0 -53 -12 -113q-55 -250 -223 -376t-443 -126h-239l-46 -219h-423zM520 555h156q109 0 166 35t78 131q8 33 8 65q0 57 -41 79t-139 22h-156z" />
<glyph unicode="&#xdf;" horiz-adv-x="1353" d="M-31 0l209 991q39 182 120 298t223.5 175.5t363.5 59.5q170 0 282.5 -52.5t165.5 -138.5t53 -188q0 -45 -8 -84q-20 -96 -73.5 -172t-137.5 -121q145 -68 146 -229q0 -47 -13 -107q-47 -219 -197.5 -341t-385.5 -122q-166 0 -246 37l72 332q25 -18 63.5 -28.5t81.5 -10.5 q76 0 125 44t66 120q6 29 6 49q0 115 -152 115h-108l59 284h90q72 0 116 43t58 115q4 25 4 37q0 49 -32.5 76.5t-98.5 27.5q-84 0 -138 -44t-71 -122l-221 -1044h-422z" />
<glyph unicode="&#xe0;" horiz-adv-x="1370" d="M27 365q0 49 14 124q51 240 219 382.5t416 142.5q94 0 171 -28t122 -75l16 72h410l-209 -983h-395l18 90q-74 -57 -166 -89t-190 -32q-193 0 -309.5 106.5t-116.5 289.5zM457 424q0 -137 174 -137q69 0 130.5 32.5t100.5 90.5l35 161q-14 57 -61.5 90t-116.5 33 q-96 0 -165 -54t-89 -151q-8 -45 -8 -65zM567 1427h412l63 -368h-362z" />
<glyph unicode="&#xe1;" horiz-adv-x="1370" d="M27 365q0 49 14 124q51 240 219 382.5t416 142.5q94 0 171 -28t122 -75l16 72h410l-209 -983h-395l18 90q-74 -57 -166 -89t-190 -32q-193 0 -309.5 106.5t-116.5 289.5zM457 424q0 -137 174 -137q69 0 130.5 32.5t100.5 90.5l35 161q-14 57 -61.5 90t-116.5 33 q-96 0 -165 -54t-89 -151q-8 -45 -8 -65zM588 1059l219 368h412l-269 -368h-362z" />
<glyph unicode="&#xe2;" horiz-adv-x="1370" d="M27 365q0 49 14 124q51 240 219 382.5t416 142.5q94 0 171 -28t122 -75l16 72h410l-209 -983h-395l18 90q-74 -57 -166 -89t-190 -32q-193 0 -309.5 106.5t-116.5 289.5zM332 1081l377 353h338l227 -353h-342l-88 146l-150 -146h-362zM457 424q0 -137 174 -137 q69 0 130.5 32.5t100.5 90.5l35 161q-14 57 -61.5 90t-116.5 33q-96 0 -165 -54t-89 -151q-8 -45 -8 -65z" />
<glyph unicode="&#xe3;" horiz-adv-x="1370" d="M27 365q0 49 14 124q51 240 219 382.5t416 142.5q94 0 171 -28t122 -75l16 72h410l-209 -983h-395l18 90q-74 -57 -166 -89t-190 -32q-193 0 -309.5 106.5t-116.5 289.5zM403 1067l62 289q90 84 237 84q45 0 88.5 -12.5t110.5 -38.5q61 -25 103.5 -38.5t87.5 -13.5 q131 0 237 101l-59 -287q-86 -84 -236 -84q-51 0 -97 13.5t-112 39.5q-59 25 -99 37t-83 12q-129 0 -240 -102zM457 424q0 -137 174 -137q69 0 130.5 32.5t100.5 90.5l35 161q-14 57 -61.5 90t-116.5 33q-96 0 -165 -54t-89 -151q-8 -45 -8 -65z" />
<glyph unicode="&#xe4;" horiz-adv-x="1370" d="M27 365q0 49 14 124q51 240 219 382.5t416 142.5q94 0 171 -28t122 -75l16 72h410l-209 -983h-395l18 90q-74 -57 -166 -89t-190 -32q-193 0 -309.5 106.5t-116.5 289.5zM414 1194q0 53 31.5 100t79.5 76t98 29q59 0 97 -38t38 -95q0 -82 -63.5 -142.5t-143.5 -60.5 q-59 0 -98 37t-39 94zM457 424q0 -137 174 -137q69 0 130.5 32.5t100.5 90.5l35 161q-14 57 -61.5 90t-116.5 33q-96 0 -165 -54t-89 -151q-8 -45 -8 -65zM895 1194q0 53 30.5 100t80 76t100.5 29q57 0 95 -38t38 -95q0 -82 -63.5 -142.5t-141.5 -60.5q-59 0 -99 37t-40 94z " />
<glyph unicode="&#xe5;" horiz-adv-x="1370" d="M27 365q0 49 14 124q51 240 219 382.5t416 142.5q94 0 171 -28t122 -75l16 72h410l-209 -983h-395l18 90q-74 -57 -166 -89t-190 -32q-193 0 -309.5 106.5t-116.5 289.5zM457 424q0 -137 174 -137q69 0 130.5 32.5t100.5 90.5l35 161q-14 57 -61.5 90t-116.5 33 q-96 0 -165 -54t-89 -151q-8 -45 -8 -65zM553 1307q0 29 6 59q29 131 129 216t240 85q111 0 180.5 -66.5t69.5 -170.5q0 -29 -7 -64q-27 -129 -130 -214t-240 -85q-111 0 -179.5 67.5t-68.5 172.5zM758 1339q0 -35 21.5 -56t62.5 -21q45 0 82 30.5t47 73.5q4 25 4 33 q0 35 -21.5 54.5t-66.5 19.5q-49 0 -89 -39t-40 -95z" />
<glyph unicode="&#xe6;" horiz-adv-x="1955" d="M-6 229q0 41 8 76q35 164 164 252t330 88q76 0 150.5 -16.5t123.5 -40.5l2 18q2 8 2 27q0 53 -58.5 81.5t-164.5 28.5q-178 0 -344 -71l57 270q76 33 188.5 52.5t235.5 19.5q238 0 369 -115q84 53 188.5 84t214.5 31q154 0 260.5 -52.5t159.5 -141.5t53 -202 q0 -49 -14 -116l-29 -129h-755q23 -135 266 -135q98 0 204.5 15t184.5 44l-53 -256q-86 -33 -202 -52.5t-237 -19.5q-137 0 -242.5 37t-168.5 105q-109 -68 -232 -105t-284 -37q-176 0 -276.5 66.5t-100.5 193.5zM414 279q0 -72 100 -72q53 0 104.5 19.5t83.5 52.5l17 77 q-61 49 -160 50q-57 0 -95 -27t-48 -74q-2 -8 -2 -26zM1184 604h368q10 139 -155 139q-82 0 -135.5 -37.5t-77.5 -101.5z" />
<glyph unicode="&#xe7;" horiz-adv-x="1105" d="M29 375q0 53 12 114q55 256 237.5 390.5t466.5 134.5q123 0 229.5 -23.5t168.5 -66.5l-68 -318q-51 45 -131 68.5t-172 23.5q-119 0 -202 -52t-105 -157q-6 -33 -6 -61q0 -76 54 -110.5t169 -34.5q92 0 184 24.5t174 71.5l-67 -316q-125 -70 -320 -88l-43 -69 q76 -10 115 -49t39 -101q0 -12 -4 -41q-23 -102 -118 -162.5t-251 -60.5q-145 0 -217 31l35 164q20 -14 57 -22.5t72 -8.5q66 0 101.5 16.5t45.5 59.5q2 6 2 18q0 37 -45 54.5t-147 17.5l94 160q-162 31 -261 132t-99 261z" />
<glyph unicode="&#xe8;" horiz-adv-x="1228" d="M29 375q0 51 12 112q53 250 222 388.5t470 138.5q145 0 252 -52.5t163 -144.5t56 -209q0 -51 -12 -106l-29 -133h-757q4 -68 62 -99.5t206 -31.5q98 0 204.5 15t184.5 44l-53 -256q-86 -33 -207 -52.5t-244 -19.5q-242 0 -386 106.5t-144 299.5zM444 1427h412l64 -368 h-363zM455 606h370q4 68 -29.5 102.5t-125.5 34.5q-82 0 -136.5 -36.5t-78.5 -100.5z" />
<glyph unicode="&#xe9;" horiz-adv-x="1228" d="M29 375q0 51 12 112q53 250 222 388.5t470 138.5q145 0 252 -52.5t163 -144.5t56 -209q0 -51 -12 -106l-29 -133h-757q4 -68 62 -99.5t206 -31.5q98 0 204.5 15t184.5 44l-53 -256q-86 -33 -207 -52.5t-244 -19.5q-242 0 -386 106.5t-144 299.5zM455 606h370 q4 68 -29.5 102.5t-125.5 34.5q-82 0 -136.5 -36.5t-78.5 -100.5zM514 1059l219 368h412l-268 -368h-363z" />
<glyph unicode="&#xea;" horiz-adv-x="1228" d="M29 375q0 51 12 112q53 250 222 388.5t470 138.5q145 0 252 -52.5t163 -144.5t56 -209q0 -51 -12 -106l-29 -133h-757q4 -68 62 -99.5t206 -31.5q98 0 204.5 15t184.5 44l-53 -256q-86 -33 -207 -52.5t-244 -19.5q-242 0 -386 106.5t-144 299.5zM248 1081l377 353h338 l227 -353h-342l-88 146l-150 -146h-362zM455 606h370q4 68 -29.5 102.5t-125.5 34.5q-82 0 -136.5 -36.5t-78.5 -100.5z" />
<glyph unicode="&#xeb;" horiz-adv-x="1228" d="M29 375q0 51 12 112q53 250 222 388.5t470 138.5q145 0 252 -52.5t163 -144.5t56 -209q0 -51 -12 -106l-29 -133h-757q4 -68 62 -99.5t206 -31.5q98 0 204.5 15t184.5 44l-53 -256q-86 -33 -207 -52.5t-244 -19.5q-242 0 -386 106.5t-144 299.5zM338 1198 q0 53 31.5 100.5t80 76t97.5 28.5q59 0 97 -38t38 -95q0 -82 -63.5 -142.5t-143.5 -60.5q-59 0 -98 37t-39 94zM455 606h370q4 68 -29.5 102.5t-125.5 34.5q-82 0 -136.5 -36.5t-78.5 -100.5zM819 1198q0 53 31 100.5t80 76t100 28.5q57 0 95 -38t38 -95q0 -82 -63.5 -142.5 t-141.5 -60.5q-59 0 -99 37t-40 94z" />
<glyph unicode="&#xec;" horiz-adv-x="573" d="M-20 0l208 983h410l-209 -983h-409zM86 1427h412l63 -368h-362z" />
<glyph unicode="&#xed;" horiz-adv-x="573" d="M-20 0l208 983h410l-209 -983h-409zM180 1059l219 368h412l-268 -368h-363z" />
<glyph unicode="&#xee;" horiz-adv-x="573" d="M-98 1081l377 353h337l228 -353h-342l-88 146l-150 -146h-362zM-20 0l208 983h410l-209 -983h-409z" />
<glyph unicode="&#xef;" horiz-adv-x="573" d="M-20 0l208 983h410l-209 -983h-409zM-10 1198q0 53 31.5 100.5t80 76t97.5 28.5q59 0 97 -38t38 -95q0 -82 -63.5 -142.5t-143.5 -60.5q-59 0 -98 37t-39 94zM471 1198q0 53 30.5 100.5t80 76t100.5 28.5q57 0 95 -38t38 -95q0 -82 -63.5 -142.5t-141.5 -60.5 q-59 0 -99 37t-40 94z" />
<glyph unicode="&#xf0;" horiz-adv-x="1304" d="M27 365q0 61 10 104q49 229 214 350t411 121q82 0 155.5 -22.5t114.5 -61.5q6 37 6 74q0 115 -68 174l-274 -135l29 131l112 55q-37 4 -57 4q-174 0 -291 -55l68 315q57 18 137 30.5t160 12.5q233 0 383 -108l270 133l-29 -129l-161 -80q115 -143 114 -367 q0 -102 -28 -239q-45 -211 -157 -370t-272.5 -246t-353.5 -87q-233 0 -363 108.5t-130 287.5zM459 393q0 -57 33.5 -85.5t109.5 -28.5q92 0 153.5 67.5t61.5 161.5q0 61 -37 95t-100 34q-82 0 -138.5 -47t-74.5 -131q-8 -33 -8 -66z" />
<glyph unicode="&#xf1;" horiz-adv-x="1288" d="M-20 0l208 983h396l-21 -96q74 61 168 94t189 33q166 0 250.5 -79t84.5 -218q0 -51 -12 -107l-129 -610h-412l117 553q8 45 8 59q0 41 -23.5 61.5t-78.5 20.5q-123 0 -213 -110l-123 -584h-409zM309 1067l62 289q90 84 237 84q45 0 88 -12.5t111 -38.5q61 -25 103 -38.5 t87 -13.5q131 0 238 101l-59 -287q-86 -84 -236 -84q-51 0 -97 13.5t-112 39.5q-59 25 -99 37t-83 12q-129 0 -240 -102z" />
<glyph unicode="&#xf2;" horiz-adv-x="1325" d="M31 385q0 51 12 107q33 154 128 271.5t248.5 184t354.5 66.5q160 0 278.5 -53.5t182 -147.5t63.5 -217q0 -49 -12 -104q-33 -154 -130 -272t-251.5 -184.5t-353.5 -66.5q-156 0 -273.5 52.5t-182 146.5t-64.5 217zM455 426q0 -139 163 -139q93 0 160.5 55t87.5 150 q6 35 6 65q0 68 -38.5 102.5t-126.5 34.5q-92 0 -159 -54t-85 -148q-8 -45 -8 -66zM481 1427h412l63 -368h-362z" />
<glyph unicode="&#xf3;" horiz-adv-x="1325" d="M31 385q0 51 12 107q33 154 128 271.5t248.5 184t354.5 66.5q160 0 278.5 -53.5t182 -147.5t63.5 -217q0 -49 -12 -104q-33 -154 -130 -272t-251.5 -184.5t-353.5 -66.5q-156 0 -273.5 52.5t-182 146.5t-64.5 217zM455 426q0 -139 163 -139q93 0 160.5 55t87.5 150 q6 35 6 65q0 68 -38.5 102.5t-126.5 34.5q-92 0 -159 -54t-85 -148q-8 -45 -8 -66zM557 1059l219 368h412l-268 -368h-363z" />
<glyph unicode="&#xf4;" horiz-adv-x="1325" d="M31 385q0 51 12 107q33 154 128 271.5t248.5 184t354.5 66.5q160 0 278.5 -53.5t182 -147.5t63.5 -217q0 -49 -12 -104q-33 -154 -130 -272t-251.5 -184.5t-353.5 -66.5q-156 0 -273.5 52.5t-182 146.5t-64.5 217zM276 1081l377 353h338l228 -353h-342l-89 146l-149 -146 h-363zM455 426q0 -139 163 -139q93 0 160.5 55t87.5 150q6 35 6 65q0 68 -38.5 102.5t-126.5 34.5q-92 0 -159 -54t-85 -148q-8 -45 -8 -66z" />
<glyph unicode="&#xf5;" horiz-adv-x="1325" d="M31 385q0 51 12 107q33 154 128 271.5t248.5 184t354.5 66.5q160 0 278.5 -53.5t182 -147.5t63.5 -217q0 -49 -12 -104q-33 -154 -130 -272t-251.5 -184.5t-353.5 -66.5q-156 0 -273.5 52.5t-182 146.5t-64.5 217zM324 1073l61 289q90 84 238 84q45 0 88 -12.5t110 -38.5 q61 -25 103.5 -38.5t87.5 -13.5q131 0 237 101l-59 -287q-86 -84 -236 -84q-51 0 -97 13.5t-112 39.5q-59 25 -99 37.5t-83 12.5q-129 0 -239 -103zM455 426q0 -139 163 -139q93 0 160.5 55t87.5 150q6 35 6 65q0 68 -38.5 102.5t-126.5 34.5q-92 0 -159 -54t-85 -148 q-8 -45 -8 -66z" />
<glyph unicode="&#xf6;" horiz-adv-x="1325" d="M31 385q0 51 12 107q33 154 128 271.5t248.5 184t354.5 66.5q160 0 278.5 -53.5t182 -147.5t63.5 -217q0 -49 -12 -104q-33 -154 -130 -272t-251.5 -184.5t-353.5 -66.5q-156 0 -273.5 52.5t-182 146.5t-64.5 217zM367 1198q0 53 31.5 100.5t79.5 76t97 28.5 q59 0 97.5 -38t38.5 -95q0 -82 -63.5 -142.5t-143.5 -60.5q-60 0 -98.5 37t-38.5 94zM455 426q0 -139 163 -139q93 0 160.5 55t87.5 150q6 35 6 65q0 68 -38.5 102.5t-126.5 34.5q-92 0 -159 -54t-85 -148q-8 -45 -8 -66zM848 1198q0 53 30.5 100.5t80 76t100.5 28.5 q57 0 95 -38t38 -95q0 -82 -63.5 -142.5t-141.5 -60.5q-59 0 -99 37t-40 94z" />
<glyph unicode="&#xf7;" horiz-adv-x="835" d="M35 461l69 325h754l-70 -325h-753zM213 225q0 72 54.5 125t123.5 53q53 0 87 -32.5t34 -81.5q0 -70 -56.5 -123t-125.5 -53q-51 0 -84 31.5t-33 80.5zM369 956q0 72 54 125.5t124 53.5q53 0 86 -33t33 -84q0 -70 -55.5 -122t-125.5 -52q-51 0 -83.5 31.5t-32.5 80.5z" />
<glyph unicode="&#xf8;" horiz-adv-x="1325" d="M31 385q0 51 12 107q33 154 128 271.5t248.5 184t354.5 66.5q45 0 92 -6l92 151h228l-125 -203q113 -53 174 -147t61 -215q0 -59 -10 -102q-33 -154 -130 -272t-251.5 -184.5t-353.5 -66.5q-51 0 -96 6l-93 -151h-225l125 203q-111 55 -171 147t-60 211zM446 422 q0 -43 15 -72l217 352q-86 -8 -146.5 -64t-76.5 -146q-8 -33 -9 -70zM643 279q88 10 150.5 66t80.5 147q8 49 9 67q0 47 -19 78z" />
<glyph unicode="&#xf9;" horiz-adv-x="1288" d="M39 283q0 53 12 104l127 596h410l-117 -547q-8 -33 -8 -65q0 -45 24.5 -64.5t81.5 -19.5q121 0 207 110l125 586h412l-209 -983h-397l18 94q-74 -61 -167 -93t-187 -32q-162 0 -247 87t-85 227zM459 1427h411l64 -368h-363z" />
<glyph unicode="&#xfa;" horiz-adv-x="1288" d="M39 283q0 53 12 104l127 596h410l-117 -547q-8 -33 -8 -65q0 -45 24.5 -64.5t81.5 -19.5q121 0 207 110l125 586h412l-209 -983h-397l18 94q-74 -61 -167 -93t-187 -32q-162 0 -247 87t-85 227zM526 1059l219 368h412l-268 -368h-363z" />
<glyph unicode="&#xfb;" horiz-adv-x="1288" d="M39 283q0 53 12 104l127 596h410l-117 -547q-8 -33 -8 -65q0 -45 24.5 -64.5t81.5 -19.5q121 0 207 110l125 586h412l-209 -983h-397l18 94q-74 -61 -167 -93t-187 -32q-162 0 -247 87t-85 227zM260 1081l377 353h338l227 -353h-342l-88 146l-149 -146h-363z" />
<glyph unicode="&#xfc;" horiz-adv-x="1288" d="M39 283q0 53 12 104l127 596h410l-117 -547q-8 -33 -8 -65q0 -45 24.5 -64.5t81.5 -19.5q121 0 207 110l125 586h412l-209 -983h-397l18 94q-74 -61 -167 -93t-187 -32q-162 0 -247 87t-85 227zM352 1198q0 53 32 100.5t80 76t97 28.5q59 0 97 -38t38 -95 q0 -82 -63.5 -142.5t-143.5 -60.5q-59 0 -98 37t-39 94zM834 1198q0 53 30.5 100.5t79.5 76t100 28.5q57 0 95.5 -38t38.5 -95q0 -82 -63.5 -142.5t-141.5 -60.5q-60 0 -99.5 37t-39.5 94z" />
<glyph unicode="&#xfd;" horiz-adv-x="1314" d="M-4 -403l57 272q147 -70 359 -70q139 0 206.5 53.5t90.5 159.5l22 111q-74 -61 -167 -93t-187 -32q-160 0 -245 88t-85 229q0 57 10 101l121 567h410l-111 -518q-8 -45 -8 -62q0 -45 25.5 -66.5t80.5 -21.5q121 0 207 111l119 557h412l-191 -893q-57 -274 -239.5 -417.5 t-528.5 -143.5q-96 0 -194.5 18.5t-163.5 49.5zM569 1061l219 369h412l-268 -369h-363z" />
<glyph unicode="&#xfe;" horiz-adv-x="1370" d="M-115 -449l398 1881h409l-110 -521q63 47 154 75t184 28q193 0 309.5 -108.5t116.5 -291.5q0 -47 -15 -122q-53 -240 -217 -381.5t-418 -141.5q-92 0 -169.5 28t-123.5 73l-110 -519h-408zM475 412q14 -57 61.5 -91t116.5 -34q97 0 165.5 54t88.5 153q8 45 8 65 q0 137 -174 137q-68 0 -130 -33.5t-101 -91.5z" />
<glyph unicode="&#xff;" horiz-adv-x="1314" d="M-4 -403l57 272q147 -70 359 -70q139 0 206.5 53.5t90.5 159.5l22 111q-74 -61 -167 -93t-187 -32q-160 0 -245 88t-85 229q0 57 10 101l121 567h410l-111 -518q-8 -45 -8 -62q0 -45 25.5 -66.5t80.5 -21.5q121 0 207 111l119 557h412l-191 -893q-57 -274 -239.5 -417.5 t-528.5 -143.5q-96 0 -194.5 18.5t-163.5 49.5zM403 1198q0 53 32 100.5t80 76t97 28.5q59 0 97.5 -38t38.5 -95q0 -82 -63.5 -142.5t-143.5 -60.5q-60 0 -99 37t-39 94zM885 1198q0 53 30.5 100.5t79.5 76t101 28.5q57 0 95 -38t38 -95q0 -82 -63.5 -142.5t-141.5 -60.5 q-59 0 -99 37t-40 94z" />
<glyph unicode="&#x100;" horiz-adv-x="1634" d="M-61 0l876 1432h408l268 -1432h-414l-49 272h-469l-166 -272h-454zM637 1540l51 242h727l-51 -242h-727zM723 594h274l-51 401z" />
<glyph unicode="&#x101;" horiz-adv-x="1370" d="M27 365q0 49 14 124q51 240 219 382.5t416 142.5q94 0 171 -28t122 -75l16 72h410l-209 -983h-395l18 90q-74 -57 -166 -89t-190 -32q-193 0 -309.5 106.5t-116.5 289.5zM426 1087l51 242h727l-51 -242h-727zM457 424q0 -137 174 -137q69 0 130.5 32.5t100.5 90.5l35 161 q-14 57 -61.5 90t-116.5 33q-96 0 -165 -54t-89 -151q-8 -45 -8 -65z" />
<glyph unicode="&#x102;" horiz-adv-x="1634" d="M-61 0l876 1432h408l268 -1432h-414l-49 272h-469l-166 -272h-454zM666 1796q0 45 12 100h293q-6 -25 -6 -47q0 -76 73 -75q92 0 117 122h315q-37 -176 -161.5 -276t-315.5 -100q-159 0 -243 72.5t-84 203.5zM723 594h274l-51 401z" />
<glyph unicode="&#x103;" horiz-adv-x="1370" d="M27 365q0 49 14 124q51 240 219 382.5t416 142.5q94 0 171 -28t122 -75l16 72h410l-209 -983h-395l18 90q-74 -57 -166 -89t-190 -32q-193 0 -309.5 106.5t-116.5 289.5zM457 424q0 -137 174 -137q69 0 130.5 32.5t100.5 90.5l35 161q-14 57 -61.5 90t-116.5 33 q-96 0 -165 -54t-89 -151q-8 -45 -8 -65zM483 1343q0 45 13 101h292q-6 -25 -6 -47q0 -76 74 -76q92 0 117 123h315q-37 -176 -162 -276.5t-315 -100.5q-160 0 -244 72.5t-84 203.5z" />
<glyph unicode="&#x104;" horiz-adv-x="1634" d="M-61 0l876 1432h408l268 -1432h-61q-99 -45 -148 -82t-57 -78q-6 -25 10 -41t47 -16q51 0 107 24l-48 -221q-113 -33 -243 -32q-111 0 -175.5 39.5t-64.5 119.5q0 29 4 45q18 80 68.5 141.5t126.5 100.5h20l-49 272h-469l-166 -272h-454zM723 594h274l-51 401z" />
<glyph unicode="&#x105;" horiz-adv-x="1370" d="M27 365q0 49 14 124q51 240 219 382.5t416 142.5q94 0 171 -28t122 -75l16 72h410l-209 -983h-4q-98 -45 -147.5 -82t-57.5 -78q-6 -25 10.5 -41t46.5 -16q51 0 107 24l-47 -221q-113 -33 -244 -32q-111 0 -175.5 39.5t-64.5 119.5q0 29 4 45q18 80 68.5 141.5 t126.5 100.5h-18l18 90q-74 -57 -166 -89t-190 -32q-193 0 -309.5 106.5t-116.5 289.5zM457 424q0 -137 174 -137q69 0 130.5 32.5t100.5 90.5l35 161q-14 57 -61.5 90t-116.5 33q-96 0 -165 -54t-89 -151q-8 -45 -8 -65z" />
<glyph unicode="&#x106;" horiz-adv-x="1384" d="M70 530q0 90 20 185q76 352 317.5 549.5t626.5 197.5q154 0 268.5 -28.5t206.5 -92.5l-84 -391q-76 70 -181 100.5t-253 30.5q-193 0 -311.5 -92t-157.5 -274q-16 -82 -16 -137q0 -119 75.5 -175.5t252.5 -56.5q145 0 269 33t240 104l-83 -389q-225 -125 -543 -125 q-199 0 -344.5 66.5t-224 193.5t-78.5 301zM827 1509l220 369h411l-268 -369h-363z" />
<glyph unicode="&#x107;" horiz-adv-x="1105" d="M29 375q0 53 12 114q55 256 237.5 390.5t466.5 134.5q123 0 229.5 -23.5t168.5 -66.5l-68 -318q-51 45 -131 68.5t-172 23.5q-119 0 -202 -52t-105 -157q-6 -33 -6 -61q0 -76 54 -110.5t169 -34.5q92 0 184 24.5t174 71.5l-67 -316q-84 -45 -201 -69.5t-252 -24.5 q-137 0 -248.5 46t-177 138.5t-65.5 221.5zM528 1059l220 368h411l-268 -368h-363z" />
<glyph unicode="&#x108;" horiz-adv-x="1384" d="M70 530q0 90 20 185q76 352 317.5 549.5t626.5 197.5q154 0 268.5 -28.5t206.5 -92.5l-84 -391q-76 70 -181 100.5t-253 30.5q-193 0 -311.5 -92t-157.5 -274q-16 -82 -16 -137q0 -119 75.5 -175.5t252.5 -56.5q145 0 269 33t240 104l-83 -389q-225 -125 -543 -125 q-199 0 -344.5 66.5t-224 193.5t-78.5 301zM508 1532l377 352h338l227 -352h-342l-88 145l-150 -145h-362z" />
<glyph unicode="&#x109;" horiz-adv-x="1105" d="M29 375q0 53 12 114q55 256 237.5 390.5t466.5 134.5q123 0 229.5 -23.5t168.5 -66.5l-68 -318q-51 45 -131 68.5t-172 23.5q-119 0 -202 -52t-105 -157q-6 -33 -6 -61q0 -76 54 -110.5t169 -34.5q92 0 184 24.5t174 71.5l-67 -316q-84 -45 -201 -69.5t-252 -24.5 q-137 0 -248.5 46t-177 138.5t-65.5 221.5zM242 1081l376 353h338l228 -353h-342l-88 146l-150 -146h-362z" />
<glyph unicode="&#x10a;" horiz-adv-x="1384" d="M70 530q0 90 20 185q76 352 317.5 549.5t626.5 197.5q154 0 268.5 -28.5t206.5 -92.5l-84 -391q-76 70 -181 100.5t-253 30.5q-193 0 -311.5 -92t-157.5 -274q-16 -82 -16 -137q0 -119 75.5 -175.5t252.5 -56.5q145 0 269 33t240 104l-83 -389q-225 -125 -543 -125 q-199 0 -344.5 66.5t-224 193.5t-78.5 301zM899 1651q0 53 31 100t80 75.5t100 28.5q59 0 96 -37.5t37 -95.5q0 -82 -62.5 -142t-142.5 -60q-59 0 -99 36.5t-40 94.5z" />
<glyph unicode="&#x10b;" horiz-adv-x="1105" d="M29 375q0 53 12 114q55 256 237.5 390.5t466.5 134.5q123 0 229.5 -23.5t168.5 -66.5l-68 -318q-51 45 -131 68.5t-172 23.5q-119 0 -202 -52t-105 -157q-6 -33 -6 -61q0 -76 54 -110.5t169 -34.5q92 0 184 24.5t174 71.5l-67 -316q-84 -45 -201 -69.5t-252 -24.5 q-137 0 -248.5 46t-177 138.5t-65.5 221.5zM582 1198q0 53 30.5 100.5t79.5 76t101 28.5q59 0 96 -38t37 -95q0 -82 -62.5 -142.5t-142.5 -60.5q-59 0 -99 37t-40 94z" />
<glyph unicode="&#x10c;" horiz-adv-x="1384" d="M70 530q0 90 20 185q76 352 317.5 549.5t626.5 197.5q154 0 268.5 -28.5t206.5 -92.5l-84 -391q-76 70 -181 100.5t-253 30.5q-193 0 -311.5 -92t-157.5 -274q-16 -82 -16 -137q0 -119 75.5 -175.5t252.5 -56.5q145 0 269 33t240 104l-83 -389q-225 -125 -543 -125 q-199 0 -344.5 66.5t-224 193.5t-78.5 301zM621 1884h342l88 -145l149 145h363l-379 -352h-338z" />
<glyph unicode="&#x10d;" horiz-adv-x="1105" d="M29 375q0 53 12 114q55 256 237.5 390.5t466.5 134.5q123 0 229.5 -23.5t168.5 -66.5l-68 -318q-51 45 -131 68.5t-172 23.5q-119 0 -202 -52t-105 -157q-6 -33 -6 -61q0 -76 54 -110.5t169 -34.5q92 0 184 24.5t174 71.5l-67 -316q-84 -45 -201 -69.5t-252 -24.5 q-137 0 -248.5 46t-177 138.5t-65.5 221.5zM297 1434h342l88 -146l150 146h362l-379 -353h-338z" />
<glyph unicode="&#x10e;" horiz-adv-x="1439" d="M-20 0l303 1432h530q197 0 345.5 -72t228 -199t79.5 -289q0 -68 -16 -149q-78 -360 -310.5 -541.5t-607.5 -181.5h-552zM455 1884h342l88 -145l149 145h363l-379 -352h-338zM477 356h133q158 0 264.5 99.5t143.5 267.5q16 78 16 137q0 104 -61.5 159.5t-202.5 55.5h-139z " />
<glyph unicode="&#x10f;" horiz-adv-x="1521" d="M27 350q0 70 14 135q33 154 122 273t221 184.5t290 65.5q94 0 173 -31t118 -82l131 612h409l-321 -1513h-396l21 100q-68 -59 -163 -95t-193 -36q-201 0 -313.5 103.5t-112.5 283.5zM459 428q0 -72 46 -109.5t126 -37.5q69 0 129.5 32.5t99.5 89.5l35 164 q-14 57 -61.5 90t-116.5 33q-94 0 -163 -54t-89 -153q-6 -31 -6 -55zM1464 1165l260 410h336l-295 -410h-301z" />
<glyph unicode="&#x110;" horiz-adv-x="1513" d="M53 0l119 561h-94l65 307h95l118 564h531q197 0 345 -72t228 -199t80 -289q0 -68 -16 -149q-78 -360 -310.5 -541.5t-607.5 -181.5h-553zM551 356h133q158 0 264.5 99.5t143.5 267.5q16 78 16 137q0 104 -61.5 159.5t-202.5 55.5h-139l-46 -207h256l-65 -307h-256z" />
<glyph unicode="&#x111;" horiz-adv-x="1392" d="M29 369q0 57 12 120q51 238 219 381.5t416 143.5q94 0 171 -28t122 -75l35 162h-279l66 305h278l29 135h409l-28 -135h84l-66 -305h-84l-227 -1073h-395l18 90q-74 -57 -166 -89t-190 -32q-189 0 -306.5 108.5t-117.5 291.5zM457 420q0 -66 41 -99.5t133 -33.5 q69 0 130.5 32.5t100.5 90.5l35 161q-14 57 -61.5 90t-116.5 33q-102 0 -167 -53t-87 -152q-8 -33 -8 -69z" />
<glyph unicode="&#x112;" horiz-adv-x="1140" d="M-20 0l303 1432h1038l-76 -357h-614l-41 -196h442l-69 -326h-443l-43 -197h615l-74 -356h-1038zM444 1550l52 242h727l-52 -242h-727z" />
<glyph unicode="&#x113;" horiz-adv-x="1228" d="M29 375q0 51 12 112q53 250 222 388.5t470 138.5q145 0 252 -52.5t163 -144.5t56 -209q0 -51 -12 -106l-29 -133h-757q4 -68 62 -99.5t206 -31.5q98 0 204.5 15t184.5 44l-53 -256q-86 -33 -207 -52.5t-244 -19.5q-242 0 -386 106.5t-144 299.5zM358 1087l52 242h727 l-52 -242h-727zM455 606h370q4 68 -29.5 102.5t-125.5 34.5q-82 0 -136.5 -36.5t-78.5 -100.5z" />
<glyph unicode="&#x114;" horiz-adv-x="1140" d="M-20 0l303 1432h1038l-76 -357h-614l-41 -196h442l-69 -326h-443l-43 -197h615l-74 -356h-1038zM457 1794q0 45 12 100h293q-6 -25 -6 -47q0 -76 73 -75q92 0 117 122h316q-37 -176 -162 -276t-316 -100q-159 0 -243 72.5t-84 203.5z" />
<glyph unicode="&#x115;" horiz-adv-x="1228" d="M29 375q0 51 12 112q53 250 222 388.5t470 138.5q145 0 252 -52.5t163 -144.5t56 -209q0 -51 -12 -106l-29 -133h-757q4 -68 62 -99.5t206 -31.5q98 0 204.5 15t184.5 44l-53 -256q-86 -33 -207 -52.5t-244 -19.5q-242 0 -386 106.5t-144 299.5zM397 1343q0 45 13 101 h292q-6 -25 -6 -47q0 -76 74 -76q92 0 117 123h315q-37 -176 -162 -276.5t-315 -100.5q-160 0 -244 72.5t-84 203.5zM455 606h370q4 68 -29.5 102.5t-125.5 34.5q-82 0 -136.5 -36.5t-78.5 -100.5z" />
<glyph unicode="&#x116;" horiz-adv-x="1140" d="M-20 0l303 1432h1038l-76 -357h-614l-41 -196h442l-69 -326h-443l-43 -197h615l-74 -356h-1038zM647 1651q0 53 31 100t80 75.5t100 28.5q59 0 96 -37.5t37 -95.5q0 -82 -62.5 -142t-142.5 -60q-59 0 -99 36.5t-40 94.5z" />
<glyph unicode="&#x117;" horiz-adv-x="1228" d="M29 375q0 51 12 112q53 250 222 388.5t470 138.5q145 0 252 -52.5t163 -144.5t56 -209q0 -51 -12 -106l-29 -133h-757q4 -68 62 -99.5t206 -31.5q98 0 204.5 15t184.5 44l-53 -256q-86 -33 -207 -52.5t-244 -19.5q-242 0 -386 106.5t-144 299.5zM455 606h370 q4 68 -29.5 102.5t-125.5 34.5q-82 0 -136.5 -36.5t-78.5 -100.5zM565 1198q0 53 31 100.5t80 76t100 28.5q59 0 96 -38t37 -95q0 -82 -62.5 -142.5t-141.5 -60.5q-60 0 -100 37t-40 94z" />
<glyph unicode="&#x118;" horiz-adv-x="1140" d="M-20 0l303 1432h1038l-76 -357h-614l-41 -196h442l-69 -326h-443l-43 -197h615l-74 -356h4q-98 -45 -147.5 -82t-57.5 -78q-6 -25 10.5 -41t46.5 -16q51 0 107 24l-47 -221q-113 -33 -244 -32q-111 0 -175 39.5t-64 119.5q0 29 4 45q18 80 68 141.5t126 100.5h-669z" />
<glyph unicode="&#x119;" horiz-adv-x="1228" d="M29 375q0 55 12 112q53 250 222 388.5t470 138.5q146 0 252.5 -52.5t162.5 -144.5t56 -209q0 -51 -12 -106l-29 -133h-757q4 -68 62 -99.5t206 -31.5q98 0 204.5 15t184.5 44l-53 -256q-61 -23 -154 -43q-96 -43 -144 -80t-57 -78q-6 -25 10.5 -41t47.5 -16q51 0 106 24 l-47 -221q-113 -33 -244 -32q-111 0 -175 39.5t-64 119.5q0 29 4 45q29 133 153 217q-195 25 -306 128.5t-111 271.5zM455 606h370q4 68 -29.5 102.5t-125.5 34.5q-82 0 -136.5 -36.5t-78.5 -100.5z" />
<glyph unicode="&#x11a;" horiz-adv-x="1140" d="M-20 0l303 1432h1038l-76 -357h-614l-41 -196h442l-69 -326h-443l-43 -197h615l-74 -356h-1038zM412 1884h342l88 -145l149 145h363l-379 -352h-338z" />
<glyph unicode="&#x11b;" horiz-adv-x="1228" d="M29 375q0 51 12 112q53 250 222 388.5t470 138.5q145 0 252 -52.5t163 -144.5t56 -209q0 -51 -12 -106l-29 -133h-757q4 -68 62 -99.5t206 -31.5q98 0 204.5 15t184.5 44l-53 -256q-86 -33 -207 -52.5t-244 -19.5q-242 0 -386 106.5t-144 299.5zM319 1434h343l88 -146 l149 146h363l-379 -353h-338zM455 606h370q4 68 -29.5 102.5t-125.5 34.5q-82 0 -136.5 -36.5t-78.5 -100.5z" />
<glyph unicode="&#x11c;" horiz-adv-x="1415" d="M70 537q0 88 20 178q74 352 319.5 549.5t624.5 197.5q156 0 279 -30.5t196 -88.5l-84 -391q-76 68 -181 98.5t-253 30.5q-207 0 -319.5 -94t-149.5 -272q-18 -82 -18 -148q0 -119 71.5 -170t237.5 -51q88 0 150 25l38 182h-196l57 268h584l-154 -717q-244 -135 -575 -135 q-193 0 -339.5 67.5t-227 195.5t-80.5 305zM518 1532l377 352h338l227 -352h-342l-88 145l-149 -145h-363z" />
<glyph unicode="&#x11d;" horiz-adv-x="1370" d="M29 373q0 47 14 119q49 240 217 381t416 141q96 0 175 -32t128 -89l20 90h396l-195 -911q-59 -276 -241.5 -409.5t-538.5 -133.5q-96 0 -194.5 18.5t-164.5 49.5l58 272q147 -70 358 -70q133 0 206 54.5t95 158.5l13 58q-63 -45 -153.5 -73t-182.5 -28 q-123 0 -219.5 50.5t-151.5 142.5t-55 211zM348 1081l377 353h338l227 -353h-342l-88 146l-149 -146h-363zM459 420q0 -68 40 -100.5t132 -32.5q149 0 231 125l35 159q-14 57 -61.5 90t-116.5 33q-96 0 -164 -53t-88 -147q-8 -35 -8 -74z" />
<glyph unicode="&#x11e;" horiz-adv-x="1415" d="M70 537q0 88 20 178q74 352 319.5 549.5t624.5 197.5q156 0 279 -30.5t196 -88.5l-84 -391q-76 68 -181 98.5t-253 30.5q-207 0 -319.5 -94t-149.5 -272q-18 -82 -18 -148q0 -119 71.5 -170t237.5 -51q88 0 150 25l38 182h-196l57 268h584l-154 -717q-244 -135 -575 -135 q-193 0 -339.5 67.5t-227 195.5t-80.5 305zM702 1794q0 45 13 100h293q-6 -25 -7 -47q0 -76 74 -75q92 0 117 122h315q-37 -176 -161.5 -276t-315.5 -100q-160 0 -244 72.5t-84 203.5z" />
<glyph unicode="&#x11f;" horiz-adv-x="1370" d="M29 373q0 47 14 119q49 240 217 381t416 141q96 0 175 -32t128 -89l20 90h396l-195 -911q-59 -276 -241.5 -409.5t-538.5 -133.5q-96 0 -194.5 18.5t-164.5 49.5l58 272q147 -70 358 -70q133 0 206 54.5t95 158.5l13 58q-63 -45 -153.5 -73t-182.5 -28 q-123 0 -219.5 50.5t-151.5 142.5t-55 211zM459 420q0 -68 40 -100.5t132 -32.5q149 0 231 125l35 159q-14 57 -61.5 90t-116.5 33q-96 0 -164 -53t-88 -147q-8 -35 -8 -74zM469 1343q0 45 12 101h293q-6 -25 -6 -47q0 -76 74 -76q92 0 116 123h316q-37 -176 -162 -276.5 t-315 -100.5q-160 0 -244 72.5t-84 203.5z" />
<glyph unicode="&#x120;" horiz-adv-x="1415" d="M70 537q0 88 20 178q74 352 319.5 549.5t624.5 197.5q156 0 279 -30.5t196 -88.5l-84 -391q-76 68 -181 98.5t-253 30.5q-207 0 -319.5 -94t-149.5 -272q-18 -82 -18 -148q0 -119 71.5 -170t237.5 -51q88 0 150 25l38 182h-196l57 268h584l-154 -717q-244 -135 -575 -135 q-193 0 -339.5 67.5t-227 195.5t-80.5 305zM893 1651q0 53 30.5 100t80 75.5t100.5 28.5q59 0 96 -37.5t37 -95.5q0 -82 -62.5 -142t-142.5 -60q-59 0 -99 36.5t-40 94.5z" />
<glyph unicode="&#x121;" horiz-adv-x="1370" d="M29 373q0 47 14 119q49 240 217 381t416 141q96 0 175 -32t128 -89l20 90h396l-195 -911q-59 -276 -241.5 -409.5t-538.5 -133.5q-96 0 -194.5 18.5t-164.5 49.5l58 272q147 -70 358 -70q133 0 206 54.5t95 158.5l13 58q-63 -45 -153.5 -73t-182.5 -28 q-123 0 -219.5 50.5t-151.5 142.5t-55 211zM459 420q0 -68 40 -100.5t132 -32.5q149 0 231 125l35 159q-14 57 -61.5 90t-116.5 33q-96 0 -164 -53t-88 -147q-8 -35 -8 -74zM717 1198q0 53 30.5 100.5t80 76t100.5 28.5q59 0 96 -38t37 -95q0 -82 -62.5 -142.5t-142.5 -60.5 q-59 0 -99 37t-40 94z" />
<glyph unicode="&#x122;" horiz-adv-x="1415" d="M70 537q0 88 20 178q74 352 319.5 549.5t624.5 197.5q156 0 279 -30.5t196 -88.5l-84 -391q-76 68 -181 98.5t-253 30.5q-207 0 -319.5 -94t-149.5 -272q-18 -82 -18 -148q0 -119 71.5 -170t237.5 -51q88 0 150 25l38 182h-196l57 268h584l-154 -717q-244 -135 -575 -135 q-193 0 -339.5 67.5t-227 195.5t-80.5 305zM268 -532l262 440h404l-316 -440h-350z" />
<glyph unicode="&#x123;" horiz-adv-x="1370" d="M29 373q0 47 14 119q49 240 217 381t416 141q96 0 175 -32t128 -89l20 90h396l-195 -911q-59 -276 -241.5 -409.5t-538.5 -133.5q-96 0 -194.5 18.5t-164.5 49.5l58 272q147 -70 358 -70q133 0 206 54.5t95 158.5l13 58q-63 -45 -153.5 -73t-182.5 -28 q-123 0 -219.5 50.5t-151.5 142.5t-55 211zM459 420q0 -68 40 -100.5t132 -32.5q149 0 231 125l35 159q-14 57 -61.5 90t-116.5 33q-96 0 -164 -53t-88 -147q-8 -35 -8 -74zM678 1067l315 440h350l-262 -440h-403z" />
<glyph unicode="&#x124;" horiz-adv-x="1488" d="M-20 0l303 1432h424l-113 -527h477l113 527h424l-303 -1432h-424l114 549h-477l-115 -549h-423zM455 1532l376 352h338l228 -352h-342l-88 145l-150 -145h-362z" />
<glyph unicode="&#x125;" horiz-adv-x="1288" d="M-20 0l321 1513h410l-133 -618q160 119 342 119q166 0 250.5 -79t84.5 -218q0 -51 -12 -107l-129 -610h-412l117 553q6 31 6 55q0 86 -100 86q-123 0 -213 -110l-123 -584h-409zM283 1567l376 352h338l228 -352h-342l-88 145l-150 -145h-362z" />
<glyph unicode="&#x126;" horiz-adv-x="1622" d="M45 0l223 1059h-86l58 270h86l22 103h432l-22 -103h461l22 103h432l-22 -103h88l-58 -270h-88l-223 -1059h-432l111 526h-461l-111 -526h-432zM674 928h461l26 131h-461z" />
<glyph unicode="&#x127;" horiz-adv-x="1290" d="M-18 0l231 1094h-84l57 268h84l33 151h410l-33 -151h229l-57 -268h-229l-43 -199q160 119 342 119q166 0 250.5 -79t84.5 -218q0 -51 -12 -107l-129 -610h-411l116 553q6 31 6 55q0 86 -100 86q-123 0 -213 -110l-123 -584h-409z" />
<glyph unicode="&#x128;" horiz-adv-x="587" d="M-20 0l303 1432h424l-304 -1432h-423zM49 1520l62 288q90 84 237 84q45 0 88 -12t111 -39q61 -25 103 -38t87 -13q131 0 238 100l-60 -286q-86 -84 -235 -84q-51 0 -97 13t-112 40q-59 25 -99 37t-83 12q-129 0 -240 -102z" />
<glyph unicode="&#x129;" horiz-adv-x="573" d="M-53 1067l61 289q90 84 238 84q45 0 88 -12.5t110 -38.5q61 -25 103.5 -38.5t87.5 -13.5q131 0 237 101l-59 -287q-86 -84 -235 -84q-51 0 -97.5 13.5t-111.5 39.5q-59 25 -99.5 37t-83.5 12q-129 0 -239 -102zM-20 0l208 983h410l-209 -983h-409z" />
<glyph unicode="&#x12a;" horiz-adv-x="587" d="M-20 0l303 1432h424l-304 -1432h-423zM133 1530l57 262h764l-57 -262h-764z" />
<glyph unicode="&#x12b;" horiz-adv-x="573" d="M-20 0l208 983h410l-209 -983h-409zM31 1077l57 262h764l-57 -262h-764z" />
<glyph unicode="&#x12c;" horiz-adv-x="587" d="M-20 0l303 1432h424l-304 -1432h-423zM141 1794q0 45 13 100h292q-6 -25 -6 -47q0 -76 74 -75q92 0 117 122h315q-37 -176 -162 -276t-315 -100q-160 0 -244 72.5t-84 203.5z" />
<glyph unicode="&#x12d;" horiz-adv-x="573" d="M-20 0l208 983h410l-209 -983h-409zM39 1343q0 45 12 101h293q-6 -25 -6 -47q0 -76 74 -76q92 0 116 123h316q-37 -176 -162 -276.5t-315 -100.5q-160 0 -244 72.5t-84 203.5z" />
<glyph unicode="&#x12e;" horiz-adv-x="587" d="M-178 -287q0 29 4 45q18 80 68.5 141.5t125.5 100.5h-40l303 1432h424l-304 -1432h-10q-98 -45 -147 -82t-58 -78q-6 -25 10.5 -41t47.5 -16q51 0 106 24l-47 -221q-113 -33 -244 -32q-111 0 -175 39.5t-64 119.5z" />
<glyph unicode="&#x12f;" horiz-adv-x="593" d="M-182 -287q0 29 4 45q18 80 68.5 141.5t125.5 100.5h-26l209 983h409l-209 -983h-10q-98 -45 -147 -82t-58 -78q-6 -25 10.5 -41t47.5 -16q51 0 106 24l-47 -221q-113 -33 -244 -32q-111 0 -175 39.5t-64 119.5zM250 1255q0 70 37 129.5t98 95.5t131 36q78 0 126 -47.5 t48 -120.5q0 -29 -4 -43q-20 -90 -95 -150.5t-165 -60.5q-80 0 -128 45t-48 116z" />
<glyph unicode="&#x130;" horiz-adv-x="587" d="M-20 0l303 1432h424l-304 -1432h-423zM334 1651q0 53 30.5 100t80 75.5t100.5 28.5q59 0 96 -37.5t37 -95.5q0 -82 -62.5 -142t-142.5 -60q-59 0 -99 36.5t-40 94.5z" />
<glyph unicode="&#x131;" horiz-adv-x="573" d="M-20 0l208 983h410l-209 -983h-409z" />
<glyph unicode="&#x132;" horiz-adv-x="1392" d="M-20 0l303 1432h424l-304 -1432h-423zM479 20l76 365q61 -33 162 -33q86 0 127 35t57 117l197 928h424l-207 -977q-49 -236 -190.5 -361t-393.5 -125q-69 0 -145 15.5t-107 35.5z" />
<glyph unicode="&#x133;" horiz-adv-x="1140" d="M-10 0l209 983h409l-209 -983h-409zM162 -434l69 325q55 -31 140 -30q63 0 106 33.5t58 103.5l210 985h412l-221 -1036q-45 -211 -192.5 -315.5t-381.5 -104.5q-126 0 -200 39zM250 1255q0 70 37 129.5t98 95.5t131 36q78 0 126 -47.5t48 -120.5q0 -29 -4 -43 q-20 -90 -95 -150.5t-165 -60.5q-80 0 -128 45t-48 116zM797 1257q0 68 37.5 127.5t99 95.5t129.5 36q78 0 126 -47.5t48 -120.5q0 -29 -4 -43q-20 -90 -95 -150.5t-165 -60.5q-78 0 -127 45t-49 118z" />
<glyph unicode="&#x134;" horiz-adv-x="815" d="M-98 20l75 365q61 -33 162 -33q86 0 127 35t58 117l196 928h424l-207 -977q-49 -236 -190 -361t-393 -125q-70 0 -146 15.5t-106 35.5zM223 1518l377 352h338l227 -352h-342l-88 145l-149 -145h-363z" />
<glyph unicode="&#x135;" horiz-adv-x="589" d="M-389 -434l70 325q55 -31 139 -30q63 0 106 33.5t58 103.5l211 985h411l-221 -1036q-45 -207 -201.5 -313.5t-371.5 -106.5q-127 0 -201 39zM-94 1081l377 353h338l227 -353h-342l-88 146l-150 -146h-362z" />
<glyph unicode="&#x136;" horiz-adv-x="1525" d="M-20 0l303 1432h424l-119 -555l559 555h500l-699 -695l434 -737h-499l-353 598l-127 -598h-423zM154 -532l262 440h403l-315 -440h-350z" />
<glyph unicode="&#x137;" horiz-adv-x="1347" d="M-20 0l321 1513h410l-195 -907l373 377h469l-469 -473l315 -510h-469l-258 418l-88 -418h-409zM70 -532l262 440h403l-315 -440h-350z" />
<glyph unicode="&#x138;" horiz-adv-x="1347" d="M-20 0l208 983h410l-84 -391l375 391h469l-471 -491l317 -492h-469l-260 403l-86 -403h-409z" />
<glyph unicode="&#x139;" horiz-adv-x="1083" d="M-20 0l303 1432h424l-230 -1076h578l-74 -356h-1001zM297 1516l219 368h412l-269 -368h-362z" />
<glyph unicode="&#x13a;" horiz-adv-x="573" d="M-20 0l321 1513h410l-322 -1513h-409zM301 1577l219 369h412l-268 -369h-363z" />
<glyph unicode="&#x13b;" horiz-adv-x="1083" d="M-20 0l303 1432h424l-230 -1076h578l-74 -356h-1001zM53 -532l262 440h404l-316 -440h-350z" />
<glyph unicode="&#x13c;" horiz-adv-x="587" d="M-297 -532l262 440h404l-316 -440h-350zM-20 0l303 1432h424l-304 -1432h-423z" />
<glyph unicode="&#x13d;" horiz-adv-x="1124" d="M-20 0l303 1432h424l-230 -1076h578l-74 -356h-1001zM774 1030l262 440h404l-316 -440h-350z" />
<glyph unicode="&#x13e;" horiz-adv-x="1095" d="M-20 0l321 1513h410l-322 -1513h-409zM696 1124l262 441h404l-315 -441h-351z" />
<glyph unicode="&#x13f;" horiz-adv-x="1083" d="M-20 0l303 1432h424l-230 -1076h578l-74 -356h-1001zM727 780q0 53 30.5 100.5t80 76t100.5 28.5q59 0 96 -38t37 -95q0 -82 -62.5 -142.5t-142.5 -60.5q-59 0 -99 37t-40 94z" />
<glyph unicode="&#x140;" horiz-adv-x="876" d="M-20 0l321 1513h410l-322 -1513h-409zM621 756q0 53 30.5 100t79.5 76t100 29q59 0 96.5 -38t37.5 -96q0 -82 -62.5 -142t-142.5 -60q-60 0 -99.5 36.5t-39.5 94.5z" />
<glyph unicode="&#x141;" horiz-adv-x="1099" d="M-51 434l84 397l151 62l115 539h432l-74 -347l285 117l-84 -395l-285 -117l-69 -328h569l-76 -362h-1001l104 496z" />
<glyph unicode="&#x142;" horiz-adv-x="647" d="M-113 381l82 397l221 90l138 645h409l-98 -462l242 98l-84 -397l-244 -101l-137 -651h-410l100 469z" />
<glyph unicode="&#x143;" horiz-adv-x="1445" d="M-20 0l303 1432h411l287 -750l160 750h424l-303 -1432h-410l-291 750l-158 -750h-423zM715 1509l219 369h412l-269 -369h-362z" />
<glyph unicode="&#x144;" horiz-adv-x="1288" d="M-20 0l208 983h396l-21 -96q74 61 168 94t189 33q166 0 250.5 -79t84.5 -218q0 -51 -12 -107l-129 -610h-412l117 553q8 45 8 59q0 41 -23.5 61.5t-78.5 20.5q-123 0 -213 -110l-123 -584h-409zM504 1071l219 369h412l-269 -369h-362z" />
<glyph unicode="&#x145;" horiz-adv-x="1445" d="M-20 0l303 1432h411l287 -750l160 750h424l-303 -1432h-410l-291 750l-158 -750h-423zM166 -532l262 440h403l-315 -440h-350z" />
<glyph unicode="&#x146;" horiz-adv-x="1288" d="M-20 0l208 983h396l-21 -96q74 61 168 94t189 33q166 0 250.5 -79t84.5 -218q0 -51 -12 -107l-129 -610h-412l117 553q8 45 8 59q0 41 -23.5 61.5t-78.5 20.5q-123 0 -213 -110l-123 -584h-409zM90 -532l262 440h404l-316 -440h-350z" />
<glyph unicode="&#x147;" horiz-adv-x="1445" d="M-20 0l303 1432h411l287 -750l160 750h424l-303 -1432h-410l-291 750l-158 -750h-423zM524 1884h342l88 -145l150 145h362l-379 -352h-337z" />
<glyph unicode="&#x148;" horiz-adv-x="1288" d="M-20 0l208 983h396l-21 -96q74 61 168 94t189 33q166 0 250.5 -79t84.5 -218q0 -51 -12 -107l-129 -610h-412l117 553q8 45 8 59q0 41 -23.5 61.5t-78.5 20.5q-123 0 -213 -110l-123 -584h-409zM305 1448h342l88 -145l150 145h362l-379 -352h-338z" />
<glyph unicode="&#x149;" horiz-adv-x="1538" d="M35 1030l262 440h403l-315 -440h-350zM229 0l209 983h396l-21 -96q74 61 168 94t188 33q166 0 251 -79t85 -218q0 -51 -12 -107l-129 -610h-412l117 553q8 45 8 59q0 41 -23.5 61.5t-78.5 20.5q-125 0 -213 -110l-123 -584h-410z" />
<glyph unicode="&#x14a;" horiz-adv-x="1445" d="M-20 0l303 1432h411l287 -750l160 750h424l-314 -1473q-45 -215 -192.5 -323.5t-384.5 -108.5q-127 0 -201 39l70 325q55 -31 139 -30q63 0 107.5 33.5t58.5 103.5l4 14l-291 738l-158 -750h-423z" />
<glyph unicode="&#x14b;" horiz-adv-x="1286" d="M-20 0l208 983h396l-21 -96q74 61 168 94t189 33q166 0 249.5 -81t83.5 -216q0 -51 -12 -107l-141 -661q-45 -213 -193.5 -317.5t-380.5 -104.5q-126 0 -200 39l69 328q53 -33 140 -33q63 0 107 33.5t58 103.5l119 555q6 31 6 55q0 86 -100 86q-123 0 -213 -110 l-123 -584h-409z" />
<glyph unicode="&#x14c;" horiz-adv-x="1626" d="M72 543q0 84 18 172q47 221 180 391t329 263t423 93q186 0 329.5 -70.5t222.5 -201.5t79 -303q0 -82 -19 -172q-47 -221 -180 -390t-328.5 -262.5t-420.5 -93.5q-187 0 -331.5 71t-223 201t-78.5 302zM510 612q0 -119 71.5 -182t209.5 -63q145 0 260.5 94t150.5 254 q12 55 12 100q0 119 -70.5 182.5t-205.5 63.5q-147 0 -265 -94.5t-151 -251.5q-12 -55 -12 -103zM637 1550l51 242h727l-51 -242h-727z" />
<glyph unicode="&#x14d;" horiz-adv-x="1325" d="M31 385q0 51 12 107q33 154 128 271.5t248.5 184t354.5 66.5q160 0 278.5 -53.5t182 -147.5t63.5 -217q0 -49 -12 -104q-33 -154 -130 -272t-251.5 -184.5t-353.5 -66.5q-156 0 -273.5 52.5t-182 146.5t-64.5 217zM387 1098l51 241h727l-51 -241h-727zM455 426 q0 -139 163 -139q93 0 160.5 55t87.5 150q6 35 6 65q0 68 -38.5 102.5t-126.5 34.5q-92 0 -159 -54t-85 -148q-8 -45 -8 -66z" />
<glyph unicode="&#x14e;" horiz-adv-x="1626" d="M72 543q0 84 18 172q47 221 180 391t329 263t423 93q186 0 329.5 -70.5t222.5 -201.5t79 -303q0 -82 -19 -172q-47 -221 -180 -390t-328.5 -262.5t-420.5 -93.5q-187 0 -331.5 71t-223 201t-78.5 302zM510 612q0 -119 71.5 -182t209.5 -63q145 0 260.5 94t150.5 254 q12 55 12 100q0 119 -70.5 182.5t-205.5 63.5q-147 0 -265 -94.5t-151 -251.5q-12 -55 -12 -103zM662 1794q0 45 12 100h293q-6 -25 -6 -47q0 -76 73 -75q92 0 117 122h315q-37 -176 -161.5 -276t-315.5 -100q-160 0 -243.5 72.5t-83.5 203.5z" />
<glyph unicode="&#x14f;" horiz-adv-x="1325" d="M31 385q0 51 12 107q33 154 128 271.5t248.5 184t354.5 66.5q160 0 278.5 -53.5t182 -147.5t63.5 -217q0 -49 -12 -104q-33 -154 -130 -272t-251.5 -184.5t-353.5 -66.5q-156 0 -273.5 52.5t-182 146.5t-64.5 217zM412 1333q0 45 12 101h293q-6 -25 -6 -48q0 -76 73 -75 q92 0 117 123h316q-37 -176 -162 -276.5t-316 -100.5q-159 0 -243 72.5t-84 203.5zM455 426q0 -139 163 -139q93 0 160.5 55t87.5 150q6 35 6 65q0 68 -38.5 102.5t-126.5 34.5q-92 0 -159 -54t-85 -148q-8 -45 -8 -66z" />
<glyph unicode="&#x150;" horiz-adv-x="1626" d="M72 543q0 84 18 172q47 221 180 391t329 263t423 93q186 0 329.5 -70.5t222.5 -201.5t79 -303q0 -82 -19 -172q-47 -221 -180 -390t-328.5 -262.5t-420.5 -93.5q-187 0 -331.5 71t-223 201t-78.5 302zM510 612q0 -119 71.5 -182t209.5 -63q145 0 260.5 94t150.5 254 q12 55 12 100q0 119 -70.5 182.5t-205.5 63.5q-147 0 -265 -94.5t-151 -251.5q-12 -55 -12 -103zM535 1518l217 366h395l-268 -366h-344zM1077 1518l217 366h396l-267 -366h-346z" />
<glyph unicode="&#x151;" horiz-adv-x="1325" d="M31 385q0 51 12 107q33 154 128 271.5t248.5 184t354.5 66.5q160 0 278.5 -53.5t182 -147.5t63.5 -217q0 -49 -12 -104q-33 -154 -130 -272t-251.5 -184.5t-353.5 -66.5q-156 0 -273.5 52.5t-182 146.5t-64.5 217zM270 1067l217 367h396l-269 -367h-344zM455 426 q0 -139 163 -139q93 0 160.5 55t87.5 150q6 35 6 65q0 68 -38.5 102.5t-126.5 34.5q-92 0 -159 -54t-85 -148q-8 -45 -8 -66zM813 1067l217 367h395l-266 -367h-346z" />
<glyph unicode="&#x152;" horiz-adv-x="1824" d="M74 563q0 80 16 152q47 223 179 384t338 247t468 86h910l-76 -357h-545l-41 -196h373l-70 -326h-373l-43 -197h545l-74 -356h-909q-201 0 -358.5 67.5t-248.5 195.5t-91 300zM508 596q0 -109 67.5 -162t217.5 -53l141 668q-166 0 -272.5 -86t-139.5 -248 q-14 -63 -14 -119z" />
<glyph unicode="&#x153;" horiz-adv-x="2203" d="M31 385q0 51 12 107q33 154 128 271.5t248.5 184t354.5 66.5q143 0 254 -43t178 -123q178 166 502 166q145 0 251.5 -52.5t163 -144.5t56.5 -209q0 -51 -12 -106l-29 -133h-758q4 -68 62.5 -99.5t206.5 -31.5q98 0 204.5 15t184.5 44l-53 -256q-86 -33 -207 -52.5 t-244 -19.5q-156 0 -272.5 44t-182.5 130q-98 -84 -232 -129t-296 -45q-156 0 -273.5 52.5t-182 146.5t-64.5 217zM455 426q0 -139 163 -139q92 0 160 55t88 150q6 34 6 65q0 68 -38.5 102.5t-126.5 34.5q-92 0 -159 -54t-85 -148q-8 -45 -8 -66zM1430 606h370 q4 68 -29.5 102.5t-125.5 34.5q-82 0 -136.5 -36.5t-78.5 -100.5z" />
<glyph unicode="&#x154;" horiz-adv-x="1345" d="M-20 0l303 1432h665q211 0 337 -102.5t126 -285.5q0 -53 -12 -118q-35 -160 -125 -272.5t-225 -172.5l137 -481h-434l-119 420h-141l-89 -420h-423zM561 1509l219 369h412l-268 -369h-363zM563 756h158q109 0 166 36.5t78 133.5q8 45 8 61q0 61 -42 85t-138 24h-158z" />
<glyph unicode="&#x155;" horiz-adv-x="858" d="M-20 0l208 983h396l-25 -106q72 59 180.5 94t229.5 35l-68 -318q-129 0 -237.5 -35t-157.5 -102l-117 -551h-409zM195 1059l219 368h411l-268 -368h-362z" />
<glyph unicode="&#x156;" horiz-adv-x="1345" d="M-20 0l303 1432h665q211 0 337 -102.5t126 -285.5q0 -53 -12 -118q-35 -160 -125 -272.5t-225 -172.5l137 -481h-434l-119 420h-141l-89 -420h-423zM88 -532l262 440h404l-316 -440h-350zM563 756h158q109 0 166 36.5t78 133.5q8 45 8 61q0 61 -42 85t-138 24h-158z" />
<glyph unicode="&#x157;" horiz-adv-x="858" d="M-311 -532l262 440h403l-315 -440h-350zM-20 0l208 983h396l-25 -106q72 59 180.5 94t229.5 35l-68 -318q-129 0 -237.5 -35t-157.5 -102l-117 -551h-409z" />
<glyph unicode="&#x158;" horiz-adv-x="1345" d="M-20 0l303 1432h665q211 0 337 -102.5t126 -285.5q0 -53 -12 -118q-35 -160 -125 -272.5t-225 -172.5l137 -481h-434l-119 420h-141l-89 -420h-423zM461 1884h342l88 -145l149 145h363l-379 -352h-338zM563 756h158q109 0 166 36.5t78 133.5q8 45 8 61q0 61 -42 85 t-138 24h-158z" />
<glyph unicode="&#x159;" horiz-adv-x="858" d="M-20 0l208 983h396l-25 -106q72 59 180.5 94t229.5 35l-68 -318q-129 0 -237.5 -35t-157.5 -102l-117 -551h-409zM12 1434h342l88 -146l150 146h362l-379 -353h-337z" />
<glyph unicode="&#x15a;" horiz-adv-x="1175" d="M-47 70l80 374q98 -61 216 -91.5t226 -30.5q178 0 178 102q0 41 -42 70.5t-167 89.5q-152 72 -222 154.5t-70 195.5q0 37 10 92q43 199 215 317.5t438 118.5q135 0 235.5 -21.5t188.5 -68.5l-78 -362q-158 98 -344 98q-88 0 -144.5 -27.5t-56.5 -81.5q0 -37 40 -63.5 t143 -71.5l39 -16q160 -72 226 -144.5t66 -181.5q0 -57 -14 -121q-43 -207 -207 -319.5t-477 -112.5q-139 0 -271 28t-208 73zM575 1509l220 369h411l-268 -369h-363z" />
<glyph unicode="&#x15b;" horiz-adv-x="1060" d="M-37 57l62 289q74 -49 188.5 -83t212.5 -34q63 0 92 8.5t29 34.5q0 16 -22.5 25.5t-86.5 28.5l-88 26q-147 47 -211.5 102.5t-64.5 147.5q0 33 10 84q70 328 559 328q109 0 229.5 -23.5t174.5 -62.5l-62 -285q-53 41 -153.5 70.5t-188.5 29.5q-121 0 -131 -41 q-4 -18 20.5 -29t90.5 -26q18 -6 41.5 -11t50.5 -13q147 -43 209.5 -100.5t62.5 -147.5q0 -33 -10 -88q-31 -147 -170 -232.5t-393 -85.5q-123 0 -252 22.5t-199 65.5zM383 1059l219 368h412l-269 -368h-362z" />
<glyph unicode="&#x15c;" horiz-adv-x="1175" d="M-47 70l80 374q98 -61 216 -91.5t226 -30.5q178 0 178 102q0 41 -42 70.5t-167 89.5q-152 72 -222 154.5t-70 195.5q0 37 10 92q43 199 215 317.5t438 118.5q135 0 235.5 -21.5t188.5 -68.5l-78 -362q-158 98 -344 98q-88 0 -144.5 -27.5t-56.5 -81.5q0 -37 40 -63.5 t143 -71.5l39 -16q160 -72 226 -144.5t66 -181.5q0 -57 -14 -121q-43 -207 -207 -319.5t-477 -112.5q-139 0 -271 28t-208 73zM299 1532l377 352h338l227 -352h-342l-88 145l-149 -145h-363z" />
<glyph unicode="&#x15d;" horiz-adv-x="1060" d="M-37 57l62 289q74 -49 188.5 -83t212.5 -34q63 0 92 8.5t29 34.5q0 16 -22.5 25.5t-86.5 28.5l-88 26q-147 47 -211.5 102.5t-64.5 147.5q0 33 10 84q70 328 559 328q109 0 229.5 -23.5t174.5 -62.5l-62 -285q-53 41 -153.5 70.5t-188.5 29.5q-121 0 -131 -41 q-4 -18 20.5 -29t90.5 -26q18 -6 41.5 -11t50.5 -13q147 -43 209.5 -100.5t62.5 -147.5q0 -33 -10 -88q-31 -147 -170 -232.5t-393 -85.5q-123 0 -252 22.5t-199 65.5zM164 1081l377 353h338l227 -353h-342l-88 146l-150 -146h-362z" />
<glyph unicode="&#x15e;" horiz-adv-x="1175" d="M-47 70l80 374q98 -61 216 -91.5t226 -30.5q178 0 178 102q0 41 -42 70.5t-167 89.5q-152 72 -222 154.5t-70 195.5q0 37 10 92q43 199 215 317.5t438 118.5q135 0 235.5 -21.5t188.5 -68.5l-78 -362q-158 98 -344 98q-88 0 -144.5 -27.5t-56.5 -81.5q0 -37 40 -63.5 t143 -71.5l39 -16q160 -72 226 -144.5t66 -181.5q0 -57 -14 -121q-39 -184 -170 -292.5t-375 -133.5l-43 -69q76 -10 115 -49t39 -101q0 -12 -4 -41q-23 -102 -118 -162.5t-251 -60.5q-145 0 -217 31l35 164q20 -14 57 -22.5t72 -8.5q66 0 101.5 16.5t45.5 59.5q2 6 3 18 q0 37 -45.5 54.5t-147.5 17.5l90 153q-109 10 -201 35t-149 60z" />
<glyph unicode="&#x15f;" horiz-adv-x="1060" d="M-37 57l62 289q74 -49 188.5 -83t212.5 -34q63 0 92 8.5t29 34.5q0 16 -22.5 25.5t-86.5 28.5l-88 26q-147 47 -211.5 102.5t-64.5 147.5q0 33 10 84q70 328 559 328q109 0 229.5 -23.5t174.5 -62.5l-62 -285q-53 41 -153.5 70.5t-188.5 29.5q-121 0 -131 -41 q-4 -18 20.5 -29t90.5 -26q18 -6 41.5 -11t50.5 -13q147 -43 209.5 -100.5t62.5 -147.5q0 -33 -10 -88q-27 -129 -135.5 -211t-304.5 -101l-43 -69q76 -10 114.5 -49t38.5 -101q0 -12 -4 -41q-23 -102 -118 -162.5t-251 -60.5q-145 0 -217 31l35 164q20 -14 57 -22.5 t72 -8.5q66 0 101.5 16.5t46.5 59.5q2 6 2 18q0 37 -45 54.5t-148 17.5l90 155q-92 8 -174 29t-131 51z" />
<glyph unicode="&#x160;" horiz-adv-x="1175" d="M-47 70l80 374q98 -61 216 -91.5t226 -30.5q178 0 178 102q0 41 -42 70.5t-167 89.5q-152 72 -222 154.5t-70 195.5q0 37 10 92q43 199 215 317.5t438 118.5q135 0 235.5 -21.5t188.5 -68.5l-78 -362q-158 98 -344 98q-88 0 -144.5 -27.5t-56.5 -81.5q0 -37 40 -63.5 t143 -71.5l39 -16q160 -72 226 -144.5t66 -181.5q0 -57 -14 -121q-43 -207 -207 -319.5t-477 -112.5q-139 0 -271 28t-208 73zM373 1884h342l88 -145l149 145h363l-379 -352h-338z" />
<glyph unicode="&#x161;" horiz-adv-x="1060" d="M-37 57l62 289q74 -49 188.5 -83t212.5 -34q63 0 92 8.5t29 34.5q0 16 -22.5 25.5t-86.5 28.5l-88 26q-147 47 -211.5 102.5t-64.5 147.5q0 33 10 84q70 328 559 328q109 0 229.5 -23.5t174.5 -62.5l-62 -285q-53 41 -153.5 70.5t-188.5 29.5q-121 0 -131 -41 q-4 -18 20.5 -29t90.5 -26q18 -6 41.5 -11t50.5 -13q147 -43 209.5 -100.5t62.5 -147.5q0 -33 -10 -88q-31 -147 -170 -232.5t-393 -85.5q-123 0 -252 22.5t-199 65.5zM244 1434h342l88 -146l149 146h363l-379 -353h-338z" />
<glyph unicode="&#x162;" horiz-adv-x="1214" d="M135 1075l76 357h1194l-76 -357h-385l-227 -1075h-76l-57 -94q76 -10 114.5 -49t38.5 -101q0 -12 -4 -41q-23 -102 -118 -162.5t-250 -60.5q-145 0 -218 31l35 164q20 -14 57 -22.5t72 -8.5q66 0 102 16.5t46 59.5q2 6 2 18q0 37 -45 54.5t-148 17.5l105 178h-80 l227 1075h-385z" />
<glyph unicode="&#x163;" horiz-adv-x="808" d="M43 -477l35 164q20 -14 57 -22.5t72 -8.5q66 0 101.5 16.5t45.5 59.5q2 6 2 18q0 37 -45 54.5t-147 17.5l98 170q-84 29 -126 94.5t-42 159.5q0 59 15 119l73 342h-135l59 276h136l61 295h412l-62 -295h219l-59 -276h-219l-62 -283q-8 -35 -8 -64q0 -41 23.5 -57 t77.5 -16q76 0 149 39l-63 -303q-90 -39 -191 -50l-41 -67q76 -10 115 -49t39 -101q0 -12 -4 -41q-23 -102 -118 -162.5t-251 -60.5q-145 0 -217 31z" />
<glyph unicode="&#x164;" horiz-adv-x="1214" d="M135 1075l76 357h1194l-76 -357h-385l-227 -1075h-424l227 1075h-385zM401 1884h342l88 -145l150 145h362l-378 -352h-338z" />
<glyph unicode="&#x165;" horiz-adv-x="1175" d="M47 707l59 276h136l61 295h412l-62 -295h219l-59 -276h-219l-62 -283q-8 -35 -8 -64q0 -41 23.5 -57t77.5 -16q76 0 149 39l-63 -303q-66 -27 -133.5 -40.5t-165.5 -13.5q-160 0 -239 73t-79 204q0 43 15 119l73 342h-135zM829 1196l263 440h403l-315 -440h-351z" />
<glyph unicode="&#x166;" horiz-adv-x="1214" d="M133 1067l78 365h1194l-78 -365h-381l-49 -229h209l-72 -346h-211l-102 -492h-432l102 492h-201l72 346h203l49 229h-381z" />
<glyph unicode="&#x167;" horiz-adv-x="808" d="M-16 410l47 217h135l18 84h-137l59 272h138l61 295h410l-62 -295h219l-59 -272h-219l-19 -84h222l-47 -217h-222q-6 -27 -6 -50q0 -43 24.5 -58t80.5 -15q76 0 147 39l-63 -303q-63 -27 -131 -40.5t-166 -13.5q-150 0 -232 79t-82 214q0 59 11 103l8 45h-135z" />
<glyph unicode="&#x168;" horiz-adv-x="1482" d="M82 459q0 78 18 164l172 809h424l-170 -805q-14 -76 -14 -111q0 -84 46 -120t147 -36q102 0 163.5 29t95 86t54.5 152l170 805h424l-172 -809q-68 -315 -257.5 -484.5t-551.5 -169.5q-256 0 -402.5 131t-146.5 359zM512 1520l61 288q90 84 238 84q45 0 88 -12t111 -39 q61 -25 103 -38t87 -13q131 0 238 100l-60 -286q-86 -84 -235 -84q-51 0 -97.5 13t-111.5 40q-59 25 -99 37t-83 12q-129 0 -240 -102z" />
<glyph unicode="&#x169;" horiz-adv-x="1288" d="M39 283q0 53 12 104l127 596h410l-117 -547q-8 -33 -8 -65q0 -45 24.5 -64.5t81.5 -19.5q121 0 207 110l125 586h412l-209 -983h-397l18 94q-74 -61 -167 -93t-187 -32q-162 0 -247 87t-85 227zM324 1067l61 289q90 84 238 84q45 0 88 -12.5t110 -38.5 q61 -25 103.5 -38.5t87.5 -13.5q131 0 237 101l-59 -287q-86 -84 -236 -84q-51 0 -97 13.5t-112 39.5q-59 25 -99 37t-83 12q-129 0 -239 -102z" />
<glyph unicode="&#x16a;" horiz-adv-x="1482" d="M82 459q0 78 18 164l172 809h424l-170 -805q-14 -76 -14 -111q0 -84 46 -120t147 -36q102 0 163.5 29t95 86t54.5 152l170 805h424l-172 -809q-68 -315 -257.5 -484.5t-551.5 -169.5q-256 0 -402.5 131t-146.5 359zM575 1550l52 242h727l-51 -242h-728z" />
<glyph unicode="&#x16b;" horiz-adv-x="1288" d="M39 283q0 53 12 104l127 596h410l-117 -547q-8 -33 -8 -65q0 -45 24.5 -64.5t81.5 -19.5q121 0 207 110l125 586h412l-209 -983h-397l18 94q-74 -61 -167 -93t-187 -32q-162 0 -247 87t-85 227zM381 1098l51 241h727l-51 -241h-727z" />
<glyph unicode="&#x16c;" horiz-adv-x="1482" d="M82 459q0 78 18 164l172 809h424l-170 -805q-14 -76 -14 -111q0 -84 46 -120t147 -36q102 0 163.5 29t95 86t54.5 152l170 805h424l-172 -809q-68 -315 -257.5 -484.5t-551.5 -169.5q-256 0 -402.5 131t-146.5 359zM602 1794q0 45 12 100h293q-6 -25 -6 -47q0 -76 74 -75 q92 0 117 122h315q-37 -176 -162 -276t-315 -100q-160 0 -244 72.5t-84 203.5z" />
<glyph unicode="&#x16d;" horiz-adv-x="1288" d="M39 283q0 53 12 104l127 596h410l-117 -547q-8 -33 -8 -65q0 -45 24.5 -64.5t81.5 -19.5q121 0 207 110l125 586h412l-209 -983h-397l18 94q-74 -61 -167 -93t-187 -32q-162 0 -247 87t-85 227zM401 1343q0 45 13 101h293q-6 -25 -7 -47q0 -76 74 -76q92 0 117 123h315 q-37 -176 -161.5 -276.5t-315.5 -100.5q-160 0 -244 72.5t-84 203.5z" />
<glyph unicode="&#x16e;" horiz-adv-x="1482" d="M82 459q0 78 18 164l172 809h424l-170 -805q-14 -76 -14 -111q0 -84 46 -120t147 -36q102 0 163.5 29t95 86t54.5 152l170 805h424l-172 -809q-68 -315 -257.5 -484.5t-551.5 -169.5q-256 0 -402.5 131t-146.5 359zM680 1757q0 29 6 60q29 131 129 216t240 85 q111 0 180.5 -66.5t69.5 -171.5q0 -29 -7 -63q-27 -129 -130 -214t-240 -85q-111 0 -179.5 67.5t-68.5 171.5zM885 1790q0 -35 21.5 -56.5t62.5 -21.5q45 0 81.5 31t47.5 74q4 25 4 32q0 35 -21.5 54.5t-66.5 19.5q-49 0 -89 -39t-40 -94z" />
<glyph unicode="&#x16f;" horiz-adv-x="1288" d="M39 283q0 53 12 104l127 596h410l-117 -547q-8 -33 -8 -65q0 -45 24.5 -64.5t81.5 -19.5q121 0 207 110l125 586h412l-209 -983h-397l18 94q-74 -61 -167 -93t-187 -32q-162 0 -247 87t-85 227zM485 1307q0 29 7 59q29 131 129 216t239 85q111 0 180.5 -66.5t69.5 -170.5 q0 -29 -6 -64q-27 -129 -130.5 -214t-240.5 -85q-110 0 -179 67.5t-69 172.5zM690 1339q0 -35 21.5 -56t62.5 -21q45 0 82 30.5t47 73.5q4 25 4 33q0 35 -21.5 54.5t-66.5 19.5q-49 0 -89 -39t-40 -95z" />
<glyph unicode="&#x170;" horiz-adv-x="1482" d="M82 459q0 78 18 164l172 809h424l-170 -805q-14 -76 -14 -111q0 -84 46 -120t147 -36q102 0 163.5 29t95 86t54.5 152l170 805h424l-172 -809q-68 -315 -257.5 -484.5t-551.5 -169.5q-256 0 -402.5 131t-146.5 359zM483 1518l217 366h396l-269 -366h-344zM1026 1518 l217 366h395l-266 -366h-346z" />
<glyph unicode="&#x171;" horiz-adv-x="1290" d="M39 283q0 53 12 104l127 596h410l-117 -547q-8 -33 -8 -65q0 -45 24.5 -64.5t81.5 -19.5q121 0 207 110l125 586h412l-209 -983h-397l18 94q-74 -61 -167 -93t-187 -32q-162 0 -247 87t-85 227zM264 1067l217 367h396l-269 -367h-344zM807 1067l217 367h395l-266 -367 h-346z" />
<glyph unicode="&#x172;" horiz-adv-x="1482" d="M82 459q0 78 18 164l172 809h424l-170 -805q-14 -76 -14 -111q0 -84 46 -120t147 -36q102 0 163.5 29t95 86t54.5 152l170 805h424l-172 -809q-57 -268 -201.5 -432t-409.5 -207q-90 -43 -132 -79t-42 -77q0 -20 16.5 -32.5t43.5 -12.5q51 0 106 24l-47 -221 q-113 -33 -244 -32q-111 0 -175 39.5t-64 119.5q0 29 4 45q16 72 60 130.5t110 97.5q-182 41 -282.5 163.5t-100.5 309.5z" />
<glyph unicode="&#x173;" horiz-adv-x="1288" d="M39 283q0 53 12 104l127 596h410l-117 -547q-8 -33 -8 -65q0 -45 24.5 -64.5t81.5 -19.5q121 0 207 110l125 586h412l-209 -983h-12q-98 -45 -147.5 -82t-57.5 -78q-6 -25 10 -41t47 -16q51 0 107 24l-47 -221q-113 -33 -244 -32q-111 0 -175.5 39.5t-64.5 119.5 q0 29 4 45q18 80 68.5 141.5t126.5 100.5h-12l18 94q-74 -61 -167 -93t-187 -32q-162 0 -247 87t-85 227z" />
<glyph unicode="&#x174;" horiz-adv-x="2027" d="M242 1432h438l39 -750l350 750h307l15 -752l356 752h440l-684 -1432h-377l-34 760l-355 -760h-418zM735 1532l377 352h338l227 -352h-342l-88 145l-149 -145h-363z" />
<glyph unicode="&#x175;" horiz-adv-x="1775" d="M147 983h410l27 -512l247 512h326l27 -512l248 512h409l-541 -983h-352l-43 496l-250 -496h-385zM512 1081l377 353h338l227 -353h-342l-88 146l-150 -146h-362z" />
<glyph unicode="&#x176;" horiz-adv-x="1568" d="M242 1432h436l178 -494l406 494h467l-730 -887l-114 -545h-424l114 545zM498 1532l376 352h338l228 -352h-342l-88 145l-150 -145h-362z" />
<glyph unicode="&#x177;" horiz-adv-x="1314" d="M-4 -403l57 272q147 -70 359 -70q139 0 206.5 53.5t90.5 159.5l22 111q-74 -61 -167 -93t-187 -32q-160 0 -245 88t-85 229q0 57 10 101l121 567h410l-111 -518q-8 -45 -8 -62q0 -45 25.5 -66.5t80.5 -21.5q121 0 207 111l119 557h412l-191 -893q-57 -274 -239.5 -417.5 t-528.5 -143.5q-96 0 -194.5 18.5t-163.5 49.5zM309 1081l377 353h338l227 -353h-342l-88 146l-149 -146h-363z" />
<glyph unicode="&#x178;" horiz-adv-x="1568" d="M242 1432h436l178 -494l406 494h467l-730 -887l-114 -545h-424l114 545zM580 1661q0 53 31.5 100t79.5 76t97 29q59 0 97.5 -38t38.5 -95q0 -82 -63.5 -142.5t-143.5 -60.5q-60 0 -98.5 37t-38.5 94zM1061 1661q0 53 30.5 100t80 76t100.5 29q57 0 95 -38t38 -95 q0 -82 -63.5 -142.5t-141.5 -60.5q-59 0 -99 37t-40 94z" />
<glyph unicode="&#x179;" horiz-adv-x="1251" d="M-61 0l57 279l768 796h-584l76 357h1108l-59 -281l-766 -795h643l-74 -356h-1169zM575 1509l220 369h411l-268 -369h-363z" />
<glyph unicode="&#x17a;" horiz-adv-x="1087" d="M-61 0l45 213l542 494h-428l60 276h979l-47 -213l-539 -494h450l-57 -276h-1005zM436 1059l219 368h412l-268 -368h-363z" />
<glyph unicode="&#x17b;" horiz-adv-x="1251" d="M-61 0l57 279l768 796h-584l76 357h1108l-59 -281l-766 -795h643l-74 -356h-1169zM659 1651q0 53 31 100t80 75.5t100 28.5q59 0 96.5 -37.5t37.5 -95.5q0 -82 -62.5 -142t-142.5 -60q-60 0 -100 36.5t-40 94.5z" />
<glyph unicode="&#x17c;" horiz-adv-x="1087" d="M-61 0l45 213l542 494h-428l60 276h979l-47 -213l-539 -494h450l-57 -276h-1005zM516 1198q0 53 31 100.5t80 76t100 28.5q59 0 96 -38t37 -95q0 -82 -62.5 -142.5t-142.5 -60.5q-59 0 -99 37t-40 94z" />
<glyph unicode="&#x17d;" horiz-adv-x="1251" d="M-61 0l57 279l768 796h-584l76 357h1108l-59 -281l-766 -795h643l-74 -356h-1169zM410 1884h342l88 -145l149 145h363l-379 -352h-338z" />
<glyph unicode="&#x17e;" horiz-adv-x="1087" d="M-61 0l45 213l542 494h-428l60 276h979l-47 -213l-539 -494h450l-57 -276h-1005zM252 1434h342l88 -146l149 146h363l-379 -353h-338z" />
<glyph unicode="&#x18f;" horiz-adv-x="1685" d="M70 545q0 72 16 153l37 174h1087q2 90 -30.5 140.5t-117.5 74t-247 23.5q-135 0 -280.5 -22.5t-260.5 -63.5l72 336q123 47 287 74.5t336 27.5q225 0 393 -66.5t259 -195.5t91 -311q0 -78 -18 -168q-76 -354 -318.5 -553t-652.5 -199q-207 0 -354.5 76t-223 207 t-75.5 293zM530 569q-18 -254 256 -254q138 0 230 69t131 185h-617z" />
<glyph unicode="&#x192;" horiz-adv-x="1150" d="M-420 -436l121 289q47 -31 119 -31q82 0 136 38t89 115l322 758h-142l103 250h143l51 123q66 154 144.5 244t193.5 132t285 42q123 0 190 -37l-118 -287q-47 29 -123 29q-78 0 -133.5 -37t-90.5 -117l-39 -92h242l-102 -250h-244l-336 -786q-66 -154 -142.5 -243 t-190 -132t-285.5 -43q-127 0 -193 35z" />
<glyph unicode="&#x1a0;" horiz-adv-x="1857" d="M72 545q0 82 18 170q47 221 180 391t329 263t423 93q145 0 266 -44t205 -126q113 0 166 42t72 128l14 68h334l-19 -94q-31 -160 -142.5 -270.5t-279.5 -141.5q14 -59 15 -139q0 -80 -19 -170q-47 -221 -180 -390t-327.5 -262.5t-421.5 -93.5q-189 0 -332.5 71t-222 202 t-78.5 303zM510 612q0 -119 71.5 -182t209.5 -63q145 0 260.5 94t150.5 254q12 55 12 100q0 119 -70.5 182.5t-205.5 63.5q-147 0 -265 -94.5t-151 -251.5q-12 -55 -12 -103z" />
<glyph unicode="&#x1a1;" horiz-adv-x="1536" d="M31 385q0 51 12 107q33 154 128 271.5t248.5 184t354.5 66.5q231 0 375 -111q84 10 126 53t58 119l15 68h327l-20 -94q-31 -145 -125 -251t-236 -147q4 -37 4 -55q0 -51 -12 -104q-33 -154 -130 -272t-251.5 -184.5t-353.5 -66.5q-156 0 -273.5 52.5t-182 146.5 t-64.5 217zM455 426q0 -139 163 -139q93 0 160.5 55t87.5 150q6 35 6 65q0 68 -38.5 102.5t-126.5 34.5q-92 0 -159 -54t-85 -148q-8 -45 -8 -66z" />
<glyph unicode="&#x1af;" horiz-adv-x="1847" d="M82 459q0 78 18 164l172 809h424l-170 -805q-14 -76 -14 -111q0 -84 46 -120t147 -36q152 0 218 62.5t95 204.5l170 805h424l-29 -138q78 6 114 44t54 122l14 70h303l-18 -92q-37 -176 -167 -285t-355 -117l-88 -413q-68 -315 -257.5 -484.5t-551.5 -169.5 q-256 0 -402.5 131t-146.5 359z" />
<glyph unicode="&#x1b0;" horiz-adv-x="1642" d="M39 283q0 53 12 104l127 596h410l-117 -547q-8 -33 -8 -65q0 -45 24.5 -64.5t81.5 -19.5q121 0 207 110l125 586h412l-17 -76q78 6 114 44t54 122l15 70h303l-19 -92q-37 -176 -167 -285t-355 -117l-137 -649h-397l18 94q-74 -61 -167 -93t-187 -32q-162 0 -247 87 t-85 227z" />
<glyph unicode="&#x1cd;" horiz-adv-x="1634" d="M-61 0l876 1432h408l268 -1432h-414l-49 272h-469l-166 -272h-454zM604 1884h342l88 -145l150 145h362l-379 -352h-338zM723 594h274l-51 401z" />
<glyph unicode="&#x1ce;" horiz-adv-x="1370" d="M27 365q0 49 14 124q51 240 219 382.5t416 142.5q94 0 171 -28t122 -75l16 72h410l-209 -983h-395l18 90q-74 -57 -166 -89t-190 -32q-193 0 -309.5 106.5t-116.5 289.5zM436 1434h342l88 -146l150 146h362l-379 -353h-337zM457 424q0 -137 174 -137q69 0 130.5 32.5 t100.5 90.5l35 161q-14 57 -61.5 90t-116.5 33q-96 0 -165 -54t-89 -151q-8 -45 -8 -65z" />
<glyph unicode="&#x1cf;" horiz-adv-x="587" d="M-20 0l303 1432h424l-304 -1432h-423zM80 1890h342l88 -145l149 145h363l-379 -352h-338z" />
<glyph unicode="&#x1d0;" horiz-adv-x="575" d="M-23 1438h342l89 -146l149 146h363l-379 -353h-338zM-18 0l208 983h410l-209 -983h-409z" />
<glyph unicode="&#x1d1;" horiz-adv-x="1626" d="M72 543q0 84 18 172q47 221 180 391t329 263t423 93q186 0 329.5 -70.5t222.5 -201.5t79 -303q0 -82 -19 -172q-47 -221 -180 -390t-328.5 -262.5t-420.5 -93.5q-187 0 -331.5 71t-223 201t-78.5 302zM510 612q0 -119 71.5 -182t209.5 -63q145 0 260.5 94t150.5 254 q12 55 12 100q0 119 -70.5 182.5t-205.5 63.5q-147 0 -265 -94.5t-151 -251.5q-12 -55 -12 -103zM600 1884h342l88 -145l150 145h362l-379 -352h-338z" />
<glyph unicode="&#x1d2;" horiz-adv-x="1325" d="M31 385q0 51 12 107q33 154 128 271.5t248.5 184t354.5 66.5q160 0 278.5 -53.5t182 -147.5t63.5 -217q0 -49 -12 -104q-33 -154 -130 -272t-251.5 -184.5t-353.5 -66.5q-156 0 -273.5 52.5t-182 146.5t-64.5 217zM352 1434h342l88 -146l150 146h362l-379 -353h-337z M455 426q0 -139 163 -139q93 0 160.5 55t87.5 150q6 35 6 65q0 68 -38.5 102.5t-126.5 34.5q-92 0 -159 -54t-85 -148q-8 -45 -8 -66z" />
<glyph unicode="&#x1d3;" horiz-adv-x="1482" d="M82 459q0 78 18 164l172 809h424l-170 -805q-14 -76 -14 -111q0 -84 46 -120t147 -36q102 0 163.5 29t95 86t54.5 152l170 805h424l-172 -809q-68 -315 -257.5 -484.5t-551.5 -169.5q-256 0 -402.5 131t-146.5 359zM539 1884h342l88 -145l149 145h363l-379 -352h-338z " />
<glyph unicode="&#x1d4;" horiz-adv-x="1288" d="M39 283q0 53 12 104l127 596h410l-117 -547q-8 -33 -8 -65q0 -45 24.5 -64.5t81.5 -19.5q121 0 207 110l125 586h412l-209 -983h-397l18 94q-74 -61 -167 -93t-187 -32q-162 0 -247 87t-85 227zM344 1434h342l88 -146l150 146h362l-379 -353h-338z" />
<glyph unicode="&#x1d5;" horiz-adv-x="1482" d="M82 459q0 78 18 164l172 809h424l-170 -805q-14 -76 -14 -111q0 -84 46 -120t147 -36q102 0 163.5 29t95 86t54.5 152l170 805h424l-172 -809q-68 -315 -257.5 -484.5t-551.5 -169.5q-256 0 -402.5 131t-146.5 359zM555 1649q0 53 31.5 100t80 75.5t97.5 28.5 q59 0 97 -37.5t38 -95.5q0 -82 -63.5 -142t-143.5 -60q-59 0 -98 36.5t-39 94.5zM662 1954l51 241h727l-51 -241h-727zM1036 1649q0 53 31 100t80 75.5t100 28.5q57 0 95 -37.5t38 -95.5q0 -82 -63.5 -142t-140.5 -60q-60 0 -100 36.5t-40 94.5z" />
<glyph unicode="&#x1d6;" horiz-adv-x="1288" d="M39 283q0 53 12 104l127 596h410l-117 -547q-8 -33 -8 -65q0 -45 24.5 -64.5t81.5 -19.5q121 0 207 110l125 586h412l-209 -983h-397l18 94q-74 -61 -167 -93t-187 -32q-162 0 -247 87t-85 227zM367 1198q0 53 31.5 100.5t79.5 76t97 28.5q59 0 97.5 -38t38.5 -95 q0 -82 -63.5 -142.5t-143.5 -60.5q-60 0 -98.5 37t-38.5 94zM479 1528l51 241h727l-51 -241h-727zM848 1198q0 53 30.5 100.5t80 76t100.5 28.5q57 0 95 -38t38 -95q0 -82 -63.5 -142.5t-141.5 -60.5q-59 0 -99 37t-40 94z" />
<glyph unicode="&#x1d7;" horiz-adv-x="1482" d="M82 459q0 78 18 164l172 809h424l-170 -805q-14 -76 -14 -111q0 -84 46 -120t147 -36q102 0 163.5 29t95 86t54.5 152l170 805h424l-172 -809q-68 -315 -257.5 -484.5t-551.5 -169.5q-256 0 -402.5 131t-146.5 359zM608 1661q0 49 29 92t74 68.5t90 25.5q55 0 90 -34.5 t35 -88.5q0 -76 -59.5 -130t-131.5 -54q-53 0 -90 35t-37 86zM901 1860l180 294h336l-231 -294h-285zM1090 1661q0 72 60 129t132 57q53 0 88 -34.5t35 -88.5q0 -76 -58.5 -130t-129.5 -54q-56 0 -91.5 34t-35.5 87z" />
<glyph unicode="&#x1d8;" horiz-adv-x="1288" d="M39 283q0 53 12 104l127 596h410l-117 -547q-8 -33 -8 -65q0 -45 24.5 -64.5t81.5 -19.5q121 0 207 110l125 586h412l-209 -983h-397l18 94q-74 -61 -167 -93t-187 -32q-162 0 -247 87t-85 227zM395 1202q0 49 29 92t74 69t90 26q55 0 90 -35t35 -88q0 -76 -59.5 -130.5 t-131.5 -54.5q-53 0 -90 35t-37 86zM688 1401l180 295h336l-231 -295h-285zM877 1202q0 72 60 129.5t132 57.5q53 0 88 -35t35 -88q0 -76 -58.5 -130.5t-129.5 -54.5q-56 0 -91.5 34t-35.5 87z" />
<glyph unicode="&#x1d9;" horiz-adv-x="1482" d="M82 459q0 78 18 164l172 809h424l-170 -805q-14 -76 -14 -111q0 -84 46 -120t147 -36q102 0 163.5 29t95 86t54.5 152l170 805h424l-172 -809q-68 -315 -257.5 -484.5t-551.5 -169.5q-256 0 -402.5 131t-146.5 359zM602 1653q0 74 59.5 131t129.5 57q55 0 91 -34.5 t36 -88.5q0 -76 -59.5 -130t-133.5 -54q-53 0 -88 34t-35 85zM719 2083h280l62 -94l104 94h281l-311 -258h-213zM1081 1653q0 74 59.5 131t131.5 57q53 0 90 -36t37 -89q0 -74 -60.5 -128t-132.5 -54q-55 0 -90 32.5t-35 86.5z" />
<glyph unicode="&#x1da;" horiz-adv-x="1288" d="M39 283q0 53 12 104l127 596h410l-117 -547q-8 -33 -8 -65q0 -45 24.5 -64.5t81.5 -19.5q121 0 207 110l125 586h412l-209 -983h-397l18 94q-74 -61 -167 -93t-187 -32q-162 0 -247 87t-85 227zM397 1200q0 74 59.5 131.5t129.5 57.5q55 0 91 -35t36 -88 q0 -76 -59.5 -130.5t-133.5 -54.5q-53 0 -88 34t-35 85zM514 1630h281l61 -94l105 94h280l-311 -258h-213zM877 1200q0 74 59 131.5t131 57.5q53 0 90 -36t37 -89q0 -74 -60.5 -128.5t-132.5 -54.5q-55 0 -89.5 33t-34.5 86z" />
<glyph unicode="&#x1db;" horiz-adv-x="1482" d="M82 459q0 78 18 164l172 809h424l-170 -805q-14 -76 -14 -111q0 -84 46 -120t147 -36q102 0 163.5 29t95 86t54.5 152l170 805h424l-172 -809q-68 -315 -257.5 -484.5t-551.5 -169.5q-256 0 -402.5 131t-146.5 359zM608 1653q0 74 59.5 131t129.5 57q55 0 91 -34.5 t36 -88.5q0 -76 -59.5 -130t-133.5 -54q-53 0 -88 34t-35 85zM793 2148h333l56 -295h-285zM1087 1653q0 74 59.5 131t131.5 57q53 0 90 -36t37 -89q0 -74 -60.5 -128t-132.5 -54q-55 0 -90 32.5t-35 86.5z" />
<glyph unicode="&#x1dc;" horiz-adv-x="1288" d="M39 283q0 53 12 104l127 596h410l-117 -547q-8 -33 -8 -65q0 -45 24.5 -64.5t81.5 -19.5q121 0 207 110l125 586h412l-209 -983h-397l18 94q-74 -61 -167 -93t-187 -32q-162 0 -247 87t-85 227zM401 1200q0 74 59.5 131.5t129.5 57.5q55 0 91 -35t36 -88 q0 -76 -59.5 -130.5t-133.5 -54.5q-53 0 -88 34t-35 85zM586 1696h334l55 -295h-285zM881 1200q0 74 59 131.5t131 57.5q53 0 90 -36t37 -89q0 -74 -60.5 -128.5t-131.5 -54.5q-56 0 -90.5 33t-34.5 86z" />
<glyph unicode="&#x1e6;" horiz-adv-x="1415" d="M70 537q0 88 20 178q74 352 319.5 549.5t624.5 197.5q156 0 279 -30.5t196 -88.5l-84 -391q-76 68 -181 98.5t-253 30.5q-207 0 -319.5 -94t-149.5 -272q-18 -82 -18 -148q0 -119 71.5 -170t237.5 -51q88 0 150 25l38 182h-196l57 268h584l-154 -717q-244 -135 -575 -135 q-193 0 -339.5 67.5t-227 195.5t-80.5 305zM504 1896h342l88 -145l149 145h363l-379 -352h-338z" />
<glyph unicode="&#x1e7;" horiz-adv-x="1370" d="M29 373q0 47 14 119q49 240 217 381t416 141q96 0 175 -32t128 -89l20 90h396l-195 -911q-59 -276 -241.5 -409.5t-538.5 -133.5q-96 0 -194.5 18.5t-164.5 49.5l58 272q147 -70 358 -70q133 0 206 54.5t95 158.5l13 58q-63 -45 -153.5 -73t-182.5 -28 q-123 0 -219.5 50.5t-151.5 142.5t-55 211zM375 1454h342l88 -145l149 145h363l-379 -352h-338zM459 420q0 -68 40 -100.5t132 -32.5q149 0 231 125l35 159q-14 57 -61.5 90t-116.5 33q-96 0 -164 -53t-88 -147q-8 -35 -8 -74z" />
<glyph unicode="&#x1fa;" horiz-adv-x="1634" d="M-61 0l843 1378q-45 61 -45 144q0 29 6 59q29 131 129.5 216t239.5 85q111 0 180.5 -66.5t69.5 -170.5q0 -29 -6 -64q-25 -121 -123 -207l258 -1374h-414l-49 272h-469l-166 -272h-454zM723 594h274l-51 401zM940 1915l219 295h412l-268 -295h-363zM942 1554 q0 -34 21.5 -55.5t62.5 -21.5q45 0 82 30.5t47 73.5q4 25 4 33q0 35 -21.5 54.5t-66.5 19.5q-49 0 -89 -39t-40 -95z" />
<glyph unicode="&#x1fb;" horiz-adv-x="1370" d="M27 365q0 49 14 124q51 240 219 382.5t416 142.5q94 0 171 -28t122 -75l16 72h410l-209 -983h-395l18 90q-74 -57 -166 -89t-190 -32q-193 0 -309.5 106.5t-116.5 289.5zM457 424q0 -137 174 -137q69 0 130.5 32.5t100.5 90.5l35 161q-14 57 -61.5 90t-116.5 33 q-96 0 -165 -54t-89 -151q-8 -45 -8 -65zM547 1305q0 29 6 59q29 131 129 216t240 85q111 0 180 -66.5t69 -171.5q0 -29 -6 -63q-27 -129 -130 -214t-240 -85q-111 0 -179.5 67.5t-68.5 172.5zM752 1337q0 -35 21.5 -56t62.5 -21q45 0 81.5 30.5t47.5 73.5q4 25 4 33 q0 35 -21.5 54t-66.5 19q-49 0 -89 -38.5t-40 -94.5zM780 1710l219 295h412l-268 -295h-363z" />
<glyph unicode="&#x1fc;" horiz-adv-x="1880" d="M-61 0l903 1432h1198l-76 -357h-573l-41 -196h403l-70 -326h-403l-43 -197h573l-73 -356h-955l58 272h-289l-170 -272h-442zM709 598h200l101 477h-13zM1108 1509l219 369h412l-269 -369h-362z" />
<glyph unicode="&#x1fd;" horiz-adv-x="1955" d="M-6 229q0 41 8 76q35 164 164 252t330 88q76 0 150.5 -16.5t123.5 -40.5l2 18q2 8 2 27q0 53 -58.5 81.5t-164.5 28.5q-178 0 -344 -71l57 270q76 33 188.5 52.5t235.5 19.5q238 0 369 -115q84 53 188.5 84t214.5 31q154 0 260.5 -52.5t159.5 -141.5t53 -202 q0 -49 -14 -116l-29 -129h-755q23 -135 266 -135q98 0 204.5 15t184.5 44l-53 -256q-86 -33 -202 -52.5t-237 -19.5q-137 0 -242.5 37t-168.5 105q-109 -68 -232 -105t-284 -37q-176 0 -276.5 66.5t-100.5 193.5zM414 279q0 -72 100 -72q53 0 104.5 19.5t83.5 52.5l17 77 q-61 49 -160 50q-57 0 -95 -27t-48 -74q-2 -8 -2 -26zM797 1071l219 369h411l-268 -369h-362zM1184 604h368q10 139 -155 139q-82 0 -135.5 -37.5t-77.5 -101.5z" />
<glyph unicode="&#x1fe;" horiz-adv-x="1626" d="M72 543q0 80 18 172q47 219 184.5 389t334 264t413.5 94q78 0 145 -12l97 156h280l-147 -240q121 -76 188.5 -199t67.5 -282q0 -80 -19 -170q-47 -219 -184 -388t-332.5 -263.5t-412.5 -94.5q-72 0 -158 15l-98 -160h-279l149 246q-119 76 -183 196.5t-64 276.5zM518 627 q0 -94 47 -158l361 586q-143 -4 -255 -96.5t-143 -243.5q-10 -55 -10 -88zM760 1520l217 366h432l-266 -366h-383zM786 373h5q143 0 256.5 92t148.5 250q10 51 10 86q0 98 -55 164z" />
<glyph unicode="&#x1ff;" horiz-adv-x="1325" d="M31 385q0 51 12 107q33 154 128 271.5t248.5 184t354.5 66.5q45 0 92 -6l92 151h228l-125 -203q113 -53 174 -147t61 -215q0 -59 -10 -102q-33 -154 -130 -272t-251.5 -184.5t-353.5 -66.5q-51 0 -96 6l-93 -151h-225l125 203q-111 55 -171 147t-60 211zM397 1071 l219 369h412l-268 -369h-363zM446 422q0 -43 15 -72l217 352q-86 -8 -146.5 -64t-76.5 -146q-8 -33 -9 -70zM643 279q88 10 150.5 66t80.5 147q8 49 9 67q0 47 -19 78z" />
<glyph unicode="&#x218;" horiz-adv-x="1175" d="M-47 70l80 374q98 -61 216 -91.5t226 -30.5q178 0 178 102q0 41 -42 70.5t-167 89.5q-152 72 -222 154.5t-70 195.5q0 37 10 92q43 199 215 317.5t438 118.5q135 0 235.5 -21.5t188.5 -68.5l-78 -362q-158 98 -344 98q-88 0 -144.5 -27.5t-56.5 -81.5q0 -37 40 -63.5 t143 -71.5l39 -16q160 -72 226 -144.5t66 -181.5q0 -57 -14 -121q-43 -207 -207 -319.5t-477 -112.5q-139 0 -271 28t-208 73zM8 -530l266 438h420l-311 -438h-375z" />
<glyph unicode="&#x219;" horiz-adv-x="1060" d="M-37 57l62 289q74 -49 188.5 -83t212.5 -34q63 0 92 8.5t29 34.5q0 16 -22.5 25.5t-86.5 28.5l-88 26q-147 47 -211.5 102.5t-64.5 147.5q0 33 10 84q70 328 559 328q109 0 229.5 -23.5t174.5 -62.5l-62 -285q-53 41 -153.5 70.5t-188.5 29.5q-121 0 -131 -41 q-4 -18 20.5 -29t90.5 -26q18 -6 41.5 -11t50.5 -13q147 -43 209.5 -100.5t62.5 -147.5q0 -33 -10 -88q-31 -147 -170 -232.5t-393 -85.5q-123 0 -252 22.5t-199 65.5zM-29 -530l267 438h419l-311 -438h-375z" />
<glyph unicode="&#x21a;" horiz-adv-x="1214" d="M16 -532l263 440h403l-315 -440h-351zM135 1075l76 357h1194l-76 -357h-385l-227 -1075h-424l227 1075h-385z" />
<glyph unicode="&#x21b;" horiz-adv-x="808" d="M-74 -532l262 440h404l-316 -440h-350zM47 707l59 276h136l61 295h412l-62 -295h219l-59 -276h-219l-62 -283q-8 -35 -8 -64q0 -41 23.5 -57t77.5 -16q76 0 149 39l-63 -303q-66 -27 -133.5 -40.5t-165.5 -13.5q-160 0 -239 73t-79 204q0 43 15 119l73 342h-135z" />
<glyph unicode="&#x237;" horiz-adv-x="589" d="M-389 -434l70 325q55 -31 139 -30q63 0 106 33.5t58 103.5l211 985h411l-221 -1036q-45 -207 -201.5 -313.5t-371.5 -106.5q-127 0 -201 39z" />
<glyph unicode="&#x251;" horiz-adv-x="1370" d="M27 365q0 49 14 124q51 240 218 382.5t417 142.5q94 0 171 -28t122 -75l16 72h410l-209 -983h-395l18 90q-66 -57 -161 -89t-195 -32q-193 0 -309.5 106.5t-116.5 289.5zM457 422q0 -68 42 -101.5t132 -33.5q69 0 130.5 32.5t100.5 90.5l35 161q-14 57 -61.5 90 t-116.5 33q-96 0 -165 -54t-89 -151q-8 -49 -8 -67z" />
<glyph unicode="&#x259;" horiz-adv-x="1228" d="M27 365q0 59 12 116l29 133h755q-12 70 -67.5 100.5t-200.5 30.5q-94 0 -201.5 -16t-189.5 -45l55 258q88 33 209 52.5t242 19.5q248 0 390 -104.5t142 -295.5q0 -57 -12 -118q-53 -248 -225 -387.5t-469 -139.5q-234 0 -351.5 110.5t-117.5 285.5zM403 375 q-4 -66 31 -100.5t127 -34.5q80 0 134.5 36.5t76.5 98.5h-369z" />
<glyph unicode="&#x2bb;" horiz-adv-x="600" d="M160 1049l260 413h346l-217 -413h-389z" />
<glyph unicode="&#x2bc;" horiz-adv-x="600" d="M160 1049l217 413h389l-260 -413h-346z" />
<glyph unicode="&#x2be;" d="M-78 1012l58 272q123 0 141 86q2 8 2 23q0 66 -107 65l58 271q150 0 232.5 -65t82.5 -194q0 -45 -12 -100q-37 -176 -157 -267t-298 -91z" />
<glyph unicode="&#x2bf;" d="M-14 1270q0 45 12 100q37 178 156.5 268.5t298.5 90.5l-58 -271q-123 0 -141 -88q-2 -8 -2 -22q0 -63 106 -64l-57 -272q-149 0 -232 65.5t-83 192.5z" />
<glyph unicode="&#x2c6;" horiz-adv-x="1107" d="M229 1184l379 352h338l228 -352h-343l-88 145l-149 -145h-365z" />
<glyph unicode="&#x2c7;" horiz-adv-x="1105" d="M303 1536h344l88 -145l150 145h362l-379 -352h-338z" />
<glyph unicode="&#x2c8;" d="M-8 1161l90 428h297l-90 -428h-297z" />
<glyph unicode="&#x2c9;" horiz-adv-x="1206" d="M356 1155l58 262h764l-58 -262h-764z" />
<glyph unicode="&#x2ca;" d="M-186 1167l217 367h411l-268 -367h-360z" />
<glyph unicode="&#x2cb;" d="M-188 1167l266 367h362l-219 -367h-409z" />
<glyph unicode="&#x2cc;" d="M-408 -537l91 426h294l-90 -426h-295z" />
<glyph unicode="&#x2d8;" horiz-adv-x="876" d="M250 1432q0 45 12 100h295q-6 -25 -6 -47q0 -76 74 -76q92 0 116 123h316q-37 -176 -162 -276.5t-315 -100.5q-160 0 -245 72.5t-85 204.5z" />
<glyph unicode="&#x2d9;" horiz-adv-x="417" d="M215 1290q0 53 30.5 100.5t80 76t100.5 28.5q59 0 96 -38t37 -95q0 -82 -62.5 -142.5t-142.5 -60.5q-59 0 -99 37t-40 94z" />
<glyph unicode="&#x2da;" horiz-adv-x="694" d="M213 1266q0 31 6 61q29 129 132.5 215t236.5 86q111 0 180.5 -66.5t69.5 -170.5q0 -29 -7 -64q-27 -127 -130 -213t-240 -86q-111 0 -179.5 66.5t-68.5 171.5zM418 1300q0 -35 21.5 -56t62.5 -21q45 0 82 30.5t47 73.5q4 25 4 33q0 35 -21.5 54.5t-66.5 19.5 q-49 0 -89 -39t-40 -95z" />
<glyph unicode="&#x2db;" horiz-adv-x="598" d="M-117 -287q0 29 4 45q18 80 68.5 141.5t126.5 100.5h373q-98 -45 -147.5 -82t-57.5 -78q-6 -25 10 -41t47 -16q51 0 107 24l-47 -221q-113 -33 -244 -32q-111 0 -175.5 39.5t-64.5 119.5z" />
<glyph unicode="&#x2dc;" horiz-adv-x="931" d="M186 1169l62 289q90 84 237 84q45 0 88 -12t111 -39q61 -25 103 -38t87 -13q133 0 240 100l-59 -287q-90 -84 -238 -84q-51 0 -97 13.5t-112 40.5q-59 25 -99 37t-83 12q-129 0 -240 -103z" />
<glyph unicode="&#x2dd;" horiz-adv-x="1161" d="M186 1167l217 367h398l-269 -367h-346zM731 1167l217 367h395l-266 -367h-346z" />
<glyph unicode="&#x300;" d="M-887 1528h412l63 -369h-362z" />
<glyph unicode="&#x301;" d="M-776 1159l219 369h412l-269 -369h-362z" />
<glyph unicode="&#x302;" d="M-365 1184l377 352h338l228 -352h-342l-89 145l-149 -145h-363z" />
<glyph unicode="&#x303;" d="M-950 1169l61 289q90 84 238 84q45 0 88 -12t110 -39q61 -25 103.5 -38t87.5 -13q131 0 237 100l-59 -287q-86 -84 -235 -84q-51 0 -97.5 13.5t-111.5 40.5q-59 25 -99.5 37t-83.5 12q-129 0 -239 -103z" />
<glyph unicode="&#x304;" d="M-246 1176l51 241h727l-51 -241h-727z" />
<glyph unicode="&#x306;" d="M-227 1432q0 45 12 100h293q-6 -25 -6 -47q0 -76 73 -76q92 0 117 123h316q-37 -176 -162 -276.5t-316 -100.5q-159 0 -243 72.5t-84 204.5z" />
<glyph unicode="&#x307;" d="M-37 1290q0 53 31 100.5t80 76t100 28.5q59 0 96 -38t37 -95q0 -82 -62.5 -142.5t-142.5 -60.5q-59 0 -99 37t-40 94z" />
<glyph unicode="&#x308;" d="M-276 1290q0 53 31.5 100.5t79.5 76t97 28.5q59 0 97.5 -38t38.5 -95q0 -82 -63.5 -142.5t-143.5 -60.5q-60 0 -98.5 37t-38.5 94zM205 1290q0 53 30.5 100.5t80 76t100.5 28.5q57 0 95 -38t38 -95q0 -82 -63.5 -142.5t-141.5 -60.5q-59 0 -99 37t-40 94z" />
<glyph unicode="&#x309;" d="M-836 1434l37 172q121 37 275 36q150 0 225.5 -49t75.5 -133q0 -14 -4 -43q-18 -76 -79 -128t-163 -68l-12 -62h-340l30 148q201 0 201 92q0 55 -115 55q-35 0 -72.5 -6t-58.5 -14z" />
<glyph unicode="&#x30a;" d="M-150 1268q0 29 7 59q29 131 129 216t239 85q111 0 180.5 -66.5t69.5 -170.5q0 -29 -6 -64q-27 -129 -130 -214t-241 -85q-110 0 -179 67.5t-69 172.5zM55 1300q0 -35 21.5 -56t62.5 -21q45 0 82 30.5t47 73.5q4 25 4 33q0 35 -21.5 54.5t-66.5 19.5q-49 0 -89 -39 t-40 -95z" />
<glyph unicode="&#x30b;" d="M-465 1167l217 367h395l-268 -367h-344zM78 1167l217 367h395l-266 -367h-346z" />
<glyph unicode="&#x30c;" d="M-289 1536h342l88 -145l150 145h362l-379 -352h-337z" />
<glyph unicode="&#x31b;" d="M-106 1022l57 281q88 0 131 38.5t61 120.5l15 68h325l-18 -94q-41 -188 -184.5 -301t-386.5 -113z" />
<glyph unicode="&#x323;" d="M-332 -295q0 53 31 99t80 74t100 28q57 0 94 -37t37 -94q0 -82 -62.5 -143.5t-140.5 -61.5q-61 0 -100 38t-39 97z" />
<glyph unicode="&#x324;" d="M-567 -295q0 53 31.5 99t80.5 74t99 28q59 0 97 -37t38 -94q0 -53 -30 -100.5t-78 -76t-99 -28.5q-59 0 -99 39t-40 96zM-96 -293q0 20 2 31q14 70 75.5 119t131.5 49q57 0 95 -37t38 -94q0 -53 -30 -100.5t-77 -76t-98 -28.5q-61 0 -99 39t-38 98z" />
<glyph unicode="&#x326;" d="M-829 -532l262 440h403l-315 -440h-350z" />
<glyph unicode="&#x327;" d="M-492 -477l35 164q20 -14 57.5 -22.5t71.5 -8.5q66 0 102 16.5t46 59.5q2 6 2 18q0 37 -45 54.5t-148 17.5l105 178h268l-57 -94q76 -10 114.5 -49t38.5 -101q0 -12 -4 -41q-23 -102 -118 -162.5t-250 -60.5q-146 0 -218 31z" />
<glyph unicode="&#x328;" d="M-410 -287q0 29 4 45q18 80 68.5 141.5t126.5 100.5h373q-98 -45 -147.5 -82t-57.5 -78q-6 -25 10.5 -41t46.5 -16q51 0 107 24l-47 -221q-113 -33 -244 -32q-111 0 -175.5 39.5t-64.5 119.5z" />
<glyph unicode="&#x32e;" d="M-535 -207q0 45 13 101h295q-6 -25 -6 -48q0 -76 73 -75q90 0 115 123h315q-37 -176 -161.5 -276.5t-313.5 -100.5q-160 0 -245 72.5t-85 203.5z" />
<glyph unicode="&#x331;" d="M-530 -352l51 241h727l-51 -241h-727z" />
<glyph unicode="&#x394;" horiz-adv-x="1406" d="M-61 0l61 291l743 1171h334l248 -1171l-61 -291h-1325zM434 352h512l-129 600z" />
<glyph unicode="&#x3a9;" horiz-adv-x="1636" d="M-61 0l73 350h191q-53 59 -82 139t-29 170q0 70 14 129q43 205 162 356.5t307.5 234.5t432.5 83q193 0 344 -68.5t235 -192.5t84 -283q0 -66 -14 -130q-29 -137 -101.5 -247.5t-179.5 -190.5h191l-74 -350h-707l66 311q299 156 358 410q16 72 17 123q0 109 -68.5 164 t-218.5 55q-168 0 -274.5 -90t-141.5 -252q-10 -55 -10 -90q0 -193 197 -320l-66 -311h-706z" />
<glyph unicode="&#x3bc;" horiz-adv-x="1259" d="M-115 -449l303 1432h361l-121 -563q-8 -33 -8 -66q0 -55 30.5 -79.5t94.5 -24.5q70 0 134 32.5t116 96.5l129 604h360l-209 -983h-348l23 106q-80 -68 -177.5 -102.5t-195.5 -34.5q-31 0 -43 2l-90 -420h-359z" />
<glyph unicode="&#x3c0;" horiz-adv-x="1370" d="M47 614l80 369h1237l-80 -369h-135l-43 -204q-6 -33 -6 -56q0 -35 18.5 -50t63.5 -15q61 0 135 39l-66 -308q-119 -51 -272 -51q-148 0 -226.5 76t-78.5 211q0 51 12 113l51 245h-143l-129 -614h-412l129 614h-135z" />
<glyph unicode="&#xe01;" horiz-adv-x="1355" d="M31 0l131 625l-64 182q330 319 725 319q238 0 369 -99t131 -265q0 -41 -10 -96l-142 -666h-409l133 635q8 35 8 67q0 57 -34.5 81t-114.5 24q-129 0 -228 -64l45 -127l-129 -616h-411z" />
<glyph unicode="&#xe02;" horiz-adv-x="1292" d="M23 297q0 31 6 63l10 54q14 78 53 134t101 124q35 37 53 61.5t24 48.5l2 15q0 35 -49 34h-108l55 265h379q84 0 128 -39t44 -107q0 -31 -4 -47q-14 -68 -46 -116t-89 -109q-51 -57 -79 -97t-38 -92l-8 -40q-8 -49 -8 -66q0 -51 32.5 -73.5t110.5 -22.5q100 0 144 42 t63 128l135 639h405l-133 -625q-49 -242 -213 -372t-469 -130q-235 0 -368 90.5t-133 237.5z" />
<glyph unicode="&#xe03;" horiz-adv-x="1331" d="M63 295q0 20 9 65l12 56q14 70 53 130t77 100t116 116q-33 -12 -84 -12t-84 31.5t-33 88.5q0 29 4 45l37 181h268l-14 -72q-2 -8 -2 -20q0 -33 39 -33q33 0 57 16l23 109h284l-34 -162q-14 -68 -51.5 -121t-100.5 -125q-59 -66 -89 -106.5t-40 -89.5l-10 -46 q-8 -31 -8 -63q0 -49 32.5 -72.5t106.5 -23.5q94 0 142 44t65 124l135 641h405l-133 -625q-53 -252 -208.5 -377t-473.5 -125q-164 0 -276.5 44t-168 118t-55.5 164z" />
<glyph unicode="&#xe04;" horiz-adv-x="1366" d="M-20 0l137 647q51 242 230 360.5t470 118.5q242 0 378 -98t136 -274q0 -51 -12 -107l-137 -647h-412l131 618q6 31 6 60q0 129 -157 129q-102 0 -154.5 -45t-75.5 -144l-20 -92q29 23 68.5 35t84.5 12h144l-60 -280h-164q-59 0 -98 -32t-51 -93l-35 -168h-409z" />
<glyph unicode="&#xe05;" horiz-adv-x="1366" d="M-20 0l161 766q76 360 426 360q170 0 221 -92q43 45 115 68.5t156 23.5q145 0 220 -73.5t75 -194.5q0 -37 -11 -92l-161 -766h-412l152 719q6 25 6 41q0 47 -49 47q-31 0 -50.5 -21.5t-35.5 -62.5h-119q2 41 -9.5 62.5t-41.5 21.5q-37 0 -54.5 -20.5t-27.5 -67.5 l-41 -193q27 20 67.5 33.5t85.5 13.5h144l-60 -280h-164q-59 0 -98 -34t-51 -91l-35 -168h-409z" />
<glyph unicode="&#xe06;" horiz-adv-x="1325" d="M-4 0l88 416q16 76 52 135t77 101t117 110q-33 -12 -84 -12q-53 0 -86 29.5t-33 86.5q0 23 6 49l37 181h268l-14 -72q-2 -8 -2 -20q0 -33 39 -33q33 0 57 16l23 109h280l-35 -162q-14 -66 -50 -118t-101 -128q-55 -59 -87 -103t-42 -93l-21 -95q31 -111 152 -110 q84 0 127 36.5t59 110.5l140 662h409l-145 -688q-43 -199 -172 -319t-346 -120q-101 0 -184 35t-126 98l-20 -102h-383z" />
<glyph unicode="&#xe07;" horiz-adv-x="1333" d="M141 958h404l55 -665q106 0 183 79t108 220q10 43 10 94q0 63 -30.5 93t-96.5 30q-59 0 -119 -23l66 308q45 14 105.5 23t113.5 9q197 0 296 -93t99 -267q0 -84 -20 -174q-61 -289 -249.5 -440.5t-487.5 -151.5h-353z" />
<glyph unicode="&#xe08;" horiz-adv-x="1218" d="M76 602h407l13 -309q86 0 165.5 65.5t102.5 180.5q8 39 8 79q0 96 -70.5 143.5t-240.5 47.5q-90 0 -193.5 -20.5t-173.5 -53.5l68 316q92 35 214 55t240 20q268 0 428 -118.5t160 -329.5q0 -68 -14 -131q-55 -262 -246.5 -404.5t-484.5 -142.5h-361z" />
<glyph unicode="&#xe09;" horiz-adv-x="1284" d="M16 293q0 55 13 113l43 210h411l-39 -184q-8 -45 -8 -59q0 -45 29 -65.5t94 -20.5q61 0 118.5 29.5t96.5 80.5l33 154q12 53 12 92q0 88 -66.5 127t-230.5 39q-96 0 -228 -21.5t-200 -52.5l68 316q90 33 232.5 54t262.5 21q299 0 439.5 -100t140.5 -299q0 -74 -18 -160 l-119 -567h-387l20 102q-72 -61 -172 -97t-209 -36q-157 0 -246.5 87t-89.5 237z" />
<glyph unicode="&#xe0a;" horiz-adv-x="1312" d="M23 301q0 29 6 59l10 54q14 78 51 135t96 123q33 37 50.5 61.5t23.5 48.5l2 15q0 35 -49 34h-98l55 265h369q84 0 129 -39t45 -105q0 -25 -6 -49q-14 -66 -45 -112t-84 -111q-49 -57 -76 -97t-37 -94l-8 -40q-6 -33 -6 -60q0 -53 32.5 -77.5t108.5 -24.5q96 0 145 48 t70 144q12 55 12 99q0 59 -28.5 86.5t-88.5 27.5l39 176l234 258h432l-287 -313q51 -47 77 -101.5t26 -125.5q0 -49 -13 -115q-104 -502 -686 -502q-149 0 -263 42t-176 118t-62 172z" />
<glyph unicode="&#xe0b;" horiz-adv-x="1355" d="M68 297q0 31 6 63l12 56q18 88 72.5 159.5t105.5 122t66 64.5q-33 -12 -86 -12t-85 31.5t-32 86.5q0 29 4 43l39 185h266l-14 -72q-2 -8 -2 -20q0 -33 39 -33q33 0 57 16l23 109h274l-35 -162q-18 -80 -55 -138.5t-96 -125.5q-49 -55 -76 -93t-37 -85l-10 -43 q-10 -45 -10 -68q0 -51 33.5 -72.5t107.5 -21.5q92 0 144 48t71 138q14 72 14 107q0 113 -104 112l39 176l219 258h432l-272 -313q90 -76 90 -215q0 -61 -15 -127q-49 -238 -216 -370t-470 -132q-147 0 -260.5 42t-176 116t-62.5 170z" />
<glyph unicode="&#xe0c;" horiz-adv-x="2045" d="M80 195q0 39 8 77l74 353l-64 182q330 319 709 319q225 0 351 -99t126 -263q0 -55 -10 -98l-57 -269q14 -51 53 -80.5t98 -29.5q80 0 119 35.5t55 111.5l139 662h412l-145 -688q-47 -215 -169 -327t-335 -112q-201 0 -307 133l-21 -102h-385l133 635q8 33 8 67 q0 53 -31.5 79t-101.5 26q-115 0 -213 -64l45 -127l-53 -256q-4 -25 -4 -34q0 -23 14.5 -34t46.5 -11h95l-60 -281h-315q-106 0 -160.5 51t-54.5 144z" />
<glyph unicode="&#xe0d;" horiz-adv-x="2076" d="M80 195q0 39 8 77l74 353l-64 182q330 319 709 319q227 0 354 -97t127 -255q0 -45 -12 -98l-6 -25q-14 -57 -15 -98q0 -59 34 -81.5t110 -22.5q92 0 142 50t73 152l94 445h412l-105 -494q-16 -80 -44.5 -132t-80.5 -97q57 -72 58 -168q0 -29 -6 -64q-70 -342 -670 -342 q-129 0 -239.5 19.5t-182.5 56.5l59 285q98 -53 199.5 -76t218.5 -23q127 0 202 26t87 77q4 14 0 26q-129 -41 -281 -40q-227 0 -356 96t-129 266q0 49 8 90l6 33q8 53 8 72q0 53 -29.5 76.5t-103.5 23.5q-115 0 -213 -64l45 -127l-53 -256q-4 -25 -4 -34q0 -23 14.5 -34 t46.5 -11h95l-60 -281h-315q-106 0 -160.5 51t-54.5 144z" />
<glyph unicode="&#xe0e;" horiz-adv-x="1378" d="M-61 0l59 281h78q43 0 61.5 16t28.5 59l57 269l-104 182q147 152 333.5 235.5t393.5 83.5q233 0 366.5 -101t133.5 -267q0 -37 -11 -92l-237 -1119h-340q-45 47 -118 72t-161 25q-98 0 -200.5 -30t-182.5 -83l64 301q80 51 179 76.5t202 25.5q61 0 119.5 -12t99.5 -33 l158 746q8 33 8 65q0 55 -36 81t-114 26q-117 0 -217 -62l74 -129l-72 -342q-27 -127 -110.5 -200.5t-210.5 -73.5h-301z" />
<glyph unicode="&#xe0f;" horiz-adv-x="1378" d="M-61 0l59 281h78q43 0 61.5 16t28.5 59l57 269l-104 182q147 152 333.5 235.5t393.5 83.5q152 0 265.5 -46t174 -130t60.5 -194q0 -39 -11 -90l-237 -1119h-359l-188 125q-63 -68 -139 -99.5t-176 -31.5q-74 0 -138.5 19.5t-99.5 54.5l61 291q78 -63 197 -64 q59 0 108.5 30t77.5 87h183l131 -86l162 762q8 45 8 63q0 55 -35 82t-115 27q-117 0 -217 -62l74 -129l-72 -342q-27 -127 -110.5 -200.5t-210.5 -73.5h-301z" />
<glyph unicode="&#xe10;" horiz-adv-x="1288" d="M-137 -385l55 270q41 -33 88 -48t109 -15q59 0 107 30.5t81 90.5h178l133 -90l27 124h408l-91 -430h-354l-188 127q-66 -70 -140.5 -101.5t-177.5 -31.5q-75 0 -137.5 19.5t-97.5 54.5zM76 602h407l13 -309q86 0 165.5 65.5t102.5 180.5q10 45 10 77q0 92 -72.5 142.5 t-240.5 50.5q-90 0 -193.5 -20.5t-173.5 -53.5l68 316q92 35 214 55t240 20q164 0 299 -49l109 101h438l-309 -291q51 -92 51 -209q0 -66 -14 -131q-37 -172 -140.5 -296t-256 -187.5t-334.5 -63.5h-361z" />
<glyph unicode="&#xe11;" horiz-adv-x="1339" d="M6 0l84 401q25 117 80 191t158 170q-33 -12 -84 -12q-53 0 -85 29.5t-32 86.5q0 23 6 49l37 181h274l-14 -72q-2 -8 -2 -20q0 -33 37 -33q33 0 57 16l23 109h276l-14 -70q59 45 138 72.5t153 27.5q125 0 182 -50t57 -156q0 -61 -14 -127l-168 -793h-410l152 719 q4 20 4 31q0 55 -59 55q-76 0 -144 -62q-25 -41 -75 -102q-49 -59 -75 -105.5t-44 -129.5l-86 -406h-412z" />
<glyph unicode="&#xe12;" horiz-adv-x="2154" d="M35 397q0 61 16 140q61 289 205.5 439t366.5 150q72 0 125 -25.5t81 -66.5q45 45 119 68.5t158 23.5q150 0 230.5 -72.5t80.5 -195.5q0 -35 -10 -86l-80 -375q16 -53 54 -81.5t96 -28.5q82 0 120.5 35.5t55.5 111.5l139 662h410l-146 -688q-43 -205 -172 -322t-332 -117 q-201 0 -307 133l-20 -102h-379l151 719q4 25 4 35q0 53 -51 53q-39 0 -61.5 -23.5t-40.5 -68.5h-146q2 45 -9 68.5t-42 23.5q-53 0 -100 -66.5t-76 -203.5q-12 -55 -12 -101q0 -76 43 -112.5t141 -36.5q72 0 141 26l-65 -313q-98 -31 -223 -31q-127 0 -232.5 49.5 t-169 145.5t-63.5 233z" />
<glyph unicode="&#xe13;" horiz-adv-x="2041" d="M80 195q0 39 8 77l74 353l-64 182q330 319 709 319q225 0 352 -96t127 -262q0 -49 -12 -102l-49 -232q-8 -45 -8 -59q0 -47 27.5 -67.5t90.5 -20.5q113 0 197 110l147 699h410l-231 -1096h-385l20 102q-160 -133 -365 -133q-151 0 -237 90.5t-86 235.5q0 55 12 113 l47 227q8 35 8 70q0 53 -30.5 77.5t-102.5 24.5q-115 0 -213 -64l45 -127l-53 -256q-4 -25 -4 -34q0 -23 14.5 -34t46.5 -11h95l-60 -281h-315q-106 0 -160.5 51t-54.5 144z" />
<glyph unicode="&#xe14;" horiz-adv-x="1445" d="M35 391q0 61 16 139q63 295 258 445.5t541 150.5q270 0 408.5 -117.5t138.5 -312.5q0 -68 -15 -127l-120 -569h-412l121 571q8 39 8 78q0 80 -47 119t-148 39q-125 0 -201.5 -66.5t-107.5 -210.5q-12 -55 -12 -96q0 -76 44 -111.5t140 -35.5q72 0 141 26l-65 -313 q-98 -31 -223 -31q-127 0 -233.5 48.5t-169 143.5t-62.5 230z" />
<glyph unicode="&#xe15;" horiz-adv-x="1445" d="M35 391q0 63 16 146q63 297 199.5 443t374.5 146q74 0 128 -25.5t81 -66.5q45 45 118.5 68.5t157.5 23.5q154 0 239 -76.5t85 -199.5q0 -43 -9 -78l-163 -772h-412l151 719q4 25 5 35q0 53 -52 53q-39 0 -62.5 -23.5t-41.5 -68.5h-145q4 92 -58 92q-53 0 -98 -66.5 t-74 -203.5q-12 -57 -12 -103q0 -78 43 -112.5t141 -34.5q72 0 141 26l-65 -313q-98 -31 -223 -31q-205 0 -335 109.5t-130 312.5z" />
<glyph unicode="&#xe16;" horiz-adv-x="1355" d="M80 195q0 39 8 77l74 353l-64 182q330 319 725 319q236 0 368 -100t132 -266q0 -39 -10 -94l-142 -666h-409l133 635q8 31 8 63q0 55 -36 82t-113 27q-129 0 -228 -64l45 -127l-53 -256q-4 -25 -4 -34q0 -23 14.5 -34t46.5 -11h99l-60 -281h-319q-107 0 -161 51t-54 144z " />
<glyph unicode="&#xe17;" horiz-adv-x="1323" d="M-20 0l231 1096h387l-23 -105q78 63 180.5 99t198.5 36q170 0 258 -84t88 -223q0 -41 -10 -98l-151 -721h-412l141 666q6 29 6 51q0 45 -27.5 67.5t-88.5 22.5q-63 0 -120.5 -27.5t-100.5 -83.5l-148 -696h-409z" />
<glyph unicode="&#xe18;" horiz-adv-x="1171" d="M-2 252q0 29 6 55l29 127h405l-18 -84q-4 -25 -4 -31q0 -39 28.5 -56t90.5 -17q76 0 109.5 33.5t33.5 82.5q0 43 -48 67t-184 52q-176 37 -262 92.5t-86 155.5q0 18 8 64q37 170 192 251.5t407 81.5q135 0 272 -25.5t201 -64.5l-64 -299q-57 45 -172 75t-225 30 q-94 0 -141.5 -12.5t-47.5 -43.5q0 -20 30 -31.5t110 -27.5q84 -16 143 -33q162 -43 229.5 -105.5t67.5 -160.5q0 -51 -10 -94q-35 -164 -187.5 -264.5t-435.5 -100.5q-229 0 -353 79t-124 204z" />
<glyph unicode="&#xe19;" horiz-adv-x="1323" d="M55 305q0 59 11 103l145 688h410l-140 -662q-6 -27 -6 -47q0 -51 31 -75.5t92 -24.5q68 0 119 27.5t94 82.5l147 699h412l-231 -1096h-389l20 102q-74 -61 -174 -97t-201 -36q-157 0 -248.5 94.5t-91.5 241.5z" />
<glyph unicode="&#xe1a;" horiz-adv-x="1357" d="M70 373q0 53 12 108l129 615h410l-127 -604q-10 -57 -11 -89q0 -66 36 -91t116 -25q106 0 156.5 45t74.5 160l127 604h412l-137 -647q-35 -162 -112 -266.5t-219 -159t-370 -54.5q-161 0 -274 53.5t-168 144.5t-55 206z" />
<glyph unicode="&#xe1b;" horiz-adv-x="1357" d="M70 373q0 53 12 108l129 615h410l-127 -604q-10 -57 -11 -89q0 -66 36 -91t116 -25q106 0 156.5 45t74.5 160l205 970h412l-215 -1013q-35 -162 -112 -266.5t-219 -159t-370 -54.5q-161 0 -274 53.5t-168 144.5t-55 206z" />
<glyph unicode="&#xe1c;" horiz-adv-x="1392" d="M-20 0l174 819q27 129 111.5 203t213.5 74h291l-59 -283h-74q-43 0 -66.5 -18.5t-31.5 -61.5l-54 -250l193 209h123l104 -209l129 613h406l-232 -1096h-348l-178 344l-322 -344h-380z" />
<glyph unicode="&#xe1d;" horiz-adv-x="1392" d="M-20 0l174 819q27 129 111.5 203t213.5 74h291l-59 -283h-74q-43 0 -66.5 -18.5t-31.5 -61.5l-54 -250l193 209h123l104 -209l207 979h406l-310 -1462h-348l-178 344l-322 -344h-380z" />
<glyph unicode="&#xe1e;" horiz-adv-x="1650" d="M150 1096h409l-6 -539l256 539h289l26 -539l224 539h411l-536 -1096h-334l-37 541l-262 -541h-367z" />
<glyph unicode="&#xe1f;" horiz-adv-x="1607" d="M150 1096h409l-6 -539l256 539h289l26 -539l383 905h389l-673 -1462h-334l-37 541l-262 -541h-367z" />
<glyph unicode="&#xe20;" horiz-adv-x="1368" d="M-72 0l60 281h78q45 0 63 16t27 59l57 269l-104 182q147 152 333.5 235.5t393.5 83.5q154 0 266 -47t172.5 -132t60.5 -193q0 -37 -10 -88l-141 -666h-410l133 635q8 33 8 65q0 55 -35.5 81t-113.5 26q-117 0 -217 -62l74 -129l-72 -342q-27 -127 -111 -200.5t-211 -73.5 h-301z" />
<glyph unicode="&#xe21;" horiz-adv-x="1323" d="M-20 0l231 1096h410l-148 -699q18 -55 57 -82.5t105 -27.5q84 0 126 35.5t58 111.5l139 662h412l-145 -688q-41 -199 -168 -319t-352 -120q-99 0 -184 36t-134 97l-20 -102h-387z" />
<glyph unicode="&#xe22;" horiz-adv-x="1355" d="M0 260q0 37 8 70q31 154 176 223q-37 29 -58.5 76t-21.5 102q0 31 7 57q33 154 161.5 246t352.5 92q59 0 125.5 -10t99.5 -20l-62 -291q-27 14 -64.5 23.5t-68.5 9.5q-63 0 -96 -27t-33 -78q0 -59 95 -59h139l-49 -240h-129q-127 0 -146 -86q-2 -6 -2 -20q0 -78 164 -78 q113 0 173 45t81 141l139 662h412l-139 -660q-47 -217 -222.5 -343t-502.5 -126q-252 0 -395.5 73t-143.5 218z" />
<glyph unicode="&#xe23;" horiz-adv-x="1087" d="M-35 59l64 303q76 -51 184.5 -83.5t196.5 -32.5q174 0 174 65q0 27 -39 46.5t-133 50.5l-56 18q-137 47 -200.5 108.5t-63.5 157.5q0 35 10 82q37 172 184.5 262t383.5 90q131 0 246.5 -24.5t177.5 -63.5l-64 -305q-53 45 -149.5 75t-184.5 30q-158 0 -172 -64 q-6 -31 32 -50t126 -46l78 -25q141 -47 199.5 -108.5t58.5 -149.5q0 -45 -12 -98q-33 -158 -173.5 -243t-416.5 -85q-127 0 -255 22.5t-196 67.5z" />
<glyph unicode="&#xe24;" horiz-adv-x="1355" d="M80 195q0 39 8 77l74 353l-64 182q330 319 725 319q236 0 368 -100t132 -266q0 -39 -10 -94l-228 -1067h-409l219 1036q8 31 8 63q0 55 -36 82t-113 27q-129 0 -228 -64l45 -127l-53 -256l-4 -34q0 -25 13.5 -35t45.5 -10h101l-60 -281h-319q-106 0 -160.5 51t-54.5 144z " />
<glyph unicode="&#xe25;" horiz-adv-x="1314" d="M0 254q0 33 10 84q39 178 177.5 273.5t353.5 95.5q84 0 171 -15.5t144 -42.5l6 27q4 25 4 37q0 59 -59 88.5t-203 29.5q-100 0 -199.5 -21.5t-185.5 -57.5l62 292q80 37 207.5 59.5t267.5 22.5q162 0 279.5 -48t180 -134t62.5 -196q0 -47 -8 -86l-140 -662h-411l80 379 q-39 23 -92.5 36t-108.5 13q-80 0 -119 -24.5t-49 -77.5q-4 -20 -4 -29q0 -35 27.5 -52.5t87.5 -17.5q55 0 106 21l-51 -248q-100 -31 -244 -31q-155 0 -253.5 75t-98.5 210z" />
<glyph unicode="&#xe26;" horiz-adv-x="1368" d="M-72 0l60 281h78q45 0 63 16t27 59l57 269l-104 182q147 152 333.5 235.5t393.5 83.5q236 0 367.5 -102t131.5 -268q0 -39 -10 -90l-227 -1067h-410l219 1036q8 45 8 61q0 111 -149 111q-117 0 -217 -62l74 -129l-72 -342q-27 -127 -111 -200.5t-211 -73.5h-301z" />
<glyph unicode="&#xe27;" horiz-adv-x="1138" d="M-49 61l67 316q113 -90 316 -90q139 0 231 63.5t121 196.5q10 55 10 88q0 90 -60.5 131t-191.5 41q-203 0 -346 -86l68 315q82 43 198.5 66.5t239.5 23.5q244 0 383 -112.5t139 -317.5q0 -78 -16 -149q-59 -283 -242.5 -430.5t-509.5 -147.5q-133 0 -238.5 23.5 t-168.5 68.5z" />
<glyph unicode="&#xe28;" horiz-adv-x="1400" d="M-20 0l137 647q51 242 230 360.5t470 118.5q111 0 193 -20l75 72h441l-250 -234q53 -82 53 -192q0 -57 -10 -105l-137 -647h-412l131 618q6 31 6 60q0 129 -157 129q-102 0 -154.5 -45t-75.5 -144l-20 -92q29 23 68.5 35t84.5 12h144l-60 -280h-164q-59 0 -98 -32 t-51 -93l-35 -168h-409z" />
<glyph unicode="&#xe29;" horiz-adv-x="1380" d="M70 373q0 53 12 108l129 615h410l-127 -604q-10 -57 -11 -89q0 -66 36 -91t116 -25q106 0 156.5 45t74.5 160l6 32h-180l60 281h180l61 291h412l-62 -291h91l-60 -281h-90l-16 -75q-35 -162 -112 -266.5t-219 -159t-370 -54.5q-161 0 -274 53.5t-168 144.5t-55 206z" />
<glyph unicode="&#xe2a;" horiz-adv-x="1343" d="M0 254q0 33 10 84q39 178 177.5 273.5t353.5 95.5q84 0 171 -15.5t144 -42.5l6 27q4 25 4 37q0 59 -59 88.5t-203 29.5q-100 0 -199.5 -21.5t-185.5 -57.5l62 292q80 37 207.5 59.5t267.5 22.5q111 0 202 -24l80 76h439l-258 -242q59 -84 59 -193q0 -43 -8 -81l-140 -662 h-411l80 379q-39 23 -92.5 36t-108.5 13q-80 0 -119 -24.5t-49 -77.5q-4 -20 -4 -29q0 -35 27.5 -52.5t87.5 -17.5q55 0 106 21l-51 -248q-100 -31 -244 -31q-155 0 -253.5 75t-98.5 210z" />
<glyph unicode="&#xe2b;" horiz-adv-x="1331" d="M-20 0l231 1096h410l-64 -305l365 305h464l-342 -289q102 -43 150.5 -107.5t48.5 -158.5q0 -51 -12 -111l-90 -430h-412l82 387q8 39 8 74q0 41 -19.5 62.5t-64.5 31.5l-274 -217l-72 -338h-409z" />
<glyph unicode="&#xe2c;" horiz-adv-x="1406" d="M-20 0l231 1096h403l-129 -607l199 218h125l102 -218l64 295q10 47 10 76q0 57 -36 83t-118 26l41 188l269 305h461l-306 -334q55 -35 80 -79.5t25 -106.5q0 -51 -17 -129l-172 -813h-348l-178 356l-326 -356h-380z" />
<glyph unicode="&#xe2d;" horiz-adv-x="1288" d="M-49 66l123 579h569l-51 -248h-178l-21 -94q45 -20 137 -20q133 0 205 65.5t101 198.5q10 51 10 84q0 92 -75 135t-253 43q-104 0 -213.5 -19.5t-193.5 -56.5l65 316q94 35 226.5 56t269.5 21q178 0 314 -56t211 -159.5t75 -244.5q0 -57 -12 -119q-61 -285 -249 -431.5 t-548 -146.5q-148 0 -288 27t-224 70z" />
<glyph unicode="&#xe2e;" horiz-adv-x="1351" d="M-49 66l123 579h569l-51 -248h-178l-21 -94q45 -20 137 -20q133 0 205 65.5t101 198.5q10 51 10 84q0 92 -75 135t-253 43q-104 0 -213.5 -19.5t-193.5 -56.5l65 316q94 35 226.5 56t269.5 21t254 -34l92 86h440l-272 -254q86 -111 86 -260q0 -55 -12 -117 q-61 -285 -249 -431.5t-548 -146.5q-148 0 -288 27t-224 70z" />
<glyph unicode="&#xe2f;" horiz-adv-x="1267" d="M90 680q0 41 8 80q39 180 166 273t316 93q141 0 229 -32l-53 -246q-41 18 -99 18q-111 0 -133 -96q-4 -25 -4 -31q0 -35 25.5 -50t85.5 -15q100 0 194 49l78 373h412l-232 -1096h-411l94 453q-63 -27 -149.5 -43.5t-167.5 -16.5q-160 0 -259.5 76t-99.5 211z" />
<glyph unicode="&#xe30;" horiz-adv-x="735" d="M-12 209q0 27 6 57l47 217h365l-23 -98v-10q0 -33 39 -33h242l-58 -270h-432q-186 0 -186 137zM102 752q0 18 9 59l45 217h364l-20 -98l-2 -12q0 -31 41 -31h241l-59 -271h-432q-187 1 -187 136z" />
<glyph unicode="&#xe31;" d="M-547 1350q0 25 6 55l45 213h367l-23 -115q-2 -6 -2 -16q0 -27 37 -27h424l-53 -254h-612q-189 1 -189 144z" />
<glyph unicode="&#xe32;" horiz-adv-x="847" d="M57 760l66 305q51 25 142 43t167 18q193 0 290 -84t97 -239q0 -66 -14 -131l-141 -672h-412l135 645q8 35 8 70q0 49 -31.5 70.5t-109.5 21.5q-94 0 -197 -47z" />
<glyph unicode="&#xe33;" horiz-adv-x="851" d="M-365 1378q0 27 7 54q25 115 112.5 191.5t208.5 76.5q94 0 154.5 -59.5t60.5 -151.5q0 -27 -6 -57q-25 -113 -112 -189t-207 -76q-95 0 -156.5 60.5t-61.5 150.5zM-166 1407q0 -51 57 -51q29 0 54.5 22.5t31.5 51.5q2 8 3 22q0 23 -14.5 37t-43.5 14q-35 0 -61.5 -28.5 t-26.5 -67.5zM61 760l66 305q51 25 142 43t167 18q193 0 290 -84t97 -239q0 -66 -14 -131l-141 -672h-412l135 645q8 35 8 70q0 49 -31.5 70.5t-109.5 21.5q-94 0 -197 -47z" />
<glyph unicode="&#xe34;" d="M-938 1206l53 254h1008l-53 -254h-1008z" />
<glyph unicode="&#xe35;" d="M-938 1206l53 254h637l45 211h371l-98 -465h-1008z" />
<glyph unicode="&#xe36;" d="M-938 1206l53 254h557q23 104 104 173t191 69q94 0 147.5 -53.5t53.5 -137.5t-42 -154.5t-113.5 -110.5t-159.5 -40h-791zM-162 1438q0 -27 15.5 -43.5t46.5 -16.5q34 0 59 21.5t31 54.5q2 6 2 19q0 25 -16.5 41t-45.5 16q-31 0 -56.5 -22.5t-33.5 -53.5q-2 -6 -2 -16z " />
<glyph unicode="&#xe37;" d="M-938 1206l53 254h348l45 211h281l-45 -211h100l45 211h279l-98 -465h-1008z" />
<glyph unicode="&#xe38;" d="M-752 -330l56 254h260q100 0 146 -38t46 -117q0 -35 -10 -91l-55 -262h-367l39 183q4 20 4 26q0 25 -14.5 35t-46.5 10h-58z" />
<glyph unicode="&#xe39;" d="M-1057 -272l43 196h285q53 0 76.5 -19.5t23.5 -58.5q0 -20 -6 -47l-24 -108q-2 -6 -3 -17q0 -39 50 -39q53 0 63 56l51 233h295l-57 -268q-55 -250 -387 -250q-154 0 -238 56.5t-84 148.5q0 10 4 35l7 35l4 20q0 27 -37 27h-66z" />
<glyph unicode="&#xe3a;" d="M-633 -313q0 61 35 116.5t92 89t119 33.5q70 0 116 -46t46 -113q0 -61 -36 -117t-93.5 -88.5t-116.5 -32.5q-72 0 -117 45t-45 113z" />
<glyph unicode="&#xe3f;" horiz-adv-x="1376" d="M-20 0l303 1432h354l45 210h295l-45 -210h98q168 0 277.5 -82t109.5 -230q0 -37 -10 -88q-18 -86 -72.5 -161.5t-136.5 -122.5q70 -33 103.5 -85.5t33.5 -127.5q0 -51 -10 -99q-45 -207 -193.5 -321.5t-371.5 -114.5h-131l-45 -211h-295l45 211h-354zM467 301h238 q84 0 129 30.5t61 106.5q4 16 4 43q0 51 -34 76t-105 25h-234zM588 877h213q70 0 112.5 30.5t57.5 98.5q6 29 6 47q0 43 -28.5 60t-94.5 17h-211z" />
<glyph unicode="&#xe40;" horiz-adv-x="669" d="M29 193q0 41 8 79l174 824h410l-156 -736q-4 -25 -4 -30q0 -27 15.5 -38t51.5 -11h68l-59 -281h-295q-105 0 -159 51t-54 142z" />
<glyph unicode="&#xe41;" horiz-adv-x="1286" d="M29 193q0 41 8 79l174 824h410l-156 -736q-4 -25 -4 -30q0 -27 15.5 -38t51.5 -11h64l-60 -281h-290q-105 0 -159 51t-54 142zM649 193q0 41 8 79l174 824h410l-156 -736q-4 -25 -4 -30q0 -27 15.5 -38t52.5 -11h63l-59 -281h-291q-104 0 -158.5 51t-54.5 142z" />
<glyph unicode="&#xe42;" horiz-adv-x="741" d="M111 195q0 39 8 77l151 715q10 43 11 96q0 78 -39 127.5t-123 79.5l53 250h813l-59 -283h-291q59 -68 59 -163q0 -55 -14 -113l-131 -621q-4 -25 -4 -30q0 -27 15 -38t50 -11h78l-59 -281h-305q-105 0 -159 51t-54 144z" />
<glyph unicode="&#xe43;" horiz-adv-x="667" d="M-4 193q0 41 8 79l92 441q20 92 69.5 156.5t131.5 142.5q49 45 74.5 73.5t31.5 59.5q4 25 5 35q0 33 -21.5 48t-73.5 15q-59 0 -119.5 -23.5t-111.5 -62.5l68 318q76 41 174 63.5t200 22.5q162 0 248 -65.5t86 -176.5q0 -37 -8 -68q-18 -80 -61.5 -142t-118.5 -144 q-70 -76 -110 -133.5t-54 -126.5l-74 -345q-4 -25 -4 -30q0 -27 15.5 -38t52.5 -11h77l-59 -281h-305q-105 0 -159 51t-54 142z" />
<glyph unicode="&#xe44;" horiz-adv-x="741" d="M84 193q0 41 8 79l137 643q49 236 197 342h-313l59 283h813l-53 -250q-123 -45 -192.5 -137t-100.5 -233l-119 -560q-4 -25 -4 -30q0 -27 15.5 -38t52.5 -11h78l-60 -281h-305q-104 0 -158.5 51t-54.5 142z" />
<glyph unicode="&#xe45;" horiz-adv-x="847" d="M57 760l66 305q51 25 142 43t167 18q193 0 290 -84t97 -239q0 -66 -14 -131l-227 -1073h-412l221 1046q8 35 8 70q0 49 -31.5 70.5t-109.5 21.5q-94 0 -197 -47z" />
<glyph unicode="&#xe46;" horiz-adv-x="1374" d="M74 600q0 53 10 94q43 205 162 318.5t315 113.5q72 0 125 -25.5t82 -66.5q43 45 112.5 68.5t153.5 23.5q162 0 245 -73.5t83 -198.5q0 -35 -10 -90l-162 -764h-412l154 723q4 25 4 33q0 51 -53 51q-37 0 -60.5 -23.5t-40.5 -68.5h-145q2 45 -8.5 68.5t-42.5 23.5 q-70 0 -90 -100q-4 -14 -4 -39q0 -37 26.5 -54.5t91.5 -17.5q70 0 142 27l-66 -310q-102 -31 -223 -30q-164 0 -276.5 81.5t-112.5 235.5z" />
<glyph unicode="&#xe47;" d="M-852 1405q0 31 6 63q59 287 383 287h547l-43 -205h-518q-104 0 -105 -90q0 -45 60 -45q76 0 92 82h203q-2 -8 -2 -20q0 -53 77 -54h132l-48 -217h-118q-74 0 -125 22.5t-60 61.5q-29 -39 -98.5 -65.5t-144.5 -26.5q-113 0 -175.5 57.5t-62.5 149.5z" />
<glyph unicode="&#xe48;" d="M-338 1206l84 387h408l-84 -387h-408z" />
<glyph unicode="&#xe49;" d="M-590 1378l58 273h233q131 0 131 -99q0 -12 -4 -36l-12 -56h397l-53 -254h-649l28 135l2 15q0 23 -30 22h-101z" />
<glyph unicode="&#xe4a;" d="M-899 1305q0 47 12 102q25 121 107 198.5t186 77.5q63 0 96 -20.5t49 -58.5q74 74 179 73q150 0 149 -133q0 -29 -6 -63l-14 -62h12q23 0 33 11.5t14 37.5l41 195h205l-49 -236q-20 -96 -98 -158.5t-181 -62.5h-205l35 166q2 8 2 23q0 33 -28 32q-45 0 -58 -53l-8 -39 h-152l9 37q2 8 2 25q0 31 -29 30q-47 0 -68 -88q-4 -25 -4 -36q0 -55 21 -97h-236q-16 44 -16 99z" />
<glyph unicode="&#xe4b;" d="M-410 1298l48 226h96l18 90h391l-20 -90h96l-47 -226h-98l-19 -92h-391l21 92h-95z" />
<glyph unicode="&#xe4c;" d="M-547 1206l43 201q18 94 86 143t180 49h471l-55 -251h-282q-45 0 -56 -45l-20 -97h-367z" />
<glyph unicode="&#xe4d;" d="M-365 1399q0 27 7 53q25 115 112.5 191.5t208.5 76.5q94 0 154.5 -59t60.5 -152q0 -27 -6 -57q-25 -113 -112 -188.5t-207 -75.5q-95 0 -156.5 60.5t-61.5 150.5zM-166 1427q0 -51 57 -51q29 0 54.5 22.5t31.5 51.5q2 8 3 23q0 23 -14.5 37t-43.5 14q-35 0 -61.5 -29 t-26.5 -68z" />
<glyph unicode="&#xe4e;" d="M-473 1356q0 14 4 39q18 82 72.5 130t132.5 56q-10 20 -10 41q0 18 6 43q14 74 81.5 115t155.5 41q96 0 140 -31l-31 -148q-31 37 -80 37t-57 -37q-6 -33 45 -49l-31 -143q-49 18 -90 18q-72 0 -84 -57q-12 -55 61 -55q63 0 117 35l-31 -148q-33 -20 -86 -28.5t-104 -8.5 q-100 0 -155.5 40t-55.5 110z" />
<glyph unicode="&#xe4f;" horiz-adv-x="1124" d="M31 385q0 51 12 107q31 143 126 262.5t229 189.5t278 70q119 0 215 -54.5t151.5 -148.5t55.5 -213q0 -51 -13 -106q-31 -143 -126 -263t-230 -190t-276 -70q-117 0 -214.5 54.5t-152.5 149.5t-55 212zM270 414q0 -96 60.5 -153.5t173.5 -57.5q121 0 221 82t127 207 q8 35 8 75q0 96 -59.5 153.5t-175.5 57.5q-123 0 -221.5 -82t-124.5 -204q-8 -35 -9 -78zM319 426q0 20 9 66q20 102 104 169.5t184 67.5q96 0 145.5 -47t49.5 -127q0 -29 -6 -63q-23 -104 -106 -171t-183 -67q-96 0 -146.5 46t-50.5 126zM494 471q0 -23 15 -37t42 -14 q29 0 53.5 19.5t32.5 52.5q2 6 2 18q0 25 -14.5 38t-42.5 13q-31 0 -55.5 -19.5t-30.5 -49.5q-2 -8 -2 -21z" />
<glyph unicode="&#xe50;" horiz-adv-x="1193" d="M29 369q0 63 14 123q49 240 226 381t442 141q209 0 332.5 -109.5t123.5 -294.5q0 -57 -12 -118q-33 -156 -125 -275t-231.5 -183.5t-311.5 -64.5q-208 0 -333 108.5t-125 291.5zM385 424q0 -143 170 -143q90 0 160.5 56t91.5 155q6 31 6 57q0 72 -43 111.5t-127 39.5 q-90 0 -159.5 -57t-90.5 -151q-8 -33 -8 -68z" />
<glyph unicode="&#xe51;" horiz-adv-x="1206" d="M47 475q0 35 10 90q45 207 215 328t424 121q233 0 359.5 -105.5t126.5 -287.5q0 -63 -15 -123q-57 -268 -253.5 -436t-577.5 -248l67 315q139 29 217 78t114 115.5t59 169.5q8 35 8 73q0 74 -41 111t-131 37q-92 0 -147.5 -40t-55.5 -120q0 -39 24.5 -59.5t79.5 -20.5 q66 0 125 27l-55 -262q-43 -25 -104.5 -38.5t-126.5 -13.5q-141 0 -231.5 77t-90.5 212z" />
<glyph unicode="&#xe52;" horiz-adv-x="1470" d="M74 385q0 55 12 117l131 624h293l-131 -616q-10 -47 -10 -82q0 -106 78.5 -158.5t244.5 -52.5q168 0 266.5 56.5t120.5 162.5l45 215q4 20 4 29q0 45 -43 45q-37 0 -53 -27.5t-31 -89.5h-178q8 33 8 62q0 57 -38 57q-33 0 -52.5 -23.5t-31.5 -78.5q-4 -25 -4 -37 q0 -41 27.5 -59.5t84.5 -18.5q80 0 139 20l-49 -227q-43 -14 -82 -20.5t-98 -6.5q-137 0 -216 71t-79 200q0 53 10 96q39 180 133.5 275.5t241.5 95.5q121 0 160 -107q37 45 102.5 76t139.5 31q223 0 223 -219q0 -51 -12 -117l-52 -244q-49 -227 -239.5 -346t-499.5 -119 q-156 0 -284 45t-204.5 138.5t-76.5 232.5z" />
<glyph unicode="&#xe53;" horiz-adv-x="1327" d="M25 348q0 68 14 133q115 532 512 533q129 0 188 -86q45 39 116 62.5t146 23.5q145 0 219 -68.5t74 -181.5q0 -43 -8 -82l-143 -682h-348l133 635q4 20 4 29q0 45 -49 45q-37 0 -55.5 -20.5t-28.5 -63.5l-49 -236h-242l49 236q6 23 6 37q0 47 -45 47q-47 0 -81 -55.5 t-60 -182.5q-10 -55 -10 -88q0 -63 35.5 -92t119.5 -29q41 0 100.5 7t86.5 18l-62 -291q-45 -10 -111.5 -18.5t-123.5 -8.5q-166 0 -276.5 99.5t-110.5 279.5z" />
<glyph unicode="&#xe54;" horiz-adv-x="1263" d="M29 360q0 66 14 132q53 256 246.5 406.5t496.5 150.5q98 0 150.5 7t83.5 29.5t55 69.5h330q-57 -129 -125 -210t-174.5 -124t-265.5 -43q-201 0 -303.5 -77.5t-135.5 -231.5q-10 -43 -10 -90q0 -125 111 -125h22q-20 29 -20 86q0 31 6 57q31 147 137.5 226t276.5 79 q174 0 258 -45l-52 -235q-59 41 -139 41q-70 0 -109.5 -37t-39.5 -96q0 -76 114 -76h179l-54 -254h-594q-215 0 -336.5 90t-121.5 270z" />
<glyph unicode="&#xe55;" horiz-adv-x="1263" d="M29 360q0 66 14 132q41 188 163 323t306 191l-2 26l2 31q14 104 91 164.5t194 60.5q92 0 141 -47t49 -125q0 -27 -6 -55q39 10 61.5 31.5t36.5 62.5h326q-55 -127 -126 -209t-177.5 -125t-265.5 -43q-178 0 -290 -80t-145 -229q-10 -43 -10 -90q0 -125 111 -125h22 q-20 29 -20 86q0 31 6 57q31 147 137.5 226t276.5 79q174 0 258 -45l-52 -235q-59 41 -139 41q-70 0 -109.5 -37t-39.5 -96q0 -76 114 -76h179l-54 -254h-594q-215 0 -336.5 90t-121.5 270zM696 1044q0 -18 11.5 -28t33.5 -10q25 0 44.5 16t25.5 39q4 25 -7 41t-38 16 q-23 0 -43.5 -16.5t-24.5 -40.5q-2 -6 -2 -17z" />
<glyph unicode="&#xe56;" horiz-adv-x="1273" d="M129 88l64 303q66 -72 161 -107.5t201 -35.5q125 0 203 62.5t102 174.5q10 51 10 82q0 76 -46 114t-142 38q-88 0 -162 -45t-125 -137h-241l-17 591h293v-251q72 63 171 100t210 37q221 0 329.5 -103.5t108.5 -281.5q0 -61 -16 -144q-111 -516 -723 -516 q-123 0 -224.5 30t-156.5 89z" />
<glyph unicode="&#xe57;" horiz-adv-x="1644" d="M23 340q0 59 16 141q55 264 176 398.5t311 134.5q125 0 189 -86q45 39 115.5 62.5t146.5 23.5q252 0 252 -221q0 -51 -12 -111l-82 -391q47 0 71.5 22.5t34.5 71.5l158 741h299l-152 -718q-47 -219 -195.5 -313.5t-351.5 -94.5h-229l135 639q4 20 4 27q0 47 -53 47 q-35 0 -53.5 -20.5t-26.5 -63.5l-51 -240h-236l52 240q4 29 4 37q0 47 -45 47q-47 0 -81 -57.5t-61 -184.5q-10 -55 -10 -84q0 -68 38 -101.5t118 -33.5q41 0 96 7t82 20l-59 -283q-45 -10 -113 -18.5t-125 -8.5q-162 0 -262 97.5t-100 273.5z" />
<glyph unicode="&#xe58;" horiz-adv-x="1323" d="M23 328q0 78 16 151q55 260 246.5 415t500.5 155q102 0 153.5 7t82.5 28.5t53 70.5h330q-57 -129 -125 -210t-174.5 -124t-265.5 -43q-147 0 -237.5 -34.5t-138.5 -105.5t-73 -187q-20 -94 -20 -146q0 -45 15 -62.5t48 -17.5q68 0 86 84l19 86h258l-19 -84q-4 -29 -4 -37 q0 -49 47 -49q39 0 62.5 31t40.5 109q6 29 6 47q0 66 -70 65q-55 0 -106 -22l49 235q37 12 88 19.5t100 7.5q129 0 203 -63.5t74 -186.5q0 -47 -13 -102q-39 -190 -154.5 -293t-281.5 -103q-63 0 -122.5 24.5t-90.5 67.5q-47 -45 -113.5 -68.5t-142.5 -23.5 q-141 0 -234 92.5t-93 266.5z" />
<glyph unicode="&#xe59;" horiz-adv-x="1531" d="M20 315q0 76 19 164q57 262 192.5 398.5t333.5 136.5q70 0 119 -26.5t70 -63.5q41 45 101 67.5t134 22.5q143 0 191 -101l129 213h358l-407 -651h-224l33 137q2 41 -11.5 63.5t-47.5 22.5q-33 0 -52.5 -21.5t-19.5 -58.5l2 -18l74 -600h-328l-74 606q-6 51 -19 71.5 t-52 20.5q-115 0 -162 -225q-16 -76 -17 -115q0 -51 24 -73.5t79 -22.5q37 0 62.5 6t56.5 19l-62 -291q-106 -27 -200 -27q-136 0 -219 90.5t-83 255.5z" />
<glyph unicode="&#xe5a;" horiz-adv-x="1943" d="M90 680q0 41 8 80q39 180 166 273t316 93q141 0 229 -32l-53 -246q-41 18 -99 18q-111 0 -133 -96q-4 -25 -4 -31q0 -35 25.5 -50t85.5 -15q100 0 194 49l78 373h412l-78 -371q6 -25 27.5 -38t56.5 -13q92 0 180 49l78 373h412l-232 -1096h-411l94 453q-80 -45 -176 -52 q-37 -4 -56 -4q-14 0 -43 4l-84 -401h-411l94 453q-63 -27 -149.5 -43.5t-167.5 -16.5q-160 0 -259.5 76t-99.5 211z" />
<glyph unicode="&#xe5b;" horiz-adv-x="2324" d="M27 354q0 68 14 133q33 152 117 271t210 187.5t273 68.5q186 0 287.5 -78t101.5 -223q0 -45 -12 -101q-41 -186 -163 -273t-280 -87q-111 0 -176 45l45 211q23 -20 62 -31.5t80 -11.5q72 0 118 29.5t64 117.5q4 29 4 39q0 119 -178 119q-109 0 -187.5 -71.5 t-109.5 -211.5q-10 -55 -10 -88q0 -203 260 -202q225 0 351 95t171 314l51 236h275l37 -275h4l100 246h197l14 -213h4l74 172h176l29 -168h4l61 76h229l-49 -236h-149l-84 -145h-154l-37 107h-4l-80 -158h-184l-22 192h-5l-102 -235h-188l-21 244h-4q-78 -236 -277.5 -358 t-465.5 -122q-219 0 -345 99.5t-126 285.5z" />
<glyph unicode="&#x1e0c;" horiz-adv-x="1439" d="M-20 0l303 1432h530q197 0 345.5 -72t228 -199t79.5 -289q0 -68 -16 -149q-78 -360 -310.5 -541.5t-607.5 -181.5h-552zM311 -295q0 53 31 99t80 74t100 28q57 0 94 -37t37 -94q0 -82 -62.5 -143.5t-139.5 -61.5q-62 0 -101 38t-39 97zM477 356h133q158 0 264.5 99.5 t143.5 267.5q16 78 16 137q0 104 -61.5 159.5t-202.5 55.5h-139z" />
<glyph unicode="&#x1e0d;" horiz-adv-x="1370" d="M29 369q0 57 12 120q51 238 219 381.5t416 143.5q94 0 171 -28t122 -75l129 602h409l-321 -1513h-395l18 90q-74 -57 -166 -89t-190 -32q-189 0 -306.5 108.5t-117.5 291.5zM387 -295q0 53 31 99t80 74t100 28q57 0 94 -37t37 -94q0 -82 -62.5 -143.5t-140.5 -61.5 q-61 0 -100 38t-39 97zM457 420q0 -66 41 -99.5t133 -33.5q69 0 130.5 32.5t100.5 90.5l35 161q-14 57 -61.5 90t-116.5 33q-102 0 -167 -53t-87 -152q-8 -33 -8 -69z" />
<glyph unicode="&#x1e0e;" horiz-adv-x="1439" d="M-20 0l303 1432h530q197 0 345.5 -72t228 -199t79.5 -289q0 -68 -16 -149q-78 -360 -310.5 -541.5t-607.5 -181.5h-552zM98 -352l52 241h727l-52 -241h-727zM477 356h133q158 0 264.5 99.5t143.5 267.5q16 78 16 137q0 104 -61.5 159.5t-202.5 55.5h-139z" />
<glyph unicode="&#x1e0f;" horiz-adv-x="1370" d="M29 369q0 57 12 120q51 238 219 381.5t416 143.5q94 0 171 -28t122 -75l129 602h409l-321 -1513h-395l18 90q-74 -57 -166 -89t-190 -32q-189 0 -306.5 108.5t-117.5 291.5zM207 -352l51 241h727l-51 -241h-727zM457 420q0 -66 41 -99.5t133 -33.5q69 0 130.5 32.5 t100.5 90.5l35 161q-14 57 -61.5 90t-116.5 33q-102 0 -167 -53t-87 -152q-8 -33 -8 -69z" />
<glyph unicode="&#x1e20;" horiz-adv-x="1415" d="M70 537q0 88 20 178q74 352 319.5 549.5t624.5 197.5q156 0 279 -30.5t196 -88.5l-84 -391q-76 68 -181 98.5t-253 30.5q-207 0 -319.5 -94t-149.5 -272q-18 -82 -18 -148q0 -119 71.5 -170t237.5 -51q88 0 150 25l38 182h-196l57 268h584l-154 -717q-244 -135 -575 -135 q-193 0 -339.5 67.5t-227 195.5t-80.5 305zM645 1550l51 242h727l-51 -242h-727z" />
<glyph unicode="&#x1e21;" horiz-adv-x="1370" d="M29 373q0 47 14 119q49 240 217 381t416 141q96 0 175 -32t128 -89l20 90h396l-195 -911q-59 -276 -241.5 -409.5t-538.5 -133.5q-96 0 -194.5 18.5t-164.5 49.5l58 272q147 -70 358 -70q133 0 206 54.5t95 158.5l13 58q-63 -45 -153.5 -73t-182.5 -28 q-123 0 -219.5 50.5t-151.5 142.5t-55 211zM449 1098l51 241h727l-51 -241h-727zM459 420q0 -68 40 -100.5t132 -32.5q149 0 231 125l35 159q-14 57 -61.5 90t-116.5 33q-96 0 -164 -53t-88 -147q-8 -35 -8 -74z" />
<glyph unicode="&#x1e24;" horiz-adv-x="1488" d="M-20 0l303 1432h424l-113 -527h477l113 527h424l-303 -1432h-424l114 549h-477l-115 -549h-423zM414 -295q0 53 30.5 99t79.5 74t101 28q57 0 94 -37t37 -94q0 -82 -62.5 -143.5t-140.5 -61.5q-61 0 -100 38t-39 97z" />
<glyph unicode="&#x1e25;" horiz-adv-x="1288" d="M-20 0l321 1513h410l-133 -618q160 119 342 119q166 0 250.5 -79t84.5 -218q0 -51 -12 -107l-129 -610h-412l117 553q6 31 6 55q0 86 -100 86q-123 0 -213 -110l-123 -584h-409zM326 -295q0 53 30.5 99t79.5 74t101 28q57 0 94 -37t37 -94q0 -82 -62.5 -143.5 t-140.5 -61.5q-62 0 -100.5 38t-38.5 97z" />
<glyph unicode="&#x1e2a;" horiz-adv-x="1488" d="M-20 0l303 1432h424l-113 -527h477l113 527h424l-303 -1432h-424l114 549h-477l-115 -549h-423zM209 -207q0 45 12 101h295q-6 -25 -6 -48q0 -76 74 -75q90 0 114 123h316q-37 -176 -162 -276.5t-313 -100.5q-160 0 -245 72.5t-85 203.5z" />
<glyph unicode="&#x1e2b;" horiz-adv-x="1288" d="M-20 0l321 1513h410l-133 -618q160 119 342 119q166 0 250.5 -79t84.5 -218q0 -51 -12 -107l-129 -610h-412l117 553q6 31 6 55q0 86 -100 86q-123 0 -213 -110l-123 -584h-409zM115 -207q0 45 12 101h295q-6 -25 -6 -48q0 -76 73 -75q90 0 115 123h316 q-37 -176 -162 -276.5t-314 -100.5q-159 0 -244 72.5t-85 203.5z" />
<glyph unicode="&#x1e36;" horiz-adv-x="1083" d="M-20 0l303 1432h424l-230 -1076h578l-74 -356h-1001zM246 -295q0 53 30.5 99t80 74t100.5 28q57 0 94 -37t37 -94q0 -82 -62.5 -143.5t-140.5 -61.5q-61 0 -100 38t-39 97z" />
<glyph unicode="&#x1e37;" horiz-adv-x="573" d="M-41 -295q0 53 30.5 99t80 74t100.5 28q57 0 94 -37t37 -94q0 -82 -62.5 -143.5t-140.5 -61.5q-61 0 -100 38t-39 97zM-20 0l321 1513h410l-322 -1513h-409z" />
<glyph unicode="&#x1e38;" horiz-adv-x="1085" d="M-18 0l303 1432h424l-230 -1076h578l-74 -356h-1001zM188 1565l52 241h727l-52 -241h-727zM246 -295q0 53 30.5 99t80 74t100.5 28q57 0 94 -37t37 -94q0 -82 -62.5 -143.5t-140.5 -61.5q-61 0 -100 38t-39 97z" />
<glyph unicode="&#x1e39;" horiz-adv-x="573" d="M-41 -295q0 53 30.5 99t80 74t100.5 28q57 0 94 -37t37 -94q0 -82 -62.5 -143.5t-140.5 -61.5q-61 0 -100 38t-39 97zM-20 0l321 1513h410l-322 -1513h-409zM121 1591l51 242h727l-51 -242h-727z" />
<glyph unicode="&#x1e3a;" horiz-adv-x="1083" d="M-20 0l303 1432h424l-230 -1076h578l-74 -356h-1001zM49 -352l51 241h727l-51 -241h-727z" />
<glyph unicode="&#x1e3b;" horiz-adv-x="573" d="M-252 -352l51 241h727l-51 -241h-727zM-20 0l321 1513h410l-322 -1513h-409z" />
<glyph unicode="&#x1e42;" horiz-adv-x="1716" d="M-20 0l303 1432h366l211 -842l567 842h408l-303 -1432h-395l133 635l-426 -635h-176l-160 635l-133 -635h-395zM541 -295q0 53 30.5 99t79.5 74t101 28q57 0 94 -37t37 -94q0 -82 -62.5 -143.5t-140.5 -61.5q-62 0 -100.5 38t-38.5 97z" />
<glyph unicode="&#x1e43;" horiz-adv-x="1800" d="M-20 0l208 983h379l-20 -94q150 125 327 125q109 0 167.5 -30t88.5 -91q74 57 166.5 89t180.5 32q158 0 227.5 -64.5t69.5 -187.5q0 -61 -17 -144l-131 -618h-391l119 559q6 31 6 55q0 43 -20.5 61.5t-69.5 18.5q-72 0 -123 -43l-137 -651h-392l121 578q6 29 6 49 q0 35 -18 51t-61 16q-88 0 -166 -96l-127 -598h-393zM600 -295q0 53 31 99t80 74t100 28q57 0 94 -37t37 -94q0 -82 -62.5 -143.5t-140.5 -61.5q-61 0 -100 38t-39 97z" />
<glyph unicode="&#x1e44;" horiz-adv-x="1445" d="M-20 0l303 1432h411l287 -750l160 750h424l-303 -1432h-410l-291 750l-158 -750h-423zM778 1651q0 53 31 100t80 75.5t100 28.5q59 0 96 -37.5t37 -95.5q0 -82 -62.5 -142t-141.5 -60q-60 0 -100 36.5t-40 94.5z" />
<glyph unicode="&#x1e45;" horiz-adv-x="1288" d="M-20 0l208 983h396l-21 -96q74 61 168 94t189 33q166 0 250.5 -79t84.5 -218q0 -51 -12 -107l-129 -610h-412l117 553q8 45 8 59q0 41 -23.5 61.5t-78.5 20.5q-123 0 -213 -110l-123 -584h-409zM602 1198q0 53 31 100.5t80 76t100 28.5q59 0 96 -38t37 -95 q0 -82 -62.5 -142.5t-142.5 -60.5q-59 0 -99 37t-40 94z" />
<glyph unicode="&#x1e46;" horiz-adv-x="1445" d="M-20 0l303 1432h411l287 -750l160 750h424l-303 -1432h-410l-291 750l-158 -750h-423zM406 -295q0 53 30.5 99t79.5 74t100 28q57 0 94.5 -37t37.5 -94q0 -82 -62.5 -143.5t-140.5 -61.5q-62 0 -100.5 38t-38.5 97z" />
<glyph unicode="&#x1e47;" horiz-adv-x="1288" d="M-20 0l208 983h396l-21 -96q74 61 168 94t189 33q166 0 250.5 -79t84.5 -218q0 -51 -12 -107l-129 -610h-412l117 553q8 45 8 59q0 41 -23.5 61.5t-78.5 20.5q-123 0 -213 -110l-123 -584h-409zM342 -295q0 53 30.5 99t80 74t100.5 28q57 0 94 -37t37 -94 q0 -82 -62.5 -143.5t-140.5 -61.5q-61 0 -100 38t-39 97z" />
<glyph unicode="&#x1e48;" horiz-adv-x="1445" d="M-20 0l303 1432h411l287 -750l160 750h424l-303 -1432h-410l-291 750l-158 -750h-423zM199 -352l51 241h727l-51 -241h-727z" />
<glyph unicode="&#x1e49;" horiz-adv-x="1288" d="M-20 0l208 983h396l-21 -96q74 61 168 94t189 33q166 0 250.5 -79t84.5 -218q0 -51 -12 -107l-129 -610h-412l117 553q8 45 8 59q0 41 -23.5 61.5t-78.5 20.5q-123 0 -213 -110l-123 -584h-409zM143 -352l52 241h727l-52 -241h-727z" />
<glyph unicode="&#x1e5a;" horiz-adv-x="1345" d="M-20 0l303 1432h665q211 0 337 -102.5t126 -285.5q0 -53 -12 -118q-35 -160 -125 -272.5t-225 -172.5l137 -481h-434l-119 420h-141l-89 -420h-423zM330 -295q0 53 30.5 99t79.5 74t101 28q57 0 94 -37t37 -94q0 -82 -62.5 -143.5t-140.5 -61.5q-61 0 -100 38t-39 97z M563 756h158q109 0 166 36.5t78 133.5q8 45 8 61q0 61 -42 85t-138 24h-158z" />
<glyph unicode="&#x1e5b;" horiz-adv-x="858" d="M-43 -295q0 53 30.5 99t80 74t100.5 28q57 0 94 -37t37 -94q0 -82 -62.5 -143.5t-140.5 -61.5q-61 0 -100 38t-39 97zM-20 0l208 983h396l-25 -106q72 59 180.5 94t229.5 35l-68 -318q-129 0 -237.5 -35t-157.5 -102l-117 -551h-409z" />
<glyph unicode="&#x1e5c;" horiz-adv-x="1345" d="M-20 0l303 1432h665q211 0 337 -102.5t126 -285.5q0 -53 -12 -118q-35 -160 -125 -272.5t-225 -172.5l137 -481h-434l-119 420h-141l-89 -420h-423zM330 -295q0 53 30.5 99t79.5 74t101 28q57 0 94 -37t37 -94q0 -82 -62.5 -143.5t-140.5 -61.5q-61 0 -100 38t-39 97z M451 1550l51 242h727l-51 -242h-727zM563 756h158q109 0 166 36.5t78 133.5q8 45 8 61q0 61 -42 85t-138 24h-158z" />
<glyph unicode="&#x1e5d;" horiz-adv-x="858" d="M-41 -295q0 53 30.5 99t80 74t100.5 28q57 0 94 -37t37 -94q0 -82 -62.5 -143.5t-140.5 -61.5q-61 0 -100 38t-39 97zM-20 0l208 983h396l-25 -106q72 59 180.5 94t229.5 35l-68 -318q-129 0 -237.5 -35t-157.5 -102l-117 -551h-409zM174 1098l51 241h727l-51 -241h-727z " />
<glyph unicode="&#x1e5e;" horiz-adv-x="1345" d="M-20 0l303 1432h665q211 0 337 -102.5t126 -285.5q0 -53 -12 -118q-35 -160 -125 -272.5t-225 -172.5l137 -481h-434l-119 420h-141l-89 -420h-423zM121 -352l51 241h727l-51 -241h-727zM563 756h158q109 0 166 36.5t78 133.5q8 45 8 61q0 61 -42 85t-138 24h-158z" />
<glyph unicode="&#x1e5f;" horiz-adv-x="858" d="M-96 -352l51 241h727l-51 -241h-727zM-20 0l208 983h396l-25 -106q72 59 180.5 94t229.5 35l-68 -318q-129 0 -237.5 -35t-157.5 -102l-117 -551h-409z" />
<glyph unicode="&#x1e60;" horiz-adv-x="1175" d="M-47 70l80 374q98 -61 216 -91.5t226 -30.5q178 0 178 102q0 41 -42 70.5t-167 89.5q-152 72 -222 154.5t-70 195.5q0 37 10 92q43 199 215 317.5t438 118.5q135 0 235.5 -21.5t188.5 -68.5l-78 -362q-158 98 -344 98q-88 0 -144.5 -27.5t-56.5 -81.5q0 -37 40 -63.5 t143 -71.5l39 -16q160 -72 226 -144.5t66 -181.5q0 -57 -14 -121q-43 -207 -207 -319.5t-477 -112.5q-139 0 -271 28t-208 73zM641 1651q0 53 30.5 100t80 75.5t100.5 28.5q59 0 96 -37.5t37 -95.5q0 -82 -62.5 -142t-142.5 -60q-59 0 -99 36.5t-40 94.5z" />
<glyph unicode="&#x1e61;" horiz-adv-x="1060" d="M-37 57l62 289q74 -49 188.5 -83t212.5 -34q63 0 92 8.5t29 34.5q0 16 -22.5 25.5t-86.5 28.5l-88 26q-147 47 -211.5 102.5t-64.5 147.5q0 33 10 84q70 328 559 328q109 0 229.5 -23.5t174.5 -62.5l-62 -285q-53 41 -153.5 70.5t-188.5 29.5q-121 0 -131 -41 q-4 -18 20.5 -29t90.5 -26q18 -6 41.5 -11t50.5 -13q147 -43 209.5 -100.5t62.5 -147.5q0 -33 -10 -88q-31 -147 -170 -232.5t-393 -85.5q-123 0 -252 22.5t-199 65.5zM471 1198q0 53 30.5 100.5t80 76t100.5 28.5q59 0 96 -38t37 -95q0 -82 -62.5 -142.5t-142.5 -60.5 q-59 0 -99 37t-40 94z" />
<glyph unicode="&#x1e62;" horiz-adv-x="1175" d="M-47 70l80 374q98 -61 216 -91.5t226 -30.5q178 0 178 102q0 41 -42 70.5t-167 89.5q-152 72 -222 154.5t-70 195.5q0 37 10 92q43 199 215 317.5t438 118.5q135 0 235.5 -21.5t188.5 -68.5l-78 -362q-158 98 -344 98q-88 0 -144.5 -27.5t-56.5 -81.5q0 -37 40 -63.5 t143 -71.5l39 -16q160 -72 226 -144.5t66 -181.5q0 -57 -14 -121q-43 -207 -207 -319.5t-477 -112.5q-139 0 -271 28t-208 73zM250 -295q0 53 30.5 99t80 74t100.5 28q57 0 94 -37t37 -94q0 -82 -62.5 -143.5t-140.5 -61.5q-61 0 -100 38t-39 97z" />
<glyph unicode="&#x1e63;" horiz-adv-x="1060" d="M-37 57l62 289q74 -49 188.5 -83t212.5 -34q63 0 92 8.5t29 34.5q0 16 -22.5 25.5t-86.5 28.5l-88 26q-147 47 -211.5 102.5t-64.5 147.5q0 33 10 84q70 328 559 328q109 0 229.5 -23.5t174.5 -62.5l-62 -285q-53 41 -153.5 70.5t-188.5 29.5q-121 0 -131 -41 q-4 -18 20.5 -29t90.5 -26q18 -6 41.5 -11t50.5 -13q147 -43 209.5 -100.5t62.5 -147.5q0 -33 -10 -88q-31 -147 -170 -232.5t-393 -85.5q-123 0 -252 22.5t-199 65.5zM219 -295q0 53 31 99t80 74t100 28q57 0 94 -37t37 -94q0 -82 -62.5 -143.5t-140.5 -61.5q-61 0 -100 38 t-39 97z" />
<glyph unicode="&#x1e6c;" horiz-adv-x="1214" d="M135 1075l76 357h1194l-76 -357h-385l-227 -1075h-424l227 1075h-385zM287 -295q0 53 30.5 99t79.5 74t101 28q57 0 94 -37t37 -94q0 -82 -62.5 -143.5t-140.5 -61.5q-61 0 -100 38t-39 97z" />
<glyph unicode="&#x1e6d;" horiz-adv-x="808" d="M47 707l59 276h136l61 295h412l-62 -295h219l-59 -276h-219l-62 -283q-8 -35 -8 -64q0 -41 23.5 -57t77.5 -16q76 0 149 39l-63 -303q-66 -27 -133.5 -40.5t-165.5 -13.5q-160 0 -239 73t-79 204q0 43 15 119l73 342h-135zM162 -295q0 53 30.5 99t80 74t100.5 28 q57 0 94 -37t37 -94q0 -82 -62.5 -143.5t-140.5 -61.5q-61 0 -100 38t-39 97z" />
<glyph unicode="&#x1e6e;" horiz-adv-x="1214" d="M47 -352l51 241h727l-51 -241h-727zM135 1075l76 357h1194l-76 -357h-385l-227 -1075h-424l227 1075h-385z" />
<glyph unicode="&#x1e6f;" horiz-adv-x="808" d="M-109 -352l52 241h727l-52 -241h-727zM47 707l59 276h136l61 295h412l-62 -295h219l-59 -276h-219l-62 -283q-8 -35 -8 -64q0 -41 23.5 -57t77.5 -16q76 0 149 39l-63 -303q-66 -27 -133.5 -40.5t-165.5 -13.5q-160 0 -239 73t-79 204q0 43 15 119l73 342h-135z" />
<glyph unicode="&#x1e80;" horiz-adv-x="2027" d="M242 1432h438l39 -750l350 750h307l15 -752l356 752h440l-684 -1432h-377l-34 760l-355 -760h-418zM911 1878h412l63 -369h-362z" />
<glyph unicode="&#x1e81;" horiz-adv-x="1775" d="M147 983h410l27 -512l247 512h326l27 -512l248 512h409l-541 -983h-352l-43 496l-250 -496h-385zM688 1427h412l63 -368h-362z" />
<glyph unicode="&#x1e82;" horiz-adv-x="2027" d="M242 1432h438l39 -750l350 750h307l15 -752l356 752h440l-684 -1432h-377l-34 760l-355 -760h-418zM1028 1509l219 369h412l-268 -369h-363z" />
<glyph unicode="&#x1e83;" horiz-adv-x="1775" d="M147 983h410l27 -512l247 512h326l27 -512l248 512h409l-541 -983h-352l-43 496l-250 -496h-385zM805 1059l219 368h412l-269 -368h-362z" />
<glyph unicode="&#x1e84;" horiz-adv-x="2027" d="M242 1432h438l39 -750l350 750h307l15 -752l356 752h440l-684 -1432h-377l-34 760l-355 -760h-418zM827 1651q0 53 32 100t80 75.5t97 28.5q59 0 97 -37.5t38 -95.5q0 -82 -63.5 -142t-142.5 -60q-60 0 -99 36.5t-39 94.5zM1309 1651q0 53 30.5 100t79.5 75.5t101 28.5 q57 0 95 -37.5t38 -95.5q0 -82 -63.5 -142t-141.5 -60q-59 0 -99 36.5t-40 94.5z" />
<glyph unicode="&#x1e85;" horiz-adv-x="1775" d="M147 983h410l27 -512l247 512h326l27 -512l248 512h409l-541 -983h-352l-43 496l-250 -496h-385zM604 1198q0 53 32 100.5t80 76t97 28.5q59 0 97 -38t38 -95q0 -82 -63.5 -142.5t-143.5 -60.5q-59 0 -98 37t-39 94zM1085 1198q0 53 31 100.5t80 76t100 28.5 q57 0 95.5 -38t38.5 -95q0 -82 -63.5 -142.5t-141.5 -60.5q-60 0 -100 37t-40 94z" />
<glyph unicode="&#x1e8e;" horiz-adv-x="1568" d="M242 1432h436l178 -494l406 494h467l-730 -887l-114 -545h-424l114 545zM819 1651q0 53 31 100t80 75.5t100 28.5q59 0 96 -37.5t37 -95.5q0 -82 -62.5 -142t-142.5 -60q-59 0 -99 36.5t-40 94.5z" />
<glyph unicode="&#x1e8f;" horiz-adv-x="1314" d="M-4 -403l57 272q147 -70 359 -70q139 0 206.5 53.5t90.5 159.5l22 111q-74 -61 -167 -93t-187 -32q-160 0 -245 88t-85 229q0 57 10 101l121 567h410l-111 -518q-8 -45 -8 -62q0 -45 25.5 -66.5t80.5 -21.5q121 0 207 111l119 557h412l-191 -893q-57 -274 -239.5 -417.5 t-528.5 -143.5q-96 0 -194.5 18.5t-163.5 49.5zM629 1198q0 53 30.5 100.5t79.5 76t101 28.5q59 0 96 -38t37 -95q0 -82 -62.5 -142.5t-142.5 -60.5q-59 0 -99 37t-40 94z" />
<glyph unicode="&#x1e92;" horiz-adv-x="1251" d="M-61 0l57 279l768 796h-584l76 357h1108l-59 -281l-766 -795h643l-74 -356h-1169zM276 -295q0 53 31 99t80 74t100 28q57 0 94 -37t37 -94q0 -82 -62 -143.5t-140 -61.5q-62 0 -101 38t-39 97z" />
<glyph unicode="&#x1e93;" horiz-adv-x="1087" d="M-61 0l45 213l542 494h-428l60 276h979l-47 -213l-539 -494h450l-57 -276h-1005zM215 -295q0 53 30.5 99t80 74t100.5 28q57 0 94 -37t37 -94q0 -82 -62.5 -143.5t-140.5 -61.5q-61 0 -100 38t-39 97z" />
<glyph unicode="&#x1e97;" horiz-adv-x="821" d="M59 707l60 276h135l61 295h412l-61 -295h219l-60 -276h-219l-61 -283q-8 -35 -8 -64q0 -41 23.5 -57t76.5 -16q76 0 149 39l-63 -303q-66 -27 -133.5 -40.5t-165.5 -13.5q-160 0 -239 73t-79 204q0 43 15 119l74 342h-136zM123 1479q0 53 31.5 100t80 75.5t97.5 28.5 q59 0 97 -37.5t38 -95.5q0 -82 -63.5 -142t-143.5 -60q-59 0 -98 36.5t-39 94.5zM604 1479q0 53 31 100t80 75.5t100 28.5q57 0 95 -37.5t38 -95.5q0 -82 -63.5 -142t-141.5 -60q-59 0 -99 36.5t-40 94.5z" />
<glyph unicode="&#x1e9e;" horiz-adv-x="1357" d="M-31 0l197 926q53 256 230 396t458 140q256 0 375 -113.5t119 -289.5q0 -20 -5 -58l-241 -221q209 -70 209 -274q0 -47 -13 -107q-43 -205 -196.5 -317.5t-388.5 -112.5q-74 0 -140.5 9.5t-105.5 27.5l72 332q47 -39 139 -39q170 0 199 141q6 25 6 43q0 102 -160 103 h-115l43 200l252 232q2 8 2 26q0 47 -27.5 76t-84.5 29q-158 0 -195 -172l-207 -977h-422z" />
<glyph unicode="&#x1ea0;" horiz-adv-x="1634" d="M-61 0l876 1432h408l268 -1432h-414l-49 272h-469l-166 -272h-454zM487 -295q0 53 31 99t80 74t100 28q57 0 94 -37t37 -94q0 -82 -62 -143.5t-140 -61.5q-62 0 -101 38t-39 97zM723 594h274l-51 401z" />
<glyph unicode="&#x1ea1;" horiz-adv-x="1370" d="M27 365q0 49 14 124q51 240 219 382.5t416 142.5q94 0 171 -28t122 -75l16 72h410l-209 -983h-395l18 90q-74 -57 -166 -89t-190 -32q-193 0 -309.5 106.5t-116.5 289.5zM371 -295q0 53 30.5 99t79.5 74t101 28q57 0 94 -37t37 -94q0 -82 -62.5 -143.5t-140.5 -61.5 q-61 0 -100 38t-39 97zM457 424q0 -137 174 -137q69 0 130.5 32.5t100.5 90.5l35 161q-14 57 -61.5 90t-116.5 33q-96 0 -165 -54t-89 -151q-8 -45 -8 -65z" />
<glyph unicode="&#x1ea2;" horiz-adv-x="1634" d="M-61 0l876 1432h408l268 -1432h-414l-49 272h-469l-166 -272h-454zM723 594h274l-51 401zM797 1794l37 172q121 37 274 37q150 0 225.5 -49t75.5 -133q0 -14 -4 -43q-18 -76 -78.5 -128.5t-163.5 -68.5l-12 -61h-340l31 147q201 0 200 92q0 55 -114 56q-35 0 -73 -6.5 t-58 -14.5z" />
<glyph unicode="&#x1ea3;" horiz-adv-x="1370" d="M27 365q0 49 14 124q51 240 219 382.5t416 142.5q94 0 171 -28t122 -75l16 72h410l-209 -983h-395l18 90q-74 -57 -166 -89t-190 -32q-193 0 -309.5 106.5t-116.5 289.5zM457 424q0 -137 174 -137q69 0 130.5 32.5t100.5 90.5l35 161q-14 57 -61.5 90t-116.5 33 q-96 0 -165 -54t-89 -151q-8 -45 -8 -65zM575 1341l37 172q121 37 275 37q150 0 225.5 -49t75.5 -133q0 -14 -4 -43q-18 -76 -79 -128t-163 -69l-12 -61h-340l31 147q201 0 200 93q0 55 -114 55q-35 0 -73 -6t-59 -15z" />
<glyph unicode="&#x1ea4;" horiz-adv-x="1634" d="M-61 0l876 1432h408l268 -1432h-414l-49 272h-469l-166 -272h-454zM573 1524l394 325h272l254 -325h-334l-94 139l-156 -139h-336zM723 594h274l-51 401zM1362 1778l182 295h336l-231 -295h-287z" />
<glyph unicode="&#x1ea5;" horiz-adv-x="1370" d="M27 365q0 49 14 124q51 240 219 382.5t416 142.5q94 0 171 -28t122 -75l16 72h410l-209 -983h-395l18 90q-74 -57 -166 -89t-190 -32q-193 0 -309.5 106.5t-116.5 289.5zM354 1067l394 326h272l254 -326h-334l-94 139l-156 -139h-336zM457 424q0 -137 174 -137 q69 0 130.5 32.5t100.5 90.5l35 161q-14 57 -61.5 90t-116.5 33q-96 0 -165 -54t-89 -151q-8 -45 -8 -65zM1143 1321l182 295h336l-231 -295h-287z" />
<glyph unicode="&#x1ea6;" horiz-adv-x="1634" d="M-61 0l876 1432h408l268 -1432h-414l-49 272h-469l-166 -272h-454zM424 2066h336l55 -294h-287zM578 1518l395 325h270l254 -325h-334l-94 139l-156 -139h-335zM723 594h274l-51 401z" />
<glyph unicode="&#x1ea7;" horiz-adv-x="1370" d="M27 365q0 49 14 124q51 240 219 382.5t416 142.5q94 0 171 -28t122 -75l16 72h410l-209 -983h-395l18 90q-74 -57 -166 -89t-190 -32q-193 0 -309.5 106.5t-116.5 289.5zM221 1616h336l55 -295h-286zM375 1067l395 326h270l254 -326h-333l-95 139l-155 -139h-336z M457 424q0 -137 174 -137q69 0 130.5 32.5t100.5 90.5l35 161q-14 57 -61.5 90t-116.5 33q-96 0 -165 -54t-89 -151q-8 -45 -8 -65z" />
<glyph unicode="&#x1ea8;" horiz-adv-x="1634" d="M-61 0l876 1432h408l268 -1432h-414l-49 272h-469l-166 -272h-454zM586 1524l393 325h272l254 -325h-334l-94 139l-155 -139h-336zM723 594h274l-51 401zM1348 1939l28 132q39 10 95.5 17t99.5 7q100 0 152.5 -32.5t52.5 -90.5q0 -61 -41 -103t-115 -63l-10 -51h-250 l22 105q100 0 111 49q10 43 -70 43q-45 0 -75 -13z" />
<glyph unicode="&#x1ea9;" horiz-adv-x="1370" d="M27 365q0 49 14 124q51 240 219 382.5t416 142.5q94 0 171 -28t122 -75l16 72h410l-209 -983h-395l18 90q-74 -57 -166 -89t-190 -32q-193 0 -309.5 106.5t-116.5 289.5zM362 1067l394 326h272l254 -326h-334l-94 139l-156 -139h-336zM457 424q0 -137 174 -137 q69 0 130.5 32.5t100.5 90.5l35 161q-14 57 -61.5 90t-116.5 33q-96 0 -165 -54t-89 -151q-8 -45 -8 -65zM1124 1483l29 131q39 10 95.5 17t99.5 7q100 0 152 -32.5t52 -89.5q0 -61 -41 -103.5t-114 -62.5l-11 -52h-249l22 105q100 0 111 49q10 43 -70 43q-45 0 -76 -12z " />
<glyph unicode="&#x1eaa;" horiz-adv-x="1634" d="M-61 0l876 1432h408l268 -1432h-414l-49 272h-469l-166 -272h-454zM575 1518l394 325h272l254 -325h-334l-94 139l-156 -139h-336zM723 594h274l-51 401zM788 1868l48 219q74 68 188 67q35 0 66.5 -9t59.5 -19t36 -15q49 -20 81.5 -30t67.5 -10q106 0 195 81l-47 -221 q-72 -66 -189 -65q-39 0 -72.5 10t-93.5 33q-51 20 -81.5 30.5t-65.5 10.5q-104 0 -193 -82z" />
<glyph unicode="&#x1eab;" horiz-adv-x="1370" d="M27 365q0 49 14 124q51 240 219 382.5t416 142.5q94 0 171 -28t122 -75l16 72h410l-209 -983h-395l18 90q-74 -57 -166 -89t-190 -32q-193 0 -309.5 106.5t-116.5 289.5zM373 1067l393 326h272l254 -326h-334l-94 139l-155 -139h-336zM457 424q0 -137 174 -137 q69 0 130.5 32.5t100.5 90.5l35 161q-14 57 -61.5 90t-116.5 33q-96 0 -165 -54t-89 -151q-8 -45 -8 -65zM586 1417l47 219q74 68 188 68q35 0 67 -9t59.5 -19.5t35.5 -14.5q49 -20 82 -30.5t68 -10.5q106 0 194 82l-47 -221q-72 -66 -188 -66q-39 0 -73 10.5t-93 32.5 q-51 20 -82 30.5t-66 10.5q-104 0 -192 -82z" />
<glyph unicode="&#x1eac;" horiz-adv-x="1634" d="M-61 0l876 1432h408l268 -1432h-414l-49 272h-469l-166 -272h-454zM487 -295q0 53 31 99t80 74t100 28q57 0 94 -37t37 -94q0 -82 -62 -143.5t-140 -61.5q-62 0 -101 38t-39 97zM528 1532l377 352h338l227 -352h-342l-88 145l-149 -145h-363zM723 594h274l-51 401z" />
<glyph unicode="&#x1ead;" horiz-adv-x="1370" d="M27 365q0 49 14 124q51 240 219 382.5t416 142.5q94 0 171 -28t122 -75l16 72h410l-209 -983h-395l18 90q-74 -57 -166 -89t-190 -32q-193 0 -309.5 106.5t-116.5 289.5zM309 1081l377 353h338l227 -353h-342l-88 146l-149 -146h-363zM369 -295q0 53 30.5 99t79.5 74 t101 28q57 0 94 -37t37 -94q0 -82 -62.5 -143.5t-140.5 -61.5q-62 0 -100.5 38t-38.5 97zM457 424q0 -137 174 -137q69 0 130.5 32.5t100.5 90.5l35 161q-14 57 -61.5 90t-116.5 33q-96 0 -165 -54t-89 -151q-8 -45 -8 -65z" />
<glyph unicode="&#x1eae;" horiz-adv-x="1634" d="M-61 0l876 1432h408l268 -1432h-414l-49 272h-469l-166 -272h-454zM723 594h274l-51 401zM725 1765q0 39 8 72h260q-4 -25 -4 -33q0 -76 94 -75q111 0 134 108h258q-31 -147 -151 -233t-286 -86q-145 0 -229 65.5t-84 181.5zM969 1878l164 274h335l-208 -274h-291z" />
<glyph unicode="&#x1eaf;" horiz-adv-x="1370" d="M27 365q0 49 14 124q51 240 219 382.5t416 142.5q94 0 171 -28t122 -75l16 72h410l-209 -983h-395l18 90q-74 -57 -166 -89t-190 -32q-193 0 -309.5 106.5t-116.5 289.5zM457 424q0 -137 174 -137q69 0 130.5 32.5t100.5 90.5l35 161q-14 57 -61.5 90t-116.5 33 q-96 0 -165 -54t-89 -151q-8 -45 -8 -65zM524 1313q0 39 8 71h261q-4 -25 -5 -32q0 -76 95 -76q111 0 133 108h258q-31 -147 -150.5 -233t-285.5 -86q-146 0 -230 65.5t-84 182.5zM768 1425l164 275h336l-209 -275h-291z" />
<glyph unicode="&#x1eb0;" horiz-adv-x="1634" d="M-61 0l876 1432h408l268 -1432h-414l-49 272h-469l-166 -272h-454zM723 594h274l-51 401zM725 1765q0 39 8 72h262q-4 -25 -4 -35q0 -74 92 -73q111 0 134 108h258q-31 -147 -151 -233t-286 -86q-145 0 -229 65.5t-84 181.5zM877 2152h337l50 -274h-293z" />
<glyph unicode="&#x1eb1;" horiz-adv-x="1370" d="M27 365q0 49 14 124q51 240 219 382.5t416 142.5q94 0 171 -28t122 -75l16 72h410l-209 -983h-395l18 90q-74 -57 -166 -89t-190 -32q-193 0 -309.5 106.5t-116.5 289.5zM457 424q0 -137 174 -137q69 0 130.5 32.5t100.5 90.5l35 161q-14 57 -61.5 90t-116.5 33 q-96 0 -165 -54t-89 -151q-8 -45 -8 -65zM537 1311q0 39 8 71h262q-4 -25 -4 -34q0 -74 92 -74q111 0 133 108h258q-31 -147 -150.5 -233t-285.5 -86q-145 0 -229 65.5t-84 182.5zM688 1698h338l49 -275h-293z" />
<glyph unicode="&#x1eb2;" horiz-adv-x="1634" d="M-61 0l876 1432h408l268 -1432h-414l-49 272h-469l-166 -272h-454zM723 594h274l-51 401zM725 1765q0 39 8 72h262q-4 -25 -4 -35q0 -74 92 -73q111 0 134 108h258q-31 -147 -151 -233t-286 -86q-145 0 -229 65.5t-84 181.5zM983 2042l27 131q37 10 93 17.5t101 7.5 q100 0 151.5 -33t51.5 -90q0 -10 -4 -31q-25 -106 -148 -137l-10 -41h-252l21 96q102 0 110 49q10 43 -69 43q-51 0 -72 -12z" />
<glyph unicode="&#x1eb3;" horiz-adv-x="1370" d="M27 365q0 49 14 124q51 240 219 382.5t416 142.5q94 0 171 -28t122 -75l16 72h410l-209 -983h-395l18 90q-74 -57 -166 -89t-190 -32q-193 0 -309.5 106.5t-116.5 289.5zM457 424q0 -137 174 -137q69 0 130.5 32.5t100.5 90.5l35 161q-14 57 -61.5 90t-116.5 33 q-96 0 -165 -54t-89 -151q-8 -45 -8 -65zM530 1311q0 39 9 71h262q-4 -25 -4 -34q0 -74 92 -74q111 0 133 108h258q-31 -147 -150.5 -233t-285.5 -86q-146 0 -230 65.5t-84 182.5zM788 1587l27 131q37 10 93.5 17.5t101.5 7.5q100 0 151 -33t51 -90q0 -10 -4 -31 q-25 -106 -147 -137l-10 -41h-252l20 96q102 0 111 49q10 43 -70 43q-49 0 -72 -12z" />
<glyph unicode="&#x1eb4;" horiz-adv-x="1634" d="M-61 0l876 1432h408l268 -1432h-414l-49 272h-469l-166 -272h-454zM723 594h274l-51 401zM725 1765q0 39 8 72h262q-4 -25 -4 -35q0 -74 92 -73q111 0 134 108h258q-31 -147 -151 -233t-286 -86q-145 0 -229 65.5t-84 181.5zM774 1886l47 219q74 68 189 68q61 0 159 -43 q51 -20 86 -30.5t70 -10.5q102 0 191 82l-48 -221q-72 -66 -186 -66q-41 0 -74.5 10.5t-93.5 32.5q-51 20 -82 30.5t-65 10.5q-104 0 -193 -82z" />
<glyph unicode="&#x1eb5;" horiz-adv-x="1370" d="M27 365q0 49 14 124q51 240 219 382.5t416 142.5q94 0 171 -28t122 -75l16 72h410l-209 -983h-395l18 90q-74 -57 -166 -89t-190 -32q-193 0 -309.5 106.5t-116.5 289.5zM457 424q0 -137 174 -137q69 0 130.5 32.5t100.5 90.5l35 161q-14 57 -61.5 90t-116.5 33 q-96 0 -165 -54t-89 -151q-8 -45 -8 -65zM537 1313q0 39 8 71h262q-4 -25 -4 -34q0 -74 92 -74q111 0 133 108h258q-31 -147 -150.5 -233t-285.5 -86q-145 0 -229 65.5t-84 182.5zM586 1434l47 219q74 68 188 67q61 0 160 -43q51 -20 86 -30.5t70 -10.5q102 0 190 82 l-47 -221q-72 -66 -186 -65q-41 0 -75 10t-93 33q-51 20 -82 30.5t-66 10.5q-104 0 -192 -82z" />
<glyph unicode="&#x1eb6;" horiz-adv-x="1634" d="M-61 0l876 1432h408l268 -1432h-414l-49 272h-469l-166 -272h-454zM487 -295q0 53 31 99t80 74t100 28q57 0 94 -37t37 -94q0 -82 -62 -143.5t-140 -61.5q-62 0 -101 38t-39 97zM666 1794q0 45 12 100h293q-6 -25 -6 -47q0 -76 73 -75q92 0 117 122h315 q-37 -176 -161.5 -276t-315.5 -100q-159 0 -243 72.5t-84 203.5zM723 594h274l-51 401z" />
<glyph unicode="&#x1eb7;" horiz-adv-x="1370" d="M27 365q0 49 14 124q51 240 219 382.5t416 142.5q94 0 171 -28t122 -75l16 72h410l-209 -983h-395l18 90q-74 -57 -166 -89t-190 -32q-193 0 -309.5 106.5t-116.5 289.5zM381 -295q0 53 30.5 99t80 74t100.5 28q57 0 94 -37t37 -94q0 -82 -62.5 -143.5t-140.5 -61.5 q-61 0 -100 38t-39 97zM457 424q0 -137 174 -137q69 0 130.5 32.5t100.5 90.5l35 161q-14 57 -61.5 90t-116.5 33q-96 0 -165 -54t-89 -151q-8 -45 -8 -65zM465 1343q0 45 12 101h293q-6 -25 -6 -47q0 -76 74 -76q92 0 116 123h316q-37 -176 -162 -276.5t-315 -100.5 q-160 0 -244 72.5t-84 203.5z" />
<glyph unicode="&#x1eb8;" horiz-adv-x="1140" d="M-20 0l303 1432h1038l-76 -357h-614l-41 -196h442l-69 -326h-443l-43 -197h615l-74 -356h-1038zM256 -295q0 53 30.5 99t80 74t100.5 28q57 0 94 -37t37 -94q0 -82 -62.5 -143.5t-140.5 -61.5q-61 0 -100 38t-39 97z" />
<glyph unicode="&#x1eb9;" horiz-adv-x="1228" d="M29 375q0 51 12 112q53 250 222 388.5t470 138.5q145 0 252 -52.5t163 -144.5t56 -209q0 -51 -12 -106l-29 -133h-757q4 -68 62 -99.5t206 -31.5q98 0 204.5 15t184.5 44l-53 -256q-86 -33 -207 -52.5t-244 -19.5q-242 0 -386 106.5t-144 299.5zM328 -295q0 53 30.5 99 t79.5 74t101 28q57 0 94 -37t37 -94q0 -82 -62.5 -143.5t-140.5 -61.5q-61 0 -100 38t-39 97zM455 606h370q4 68 -29.5 102.5t-125.5 34.5q-82 0 -136.5 -36.5t-78.5 -100.5z" />
<glyph unicode="&#x1eba;" horiz-adv-x="1140" d="M-20 0l303 1432h1038l-76 -357h-614l-41 -196h442l-69 -326h-443l-43 -197h615l-74 -356h-1038zM565 1794l37 172q121 37 275 37q150 0 225.5 -49t75.5 -133q0 -14 -4 -43q-18 -76 -79 -128.5t-163 -68.5l-12 -61h-340l30 147q201 0 201 92q0 55 -115 56 q-35 0 -72.5 -6.5t-58.5 -14.5z" />
<glyph unicode="&#x1ebb;" horiz-adv-x="1228" d="M29 375q0 51 12 112q53 250 222 388.5t470 138.5q145 0 252 -52.5t163 -144.5t56 -209q0 -51 -12 -106l-29 -133h-757q4 -68 62 -99.5t206 -31.5q98 0 204.5 15t184.5 44l-53 -256q-86 -33 -207 -52.5t-244 -19.5q-242 0 -386 106.5t-144 299.5zM455 606h370 q4 68 -29.5 102.5t-125.5 34.5q-82 0 -136.5 -36.5t-78.5 -100.5zM504 1341l37 172q121 37 274 37q150 0 225.5 -49t75.5 -133q0 -14 -4 -43q-18 -76 -78.5 -128t-163.5 -69l-12 -61h-340l31 147q201 0 201 93q0 55 -115 55q-35 0 -73 -6t-58 -15z" />
<glyph unicode="&#x1ebc;" horiz-adv-x="1140" d="M-20 0l303 1432h1038l-76 -357h-614l-41 -196h442l-69 -326h-443l-43 -197h615l-74 -356h-1038zM385 1520l61 288q90 84 238 84q45 0 88 -12t111 -39q61 -25 103 -38t87 -13q131 0 238 100l-60 -286q-86 -84 -235 -84q-51 0 -97.5 13t-111.5 40q-59 25 -99 37t-83 12 q-129 0 -240 -102z" />
<glyph unicode="&#x1ebd;" horiz-adv-x="1228" d="M29 375q0 51 12 112q53 250 222 388.5t470 138.5q145 0 252 -52.5t163 -144.5t56 -209q0 -51 -12 -106l-29 -133h-757q4 -68 62 -99.5t206 -31.5q98 0 204.5 15t184.5 44l-53 -256q-86 -33 -207 -52.5t-244 -19.5q-242 0 -386 106.5t-144 299.5zM309 1067l62 289 q90 84 237 84q45 0 88 -12.5t111 -38.5q61 -25 103 -38.5t87 -13.5q131 0 238 101l-59 -287q-86 -84 -236 -84q-51 0 -97 13.5t-112 39.5q-59 25 -99 37t-83 12q-129 0 -240 -102zM455 606h370q4 68 -29.5 102.5t-125.5 34.5q-82 0 -136.5 -36.5t-78.5 -100.5z" />
<glyph unicode="&#x1ebe;" horiz-adv-x="1140" d="M-20 0l303 1432h1038l-76 -357h-614l-41 -196h442l-69 -326h-443l-43 -197h615l-74 -356h-1038zM367 1518l393 325h272l254 -325h-334l-94 139l-156 -139h-335zM1155 1772l182 294h336l-231 -294h-287z" />
<glyph unicode="&#x1ebf;" horiz-adv-x="1228" d="M29 375q0 51 12 112q53 250 222 388.5t470 138.5q145 0 252 -52.5t163 -144.5t56 -209q0 -51 -12 -106l-29 -133h-757q4 -68 62 -99.5t206 -31.5q98 0 204.5 15t184.5 44l-53 -256q-86 -33 -207 -52.5t-244 -19.5q-242 0 -386 106.5t-144 299.5zM297 1067l393 326h273 l254 -326h-334l-95 139l-155 -139h-336zM455 606h370q4 68 -29.5 102.5t-125.5 34.5q-82 0 -136.5 -36.5t-78.5 -100.5zM1085 1321l183 295h336l-232 -295h-287z" />
<glyph unicode="&#x1ec0;" horiz-adv-x="1140" d="M-20 0l303 1432h1038l-76 -357h-614l-41 -196h442l-69 -326h-443l-43 -197h615l-74 -356h-1038zM223 2066h336l55 -294h-286zM377 1518l395 325h270l254 -325h-333l-95 139l-155 -139h-336z" />
<glyph unicode="&#x1ec1;" horiz-adv-x="1228" d="M29 375q0 51 12 112q53 250 222 388.5t470 138.5q145 0 252 -52.5t163 -144.5t56 -209q0 -51 -12 -106l-29 -133h-757q4 -68 62 -99.5t206 -31.5q98 0 204.5 15t184.5 44l-53 -256q-86 -33 -207 -52.5t-244 -19.5q-242 0 -386 106.5t-144 299.5zM90 1616h336l55 -295 h-286zM305 1067l395 326h271l254 -326h-334l-94 139l-156 -139h-336zM455 606h370q4 68 -29.5 102.5t-125.5 34.5q-82 0 -136.5 -36.5t-78.5 -100.5z" />
<glyph unicode="&#x1ec2;" horiz-adv-x="1140" d="M-20 0l303 1432h1038l-76 -357h-614l-41 -196h442l-69 -326h-443l-43 -197h615l-74 -356h-1038zM350 1518l393 325h273l254 -325h-334l-94 139l-156 -139h-336zM1112 1933l29 131q39 10 95 17.5t99 7.5q100 0 152.5 -33t52.5 -90q0 -61 -41 -103t-115 -63l-10 -51h-250 l23 104q100 0 110 50q10 43 -69 43q-45 0 -76 -13z" />
<glyph unicode="&#x1ec3;" horiz-adv-x="1228" d="M29 375q0 51 12 112q53 250 222 388.5t470 138.5q145 0 252 -52.5t163 -144.5t56 -209q0 -51 -12 -106l-29 -133h-757q4 -68 62 -99.5t206 -31.5q98 0 204.5 15t184.5 44l-53 -256q-86 -33 -207 -52.5t-244 -19.5q-242 0 -386 106.5t-144 299.5zM283 1081l393 326h272 l254 -326h-334l-94 140l-156 -140h-335zM455 606h370q4 68 -29.5 102.5t-125.5 34.5q-82 0 -136.5 -36.5t-78.5 -100.5zM1044 1497l29 131q39 10 95.5 17.5t99.5 7.5q100 0 152.5 -33t52.5 -90q0 -61 -41 -103.5t-115 -62.5l-10 -51h-250l22 104q100 0 111 49q10 43 -70 43 q-45 0 -76 -12z" />
<glyph unicode="&#x1ec4;" horiz-adv-x="1140" d="M-20 0l303 1432h1038l-76 -357h-614l-41 -196h442l-69 -326h-443l-43 -197h615l-74 -356h-1038zM362 1518l394 325h272l254 -325h-334l-94 139l-156 -139h-336zM575 1868l48 219q74 68 188 67q35 0 66.5 -9t59.5 -19t36 -15q49 -20 81.5 -30t67.5 -10q106 0 195 81 l-47 -221q-72 -66 -189 -65q-39 0 -72.5 10t-93.5 33q-51 20 -81.5 30.5t-65.5 10.5q-104 0 -193 -82z" />
<glyph unicode="&#x1ec5;" horiz-adv-x="1228" d="M29 375q0 51 12 112q53 250 222 388.5t470 138.5q145 0 252 -52.5t163 -144.5t56 -209q0 -51 -12 -106l-29 -133h-757q4 -68 62 -99.5t206 -31.5q98 0 204.5 15t184.5 44l-53 -256q-86 -33 -207 -52.5t-244 -19.5q-242 0 -386 106.5t-144 299.5zM299 1067l393 326h273 l254 -326h-334l-94 139l-156 -139h-336zM455 606h370q4 68 -29.5 102.5t-125.5 34.5q-82 0 -136.5 -36.5t-78.5 -100.5zM512 1417l47 219q74 68 189 68q35 0 66.5 -9t59 -19.5t35.5 -14.5q49 -20 82 -30.5t68 -10.5q106 0 194 82l-47 -221q-72 -66 -188 -66q-39 0 -73 10.5 t-93 32.5q-51 20 -82 30.5t-65 10.5q-104 0 -193 -82z" />
<glyph unicode="&#x1ec6;" horiz-adv-x="1140" d="M-20 0l303 1432h1038l-76 -357h-614l-41 -196h442l-69 -326h-443l-43 -197h615l-74 -356h-1038zM289 -295q0 53 30.5 99t80 74t100.5 28q57 0 94 -37t37 -94q0 -82 -62.5 -143.5t-140.5 -61.5q-61 0 -100 38t-39 97zM328 1532l377 352h337l228 -352h-342l-88 145 l-150 -145h-362z" />
<glyph unicode="&#x1ec7;" horiz-adv-x="1228" d="M29 375q0 51 12 112q53 250 222 388.5t470 138.5q145 0 252 -52.5t163 -144.5t56 -209q0 -51 -12 -106l-29 -133h-757q4 -68 62 -99.5t206 -31.5q98 0 204.5 15t184.5 44l-53 -256q-86 -33 -207 -52.5t-244 -19.5q-242 0 -386 106.5t-144 299.5zM244 1081l377 353h337 l228 -353h-342l-88 146l-150 -146h-362zM301 -295q0 53 30.5 99t80 74t100.5 28q57 0 94 -37t37 -94q0 -82 -62.5 -143.5t-140.5 -61.5q-61 0 -100 38t-39 97zM455 606h370q4 68 -29.5 102.5t-125.5 34.5q-82 0 -136.5 -36.5t-78.5 -100.5z" />
<glyph unicode="&#x1ec8;" horiz-adv-x="587" d="M-20 0l303 1432h424l-304 -1432h-423zM289 1794l37 172q121 37 274 37q150 0 225.5 -49t75.5 -133q0 -14 -4 -43q-18 -76 -78.5 -128.5t-163.5 -68.5l-12 -61h-340l31 147q201 0 201 92q0 55 -115 56q-35 0 -73 -6.5t-58 -14.5z" />
<glyph unicode="&#x1ec9;" horiz-adv-x="573" d="M-20 0l208 983h410l-209 -983h-409zM180 1341l37 172q121 37 275 37q150 0 225.5 -49t75.5 -133q0 -14 -5 -43q-18 -76 -78.5 -128t-162.5 -69l-12 -61h-340l30 147q201 0 201 93q0 55 -115 55q-35 0 -72.5 -6t-58.5 -15z" />
<glyph unicode="&#x1eca;" horiz-adv-x="587" d="M-37 -295q0 53 31 99t80 74t100 28q57 0 94 -37t37 -94q0 -82 -62.5 -143.5t-140.5 -61.5q-61 0 -100 38t-39 97zM-20 0l303 1432h424l-304 -1432h-423z" />
<glyph unicode="&#x1ecb;" horiz-adv-x="593" d="M-31 -295q0 53 31 99t80 74t100 28q57 0 94 -37t37 -94q0 -82 -62.5 -143.5t-139.5 -61.5q-62 0 -101 38t-39 97zM-10 0l209 983h409l-209 -983h-409zM250 1255q0 70 37 129.5t98 95.5t131 36q78 0 126 -47.5t48 -120.5q0 -29 -4 -43q-20 -90 -95 -150.5t-165 -60.5 q-80 0 -128 45t-48 116z" />
<glyph unicode="&#x1ecc;" horiz-adv-x="1626" d="M72 543q0 84 18 172q47 221 180 391t329 263t423 93q186 0 329.5 -70.5t222.5 -201.5t79 -303q0 -82 -19 -172q-47 -221 -180 -390t-328.5 -262.5t-420.5 -93.5q-187 0 -331.5 71t-223 201t-78.5 302zM483 -295q0 53 31 99t80 74t100 28q57 0 94 -37t37 -94 q0 -82 -62.5 -143.5t-139.5 -61.5q-62 0 -101 38t-39 97zM510 612q0 -119 71.5 -182t209.5 -63q145 0 260.5 94t150.5 254q12 55 12 100q0 119 -70.5 182.5t-205.5 63.5q-147 0 -265 -94.5t-151 -251.5q-12 -55 -12 -103z" />
<glyph unicode="&#x1ecd;" horiz-adv-x="1325" d="M31 385q0 51 12 107q33 154 128 271.5t248.5 184t354.5 66.5q160 0 278.5 -53.5t182 -147.5t63.5 -217q0 -49 -12 -104q-33 -154 -130 -272t-251.5 -184.5t-353.5 -66.5q-156 0 -273.5 52.5t-182 146.5t-64.5 217zM332 -295q0 53 30.5 99t80 74t100.5 28q57 0 94 -37 t37 -94q0 -82 -62.5 -143.5t-140.5 -61.5q-61 0 -100 38t-39 97zM455 426q0 -139 163 -139q93 0 160.5 55t87.5 150q6 35 6 65q0 68 -38.5 102.5t-126.5 34.5q-92 0 -159 -54t-85 -148q-8 -45 -8 -66z" />
<glyph unicode="&#x1ece;" horiz-adv-x="1626" d="M72 543q0 84 18 172q47 221 180 391t329 263t423 93q186 0 329.5 -70.5t222.5 -201.5t79 -303q0 -82 -19 -172q-47 -221 -180 -390t-328.5 -262.5t-420.5 -93.5q-187 0 -331.5 71t-223 201t-78.5 302zM510 612q0 -119 71.5 -182t209.5 -63q145 0 260.5 94t150.5 254 q12 55 12 100q0 119 -70.5 182.5t-205.5 63.5q-147 0 -265 -94.5t-151 -251.5q-12 -55 -12 -103zM774 1794l37 172q121 37 274 37q150 0 225.5 -49t75.5 -133q0 -14 -4 -43q-18 -76 -78.5 -128.5t-162.5 -68.5l-13 -61h-340l31 147q201 0 201 92q0 55 -115 56 q-35 0 -72.5 -6.5t-58.5 -14.5z" />
<glyph unicode="&#x1ecf;" horiz-adv-x="1325" d="M31 385q0 51 12 107q33 154 128 271.5t248.5 184t354.5 66.5q160 0 278.5 -53.5t182 -147.5t63.5 -217q0 -49 -12 -104q-33 -154 -130 -272t-251.5 -184.5t-353.5 -66.5q-156 0 -273.5 52.5t-182 146.5t-64.5 217zM455 426q0 -139 163 -139q93 0 160.5 55t87.5 150 q6 35 6 65q0 68 -38.5 102.5t-126.5 34.5q-92 0 -159 -54t-85 -148q-8 -45 -8 -66zM563 1341l37 172q121 37 274 37q150 0 226 -49t76 -133q0 -14 -5 -43q-18 -76 -78.5 -128t-162.5 -69l-12 -61h-340l30 147q201 0 201 93q0 55 -115 55q-35 0 -72.5 -6t-58.5 -15z" />
<glyph unicode="&#x1ed0;" horiz-adv-x="1626" d="M72 543q0 84 18 172q47 221 180 391t329 263t423 93q186 0 329.5 -70.5t222.5 -201.5t79 -303q0 -82 -19 -172q-47 -221 -180 -390t-328.5 -262.5t-420.5 -93.5q-187 0 -331.5 71t-223 201t-78.5 302zM510 612q0 -119 71.5 -182t209.5 -63q145 0 260.5 94t150.5 254 q12 55 12 100q0 119 -70.5 182.5t-205.5 63.5q-147 0 -265 -94.5t-151 -251.5q-12 -55 -12 -103zM573 1518l394 325h272l254 -325h-334l-94 139l-156 -139h-336zM1362 1772l182 294h336l-231 -294h-287z" />
<glyph unicode="&#x1ed1;" horiz-adv-x="1325" d="M31 385q0 51 12 107q33 154 128 271.5t248.5 184t354.5 66.5q160 0 278.5 -53.5t182 -147.5t63.5 -217q0 -49 -12 -104q-33 -154 -130 -272t-251.5 -184.5t-353.5 -66.5q-156 0 -273.5 52.5t-182 146.5t-64.5 217zM309 1067l393 326h273l254 -326h-334l-94 139l-156 -139 h-336zM455 426q0 -139 163 -139q93 0 160.5 55t87.5 150q6 35 6 65q0 68 -38.5 102.5t-126.5 34.5q-92 0 -159 -54t-85 -148q-8 -45 -8 -66zM1098 1321l182 295h336l-232 -295h-286z" />
<glyph unicode="&#x1ed2;" horiz-adv-x="1626" d="M72 543q0 84 18 172q47 221 180 391t329 263t423 93q186 0 329.5 -70.5t222.5 -201.5t79 -303q0 -82 -19 -172q-47 -221 -180 -390t-328.5 -262.5t-420.5 -93.5q-187 0 -331.5 71t-223 201t-78.5 302zM414 2066h336l55 -294h-287zM510 612q0 -119 71.5 -182t209.5 -63 q145 0 260.5 94t150.5 254q12 55 12 100q0 119 -70.5 182.5t-205.5 63.5q-147 0 -265 -94.5t-151 -251.5q-12 -55 -12 -103zM567 1518l396 325h270l254 -325h-334l-94 139l-156 -139h-336z" />
<glyph unicode="&#x1ed3;" horiz-adv-x="1325" d="M31 385q0 51 12 107q33 154 128 271.5t248.5 184t354.5 66.5q160 0 278.5 -53.5t182 -147.5t63.5 -217q0 -49 -12 -104q-33 -154 -130 -272t-251.5 -184.5t-353.5 -66.5q-156 0 -273.5 52.5t-182 146.5t-64.5 217zM180 1616h336l55 -295h-286zM334 1067l395 326h270 l254 -326h-333l-95 139l-155 -139h-336zM455 426q0 -139 163 -139q93 0 160.5 55t87.5 150q6 35 6 65q0 68 -38.5 102.5t-126.5 34.5q-92 0 -159 -54t-85 -148q-8 -45 -8 -66z" />
<glyph unicode="&#x1ed4;" horiz-adv-x="1626" d="M72 543q0 84 18 172q47 221 180 391t329 263t423 93q186 0 329.5 -70.5t222.5 -201.5t79 -303q0 -82 -19 -172q-47 -221 -180 -390t-328.5 -262.5t-420.5 -93.5q-187 0 -331.5 71t-223 201t-78.5 302zM510 612q0 -119 71.5 -182t209.5 -63q145 0 260.5 94t150.5 254 q12 55 12 100q0 119 -70.5 182.5t-205.5 63.5q-147 0 -265 -94.5t-151 -251.5q-12 -55 -12 -103zM600 1518l393 325h273l254 -325h-334l-94 139l-156 -139h-336zM1362 1933l29 131q39 10 95 17.5t99 7.5q100 0 152.5 -33t52.5 -90q0 -61 -41 -103t-115 -63l-10 -51h-250 l23 104q100 0 110 50q10 43 -69 43q-45 0 -76 -13z" />
<glyph unicode="&#x1ed5;" horiz-adv-x="1329" d="M31 385q0 51 12 107q33 154 128 271.5t248.5 184t354.5 66.5q160 0 278.5 -53.5t182 -147.5t63.5 -217q0 -49 -12 -104q-33 -154 -130 -272t-251.5 -184.5t-353.5 -66.5q-156 0 -273.5 52.5t-182 146.5t-64.5 217zM338 1067l393 326h273l253 -326h-333l-95 139l-155 -139 h-336zM455 426q0 -139 163 -139q93 0 160.5 55t87.5 150q6 35 6 65q0 68 -38.5 102.5t-126.5 34.5q-92 0 -159 -54t-85 -148q-8 -45 -8 -66zM1100 1483l28 131q39 10 95.5 17t99.5 7q100 0 152.5 -32.5t52.5 -89.5q0 -61 -41 -103.5t-115 -62.5l-10 -52h-250l23 105 q100 0 110 49q10 43 -69 43q-45 0 -76 -12z" />
<glyph unicode="&#x1ed6;" horiz-adv-x="1626" d="M72 543q0 84 18 172q47 221 180 391t329 263t423 93q186 0 329.5 -70.5t222.5 -201.5t79 -303q0 -82 -19 -172q-47 -221 -180 -390t-328.5 -262.5t-420.5 -93.5q-187 0 -331.5 71t-223 201t-78.5 302zM510 612q0 -119 71.5 -182t209.5 -63q145 0 260.5 94t150.5 254 q12 55 12 100q0 119 -70.5 182.5t-205.5 63.5q-147 0 -265 -94.5t-151 -251.5q-12 -55 -12 -103zM721 1765q0 39 8 72h262q-4 -25 -4 -35q0 -74 92 -73q111 0 133 108h258q-31 -147 -150.5 -233t-285.5 -86q-145 0 -229 65.5t-84 181.5zM770 1886l47 219q74 68 189 68 q61 0 159 -43q51 -20 86 -30.5t70 -10.5q102 0 190 82l-47 -221q-72 -66 -186 -66q-41 0 -75 10.5t-93 32.5q-51 20 -82 30.5t-65 10.5q-104 0 -193 -82z" />
<glyph unicode="&#x1ed7;" horiz-adv-x="1325" d="M31 385q0 51 12 107q33 154 128 271.5t248.5 184t354.5 66.5q160 0 278.5 -53.5t182 -147.5t63.5 -217q0 -49 -12 -104q-33 -154 -130 -272t-251.5 -184.5t-353.5 -66.5q-156 0 -273.5 52.5t-182 146.5t-64.5 217zM455 426q0 -139 163 -139q93 0 160.5 55t87.5 150 q6 35 6 65q0 68 -38.5 102.5t-126.5 34.5q-92 0 -159 -54t-85 -148q-8 -45 -8 -66zM473 1313q0 39 8 71h262q-4 -25 -4 -34q0 -74 92 -74q111 0 134 108h258q-31 -147 -151 -233t-286 -86q-145 0 -229 65.5t-84 182.5zM522 1434l47 219q74 68 189 67q61 0 160 -43 q51 -20 85.5 -30.5t69.5 -10.5q102 0 191 82l-47 -221q-72 -66 -187 -65q-41 0 -74.5 10t-93.5 33q-51 20 -81.5 30.5t-65.5 10.5q-104 0 -193 -82z" />
<glyph unicode="&#x1ed8;" horiz-adv-x="1626" d="M72 543q0 84 18 172q47 221 180 391t329 263t423 93q186 0 329.5 -70.5t222.5 -201.5t79 -303q0 -82 -19 -172q-47 -221 -180 -390t-328.5 -262.5t-420.5 -93.5q-187 0 -331.5 71t-223 201t-78.5 302zM483 -295q0 53 31 99t80 74t100 28q57 0 94 -37t37 -94 q0 -82 -62.5 -143.5t-139.5 -61.5q-62 0 -101 38t-39 97zM510 612q0 -119 71.5 -182t209.5 -63q145 0 260.5 94t150.5 254q12 55 12 100q0 119 -70.5 182.5t-205.5 63.5q-147 0 -265 -94.5t-151 -251.5q-12 -55 -12 -103zM524 1532l377 352h338l227 -352h-342l-88 145 l-149 -145h-363z" />
<glyph unicode="&#x1ed9;" horiz-adv-x="1325" d="M31 385q0 51 12 107q33 154 128 271.5t248.5 184t354.5 66.5q160 0 278.5 -53.5t182 -147.5t63.5 -217q0 -49 -12 -104q-33 -154 -130 -272t-251.5 -184.5t-353.5 -66.5q-156 0 -273.5 52.5t-182 146.5t-64.5 217zM279 1081l376 353h338l228 -353h-342l-88 146l-150 -146 h-362zM336 -295q0 53 30.5 99t80 74t100.5 28q57 0 94 -37t37 -94q0 -82 -62.5 -143.5t-140.5 -61.5q-61 0 -100 38t-39 97zM455 426q0 -139 163 -139q93 0 160.5 55t87.5 150q6 35 6 65q0 68 -38.5 102.5t-126.5 34.5q-92 0 -159 -54t-85 -148q-8 -45 -8 -66z" />
<glyph unicode="&#x1eda;" horiz-adv-x="1857" d="M72 545q0 82 18 170q47 221 180 391t329 263t423 93q145 0 266 -44t205 -126q113 0 166 42t72 128l14 68h334l-19 -94q-31 -160 -142.5 -270.5t-279.5 -141.5q14 -59 15 -139q0 -80 -19 -170q-47 -221 -180 -390t-327.5 -262.5t-421.5 -93.5q-189 0 -332.5 71t-222 202 t-78.5 303zM510 612q0 -119 71.5 -182t209.5 -63q145 0 260.5 94t150.5 254q12 55 12 100q0 119 -70.5 182.5t-205.5 63.5q-147 0 -265 -94.5t-151 -251.5q-12 -55 -12 -103zM827 1509l220 369h411l-268 -369h-363z" />
<glyph unicode="&#x1edb;" horiz-adv-x="1536" d="M31 385q0 51 12 107q33 154 128 271.5t248.5 184t354.5 66.5q231 0 375 -111q84 10 126 53t58 119l15 68h327l-20 -94q-31 -145 -125 -251t-236 -147q4 -37 4 -55q0 -51 -12 -104q-33 -154 -130 -272t-251.5 -184.5t-353.5 -66.5q-156 0 -273.5 52.5t-182 146.5 t-64.5 217zM455 426q0 -139 163 -139q93 0 160.5 55t87.5 150q6 35 6 65q0 68 -38.5 102.5t-126.5 34.5q-92 0 -159 -54t-85 -148q-8 -45 -8 -66zM539 1059l219 368h411l-268 -368h-362z" />
<glyph unicode="&#x1edc;" horiz-adv-x="1857" d="M72 545q0 82 18 170q47 221 180 391t329 263t423 93q145 0 266 -44t205 -126q113 0 166 42t72 128l14 68h334l-19 -94q-31 -160 -142.5 -270.5t-279.5 -141.5q14 -59 15 -139q0 -80 -19 -170q-47 -221 -180 -390t-327.5 -262.5t-421.5 -93.5q-189 0 -332.5 71t-222 202 t-78.5 303zM510 612q0 -119 71.5 -182t209.5 -63q145 0 260.5 94t150.5 254q12 55 12 100q0 119 -70.5 182.5t-205.5 63.5q-147 0 -265 -94.5t-151 -251.5q-12 -55 -12 -103zM694 1878h412l63 -369h-362z" />
<glyph unicode="&#x1edd;" horiz-adv-x="1536" d="M31 385q0 51 12 107q33 154 128 271.5t248.5 184t354.5 66.5q231 0 375 -111q84 10 126 53t58 119l15 68h327l-20 -94q-31 -145 -125 -251t-236 -147q4 -37 4 -55q0 -51 -12 -104q-33 -154 -130 -272t-251.5 -184.5t-353.5 -66.5q-156 0 -273.5 52.5t-182 146.5 t-64.5 217zM440 1427h412l63 -368h-362zM455 426q0 -139 163 -139q93 0 160.5 55t87.5 150q6 35 6 65q0 68 -38.5 102.5t-126.5 34.5q-92 0 -159 -54t-85 -148q-8 -45 -8 -66z" />
<glyph unicode="&#x1ede;" horiz-adv-x="1857" d="M72 545q0 82 18 170q47 221 180 391t329 263t423 93q145 0 266 -44t205 -126q113 0 166 42t72 128l14 68h334l-19 -94q-31 -160 -142.5 -270.5t-279.5 -141.5q14 -59 15 -139q0 -80 -19 -170q-47 -221 -180 -390t-327.5 -262.5t-421.5 -93.5q-189 0 -332.5 71t-222 202 t-78.5 303zM510 612q0 -119 71.5 -182t209.5 -63q145 0 260.5 94t150.5 254q12 55 12 100q0 119 -70.5 182.5t-205.5 63.5q-147 0 -265 -94.5t-151 -251.5q-12 -55 -12 -103zM803 1794l37 172q121 37 274 37q150 0 225.5 -49t75.5 -133q0 -14 -4 -43q-18 -76 -78.5 -128.5 t-163.5 -68.5l-12 -61h-340l31 147q201 0 201 92q0 55 -115 56q-35 0 -73 -6.5t-58 -14.5z" />
<glyph unicode="&#x1edf;" horiz-adv-x="1536" d="M31 385q0 51 12 107q33 154 128 271.5t248.5 184t354.5 66.5q231 0 375 -111q84 10 126 53t58 119l15 68h327l-20 -94q-31 -145 -125 -251t-236 -147q4 -37 4 -55q0 -51 -12 -104q-33 -154 -130 -272t-251.5 -184.5t-353.5 -66.5q-156 0 -273.5 52.5t-182 146.5 t-64.5 217zM455 426q0 -139 163 -139q93 0 160.5 55t87.5 150q6 35 6 65q0 68 -38.5 102.5t-126.5 34.5q-92 0 -159 -54t-85 -148q-8 -45 -8 -66zM522 1341l37 172q121 37 275 37q150 0 225.5 -49t75.5 -133q0 -14 -5 -43q-18 -76 -78.5 -128t-162.5 -69l-12 -61h-340 l30 147q201 0 201 93q0 55 -115 55q-35 0 -72.5 -6t-58.5 -15z" />
<glyph unicode="&#x1ee0;" horiz-adv-x="1857" d="M72 545q0 82 18 170q47 221 180 391t329 263t423 93q145 0 266 -44t205 -126q113 0 166 42t72 128l14 68h334l-19 -94q-31 -160 -142.5 -270.5t-279.5 -141.5q14 -59 15 -139q0 -80 -19 -170q-47 -221 -180 -390t-327.5 -262.5t-421.5 -93.5q-189 0 -332.5 71t-222 202 t-78.5 303zM510 612q0 -119 71.5 -182t209.5 -63q145 0 260.5 94t150.5 254q12 55 12 100q0 119 -70.5 182.5t-205.5 63.5q-147 0 -265 -94.5t-151 -251.5q-12 -55 -12 -103zM604 1520l62 288q90 84 237 84q45 0 88 -12t111 -39q61 -25 103 -38t87 -13q131 0 238 100 l-60 -286q-86 -84 -235 -84q-51 0 -97 13t-112 40q-59 25 -99 37t-83 12q-129 0 -240 -102z" />
<glyph unicode="&#x1ee1;" horiz-adv-x="1536" d="M31 385q0 51 12 107q33 154 128 271.5t248.5 184t354.5 66.5q231 0 375 -111q84 10 126 53t58 119l15 68h327l-20 -94q-31 -145 -125 -251t-236 -147q4 -37 4 -55q0 -51 -12 -104q-33 -154 -130 -272t-251.5 -184.5t-353.5 -66.5q-156 0 -273.5 52.5t-182 146.5 t-64.5 217zM309 1073l62 289q90 84 237 84q45 0 88 -12.5t111 -38.5q61 -25 103 -38.5t87 -13.5q131 0 238 101l-59 -287q-86 -84 -236 -84q-51 0 -97 13.5t-112 39.5q-59 25 -99 37.5t-83 12.5q-129 0 -240 -103zM455 426q0 -139 163 -139q93 0 160.5 55t87.5 150 q6 35 6 65q0 68 -38.5 102.5t-126.5 34.5q-92 0 -159 -54t-85 -148q-8 -45 -8 -66z" />
<glyph unicode="&#x1ee2;" horiz-adv-x="1857" d="M72 545q0 82 18 170q47 221 180 391t329 263t423 93q145 0 266 -44t205 -126q113 0 166 42t72 128l14 68h334l-19 -94q-31 -160 -142.5 -270.5t-279.5 -141.5q14 -59 15 -139q0 -80 -19 -170q-47 -221 -180 -390t-327.5 -262.5t-421.5 -93.5q-189 0 -332.5 71t-222 202 t-78.5 303zM492 -295q0 53 30.5 99t79.5 74t100 28q57 0 94.5 -37t37.5 -94q0 -82 -62.5 -143.5t-140.5 -61.5q-62 0 -100.5 38t-38.5 97zM510 612q0 -119 71.5 -182t209.5 -63q145 0 260.5 94t150.5 254q12 55 12 100q0 119 -70.5 182.5t-205.5 63.5q-147 0 -265 -94.5 t-151 -251.5q-12 -55 -12 -103z" />
<glyph unicode="&#x1ee3;" horiz-adv-x="1536" d="M31 385q0 51 12 107q33 154 128 271.5t248.5 184t354.5 66.5q231 0 375 -111q84 10 126 53t58 119l15 68h327l-20 -94q-31 -145 -125 -251t-236 -147q4 -37 4 -55q0 -51 -12 -104q-33 -154 -130 -272t-251.5 -184.5t-353.5 -66.5q-156 0 -273.5 52.5t-182 146.5 t-64.5 217zM334 -295q0 53 30.5 99t80 74t100.5 28q57 0 94 -37t37 -94q0 -82 -62.5 -143.5t-140.5 -61.5q-61 0 -100 38t-39 97zM455 426q0 -139 163 -139q93 0 160.5 55t87.5 150q6 35 6 65q0 68 -38.5 102.5t-126.5 34.5q-92 0 -159 -54t-85 -148q-8 -45 -8 -66z" />
<glyph unicode="&#x1ee4;" horiz-adv-x="1482" d="M82 459q0 78 18 164l172 809h424l-170 -805q-14 -76 -14 -111q0 -84 46 -120t147 -36q102 0 163.5 29t95 86t54.5 152l170 805h424l-172 -809q-68 -315 -257.5 -484.5t-551.5 -169.5q-256 0 -402.5 131t-146.5 359zM412 -295q0 53 30.5 99t79.5 74t101 28q57 0 94 -37 t37 -94q0 -82 -62.5 -143.5t-140.5 -61.5q-62 0 -100.5 38t-38.5 97z" />
<glyph unicode="&#x1ee5;" horiz-adv-x="1288" d="M39 283q0 53 12 104l127 596h410l-117 -547q-8 -33 -8 -65q0 -45 24.5 -64.5t81.5 -19.5q121 0 207 110l125 586h412l-209 -983h-397l18 94q-74 -61 -167 -93t-187 -32q-162 0 -247 87t-85 227zM315 -295q0 53 31 99t80 74t100 28q57 0 94 -37t37 -94q0 -82 -62.5 -143.5 t-139.5 -61.5q-62 0 -101 38t-39 97z" />
<glyph unicode="&#x1ee6;" horiz-adv-x="1482" d="M82 459q0 78 18 164l172 809h424l-170 -805q-14 -76 -14 -111q0 -84 46 -120t147 -36q102 0 163.5 29t95 86t54.5 152l170 805h424l-172 -809q-68 -315 -257.5 -484.5t-551.5 -169.5q-256 0 -402.5 131t-146.5 359zM723 1794l37 172q121 37 274 37q150 0 225.5 -49 t75.5 -133q0 -14 -4 -43q-18 -76 -78.5 -128.5t-162.5 -68.5l-13 -61h-340l31 147q201 0 201 92q0 55 -115 56q-35 0 -73 -6.5t-58 -14.5z" />
<glyph unicode="&#x1ee7;" horiz-adv-x="1288" d="M39 283q0 53 12 104l127 596h410l-117 -547q-8 -33 -8 -65q0 -45 24.5 -64.5t81.5 -19.5q121 0 207 110l125 586h412l-209 -983h-397l18 94q-74 -61 -167 -93t-187 -32q-162 0 -247 87t-85 227zM526 1341l37 172q121 37 275 37q150 0 225.5 -49t75.5 -133q0 -14 -4 -43 q-18 -76 -79 -128t-163 -69l-12 -61h-340l30 147q201 0 201 93q0 55 -115 55q-35 0 -72.5 -6t-58.5 -15z" />
<glyph unicode="&#x1ee8;" horiz-adv-x="1847" d="M82 459q0 78 18 164l172 809h424l-170 -805q-14 -76 -14 -111q0 -84 46 -120t147 -36q152 0 218 62.5t95 204.5l170 805h424l-29 -138q78 6 114 44t54 122l14 70h303l-18 -92q-37 -176 -167 -285t-355 -117l-88 -413q-68 -315 -257.5 -484.5t-551.5 -169.5 q-256 0 -402.5 131t-146.5 359zM737 1509l219 369h412l-268 -369h-363z" />
<glyph unicode="&#x1ee9;" horiz-adv-x="1642" d="M39 283q0 53 12 104l127 596h410l-117 -547q-8 -33 -8 -65q0 -45 24.5 -64.5t81.5 -19.5q121 0 207 110l125 586h412l-17 -76q78 6 114 44t54 122l15 70h303l-19 -92q-37 -176 -167 -285t-355 -117l-137 -649h-397l18 94q-74 -61 -167 -93t-187 -32q-162 0 -247 87 t-85 227zM530 1096l220 368h411l-268 -368h-363z" />
<glyph unicode="&#x1eea;" horiz-adv-x="1847" d="M82 459q0 78 18 164l172 809h424l-170 -805q-14 -76 -14 -111q0 -84 46 -120t147 -36q152 0 218 62.5t95 204.5l170 805h424l-29 -138q78 6 114 44t54 122l14 70h303l-18 -92q-37 -176 -167 -285t-355 -117l-88 -413q-68 -315 -257.5 -484.5t-551.5 -169.5 q-256 0 -402.5 131t-146.5 359zM643 1878h412l63 -369h-362z" />
<glyph unicode="&#x1eeb;" horiz-adv-x="1642" d="M39 283q0 53 12 104l127 596h410l-117 -547q-8 -33 -8 -65q0 -45 24.5 -64.5t81.5 -19.5q121 0 207 110l125 586h412l-17 -76q78 6 114 44t54 122l15 70h303l-19 -92q-37 -176 -167 -285t-355 -117l-137 -649h-397l18 94q-74 -61 -167 -93t-187 -32q-162 0 -247 87 t-85 227zM453 1464h411l64 -368h-363z" />
<glyph unicode="&#x1eec;" horiz-adv-x="1847" d="M82 459q0 78 18 164l172 809h424l-170 -805q-14 -76 -14 -111q0 -84 46 -120t147 -36q152 0 218 62.5t95 204.5l170 805h424l-29 -138q78 6 114 44t54 122l14 70h303l-18 -92q-37 -176 -167 -285t-355 -117l-88 -413q-68 -315 -257.5 -484.5t-551.5 -169.5 q-256 0 -402.5 131t-146.5 359zM748 1794l36 172q121 37 275 37q150 0 225.5 -49t75.5 -133q0 -14 -4 -43q-18 -76 -78.5 -128.5t-163.5 -68.5l-12 -61h-340l31 147q201 0 200 92q0 55 -114 56q-35 0 -73 -6.5t-58 -14.5z" />
<glyph unicode="&#x1eed;" horiz-adv-x="1642" d="M39 283q0 53 12 104l127 596h410l-117 -547q-8 -33 -8 -65q0 -45 24.5 -64.5t81.5 -19.5q121 0 207 110l125 586h412l-17 -76q78 6 114 44t54 122l15 70h303l-19 -92q-37 -176 -167 -285t-355 -117l-137 -649h-397l18 94q-74 -61 -167 -93t-187 -32q-162 0 -247 87 t-85 227zM532 1370l37 172q121 37 275 37q150 0 225.5 -49t75.5 -133q0 -14 -4 -43q-18 -76 -79 -128t-163 -69l-12 -61h-340l31 147q201 0 200 92q0 55 -114 56q-35 0 -73 -6.5t-59 -14.5z" />
<glyph unicode="&#x1eee;" horiz-adv-x="1847" d="M82 459q0 78 18 164l172 809h424l-170 -805q-14 -76 -14 -111q0 -84 46 -120t147 -36q152 0 218 62.5t95 204.5l170 805h424l-29 -138q78 6 114 44t54 122l14 70h303l-18 -92q-37 -176 -167 -285t-355 -117l-88 -413q-68 -315 -257.5 -484.5t-551.5 -169.5 q-256 0 -402.5 131t-146.5 359zM549 1520l61 288q90 84 238 84q45 0 88 -12t111 -39q61 -25 103 -38t87 -13q131 0 238 100l-60 -286q-86 -84 -235 -84q-51 0 -97.5 13t-111.5 40q-59 25 -99.5 37t-83.5 12q-129 0 -239 -102z" />
<glyph unicode="&#x1eef;" horiz-adv-x="1642" d="M39 283q0 53 12 104l127 596h410l-117 -547q-8 -33 -8 -65q0 -45 24.5 -64.5t81.5 -19.5q121 0 207 110l125 586h412l-17 -76q78 6 114 44t54 122l15 70h303l-19 -92q-37 -176 -167 -285t-355 -117l-137 -649h-397l18 94q-74 -61 -167 -93t-187 -32q-162 0 -247 87 t-85 227zM336 1096l61 288q90 84 238 84q45 0 88 -12t111 -39q61 -25 103 -38t87 -13q131 0 238 100l-60 -286q-86 -84 -235 -84q-51 0 -97.5 13t-111.5 40q-59 25 -99.5 37t-83.5 12q-129 0 -239 -102z" />
<glyph unicode="&#x1ef0;" horiz-adv-x="1847" d="M82 459q0 78 18 164l172 809h424l-170 -805q-14 -76 -14 -111q0 -84 46 -120t147 -36q152 0 218 62.5t95 204.5l170 805h424l-29 -138q78 6 114 44t54 122l14 70h303l-18 -92q-37 -176 -167 -285t-355 -117l-88 -413q-68 -315 -257.5 -484.5t-551.5 -169.5 q-256 0 -402.5 131t-146.5 359zM426 -295q0 53 30.5 99t80 74t100.5 28q57 0 94 -37t37 -94q0 -82 -62.5 -143.5t-140.5 -61.5q-61 0 -100 38t-39 97z" />
<glyph unicode="&#x1ef1;" horiz-adv-x="1642" d="M39 283q0 53 12 104l127 596h410l-117 -547q-8 -33 -8 -65q0 -45 24.5 -64.5t81.5 -19.5q121 0 207 110l125 586h412l-17 -76q78 6 114 44t54 122l15 70h303l-19 -92q-37 -176 -167 -285t-355 -117l-137 -649h-397l18 94q-74 -61 -167 -93t-187 -32q-162 0 -247 87 t-85 227zM326 -295q0 53 30.5 99t79.5 74t101 28q57 0 94 -37t37 -94q0 -82 -62.5 -143.5t-140.5 -61.5q-62 0 -100.5 38t-38.5 97z" />
<glyph unicode="&#x1ef2;" horiz-adv-x="1568" d="M242 1432h436l178 -494l406 494h467l-730 -887l-114 -545h-424l114 545zM674 1878h411l64 -369h-363z" />
<glyph unicode="&#x1ef3;" horiz-adv-x="1314" d="M-4 -403l57 272q147 -70 359 -70q139 0 206.5 53.5t90.5 159.5l22 111q-74 -61 -167 -93t-187 -32q-160 0 -245 88t-85 229q0 57 10 101l121 567h410l-111 -518q-8 -45 -8 -62q0 -45 25.5 -66.5t80.5 -21.5q121 0 207 111l119 557h412l-191 -893q-57 -274 -239.5 -417.5 t-528.5 -143.5q-96 0 -194.5 18.5t-163.5 49.5zM489 1427h412l64 -368h-363z" />
<glyph unicode="&#x1ef4;" horiz-adv-x="1568" d="M242 1432h436l178 -494l406 494h467l-730 -887l-114 -545h-424l114 545zM459 -295q0 53 30.5 99t79.5 74t101 28q57 0 94 -37t37 -94q0 -82 -62.5 -143.5t-140.5 -61.5q-61 0 -100 38t-39 97z" />
<glyph unicode="&#x1ef5;" horiz-adv-x="1314" d="M-4 -403l57 272q147 -70 359 -70q139 0 206.5 53.5t90.5 159.5l22 111q-74 -61 -167 -93t-187 -32q-160 0 -245 88t-85 229q0 57 10 101l121 567h410l-111 -518q-8 -45 -8 -62q0 -45 25.5 -66.5t80.5 -21.5q121 0 207 111l119 557h412l-191 -893q-57 -274 -239.5 -417.5 t-528.5 -143.5q-96 0 -194.5 18.5t-163.5 49.5zM1032 -279q0 53 31 99.5t80 74t100 27.5q57 0 94 -37t37 -94q0 -82 -62.5 -143.5t-140.5 -61.5q-61 0 -100 38t-39 97z" />
<glyph unicode="&#x1ef6;" horiz-adv-x="1568" d="M242 1432h436l178 -494l406 494h467l-730 -887l-114 -545h-424l114 545zM770 1794l37 172q121 37 274 37q150 0 225.5 -49t75.5 -133q0 -14 -4 -43q-18 -76 -78.5 -128.5t-162.5 -68.5l-13 -61h-340l31 147q201 0 201 92q0 55 -115 56q-35 0 -72.5 -6.5t-58.5 -14.5z" />
<glyph unicode="&#x1ef7;" horiz-adv-x="1314" d="M-4 -403l57 272q147 -70 359 -70q139 0 206.5 53.5t90.5 159.5l22 111q-74 -61 -167 -93t-187 -32q-160 0 -245 88t-85 229q0 57 10 101l121 567h410l-111 -518q-8 -45 -8 -62q0 -45 25.5 -66.5t80.5 -21.5q121 0 207 111l119 557h412l-191 -893q-57 -274 -239.5 -417.5 t-528.5 -143.5q-96 0 -194.5 18.5t-163.5 49.5zM580 1341l36 172q121 37 275 37q150 0 225.5 -49t75.5 -133q0 -14 -4 -43q-18 -76 -78.5 -128t-163.5 -69l-12 -61h-340l31 147q201 0 200 93q0 55 -114 55q-35 0 -73 -6t-58 -15z" />
</font>
</defs>
</svg>
