<?xml version="1.0" standalone="no"?>
<!DOCTYPE svg PUBLIC "-//W3C//DTD SVG 1.1//EN" "http://www.w3.org/Graphics/SVG/1.1/DTD/svg11.dtd" >
<svg xmlns="http://www.w3.org/2000/svg" xmlns:xlink="http://www.w3.org/1999/xlink" version="1.1">
<metadata></metadata>
<defs>
<font id="promptmedium_italic" horiz-adv-x="0" >
<font-face units-per-em="2048" ascent="1536" descent="-512" />
<missing-glyph horiz-adv-x="737" />
<glyph unicode="fi" horiz-adv-x="1269" d="M84 0l166 786h-146l43 197h146l33 162q39 184 167 281.5t322 97.5q98 0 166 -29l-45 -209q-49 25 -115 25q-98 0 -159.5 -47t-81.5 -138l-29 -143h688l-209 -983h-258l166 786h-430l-166 -786h-258zM1024 1268q0 70 55.5 122t124.5 52q51 0 85 -32t34 -81 q0 -70 -55.5 -122t-124.5 -52q-53 0 -86 32t-33 81z" />
<glyph unicode="fl" horiz-adv-x="1259" d="M84 0l166 786h-146l43 197h146l35 170q37 180 168 275.5t319 95.5q98 0 166 -29l-45 -209q-49 25 -115 25q-94 0 -156.5 -45t-82.5 -131l-31 -152h434l98 465h258l-307 -1448h-258l166 786h-434l-166 -786h-258z" />
<glyph unicode="&#xe24;&#xe45;" horiz-adv-x="1822" d="M121 164q0 33 8 65l94 439l-67 170q143 141 305 214.5t354 73.5q180 0 293 -59q55 25 139 42t162 17q174 0 261 -77.5t87 -225.5q0 -57 -16 -139l-230 -1085h-260l234 1101q12 55 12 97q0 68 -42 97.5t-144 29.5q-33 0 -68 -6q20 -49 21 -119q0 -43 -11 -105l-233 -1095 h-260l227 1075q10 43 10 90q0 86 -53 123t-172 37q-100 0 -182 -29t-162 -94l55 -135l-75 -353q-6 -25 -7 -43q0 -29 18.5 -41t59.5 -12h121l-45 -217h-250q-90 0 -137 43t-47 121z" />
<glyph unicode="&#xe26;&#xe45;" horiz-adv-x="1851" d="M-20 0l45 217h79q53 0 78 21.5t35 74.5l76 355l-109 170q283 289 662 288q178 0 291 -59q55 25 139 42t162 17q166 0 256 -81.5t90 -231.5q0 -63 -15 -129l-229 -1085h-260l233 1101q12 59 13 99q0 66 -41 95.5t-146 29.5q-35 0 -67 -6q20 -49 20 -119q0 -43 -10 -105 l-233 -1095h-261l228 1075q10 43 10 92q0 82 -52 120t-173 38q-98 0 -179 -29t-159 -86l90 -141l-92 -437q-23 -109 -94.5 -170t-178.5 -61h-208z" />
<glyph unicode=" "  horiz-adv-x="737" />
<glyph unicode="&#x09;" horiz-adv-x="737" />
<glyph unicode="&#xa0;" horiz-adv-x="737" />
<glyph unicode="!" horiz-adv-x="454" d="M-2 82q0 72 54 123t126 51q53 0 86 -30.5t33 -80.5q0 -72 -55.5 -124t-124.5 -52q-54 0 -86.5 32t-32.5 81zM92 428l213 1004h248l-213 -1004h-248z" />
<glyph unicode="&#x22;" horiz-adv-x="714" d="M199 1036l84 396h194l-84 -396h-194zM555 1036l84 396h195l-84 -396h-195z" />
<glyph unicode="#" horiz-adv-x="1579" d="M49 330l39 190h248l174 352h-260l41 191h313l182 369h226l-183 -369h392l182 369h227l-182 -369h172l-41 -191h-225l-174 -352h237l-39 -190h-293l-161 -330h-228l162 330h-391l-162 -330h-225l162 330h-193zM561 520h391l174 352h-391z" />
<glyph unicode="$" horiz-adv-x="1161" d="M-10 55l47 224q166 -88 375 -99l96 459l-2 2q-143 63 -220 148t-77 200q0 43 8 78q33 150 158 253t305 132l41 190h221l-39 -184q166 -12 293 -76l-47 -217q-141 76 -291 84l-96 -450q154 -72 228.5 -150t74.5 -192q0 -35 -10 -86q-35 -162 -151 -262.5t-314 -126.5 l-41 -193h-221l39 182q-113 4 -214.5 26.5t-162.5 57.5zM487 1018q0 -37 18.5 -65.5t57.5 -55.5l68 324q-68 -27 -106 -79t-38 -124zM639 211q108 47 135 162q6 25 6 45q0 72 -71 121z" />
<glyph unicode="%" horiz-adv-x="1824" d="M213 1006q0 41 8 79q23 104 88.5 190.5t160.5 136.5t206 50q135 0 220 -84t85 -213q0 -45 -8 -80q-23 -104 -89.5 -189t-162.5 -135t-205 -50q-135 0 -219 83t-84 212zM295 0l1096 1432h251l-1095 -1432h-252zM401 1032q0 -63 40 -101t114 -38q61 0 116.5 32.5t88.5 87 t33 115.5q0 66 -41 105t-117 39q-59 0 -113.5 -33t-87.5 -87t-33 -120zM952 264q0 41 9 80q23 104 88 190.5t160.5 136.5t205.5 50q135 0 220 -84t85 -213q0 -45 -8 -80q-23 -104 -89.5 -189t-162.5 -135.5t-205 -50.5q-135 0 -219 83t-84 212zM1141 291q0 -63 40 -101 t113 -38q62 0 117 32.5t88 87t33 115.5q0 66 -41 104.5t-117 38.5q-59 0 -113.5 -32.5t-87 -87t-32.5 -119.5z" />
<glyph unicode="&#x26;" horiz-adv-x="1601" d="M45 274q0 37 10 84q29 137 123 231.5t283 194.5q-63 72 -96 136.5t-33 136.5q0 35 8 67q33 152 159 245t314 93q147 0 238.5 -75.5t91.5 -196.5q0 -20 -8 -66q-25 -117 -102 -200.5t-232 -173.5l280 -330q41 51 70 131t53 190h211q-33 -160 -79 -266t-128 -207l230 -268 h-303l-109 123q-211 -154 -539 -154q-200 0 -321 80t-121 225zM291 307q0 -82 63.5 -124t171.5 -42q111 0 210.5 33t172.5 90l-313 381q-135 -57 -208 -126.5t-91 -160.5q-6 -27 -6 -51zM555 1077q0 -47 27.5 -91t89.5 -118q137 74 195.5 138.5t58.5 154.5q0 57 -37 90 t-113 33q-82 0 -142.5 -49t-76.5 -127q-2 -10 -2 -31z" />
<glyph unicode="'" horiz-adv-x="358" d="M199 1036l84 396h194l-84 -396h-194z" />
<glyph unicode="(" horiz-adv-x="696" d="M59 225q0 156 37 328q115 535 500 909h266q-395 -399 -504 -909q-35 -170 -34 -317q0 -319 153 -592h-266q-152 245 -152 581z" />
<glyph unicode=")" horiz-adv-x="696" d="M-135 -356q393 399 502 909q35 170 34 317q0 319 -153 592h266q152 -246 152 -579q0 -158 -37 -330q-115 -535 -500 -909h-264z" />
<glyph unicode="*" horiz-adv-x="903" d="M225 1167l90 133l203 -79l45 211h178l-45 -211l238 82l31 -142l-263 -84l115 -221l-147 -90l-105 207l-190 -209l-131 96l207 221z" />
<glyph unicode="+" horiz-adv-x="843" d="M86 510l45 207h236l49 235h207l-50 -235h238l-45 -207h-238l-49 -238h-207l50 238h-236z" />
<glyph unicode="," horiz-adv-x="600" d="M-86 -303l256 418h268l-288 -418h-236z" />
<glyph unicode="-" horiz-adv-x="843" d="M86 510l45 207h680l-45 -207h-680z" />
<glyph unicode="." horiz-adv-x="372" d="M-2 82q0 51 40 89t89 38q37 0 60.5 -23.5t23.5 -60.5q0 -49 -39 -87t-88 -38q-37 0 -61.5 23.5t-24.5 58.5z" />
<glyph unicode="/" horiz-adv-x="999" d="M-20 0l892 1462h252l-893 -1462h-251z" />
<glyph unicode="0" horiz-adv-x="1396" d="M106 487q0 104 25 228q74 352 275.5 549.5t498.5 197.5q223 0 353.5 -139t130.5 -385q0 -102 -25 -223q-74 -350 -276.5 -548t-499.5 -198q-226 0 -354 137.5t-128 380.5zM367 500q0 -297 272 -297q170 0 292 136t171 374q27 127 26 213q0 299 -270 299 q-170 0 -293 -137.5t-174 -374.5q-25 -117 -24 -213z" />
<glyph unicode="1" horiz-adv-x="765" d="M178 938l51 242l398 252h217l-303 -1432h-258l245 1157z" />
<glyph unicode="2" horiz-adv-x="1198" d="M-20 0l34 168l338 260q145 109 162 121q133 100 203.5 158.5t122 127t69.5 148.5q8 39 9 76q0 82 -51.5 124t-159.5 42q-106 0 -221 -36t-216 -102l54 248q207 127 464 127q188 0 294 -94t106 -254q0 -51 -12 -110q-23 -100 -80.5 -186.5t-145.5 -167.5t-237 -197 l-305 -238h651l-45 -215h-1034z" />
<glyph unicode="3" horiz-adv-x="1187" d="M-10 51l41 199q176 -88 395 -88q174 0 275.5 62.5t123.5 178.5q6 31 6 60q0 86 -75.5 124t-231.5 38h-178l43 200h172q143 0 238.5 54.5t120.5 164.5q6 31 6 58q0 168 -244 168q-115 0 -214 -26.5t-210 -88.5l43 201q207 106 457 106q203 0 318.5 -89t115.5 -236 q0 -43 -8 -82q-23 -106 -96.5 -192.5t-196.5 -135.5q100 -31 151.5 -99.5t51.5 -160.5q0 -41 -9 -76q-41 -197 -202.5 -309.5t-462.5 -112.5q-127 0 -240.5 20.5t-189.5 61.5z" />
<glyph unicode="4" horiz-adv-x="1247" d="M10 340l33 154l889 938h254l-191 -897h222l-41 -195h-222l-71 -340h-260l71 340h-684zM336 535h436l127 595z" />
<glyph unicode="5" horiz-adv-x="1181" d="M-8 61l47 220q74 -53 176 -83t201 -30q354 0 413 281q8 39 9 79q0 98 -69 148.5t-212 50.5q-72 0 -155 -14.5t-150 -38.5l-94 61l202 697h840l-45 -215h-604l-96 -328q117 25 254 24q186 0 290.5 -97t104.5 -257q0 -51 -12 -110q-51 -238 -221.5 -359t-487.5 -121 q-115 0 -219.5 24.5t-171.5 67.5z" />
<glyph unicode="6" horiz-adv-x="1267" d="M84 418q0 88 20 178q59 276 183.5 471t302.5 295t393 100q125 0 215 -28l-43 -209q-74 37 -194 37q-201 0 -342.5 -120t-212.5 -347q82 72 187 105.5t222 33.5q170 0 274.5 -95.5t104.5 -260.5q0 -53 -12 -115q-49 -221 -217 -357.5t-435 -136.5q-202 0 -324 118 t-122 331zM338 375q0 -96 58.5 -155.5t174.5 -59.5q131 0 227.5 79.5t123.5 211.5q10 55 10 90q0 96 -58.5 149t-177.5 53q-123 0 -223 -82.5t-127 -209.5q-8 -35 -8 -76z" />
<glyph unicode="7" horiz-adv-x="1116" d="M135 0l809 1217h-727l45 215h993l-38 -181l-830 -1251h-252z" />
<glyph unicode="8" horiz-adv-x="1253" d="M53 305q0 37 10 92q29 133 114 223.5t204 124.5q-66 35 -100.5 96.5t-34.5 139.5q0 43 8 82q39 186 193.5 292.5t386.5 106.5q188 0 303.5 -85t115.5 -232q0 -43 -8 -82q-23 -106 -92.5 -189t-169.5 -129q84 -29 132 -95t48 -163q0 -35 -10 -90q-45 -209 -209 -318.5 t-428 -109.5q-209 0 -336 88t-127 248zM313 340q0 -184 244 -184q143 0 230 67.5t112 190.5q6 31 6 59q0 92 -64.5 142.5t-174.5 50.5q-129 0 -223.5 -68t-120.5 -184q-8 -35 -9 -74zM487 989q0 -80 56.5 -125t154.5 -45q115 0 197 60.5t104 162.5q6 35 7 62q0 80 -53.5 124 t-159.5 44q-119 0 -198 -62.5t-101 -167.5q-6 -27 -7 -53z" />
<glyph unicode="9" horiz-adv-x="1267" d="M166 -2l45 209q72 -37 192 -37q201 0 343.5 120t214.5 347q-162 -139 -402 -139q-168 0 -277.5 98t-109.5 264q0 51 12 109q47 223 210 358t440 135q127 0 228 -53t158.5 -156.5t57.5 -246.5q0 -78 -18 -170q-59 -276 -183.5 -471t-302.5 -295.5t-393 -100.5 q-123 0 -215 29zM432 891q0 -96 58.5 -149.5t179.5 -53.5q123 0 222 83t126 210q8 35 8 78q0 96 -57.5 154.5t-175.5 58.5q-139 0 -229.5 -78t-121.5 -213q-10 -55 -10 -90z" />
<glyph unicode=":" horiz-adv-x="434" d="M10 139q0 63 52.5 113.5t115.5 50.5q47 0 79 -30.5t32 -75.5q0 -63 -52.5 -113.5t-115.5 -50.5q-47 0 -79 30.5t-32 75.5zM160 838q0 63 51 112t115 49q47 0 78.5 -30.5t31.5 -75.5q0 -63 -52 -113.5t-116 -50.5q-49 0 -78.5 31t-29.5 78z" />
<glyph unicode=";" horiz-adv-x="600" d="M-86 -303l256 418h268l-288 -418h-236zM313 838q0 63 51.5 112t114.5 49q47 0 79 -30.5t32 -75.5q0 -63 -52.5 -113.5t-115.5 -50.5q-49 0 -79 31t-30 78z" />
<glyph unicode="&#x3c;" horiz-adv-x="1112" d="M100 573l39 183l1047 465l-53 -267l-699 -301l570 -301l-54 -246z" />
<glyph unicode="=" horiz-adv-x="1093" d="M57 375l43 203h930l-43 -203h-930zM154 825l43 203h929l-43 -203h-929z" />
<glyph unicode="&#x3e;" horiz-adv-x="1112" d="M2 106l53 267l697 301l-568 301l54 246l849 -465l-38 -183z" />
<glyph unicode="?" horiz-adv-x="1064" d="M217 82q0 72 54.5 123t125.5 51q53 0 86 -30.5t33 -80.5q0 -72 -55 -124t-125 -52q-53 0 -86 32t-33 81zM227 1167l45 215q88 35 194.5 57.5t209.5 22.5q203 0 321.5 -79.5t118.5 -227.5q0 -43 -8 -82q-16 -76 -55 -130t-89.5 -93t-150.5 -105q-102 -68 -140 -97.5 t-62.5 -68t-39.5 -106.5l-10 -45h-248l11 47q27 121 89 203t179 156l61 36q98 59 142.5 98.5t58.5 104.5q6 25 6 47q0 63 -53 97t-176 34q-98 0 -205 -22.5t-199 -61.5z" />
<glyph unicode="@" horiz-adv-x="1865" d="M82 403q0 88 20 179q55 260 207 458.5t379 310t506 111.5q311 0 488.5 -142t177.5 -394q0 -78 -19 -168q-53 -246 -173 -390.5t-318 -144.5q-74 0 -126.5 36t-70.5 101q-61 -68 -146 -102.5t-182 -34.5q-127 0 -211 69.5t-84 201.5q0 37 11 92q31 139 109.5 249.5 t198.5 174t263 63.5q86 0 171 -19.5t142 -52.5l-122 -458q-8 -27 -9 -56q0 -45 23.5 -68.5t62.5 -23.5q88 0 145.5 93.5t94.5 269.5q20 102 20 168q0 176 -116.5 259t-370.5 83q-207 0 -379 -81t-288.5 -235.5t-161.5 -369.5q-18 -86 -19 -160q0 -387 522 -387q207 0 392 57 l-39 -184q-182 -63 -394 -64q-323 0 -513.5 145.5t-190.5 413.5zM756 520q0 -61 30.5 -90t98.5 -29q90 0 149.5 49.5t79.5 122.5l82 301q-45 23 -125 23q-106 0 -192 -82t-113 -211q-10 -55 -10 -84z" />
<glyph unicode="A" horiz-adv-x="1560" d="M-20 0l876 1432h252l268 -1432h-256l-61 330h-606l-199 -330h-274zM569 545h463l-102 608z" />
<glyph unicode="B" horiz-adv-x="1347" d="M20 0l304 1432h663q162 0 260.5 -83t98.5 -223q0 -45 -9 -79q-18 -100 -84.5 -181.5t-156.5 -124.5q82 -35 123 -94t41 -145q0 -35 -11 -90q-37 -193 -177 -302.5t-337 -109.5h-715zM322 205h397q109 0 176.5 45t91.5 160q8 33 8 67q0 80 -50 115t-150 35h-383zM455 836 h381q98 0 156.5 46t78.5 148q8 35 8 72q0 72 -43 98.5t-129 26.5h-368z" />
<glyph unicode="C" horiz-adv-x="1441" d="M115 551q0 74 20 176q47 227 175 392t319.5 254t425.5 89q299 0 467 -141l-54 -248q-145 152 -440 152q-158 0 -290 -62.5t-222 -178.5t-123 -269q-16 -72 -16 -150q0 -172 108.5 -266t325.5 -94q152 0 277.5 38t244.5 122l-51 -248q-197 -147 -545 -148 q-180 0 -321.5 72t-221 204t-79.5 306z" />
<glyph unicode="D" horiz-adv-x="1445" d="M20 0l304 1432h479q195 0 336 -69t216 -195t75 -291q0 -80 -15 -154q-70 -358 -308.5 -540.5t-608.5 -182.5h-478zM326 215h200q260 0 418 133t209 375q18 84 18 154q0 162 -98 251t-307 89h-227z" />
<glyph unicode="E" horiz-adv-x="1153" d="M20 0l304 1432h968l-45 -215h-708l-84 -394h526l-45 -215h-526l-84 -393h708l-45 -215h-969z" />
<glyph unicode="F" horiz-adv-x="1132" d="M20 0l304 1432h968l-45 -218h-708l-86 -401h526l-41 -195h-526l-131 -618h-261z" />
<glyph unicode="G" horiz-adv-x="1460" d="M111 537q0 88 20 178q49 229 182 398t325.5 259t416.5 90q293 0 465 -137l-54 -248q-78 76 -182 112t-256 36q-242 0 -414 -138.5t-221 -371.5q-18 -82 -18 -158q0 -170 104.5 -262t319.5 -92q154 0 270 53l68 322h-242l45 206h502l-142 -667q-123 -76 -261 -112 t-302 -36q-184 0 -326.5 68.5t-221 196.5t-78.5 303z" />
<glyph unicode="H" horiz-adv-x="1452" d="M20 0l304 1432h260l-127 -594h688l127 594h258l-303 -1432h-258l131 623h-688l-131 -623h-261z" />
<glyph unicode="I" horiz-adv-x="505" d="M20 0l304 1432h260l-303 -1432h-261z" />
<glyph unicode="J" horiz-adv-x="790" d="M-61 8l47 217q29 -14 71.5 -21t87.5 -7q106 0 163 43t79 147l221 1045h260l-225 -1059q-43 -201 -160.5 -302.5t-322.5 -101.5q-62 0 -125.5 11.5t-95.5 27.5z" />
<glyph unicode="K" horiz-adv-x="1404" d="M20 0l304 1432h260l-138 -648l725 648h312l-785 -711l516 -721h-305l-485 678l-143 -678h-261z" />
<glyph unicode="L" horiz-adv-x="1112" d="M20 0l304 1432h260l-258 -1217h688l-45 -215h-949z" />
<glyph unicode="M" horiz-adv-x="1712" d="M20 0l304 1432h243l256 -1049l703 1049h264l-303 -1432h-246l197 930l-623 -930h-123l-229 930l-197 -930h-246z" />
<glyph unicode="N" horiz-adv-x="1421" d="M20 0l304 1432h245l459 -998l211 998h260l-303 -1432h-246l-458 999l-211 -999h-261z" />
<glyph unicode="O" horiz-adv-x="1681" d="M111 539q0 74 20 176q47 221 178 391t323.5 263t416.5 93q180 0 320 -70.5t219 -201.5t79 -305q0 -80 -18 -170q-47 -221 -177.5 -390t-320.5 -262.5t-420 -93.5q-184 0 -324.5 70t-218 199t-77.5 301zM375 551q0 -346 407 -346q138 0 263.5 62.5t217 178t123.5 269.5 q18 86 19 157q0 170 -100.5 261.5t-305.5 91.5q-139 0 -266 -63.5t-217 -179.5t-123 -267q-18 -88 -18 -164z" />
<glyph unicode="P" horiz-adv-x="1257" d="M20 0l304 1432h573q195 0 313.5 -100.5t118.5 -266.5q0 -57 -10 -100q-49 -227 -210 -344t-411 -117h-311l-106 -504h-261zM432 719h281q293 0 346 246q10 51 10 84q0 92 -61.5 130t-188.5 38h-280z" />
<glyph unicode="Q" horiz-adv-x="1667" d="M115 561q0 86 16 160q45 223 174 390t321.5 259t422.5 92q184 0 324 -68.5t218 -196.5t78 -300q0 -74 -20 -176q-33 -147 -126 -281.5t-214 -212.5h262l-47 -227h-752q-201 0 -349.5 69.5t-228 195.5t-79.5 296zM377 571q0 -335 409 -335h2q228 0 388.5 126.5 t209.5 358.5q18 80 19 151q0 168 -102.5 260.5t-303.5 92.5q-143 0 -270 -61.5t-215 -175.5t-121 -267q-16 -86 -16 -150z" />
<glyph unicode="R" horiz-adv-x="1298" d="M20 0l304 1432h598q201 0 307 -84t106 -246q0 -61 -14 -125q-35 -158 -136.5 -269.5t-254.5 -156.5l176 -551h-266l-166 524h-283l-110 -524h-261zM436 739h291q143 0 225 57.5t109 180.5q10 47 10 78q0 88 -57.5 125t-171.5 37h-303z" />
<glyph unicode="S" horiz-adv-x="1161" d="M-10 55l47 224q184 -98 416 -99q141 0 222 51.5t99 141.5q6 25 6 47q0 68 -58 109.5t-216 111.5q-143 63 -220 148t-77 200q0 43 8 78q25 117 108 207t207.5 139t274.5 49q123 0 215 -19.5t174 -60.5l-47 -217q-160 86 -342 86q-131 0 -212 -48t-101 -136q-6 -25 -7 -47 q0 -47 28 -80t78 -60.5t161 -76.5q158 -72 234.5 -150t76.5 -194q0 -33 -10 -88q-41 -193 -197 -297.5t-432 -104.5q-127 0 -246 23.5t-190 62.5z" />
<glyph unicode="T" horiz-adv-x="1206" d="M197 1217l45 215h1124l-45 -215h-432l-258 -1217h-260l258 1217h-432z" />
<glyph unicode="U" horiz-adv-x="1447" d="M113 420q0 72 14 137l186 875h260l-186 -879q-14 -63 -14 -119q0 -119 71.5 -174t221.5 -55q160 0 273.5 89t150.5 259l186 879h260l-186 -875q-125 -588 -736 -588q-157 0 -270 57.5t-172 160t-59 233.5z" />
<glyph unicode="V" horiz-adv-x="1560" d="M283 1432h268l192 -1084l654 1084h282l-874 -1432h-252z" />
<glyph unicode="W" horiz-adv-x="2035" d="M283 1432h270l70 -1012l495 1012h201l65 -1012l500 1012h270l-710 -1432h-236l-75 995l-498 -995h-248z" />
<glyph unicode="X" horiz-adv-x="1519" d="M-20 0l682 723l-367 709h289l264 -512l483 512h297l-674 -715l373 -717h-289l-270 520l-492 -520h-296z" />
<glyph unicode="Y" horiz-adv-x="1462" d="M283 1432h266l233 -637l514 637h285l-719 -887l-114 -545h-248l114 545z" />
<glyph unicode="Z" horiz-adv-x="1267" d="M-20 0l34 170l973 1047h-731l45 215h1049l-37 -170l-969 -1047h784l-45 -215h-1103z" />
<glyph unicode="[" horiz-adv-x="653" d="M-63 -197l385 1809h509l-47 -215h-249l-293 -1379h250l-46 -215h-509z" />
<glyph unicode="\" horiz-adv-x="999" d="M289 1462h252l274 -1462h-252z" />
<glyph unicode="]" horiz-adv-x="653" d="M-84 -197l45 215h250l293 1379h-250l47 215h510l-385 -1809h-510z" />
<glyph unicode="^" horiz-adv-x="1155" d="M147 793l537 680h205l250 -680h-240l-156 438l-340 -438h-256z" />
<glyph unicode="_" horiz-adv-x="999" d="M-70 -227l50 227h835l-49 -227h-836z" />
<glyph unicode="`" horiz-adv-x="577" d="M301 1522h272l66 -357h-238z" />
<glyph unicode="a" horiz-adv-x="1351" d="M68 367q0 63 14 122q33 154 123 274t221 185.5t287 65.5q240 0 354 -127l20 96h259l-209 -983h-250l22 115q-80 -76 -182 -111t-238 -35q-122 0 -217.5 48.5t-149.5 138.5t-54 211zM334 395q0 -223 262 -223q111 0 209 59.5t156 159.5l43 199q-10 102 -80 161.5 t-191 59.5q-145 0 -252.5 -89t-136.5 -233q-10 -57 -10 -94z" />
<glyph unicode="b" horiz-adv-x="1361" d="M20 0l322 1513h258l-133 -626q80 63 187.5 95t219.5 32q123 0 218.5 -49.5t148.5 -140.5t53 -210q0 -66 -14 -125q-49 -240 -217 -380t-412 -140q-125 0 -207 34t-151 112l-23 -115h-250zM360 391q14 -100 87 -159.5t184 -59.5q139 0 248.5 88t138.5 229q10 55 10 95 q0 106 -65.5 166.5t-194.5 60.5q-111 0 -211 -60.5t-154 -160.5z" />
<glyph unicode="c" horiz-adv-x="1122" d="M70 375q0 53 12 114q53 250 235.5 387.5t456.5 137.5q229 0 346 -90l-43 -207q-57 47 -139 70.5t-180 23.5q-158 0 -268.5 -79t-145.5 -243q-10 -43 -10 -96q0 -115 71.5 -168t210.5 -53q207 0 379 98l-45 -204q-164 -96 -403 -97q-139 0 -246.5 49.5t-169 140.5 t-61.5 216z" />
<glyph unicode="d" horiz-adv-x="1361" d="M70 369q0 57 12 120q33 156 122 275t220 184.5t289 65.5q119 0 205 -31t149 -96l133 626h258l-321 -1513h-250l22 115q-94 -78 -193.5 -112t-226.5 -34q-122 0 -217.5 49.5t-148.5 139.5t-53 211zM334 403q0 -109 66.5 -170t195.5 -61q111 0 209 59.5t156 159.5l43 199 q-10 100 -85 160.5t-186 60.5q-145 0 -251.5 -89t-137.5 -233q-10 -51 -10 -86z" />
<glyph unicode="e" horiz-adv-x="1247" d="M68 369q0 45 14 120q53 244 220 384.5t437 140.5q211 0 327 -108.5t116 -282.5q0 -53 -13 -113l-24 -119h-838l-2 -29q0 -100 80 -145t256 -45q94 0 196.5 16.5t182.5 44.5l-43 -198q-76 -29 -189.5 -47.5t-222.5 -18.5q-227 0 -362 105.5t-135 294.5zM344 567h594 q6 35 6 64q0 90 -61.5 135t-190.5 45q-135 0 -227 -65.5t-121 -178.5z" />
<glyph unicode="f" horiz-adv-x="745" d="M84 0l166 786h-146l43 197h146l35 170q37 182 160.5 276.5t306.5 94.5q98 0 166 -29l-46 -209q-49 25 -114 25q-92 0 -145.5 -41t-73.5 -135l-31 -152h240l-43 -197h-240l-166 -786h-258z" />
<glyph unicode="g" horiz-adv-x="1361" d="M72 375q0 57 12 119q49 240 217 380t412 140q123 0 210 -36t148 -110l25 115h250l-197 -924q-55 -266 -221 -398t-479 -132q-101 0 -199 18.5t-156 49.5l43 204q143 -69 340 -69h6q182 0 276.5 73.5t125.5 227.5l12 63q-82 -63 -184.5 -95t-214.5 -32q-123 0 -219.5 50.5 t-151.5 142.5t-55 213zM336 397q0 -109 65.5 -167t194.5 -58q111 0 211 60.5t154 160.5l43 199q-14 102 -84 160.5t-187 58.5q-150 0 -253 -86t-134 -231q-10 -43 -10 -97z" />
<glyph unicode="h" horiz-adv-x="1249" d="M20 0l322 1513h258l-139 -655q170 156 393 156q158 0 240 -85t82 -216q0 -41 -11 -92l-131 -621h-258l129 618q8 39 8 74q0 61 -35.5 90t-115.5 29q-90 0 -184.5 -42t-163.5 -126l-135 -643h-259z" />
<glyph unicode="i" horiz-adv-x="538" d="M35 0l209 983h262l-209 -983h-262zM291 1268q0 72 55 124t125 52q53 0 87 -32t34 -81q0 -72 -55.5 -124t-126.5 -52q-54 0 -86.5 32t-32.5 81z" />
<glyph unicode="j" horiz-adv-x="526" d="M-360 -446l45 208q47 -24 115 -24h5q84 0 133.5 42t67.5 132l230 1071h258l-234 -1098q-39 -182 -155.5 -270t-299.5 -88q-97 0 -165 27zM281 1268q0 70 55 122t125 52q51 0 85 -32t34 -81q0 -70 -55.5 -122t-125.5 -52q-53 0 -85.5 32t-32.5 81z" />
<glyph unicode="k" horiz-adv-x="1206" d="M20 0l322 1513h258l-205 -962l484 432h303l-541 -489l381 -494h-303l-344 455l-96 -455h-259z" />
<glyph unicode="l" horiz-adv-x="503" d="M20 0l322 1513h258l-321 -1513h-259z" />
<glyph unicode="m" horiz-adv-x="1785" d="M20 0l209 983h242l-29 -129q84 78 180.5 119t186.5 41q113 0 174 -39t82 -113q82 74 183.5 113t193.5 39q143 0 210.5 -65.5t67.5 -184.5q0 -51 -12 -113l-137 -651h-248l129 616q10 55 10 84q0 59 -31.5 85t-101.5 26q-143 0 -254 -113q-6 -47 -18 -106l-125 -592h-250 l131 621q10 57 10 88q0 55 -27.5 78.5t-93.5 23.5q-72 0 -147.5 -40t-146.5 -118l-138 -653h-250z" />
<glyph unicode="n" horiz-adv-x="1249" d="M20 0l209 983h250l-28 -133q86 78 193.5 121t209.5 43q158 0 240 -83t82 -214q0 -41 -11 -96l-131 -621h-258l125 596q10 51 10 82q0 68 -38.5 100.5t-124.5 32.5q-88 0 -175.5 -42t-158.5 -126l-135 -643h-259z" />
<glyph unicode="o" horiz-adv-x="1314" d="M70 371q0 45 14 121q49 242 230.5 382t455.5 140q217 0 347 -109.5t130 -298.5q0 -53 -12 -114q-53 -246 -233.5 -384.5t-454.5 -138.5q-215 0 -346 107.5t-131 294.5zM338 391q0 -104 61.5 -161.5t190.5 -57.5q141 0 244.5 89t134.5 231q12 55 12 104q0 215 -254 215 q-143 0 -244.5 -85t-132.5 -234q-12 -55 -12 -101z" />
<glyph unicode="p" horiz-adv-x="1361" d="M-76 -449l305 1432h250l-26 -119q96 76 198.5 113t222.5 37q190 0 306 -106.5t116 -289.5q0 -49 -14 -124q-51 -238 -218 -381.5t-413 -143.5q-113 0 -205 32t-149 95l-115 -545h-258zM360 393q10 -100 85 -160.5t186 -60.5q139 0 248.5 90t140.5 232q8 39 8 84 q0 111 -66.5 172t-193.5 61q-111 0 -209 -59.5t-156 -159.5z" />
<glyph unicode="q" horiz-adv-x="1361" d="M70 373q0 45 14 121q33 156 122 273.5t221 182t286 64.5q121 0 208 -37t148 -113l27 119h250l-306 -1432h-258l115 545q-80 -63 -187.5 -95t-220.5 -32q-121 0 -216 50.5t-149 142.5t-54 211zM336 401q0 -109 65.5 -169t194.5 -60q111 0 211 60.5t154 160.5l43 199 q-14 100 -87 159.5t-184 59.5q-154 0 -255 -86t-132 -231q-10 -55 -10 -93z" />
<glyph unicode="r" horiz-adv-x="833" d="M20 0l209 983h250l-35 -158q76 80 195 119t260 39l-43 -197q-150 0 -269.5 -46t-183.5 -144l-124 -596h-259z" />
<glyph unicode="s" horiz-adv-x="1021" d="M0 61l47 220q70 -49 173.5 -79t201.5 -30t147 17.5t60 64.5q2 8 2 20q0 43 -48 68t-182 64q-141 41 -208.5 99t-67.5 150q0 29 6 62q31 147 164 222t332 75q98 0 195.5 -20.5t150.5 -53.5l-45 -211q-55 35 -139 58.5t-173 23.5q-100 0 -155 -19.5t-68 -74.5q-2 -6 -2 -19 q0 -29 25.5 -48t83 -37.5t127.5 -37.5q147 -41 208.5 -101t61.5 -148q0 -31 -6 -68q-27 -139 -141.5 -214t-354.5 -75q-106 0 -221 24.5t-174 67.5z" />
<glyph unicode="t" horiz-adv-x="794" d="M104 786l43 197h148l61 295h258l-61 -295h235l-43 -197h-235l-94 -440q-10 -55 -10 -80q0 -51 28.5 -72.5t97.5 -21.5q72 0 140 29l-41 -197q-94 -35 -223 -35t-199 63.5t-70 180.5q0 45 13 100l100 473h-148z" />
<glyph unicode="u" horiz-adv-x="1249" d="M76 262q0 57 10 100l133 621h258l-127 -596q-10 -55 -10 -86q0 -68 39 -98.5t125 -30.5q88 0 175 42t159 126l137 643h258l-209 -983h-250l27 133q-86 -84 -191.5 -124t-212.5 -40q-157 0 -239 79t-82 214z" />
<glyph unicode="v" horiz-adv-x="1216" d="M188 983h252l121 -680l412 680h268l-614 -983h-242z" />
<glyph unicode="w" horiz-adv-x="1699" d="M188 983h258l58 -666l340 666h225l53 -666l344 666h258l-530 -983h-231l-68 668l-350 -668h-244z" />
<glyph unicode="x" horiz-adv-x="1290" d="M-20 0l528 510l-291 473h279l186 -305l317 305h287l-498 -479l310 -504h-277l-207 336l-350 -336h-284z" />
<glyph unicode="y" horiz-adv-x="1228" d="M-18 -403l43 204q143 -69 340 -69h6q178 0 267 72.5t134 228.5l35 127q-170 -164 -404 -164q-158 0 -239.5 79t-81.5 214q0 57 10 100l127 594h258l-121 -569q-10 -55 -10 -86q0 -68 39 -98.5t125 -30.5q88 0 175 42t159 126l131 616h258l-197 -924q-57 -266 -222 -398 t-478 -132q-100 0 -198.5 18.5t-155.5 49.5z" />
<glyph unicode="z" horiz-adv-x="1026" d="M-20 0l32 162l656 624h-508l43 197h831l-35 -162l-653 -624h537l-41 -197h-862z" />
<glyph unicode="{" horiz-adv-x="704" d="M63 594l50 227h47q125 0 157 144l93 438q23 104 82 156.5t147 52.5h223l-47 -217h-74q-43 0 -63.5 -19.5t-30.5 -66.5l-82 -400q-37 -170 -184 -217v-4q98 -31 98 -145q0 -37 -8 -72l-80 -367q-4 -29 -4 -36q0 -27 14.5 -38.5t47.5 -11.5h73l-45 -217h-223 q-148 1 -148 138q0 37 9 71l92 439q6 29 6 49q0 96 -102 96h-48z" />
<glyph unicode="|" horiz-adv-x="423" d="M-84 -295l416 1958h260l-416 -1958h-260z" />
<glyph unicode="}" horiz-adv-x="704" d="M-63 -199l45 217h73q43 0 63.5 19.5t31.5 66.5l83 398q39 178 185 217v4q-98 37 -99 145q0 37 9 72l78 369q6 23 6 37q0 49 -64 49h-74l48 217h223q147 0 147 -137q0 -37 -8 -72l-92 -438q-6 -27 -6 -50q0 -94 102 -94h47l-49 -227h-47q-125 0 -158 -145l-92 -439 q-23 -104 -82 -156.5t-147 -52.5h-223z" />
<glyph unicode="~" horiz-adv-x="1107" d="M94 541l49 231q41 49 107.5 75.5t144.5 26.5q57 0 109.5 -16t128.5 -47q72 -31 120 -45t99 -14q143 0 256 120l-49 -231q-43 -49 -109.5 -75.5t-144.5 -26.5q-57 0 -110.5 16t-123.5 47q-80 31 -124 45.5t-97 14.5q-143 0 -256 -121z" />
<glyph unicode="&#xa1;" horiz-adv-x="454" d="M-72 -346l213 1003h248l-213 -1003h-248zM184 950q0 70 54.5 123t123.5 53q51 0 85 -32.5t34 -81.5q0 -18 -2 -29q-14 -61 -65.5 -102t-110.5 -41q-53 0 -86 30.5t-33 79.5z" />
<glyph unicode="&#xa2;" horiz-adv-x="1122" d="M70 375q0 53 12 114q47 223 197.5 356.5t382.5 160.5l38 184h222l-39 -182q147 -14 237 -84l-43 -207q-88 74 -237 90l-133 -631q156 18 288 94l-45 -204q-121 -72 -286 -91l-39 -182h-222l39 184q-170 25 -271 130.5t-101 267.5zM334 391q0 -160 153 -205l129 607 q-104 -29 -174.5 -105t-97.5 -199q-10 -45 -10 -98z" />
<glyph unicode="&#xa3;" horiz-adv-x="1007" d="M-20 0l45 215h159l95 440h-150l45 215h150l43 201q39 188 176 289.5t334 101.5q98 0 165 -28l-43 -209q-53 25 -116 24q-219 0 -260 -196l-39 -183h336l-46 -215h-335l-95 -440h424l-45 -215h-843z" />
<glyph unicode="&#xa4;" horiz-adv-x="1224" d="M27 229l202 129q-27 53 -26 125q0 45 8 80q25 115 104 207l-143 129l137 135l150 -143q121 78 256 78t223 -78l211 143l80 -135l-201 -129q27 -55 27 -127q0 -45 -8 -80q-27 -117 -105 -205l145 -129l-139 -137l-151 141q-123 -76 -254 -75q-133 0 -221 75l-213 -141z M410 512q0 -74 46 -119t128 -45q67 0 128.5 38t98.5 99.5t37 130.5q0 74 -45 119t-129 45q-68 0 -128.5 -36.5t-98 -99t-37.5 -132.5z" />
<glyph unicode="&#xa5;" horiz-adv-x="1462" d="M260 195l37 172h278l29 131h-280l36 170h207l-284 764h266l233 -637l514 637h285l-620 -764h208l-36 -170h-281l-29 -131h283l-37 -172h-281l-40 -195h-248l41 195h-281z" />
<glyph unicode="&#xa6;" horiz-adv-x="423" d="M-84 -295l170 797h260l-170 -797h-260zM162 866l170 797h260l-170 -797h-260z" />
<glyph unicode="&#xa7;" horiz-adv-x="1161" d="M-78 -262l47 223q92 -49 199.5 -73.5t216.5 -24.5q143 0 223 50t99 142q6 25 6 45q0 45 -29 78t-81 61.5t-163 79.5q-156 72 -228.5 152t-72.5 191q0 37 11 88q18 86 73 153q-14 37 -14 84q0 45 8 80q25 117 108 207t207.5 139t274.5 49q123 0 215 -19.5t174 -60.5 l-47 -217q-160 86 -342 86q-133 0 -213 -49t-100 -141q-4 -20 -5 -31q0 -61 61.5 -111.5t203.5 -117.5q170 -82 241.5 -151.5t71.5 -180.5q0 -43 -12 -98q-18 -82 -70 -154q10 -41 10 -84q0 -41 -8 -80q-86 -401 -629 -401q-127 0 -245.5 23.5t-190.5 62.5zM360 686 q0 -59 56.5 -104t175.5 -103q96 -45 152.5 -78.5t82.5 -70.5q15 34 21 63q4 29 4 39q0 61 -54.5 102t-189.5 105q-72 33 -134 73t-85 70q-20 -39 -24 -65q-4 -20 -5 -31z" />
<glyph unicode="&#xa8;" horiz-adv-x="921" d="M256 1292q0 66 53 115t117 49q47 0 78 -30.5t31 -77.5q0 -66 -52.5 -115t-115.5 -49q-50 0 -80.5 30.5t-30.5 77.5zM741 1292q0 66 53.5 115t116.5 49q47 0 78 -30.5t31 -77.5q0 -66 -52.5 -115t-115.5 -49q-49 0 -80 30.5t-31 77.5z" />
<glyph unicode="&#xa9;" horiz-adv-x="1673" d="M113 555q0 78 18 160q47 221 180 391t324.5 263t408.5 93q180 0 319.5 -70.5t217.5 -200.5t78 -302q0 -82 -19 -174q-47 -219 -179 -389t-323.5 -263.5t-410.5 -93.5q-180 0 -319.5 75t-217 208t-77.5 303zM344 555q0 -178 109.5 -273.5t320.5 -95.5q150 0 282 62.5 t226 182.5t129 284q18 90 19 166q0 176 -105.5 269t-325.5 93q-152 0 -283.5 -63.5t-225 -183t-128.5 -281.5q-18 -86 -18 -160zM418 608q0 59 10 105q45 213 191.5 331.5t359.5 118.5q199 0 301 -78l-39 -186q-47 41 -118.5 60.5t-155.5 19.5q-264 0 -324 -266 q-10 -43 -10 -95q0 -88 52 -128.5t165 -40.5q178 0 326 86l-39 -187q-145 -84 -353 -84q-102 0 -185 41t-132 119t-49 184z" />
<glyph unicode="&#xaa;" horiz-adv-x="870" d="M176 909q0 25 6 52q25 117 116 183t228 66q135 0 217 -55l7 21q4 16 4 43q0 51 -40 74.5t-130 23.5q-139 0 -250 -47l31 145q49 20 126.5 33.5t145.5 13.5q152 0 227.5 -58t75.5 -165q0 -39 -8 -74l-90 -428h-174l14 68q-111 -90 -264 -90q-105 0 -173.5 53t-68.5 141z M367 930q0 -41 29.5 -60.5t95.5 -19.5q61 0 116.5 23.5t89.5 66.5l17 78q-66 57 -172 57q-147 0 -172 -114q-4 -20 -4 -31z" />
<glyph unicode="&#xab;" horiz-adv-x="1286" d="M113 631l14 65l575 422l95 -174l-410 -293l285 -291l-164 -149zM621 631l14 65l575 422l95 -174l-410 -293l285 -291l-164 -149z" />
<glyph unicode="&#xac;" horiz-adv-x="913" d="M88 520l43 197h750l-95 -447h-258l52 250h-492z" />
<glyph unicode="&#xad;" horiz-adv-x="843" d="M86 510l45 207h680l-45 -207h-680z" />
<glyph unicode="&#xae;" horiz-adv-x="1673" d="M113 555q0 78 18 160q47 221 180 391t324.5 263t408.5 93q180 0 319.5 -70.5t217.5 -200.5t78 -302q0 -82 -19 -174q-47 -219 -179 -389t-323.5 -263.5t-410.5 -93.5q-180 0 -319.5 75t-217 208t-77.5 303zM344 555q0 -178 109.5 -273.5t320.5 -95.5q150 0 282 62.5 t226 182.5t129 284q18 90 19 166q0 176 -105.5 269t-325.5 93q-152 0 -283.5 -63.5t-225 -183t-128.5 -281.5q-18 -86 -18 -160zM494 299l178 842h346q123 0 192.5 -52.5t69.5 -150.5q0 -29 -6 -64q-20 -92 -86 -155.5t-166 -87.5l96 -332h-200l-97 319h-61l-68 -319h-198z M791 770h139q76 0 115.5 25.5t50.5 78.5q4 29 4 37q0 41 -29 58.5t-94 17.5h-139z" />
<glyph unicode="&#xaf;" horiz-adv-x="825" d="M238 1217l36 172h662l-37 -172h-661z" />
<glyph unicode="&#xb0;" horiz-adv-x="753" d="M225 1139q0 29 6 55q27 125 127.5 210t231.5 85q100 0 168.5 -67.5t68.5 -168.5q0 -29 -6 -59q-25 -123 -126 -209t-230 -86q-100 0 -170 69.5t-70 170.5zM387 1161q0 -47 27.5 -75.5t83.5 -28.5q57 0 105 41t59 96q4 25 4 35q0 45 -28 72.5t-83 27.5q-63 0 -115.5 -52 t-52.5 -116z" />
<glyph unicode="&#xb1;" horiz-adv-x="843" d="M-20 0l43 207h679l-43 -207h-679zM96 551l43 207h236l51 235h207l-51 -235h237l-43 -207h-237l-52 -238h-206l51 238h-236z" />
<glyph unicode="&#xb2;" horiz-adv-x="700" d="M139 758l27 121l158 112q150 104 200.5 150.5t50.5 99.5q0 51 -77 51q-49 0 -118 -19.5t-112 -45.5l35 166q43 25 112.5 42t127.5 17q113 0 171 -49t58 -127q0 -31 -4 -45q-16 -72 -59 -116t-156 -124l-121 -86h275l-31 -147h-537z" />
<glyph unicode="&#xb3;" horiz-adv-x="710" d="M143 776l31 146q39 -20 96.5 -31.5t106.5 -11.5q63 0 102 16t49 59q2 6 2 17q0 29 -28.5 43t-91.5 14h-101l31 139h98q117 0 131 68q6 35 -22.5 54.5t-89.5 19.5q-94 0 -197 -54l31 146q106 51 254 51q113 0 172 -47t59 -121q0 -61 -35.5 -109.5t-103.5 -76.5 q92 -27 92 -115q0 -29 -4 -43q-20 -94 -108.5 -148.5t-229.5 -54.5q-160 0 -244 39z" />
<glyph unicode="&#xb4;" horiz-adv-x="577" d="M225 1165l219 357h271l-252 -357h-238z" />
<glyph unicode="&#xb6;" horiz-adv-x="1552" d="M186 905q0 68 15 137q53 250 229 384.5t422 134.5h846l-389 -1835h-260l344 1620h-252l-344 -1620h-260l172 809h-121q-188 0 -295 97t-107 273z" />
<glyph unicode="&#xb7;" horiz-adv-x="372" d="M104 586q0 49 40 87t89 38q37 0 60.5 -23.5t23.5 -58.5q0 -49 -38.5 -88t-88.5 -39q-36 0 -61 24.5t-25 59.5z" />
<glyph unicode="&#xb8;" horiz-adv-x="645" d="M-123 -483l31 141q20 -10 51 -17.5t61 -7.5q121 0 140 84q2 6 2 21q0 88 -182 88l106 174h231l-65 -106q72 -14 109.5 -55.5t37.5 -102.5q0 -115 -95 -179.5t-247 -64.5q-55 0 -105 7t-75 18z" />
<glyph unicode="&#xb9;" horiz-adv-x="483" d="M217 1118l37 176l215 138h174l-143 -674h-193l103 481z" />
<glyph unicode="&#xba;" horiz-adv-x="989" d="M199 999q0 37 10 88q37 174 166 274.5t327 100.5q156 0 249 -77.5t93 -210.5q0 -35 -10 -87q-37 -178 -166 -276t-325 -98q-158 0 -251 75.5t-93 210.5zM395 1018q0 -156 180 -156q99 0 171.5 62.5t93.5 162.5q8 35 8 76q0 150 -176 150q-102 0 -174 -59.5t-95 -166.5 q-8 -49 -8 -69z" />
<glyph unicode="&#xbb;" horiz-adv-x="1286" d="M57 385l408 291l-283 293l164 149l395 -422l-14 -65l-575 -420zM565 385l408 291l-283 293l164 149l395 -422l-14 -65l-576 -420z" />
<glyph unicode="&#xbc;" horiz-adv-x="1501" d="M104 0l1096 1432h264l-1095 -1432h-265zM217 1118l37 176l215 138h174l-143 -674h-193l103 481zM743 139l29 131l385 404h207l-84 -395h94l-28 -140h-95l-28 -139h-193l29 139h-316zM952 279h164l47 215z" />
<glyph unicode="&#xbd;" horiz-adv-x="1533" d="M104 0l1096 1432h264l-1095 -1432h-265zM217 1118l37 176l215 138h174l-143 -674h-193l103 481zM813 0l25 121l159 112q150 104 201 150.5t51 97.5q0 53 -80 54q-49 0 -116.5 -19.5t-112.5 -46.5l35 166q45 25 114.5 42t127.5 17q111 0 170 -50t59 -128q0 -14 -4 -43 q-10 -49 -36 -86t-61.5 -65.5t-117.5 -88.5l-121 -86h274l-30 -147h-537z" />
<glyph unicode="&#xbe;" horiz-adv-x="1525" d="M129 0l1096 1432h264l-1096 -1432h-264zM143 776l31 146q39 -20 96.5 -31.5t106.5 -11.5q63 0 102 16t49 59q2 6 2 17q0 29 -28.5 43t-91.5 14h-101l31 139h98q117 0 131 68q6 35 -22.5 54.5t-89.5 19.5q-94 0 -197 -54l31 146q106 51 254 51q106 0 169.5 -46t63.5 -118 q0 -12 -4 -33q-23 -109 -137 -157q92 -27 92 -115q0 -29 -4 -43q-20 -94 -108.5 -148.5t-229.5 -54.5q-160 0 -244 39zM768 139l29 131l385 404h207l-84 -395h94l-29 -140h-94l-29 -139h-192l28 139h-315zM977 279h164l47 215z" />
<glyph unicode="&#xbf;" horiz-adv-x="1064" d="M-27 -66q0 37 11 89q16 76 55 130t89 93t151 104q100 68 139 97.5t63.5 68.5t38.5 107l10 45h248l-10 -47q-27 -121 -89.5 -203t-178.5 -156l-62 -37q-98 -59 -142 -98t-58 -104q-6 -29 -7 -52q0 -61 52.5 -94t175.5 -33q98 0 205.5 22.5t199.5 61.5l-45 -215 q-88 -35 -195.5 -57.5t-209.5 -22.5q-211 0 -326 78t-115 223zM575 950q0 72 54.5 124t124.5 52q53 0 85.5 -32.5t32.5 -81.5q0 -72 -54 -122t-124 -50q-53 0 -86 30.5t-33 79.5z" />
<glyph unicode="&#xc0;" horiz-adv-x="1560" d="M-20 0l876 1432h252l268 -1432h-256l-61 330h-606l-199 -330h-274zM569 545h463l-102 608zM735 1876h273l65 -356h-237z" />
<glyph unicode="&#xc1;" horiz-adv-x="1560" d="M-20 0l876 1432h252l268 -1432h-256l-61 330h-606l-199 -330h-274zM569 545h463l-102 608zM854 1520l217 356h272l-251 -356h-238z" />
<glyph unicode="&#xc2;" horiz-adv-x="1560" d="M-20 0l876 1432h252l268 -1432h-256l-61 330h-606l-199 -330h-274zM545 1520l375 350h229l223 -350h-248l-112 202l-199 -202h-268zM569 545h463l-102 608z" />
<glyph unicode="&#xc3;" horiz-adv-x="1560" d="M-20 0l876 1432h252l268 -1432h-256l-61 330h-606l-199 -330h-274zM561 1520l45 211q86 88 223 88q45 0 84 -12.5t105 -39.5q51 -25 92 -38t86 -13q127 0 225 105l-45 -211q-80 -86 -221 -86q-51 0 -94 13t-103 40q-53 25 -90 37t-80 12q-59 0 -114.5 -24.5t-112.5 -81.5 zM569 545h463l-102 608z" />
<glyph unicode="&#xc4;" horiz-adv-x="1560" d="M-20 0l876 1432h252l268 -1432h-256l-61 330h-606l-199 -330h-274zM569 545h463l-102 608zM610 1649q0 63 53.5 113t114.5 50q47 0 78 -30.5t31 -77.5q0 -66 -52.5 -115t-115.5 -49q-47 0 -78 31t-31 78zM1094 1649q0 66 53 114.5t117 48.5q47 0 77.5 -30.5t30.5 -77.5 q0 -66 -52 -115t-116 -49q-49 0 -79.5 31t-30.5 78z" />
<glyph unicode="&#xc5;" horiz-adv-x="1560" d="M-20 0l845 1382q-35 27 -53 67t-18 89q0 29 6 55q23 109 110.5 182.5t198.5 73.5q92 0 149.5 -57t57.5 -143q0 -27 -6 -56q-14 -68 -54 -122t-100 -89l260 -1382h-256l-61 330h-606l-199 -330h-274zM569 545h463l-102 608zM907 1567q0 -35 21.5 -56.5t62.5 -21.5 q51 0 91 41t40 92q0 35 -21.5 55.5t-64.5 20.5q-49 0 -89 -40t-40 -91z" />
<glyph unicode="&#xc6;" horiz-adv-x="1892" d="M-20 0l981 1432h1050l-45 -215h-637l-84 -394h455l-45 -215h-455l-84 -393h637l-45 -215h-897l74 350h-391l-236 -350h-278zM633 545h293l143 672h-6z" />
<glyph unicode="&#xc7;" horiz-adv-x="1441" d="M117 551q0 84 18 176q47 227 175 392t319.5 254t425.5 89q299 0 467 -141l-54 -248q-145 152 -440 152q-158 0 -290 -62.5t-222 -178.5t-123 -269q-16 -72 -16 -150q0 -172 108.5 -266t325.5 -94q152 0 277.5 38t244.5 122l-51 -248q-150 -115 -410 -142l-49 -81 q72 -8 111 -49.5t39 -102.5q0 -117 -94.5 -183.5t-247.5 -66.5q-56 0 -106 7t-76 18l32 141q20 -10 51 -17.5t62 -7.5q121 0 139 84q2 6 2 21q0 88 -182 88l88 149q-156 18 -274.5 94t-184 199t-65.5 283z" />
<glyph unicode="&#xc8;" horiz-adv-x="1173" d="M20 0l304 1432h968l-45 -215h-708l-84 -394h526l-45 -215h-526l-84 -393h708l-45 -215h-969zM569 1876h273l65 -356h-237z" />
<glyph unicode="&#xc9;" horiz-adv-x="1153" d="M20 0l304 1432h968l-45 -215h-708l-84 -394h526l-45 -215h-526l-84 -393h708l-45 -215h-969zM627 1520l217 356h272l-252 -356h-237z" />
<glyph unicode="&#xca;" horiz-adv-x="1173" d="M20 0l304 1432h968l-45 -215h-708l-84 -394h526l-45 -215h-526l-84 -393h708l-45 -215h-969zM340 1520l375 350h229l223 -350h-247l-113 202l-199 -202h-268z" />
<glyph unicode="&#xcb;" horiz-adv-x="1173" d="M20 0l304 1432h968l-45 -215h-708l-84 -394h526l-45 -215h-526l-84 -393h708l-45 -215h-969zM422 1649q0 63 53 113t115 50q47 0 77.5 -30.5t30.5 -77.5q0 -66 -52 -115t-116 -49q-47 0 -77.5 31t-30.5 78zM905 1649q0 66 53.5 114.5t116.5 48.5q47 0 78 -30.5t31 -77.5 q0 -66 -52.5 -115t-115.5 -49q-49 0 -80 31t-31 78z" />
<glyph unicode="&#xcc;" horiz-adv-x="518" d="M27 0l303 1432h260l-303 -1432h-260zM217 1876h272l66 -356h-238z" />
<glyph unicode="&#xcd;" horiz-adv-x="518" d="M27 0l303 1432h260l-303 -1432h-260zM322 1520l217 356h272l-252 -356h-237z" />
<glyph unicode="&#xce;" horiz-adv-x="518" d="M23 1520l374 350h230l223 -350h-248l-113 202l-198 -202h-268zM27 0l303 1432h260l-303 -1432h-260z" />
<glyph unicode="&#xcf;" horiz-adv-x="518" d="M27 0l303 1432h260l-303 -1432h-260zM88 1649q0 63 53.5 113t114.5 50q47 0 78 -30.5t31 -77.5q0 -66 -52.5 -115t-115.5 -49q-47 0 -78 31t-31 78zM571 1649q0 66 53.5 114.5t116.5 48.5q47 0 78 -30.5t31 -77.5q0 -66 -52.5 -115t-115.5 -49q-49 0 -80 31t-31 78z" />
<glyph unicode="&#xd0;" horiz-adv-x="1484" d="M59 0l129 616h-120l43 197h120l131 619h480q195 0 336 -69t215.5 -195t74.5 -291q0 -80 -14 -154q-70 -358 -308.5 -540.5t-608.5 -182.5h-478zM365 215h200q260 0 418 133t209 375q18 84 18 154q0 162 -98 251t-307 89h-227l-86 -404h352l-43 -197h-352z" />
<glyph unicode="&#xd1;" horiz-adv-x="1421" d="M20 0l304 1432h245l459 -998l211 998h260l-303 -1432h-246l-458 999l-211 -999h-261zM506 1520l45 211q86 88 223 88q45 0 84 -12.5t105 -39.5q51 -25 92 -38t86 -13q127 0 225 105l-45 -211q-80 -86 -221 -86q-51 0 -94 13t-103 40q-53 25 -90 37t-80 12 q-59 0 -114.5 -24.5t-112.5 -81.5z" />
<glyph unicode="&#xd2;" horiz-adv-x="1681" d="M111 539q0 74 20 176q47 221 178 391t323.5 263t416.5 93q180 0 320 -70.5t219 -201.5t79 -305q0 -80 -18 -170q-47 -221 -177.5 -390t-320.5 -262.5t-420 -93.5q-184 0 -324.5 70t-218 199t-77.5 301zM375 551q0 -346 407 -346q138 0 263.5 62.5t217 178t123.5 269.5 q18 86 19 157q0 170 -100.5 261.5t-305.5 91.5q-139 0 -266 -63.5t-217 -179.5t-123 -267q-18 -88 -18 -164zM819 1876h273l65 -356h-237z" />
<glyph unicode="&#xd3;" horiz-adv-x="1681" d="M111 539q0 74 20 176q47 221 178 391t323.5 263t416.5 93q180 0 320 -70.5t219 -201.5t79 -305q0 -80 -18 -170q-47 -221 -177.5 -390t-320.5 -262.5t-420 -93.5q-184 0 -324.5 70t-218 199t-77.5 301zM375 551q0 -346 407 -346q138 0 263.5 62.5t217 178t123.5 269.5 q18 86 19 157q0 170 -100.5 261.5t-305.5 91.5q-139 0 -266 -63.5t-217 -179.5t-123 -267q-18 -88 -18 -164zM899 1520l217 356h273l-252 -356h-238z" />
<glyph unicode="&#xd4;" horiz-adv-x="1681" d="M111 539q0 74 20 176q47 221 178 391t323.5 263t416.5 93q180 0 320 -70.5t219 -201.5t79 -305q0 -80 -18 -170q-47 -221 -177.5 -390t-320.5 -262.5t-420 -93.5q-184 0 -324.5 70t-218 199t-77.5 301zM375 551q0 -346 407 -346q138 0 263.5 62.5t217 178t123.5 269.5 q18 86 19 157q0 170 -100.5 261.5t-305.5 91.5q-139 0 -266 -63.5t-217 -179.5t-123 -267q-18 -88 -18 -164zM604 1520l375 350h229l224 -350h-248l-113 202l-199 -202h-268z" />
<glyph unicode="&#xd5;" horiz-adv-x="1681" d="M111 539q0 74 20 176q47 221 178 391t323.5 263t416.5 93q180 0 320 -70.5t219 -201.5t79 -305q0 -80 -18 -170q-47 -221 -177.5 -390t-320.5 -262.5t-420 -93.5q-184 0 -324.5 70t-218 199t-77.5 301zM375 551q0 -346 407 -346q138 0 263.5 62.5t217 178t123.5 269.5 q18 86 19 157q0 170 -100.5 261.5t-305.5 91.5q-139 0 -266 -63.5t-217 -179.5t-123 -267q-18 -88 -18 -164zM623 1520l45 211q86 88 223 88q45 0 84 -12.5t104 -39.5q51 -25 92 -38t86 -13q127 0 226 105l-45 -211q-80 -86 -221 -86q-51 0 -94.5 13t-102.5 40 q-53 25 -90 37t-80 12q-59 0 -114.5 -24.5t-112.5 -81.5z" />
<glyph unicode="&#xd6;" horiz-adv-x="1681" d="M111 539q0 74 20 176q47 221 178 391t323.5 263t416.5 93q180 0 320 -70.5t219 -201.5t79 -305q0 -80 -18 -170q-47 -221 -177.5 -390t-320.5 -262.5t-420 -93.5q-184 0 -324.5 70t-218 199t-77.5 301zM375 551q0 -346 407 -346q138 0 263.5 62.5t217 178t123.5 269.5 q18 86 19 157q0 170 -100.5 261.5t-305.5 91.5q-139 0 -266 -63.5t-217 -179.5t-123 -267q-18 -88 -18 -164zM670 1649q0 63 53 113t115 50q47 0 77.5 -30.5t30.5 -77.5q0 -66 -52 -115t-116 -49q-47 0 -77.5 31t-30.5 78zM1153 1649q0 66 53.5 114.5t116.5 48.5 q47 0 78 -30.5t31 -77.5q0 -66 -52.5 -115t-115.5 -49q-50 0 -80.5 31t-30.5 78z" />
<glyph unicode="&#xd7;" horiz-adv-x="792" d="M78 457l201 166l-132 168l172 139l130 -166l210 174l117 -147l-211 -175l131 -165l-170 -142l-131 166l-200 -164z" />
<glyph unicode="&#xd8;" horiz-adv-x="1681" d="M113 539q0 84 18 176q47 221 178 391t323.5 263t416.5 93q80 0 165 -16l99 160h254l-150 -244q119 -76 184.5 -198t65.5 -279q0 -80 -18 -170q-47 -221 -176.5 -390t-320.5 -262.5t-421 -93.5q-84 0 -162 17l-98 -162h-254l145 237q-119 74 -184 197t-65 281zM375 549 q0 -186 121 -273l579 945q-49 4 -76 4q-139 0 -266 -63.5t-217 -179.5t-123 -267q-18 -88 -18 -166zM707 207q23 -2 75 -2q138 0 263.5 62.5t217 178t123.5 269.5q18 84 19 157q0 184 -119 277z" />
<glyph unicode="&#xd9;" horiz-adv-x="1447" d="M113 420q0 72 14 137l186 875h260l-186 -879q-14 -63 -14 -119q0 -119 71.5 -174t221.5 -55q160 0 273.5 89t150.5 259l186 879h260l-186 -875q-125 -588 -736 -588q-157 0 -270 57.5t-172 160t-59 233.5zM694 1876h273l65 -356h-237z" />
<glyph unicode="&#xda;" horiz-adv-x="1447" d="M113 420q0 72 14 137l186 875h260l-186 -879q-14 -63 -14 -119q0 -119 71.5 -174t221.5 -55q160 0 273.5 89t150.5 259l186 879h260l-186 -875q-125 -588 -736 -588q-157 0 -270 57.5t-172 160t-59 233.5zM772 1520l217 356h273l-252 -356h-238z" />
<glyph unicode="&#xdb;" horiz-adv-x="1447" d="M113 420q0 72 14 137l186 875h260l-186 -879q-14 -63 -14 -119q0 -119 71.5 -174t221.5 -55q160 0 273.5 89t150.5 259l186 879h260l-186 -875q-125 -588 -736 -588q-157 0 -270 57.5t-172 160t-59 233.5zM487 1520l375 350h230l223 -350h-248l-113 202l-198 -202h-269z " />
<glyph unicode="&#xdc;" horiz-adv-x="1447" d="M113 420q0 72 14 137l186 875h260l-186 -879q-14 -63 -14 -119q0 -119 71.5 -174t221.5 -55q160 0 273.5 89t150.5 259l186 879h260l-186 -875q-125 -588 -736 -588q-157 0 -270 57.5t-172 160t-59 233.5zM553 1649q0 63 53 113t115 50q47 0 77.5 -30.5t30.5 -77.5 q0 -66 -52 -115t-115 -49q-48 0 -78.5 31t-30.5 78zM1036 1649q0 66 53.5 114.5t116.5 48.5q47 0 78 -30.5t31 -77.5q0 -66 -52.5 -115t-115.5 -49q-49 0 -80 31t-31 78z" />
<glyph unicode="&#xdd;" horiz-adv-x="1486" d="M295 1432h266l234 -637l514 637h284l-719 -887l-114 -545h-248l115 545zM791 1520l217 356h272l-252 -356h-237z" />
<glyph unicode="&#xde;" horiz-adv-x="1257" d="M20 0l304 1432h260l-56 -265h330q190 0 304 -91t114 -255q0 -55 -10 -102q-47 -227 -195.5 -337t-402.5 -110h-330l-57 -272h-261zM383 487h281q137 0 225 49.5t117 182.5q8 39 8 76q0 90 -58.5 123.5t-171.5 33.5h-303z" />
<glyph unicode="&#xdf;" horiz-adv-x="1327" d="M10 0l215 1020q51 240 208 372t427 132q137 0 232.5 -49.5t141.5 -130t46 -179.5q0 -45 -8 -84q-20 -98 -82 -180t-154 -121q205 -63 205 -262q0 -49 -12 -104q-43 -207 -186.5 -326t-374.5 -119q-174 0 -258 39l51 240q74 -43 215 -43q127 0 199.5 65.5t97.5 180.5 q6 35 6 59q0 80 -59.5 117t-174.5 37h-116l47 217h92q195 0 240 200q6 29 6 54q0 70 -49.5 109.5t-153.5 39.5q-129 0 -212 -60.5t-110 -187.5l-219 -1036h-260z" />
<glyph unicode="&#xe0;" horiz-adv-x="1351" d="M68 367q0 63 14 122q33 154 123 274t221 185.5t287 65.5q240 0 354 -127l20 96h259l-209 -983h-250l22 115q-80 -76 -182 -111t-238 -35q-122 0 -217.5 48.5t-149.5 138.5t-54 211zM334 395q0 -223 262 -223q111 0 209 59.5t156 159.5l43 199q-10 102 -80 161.5 t-191 59.5q-145 0 -252.5 -89t-136.5 -233q-10 -57 -10 -94zM696 1452h273l65 -356h-237z" />
<glyph unicode="&#xe1;" horiz-adv-x="1351" d="M68 367q0 63 14 122q33 154 123 274t221 185.5t287 65.5q240 0 354 -127l20 96h259l-209 -983h-250l22 115q-80 -76 -182 -111t-238 -35q-122 0 -217.5 48.5t-149.5 138.5t-54 211zM334 395q0 -223 262 -223q111 0 209 59.5t156 159.5l43 199q-10 102 -80 161.5 t-191 59.5q-145 0 -252.5 -89t-136.5 -233q-10 -57 -10 -94zM735 1096l217 356h273l-252 -356h-238z" />
<glyph unicode="&#xe2;" horiz-adv-x="1351" d="M68 367q0 63 14 122q33 154 123 274t221 185.5t287 65.5q240 0 354 -127l20 96h259l-209 -983h-250l22 115q-80 -76 -182 -111t-238 -35q-122 0 -217.5 48.5t-149.5 138.5t-54 211zM334 395q0 -223 262 -223q111 0 209 59.5t156 159.5l43 199q-10 102 -80 161.5 t-191 59.5q-145 0 -252.5 -89t-136.5 -233q-10 -57 -10 -94zM451 1096l374 350h230l223 -350h-248l-112 202l-199 -202h-268z" />
<glyph unicode="&#xe3;" horiz-adv-x="1351" d="M68 367q0 63 14 122q33 154 123 274t221 185.5t287 65.5q240 0 354 -127l20 96h259l-209 -983h-250l22 115q-80 -76 -182 -111t-238 -35q-122 0 -217.5 48.5t-149.5 138.5t-54 211zM334 395q0 -223 262 -223q111 0 209 59.5t156 159.5l43 199q-10 102 -80 161.5 t-191 59.5q-145 0 -252.5 -89t-136.5 -233q-10 -57 -10 -94zM494 1092l45 211q86 88 223 88q45 0 84 -12.5t104 -39.5q51 -25 92 -38t86 -13q127 0 226 105l-45 -211q-80 -86 -222 -86q-51 0 -94 13t-102 40q-53 25 -90 37t-80 12q-59 0 -114.5 -24.5t-112.5 -81.5z" />
<glyph unicode="&#xe4;" horiz-adv-x="1351" d="M68 367q0 63 14 122q33 154 123 274t221 185.5t287 65.5q240 0 354 -127l20 96h259l-209 -983h-250l22 115q-80 -76 -182 -111t-238 -35q-122 0 -217.5 48.5t-149.5 138.5t-54 211zM334 395q0 -223 262 -223q111 0 209 59.5t156 159.5l43 199q-10 102 -80 161.5 t-191 59.5q-145 0 -252.5 -89t-136.5 -233q-10 -57 -10 -94zM506 1225q0 63 53 113.5t115 50.5q47 0 77.5 -31t30.5 -78q0 -66 -52 -115t-116 -49q-47 0 -77.5 31t-30.5 78zM989 1225q0 66 53.5 115t116.5 49q47 0 78 -31t31 -78q0 -66 -52.5 -115t-115.5 -49q-49 0 -80 31 t-31 78z" />
<glyph unicode="&#xe5;" horiz-adv-x="1351" d="M68 367q0 63 14 122q33 154 123 274t221 185.5t287 65.5q240 0 354 -127l20 96h259l-209 -983h-250l22 115q-80 -76 -182 -111t-238 -35q-122 0 -217.5 48.5t-149.5 138.5t-54 211zM334 395q0 -223 262 -223q111 0 209 59.5t156 159.5l43 199q-10 102 -80 161.5 t-191 59.5q-145 0 -252.5 -89t-136.5 -233q-10 -57 -10 -94zM674 1294q0 29 6 56q23 109 111 182.5t198 73.5q92 0 149.5 -57.5t57.5 -143.5q0 -27 -6 -55q-23 -109 -110 -181.5t-199 -72.5q-93 0 -150 56t-57 142zM827 1323q0 -35 21.5 -56.5t62.5 -21.5q52 0 91.5 41 t39.5 92q0 35 -21.5 55.5t-64.5 20.5q-49 0 -89 -40t-40 -91z" />
<glyph unicode="&#xe6;" horiz-adv-x="1984" d="M37 240q0 41 8 73q35 164 161 256.5t318 92.5q186 0 305 -76l7 26q8 45 8 62q0 72 -56.5 104.5t-181.5 32.5q-90 0 -182 -17.5t-166 -48.5l43 203q68 29 175.5 47.5t203.5 18.5q133 0 219 -37t133 -107q84 68 200 106t245 38q217 0 330.5 -103.5t113.5 -275.5 q0 -66 -14 -125l-25 -119h-833q-10 -115 68.5 -167t260.5 -52q94 0 196.5 16.5t182.5 44.5l-43 -198q-76 -29 -189.5 -47.5t-221.5 -18.5q-274 0 -414 158q-100 -76 -218 -117t-282 -41q-160 0 -256 73t-96 198zM301 266q0 -55 41 -81.5t135 -26.5q84 0 160 31.5t127 89.5 l24 114q-94 80 -239 80q-209 0 -242 -160q-6 -27 -6 -47zM1085 567h590q6 35 6 62q0 182 -251 182q-133 0 -224.5 -65.5t-120.5 -178.5z" />
<glyph unicode="&#xe7;" horiz-adv-x="1122" d="M70 373q0 55 12 116q53 250 235.5 387.5t456.5 137.5q229 0 346 -90l-43 -207q-57 47 -139 70.5t-180 23.5q-158 0 -268.5 -79t-145.5 -243q-10 -43 -10 -96q0 -115 71.5 -168t210.5 -53q207 0 379 98l-45 -204q-119 -72 -288 -91l-50 -81q72 -8 111 -49.5t39 -102.5 q0 -117 -94.5 -183.5t-247.5 -66.5q-55 0 -105.5 7t-76.5 18l32 141q20 -10 51 -17.5t62 -7.5q121 0 139 84q2 6 2 21q0 88 -182 88l90 154q-166 27 -264 130t-98 263z" />
<glyph unicode="&#xe8;" horiz-adv-x="1247" d="M68 369q0 45 14 120q53 244 220 384.5t437 140.5q211 0 327 -108.5t116 -282.5q0 -53 -13 -113l-24 -119h-838l-2 -29q0 -100 80 -145t256 -45q94 0 196.5 16.5t182.5 44.5l-43 -198q-76 -29 -189.5 -47.5t-222.5 -18.5q-227 0 -362 105.5t-135 294.5zM344 567h594 q6 35 6 64q0 90 -61.5 135t-190.5 45q-135 0 -227 -65.5t-121 -178.5zM522 1452h273l65 -356h-237z" />
<glyph unicode="&#xe9;" horiz-adv-x="1247" d="M68 369q0 45 14 120q53 244 220 384.5t437 140.5q211 0 327 -108.5t116 -282.5q0 -53 -13 -113l-24 -119h-838l-2 -29q0 -100 80 -145t256 -45q94 0 196.5 16.5t182.5 44.5l-43 -198q-76 -29 -189.5 -47.5t-222.5 -18.5q-227 0 -362 105.5t-135 294.5zM344 567h594 q6 35 6 64q0 90 -61.5 135t-190.5 45q-135 0 -227 -65.5t-121 -178.5zM575 1096l218 356h272l-252 -356h-238z" />
<glyph unicode="&#xea;" horiz-adv-x="1247" d="M68 369q0 45 14 120q53 244 220 384.5t437 140.5q211 0 327 -108.5t116 -282.5q0 -53 -13 -113l-24 -119h-838l-2 -29q0 -100 80 -145t256 -45q94 0 196.5 16.5t182.5 44.5l-43 -198q-76 -29 -189.5 -47.5t-222.5 -18.5q-227 0 -362 105.5t-135 294.5zM315 1096l375 350 h230l223 -350h-248l-113 202l-198 -202h-269zM344 567h594q6 35 6 64q0 90 -61.5 135t-190.5 45q-135 0 -227 -65.5t-121 -178.5z" />
<glyph unicode="&#xeb;" horiz-adv-x="1247" d="M68 369q0 45 14 120q53 244 220 384.5t437 140.5q211 0 327 -108.5t116 -282.5q0 -53 -13 -113l-24 -119h-838l-2 -29q0 -100 80 -145t256 -45q94 0 196.5 16.5t182.5 44.5l-43 -198q-76 -29 -189.5 -47.5t-222.5 -18.5q-227 0 -362 105.5t-135 294.5zM344 567h594 q6 35 6 64q0 90 -61.5 135t-190.5 45q-135 0 -227 -65.5t-121 -178.5zM375 1225q0 63 53 113.5t115 50.5q47 0 77.5 -31t30.5 -78q0 -66 -52 -115t-116 -49q-47 0 -77.5 31t-30.5 78zM858 1225q0 66 53.5 115t116.5 49q47 0 78 -31t31 -78q0 -66 -52.5 -115t-115.5 -49 q-49 0 -80 31t-31 78z" />
<glyph unicode="&#xec;" horiz-adv-x="507" d="M20 0l209 983h263l-209 -983h-263zM125 1452h272l66 -356h-238z" />
<glyph unicode="&#xed;" horiz-adv-x="507" d="M20 0l209 983h263l-209 -983h-263zM221 1096l217 356h273l-252 -356h-238z" />
<glyph unicode="&#xee;" horiz-adv-x="507" d="M-72 1096l375 350h229l224 -350h-248l-113 202l-198 -202h-269zM20 0l209 983h263l-209 -983h-263z" />
<glyph unicode="&#xef;" horiz-adv-x="507" d="M-6 1225q0 63 53 113.5t115 50.5q47 0 77.5 -31t30.5 -78q0 -66 -52 -115t-116 -49q-47 0 -77.5 31t-30.5 78zM20 0l209 983h263l-209 -983h-263zM477 1225q0 66 53.5 115t116.5 49q47 0 78 -31t31 -78q0 -66 -52.5 -115t-115.5 -49q-49 0 -80 31t-31 78z" />
<glyph unicode="&#xf0;" horiz-adv-x="1298" d="M61 346q0 51 13 107q49 227 205.5 351t425.5 124q98 0 182 -33t133 -94q16 92 16 164q0 86 -24 149l-314 -137l35 166l187 82q-68 37 -158 37q-59 0 -137 -11.5t-123 -27.5l45 209q49 12 127 21t131 9q233 0 350 -135l264 117l-35 -166l-161 -72q37 -94 37 -235 q0 -133 -37 -312q-74 -342 -256.5 -516t-458.5 -174q-207 0 -327 103.5t-120 273.5zM322 379q0 -98 64.5 -154.5t172.5 -56.5q123 0 216 81t118 197q8 45 8 66q0 96 -61.5 154.5t-161.5 58.5q-143 0 -232.5 -73.5t-115.5 -205.5q-8 -33 -8 -67z" />
<glyph unicode="&#xf1;" horiz-adv-x="1249" d="M20 0l209 983h250l-28 -133q86 78 193.5 121t209.5 43q158 0 240 -83t82 -214q0 -41 -11 -96l-131 -621h-258l125 596q10 51 10 82q0 68 -38.5 100.5t-124.5 32.5q-88 0 -175.5 -42t-158.5 -126l-135 -643h-259zM295 1096l45 211q86 88 223 88q45 0 84 -12.5t105 -39.5 q51 -25 92 -38t86 -13q127 0 225 105l-45 -211q-80 -86 -221 -86q-51 0 -94 13t-103 40q-53 25 -90 37t-80 12q-59 0 -114.5 -24.5t-112.5 -81.5z" />
<glyph unicode="&#xf2;" horiz-adv-x="1314" d="M70 371q0 45 14 121q49 242 230.5 382t455.5 140q217 0 347 -109.5t130 -298.5q0 -53 -12 -114q-53 -246 -233.5 -384.5t-454.5 -138.5q-215 0 -346 107.5t-131 294.5zM338 391q0 -104 61.5 -161.5t190.5 -57.5q141 0 244.5 89t134.5 231q12 55 12 104q0 215 -254 215 q-143 0 -244.5 -85t-132.5 -234q-12 -55 -12 -101zM561 1452h273l65 -356h-237z" />
<glyph unicode="&#xf3;" horiz-adv-x="1314" d="M70 371q0 45 14 121q49 242 230.5 382t455.5 140q217 0 347 -109.5t130 -298.5q0 -53 -12 -114q-53 -246 -233.5 -384.5t-454.5 -138.5q-215 0 -346 107.5t-131 294.5zM338 391q0 -104 61.5 -161.5t190.5 -57.5q141 0 244.5 89t134.5 231q12 55 12 104q0 215 -254 215 q-143 0 -244.5 -85t-132.5 -234q-12 -55 -12 -101zM623 1096l217 356h272l-252 -356h-237z" />
<glyph unicode="&#xf4;" horiz-adv-x="1388" d="M143 371q0 45 15 121q49 242 230 382t456 140q217 0 347 -109.5t130 -298.5q0 -53 -12 -114q-53 -246 -233.5 -384.5t-454.5 -138.5q-215 0 -346.5 107.5t-131.5 294.5zM406 1096l374 350h230l223 -350h-248l-113 202l-198 -202h-268zM412 391q0 -104 61.5 -161.5 t190.5 -57.5q141 0 244.5 89t133.5 231q12 55 13 104q0 215 -254 215q-143 0 -244.5 -85t-132.5 -234q-12 -55 -12 -101z" />
<glyph unicode="&#xf5;" horiz-adv-x="1372" d="M127 371q0 45 14 121q49 242 230.5 382t455.5 140q217 0 347.5 -109.5t130.5 -298.5q0 -53 -13 -114q-53 -246 -233 -384.5t-455 -138.5q-215 0 -346 107.5t-131 294.5zM395 391q0 -104 61.5 -161.5t190.5 -57.5q141 0 244.5 89t134.5 231q12 55 12 104q0 215 -254 215 q-143 0 -244.5 -85t-131.5 -234q-12 -55 -13 -101zM412 1122l45 211q86 88 223 88q45 0 84 -12t104 -39q51 -25 92 -38t87 -13q127 0 225 104l-45 -211q-80 -86 -221 -86q-51 0 -94.5 13.5t-102.5 40.5q-53 25 -90 37t-80 12q-59 0 -114.5 -24.5t-112.5 -82.5z" />
<glyph unicode="&#xf6;" horiz-adv-x="1351" d="M106 371q0 45 15 121q49 242 230 382t456 140q217 0 347 -109.5t130 -298.5q0 -53 -12 -114q-53 -246 -233.5 -384.5t-454.5 -138.5q-215 0 -346.5 107.5t-131.5 294.5zM375 391q0 -104 61.5 -161.5t190.5 -57.5q141 0 244.5 89t134.5 231q12 55 12 104q0 215 -254 215 q-143 0 -244.5 -85t-132.5 -234q-12 -55 -12 -101zM434 1225q0 63 53.5 113.5t114.5 50.5q47 0 78 -31t31 -78q0 -66 -52.5 -115t-115.5 -49q-47 0 -78 31t-31 78zM918 1225q0 66 53 115t116 49q47 0 78 -31t31 -78q0 -66 -52 -115t-116 -49q-49 0 -79.5 31t-30.5 78z" />
<glyph unicode="&#xf7;" horiz-adv-x="843" d="M86 510l45 207h680l-45 -207h-680zM270 303q0 55 44 97t98 42q41 0 66.5 -25.5t25.5 -64.5q0 -55 -42 -97t-97 -42q-41 0 -68 25.5t-27 64.5zM393 872q0 16 2 25q8 49 50 83t90 34q41 0 66.5 -25.5t25.5 -66.5q0 -16 -2 -25q-10 -47 -51.5 -80t-88.5 -33q-41 0 -66.5 25 t-25.5 63z" />
<glyph unicode="&#xf8;" horiz-adv-x="1314" d="M70 369q0 63 14 123q49 242 230.5 382t455.5 140q25 0 74 -4l92 149h254l-133 -215q92 -51 141 -137t49 -201q0 -53 -12 -114q-53 -246 -233.5 -384.5t-454.5 -138.5q-45 0 -86 6l-92 -151h-254l133 217q-84 51 -131 135t-47 193zM338 391q0 -82 41 -139l342 559 q-141 -2 -239.5 -86t-131.5 -233q-12 -51 -12 -101zM582 172q147 0 251.5 89t135.5 231q12 55 12 102q0 96 -49 147z" />
<glyph unicode="&#xf9;" horiz-adv-x="1249" d="M76 262q0 57 10 100l133 621h258l-127 -596q-10 -55 -10 -86q0 -68 39 -98.5t125 -30.5q88 0 175 42t159 126l137 643h258l-209 -983h-250l27 133q-86 -84 -191.5 -124t-212.5 -40q-157 0 -239 79t-82 214zM506 1452h272l66 -356h-238z" />
<glyph unicode="&#xfa;" horiz-adv-x="1249" d="M76 262q0 57 10 100l133 621h258l-127 -596q-10 -55 -10 -86q0 -68 39 -98.5t125 -30.5q88 0 175 42t159 126l137 643h258l-209 -983h-250l27 133q-86 -84 -191.5 -124t-212.5 -40q-157 0 -239 79t-82 214zM573 1096l218 356h272l-252 -356h-238z" />
<glyph unicode="&#xfb;" horiz-adv-x="1249" d="M76 262q0 57 10 100l133 621h258l-127 -596q-10 -55 -10 -86q0 -68 39 -98.5t125 -30.5q88 0 175 42t159 126l137 643h258l-209 -983h-250l27 133q-86 -84 -191.5 -124t-212.5 -40q-157 0 -239 79t-82 214zM283 1096l374 350h230l223 -350h-248l-112 202l-199 -202h-268z " />
<glyph unicode="&#xfc;" horiz-adv-x="1249" d="M76 262q0 57 10 100l133 621h258l-127 -596q-10 -55 -10 -86q0 -68 39 -98.5t125 -30.5q88 0 175 42t159 126l137 643h258l-209 -983h-250l27 133q-86 -84 -191.5 -124t-212.5 -40q-157 0 -239 79t-82 214zM352 1225q0 63 53.5 113.5t114.5 50.5q47 0 78 -31t31 -78 q0 -66 -52.5 -115t-115.5 -49q-47 0 -78 31t-31 78zM836 1225q0 66 53 115t117 49q47 0 77.5 -31t30.5 -78q0 -66 -52 -115t-116 -49q-49 0 -79.5 31t-30.5 78z" />
<glyph unicode="&#xfd;" horiz-adv-x="1228" d="M-18 -403l43 204q145 -70 346 -69q178 0 267 72.5t134 228.5l35 127q-170 -164 -404 -164q-158 0 -239.5 79t-81.5 214q0 57 10 100l127 594h258l-121 -569q-10 -55 -10 -86q0 -68 39 -98.5t125 -30.5q88 0 175 42t159 126l131 616h258l-197 -924q-57 -266 -222 -398 t-478 -132q-100 0 -198.5 18.5t-155.5 49.5zM590 1096l217 356h272l-252 -356h-237z" />
<glyph unicode="&#xfe;" horiz-adv-x="1361" d="M-76 -449l400 1881h258l-115 -545q80 63 187.5 95t219.5 32q188 0 304 -107.5t116 -290.5q0 -57 -12 -122q-51 -238 -219 -381.5t-412 -143.5q-113 0 -205 32t-149 95l-115 -545h-258zM360 393q10 -100 85 -160.5t186 -60.5q139 0 248.5 90t140.5 232q10 57 10 96 q0 221 -262 221q-111 0 -209 -59.5t-156 -159.5z" />
<glyph unicode="&#xff;" horiz-adv-x="1228" d="M-18 -403l43 204q145 -70 346 -69q178 0 267 72.5t134 228.5l35 127q-170 -164 -404 -164q-158 0 -239.5 79t-81.5 214q0 57 10 100l127 594h258l-121 -569q-10 -55 -10 -86q0 -68 39 -98.5t125 -30.5q88 0 175 42t159 126l131 616h258l-197 -924q-57 -266 -222 -398 t-478 -132q-100 0 -198.5 18.5t-155.5 49.5zM385 1225q0 63 53.5 113.5t114.5 50.5q47 0 78 -31t31 -78q0 -66 -52.5 -115t-115.5 -49q-48 0 -78.5 31t-30.5 78zM868 1225q0 66 53.5 115t116.5 49q47 0 78 -31t31 -78q0 -66 -52.5 -115t-115.5 -49q-49 0 -80 31t-31 78z" />
<glyph unicode="&#x100;" horiz-adv-x="1560" d="M-20 0l876 1432h252l268 -1432h-256l-61 330h-606l-199 -330h-274zM569 545h463l-102 608zM635 1540l37 172h659l-37 -172h-659z" />
<glyph unicode="&#x101;" horiz-adv-x="1351" d="M68 367q0 63 14 122q33 154 123 274t221 185.5t287 65.5q240 0 354 -127l20 96h259l-209 -983h-250l22 115q-80 -76 -182 -111t-238 -35q-122 0 -217.5 48.5t-149.5 138.5t-54 211zM334 395q0 -223 262 -223q111 0 209 59.5t156 159.5l43 199q-10 102 -80 161.5 t-191 59.5q-145 0 -252.5 -89t-136.5 -233q-10 -57 -10 -94zM559 1116l37 172h659l-36 -172h-660z" />
<glyph unicode="&#x102;" horiz-adv-x="1560" d="M-20 0l876 1432h252l268 -1432h-256l-61 330h-606l-199 -330h-274zM569 545h463l-102 608zM688 1751q0 43 8 78h183q-4 -29 -5 -41q0 -96 111 -96q66 0 108 34.5t56 102.5h205q-29 -139 -135.5 -224t-260.5 -85q-131 0 -200.5 61t-69.5 170z" />
<glyph unicode="&#x103;" horiz-adv-x="1351" d="M68 367q0 63 14 122q33 154 123 274t221 185.5t287 65.5q240 0 354 -127l20 96h259l-209 -983h-250l22 115q-80 -76 -182 -111t-238 -35q-122 0 -217.5 48.5t-149.5 138.5t-54 211zM334 395q0 -223 262 -223q111 0 209 59.5t156 159.5l43 199q-10 102 -80 161.5 t-191 59.5q-145 0 -252.5 -89t-136.5 -233q-10 -57 -10 -94zM606 1327q0 43 8 78h183q-4 -29 -4 -41q0 -96 110 -96q66 0 108 34.5t56 102.5h205q-29 -139 -135.5 -224t-259.5 -85q-132 0 -201.5 61.5t-69.5 169.5z" />
<glyph unicode="&#x104;" horiz-adv-x="1560" d="M-20 0l876 1432h252l268 -1432q-92 -49 -142 -97t-63 -106q-2 -8 -2 -20q0 -61 68 -62q53 0 102 23l-30 -148q-76 -27 -183 -26q-88 0 -141 35.5t-53 105.5q0 23 6 47q16 76 66.5 139.5t115.5 108.5l-61 330h-606l-199 -330h-274zM569 545h463l-102 608z" />
<glyph unicode="&#x105;" horiz-adv-x="1351" d="M68 367q0 63 14 122q33 154 123 274t221 185.5t287 65.5q240 0 354 -127l20 96h259l-209 -983q-92 -49 -142.5 -97t-62.5 -106q-2 -8 -2 -20q0 -61 67 -62q53 0 103 23l-31 -148q-76 -27 -182 -26q-88 0 -141.5 35.5t-53.5 105.5q0 23 6 47q16 76 67.5 140.5t121.5 107.5 l22 115q-80 -76 -182 -111t-238 -35q-123 0 -218 48.5t-149 138.5t-54 211zM334 395q0 -223 262 -223q111 0 209 59.5t156 159.5l43 199q-10 102 -80 161.5t-191 59.5q-145 0 -252.5 -89t-136.5 -233q-10 -57 -10 -94z" />
<glyph unicode="&#x106;" horiz-adv-x="1441" d="M115 551q0 74 20 176q47 227 175 392t319.5 254t425.5 89q299 0 467 -141l-54 -248q-145 152 -440 152q-158 0 -290 -62.5t-222 -178.5t-123 -269q-16 -72 -16 -150q0 -172 108.5 -266t325.5 -94q152 0 277.5 38t244.5 122l-51 -248q-197 -147 -545 -148 q-180 0 -321.5 72t-221 204t-79.5 306zM891 1520l217 356h272l-252 -356h-237z" />
<glyph unicode="&#x107;" horiz-adv-x="1122" d="M70 375q0 53 12 114q53 250 235.5 387.5t456.5 137.5q229 0 346 -90l-43 -207q-57 47 -139 70.5t-180 23.5q-158 0 -268.5 -79t-145.5 -243q-10 -43 -10 -96q0 -115 71.5 -168t210.5 -53q207 0 379 98l-45 -204q-164 -96 -403 -97q-139 0 -246.5 49.5t-169 140.5 t-61.5 216zM627 1096l217 356h272l-252 -356h-237z" />
<glyph unicode="&#x108;" horiz-adv-x="1441" d="M115 551q0 74 20 176q47 227 175 392t319.5 254t425.5 89q299 0 467 -141l-54 -248q-145 152 -440 152q-158 0 -290 -62.5t-222 -178.5t-123 -269q-16 -72 -16 -150q0 -172 108.5 -266t325.5 -94q152 0 277.5 38t244.5 122l-51 -248q-197 -147 -545 -148 q-180 0 -321.5 72t-221 204t-79.5 306zM594 1520l375 350h229l223 -350h-247l-113 202l-199 -202h-268z" />
<glyph unicode="&#x109;" horiz-adv-x="1122" d="M70 375q0 53 12 114q53 250 235.5 387.5t456.5 137.5q229 0 346 -90l-43 -207q-57 47 -139 70.5t-180 23.5q-158 0 -268.5 -79t-145.5 -243q-10 -43 -10 -96q0 -115 71.5 -168t210.5 -53q207 0 379 98l-45 -204q-164 -96 -403 -97q-139 0 -246.5 49.5t-169 140.5 t-61.5 216zM297 1096l375 350h229l223 -350h-247l-113 202l-199 -202h-268z" />
<glyph unicode="&#x10a;" horiz-adv-x="1441" d="M115 551q0 74 20 176q47 227 175 392t319.5 254t425.5 89q299 0 467 -141l-54 -248q-145 152 -440 152q-158 0 -290 -62.5t-222 -178.5t-123 -269q-16 -72 -16 -150q0 -172 108.5 -266t325.5 -94q152 0 277.5 38t244.5 122l-51 -248q-197 -147 -545 -148 q-180 0 -321.5 72t-221 204t-79.5 306zM893 1649q0 66 53 114.5t117 48.5q47 0 77.5 -30.5t30.5 -77.5q0 -66 -52 -115t-115 -49q-50 0 -80.5 31t-30.5 78z" />
<glyph unicode="&#x10b;" horiz-adv-x="1122" d="M70 375q0 53 12 114q53 250 235.5 387.5t456.5 137.5q229 0 346 -90l-43 -207q-57 47 -139 70.5t-180 23.5q-158 0 -268.5 -79t-145.5 -243q-10 -43 -10 -96q0 -115 71.5 -168t210.5 -53q207 0 379 98l-45 -204q-164 -96 -403 -97q-139 0 -246.5 49.5t-169 140.5 t-61.5 216zM610 1204q0 66 53.5 115t116.5 49q47 0 78 -30.5t31 -77.5q0 -66 -52.5 -115t-115.5 -49q-49 0 -80 30.5t-31 77.5z" />
<glyph unicode="&#x10c;" horiz-adv-x="1441" d="M115 551q0 74 20 176q47 227 175 392t319.5 254t425.5 89q299 0 467 -141l-54 -248q-145 152 -440 152q-158 0 -290 -62.5t-222 -178.5t-123 -269q-16 -72 -16 -150q0 -172 108.5 -266t325.5 -94q152 0 277.5 38t244.5 122l-51 -248q-197 -147 -545 -148 q-180 0 -321.5 72t-221 204t-79.5 306zM670 1870h245l111 -205l201 205h270l-375 -350h-229z" />
<glyph unicode="&#x10d;" horiz-adv-x="1122" d="M70 375q0 53 12 114q53 250 235.5 387.5t456.5 137.5q229 0 346 -90l-43 -207q-57 47 -139 70.5t-180 23.5q-158 0 -268.5 -79t-145.5 -243q-10 -43 -10 -96q0 -115 71.5 -168t210.5 -53q207 0 379 98l-45 -204q-164 -96 -403 -97q-139 0 -246.5 49.5t-169 140.5 t-61.5 216zM358 1446h246l111 -205l200 205h271l-375 -350h-229z" />
<glyph unicode="&#x10e;" horiz-adv-x="1445" d="M20 0l304 1432h479q195 0 336 -69t216 -195t75 -291q0 -80 -15 -154q-70 -358 -308.5 -540.5t-608.5 -182.5h-478zM326 215h200q260 0 418 133t209 375q18 84 18 154q0 162 -98 251t-307 89h-227zM516 1870h246l110 -205l201 205h270l-374 -350h-230z" />
<glyph unicode="&#x10f;" horiz-adv-x="1710" d="M63 340q0 66 15 131q33 154 125 272.5t224 184t282 65.5q121 0 214 -47t130 -131l143 678h258l-321 -1513h-250l35 157q-82 -90 -195 -139t-238 -49q-194 0 -308 104.5t-114 286.5zM336 389q0 -111 69.5 -174t186.5 -63q113 0 211 55t153 153l48 220q-14 98 -88 154.5 t-187 56.5q-137 0 -245.5 -87.5t-139.5 -234.5q-8 -39 -8 -80zM1462 1194l242 381h217l-268 -381h-191z" />
<glyph unicode="&#x110;" horiz-adv-x="1484" d="M59 0l129 616h-120l43 197h120l131 619h480q195 0 336 -69t215.5 -195t74.5 -291q0 -80 -14 -154q-70 -358 -308.5 -540.5t-608.5 -182.5h-478zM365 215h200q260 0 418 133t209 375q18 84 18 154q0 162 -98 251t-307 89h-227l-86 -404h352l-43 -197h-352z" />
<glyph unicode="&#x111;" horiz-adv-x="1382" d="M70 369q0 57 12 120q33 156 122 275t220 184.5t289 65.5q119 0 205 -31t149 -96l55 260h-372l41 194h372l37 172h258l-37 -172h103l-41 -194h-103l-243 -1147h-250l22 115q-94 -78 -193.5 -112t-226.5 -34q-122 0 -217.5 49.5t-148.5 139.5t-53 211zM334 403 q0 -109 66.5 -170t195.5 -61q111 0 209 59.5t156 159.5l43 199q-10 100 -85 160.5t-186 60.5q-145 0 -251.5 -89t-137.5 -233q-10 -51 -10 -86z" />
<glyph unicode="&#x112;" horiz-adv-x="1173" d="M20 0l304 1432h968l-45 -215h-708l-84 -394h526l-45 -215h-526l-84 -393h708l-45 -215h-969zM475 1540l37 172h659l-36 -172h-660z" />
<glyph unicode="&#x113;" horiz-adv-x="1247" d="M68 369q0 45 14 120q53 244 220 384.5t437 140.5q211 0 327 -108.5t116 -282.5q0 -53 -13 -113l-24 -119h-838l-2 -29q0 -100 80 -145t256 -45q94 0 196.5 16.5t182.5 44.5l-43 -198q-76 -29 -189.5 -47.5t-222.5 -18.5q-227 0 -362 105.5t-135 294.5zM344 567h594 q6 35 6 64q0 90 -61.5 135t-190.5 45q-135 0 -227 -65.5t-121 -178.5zM403 1116l37 172h660l-37 -172h-660z" />
<glyph unicode="&#x114;" horiz-adv-x="1173" d="M20 0l304 1432h968l-45 -215h-708l-84 -394h526l-45 -215h-526l-84 -393h708l-45 -215h-969zM543 1751q0 43 8 78h182q-4 -29 -4 -41q0 -96 111 -96q66 0 107.5 34.5t56.5 102.5h204q-29 -139 -135 -224t-260 -85q-131 0 -200.5 61t-69.5 170z" />
<glyph unicode="&#x115;" horiz-adv-x="1247" d="M68 369q0 45 14 120q53 244 220 384.5t437 140.5q211 0 327 -108.5t116 -282.5q0 -53 -13 -113l-24 -119h-838l-2 -29q0 -100 80 -145t256 -45q94 0 196.5 16.5t182.5 44.5l-43 -198q-76 -29 -189.5 -47.5t-222.5 -18.5q-227 0 -362 105.5t-135 294.5zM344 567h594 q6 35 6 64q0 90 -61.5 135t-190.5 45q-135 0 -227 -65.5t-121 -178.5zM455 1327q0 43 8 78h182q-4 -29 -4 -41q0 -96 111 -96q66 0 107.5 34.5t55.5 102.5h205q-29 -139 -135 -224t-260 -85q-131 0 -200.5 61.5t-69.5 169.5z" />
<glyph unicode="&#x116;" horiz-adv-x="1173" d="M20 0l304 1432h968l-45 -215h-708l-84 -394h526l-45 -215h-526l-84 -393h708l-45 -215h-969zM700 1649q0 66 53.5 114.5t116.5 48.5q47 0 78 -30.5t31 -77.5q0 -66 -52.5 -115t-115.5 -49q-49 0 -80 31t-31 78z" />
<glyph unicode="&#x117;" horiz-adv-x="1247" d="M68 369q0 45 14 120q53 244 220 384.5t437 140.5q211 0 327 -108.5t116 -282.5q0 -53 -13 -113l-24 -119h-838l-2 -29q0 -100 80 -145t256 -45q94 0 196.5 16.5t182.5 44.5l-43 -198q-76 -29 -189.5 -47.5t-222.5 -18.5q-227 0 -362 105.5t-135 294.5zM344 567h594 q6 35 6 64q0 90 -61.5 135t-190.5 45q-135 0 -227 -65.5t-121 -178.5zM610 1225q0 66 53.5 115t116.5 49q47 0 78 -31t31 -78q0 -66 -52.5 -115t-115.5 -49q-49 0 -80 31t-31 78z" />
<glyph unicode="&#x118;" horiz-adv-x="1173" d="M20 0l304 1432h968l-45 -215h-708l-84 -394h526l-45 -215h-526l-84 -393h708l-45 -215q-92 -49 -142 -97t-63 -106q-2 -8 -2 -20q0 -61 68 -62q53 0 102 23l-30 -148q-76 -27 -183 -26q-88 0 -141 35.5t-53 105.5q0 23 6 47q16 78 70.5 141.5t130.5 106.5h-732z" />
<glyph unicode="&#x119;" horiz-adv-x="1247" d="M68 367q0 47 14 122q53 244 220 384.5t437 140.5q211 0 327 -108.5t116 -282.5q0 -53 -13 -113l-24 -119h-838l-2 -29q0 -100 80 -145t256 -45q94 0 196.5 16.5t182.5 44.5l-43 -198q-53 -20 -133 -37q-90 -47 -139.5 -95t-61.5 -106q-2 -8 -2 -20q0 -61 68 -62 q53 0 102 23l-31 -148q-76 -27 -182 -26q-88 0 -141.5 35.5t-53.5 105.5q0 23 7 47q27 127 151 217q-227 2 -360 105.5t-133 292.5zM344 567h594q6 35 6 64q0 90 -61.5 135t-190.5 45q-135 0 -227 -65.5t-121 -178.5z" />
<glyph unicode="&#x11a;" horiz-adv-x="1173" d="M20 0l304 1432h968l-45 -215h-708l-84 -394h526l-45 -215h-526l-84 -393h708l-45 -215h-969zM483 1870h246l111 -205l200 205h271l-375 -350h-229z" />
<glyph unicode="&#x11b;" horiz-adv-x="1247" d="M68 369q0 45 14 120q53 244 220 384.5t437 140.5q211 0 327 -108.5t116 -282.5q0 -53 -13 -113l-24 -119h-838l-2 -29q0 -100 80 -145t256 -45q94 0 196.5 16.5t182.5 44.5l-43 -198q-76 -29 -189.5 -47.5t-222.5 -18.5q-227 0 -362 105.5t-135 294.5zM344 567h594 q6 35 6 64q0 90 -61.5 135t-190.5 45q-135 0 -227 -65.5t-121 -178.5zM385 1446h246l110 -205l201 205h270l-374 -350h-230z" />
<glyph unicode="&#x11c;" horiz-adv-x="1460" d="M111 537q0 88 20 178q49 229 182 398t325.5 259t416.5 90q293 0 465 -137l-54 -248q-78 76 -182 112t-256 36q-242 0 -414 -138.5t-221 -371.5q-18 -82 -18 -158q0 -170 104.5 -262t319.5 -92q154 0 270 53l68 322h-242l45 206h502l-142 -667q-123 -76 -261 -112 t-302 -36q-184 0 -326.5 68.5t-221 196.5t-78.5 303zM602 1520l375 350h229l224 -350h-248l-113 202l-199 -202h-268z" />
<glyph unicode="&#x11d;" horiz-adv-x="1361" d="M72 375q0 57 12 119q49 240 217 380t412 140q123 0 210 -36t148 -110l25 115h250l-197 -924q-55 -266 -221 -398t-479 -132q-101 0 -199 18.5t-156 49.5l43 204q145 -70 346 -69q182 0 276.5 73.5t125.5 227.5l12 63q-82 -63 -184.5 -95t-214.5 -32q-123 0 -219.5 50.5 t-151.5 142.5t-55 213zM336 397q0 -109 65.5 -167t194.5 -58q111 0 211 60.5t154 160.5l43 199q-14 102 -84 160.5t-187 58.5q-150 0 -253 -86t-134 -231q-10 -43 -10 -97zM379 1096l375 350h229l223 -350h-248l-112 202l-199 -202h-268z" />
<glyph unicode="&#x11e;" horiz-adv-x="1460" d="M111 537q0 88 20 178q49 229 182 398t325.5 259t416.5 90q293 0 465 -137l-54 -248q-78 76 -182 112t-256 36q-242 0 -414 -138.5t-221 -371.5q-18 -82 -18 -158q0 -170 104.5 -262t319.5 -92q154 0 270 53l68 322h-242l45 206h502l-142 -667q-123 -76 -261 -112 t-302 -36q-184 0 -326.5 68.5t-221 196.5t-78.5 303zM764 1751q0 43 8 78h182q-4 -29 -4 -41q0 -96 111 -96q66 0 107.5 34.5t56.5 102.5h205q-29 -139 -135.5 -224t-260.5 -85q-131 0 -200.5 61t-69.5 170z" />
<glyph unicode="&#x11f;" horiz-adv-x="1361" d="M72 375q0 57 12 119q49 240 217 380t412 140q123 0 210 -36t148 -110l25 115h250l-197 -924q-55 -266 -221 -398t-479 -132q-101 0 -199 18.5t-156 49.5l43 204q145 -70 346 -69q182 0 276.5 73.5t125.5 227.5l12 63q-82 -63 -184.5 -95t-214.5 -32q-123 0 -219.5 50.5 t-151.5 142.5t-55 213zM336 397q0 -109 65.5 -167t194.5 -58q111 0 211 60.5t154 160.5l43 199q-14 102 -84 160.5t-187 58.5q-150 0 -253 -86t-134 -231q-10 -43 -10 -97zM516 1327q0 43 8 78h183q-4 -29 -5 -41q0 -96 111 -96q66 0 108 34.5t56 102.5h205 q-29 -139 -135.5 -224t-260.5 -85q-131 0 -200.5 61.5t-69.5 169.5z" />
<glyph unicode="&#x120;" horiz-adv-x="1460" d="M111 537q0 88 20 178q49 229 182 398t325.5 259t416.5 90q293 0 465 -137l-54 -248q-78 76 -182 112t-256 36q-242 0 -414 -138.5t-221 -371.5q-18 -82 -18 -158q0 -170 104.5 -262t319.5 -92q154 0 270 53l68 322h-242l45 206h502l-142 -667q-123 -76 -261 -112 t-302 -36q-184 0 -326.5 68.5t-221 196.5t-78.5 303zM920 1649q0 66 53 114.5t117 48.5q47 0 77.5 -30.5t30.5 -77.5q0 -66 -52 -115t-116 -49q-49 0 -79.5 31t-30.5 78z" />
<glyph unicode="&#x121;" horiz-adv-x="1361" d="M72 375q0 57 12 119q49 240 217 380t412 140q123 0 210 -36t148 -110l25 115h250l-197 -924q-55 -266 -221 -398t-479 -132q-101 0 -199 18.5t-156 49.5l43 204q145 -70 346 -69q182 0 276.5 73.5t125.5 227.5l12 63q-82 -63 -184.5 -95t-214.5 -32q-123 0 -219.5 50.5 t-151.5 142.5t-55 213zM336 397q0 -109 65.5 -167t194.5 -58q111 0 211 60.5t154 160.5l43 199q-14 102 -84 160.5t-187 58.5q-150 0 -253 -86t-134 -231q-10 -43 -10 -97zM686 1225q0 66 53.5 115t116.5 49q47 0 78 -31t31 -78q0 -66 -52.5 -115t-115.5 -49q-49 0 -80 31 t-31 78z" />
<glyph unicode="&#x122;" horiz-adv-x="1460" d="M111 537q0 88 20 178q49 229 182 398t325.5 259t416.5 90q293 0 465 -137l-54 -248q-78 76 -182 112t-256 36q-242 0 -414 -138.5t-221 -371.5q-18 -82 -18 -158q0 -170 104.5 -262t319.5 -92q154 0 270 53l68 322h-242l45 206h502l-142 -667q-123 -76 -261 -112 t-302 -36q-184 0 -326.5 68.5t-221 196.5t-78.5 303zM373 -530l256 415h268l-291 -415h-233z" />
<glyph unicode="&#x123;" horiz-adv-x="1361" d="M72 375q0 57 12 119q49 240 217 380t412 140q123 0 210 -36t148 -110l25 115h250l-197 -924q-55 -266 -221 -398t-479 -132q-101 0 -199 18.5t-156 49.5l43 204q145 -70 346 -69q182 0 276.5 73.5t125.5 227.5l12 63q-82 -63 -184.5 -95t-214.5 -32q-123 0 -219.5 50.5 t-151.5 142.5t-55 213zM336 397q0 -109 65.5 -167t194.5 -58q111 0 211 60.5t154 160.5l43 199q-14 102 -84 160.5t-187 58.5q-150 0 -253 -86t-134 -231q-10 -43 -10 -97zM719 1096l291 415h233l-256 -415h-268z" />
<glyph unicode="&#x124;" horiz-adv-x="1452" d="M20 0l304 1432h260l-127 -594h688l127 594h258l-303 -1432h-258l131 623h-688l-131 -623h-261zM489 1520l375 350h230l223 -350h-248l-113 202l-198 -202h-269z" />
<glyph unicode="&#x125;" horiz-adv-x="1249" d="M20 0l322 1513h258l-139 -655q170 156 393 156q158 0 240 -85t82 -216q0 -41 -11 -92l-131 -621h-258l129 618q8 39 8 74q0 61 -35.5 90t-115.5 29q-90 0 -184.5 -42t-163.5 -126l-135 -643h-259zM322 1571l374 350h230l223 -350h-248l-113 203l-198 -203h-268z" />
<glyph unicode="&#x126;" horiz-adv-x="1486" d="M31 0l215 1022h-101l45 215h103l41 195h260l-43 -195h688l43 195h258l-41 -195h96l-45 -215h-98l-215 -1022h-258l131 623h-688l-131 -623h-260zM467 838h688l39 184h-688z" />
<glyph unicode="&#x127;" horiz-adv-x="1259" d="M31 0l237 1120h-92l39 187h92l45 206h258l-45 -206h312l-39 -187h-312l-55 -262q170 156 393 156q158 0 240 -85t82 -216q0 -41 -10 -92l-132 -621h-258l129 618q8 39 9 74q0 61 -36 90t-116 29q-90 0 -184 -42t-164 -126l-135 -643h-258z" />
<glyph unicode="&#x128;" horiz-adv-x="518" d="M27 0l303 1432h260l-303 -1432h-260zM39 1520l45 211q86 88 223 88q45 0 84 -12.5t105 -39.5q51 -25 92 -38t86 -13q127 0 225 105l-45 -211q-80 -86 -221 -86q-51 0 -94 13t-103 40q-53 25 -90 37t-80 12q-59 0 -114.5 -24.5t-112.5 -81.5z" />
<glyph unicode="&#x129;" horiz-adv-x="507" d="M-55 1092l45 211q86 88 223 88q45 0 84 -12.5t104 -39.5q51 -25 92.5 -38t86.5 -13q127 0 225 105l-45 -211q-80 -86 -221 -86q-51 0 -94.5 13t-102.5 40q-53 25 -90 37t-80 12q-59 0 -114.5 -24.5t-112.5 -81.5zM20 0l209 983h263l-209 -983h-263z" />
<glyph unicode="&#x12a;" horiz-adv-x="518" d="M27 0l303 1432h260l-303 -1432h-260zM143 1540l37 172h680l-37 -172h-680z" />
<glyph unicode="&#x12b;" horiz-adv-x="507" d="M20 0l209 983h263l-209 -983h-263zM49 1116l37 172h680l-37 -172h-680z" />
<glyph unicode="&#x12c;" horiz-adv-x="518" d="M27 0l303 1432h260l-303 -1432h-260zM166 1751q0 43 8 78h182q-4 -29 -4 -41q0 -96 111 -96q66 0 107.5 34.5t56.5 102.5h204q-29 -139 -135 -224t-260 -85q-131 0 -200.5 61t-69.5 170z" />
<glyph unicode="&#x12d;" horiz-adv-x="507" d="M20 0l209 983h263l-209 -983h-263zM72 1327q0 43 8 78h182q-4 -29 -4 -41q0 -96 111 -96q66 0 107.5 34.5t55.5 102.5h205q-29 -139 -135 -224t-260 -85q-131 0 -200.5 61.5t-69.5 169.5z" />
<glyph unicode="&#x12e;" horiz-adv-x="518" d="M-166 -295q0 23 6 47q16 76 67.5 139.5t119.5 108.5l303 1432h260l-303 -1432q-98 -49 -149.5 -97t-63.5 -106q-2 -8 -2 -20q0 -61 67 -62q53 0 103 23l-31 -148q-76 -27 -182 -26q-88 0 -141.5 35.5t-53.5 105.5z" />
<glyph unicode="&#x12f;" horiz-adv-x="538" d="M-158 -295q0 23 6 47q16 76 67.5 139.5t119.5 108.5l209 983h262l-209 -983q-98 -47 -150.5 -96t-64.5 -107q-2 -8 -2 -20q0 -61 67 -62q53 0 103 23l-31 -148q-76 -27 -182 -26q-88 0 -141.5 35.5t-53.5 105.5zM291 1268q0 72 55 124t125 52q53 0 87 -32t34 -81 q0 -72 -55.5 -124t-126.5 -52q-54 0 -86.5 32t-32.5 81z" />
<glyph unicode="&#x130;" horiz-adv-x="518" d="M27 0l303 1432h260l-303 -1432h-260zM330 1649q0 66 53 114.5t117 48.5q47 0 77.5 -30.5t30.5 -77.5q0 -66 -52 -115t-116 -49q-49 0 -79.5 31t-30.5 78z" />
<glyph unicode="&#x131;" horiz-adv-x="507" d="M20 0l209 983h263l-209 -983h-263z" />
<glyph unicode="&#x132;" horiz-adv-x="1296" d="M27 0l303 1432h260l-303 -1432h-260zM449 8l47 217q29 -14 71.5 -21t87.5 -7q106 0 162.5 43t79.5 147l221 1045h260l-225 -1059q-43 -201 -161 -302.5t-322 -101.5q-62 0 -125.5 11.5t-95.5 27.5z" />
<glyph unicode="&#x133;" horiz-adv-x="970" d="M35 0l209 983h262l-209 -983h-262zM84 -446l45 208q49 -25 121 -24q84 0 133 42t68 132l229 1071h258l-233 -1098q-39 -182 -156 -270t-299 -88q-98 0 -166 27zM291 1268q0 72 55 124t125 52q53 0 87 -32t34 -81q0 -72 -55.5 -124t-126.5 -52q-54 0 -86.5 32t-32.5 81z M725 1268q0 70 55.5 122t124.5 52q51 0 85 -32t34 -81q0 -70 -55.5 -122t-124.5 -52q-53 0 -86 32t-33 81z" />
<glyph unicode="&#x134;" horiz-adv-x="786" d="M-61 8l47 217q29 -14 71.5 -21t87.5 -7q106 0 163 43t79 147l221 1045h260l-225 -1059q-43 -201 -160.5 -302.5t-322.5 -101.5q-62 0 -125.5 11.5t-95.5 27.5zM303 1520l375 350h229l223 -350h-247l-113 202l-199 -202h-268z" />
<glyph unicode="&#x135;" horiz-adv-x="509" d="M-360 -446l45 208q49 -25 120 -24q84 0 133.5 42t67.5 132l230 1071h258l-234 -1098q-39 -178 -161 -268t-294 -90q-97 0 -165 27zM-70 1096l375 350h230l223 -350h-248l-113 202l-198 -202h-269z" />
<glyph unicode="&#x136;" horiz-adv-x="1404" d="M20 0l304 1432h260l-138 -648l725 648h312l-785 -711l516 -721h-305l-485 678l-143 -678h-261zM160 -530l256 415h268l-291 -415h-233z" />
<glyph unicode="&#x137;" horiz-adv-x="1206" d="M20 0l322 1513h258l-205 -962l484 432h303l-541 -489l381 -494h-303l-344 455l-96 -455h-259zM66 -530l256 415h268l-291 -415h-233z" />
<glyph unicode="&#x138;" horiz-adv-x="1206" d="M20 0l209 983h248l-100 -467l514 467h291l-543 -491l383 -492h-291l-364 469l-99 -469h-248z" />
<glyph unicode="&#x139;" horiz-adv-x="1112" d="M20 0l304 1432h260l-258 -1217h688l-45 -215h-949zM315 1520l217 356h273l-252 -356h-238z" />
<glyph unicode="&#x13a;" horiz-adv-x="503" d="M20 0l322 1513h258l-321 -1513h-259zM365 1567l217 356h272l-252 -356h-237z" />
<glyph unicode="&#x13b;" horiz-adv-x="1112" d="M20 0l304 1432h260l-258 -1217h688l-45 -215h-949zM98 -530l256 415h269l-291 -415h-234z" />
<glyph unicode="&#x13c;" horiz-adv-x="555" d="M-209 -530l256 415h268l-290 -415h-234zM76 0l321 1513h258l-321 -1513h-258z" />
<glyph unicode="&#x13d;" horiz-adv-x="1112" d="M20 0l304 1432h260l-258 -1217h688l-45 -215h-949zM700 1032l256 416h269l-291 -416h-234z" />
<glyph unicode="&#x13e;" horiz-adv-x="968" d="M20 0l322 1513h258l-321 -1513h-259zM606 1126l256 416h268l-290 -416h-234z" />
<glyph unicode="&#x13f;" horiz-adv-x="1112" d="M20 0l304 1432h260l-258 -1217h688l-45 -215h-949zM700 766q0 66 53.5 115t116.5 49q47 0 78 -31t31 -78q0 -66 -52.5 -115t-115.5 -49q-49 0 -80 31t-31 78z" />
<glyph unicode="&#x140;" horiz-adv-x="784" d="M20 0l322 1513h258l-321 -1513h-259zM551 758q0 66 53 115t117 49q47 0 77.5 -31t30.5 -78q0 -66 -52 -115t-115 -49q-50 0 -80.5 31t-30.5 78z" />
<glyph unicode="&#x141;" horiz-adv-x="1202" d="M23 494l51 247l211 86l129 605h260l-105 -488l349 141l-54 -247l-346 -142l-102 -481h688l-45 -215h-948l122 580z" />
<glyph unicode="&#x142;" horiz-adv-x="811" d="M16 463l52 248l258 104l149 698h258l-125 -581l303 123l-53 -248l-301 -123l-145 -684h-258l120 567z" />
<glyph unicode="&#x143;" horiz-adv-x="1421" d="M20 0l304 1432h245l459 -998l211 998h260l-303 -1432h-246l-458 999l-211 -999h-261zM750 1520l217 356h272l-252 -356h-237z" />
<glyph unicode="&#x144;" horiz-adv-x="1249" d="M20 0l209 983h250l-28 -133q86 78 193.5 121t209.5 43q158 0 240 -83t82 -214q0 -41 -11 -96l-131 -621h-258l125 596q10 51 10 82q0 68 -38.5 100.5t-124.5 32.5q-88 0 -175.5 -42t-158.5 -126l-135 -643h-259zM541 1096l217 356h272l-252 -356h-237z" />
<glyph unicode="&#x145;" horiz-adv-x="1421" d="M20 0l304 1432h245l459 -998l211 998h260l-303 -1432h-246l-458 999l-211 -999h-261zM209 -530l256 415h268l-291 -415h-233z" />
<glyph unicode="&#x146;" horiz-adv-x="1249" d="M20 0l209 983h250l-28 -133q86 78 193.5 121t209.5 43q158 0 240 -83t82 -214q0 -41 -11 -96l-131 -621h-258l125 596q10 51 10 82q0 68 -38.5 100.5t-124.5 32.5q-88 0 -175.5 -42t-158.5 -126l-135 -643h-259zM137 -530l256 415h269l-291 -415h-234z" />
<glyph unicode="&#x147;" horiz-adv-x="1421" d="M20 0l304 1432h245l459 -998l211 998h260l-303 -1432h-246l-458 999l-211 -999h-261zM547 1870h246l110 -205l201 205h270l-375 -350h-229z" />
<glyph unicode="&#x148;" horiz-adv-x="1249" d="M20 0l209 983h250l-28 -133q86 78 193.5 121t209.5 43q158 0 240 -83t82 -214q0 -41 -11 -96l-131 -621h-258l125 596q10 51 10 82q0 68 -38.5 100.5t-124.5 32.5q-88 0 -175.5 -42t-158.5 -126l-135 -643h-259zM395 1446h246l111 -205l200 205h271l-375 -350h-230z" />
<glyph unicode="&#x149;" horiz-adv-x="1499" d="M158 1032l256 416h268l-291 -416h-233zM270 0l209 983h250l-29 -133q86 78 193.5 121t210.5 43q158 0 239.5 -83t81.5 -214q0 -41 -10 -96l-131 -621h-258l125 596q10 51 10 82q0 68 -39 100.5t-125 32.5q-88 0 -175 -42t-158 -126l-136 -643h-258z" />
<glyph unicode="&#x14a;" horiz-adv-x="1421" d="M20 0l304 1432h245l459 -998l211 998h260l-328 -1545q-39 -178 -159.5 -268t-294.5 -90q-98 0 -168 27l45 208q49 -25 123 -24q84 0 133 42t70 132l22 104l-450 981l-211 -999h-261z" />
<glyph unicode="&#x14b;" horiz-adv-x="1249" d="M20 0l209 983h250l-28 -133q86 78 193.5 121t209.5 43q158 0 240 -83t82 -214q0 -41 -11 -96l-155 -734q-39 -180 -157 -269t-298 -89q-98 0 -168 27l45 208q49 -25 123 -24q86 0 135 42t68 132l143 682q10 51 10 82q0 68 -38.5 100.5t-124.5 32.5q-88 0 -175.5 -42 t-158.5 -126l-135 -643h-259z" />
<glyph unicode="&#x14c;" horiz-adv-x="1681" d="M111 539q0 74 20 176q47 221 178 391t323.5 263t416.5 93q180 0 320 -70.5t219 -201.5t79 -305q0 -80 -18 -170q-47 -221 -177.5 -390t-320.5 -262.5t-420 -93.5q-184 0 -324.5 70t-218 199t-77.5 301zM375 551q0 -346 407 -346q138 0 263.5 62.5t217 178t123.5 269.5 q18 86 19 157q0 170 -100.5 261.5t-305.5 91.5q-139 0 -266 -63.5t-217 -179.5t-123 -267q-18 -88 -18 -164zM694 1540l37 172h660l-37 -172h-660z" />
<glyph unicode="&#x14d;" horiz-adv-x="1314" d="M70 371q0 45 14 121q49 242 230.5 382t455.5 140q217 0 347 -109.5t130 -298.5q0 -53 -12 -114q-53 -246 -233.5 -384.5t-454.5 -138.5q-215 0 -346 107.5t-131 294.5zM338 391q0 -104 61.5 -161.5t190.5 -57.5q141 0 244.5 89t134.5 231q12 55 12 104q0 215 -254 215 q-143 0 -244.5 -85t-132.5 -234q-12 -55 -12 -101zM422 1116l37 172h659l-37 -172h-659z" />
<glyph unicode="&#x14e;" horiz-adv-x="1681" d="M111 539q0 74 20 176q47 221 178 391t323.5 263t416.5 93q180 0 320 -70.5t219 -201.5t79 -305q0 -80 -18 -170q-47 -221 -177.5 -390t-320.5 -262.5t-420 -93.5q-184 0 -324.5 70t-218 199t-77.5 301zM375 551q0 -346 407 -346q138 0 263.5 62.5t217 178t123.5 269.5 q18 86 19 157q0 170 -100.5 261.5t-305.5 91.5q-139 0 -266 -63.5t-217 -179.5t-123 -267q-18 -88 -18 -164zM748 1751q0 43 8 78h182q-4 -29 -4 -41q0 -96 110 -96q66 0 108 34.5t56 102.5h205q-29 -139 -135.5 -224t-259.5 -85q-131 0 -200.5 61t-69.5 170z" />
<glyph unicode="&#x14f;" horiz-adv-x="1314" d="M70 371q0 45 14 121q49 242 230.5 382t455.5 140q217 0 347 -109.5t130 -298.5q0 -53 -12 -114q-53 -246 -233.5 -384.5t-454.5 -138.5q-215 0 -346 107.5t-131 294.5zM338 391q0 -104 61.5 -161.5t190.5 -57.5q141 0 244.5 89t134.5 231q12 55 12 104q0 215 -254 215 q-143 0 -244.5 -85t-132.5 -234q-12 -55 -12 -101zM475 1327q0 43 8 78h183q-4 -29 -4 -41q0 -96 110 -96q66 0 108 34.5t56 102.5h205q-29 -139 -135.5 -224t-260.5 -85q-131 0 -200.5 61.5t-69.5 169.5z" />
<glyph unicode="&#x150;" horiz-adv-x="1681" d="M111 539q0 74 20 176q47 221 178 391t323.5 263t416.5 93q180 0 320 -70.5t219 -201.5t79 -305q0 -80 -18 -170q-47 -221 -177.5 -390t-320.5 -262.5t-420 -93.5q-184 0 -324.5 70t-218 199t-77.5 301zM375 551q0 -346 407 -346q138 0 263.5 62.5t217 178t123.5 269.5 q18 86 19 157q0 170 -100.5 261.5t-305.5 91.5q-139 0 -266 -63.5t-217 -179.5t-123 -267q-18 -88 -18 -164zM662 1520l215 356h251l-251 -356h-215zM1116 1520l219 356h250l-252 -356h-217z" />
<glyph unicode="&#x151;" horiz-adv-x="1353" d="M109 371q0 45 14 121q49 242 230.5 382t455.5 140q217 0 347 -109.5t130 -298.5q0 -53 -12 -114q-53 -246 -233.5 -384.5t-454.5 -138.5q-215 0 -346 107.5t-131 294.5zM377 391q0 -104 61.5 -161.5t190.5 -57.5q141 0 244.5 89t134.5 231q12 55 12 104q0 215 -254 215 q-143 0 -244.5 -85t-132.5 -234q-12 -55 -12 -101zM428 1096l215 356h252l-252 -356h-215zM883 1096l219 356h250l-252 -356h-217z" />
<glyph unicode="&#x152;" horiz-adv-x="1830" d="M113 557q0 76 18 158q47 223 175 384t322.5 247t438.5 86h883l-45 -215h-615l-84 -394h432l-45 -215h-432l-84 -393h615l-45 -215h-883q-186 0 -333.5 66.5t-232.5 192.5t-85 298zM377 569q0 -170 105.5 -262t308.5 -92h26l213 1002h-26q-145 0 -273.5 -61.5 t-216.5 -175.5t-121 -265q-16 -82 -16 -146z" />
<glyph unicode="&#x153;" horiz-adv-x="2107" d="M70 371q0 45 14 121q49 242 230.5 382t455.5 140q262 0 389 -168q86 80 210 124t273 44q211 0 327 -108.5t116 -282.5q0 -53 -12 -113l-25 -119h-838l-2 -29q0 -100 80 -145t256 -45q94 0 196.5 16.5t182.5 44.5l-43 -198q-76 -29 -189.5 -47.5t-222.5 -18.5 q-145 0 -254.5 43t-173.5 127q-186 -170 -493 -170q-215 0 -346 107.5t-131 294.5zM338 391q0 -104 61.5 -161.5t190.5 -57.5q141 0 245.5 89t133.5 231q12 59 12 106q0 213 -254 213q-143 0 -244.5 -85t-132.5 -234q-12 -55 -12 -101zM1247 567h594q6 35 6 64 q0 90 -61.5 135t-190.5 45q-135 0 -227 -65.5t-121 -178.5z" />
<glyph unicode="&#x154;" horiz-adv-x="1298" d="M20 0l304 1432h598q201 0 307 -84t106 -246q0 -61 -14 -125q-35 -158 -136.5 -269.5t-254.5 -156.5l176 -551h-266l-166 524h-283l-110 -524h-261zM436 739h291q143 0 225 57.5t109 180.5q10 47 10 78q0 88 -57.5 125t-171.5 37h-303zM629 1520l217 356h272l-252 -356 h-237z" />
<glyph unicode="&#x155;" horiz-adv-x="833" d="M20 0l209 983h250l-35 -158q76 80 195 119t260 39l-43 -197q-150 0 -269.5 -46t-183.5 -144l-124 -596h-259zM225 1096l217 356h273l-252 -356h-238z" />
<glyph unicode="&#x156;" horiz-adv-x="1298" d="M20 0l304 1432h598q201 0 307 -84t106 -246q0 -61 -14 -125q-35 -158 -136.5 -269.5t-254.5 -156.5l176 -551h-266l-166 524h-283l-110 -524h-261zM121 -530l256 415h268l-291 -415h-233zM436 739h291q143 0 225 57.5t109 180.5q10 47 10 78q0 88 -57.5 125t-171.5 37 h-303z" />
<glyph unicode="&#x157;" horiz-adv-x="833" d="M-268 -530l256 415h268l-291 -415h-233zM20 0l209 983h250l-35 -158q76 80 195 119t260 39l-43 -197q-150 0 -269.5 -46t-183.5 -144l-124 -596h-259z" />
<glyph unicode="&#x158;" horiz-adv-x="1298" d="M20 0l304 1432h598q201 0 307 -84t106 -246q0 -61 -14 -125q-35 -158 -136.5 -269.5t-254.5 -156.5l176 -551h-266l-166 524h-283l-110 -524h-261zM393 1870h246l111 -205l200 205h271l-375 -350h-230zM436 739h291q143 0 225 57.5t109 180.5q10 47 10 78q0 88 -57.5 125 t-171.5 37h-303z" />
<glyph unicode="&#x159;" horiz-adv-x="1003" d="M190 0l209 983h250l-35 -158q76 80 195 119t260 39l-43 -197q-150 0 -269.5 -46t-183.5 -144l-124 -596h-259zM203 1446h246l110 -205l201 205h270l-375 -350h-229z" />
<glyph unicode="&#x15a;" horiz-adv-x="1161" d="M-10 55l47 224q184 -98 416 -99q141 0 222 51.5t99 141.5q6 25 6 47q0 68 -58 109.5t-216 111.5q-143 63 -220 148t-77 200q0 43 8 78q25 117 108 207t207.5 139t274.5 49q123 0 215 -19.5t174 -60.5l-47 -217q-160 86 -342 86q-131 0 -212 -48t-101 -136q-6 -25 -7 -47 q0 -47 28 -80t78 -60.5t161 -76.5q158 -72 234.5 -150t76.5 -194q0 -33 -10 -88q-41 -193 -197 -297.5t-432 -104.5q-127 0 -246 23.5t-190 62.5zM631 1520l217 356h272l-252 -356h-237z" />
<glyph unicode="&#x15b;" horiz-adv-x="1021" d="M0 61l47 220q70 -49 173.5 -79t201.5 -30t147 17.5t60 64.5q2 8 2 20q0 43 -48 68t-182 64q-141 41 -208.5 99t-67.5 150q0 29 6 62q31 147 164 222t332 75q98 0 195.5 -20.5t150.5 -53.5l-45 -211q-55 35 -139 58.5t-173 23.5q-100 0 -155 -19.5t-68 -74.5q-2 -6 -2 -19 q0 -29 25.5 -48t83 -37.5t127.5 -37.5q147 -41 208.5 -101t61.5 -148q0 -31 -6 -68q-27 -139 -141.5 -214t-354.5 -75q-106 0 -221 24.5t-174 67.5zM426 1096l217 356h272l-251 -356h-238z" />
<glyph unicode="&#x15c;" horiz-adv-x="1161" d="M-10 55l47 224q184 -98 416 -99q141 0 222 51.5t99 141.5q6 25 6 47q0 68 -58 109.5t-216 111.5q-143 63 -220 148t-77 200q0 43 8 78q25 117 108 207t207.5 139t274.5 49q123 0 215 -19.5t174 -60.5l-47 -217q-160 86 -342 86q-131 0 -212 -48t-101 -136q-6 -25 -7 -47 q0 -47 28 -80t78 -60.5t161 -76.5q158 -72 234.5 -150t76.5 -194q0 -33 -10 -88q-41 -193 -197 -297.5t-432 -104.5q-127 0 -246 23.5t-190 62.5zM330 1520l375 350h229l223 -350h-248l-112 202l-199 -202h-268z" />
<glyph unicode="&#x15d;" horiz-adv-x="1021" d="M0 61l47 220q70 -49 173.5 -79t201.5 -30t147 17.5t60 64.5q2 8 2 20q0 43 -48 68t-182 64q-141 41 -208.5 99t-67.5 150q0 29 6 62q31 147 164 222t332 75q98 0 195.5 -20.5t150.5 -53.5l-45 -211q-55 35 -139 58.5t-173 23.5q-100 0 -155 -19.5t-68 -74.5q-2 -6 -2 -19 q0 -29 25.5 -48t83 -37.5t127.5 -37.5q147 -41 208.5 -101t61.5 -148q0 -31 -6 -68q-27 -139 -141.5 -214t-354.5 -75q-106 0 -221 24.5t-174 67.5zM186 1096l375 350h230l223 -350h-248l-113 202l-198 -202h-269z" />
<glyph unicode="&#x15e;" horiz-adv-x="1161" d="M-10 55l47 224q184 -98 416 -99q141 0 222 51.5t99 141.5q6 25 6 47q0 68 -58 109.5t-216 111.5q-143 63 -220 148t-77 200q0 43 8 78q25 117 108 207t207.5 139t274.5 49q123 0 215 -19.5t174 -60.5l-47 -217q-160 86 -342 86q-131 0 -212 -48t-101 -136q-6 -25 -7 -47 q0 -47 28 -80t78 -60.5t161 -76.5q158 -72 234.5 -150t76.5 -194q0 -33 -10 -88q-78 -356 -516 -396l-50 -81q72 -8 111 -49.5t39 -102.5q0 -117 -94 -183.5t-248 -66.5q-55 0 -105.5 7t-76.5 18l32 141q20 -10 51 -17.5t62 -7.5q121 0 139 84q2 6 2 21q0 88 -182 88l88 149 q-96 8 -179 29t-138 51z" />
<glyph unicode="&#x15f;" horiz-adv-x="1021" d="M0 61l47 220q70 -49 173.5 -79t201.5 -30t147 17.5t60 64.5q2 8 2 20q0 43 -48 68t-182 64q-141 41 -208.5 99t-67.5 150q0 29 6 62q31 147 164 222t332 75q98 0 195.5 -20.5t150.5 -53.5l-45 -211q-55 35 -139 58.5t-173 23.5q-100 0 -155 -19.5t-68 -74.5q-2 -6 -2 -19 q0 -29 25.5 -48t83 -37.5t127.5 -37.5q147 -41 208.5 -101t61.5 -148q0 -31 -6 -68q-25 -127 -122 -200.5t-298 -86.5l-47 -77q72 -8 110.5 -49.5t38.5 -102.5q0 -117 -94 -183.5t-248 -66.5q-55 0 -105 7t-77 18l33 141q20 -10 51 -17.5t62 -7.5q121 0 139 84q2 6 2 21 q0 88 -182 88l92 156q-168 25 -246 79z" />
<glyph unicode="&#x160;" horiz-adv-x="1161" d="M-10 55l47 224q184 -98 416 -99q141 0 222 51.5t99 141.5q6 25 6 47q0 68 -58 109.5t-216 111.5q-143 63 -220 148t-77 200q0 43 8 78q25 117 108 207t207.5 139t274.5 49q123 0 215 -19.5t174 -60.5l-47 -217q-160 86 -342 86q-131 0 -212 -48t-101 -136q-6 -25 -7 -47 q0 -47 28 -80t78 -60.5t161 -76.5q158 -72 234.5 -150t76.5 -194q0 -33 -10 -88q-41 -193 -197 -297.5t-432 -104.5q-127 0 -246 23.5t-190 62.5zM434 1870h246l111 -205l200 205h271l-375 -350h-230z" />
<glyph unicode="&#x161;" horiz-adv-x="1021" d="M0 61l47 220q70 -49 173.5 -79t201.5 -30t147 17.5t60 64.5q2 8 2 20q0 43 -48 68t-182 64q-141 41 -208.5 99t-67.5 150q0 29 6 62q31 147 164 222t332 75q98 0 195.5 -20.5t150.5 -53.5l-45 -211q-55 35 -139 58.5t-173 23.5q-100 0 -155 -19.5t-68 -74.5q-2 -6 -2 -19 q0 -29 25.5 -48t83 -37.5t127.5 -37.5q147 -41 208.5 -101t61.5 -148q0 -31 -6 -68q-27 -139 -141.5 -214t-354.5 -75q-106 0 -221 24.5t-174 67.5zM254 1446h246l110 -205l201 205h270l-374 -350h-230z" />
<glyph unicode="&#x162;" horiz-adv-x="1206" d="M178 -483l33 141q20 -10 51 -17.5t62 -7.5q121 0 139 84q2 6 2 21q0 88 -182 88l104 174h-16l258 1217h-432l45 215h1124l-45 -215h-432l-258 -1217h-13l-65 -106q72 -8 110.5 -49.5t38.5 -102.5q0 -117 -94 -183.5t-248 -66.5q-55 0 -105 7t-77 18z" />
<glyph unicode="&#x163;" horiz-adv-x="808" d="M61 -483l33 141q20 -10 51 -17.5t62 -7.5q121 0 139 84q2 6 2 21q0 88 -182 88l100 170q-61 27 -94 82t-33 133q0 47 13 102l100 473h-148l43 197h148l61 295h258l-61 -295h235l-43 -197h-235l-94 -440q-10 -55 -10 -80q0 -51 28.5 -72.5t97.5 -21.5q72 0 140 29 l-41 -197q-66 -25 -148 -31l-47 -79q72 -8 111 -49.5t39 -102.5q0 -117 -94.5 -183.5t-247.5 -66.5q-56 0 -106 7t-77 18z" />
<glyph unicode="&#x164;" horiz-adv-x="1206" d="M197 1217l45 215h1124l-45 -215h-432l-258 -1217h-260l258 1217h-432zM442 1870h246l111 -205l200 205h271l-375 -350h-229z" />
<glyph unicode="&#x165;" horiz-adv-x="1005" d="M104 786l43 197h148l61 295h258l-61 -295h235l-43 -197h-235l-94 -440q-10 -55 -10 -80q0 -51 28.5 -72.5t97.5 -21.5q72 0 140 29l-41 -197q-94 -35 -223 -35t-199 63.5t-70 180.5q0 45 13 100l100 473h-148zM700 1198l256 416h269l-291 -416h-234z" />
<glyph unicode="&#x166;" horiz-adv-x="1206" d="M193 1202l49 230h1124l-49 -230h-426l-88 -411h246l-48 -220h-243l-121 -571h-272l120 571h-241l47 220h239l88 411h-425z" />
<glyph unicode="&#x167;" horiz-adv-x="796" d="M35 457l31 145h149l43 205h-147l39 176h147l61 295h258l-61 -295h238l-39 -176h-238l-45 -205h238l-31 -145h-238l-22 -111q-8 -49 -8 -63q0 -57 32.5 -84t102.5 -27q66 0 129 29l-41 -197q-94 -35 -223 -35q-134 0 -201.5 61.5t-67.5 176.5q0 49 13 106l30 144h-149z " />
<glyph unicode="&#x168;" horiz-adv-x="1447" d="M113 420q0 72 14 137l186 875h260l-186 -879q-14 -63 -14 -119q0 -119 71.5 -174t221.5 -55q160 0 273.5 89t150.5 259l186 879h260l-186 -875q-125 -588 -736 -588q-157 0 -270 57.5t-172 160t-59 233.5zM514 1520l45 211q86 88 223 88q45 0 84 -12.5t105 -39.5 q51 -25 92 -38t86 -13q127 0 225 105l-45 -211q-80 -86 -221 -86q-51 0 -94 13t-103 40q-53 25 -90 37t-80 12q-59 0 -114.5 -24.5t-112.5 -81.5z" />
<glyph unicode="&#x169;" horiz-adv-x="1249" d="M76 262q0 57 10 100l133 621h258l-127 -596q-10 -55 -10 -86q0 -68 39 -98.5t125 -30.5q88 0 175 42t159 126l137 643h258l-209 -983h-250l27 133q-86 -84 -191.5 -124t-212.5 -40q-157 0 -239 79t-82 214zM319 1096l46 211q86 88 223 88q45 0 84 -12.5t104 -39.5 q51 -25 92 -38t86 -13q127 0 226 105l-45 -211q-80 -86 -222 -86q-51 0 -94 13t-102 40q-53 25 -90 37t-80 12q-59 0 -114.5 -24.5t-113.5 -81.5z" />
<glyph unicode="&#x16a;" horiz-adv-x="1447" d="M113 420q0 72 14 137l186 875h260l-186 -879q-14 -63 -14 -119q0 -119 71.5 -174t221.5 -55q160 0 273.5 89t150.5 259l186 879h260l-186 -875q-125 -588 -736 -588q-157 0 -270 57.5t-172 160t-59 233.5zM578 1540l36 172h660l-37 -172h-659z" />
<glyph unicode="&#x16b;" horiz-adv-x="1249" d="M76 262q0 57 10 100l133 621h258l-127 -596q-10 -55 -10 -86q0 -68 39 -98.5t125 -30.5q88 0 175 42t159 126l137 643h258l-209 -983h-250l27 133q-86 -84 -191.5 -124t-212.5 -40q-157 0 -239 79t-82 214zM381 1116l37 172h659l-37 -172h-659z" />
<glyph unicode="&#x16c;" horiz-adv-x="1447" d="M113 420q0 72 14 137l186 875h260l-186 -879q-14 -63 -14 -119q0 -119 71.5 -174t221.5 -55q160 0 273.5 89t150.5 259l186 879h260l-186 -875q-125 -588 -736 -588q-157 0 -270 57.5t-172 160t-59 233.5zM631 1751q0 43 8 78h182q-4 -29 -4 -41q0 -96 111 -96 q66 0 107.5 34.5t56.5 102.5h204q-29 -139 -135 -224t-260 -85q-131 0 -200.5 61t-69.5 170z" />
<glyph unicode="&#x16d;" horiz-adv-x="1249" d="M76 262q0 57 10 100l133 621h258l-127 -596q-10 -55 -10 -86q0 -68 39 -98.5t125 -30.5q88 0 175 42t159 126l137 643h258l-209 -983h-250l27 133q-86 -84 -191.5 -124t-212.5 -40q-157 0 -239 79t-82 214zM434 1327q0 43 8 78h183q-4 -29 -4 -41q0 -96 110 -96 q66 0 108 34.5t56 102.5h205q-29 -139 -135.5 -224t-259.5 -85q-132 0 -201.5 61.5t-69.5 169.5z" />
<glyph unicode="&#x16e;" horiz-adv-x="1447" d="M113 420q0 72 14 137l186 875h260l-186 -879q-14 -63 -14 -119q0 -119 71.5 -174t221.5 -55q160 0 273.5 89t150.5 259l186 879h260l-186 -875q-125 -588 -736 -588q-157 0 -270 57.5t-172 160t-59 233.5zM694 1718q0 29 6 56q23 109 111 182.5t199 73.5 q92 0 149.5 -57.5t57.5 -143.5q0 -27 -7 -55q-23 -109 -109.5 -181.5t-199.5 -72.5q-92 0 -149.5 56t-57.5 142zM848 1747q0 -35 21.5 -56.5t62.5 -21.5q51 0 91 41t40 92q0 35 -21.5 55.5t-64.5 20.5q-49 0 -89 -40t-40 -91z" />
<glyph unicode="&#x16f;" horiz-adv-x="1249" d="M76 262q0 57 10 100l133 621h258l-127 -596q-10 -55 -10 -86q0 -68 39 -98.5t125 -30.5q88 0 175 42t159 126l137 643h258l-209 -983h-250l27 133q-86 -84 -191.5 -124t-212.5 -40q-157 0 -239 79t-82 214zM498 1294q0 29 6 56q23 109 110.5 182.5t198.5 73.5 q92 0 149.5 -57.5t57.5 -143.5q0 -27 -6 -55q-23 -109 -110 -181.5t-199 -72.5q-93 0 -150 56t-57 142zM651 1323q0 -35 21.5 -56.5t62.5 -21.5q51 0 91 41t40 92q0 35 -21.5 55.5t-64.5 20.5q-49 0 -89 -40t-40 -91z" />
<glyph unicode="&#x170;" horiz-adv-x="1447" d="M113 420q0 72 14 137l186 875h260l-186 -879q-14 -63 -14 -119q0 -119 71.5 -174t221.5 -55q160 0 273.5 89t150.5 259l186 879h260l-186 -875q-125 -588 -736 -588q-157 0 -270 57.5t-172 160t-59 233.5zM559 1520l215 356h252l-252 -356h-215zM1014 1520l219 356h250 l-252 -356h-217z" />
<glyph unicode="&#x171;" horiz-adv-x="1249" d="M76 262q0 57 10 100l133 621h258l-127 -596q-10 -55 -10 -86q0 -68 39 -98.5t125 -30.5q88 0 175 42t159 126l137 643h258l-209 -983h-250l27 133q-86 -84 -191.5 -124t-212.5 -40q-157 0 -239 79t-82 214zM350 1096l215 356h252l-252 -356h-215zM805 1096l219 356h250 l-252 -356h-217z" />
<glyph unicode="&#x172;" horiz-adv-x="1447" d="M113 422q0 70 14 135l186 875h260l-186 -879q-14 -63 -14 -119q0 -119 71.5 -174t221.5 -55q160 0 273.5 89t150.5 259l186 879h260l-186 -875q-113 -535 -625 -582q-70 -43 -108.5 -86t-49.5 -92q-2 -8 -2 -20q0 -61 68 -62q53 0 102 23l-30 -148q-76 -27 -183 -26 q-88 0 -141 35.5t-53 105.5q0 82 48 153.5t122 121.5q-182 29 -283.5 148.5t-101.5 293.5z" />
<glyph unicode="&#x173;" horiz-adv-x="1259" d="M76 262q0 57 10 100l133 621h258l-127 -596q-10 -55 -10 -86q0 -68 39 -98.5t125 -30.5q88 0 175 42t159 126l137 643h258l-209 -983q-92 -49 -142.5 -97t-62.5 -106q-2 -8 -2 -20q0 -61 68 -62q53 0 102 23l-31 -148q-76 -27 -182 -26q-88 0 -141 35.5t-53 105.5 q0 23 6 47q16 76 67.5 140.5t120.5 107.5l27 133q-86 -84 -191.5 -124t-212.5 -40q-158 0 -239.5 79t-81.5 214z" />
<glyph unicode="&#x174;" horiz-adv-x="2060" d="M295 1432h270l70 -1012l495 1012h201l66 -1012l499 1012h271l-711 -1432h-235l-76 995l-498 -995h-248zM795 1520l374 350h230l223 -350h-248l-112 202l-199 -202h-268z" />
<glyph unicode="&#x175;" horiz-adv-x="1699" d="M188 983h258l58 -666l340 666h225l53 -666l344 666h258l-530 -983h-231l-68 668l-350 -668h-244zM524 1096l375 350h229l224 -350h-248l-113 202l-198 -202h-269z" />
<glyph unicode="&#x176;" horiz-adv-x="1486" d="M295 1432h266l234 -637l514 637h284l-719 -887l-114 -545h-248l115 545zM504 1520l375 350h229l223 -350h-248l-112 202l-199 -202h-268z" />
<glyph unicode="&#x177;" horiz-adv-x="1228" d="M-18 -403l43 204q145 -70 346 -69q178 0 267 72.5t134 228.5l35 127q-170 -164 -404 -164q-158 0 -239.5 79t-81.5 214q0 57 10 100l127 594h258l-121 -569q-10 -55 -10 -86q0 -68 39 -98.5t125 -30.5q88 0 175 42t159 126l131 616h258l-197 -924q-57 -266 -222 -398 t-478 -132q-100 0 -198.5 18.5t-155.5 49.5zM322 1096l374 350h230l223 -350h-248l-113 202l-198 -202h-268z" />
<glyph unicode="&#x178;" horiz-adv-x="1486" d="M295 1432h266l234 -637l514 637h284l-719 -887l-114 -545h-248l115 545zM569 1649q0 63 53.5 113t114.5 50q47 0 78 -30.5t31 -77.5q0 -66 -52.5 -115t-115.5 -49q-47 0 -78 31t-31 78zM1053 1649q0 66 53 114.5t117 48.5q47 0 77.5 -30.5t30.5 -77.5q0 -66 -52 -115 t-116 -49q-49 0 -79.5 31t-30.5 78z" />
<glyph unicode="&#x179;" horiz-adv-x="1267" d="M-20 0l34 170l973 1047h-731l45 215h1049l-37 -170l-969 -1047h784l-45 -215h-1103zM653 1520l217 356h273l-252 -356h-238z" />
<glyph unicode="&#x17a;" horiz-adv-x="1026" d="M-20 0l32 162l656 624h-508l43 197h831l-35 -162l-653 -624h537l-41 -197h-862zM457 1096l217 356h272l-252 -356h-237z" />
<glyph unicode="&#x17b;" horiz-adv-x="1267" d="M-20 0l34 170l973 1047h-731l45 215h1049l-37 -170l-969 -1047h784l-45 -215h-1103zM682 1649q0 66 53 114.5t117 48.5q47 0 78 -30.5t31 -77.5q0 -66 -52.5 -115t-115.5 -49q-50 0 -80.5 31t-30.5 78z" />
<glyph unicode="&#x17c;" horiz-adv-x="1026" d="M-20 0l32 162l656 624h-508l43 197h831l-35 -162l-653 -624h537l-41 -197h-862zM494 1225q0 66 53 115t117 49q47 0 77.5 -31t30.5 -78q0 -66 -52 -115t-116 -49q-49 0 -79.5 31t-30.5 78z" />
<glyph unicode="&#x17d;" horiz-adv-x="1267" d="M-20 0l34 170l973 1047h-731l45 215h1049l-37 -170l-969 -1047h784l-45 -215h-1103zM465 1870h246l110 -205l201 205h270l-374 -350h-230z" />
<glyph unicode="&#x17e;" horiz-adv-x="1026" d="M-20 0l32 162l656 624h-508l43 197h831l-35 -162l-653 -624h537l-41 -197h-862zM272 1446h246l111 -205l200 205h271l-375 -350h-229z" />
<glyph unicode="&#x18f;" horiz-adv-x="1691" d="M104 504q0 92 21 182l25 123h1251q4 27 4 76q0 176 -122 269t-388 93q-133 0 -279.5 -24.5t-257.5 -65.5l43 211q111 41 267.5 67.5t308.5 26.5q336 0 518 -149.5t182 -415.5q0 -82 -18 -178q-74 -352 -306.5 -551t-621.5 -199q-309 0 -468 145.5t-159 389.5zM350 512 q0 -334 420 -334q240 0 389.5 119t202.5 317h-1004q-8 -47 -8 -102z" />
<glyph unicode="&#x192;" horiz-adv-x="1075" d="M-389 -442l82 209q49 -27 117 -27q94 0 152 43t99 135l375 889h-157l71 176h164l70 170q82 201 208 286t330 85q111 0 168 -29l-84 -209q-43 25 -119 25q-88 0 -149 -40t-102 -136l-64 -152h262l-71 -176h-267l-385 -907q-59 -139 -129.5 -220t-167 -116t-237.5 -35 q-105 0 -166 29z" />
<glyph unicode="&#x1a0;" horiz-adv-x="1785" d="M111 539q0 74 20 176q47 221 178 391t323.5 263t416.5 93q145 0 265 -47t204 -133q104 0 148 37t67 139l14 72h240l-19 -86q-29 -129 -118 -225.5t-216 -128.5q33 -98 33 -205q0 -80 -18 -170q-47 -221 -177.5 -390t-320.5 -262.5t-420 -93.5q-184 0 -324.5 70t-218 199 t-77.5 301zM375 551q0 -346 407 -346q138 0 263.5 62.5t217 178t123.5 269.5q18 86 19 157q0 170 -100.5 261.5t-305.5 91.5q-139 0 -266 -63.5t-217 -179.5t-123 -267q-18 -88 -18 -164z" />
<glyph unicode="&#x1a1;" horiz-adv-x="1413" d="M70 371q0 45 14 121q49 242 230.5 382t455.5 140q111 0 202 -31t154 -88q150 25 183 176l14 72h209l-19 -86q-23 -111 -99.5 -195t-188.5 -119q23 -68 22 -139q0 -53 -12 -112q-53 -246 -233.5 -384.5t-454.5 -138.5q-215 0 -346 107.5t-131 294.5zM338 391 q0 -102 61.5 -160.5t190.5 -58.5q141 0 245.5 89t133.5 231q12 59 12 106q0 213 -254 213q-143 0 -243.5 -85t-133.5 -234q-12 -51 -12 -101z" />
<glyph unicode="&#x1af;" horiz-adv-x="1765" d="M113 420q0 72 14 137l186 875h260l-186 -879q-14 -63 -14 -119q0 -119 71.5 -174t221.5 -55q160 0 273.5 89t150.5 259l186 879h260l-33 -152q96 0 141.5 40t67.5 138l14 72h240l-18 -86q-35 -164 -157 -264.5t-331 -102.5l-110 -520q-125 -588 -736 -588 q-157 0 -270 57.5t-172 160t-59 233.5z" />
<glyph unicode="&#x1b0;" horiz-adv-x="1511" d="M76 262q0 57 10 100l133 621h258l-127 -596q-10 -55 -10 -86q0 -68 39 -98.5t125 -30.5q88 0 175 42t159 126l137 643h258l-21 -92q80 8 128.5 52t64.5 120l16 80h209l-18 -86q-31 -143 -139.5 -234.5t-294.5 -101.5l-154 -721h-250l27 133q-86 -84 -191.5 -124 t-212.5 -40q-157 0 -239 79t-82 214z" />
<glyph unicode="&#x1cd;" horiz-adv-x="1560" d="M-20 0l876 1432h252l268 -1432h-256l-61 330h-606l-199 -330h-274zM569 545h463l-102 608zM621 1870h245l111 -205l201 205h270l-375 -350h-229z" />
<glyph unicode="&#x1ce;" horiz-adv-x="1351" d="M68 367q0 63 14 122q33 154 123 274t221 185.5t287 65.5q240 0 354 -127l20 96h259l-209 -983h-250l22 115q-80 -76 -182 -111t-238 -35q-122 0 -217.5 48.5t-149.5 138.5t-54 211zM334 395q0 -223 262 -223q111 0 209 59.5t156 159.5l43 199q-10 102 -80 161.5 t-191 59.5q-145 0 -252.5 -89t-136.5 -233q-10 -57 -10 -94zM555 1446h246l110 -205l201 205h270l-374 -350h-230z" />
<glyph unicode="&#x1cf;" horiz-adv-x="505" d="M20 0l304 1432h260l-303 -1432h-261zM104 1915h246l111 -205l201 205h270l-375 -350h-229z" />
<glyph unicode="&#x1d0;" horiz-adv-x="507" d="M4 1446h246l110 -205l201 205h270l-374 -350h-230zM20 0l209 983h263l-209 -983h-263z" />
<glyph unicode="&#x1d1;" horiz-adv-x="1681" d="M111 539q0 74 20 176q47 221 178 391t323.5 263t416.5 93q180 0 320 -70.5t219 -201.5t79 -305q0 -80 -18 -170q-47 -221 -177.5 -390t-320.5 -262.5t-420 -93.5q-184 0 -324.5 70t-218 199t-77.5 301zM375 551q0 -346 407 -346q138 0 263.5 62.5t217 178t123.5 269.5 q18 86 19 157q0 170 -100.5 261.5t-305.5 91.5q-139 0 -266 -63.5t-217 -179.5t-123 -267q-18 -88 -18 -164zM678 1870h246l110 -205l201 205h270l-375 -350h-229z" />
<glyph unicode="&#x1d2;" horiz-adv-x="1388" d="M143 371q0 45 15 121q49 242 230 382t456 140q217 0 347 -109.5t130 -298.5q0 -53 -12 -114q-53 -246 -233.5 -384.5t-454.5 -138.5q-215 0 -346.5 107.5t-131.5 294.5zM412 391q0 -104 61.5 -161.5t190.5 -57.5q141 0 244.5 89t133.5 231q12 55 13 104q0 215 -254 215 q-143 0 -244.5 -85t-132.5 -234q-12 -55 -12 -101zM481 1446h246l111 -205l200 205h271l-375 -350h-229z" />
<glyph unicode="&#x1d3;" horiz-adv-x="1447" d="M113 420q0 72 14 137l186 875h260l-186 -879q-14 -63 -14 -119q0 -119 71.5 -174t221.5 -55q160 0 273.5 89t150.5 259l186 879h260l-186 -875q-125 -588 -736 -588q-157 0 -270 57.5t-172 160t-59 233.5zM563 1870h246l111 -205l200 205h271l-375 -350h-230z" />
<glyph unicode="&#x1d4;" horiz-adv-x="1249" d="M76 262q0 57 10 100l133 621h258l-127 -596q-10 -55 -10 -86q0 -68 39 -98.5t125 -30.5q88 0 175 42t159 126l137 643h258l-209 -983h-250l27 133q-86 -84 -191.5 -124t-212.5 -40q-157 0 -239 79t-82 214zM369 1446h245l111 -205l201 205h270l-375 -350h-229z" />
<glyph unicode="&#x1d5;" horiz-adv-x="1447" d="M113 420q0 72 14 137l186 875h260l-186 -879q-14 -63 -14 -119q0 -119 71.5 -174t221.5 -55q160 0 273.5 89t150.5 259l186 879h260l-186 -875q-125 -588 -736 -588q-157 0 -270 57.5t-172 160t-59 233.5zM553 1649q0 63 53 113t115 50q47 0 77.5 -30.5t30.5 -77.5 q0 -66 -52 -115t-115 -49q-48 0 -78.5 31t-30.5 78zM655 1903l37 172h660l-37 -172h-660zM1036 1649q0 66 53.5 114.5t116.5 48.5q47 0 78 -30.5t31 -77.5q0 -66 -52.5 -115t-115.5 -49q-49 0 -80 31t-31 78z" />
<glyph unicode="&#x1d6;" horiz-adv-x="1249" d="M76 262q0 57 10 100l133 621h258l-127 -596q-10 -55 -10 -86q0 -68 39 -98.5t125 -30.5q88 0 175 42t159 126l137 643h258l-209 -983h-250l27 133q-86 -84 -191.5 -124t-212.5 -40q-157 0 -239 79t-82 214zM360 1225q0 63 53.5 113.5t114.5 50.5q47 0 78 -31t31 -78 q0 -66 -52.5 -115t-115.5 -49q-47 0 -78 31t-31 78zM463 1483l37 172h659l-37 -172h-659zM844 1225q0 66 53 115t117 49q47 0 77.5 -31t30.5 -78q0 -66 -52 -115t-116 -49q-49 0 -79.5 31t-30.5 78z" />
<glyph unicode="&#x1d7;" horiz-adv-x="1447" d="M113 420q0 72 14 137l186 875h260l-186 -879q-14 -63 -14 -119q0 -119 71.5 -174t221.5 -55q160 0 273.5 89t150.5 259l186 879h260l-186 -875q-125 -588 -736 -588q-157 0 -270 57.5t-172 160t-59 233.5zM578 1649q0 66 53 114.5t117 48.5q47 0 77.5 -30.5t30.5 -77.5 q0 -66 -52 -115t-116 -49q-49 0 -79.5 31t-30.5 78zM893 1769l178 263h240l-213 -263h-205zM1102 1649q0 66 53 114.5t117 48.5q47 0 77.5 -30.5t30.5 -77.5q0 -66 -52 -115t-116 -49q-49 0 -79.5 31t-30.5 78z" />
<glyph unicode="&#x1d8;" horiz-adv-x="1249" d="M76 262q0 57 10 100l133 621h258l-127 -596q-10 -55 -10 -86q0 -68 39 -98.5t125 -30.5q88 0 175 42t159 126l137 643h258l-209 -983h-250l27 133q-86 -84 -191.5 -124t-212.5 -40q-157 0 -239 79t-82 214zM367 1225q0 66 53 115t117 49q47 0 77.5 -31t30.5 -78 q0 -66 -52 -115t-116 -49q-49 0 -79.5 31t-30.5 78zM682 1346l178 262h240l-213 -262h-205zM891 1225q0 66 53 115t117 49q47 0 77.5 -31t30.5 -78q0 -66 -52 -115t-116 -49q-49 0 -79.5 31t-30.5 78z" />
<glyph unicode="&#x1d9;" horiz-adv-x="1447" d="M113 420q0 72 14 137l186 875h260l-186 -879q-14 -63 -14 -119q0 -119 71.5 -174t221.5 -55q160 0 273.5 89t150.5 259l186 879h260l-186 -875q-125 -588 -736 -588q-157 0 -270 57.5t-172 160t-59 233.5zM573 1649q0 66 52.5 114.5t115.5 48.5q47 0 79 -30.5t32 -77.5 q0 -66 -53.5 -115t-116.5 -49q-49 0 -79 31t-30 78zM707 2048h217l98 -154l162 154h219l-313 -279h-191zM1098 1649q0 66 52 114.5t116 48.5q47 0 78.5 -30.5t31.5 -77.5q0 -66 -53 -115t-117 -49q-49 0 -78.5 31t-29.5 78z" />
<glyph unicode="&#x1da;" horiz-adv-x="1249" d="M76 262q0 57 10 100l133 621h258l-127 -596q-10 -55 -10 -86q0 -68 39 -98.5t125 -30.5q88 0 175 42t159 126l137 643h258l-209 -983h-250l27 133q-86 -84 -191.5 -124t-212.5 -40q-157 0 -239 79t-82 214zM356 1225q0 66 52.5 115t115.5 49q47 0 79 -31t32 -78 q0 -66 -53.5 -115t-116.5 -49q-49 0 -79 31t-30 78zM489 1624h218l98 -154l162 154h219l-314 -278h-190zM881 1225q0 66 52 115t116 49q47 0 78.5 -31t31.5 -78q0 -66 -53 -115t-117 -49q-49 0 -78.5 31t-29.5 78z" />
<glyph unicode="&#x1db;" horiz-adv-x="1447" d="M113 420q0 72 14 137l186 875h260l-186 -879q-14 -63 -14 -119q0 -119 71.5 -174t221.5 -55q160 0 273.5 89t150.5 259l186 879h260l-186 -875q-125 -588 -736 -588q-157 0 -270 57.5t-172 160t-59 233.5zM580 1649q0 66 52 114.5t116 48.5q47 0 78.5 -30.5t31.5 -77.5 q0 -66 -53 -115t-117 -49q-49 0 -78.5 31t-29.5 78zM799 2032h237l70 -263h-205zM1104 1649q0 66 52 114.5t116 48.5q47 0 78.5 -30.5t31.5 -77.5q0 -66 -53 -115t-117 -49q-49 0 -78.5 31t-29.5 78z" />
<glyph unicode="&#x1dc;" horiz-adv-x="1249" d="M76 262q0 57 10 100l133 621h258l-127 -596q-10 -55 -10 -86q0 -68 39 -98.5t125 -30.5q88 0 175 42t159 126l137 643h258l-209 -983h-250l27 133q-86 -84 -191.5 -124t-212.5 -40q-157 0 -239 79t-82 214zM377 1225q0 66 52 115t116 49q47 0 78.5 -31t31.5 -78 q0 -66 -53 -115t-117 -49q-49 0 -78.5 31t-29.5 78zM596 1608h238l69 -262h-205zM901 1225q0 66 52.5 115t115.5 49q47 0 79 -31t32 -78q0 -66 -53.5 -115t-116.5 -49q-49 0 -79 31t-30 78z" />
<glyph unicode="&#x1e6;" horiz-adv-x="1460" d="M111 537q0 88 20 178q49 229 182 398t325.5 259t416.5 90q293 0 465 -137l-54 -248q-78 76 -182 112t-256 36q-242 0 -414 -138.5t-221 -371.5q-18 -82 -18 -158q0 -170 104.5 -262t319.5 -92q154 0 270 53l68 322h-242l45 206h502l-142 -667q-123 -76 -261 -112 t-302 -36q-184 0 -326.5 68.5t-221 196.5t-78.5 303zM655 1870h246l111 -205l200 205h271l-375 -350h-229z" />
<glyph unicode="&#x1e7;" horiz-adv-x="1361" d="M72 375q0 57 12 119q49 240 217 380t412 140q123 0 210 -36t148 -110l25 115h250l-197 -924q-55 -266 -221 -398t-479 -132q-101 0 -199 18.5t-156 49.5l43 204q145 -70 346 -69q182 0 276.5 73.5t125.5 227.5l12 63q-82 -63 -184.5 -95t-214.5 -32q-123 0 -219.5 50.5 t-151.5 142.5t-55 213zM336 397q0 -109 65.5 -167t194.5 -58q111 0 211 60.5t154 160.5l43 199q-14 102 -84 160.5t-187 58.5q-150 0 -253 -86t-134 -231q-10 -43 -10 -97zM410 1446h245l111 -205l201 205h270l-375 -350h-229z" />
<glyph unicode="&#x1fa;" horiz-adv-x="1560" d="M-20 0l845 1382q-35 27 -53 67t-18 89q0 29 6 55q23 109 110.5 182.5t198.5 73.5q92 0 149.5 -57t57.5 -143q0 -27 -6 -56q-14 -68 -54 -122t-100 -89l260 -1382h-256l-61 330h-606l-199 -330h-274zM569 545h463l-102 608zM907 1567q0 -35 21.5 -56.5t62.5 -21.5 q51 0 91 41t40 92q0 35 -21.5 55.5t-64.5 20.5q-49 0 -89 -40t-40 -91zM971 1882l217 285h272l-252 -285h-237z" />
<glyph unicode="&#x1fb;" horiz-adv-x="1351" d="M68 367q0 63 14 122q33 154 123 274t221 185.5t287 65.5q240 0 354 -127l20 96h259l-209 -983h-250l22 115q-80 -76 -182 -111t-238 -35q-122 0 -217.5 48.5t-149.5 138.5t-54 211zM334 395q0 -223 262 -223q111 0 209 59.5t156 159.5l43 199q-10 102 -80 161.5 t-191 59.5q-145 0 -252.5 -89t-136.5 -233q-10 -57 -10 -94zM674 1294q0 29 6 56q23 109 111 182.5t198 73.5q92 0 149.5 -57.5t57.5 -143.5q0 -27 -6 -55q-23 -109 -110 -181.5t-199 -72.5q-93 0 -150 56t-57 142zM827 1323q0 -35 21.5 -56.5t62.5 -21.5q52 0 91.5 41 t39.5 92q0 35 -21.5 55.5t-64.5 20.5q-49 0 -89 -40t-40 -91zM940 1677l217 285h273l-252 -285h-238z" />
<glyph unicode="&#x1fc;" horiz-adv-x="1892" d="M-20 0l981 1432h1050l-45 -215h-637l-84 -394h455l-45 -215h-455l-84 -393h637l-45 -215h-897l74 350h-391l-236 -350h-278zM633 545h293l143 672h-6zM1188 1520l217 356h272l-252 -356h-237z" />
<glyph unicode="&#x1fd;" horiz-adv-x="1984" d="M37 240q0 41 8 73q35 164 161 256.5t318 92.5q186 0 305 -76l7 26q8 45 8 62q0 72 -56.5 104.5t-181.5 32.5q-90 0 -182 -17.5t-166 -48.5l43 203q68 29 175.5 47.5t203.5 18.5q133 0 219 -37t133 -107q84 68 200 106t245 38q217 0 330.5 -103.5t113.5 -275.5 q0 -66 -14 -125l-25 -119h-833q-10 -115 68.5 -167t260.5 -52q94 0 196.5 16.5t182.5 44.5l-43 -198q-76 -29 -189.5 -47.5t-221.5 -18.5q-274 0 -414 158q-100 -76 -218 -117t-282 -41q-160 0 -256 73t-96 198zM301 266q0 -55 41 -81.5t135 -26.5q84 0 160 31.5t127 89.5 l24 114q-94 80 -239 80q-209 0 -242 -160q-6 -27 -6 -47zM926 1096l217 356h272l-252 -356h-237zM1085 567h590q6 35 6 62q0 182 -251 182q-133 0 -224.5 -65.5t-120.5 -178.5z" />
<glyph unicode="&#x1fe;" horiz-adv-x="1681" d="M113 539q0 84 18 176q47 221 178 391t323.5 263t416.5 93q80 0 165 -16l99 160h254l-150 -244q119 -76 184.5 -198t65.5 -279q0 -80 -18 -170q-47 -221 -176.5 -390t-320.5 -262.5t-421 -93.5q-84 0 -162 17l-98 -162h-254l145 237q-119 74 -184 197t-65 281zM375 549 q0 -186 121 -273l579 945q-49 4 -76 4q-139 0 -266 -63.5t-217 -179.5t-123 -267q-18 -88 -18 -166zM707 207q23 -2 75 -2q138 0 263.5 62.5t217 178t123.5 269.5q18 84 19 157q0 184 -119 277zM897 1520l217 356h272l-251 -356h-238z" />
<glyph unicode="&#x1ff;" horiz-adv-x="1314" d="M70 369q0 63 14 123q49 242 230.5 382t455.5 140q25 0 74 -4l92 149h254l-133 -215q92 -51 141 -137t49 -201q0 -53 -12 -114q-53 -246 -233.5 -384.5t-454.5 -138.5q-45 0 -86 6l-92 -151h-254l133 217q-84 51 -131 135t-47 193zM338 391q0 -82 41 -139l342 559 q-141 -2 -239.5 -86t-131.5 -233q-12 -51 -12 -101zM545 1096l217 356h272l-252 -356h-237zM582 172q147 0 251.5 89t135.5 231q12 55 12 102q0 96 -49 147z" />
<glyph unicode="&#x218;" horiz-adv-x="1161" d="M-10 55l47 224q184 -98 416 -99q141 0 222 51.5t99 141.5q6 25 6 47q0 68 -58 109.5t-216 111.5q-143 63 -220 148t-77 200q0 43 8 78q25 117 108 207t207.5 139t274.5 49q123 0 215 -19.5t174 -60.5l-47 -217q-160 86 -342 86q-131 0 -212 -48t-101 -136q-6 -25 -7 -47 q0 -47 28 -80t78 -60.5t161 -76.5q158 -72 234.5 -150t76.5 -194q0 -33 -10 -88q-41 -193 -197 -297.5t-432 -104.5q-127 0 -246 23.5t-190 62.5zM35 -530l258 415h266l-289 -415h-235z" />
<glyph unicode="&#x219;" horiz-adv-x="1021" d="M-6 -530l258 415h266l-289 -415h-235zM0 61l47 220q70 -49 173.5 -79t201.5 -30t147 17.5t60 64.5q2 8 2 20q0 43 -48 68t-182 64q-141 41 -208.5 99t-67.5 150q0 29 6 62q31 147 164 222t332 75q98 0 195.5 -20.5t150.5 -53.5l-45 -211q-55 35 -139 58.5t-173 23.5 q-100 0 -155 -19.5t-68 -74.5q-2 -6 -2 -19q0 -29 25.5 -48t83 -37.5t127.5 -37.5q147 -41 208.5 -101t61.5 -148q0 -31 -6 -68q-27 -139 -141.5 -214t-354.5 -75q-106 0 -221 24.5t-174 67.5z" />
<glyph unicode="&#x21a;" horiz-adv-x="1206" d="M80 -530l256 415h268l-291 -415h-233zM197 1217l45 215h1124l-45 -215h-432l-258 -1217h-260l258 1217h-432z" />
<glyph unicode="&#x21b;" horiz-adv-x="794" d="M-18 -530l256 415h268l-291 -415h-233zM104 786l43 197h148l61 295h258l-61 -295h235l-43 -197h-235l-94 -440q-10 -55 -10 -80q0 -51 28.5 -72.5t97.5 -21.5q72 0 140 29l-41 -197q-94 -35 -223 -35t-199 63.5t-70 180.5q0 45 13 100l100 473h-148z" />
<glyph unicode="&#x237;" horiz-adv-x="509" d="M-360 -446l45 208q49 -25 120 -24q84 0 133.5 42t67.5 132l230 1071h258l-234 -1098q-39 -178 -161 -268t-294 -90q-97 0 -165 27z" />
<glyph unicode="&#x251;" horiz-adv-x="1361" d="M70 369q0 57 12 120q33 154 123 274t221 185.5t287 65.5q240 0 354 -127l20 96h259l-209 -983h-250l22 115q-80 -76 -182 -111t-238 -35q-122 0 -217.5 49.5t-148.5 139.5t-53 211zM334 395q0 -223 262 -223q111 0 209 59.5t156 159.5l43 199q-10 102 -80 161.5 t-191 59.5q-145 0 -252.5 -89t-136.5 -233q-10 -57 -10 -94z" />
<glyph unicode="&#x259;" horiz-adv-x="1247" d="M68 358q0 57 12 115l24 119h838l2 29q0 100 -79 145t-257 45q-94 0 -196.5 -16.5t-182.5 -44.5l43 198q76 29 189.5 47.5t222.5 18.5q236 0 367 -102.5t131 -288.5q0 -66 -15 -129q-53 -248 -213.5 -386.5t-443.5 -138.5q-137 0 -237.5 50.5t-152.5 138.5t-52 200z M305 346q0 -88 58.5 -131t193.5 -43t227.5 65.5t120.5 178.5h-594q-6 -37 -6 -70z" />
<glyph unicode="&#x2bb;" horiz-adv-x="548" d="M205 1061l248 401h221l-219 -401h-250z" />
<glyph unicode="&#x2bc;" horiz-adv-x="548" d="M205 1061l219 401h250l-248 -401h-221z" />
<glyph unicode="&#x2be;" d="M-31 1075l39 185q70 0 109 25.5t53 88.5q4 29 4 37q0 41 -28.5 59.5t-88.5 18.5l39 184q123 0 194.5 -54t71.5 -161q0 -33 -10 -84q-31 -150 -134 -224.5t-249 -74.5z" />
<glyph unicode="&#x2bf;" d="M25 1292q0 43 8 82q33 150 135 224.5t248 74.5l-39 -184q-70 0 -109 -25.5t-53 -89.5q-4 -29 -4 -37q0 -41 28.5 -59t88.5 -18l-39 -185q-123 0 -193.5 54.5t-70.5 162.5z" />
<glyph unicode="&#x2c6;" horiz-adv-x="993" d="M236 1212l376 351h230l223 -351h-246l-112 203l-199 -203h-272z" />
<glyph unicode="&#x2c7;" horiz-adv-x="993" d="M311 1563h248l111 -205l200 205h271l-375 -351h-229z" />
<glyph unicode="&#x2c8;" d="M51 1186l78 373h193l-78 -373h-193z" />
<glyph unicode="&#x2c9;" horiz-adv-x="1206" d="M418 1217l37 172h680l-37 -172h-680z" />
<glyph unicode="&#x2ca;" d="M-100 1196l217 356h272l-252 -356h-237z" />
<glyph unicode="&#x2cb;" d="M-102 1196l252 356h237l-217 -356h-272z" />
<glyph unicode="&#x2cc;" d="M-346 -498l80 373h190l-78 -373h-192z" />
<glyph unicode="&#x2d8;" horiz-adv-x="823" d="M285 1403q0 41 8 76h184q-4 -29 -4 -41q0 -96 111 -97q66 0 107.5 35t56.5 103h204q-29 -139 -135 -224.5t-260 -85.5q-131 0 -201.5 62.5t-70.5 171.5z" />
<glyph unicode="&#x2d9;" horiz-adv-x="436" d="M256 1292q0 66 53 115t117 49q47 0 78 -30.5t31 -77.5q0 -66 -52.5 -115t-115.5 -49q-50 0 -80.5 30.5t-30.5 77.5z" />
<glyph unicode="&#x2da;" horiz-adv-x="673" d="M260 1298q0 31 4 48q23 111 110 183.5t199 72.5q88 0 147.5 -58.5t59.5 -146.5q0 -23 -6 -51q-25 -111 -110.5 -182.5t-198.5 -71.5q-86 0 -145.5 59t-59.5 147zM412 1319q0 -35 21.5 -56.5t62.5 -21.5q51 0 90 39t39 92q0 35 -21.5 56.5t-62.5 21.5q-51 0 -90 -39 t-39 -92z" />
<glyph unicode="&#x2db;" horiz-adv-x="571" d="M-78 -289q0 27 4 41q18 78 71.5 142.5t131.5 105.5h240q-92 -49 -142.5 -97t-64.5 -106q-2 -8 -2 -24q0 -57 69 -58q51 0 101 23l-31 -148q-76 -27 -184 -26q-80 0 -136.5 40t-56.5 107z" />
<glyph unicode="&#x2dc;" horiz-adv-x="960" d="M236 1212l45 211q86 88 223 88q45 0 84 -12t104 -39q51 -25 92 -38t86 -13q129 0 228 104l-45 -210q-84 -86 -224 -86q-51 0 -94 13t-102 40q-53 25 -90 37t-80 12q-59 0 -114.5 -24.5t-112.5 -82.5z" />
<glyph unicode="&#x2dd;" horiz-adv-x="1015" d="M225 1165l219 357h250l-252 -357h-217zM684 1165l217 357h252l-252 -357h-217z" />
<glyph unicode="&#x300;" d="M-793 1552h273l65 -356h-237z" />
<glyph unicode="&#x301;" d="M-643 1196l217 356h272l-252 -356h-237z" />
<glyph unicode="&#x302;" d="M-303 1202l375 350h229l223 -350h-248l-112 203l-199 -203h-268z" />
<glyph unicode="&#x303;" d="M-915 1212l45 211q86 88 223 88q45 0 84 -12t104 -39q51 -25 92 -38t86 -13q127 0 226 104l-45 -210q-80 -86 -222 -86q-51 0 -94 13t-102 40q-53 25 -90 37t-80 12q-59 0 -114.5 -24.5t-112.5 -82.5z" />
<glyph unicode="&#x304;" d="M-203 1217l37 172h660l-37 -172h-660z" />
<glyph unicode="&#x306;" d="M-166 1401q0 43 8 78h183q-4 -29 -5 -41q0 -96 111 -97q66 0 108 35t56 103h205q-29 -139 -135.5 -224.5t-260.5 -85.5q-131 0 -200.5 61.5t-69.5 170.5z" />
<glyph unicode="&#x307;" d="M-4 1292q0 66 53 115t117 49q47 0 77.5 -30.5t30.5 -77.5q0 -66 -52 -115t-116 -49q-49 0 -79.5 30.5t-30.5 77.5z" />
<glyph unicode="&#x308;" d="M-246 1292q0 63 53.5 113.5t114.5 50.5q47 0 78 -30.5t31 -77.5q0 -66 -52.5 -115t-115.5 -49q-47 0 -78 30.5t-31 77.5zM238 1292q0 66 53 115t117 49q47 0 77.5 -30.5t30.5 -77.5q0 -66 -52 -115t-116 -49q-49 0 -79.5 30.5t-30.5 77.5z" />
<glyph unicode="&#x309;" d="M-748 1462l29 135q102 29 207 29q123 0 185.5 -43t62.5 -117q0 -92 -62.5 -157.5t-169.5 -79.5l-14 -70h-225l33 152q92 0 143 22.5t63 77.5q2 6 2 19q0 31 -26.5 44t-85.5 13q-27 0 -73 -8.5t-69 -16.5z" />
<glyph unicode="&#x30a;" d="M-119 1290q0 29 6 56q23 109 111 182.5t199 73.5q92 0 149 -57.5t57 -143.5q0 -27 -6 -55q-23 -109 -109.5 -181.5t-199.5 -72.5q-92 0 -149.5 56t-57.5 142zM35 1319q0 -35 21.5 -56.5t62.5 -21.5q51 0 91 41t40 92q0 35 -21.5 55.5t-64.5 20.5q-49 0 -89 -40t-40 -91z " />
<glyph unicode="&#x30b;" d="M-334 1196l215 356h252l-252 -356h-215zM121 1196l219 356h250l-252 -356h-217z" />
<glyph unicode="&#x30c;" d="M-227 1552h245l111 -204l201 204h270l-375 -350h-229z" />
<glyph unicode="&#x31b;" d="M-53 1108l39 180q88 0 145 48t74 122l14 72h207l-18 -86q-31 -147 -153 -241.5t-308 -94.5z" />
<glyph unicode="&#x323;" d="M-291 -258q0 66 53.5 115t116.5 49q45 0 76 -31t31 -76q0 -66 -51.5 -116t-114.5 -50q-49 0 -80 31t-31 78z" />
<glyph unicode="&#x324;" d="M-512 -258q0 66 53 115t117 49q47 0 78 -31t31 -78q0 -66 -52.5 -115t-115.5 -49q-50 0 -80.5 31t-30.5 78zM-74 -258q0 66 53.5 115t116.5 49q47 0 78 -31t31 -78q0 -66 -52.5 -115t-115.5 -49q-49 0 -80 31t-31 78z" />
<glyph unicode="&#x326;" d="M-733 -530l256 415h268l-291 -415h-233z" />
<glyph unicode="&#x327;" d="M-434 -483l33 141q20 -10 51 -17.5t61 -7.5q121 0 139 84q2 6 3 21q0 88 -183 88l105 174h231l-65 -106q72 -8 110.5 -49.5t38.5 -102.5q0 -117 -94 -183.5t-248 -66.5q-55 0 -105.5 7t-76.5 18z" />
<glyph unicode="&#x328;" d="M-356 -295q0 23 6 47q16 78 70.5 141.5t129.5 106.5h238q-92 -49 -142 -97t-63 -106q-2 -8 -2 -20q0 -61 68 -62q53 0 102 23l-31 -148q-76 -27 -182 -26q-88 0 -141 35.5t-53 105.5z" />
<glyph unicode="&#x32e;" d="M-465 -197q0 41 8 76h185q-4 -29 -4 -41q0 -96 110 -96q63 0 105.5 35t56.5 102h205q-29 -139 -135.5 -224t-258.5 -85q-131 0 -201.5 62.5t-70.5 170.5z" />
<glyph unicode="&#x331;" d="M-487 -309l36 170h660l-37 -170h-659z" />
<glyph unicode="&#x394;" horiz-adv-x="1413" d="M-20 0l36 176l785 1286h225l240 -1286l-37 -176h-1249zM276 211h760l-172 969z" />
<glyph unicode="&#x3a9;" horiz-adv-x="1675" d="M-20 0l45 215h251q-70 68 -112.5 169t-42.5 218q0 51 14 129q72 336 304.5 533.5t604.5 197.5q188 0 327.5 -68.5t214.5 -195.5t75 -295q0 -82 -19 -172q-33 -156 -131 -292t-227 -224h252l-45 -215h-606l41 195q381 188 454 536q18 80 19 150q0 166 -100.5 255 t-303.5 89q-229 0 -389 -133.5t-209 -360.5q-14 -63 -14 -131q0 -254 244 -405l-41 -195h-606z" />
<glyph unicode="&#x3bc;" horiz-adv-x="1259" d="M-76 -449l305 1432h258l-131 -608q-8 -33 -8 -68q0 -135 166 -135q88 0 175 42t159 126l137 643h258l-209 -983h-250l27 133q-86 -84 -191.5 -124t-211.5 -40q-76 0 -129 35l-97 -453h-258z" />
<glyph unicode="&#x3c0;" horiz-adv-x="1425" d="M121 768l47 215h1208l-47 -215h-178l-88 -414q-10 -51 -10 -78q0 -49 25.5 -72.5t80.5 -23.5q84 0 146 25l-45 -209q-80 -27 -179 -27q-135 0 -214 70t-79 194q0 39 11 95l92 440h-332l-162 -768h-260l162 768h-178z" />
<glyph unicode="&#xe01;" horiz-adv-x="1331" d="M82 0l141 668l-67 170q143 141 305 214.5t354 73.5q213 0 331 -88t118 -245q0 -41 -11 -99l-147 -694h-260l141 674q10 41 10 90q0 82 -53 121t-172 39q-100 0 -182 -29t-162 -94l55 -135l-141 -666h-260z" />
<glyph unicode="&#xe02;" horiz-adv-x="1222" d="M63 295q0 45 9 84l10 51q14 72 58 134.5t112 133.5q47 51 68.5 79t27.5 52q2 6 2 17q0 45 -65 45h-117l43 205h254q78 0 122 -39t44 -105q0 -25 -6 -49q-14 -66 -49 -120t-103 -134q-57 -63 -88 -110t-41 -99l-10 -51q-8 -35 -8 -74q0 -72 47 -107.5t159 -35.5 q119 0 192 59.5t97 167.5l148 697h260l-139 -654q-47 -223 -196 -348t-405 -125q-202 0 -314 89t-112 237z" />
<glyph unicode="&#xe03;" horiz-adv-x="1243" d="M84 299q0 45 8 80l12 59q14 68 63.5 129.5t133.5 143.5q49 45 73.5 72.5t28.5 47.5v7q-45 -20 -98 -21q-59 0 -91 28.5t-32 88.5q0 25 6 55l23 107h182l-14 -74q-2 -8 -2 -21q0 -39 47 -38q37 0 65 24l23 109h197l-41 -193q-16 -78 -59.5 -139.5t-119.5 -147.5 q-55 -59 -84.5 -100t-39.5 -82l-11 -45q-8 -35 -8 -72q0 -72 48 -108.5t159 -36.5q129 0 197.5 58.5t91.5 168.5l147 697h260l-139 -654q-49 -227 -190.5 -350t-409.5 -123q-195 0 -310.5 91.5t-115.5 238.5z" />
<glyph unicode="&#xe04;" horiz-adv-x="1329" d="M20 0l140 664q47 225 209.5 343.5t431.5 118.5q213 0 333.5 -95t120.5 -261q0 -51 -12 -106l-139 -664h-260l139 664q12 53 12 94q0 86 -56 126t-181 40q-135 0 -223.5 -66.5t-114.5 -193.5l-35 -170q35 43 93.5 69.5t127.5 26.5h166l-47 -217h-184q-80 0 -142.5 -52.5 t-76.5 -125.5l-41 -195h-261z" />
<glyph unicode="&#xe05;" horiz-adv-x="1329" d="M20 0l164 780q37 174 129.5 260t255.5 86q82 0 135.5 -29.5t69.5 -86.5q92 117 256 116q127 0 187.5 -65.5t60.5 -179.5q0 -45 -14 -121l-160 -760h-260l162 766q10 55 10 82q0 39 -18.5 57.5t-61.5 18.5q-47 0 -76 -28t-55 -89h-146q0 61 -17 89t-64 28q-59 0 -88 -36 t-48 -120l-57 -274q35 43 93.5 69.5t127.5 26.5h166l-47 -217h-184q-80 0 -142.5 -52.5t-76.5 -125.5l-41 -195h-261z" />
<glyph unicode="&#xe06;" horiz-adv-x="1292" d="M12 0l88 422q16 74 69.5 141.5t135.5 147.5q47 47 70.5 74.5t27.5 45.5v7q-45 -20 -98 -21q-59 0 -91 28.5t-32 88.5q0 25 6 55l23 107h182l-14 -74q-2 -8 -2 -21q0 -39 47 -38q37 0 65 24l23 109h197l-41 -193q-16 -78 -60.5 -141.5t-120.5 -145.5q-55 -59 -85.5 -101 t-39.5 -83l-18 -92q72 -168 258 -168q135 0 200.5 53.5t90.5 171.5l147 699h258l-151 -711q-41 -190 -177 -303t-337 -113q-103 0 -193 42t-149 124l-29 -135h-250z" />
<glyph unicode="&#xe07;" horiz-adv-x="1288" d="M182 958h260l80 -755q172 0 286 97t150 278q18 84 19 147q0 100 -50 149.5t-161 49.5q-74 0 -145 -21l43 199q84 25 190 24q188 0 289.5 -100t101.5 -281q0 -70 -20 -167q-37 -180 -143.5 -311.5t-254 -199t-309.5 -67.5h-235z" />
<glyph unicode="&#xe08;" horiz-adv-x="1212" d="M150 602h258l14 -399q172 0 297 91t160 259q16 76 16 129q0 119 -78 180.5t-258 61.5q-102 0 -212.5 -20.5t-186.5 -53.5l43 203q86 35 200.5 54t231.5 19q248 0 387 -111.5t139 -316.5q0 -63 -16 -145q-35 -168 -139.5 -293t-258 -192.5t-333.5 -67.5h-242z" />
<glyph unicode="&#xe09;" horiz-adv-x="1261" d="M68 268q0 51 12 107l53 250h260l-49 -234q-12 -55 -12 -94q0 -70 44 -97.5t148 -27.5q90 0 176 44t148 124l51 242q16 78 16 131q0 109 -71.5 160t-247.5 51q-109 0 -233.5 -20.5t-202.5 -53.5l43 203q84 33 214 53t249 20q514 0 514 -378q0 -72 -19 -156l-125 -592h-250 l29 135q-84 -84 -184.5 -125t-229.5 -41q-157 0 -245 80t-88 219z" />
<glyph unicode="&#xe0a;" horiz-adv-x="1210" d="M63 307q0 23 9 72l10 51q14 74 58 135.5t116 136.5q43 47 64.5 76t27.5 51q2 6 2 17q0 45 -65 45h-117l43 205h254q78 0 122 -39t44 -105q0 -25 -6 -49q-14 -72 -51 -127t-101 -127q-57 -66 -88 -109.5t-41 -99.5l-10 -51q-8 -49 -8 -67q0 -74 49 -112t160 -38 q127 0 207.5 68.5t107.5 201.5q14 59 14 113q0 80 -42 118t-134 38l29 137l268 278h279l-293 -303q150 -90 149 -280q0 -43 -10 -101q-41 -215 -201.5 -344t-416.5 -129q-130 0 -227 44t-149.5 121t-52.5 173z" />
<glyph unicode="&#xe0b;" horiz-adv-x="1230" d="M84 303q0 41 8 76l12 59q14 68 63.5 129.5t133.5 143.5q49 45 73.5 72.5t28.5 47.5v7q-45 -20 -98 -21q-57 0 -90 33t-33 90q0 23 6 49l23 107h182l-14 -74q-4 -20 -4 -27q0 -33 49 -32q37 0 65 24l23 109h197l-41 -193q-18 -82 -61.5 -144.5t-114.5 -135.5 q-55 -59 -86 -100.5t-41 -88.5l-11 -45q-8 -33 -8 -70q0 -74 48 -110.5t155 -36.5q125 0 210 69.5t111 200.5q14 59 15 113q0 80 -43 118t-133 38l28 137l269 278h278l-295 -303q78 -45 116 -111.5t38 -156.5q0 -51 -13 -113q-41 -215 -202.5 -344t-415.5 -129 q-127 0 -224.5 42t-150.5 118t-53 174z" />
<glyph unicode="&#xe0c;" horiz-adv-x="2043" d="M121 164q0 33 8 65l94 439l-67 170q143 141 298.5 214.5t340.5 73.5q201 0 313.5 -90t112.5 -245q0 -55 -11 -97l-75 -354q29 -80 93 -124t146 -44q119 0 182.5 50t88.5 175l147 699h258l-152 -711q-43 -197 -160.5 -306.5t-332.5 -109.5q-100 0 -184 39t-140 121 l-26 -129h-250l141 674q10 43 10 90q0 82 -49 121t-155 39q-94 0 -171 -29t-153 -94l55 -135l-75 -353q-6 -25 -7 -43q0 -29 18.5 -41t59.5 -12h121l-45 -217h-250q-90 0 -137 43t-47 121z" />
<glyph unicode="&#xe0d;" horiz-adv-x="2062" d="M121 164q0 33 8 65l94 439l-67 170q143 141 298.5 214.5t340.5 73.5q207 0 317.5 -89t110.5 -240q0 -47 -13 -103l-16 -69q-14 -57 -14 -109q0 -82 50 -123t165 -41q260 0 317 273l100 471h261l-105 -492q-35 -162 -123 -264q51 -68 51 -158q0 -16 -4 -49 q-27 -162 -171 -248t-427 -86q-100 0 -210.5 27t-172.5 65l45 207q156 -96 381 -96q135 0 219 33t99 98q2 8 2 25q0 29 -8 43q-131 -51 -297 -51q-133 0 -230.5 47t-148.5 130t-51 187q0 39 10 90l14 70q10 57 10 92q0 82 -48 120t-156 38q-94 0 -171 -29t-153 -94l55 -135 l-75 -353q-6 -25 -7 -43q0 -29 18.5 -41t59.5 -12h121l-45 -217h-250q-90 0 -137 43t-47 121z" />
<glyph unicode="&#xe0e;" horiz-adv-x="1359" d="M-20 0l45 217h79q53 0 78 21.5t35 74.5l76 355l-109 170q283 289 662 288q209 0 327.5 -95t118.5 -249q0 -37 -10 -88l-244 -1147h-229q-59 57 -131 83t-164 26q-94 0 -190.5 -32t-171.5 -89l45 213q68 51 167 81t193 30q176 0 272 -70l187 885q10 55 10 88q0 84 -53 123 t-172 39q-98 0 -179 -29t-159 -86l90 -141l-92 -437q-23 -109 -94.5 -170t-178.5 -61h-208z" />
<glyph unicode="&#xe0f;" horiz-adv-x="1359" d="M-20 0l45 217h79q53 0 78 21.5t35 74.5l76 355l-109 170q283 289 662 288q211 0 328.5 -92t117.5 -248q0 -41 -10 -92l-244 -1147h-247l-216 140q-57 -72 -140 -109t-185 -37q-64 0 -119 17.5t-90 46.5l43 196q76 -57 192 -57q80 0 139.5 35t90.5 106h143l176 -114 l191 903q10 41 10 90q0 82 -53 121t-172 39q-98 0 -179 -29t-159 -86l90 -141l-92 -437q-23 -109 -94.5 -170t-178.5 -61h-208z" />
<glyph unicode="&#xe10;" horiz-adv-x="1259" d="M-94 -395l39 176q76 -57 192 -57q82 0 137.5 36.5t94.5 114.5h127l188 -131l37 178h258l-78 -375h-235l-222 148q-61 -82 -138 -118t-183 -36q-66 0 -125 17.5t-92 46.5zM150 602h258l14 -399q172 0 297 91t160 259q16 78 16 133q0 119 -77 178.5t-259 59.5 q-102 0 -212.5 -20.5t-186.5 -53.5l43 203q86 35 200.5 54t231.5 19q184 0 309 -59l121 111h287l-267 -244q76 -98 76 -242q0 -68 -14 -133q-37 -170 -146.5 -297t-263 -194.5t-323.5 -67.5h-242z" />
<glyph unicode="&#xe11;" horiz-adv-x="1302" d="M43 0l92 438q16 74 62.5 139.5t115.5 139.5q31 33 56.5 64.5t29.5 49.5v7q-45 -20 -98 -21q-53 0 -86 33t-33 90q0 25 6 49l23 107h182l-14 -74q-2 -8 -2 -21q0 -39 47 -38q37 0 65 24l23 109h197l-15 -68q53 45 136 71.5t161 26.5q131 0 194.5 -68.5t63.5 -185.5 q0 -55 -12 -116l-160 -756h-260l166 786q6 31 6 56q0 43 -25.5 62.5t-80.5 19.5q-150 0 -256 -115q-25 -49 -51.5 -87t-67.5 -87q-51 -61 -75.5 -101t-37.5 -100l-92 -434h-260z" />
<glyph unicode="&#xe12;" horiz-adv-x="2138" d="M76 381q0 78 16 149q61 287 196.5 441.5t334.5 154.5q150 0 190 -116q100 117 289 116q119 0 177 -61t58 -170q0 -51 -12 -111l-94 -444q72 -168 237 -168q121 0 183.5 54.5t87.5 170.5l147 699h258l-151 -711q-39 -186 -164 -301t-330 -115q-100 0 -184 39t-139 121 l-27 -129h-250l162 766q10 51 10 78q0 41 -19.5 60.5t-62.5 19.5q-94 0 -143 -119h-146q2 10 2 31q0 88 -79 88q-84 0 -154 -97.5t-111 -296.5q-16 -76 -16 -131q0 -227 256 -227q78 0 145 21l-41 -199q-88 -25 -192 -25q-193 0 -313.5 107.5t-120.5 304.5z" />
<glyph unicode="&#xe13;" horiz-adv-x="2043" d="M121 164q0 33 8 65l94 439l-67 170q143 141 298.5 214.5t340.5 73.5q211 0 319.5 -84t108.5 -239q0 -49 -13 -109l-63 -297q-12 -55 -12 -96q0 -70 42 -99.5t142 -29.5q90 0 175 44t138 124l160 756h258l-231 -1096h-250l26 129q-162 -160 -393 -160q-155 0 -242.5 83 t-87.5 224q0 51 13 109l61 289q10 51 10 84q0 166 -204 166q-94 0 -171 -29t-153 -94l55 -135l-75 -353q-6 -25 -7 -43q0 -29 18.5 -41t59.5 -12h121l-45 -217h-250q-90 0 -137 43t-47 121z" />
<glyph unicode="&#xe14;" horiz-adv-x="1404" d="M76 379q0 80 16 151q61 289 246.5 442.5t499.5 153.5q250 0 368.5 -102t118.5 -272q0 -68 -14 -127l-131 -625h-260l133 627q12 53 12 96q0 100 -64.5 150.5t-205.5 50.5q-166 0 -281 -100.5t-156 -293.5q-16 -78 -16 -133q0 -113 62.5 -169t193.5 -56q78 0 145 21 l-41 -199q-88 -25 -192 -25q-193 0 -313.5 106.5t-120.5 303.5z" />
<glyph unicode="&#xe15;" horiz-adv-x="1404" d="M78 391q0 70 14 139q59 289 194.5 442.5t342.5 153.5q152 0 192 -116q51 61 130 88.5t167 27.5q119 0 178.5 -68.5t59.5 -176.5q0 -41 -10 -97l-166 -784h-260l161 766q10 47 11 74q0 43 -20.5 63.5t-65.5 20.5q-100 0 -150 -119h-145q2 10 2 26q0 92 -84 93 q-90 0 -160 -97.5t-111 -296.5q-16 -76 -16 -131q0 -227 256 -227q78 0 145 21l-41 -199q-88 -25 -192 -25q-123 0 -221.5 50.5t-154.5 145.5t-56 226z" />
<glyph unicode="&#xe16;" horiz-adv-x="1331" d="M121 164q0 33 8 65l94 439l-67 170q143 141 305 214.5t354 73.5q211 0 330 -91t119 -247q0 -39 -11 -94l-147 -694h-260l141 674q10 55 10 88q0 84 -53 123t-172 39q-100 0 -182 -29t-162 -94l55 -135l-75 -353q-6 -25 -7 -43q0 -29 18.5 -41t59.5 -12h121l-45 -217h-250 q-90 0 -137 43t-47 121z" />
<glyph unicode="&#xe17;" horiz-adv-x="1300" d="M20 0l232 1096h250l-29 -135q94 82 207 123.5t217 41.5q166 0 253 -87t87 -224q0 -39 -10 -94l-152 -721h-260l150 709q8 33 8 69q0 72 -46 109t-147 37q-88 0 -179 -43t-161 -125l-159 -756h-261z" />
<glyph unicode="&#xe18;" horiz-adv-x="1155" d="M41 248q0 27 6 53l29 133h256l-25 -115q-6 -25 -6 -47q0 -61 51 -84.5t164 -23.5q119 0 182.5 32.5t77.5 106.5q4 29 4 41q0 41 -27.5 66.5t-81 43t-173.5 48.5q-172 43 -261.5 103.5t-89.5 162.5q0 27 7 57q35 156 177 228.5t369 72.5q127 0 243 -25.5t181 -64.5 l-45 -213q-76 47 -178 74t-215 27q-127 0 -192.5 -18.5t-79.5 -80.5q-2 -6 -2 -16q0 -43 51 -67.5t182 -61.5q16 -4 82 -23q166 -49 241.5 -111.5t75.5 -162.5q0 -33 -10 -80q-33 -156 -171 -245t-390 -89q-129 0 -226 36t-151.5 98.5t-54.5 144.5z" />
<glyph unicode="&#xe19;" horiz-adv-x="1300" d="M90 291q0 39 10 94l152 711h260l-147 -699q-10 -51 -11 -82q0 -74 45 -108.5t148 -34.5q94 0 182 42t158 126l160 756h260l-232 -1096h-250l29 135q-178 -166 -428 -166q-154 0 -245 90.5t-91 231.5z" />
<glyph unicode="&#xe1a;" horiz-adv-x="1333" d="M104 340q0 59 11 102l137 654h260l-137 -652q-12 -55 -13 -98q0 -88 55.5 -131t182.5 -43q283 0 342 272l137 652h260l-139 -662q-47 -221 -211 -343t-432 -122q-211 0 -332 101.5t-121 269.5z" />
<glyph unicode="&#xe1b;" horiz-adv-x="1333" d="M104 340q0 59 11 102l137 654h260l-137 -652q-12 -55 -13 -98q0 -88 55.5 -131t182.5 -43q283 0 342 272l215 1018h260l-217 -1028q-47 -221 -211 -343t-432 -122q-211 0 -332 101.5t-121 269.5z" />
<glyph unicode="&#xe1c;" horiz-adv-x="1335" d="M20 0l181 856q25 117 100.5 178.5t192.5 61.5h186l-45 -217h-76q-53 0 -78.5 -22.5t-38.5 -80.5l-86 -407l314 368h102l158 -368l153 727h258l-231 -1096h-223l-207 494l-416 -494h-244z" />
<glyph unicode="&#xe1d;" horiz-adv-x="1335" d="M20 0l181 856q25 117 100.5 178.5t192.5 61.5h186l-45 -217h-76q-53 0 -78.5 -22.5t-38.5 -80.5l-86 -407l314 368h102l158 -368l231 1093h258l-309 -1462h-223l-207 494l-416 -494h-244z" />
<glyph unicode="&#xe1e;" horiz-adv-x="1613" d="M190 1096h261l20 -736l369 736h192l58 -736l331 736h260l-536 -1096h-209l-62 754l-380 -754h-230z" />
<glyph unicode="&#xe1f;" horiz-adv-x="1558" d="M190 1096h261l20 -736l369 736h192l58 -736l456 1102h260l-661 -1462h-209l-62 754l-380 -754h-230z" />
<glyph unicode="&#xe20;" horiz-adv-x="1359" d="M-20 0l45 217h79q53 0 78 21.5t35 74.5l76 355l-109 170q283 289 662 288q209 0 327.5 -95t118.5 -251q0 -35 -10 -86l-147 -694h-261l142 674q10 41 10 90q0 82 -53 121t-172 39q-98 0 -179 -29t-159 -86l90 -141l-92 -437q-23 -109 -94.5 -170t-178.5 -61h-208z" />
<glyph unicode="&#xe21;" horiz-adv-x="1300" d="M20 0l232 1096h260l-160 -756q72 -168 258 -168q129 0 198 54.5t93 170.5l148 699h258l-152 -711q-41 -195 -171 -305.5t-343 -110.5q-102 0 -192.5 42t-149.5 124l-29 -135h-250z" />
<glyph unicode="&#xe22;" horiz-adv-x="1312" d="M41 262q0 35 8 68q16 84 81 151.5t146 93.5q-55 29 -86.5 79.5t-31.5 113.5q0 29 6 55q29 137 140.5 220t295.5 83q57 0 109.5 -7t81.5 -17l-43 -203q-25 12 -65 18.5t-75 6.5q-156 0 -182 -117q-4 -25 -4 -33q0 -47 33.5 -69.5t107.5 -22.5h137l-45 -211h-137 q-172 0 -203 -141q-4 -25 -4 -35q0 -61 57.5 -92t184.5 -31q160 0 249 65.5t116 192.5l141 668h260l-139 -664q-43 -205 -199 -335t-471 -130q-211 0 -340 76t-129 217z" />
<glyph unicode="&#xe23;" horiz-adv-x="1062" d="M2 68l43 202q80 -53 183.5 -79.5t195.5 -26.5q123 0 182.5 24.5t73.5 92.5q2 10 2 26q0 35 -26.5 58.5t-70.5 41t-159 54.5q-139 47 -212 113.5t-73 164.5q0 35 9 66q33 156 168 238.5t354 82.5q104 0 203.5 -25.5t156.5 -60.5l-45 -213q-57 43 -147 70t-187 27 q-217 0 -243 -119q-2 -8 -2 -23q0 -47 45 -73.5t155 -61.5q18 -6 34.5 -11t31.5 -11q147 -49 209.5 -112.5t62.5 -154.5q0 -35 -10 -82q-29 -143 -151.5 -225t-381.5 -82q-112 0 -224.5 25.5t-176.5 73.5z" />
<glyph unicode="&#xe24;" horiz-adv-x="1331" d="M121 164q0 33 8 65l94 439l-67 170q143 141 305 214.5t354 73.5q211 0 330 -89t119 -249q0 -39 -11 -94l-233 -1095h-260l227 1075q10 55 10 90q0 82 -53 121t-172 39q-100 0 -182 -29t-162 -94l55 -135l-75 -353q-6 -25 -7 -43q0 -29 18.5 -41t59.5 -12h121l-45 -217 h-250q-90 0 -137 43t-47 121z" />
<glyph unicode="&#xe25;" horiz-adv-x="1265" d="M41 250q0 43 8 82q35 172 175.5 267t361.5 95q96 0 181 -18.5t148 -48.5l11 49q12 53 12 94q0 84 -62.5 119t-213.5 35q-100 0 -202 -20.5t-181 -55.5l45 203q72 31 191.5 53t229.5 22q223 0 336 -94t113 -250q0 -43 -10 -100l-144 -682h-258l88 422q-121 70 -297 70 q-227 0 -262 -164q-6 -27 -6 -49q0 -53 41 -80t137 -27q74 0 131 21l-41 -199q-82 -25 -196 -25q-152 0 -244 75t-92 206z" />
<glyph unicode="&#xe26;" horiz-adv-x="1359" d="M-20 0l45 217h79q53 0 78 21.5t35 74.5l76 355l-109 170q283 289 662 288q219 0 332.5 -86t113.5 -243q0 -55 -10 -103l-233 -1095h-261l228 1075q8 39 8 78q0 88 -55.5 130t-167.5 42q-98 0 -179 -29t-159 -86l90 -141l-92 -437q-23 -109 -94.5 -170t-178.5 -61h-208z " />
<glyph unicode="&#xe27;" horiz-adv-x="1175" d="M-10 57l45 205q106 -90 334 -90q186 0 309 94t162 281q12 61 12 112q0 131 -84 198t-240 67q-215 0 -366 -90l43 204q162 88 420 88q238 0 368.5 -109.5t130.5 -311.5q0 -74 -18 -158q-57 -272 -252 -425t-475 -153q-266 0 -389 88z" />
<glyph unicode="&#xe28;" horiz-adv-x="1359" d="M20 0l140 664q47 225 209.5 343.5t431.5 118.5q133 0 237 -41l101 93h286l-233 -215q61 -80 61 -199q0 -43 -10 -100l-139 -664h-260l139 664q12 53 12 94q0 86 -56 126t-181 40q-135 0 -223.5 -66.5t-114.5 -193.5l-35 -170q35 43 93.5 69.5t127.5 26.5h166l-47 -217 h-184q-80 0 -142.5 -52.5t-76.5 -125.5l-41 -195h-261z" />
<glyph unicode="&#xe29;" horiz-adv-x="1351" d="M104 340q0 59 11 102l137 654h260l-137 -652q-12 -55 -13 -98q0 -88 55.5 -131t182.5 -43q283 0 342 272l19 93h-240l47 217h240l71 342h260l-71 -342h110l-47 -217h-110l-21 -103q-47 -221 -211 -343t-432 -122q-211 0 -332 101.5t-121 269.5z" />
<glyph unicode="&#xe2a;" horiz-adv-x="1277" d="M41 250q0 43 8 82q35 172 175.5 267t361.5 95q96 0 181 -18.5t148 -48.5l11 49q12 53 12 94q0 84 -62.5 119t-213.5 35q-100 0 -202 -20.5t-181 -55.5l45 203q72 31 191.5 53t229.5 22q164 0 275 -55l115 107h286l-264 -244q37 -70 37 -156q0 -41 -10 -96l-144 -682h-258 l88 422q-121 70 -297 70q-227 0 -262 -164q-6 -27 -6 -49q0 -53 41 -80t137 -27q74 0 131 21l-41 -199q-82 -25 -196 -25q-152 0 -244 75t-92 206z" />
<glyph unicode="&#xe2b;" horiz-adv-x="1271" d="M20 0l232 1096h260l-92 -439l565 439h299l-356 -277q223 -70 223 -291q0 -49 -12 -104l-88 -424h-260l86 406q12 61 12 104q0 70 -35 105.5t-117 50.5l-379 -293l-77 -373h-261z" />
<glyph unicode="&#xe2c;" horiz-adv-x="1357" d="M20 0l232 1096h258l-152 -717l334 420h103l157 -420l95 440q10 51 10 78q0 66 -43 91.5t-142 25.5l31 143l287 305h287l-303 -321q76 -31 109.5 -82t33.5 -127q0 -59 -14 -119l-173 -813h-223l-207 545l-436 -545h-244z" />
<glyph unicode="&#xe2d;" horiz-adv-x="1263" d="M-4 78l121 573h491l-45 -211h-231l-49 -233q63 -35 200 -35q188 0 298 93t147 282q14 66 14 129q0 129 -85 188.5t-279 59.5q-100 0 -213 -22.5t-195 -61.5l45 209q84 35 207 56t244 21q256 0 400 -113.5t144 -322.5q0 -61 -16 -143q-59 -285 -232.5 -431.5 t-521.5 -146.5q-125 0 -242.5 30t-201.5 79z" />
<glyph unicode="&#xe2e;" horiz-adv-x="1323" d="M-4 78l121 573h491l-45 -211h-231l-49 -233q63 -35 200 -35q188 0 298 93t147 282q14 66 14 129q0 129 -85 188.5t-279 59.5q-100 0 -213 -22.5t-195 -61.5l45 209q84 35 207 56t244 21q188 0 323 -67l129 119h287l-272 -250q74 -115 73 -262q0 -57 -12 -119 q-57 -283 -231.5 -430.5t-522.5 -147.5q-125 0 -242.5 30t-201.5 79z" />
<glyph unicode="&#xe2f;" horiz-adv-x="1128" d="M94 705q0 39 8 71q37 166 154 258t283 92q123 0 190 -26l-43 -197q-57 20 -117 21q-86 0 -135 -35t-65 -113q-6 -25 -7 -45q0 -51 40 -74.5t126 -23.5q145 0 265 72l81 391h261l-232 -1096h-260l105 498q-135 -68 -326 -68q-143 0 -235.5 76t-92.5 199z" />
<glyph unicode="&#xe30;" horiz-adv-x="698" d="M31 211q0 37 8 72l27 131h233l-16 -84q-2 -8 -2 -21q0 -18 11 -26.5t38 -8.5h241l-36 -176h-357q-78 0 -112.5 28t-34.5 85zM147 768q0 35 9 70l28 131h234l-19 -84q-2 -8 -2 -21q0 -18 12.5 -26.5t39.5 -8.5h241l-39 -176h-356q-80 0 -114 28t-34 87z" />
<glyph unicode="&#xe31;" d="M-524 1372q0 37 8 70l24 119h234l-18 -95l-5 -24q0 -16 11.5 -23.5t38.5 -7.5h485l-35 -166h-592q-151 0 -151 127z" />
<glyph unicode="&#xe32;" horiz-adv-x="858" d="M100 864l43 203q55 25 139.5 42t161.5 17q168 0 257.5 -84t89.5 -233q0 -61 -15 -125l-143 -684h-260l147 700q12 55 12 97q0 68 -40.5 97.5t-139.5 29.5q-57 0 -126.5 -17.5t-125.5 -42.5z" />
<glyph unicode="&#xe33;" horiz-adv-x="868" d="M-311 1397q0 25 6 49q23 104 101.5 169.5t183.5 65.5q82 0 134 -54t52 -134q0 -31 -4 -47q-23 -102 -99.5 -168t-181.5 -66q-84 0 -138 52.5t-54 132.5zM-160 1423q0 -31 17.5 -50t52.5 -19q33 0 65.5 27.5t38.5 62.5q2 8 2 24q0 66 -67 66q-43 0 -76 -35t-33 -76z M111 864l43 203q55 25 139 42t162 17q168 0 257 -84t89 -233q0 -61 -15 -125l-143 -684h-260l147 700q12 55 13 97q0 68 -41 97.5t-140 29.5q-57 0 -126.5 -17.5t-124.5 -42.5z" />
<glyph unicode="&#xe34;" d="M-874 1245l34 166h914l-35 -166h-913z" />
<glyph unicode="&#xe35;" d="M-874 1245l34 166h682l47 221h232l-82 -387h-913z" />
<glyph unicode="&#xe36;" d="M-874 1245l34 166h539q0 104 70.5 176t185.5 72q86 0 130 -45t44 -113q0 -16 -4 -45q-20 -94 -93 -152.5t-182 -58.5h-724zM-178 1436q0 -31 19.5 -51.5t52.5 -20.5q43 0 78.5 34t35.5 75q0 33 -21.5 54t-54.5 21q-41 0 -75.5 -34.5t-34.5 -77.5z" />
<glyph unicode="&#xe37;" d="M-874 1245l34 166h398l47 221h182l-47 -221h154l47 221h180l-82 -387h-913z" />
<glyph unicode="&#xe38;" d="M-651 -272l35 166h190q82 0 116 -23t34 -76q0 -27 -11 -78l-55 -266h-233l43 211q4 25 4 29q0 20 -11.5 28.5t-40.5 8.5h-71z" />
<glyph unicode="&#xe39;" d="M-965 -272l35 166h207q86 0 86 -66q0 -18 -6 -43l-25 -115q-2 -8 -2 -22q0 -59 74 -60q86 0 102 82l48 224h196l-51 -244q-18 -94 -103 -153.5t-217 -59.5q-122 0 -185.5 49t-63.5 125q0 23 2 33l6 37q4 20 4 22q0 14 -8 19.5t-29 5.5h-70z" />
<glyph unicode="&#xe3a;" d="M-543 -264q0 66 52.5 116t117.5 50q47 0 79 -31t32 -78q0 -63 -52.5 -113.5t-115.5 -50.5q-49 0 -81 31t-32 76z" />
<glyph unicode="&#xe3f;" horiz-adv-x="1347" d="M20 0l304 1432h405l45 210h221l-45 -210h54q156 0 249 -79t93 -220q0 -45 -9 -86q-18 -100 -84.5 -181.5t-156.5 -124.5q166 -57 166 -229q0 -45 -13 -100q-43 -199 -172 -305.5t-342 -106.5h-88l-45 -211h-221l45 211h-406zM322 205h147l88 422h-145zM455 836h147 l82 391h-145zM690 205h29q109 0 176.5 45t91.5 160q8 49 8 65q0 152 -200 152h-17zM823 836h13q88 0 151.5 48t83.5 146q8 35 8 72q0 72 -43 98.5t-129 26.5h-2z" />
<glyph unicode="&#xe40;" horiz-adv-x="632" d="M59 162q0 35 9 67l184 867h260l-166 -785q-6 -25 -6 -43q0 -29 16.5 -40t55.5 -11h82l-45 -217h-209q-88 0 -134.5 43t-46.5 119z" />
<glyph unicode="&#xe41;" horiz-adv-x="1183" d="M59 162q0 35 9 67l184 867h260l-166 -785q-6 -25 -6 -43q0 -29 16.5 -40t55.5 -11h82l-45 -217h-209q-88 0 -134.5 43t-46.5 119zM610 162q0 35 8 67l185 867h260l-166 -785q-6 -25 -6 -43q0 -29 16.5 -40t55.5 -11h81l-45 -217h-208q-89 0 -135 43t-46 119z" />
<glyph unicode="&#xe42;" horiz-adv-x="698" d="M156 162q0 35 8 67l160 746q14 63 14 121q0 90 -41 146t-127 95l43 203h688l-45 -217h-348q88 -76 88 -221q0 -68 -14 -133l-140 -658q-6 -25 -6 -43q0 -29 16.5 -40t55.5 -11h82l-45 -217h-209q-88 0 -134 43t-46 119z" />
<glyph unicode="&#xe43;" horiz-adv-x="636" d="M57 162q0 35 9 67l110 521q23 100 74 169.5t135 149.5q57 55 87 92t38 76q4 29 4 39q0 43 -29.5 62.5t-97.5 19.5q-123 0 -237 -72l43 199q145 76 321 76q141 0 210 -56.5t69 -152.5q0 -39 -9 -72q-14 -72 -55 -127t-115 -129q-78 -80 -118.5 -136.5t-57.5 -133.5 l-94 -443q-6 -25 -6 -43q0 -29 16.5 -40t55.5 -11h82l-46 -217h-208q-88 0 -134.5 43t-46.5 119z" />
<glyph unicode="&#xe44;" horiz-adv-x="698" d="M125 162q0 35 8 67l158 740q51 246 225 354h-348l45 217h688l-43 -203q-129 -49 -201.5 -132t-103.5 -230l-141 -664q-6 -25 -6 -43q0 -29 16 -40t55 -11h82l-45 -217h-209q-88 0 -134 43t-46 119z" />
<glyph unicode="&#xe45;" horiz-adv-x="858" d="M100 864l43 203q55 25 139.5 42t161.5 17q168 0 257.5 -84t89.5 -233q0 -61 -15 -125l-229 -1085h-260l233 1101q12 55 12 97q0 68 -40.5 97.5t-139.5 29.5q-57 0 -126.5 -17.5t-125.5 -42.5z" />
<glyph unicode="&#xe46;" horiz-adv-x="1255" d="M84 641q0 51 10 92q80 393 412 393q147 0 184 -116q43 57 109.5 86.5t148.5 29.5q258 0 258 -239q0 -57 -16 -133l-160 -754h-260l166 782q8 33 8 66q0 39 -19.5 57.5t-64.5 18.5q-98 0 -137 -119h-145q4 37 4 47q0 37 -15.5 54.5t-54.5 17.5q-113 0 -152 -191 q-8 -35 -8 -67q0 -49 31 -70t100 -21q35 0 76 6.5t70 14.5l-41 -199q-88 -25 -193 -24q-127 0 -219 66.5t-92 201.5z" />
<glyph unicode="&#xe47;" d="M-780 1421q0 29 4 45q29 135 109.5 200t230.5 65h499l-30 -142h-482q-61 0 -98 -24.5t-49 -79.5q-4 -14 -4 -39q0 -31 18.5 -46.5t63.5 -15.5q51 0 85 29t44 76h139q-4 -20 -4 -27q0 -70 92 -69h119l-33 -148h-114q-63 0 -105.5 25.5t-52.5 66.5q-27 -41 -90.5 -70.5 t-134.5 -29.5q-91 0 -149 50t-58 134z" />
<glyph unicode="&#xe48;" d="M-217 1245l74 352h258l-74 -352h-258z" />
<glyph unicode="&#xe49;" d="M-526 1417l37 180h174q59 0 85.5 -24.5t26.5 -63.5q0 -18 -2 -28l-14 -66h418l-35 -170h-590l27 129q2 6 2 19q0 25 -35 24h-94z" />
<glyph unicode="&#xe4a;" d="M-811 1350q0 33 10 80q23 113 93.5 178t160.5 65q61 0 91 -21.5t42 -62.5q59 80 166 80q137 0 137 -119q0 -31 -8 -63l-20 -101h26q29 0 43.5 14.5t20.5 47.5l47 213h143l-47 -219q-20 -92 -82.5 -144.5t-161.5 -52.5h-153l39 178q4 25 4 31q0 51 -47 51 q-39 0 -55.5 -19.5t-24.5 -64.5l-8 -37h-119l6 35q6 23 6 41q0 45 -47 45q-37 0 -59.5 -23.5t-32.5 -76.5q-6 -27 -6 -55q0 -59 22 -105h-166q-20 48 -20 105z" />
<glyph unicode="&#xe4b;" d="M-434 1333l41 197h127l18 88h250l-20 -88h124l-40 -197h-125l-19 -88h-250l19 88h-125z" />
<glyph unicode="&#xe4c;" d="M-477 1245l26 131q18 88 72.5 131t155.5 43h450l-34 -166h-347q-35 0 -51 -14t-22 -49l-17 -76h-233z" />
<glyph unicode="&#xe4d;" d="M-311 1397q0 25 6 49q23 104 101.5 169.5t183.5 65.5q82 0 134 -54t52 -134q0 -31 -4 -47q-23 -102 -99.5 -168t-181.5 -66q-84 0 -138 52.5t-54 132.5zM-160 1423q0 -31 17.5 -50t52.5 -19q33 0 65.5 27.5t38.5 62.5q2 8 2 24q0 66 -67 66q-43 0 -76 -35t-33 -76z" />
<glyph unicode="&#xe4e;" d="M-399 1380q0 10 4 39q16 80 71.5 125t133.5 51q-16 23 -17 52q0 80 62.5 127t150.5 47q76 0 121 -29l-25 -111q-33 31 -92 31q-37 0 -55 -13t-18 -44q0 -41 61 -53l-23 -109q-43 14 -84 14q-57 0 -86.5 -18.5t-37.5 -61.5q-8 -35 15 -52t68 -17q74 0 123 35l-24 -113 q-55 -35 -164 -35q-88 0 -136 36t-48 99z" />
<glyph unicode="&#xe4f;" horiz-adv-x="1204" d="M70 373q0 47 14 119q31 147 125 267t228 187.5t278 67.5q125 0 221 -51.5t148.5 -143.5t52.5 -211q0 -55 -13 -116q-33 -147 -127 -267.5t-227 -188t-278 -67.5q-123 0 -219.5 51.5t-149.5 142.5t-53 210zM252 391q0 -115 70.5 -180.5t207.5 -65.5q148 0 265.5 97.5 t150.5 249.5q10 55 10 94q0 117 -71.5 183.5t-208.5 66.5q-147 0 -263 -96.5t-149 -247.5q-12 -51 -12 -101zM311 424q0 35 8 68q27 127 125.5 206.5t221.5 79.5q104 0 168.5 -61.5t64.5 -161.5q0 -29 -6 -63q-27 -127 -126 -207t-222 -80q-105 0 -169.5 59.5t-64.5 159.5z M471 451q0 -43 26.5 -67t80.5 -24q65 0 112 48.5t47 121.5q0 92 -104 93q-66 0 -114 -48.5t-48 -123.5z" />
<glyph unicode="&#xe50;" horiz-adv-x="1323" d="M70 371q0 45 14 121q33 156 127 274.5t238.5 183t324.5 64.5q225 0 353 -108.5t128 -295.5q0 -57 -12 -118q-51 -240 -233.5 -381.5t-458.5 -141.5q-223 0 -352 108.5t-129 293.5zM336 395q0 -106 65.5 -164.5t192.5 -58.5q139 0 247.5 86t139.5 234q10 55 10 90 q0 109 -66.5 169t-193.5 60q-137 0 -245.5 -87t-139.5 -232q-10 -43 -10 -97z" />
<glyph unicode="&#xe51;" horiz-adv-x="1282" d="M88 469q0 35 10 90q45 213 215 334t418 121q233 0 358 -107.5t125 -292.5q0 -63 -14 -127q-53 -254 -241.5 -416.5t-563.5 -250.5l47 219q231 51 343 152.5t151 289.5q14 59 14 119q0 106 -62.5 158.5t-199.5 52.5q-135 0 -220 -66.5t-108 -183.5q-8 -33 -8 -67 q0 -70 44 -105t141 -35q94 0 168 35l-41 -188q-41 -23 -101.5 -36t-126.5 -13q-152 0 -250 86t-98 231z" />
<glyph unicode="&#xe52;" horiz-adv-x="1495" d="M113 381q0 63 14 127l131 618h229l-129 -606q-14 -66 -14 -127q0 -115 78 -170t260 -55q193 0 308.5 74.5t144.5 212.5l55 260q4 25 4 35q0 55 -57 55q-76 0 -133 -119h-154l2 41q0 41 -13.5 62.5t-50.5 21.5q-41 0 -74.5 -39t-49.5 -123q-8 -49 -9 -65q0 -57 32 -86 t99 -29q88 0 142 18l-41 -196q-43 -12 -77 -16.5t-87 -4.5q-129 0 -211 71t-82 204q0 49 12 104q20 90 68.5 174t124.5 137.5t168 53.5q137 0 166 -125q39 57 103.5 91t139.5 34q111 0 166.5 -50.5t55.5 -142.5q0 -43 -9 -82l-61 -295q-47 -219 -240.5 -347t-484.5 -128 q-233 0 -379.5 104.5t-146.5 307.5z" />
<glyph unicode="&#xe53;" horiz-adv-x="1366" d="M63 328q0 61 17 147q57 272 180 405.5t334 133.5q137 0 182 -103q47 47 119 75t145 28q123 0 191.5 -60.5t68.5 -162.5q0 -39 -8 -72l-151 -719h-232l148 694q4 29 4 41q0 39 -22.5 57.5t-71.5 18.5q-104 0 -129 -109l-70 -333h-209l70 333q6 29 6 48q0 31 -17.5 46 t-56.5 15q-84 0 -133 -81t-88 -259q-16 -86 -16 -135q0 -86 37.5 -125t113.5 -39q43 0 93 6t79 17l-43 -203q-98 -23 -198 -23q-154 0 -248.5 93.5t-94.5 265.5z" />
<glyph unicode="&#xe54;" horiz-adv-x="1300" d="M68 362q0 61 14 121q51 240 226 393.5t480 153.5q133 0 198 8.5t100.5 34t64.5 82.5h250q-72 -166 -202 -246t-345 -80q-236 0 -353.5 -77.5t-158.5 -270.5q-14 -76 -14 -110q0 -92 53 -130t168 -38h78q-23 25 -35 62.5t-12 78.5q0 16 4 45q25 127 133 198.5t258 71.5 q66 0 126 -10t99 -28l-43 -203q-55 39 -153 39q-147 0 -175 -123q-4 -25 -4 -33q0 -98 142 -98h190l-43 -203h-600q-203 0 -324.5 92t-121.5 270z" />
<glyph unicode="&#xe55;" horiz-adv-x="1300" d="M68 362q0 61 14 121q45 213 193.5 351.5t353.5 169.5q-6 18 -6 47q0 14 4 39q20 100 85.5 150t168.5 50q80 0 126 -40t46 -103q0 -12 -4 -41q-6 -35 -29 -68q63 4 98 32t60 85h223q-70 -168 -198 -246t-349 -78q-229 0 -350 -79.5t-162 -270.5q-14 -76 -14 -110 q0 -92 53 -130t168 -38h78q-23 25 -35 62.5t-12 78.5q0 16 4 45q25 127 133 198.5t258 71.5q66 0 126 -10t99 -28l-43 -203q-55 39 -153 39q-147 0 -175 -123q-4 -25 -4 -33q0 -98 142 -98h190l-43 -203h-600q-203 0 -324.5 92t-121.5 270zM762 1067q0 -27 15.5 -43 t43.5 -16q39 0 64.5 22.5t34.5 59.5q2 6 2 18q0 27 -17.5 44t-48.5 17q-37 0 -61.5 -22.5t-30.5 -56.5q-2 -8 -2 -23z" />
<glyph unicode="&#xe56;" horiz-adv-x="1329" d="M156 94l47 217q141 -139 375 -139q160 0 267 80t140 233q14 63 14 125q0 100 -56 150.5t-185 50.5q-115 0 -218.5 -61.5t-166.5 -176.5h-178l-17 555h215l10 -303q78 90 191 139.5t244 49.5q213 0 319.5 -103.5t106.5 -279.5q0 -63 -17 -146q-51 -233 -226 -374.5 t-470 -141.5q-125 0 -231.5 32t-163.5 93z" />
<glyph unicode="&#xe57;" horiz-adv-x="1718" d="M63 334q0 59 17 141q57 270 183 404.5t331 134.5q137 0 182 -103q47 47 119 75t145 28q121 0 189.5 -64.5t68.5 -165.5q0 -31 -6 -65l-110 -520q70 0 111.5 30.5t60.5 108.5l166 788h211l-158 -747q-43 -205 -159 -292t-322 -87h-183l148 694q6 29 6 47q0 37 -22.5 53.5 t-73.5 16.5q-104 0 -129 -109l-70 -333h-209l70 333q6 29 6 48q0 31 -17.5 46t-56.5 15q-147 0 -221 -340q-18 -88 -18 -145q0 -84 36.5 -119t116.5 -35q43 0 93 6t79 17l-43 -203q-98 -23 -198 -23q-150 0 -246.5 95.5t-96.5 269.5z" />
<glyph unicode="&#xe58;" horiz-adv-x="1359" d="M57 293q0 84 21 178q51 242 227 400.5t483 158.5q133 0 198 8.5t100.5 34t64.5 82.5h250q-78 -164 -207 -245t-340 -81q-236 0 -356.5 -86t-161.5 -274q-23 -113 -23 -174q0 -66 22.5 -96.5t67.5 -30.5q59 0 89 29.5t43 89.5l18 82h242l-19 -82q-4 -29 -4 -41 q0 -78 84 -78q57 0 98 46t62 134q8 33 8 66q0 45 -24.5 66.5t-77.5 21.5q-78 0 -127 -21l41 197q74 27 178 27q109 0 177.5 -68t68.5 -191q0 -55 -11 -98q-39 -180 -151.5 -279.5t-263.5 -99.5q-63 0 -122 27t-96 74q-45 -47 -117.5 -74t-150.5 -27q-135 0 -213 82t-78 242z " />
<glyph unicode="&#xe59;" horiz-adv-x="1490" d="M63 334q0 61 17 139q55 268 185 404.5t341 136.5q74 0 123 -29t72 -67q39 41 100.5 68.5t124.5 27.5q82 0 131 -28t76 -85l135 225h217l-358 -594h-201l66 109q27 41 26 84q0 39 -24.5 62.5t-73.5 23.5q-68 0 -101.5 -36t-33.5 -97q0 -20 2 -31l61 -647h-217l-63 670 q-6 55 -12.5 81.5t-28 43t-64.5 16.5q-74 0 -133 -87t-94 -251q-16 -68 -17 -133q0 -168 158 -168q70 0 129 21l-43 -203q-88 -20 -176 -21q-86 0 -159.5 42t-119 125t-45.5 198z" />
<glyph unicode="&#xe5a;" horiz-adv-x="1773" d="M94 705q0 39 8 71q35 164 156 257t281 93q123 0 190 -26l-43 -197q-57 20 -117 21q-168 0 -200 -148q-6 -25 -7 -43q0 -53 40 -76.5t126 -23.5q145 0 265 72l81 391h261l-93 -432q43 -31 132 -31q145 0 264 72l82 391h260l-232 -1096h-260l105 498q-135 -68 -287 -68 q-27 0 -61.5 5t-47.5 11l-94 -446h-260l105 498q-135 -68 -326 -68q-137 0 -232.5 72.5t-95.5 202.5z" />
<glyph unicode="&#xe5b;" horiz-adv-x="2330" d="M68 360q0 63 14 127q49 236 209 381.5t401 145.5q170 0 268.5 -81t98.5 -224q0 -53 -10 -97q-41 -184 -155 -274t-280 -90q-121 0 -184 43l41 194q27 -20 69 -32.5t87 -12.5q88 0 144 41t75 133q8 33 8 70q0 68 -45 102.5t-152 34.5q-133 0 -235.5 -88t-136.5 -246 q-12 -55 -13 -102q0 -113 73 -168t226 -55q240 0 372 113.5t183 353.5l41 198h238l14 -278h4l93 250h204l4 -262h5l81 221h156l29 -226h4l57 97h223l-36 -172h-156l-80 -142h-121l-26 183h-5l-114 -234h-142l-30 262h-4l-138 -305h-145l-10 287h-4q-47 -254 -242 -396.5 t-496 -142.5q-208 0 -335 101.5t-127 289.5z" />
<glyph unicode="&#x1e0c;" horiz-adv-x="1445" d="M20 0l304 1432h479q195 0 336 -69t216 -195t75 -291q0 -80 -15 -154q-70 -358 -308.5 -540.5t-608.5 -182.5h-478zM276 -258q0 66 53.5 115t116.5 49q47 0 77 -31t30 -76q0 -66 -51 -116t-115 -50q-49 0 -80 31t-31 78zM326 215h200q260 0 418 133t209 375q18 84 18 154 q0 162 -98 251t-307 89h-227z" />
<glyph unicode="&#x1e0d;" horiz-adv-x="1361" d="M70 369q0 57 12 120q33 156 122 275t220 184.5t289 65.5q119 0 205 -31t149 -96l133 626h258l-321 -1513h-250l22 115q-94 -78 -193.5 -112t-226.5 -34q-122 0 -217.5 49.5t-148.5 139.5t-53 211zM334 403q0 -109 66.5 -170t195.5 -61q111 0 209 59.5t156 159.5l43 199 q-10 100 -85 160.5t-186 60.5q-145 0 -251.5 -89t-137.5 -233q-10 -51 -10 -86zM356 -258q0 66 53.5 115t116.5 49q47 0 77 -31t30 -76q0 -66 -51.5 -116t-114.5 -50q-49 0 -80 31t-31 78z" />
<glyph unicode="&#x1e0e;" horiz-adv-x="1445" d="M20 0l304 1432h479q195 0 336 -69t216 -195t75 -291q0 -80 -15 -154q-70 -358 -308.5 -540.5t-608.5 -182.5h-478zM104 -309l37 170h660l-37 -170h-660zM326 215h200q260 0 418 133t209 375q18 84 18 154q0 162 -98 251t-307 89h-227z" />
<glyph unicode="&#x1e0f;" horiz-adv-x="1361" d="M70 369q0 57 12 120q33 156 122 275t220 184.5t289 65.5q119 0 205 -31t149 -96l133 626h258l-321 -1513h-250l22 115q-94 -78 -193.5 -112t-226.5 -34q-122 0 -217.5 49.5t-148.5 139.5t-53 211zM197 -309l36 170h660l-37 -170h-659zM334 403q0 -109 66.5 -170 t195.5 -61q111 0 209 59.5t156 159.5l43 199q-10 100 -85 160.5t-186 60.5q-145 0 -251.5 -89t-137.5 -233q-10 -51 -10 -86z" />
<glyph unicode="&#x1e20;" horiz-adv-x="1460" d="M111 537q0 88 20 178q49 229 182 398t325.5 259t416.5 90q293 0 465 -137l-54 -248q-78 76 -182 112t-256 36q-242 0 -414 -138.5t-221 -371.5q-18 -82 -18 -158q0 -170 104.5 -262t319.5 -92q154 0 270 53l68 322h-242l45 206h502l-142 -667q-123 -76 -261 -112 t-302 -36q-184 0 -326.5 68.5t-221 196.5t-78.5 303zM698 1540l37 172h660l-37 -172h-660z" />
<glyph unicode="&#x1e21;" horiz-adv-x="1361" d="M72 375q0 57 12 119q49 240 217 380t412 140q123 0 210 -36t148 -110l25 115h250l-197 -924q-55 -266 -221 -398t-479 -132q-101 0 -199 18.5t-156 49.5l43 204q145 -70 346 -69q182 0 276.5 73.5t125.5 227.5l12 63q-82 -63 -184.5 -95t-214.5 -32q-123 0 -219.5 50.5 t-151.5 142.5t-55 213zM336 397q0 -109 65.5 -167t194.5 -58q111 0 211 60.5t154 160.5l43 199q-14 102 -84 160.5t-187 58.5q-150 0 -253 -86t-134 -231q-10 -43 -10 -97zM440 1116l37 172h660l-37 -172h-660z" />
<glyph unicode="&#x1e24;" horiz-adv-x="1452" d="M20 0l304 1432h260l-127 -594h688l127 594h258l-303 -1432h-258l131 623h-688l-131 -623h-261zM436 -258q0 66 53.5 115t116.5 49q47 0 77 -31t30 -76q0 -66 -51.5 -116t-114.5 -50q-49 0 -80 31t-31 78z" />
<glyph unicode="&#x1e25;" horiz-adv-x="1249" d="M20 0l322 1513h258l-139 -655q170 156 393 156q158 0 240 -85t82 -216q0 -41 -11 -92l-131 -621h-258l129 618q8 39 8 74q0 61 -35.5 90t-115.5 29q-90 0 -184.5 -42t-163.5 -126l-135 -643h-259zM336 -258q0 66 53 115t117 49q47 0 76.5 -31t29.5 -76q0 -66 -51 -116 t-115 -50q-49 0 -79.5 31t-30.5 78z" />
<glyph unicode="&#x1e2a;" horiz-adv-x="1452" d="M20 0l304 1432h260l-127 -594h688l127 594h258l-303 -1432h-258l131 623h-688l-131 -623h-261zM260 -197q0 41 8 76h185q-4 -29 -4 -41q0 -96 110 -96q63 0 105.5 35t56.5 102h205q-29 -139 -135.5 -224t-258.5 -85q-131 0 -201.5 62.5t-70.5 170.5z" />
<glyph unicode="&#x1e2b;" horiz-adv-x="1249" d="M20 0l322 1513h258l-139 -655q170 156 393 156q158 0 240 -85t82 -216q0 -41 -11 -92l-131 -621h-258l129 618q8 39 8 74q0 61 -35.5 90t-115.5 29q-90 0 -184.5 -42t-163.5 -126l-135 -643h-259zM174 -197q0 41 8 76h185q-4 -29 -5 -41q0 -96 111 -96q63 0 105.5 35 t56.5 102h205q-29 -139 -135.5 -224t-258.5 -85q-131 0 -201.5 62.5t-70.5 170.5z" />
<glyph unicode="&#x1e36;" horiz-adv-x="1112" d="M20 0l304 1432h260l-258 -1217h688l-45 -215h-949zM246 -258q0 66 53 115t117 49q47 0 76.5 -31t29.5 -76q0 -66 -51 -116t-115 -50q-49 0 -79.5 31t-30.5 78z" />
<glyph unicode="&#x1e37;" horiz-adv-x="503" d="M-37 -258q0 66 53.5 115t116.5 49q47 0 77 -31t30 -76q0 -66 -51.5 -116t-114.5 -50q-49 0 -80 31t-31 78zM20 0l322 1513h258l-321 -1513h-259z" />
<glyph unicode="&#x1e38;" horiz-adv-x="1146" d="M55 0l303 1432h260l-258 -1217h689l-45 -215h-949zM328 1540l37 172h659l-37 -172h-659zM330 -258q0 66 53 115t117 49q47 0 76.5 -31t29.5 -76q0 -66 -51 -116t-115 -50q-49 0 -79.5 31t-30.5 78z" />
<glyph unicode="&#x1e39;" horiz-adv-x="503" d="M-37 -258q0 66 53.5 115t116.5 49q47 0 77 -31t30 -76q0 -66 -51.5 -116t-114.5 -50q-49 0 -80 31t-31 78zM20 0l322 1513h258l-321 -1513h-259zM113 1569l37 172h659l-37 -172h-659z" />
<glyph unicode="&#x1e3a;" horiz-adv-x="1112" d="M20 0l304 1432h260l-258 -1217h688l-45 -215h-949zM88 -309l37 170h659l-36 -170h-660z" />
<glyph unicode="&#x1e3b;" horiz-adv-x="503" d="M-246 -309l37 170h660l-37 -170h-660zM20 0l322 1513h258l-321 -1513h-259z" />
<glyph unicode="&#x1e42;" horiz-adv-x="1712" d="M20 0l304 1432h243l256 -1049l703 1049h264l-303 -1432h-246l197 930l-623 -930h-123l-229 930l-197 -930h-246zM567 -258q0 66 53.5 115t116.5 49q47 0 77 -31t30 -76q0 -66 -51.5 -116t-114.5 -50q-49 0 -80 31t-31 78z" />
<glyph unicode="&#x1e43;" horiz-adv-x="1785" d="M20 0l209 983h242l-29 -129q84 78 180.5 119t186.5 41q113 0 174 -39t82 -113q82 74 183.5 113t193.5 39q143 0 210.5 -65.5t67.5 -184.5q0 -51 -12 -113l-137 -651h-248l129 616q10 55 10 84q0 59 -31.5 85t-101.5 26q-143 0 -254 -113q-6 -47 -18 -106l-125 -592h-250 l131 621q10 57 10 88q0 55 -27.5 78.5t-93.5 23.5q-72 0 -147.5 -40t-146.5 -118l-138 -653h-250zM625 -258q0 66 53 115t117 49q47 0 76.5 -31t29.5 -76q0 -66 -51 -116t-115 -50q-49 0 -79.5 31t-30.5 78z" />
<glyph unicode="&#x1e44;" horiz-adv-x="1421" d="M20 0l304 1432h245l459 -998l211 998h260l-303 -1432h-246l-458 999l-211 -999h-261zM786 1649q0 66 53.5 114.5t116.5 48.5q47 0 78 -30.5t31 -77.5q0 -66 -52 -115t-116 -49q-49 0 -80 31t-31 78z" />
<glyph unicode="&#x1e45;" horiz-adv-x="1249" d="M20 0l209 983h250l-28 -133q86 78 193.5 121t209.5 43q158 0 240 -83t82 -214q0 -41 -11 -96l-131 -621h-258l125 596q10 51 10 82q0 68 -38.5 100.5t-124.5 32.5q-88 0 -175.5 -42t-158.5 -126l-135 -643h-259zM598 1225q0 66 53.5 115t116.5 49q47 0 78 -31t31 -78 q0 -66 -52.5 -115t-115.5 -49q-50 0 -80.5 31t-30.5 78z" />
<glyph unicode="&#x1e46;" horiz-adv-x="1421" d="M20 0l304 1432h245l459 -998l211 998h260l-303 -1432h-246l-458 999l-211 -999h-261zM424 -258q0 66 53 115t117 49q47 0 76.5 -31t29.5 -76q0 -66 -51 -116t-114 -50q-50 0 -80.5 31t-30.5 78z" />
<glyph unicode="&#x1e47;" horiz-adv-x="1249" d="M20 0l209 983h250l-28 -133q86 78 193.5 121t209.5 43q158 0 240 -83t82 -214q0 -41 -11 -96l-131 -621h-258l125 596q10 51 10 82q0 68 -38.5 100.5t-124.5 32.5q-88 0 -175.5 -42t-158.5 -126l-135 -643h-259zM336 -258q0 66 53 115t117 49q47 0 76.5 -31t29.5 -76 q0 -66 -51 -116t-115 -50q-49 0 -79.5 31t-30.5 78z" />
<glyph unicode="&#x1e48;" horiz-adv-x="1421" d="M20 0l304 1432h245l459 -998l211 998h260l-303 -1432h-246l-458 999l-211 -999h-261zM225 -309l37 170h660l-37 -170h-660z" />
<glyph unicode="&#x1e49;" horiz-adv-x="1249" d="M20 0l209 983h250l-28 -133q86 78 193.5 121t209.5 43q158 0 240 -83t82 -214q0 -41 -11 -96l-131 -621h-258l125 596q10 51 10 82q0 68 -38.5 100.5t-124.5 32.5q-88 0 -175.5 -42t-158.5 -126l-135 -643h-259zM156 -309l37 170h659l-37 -170h-659z" />
<glyph unicode="&#x1e5a;" horiz-adv-x="1298" d="M20 0l304 1432h598q201 0 307 -84t106 -246q0 -61 -14 -125q-35 -158 -136.5 -269.5t-254.5 -156.5l176 -551h-266l-166 524h-283l-110 -524h-261zM336 -258q0 66 53 115t117 49q47 0 76.5 -31t29.5 -76q0 -66 -51 -116t-115 -50q-49 0 -79.5 31t-30.5 78zM436 739h291 q143 0 225 57.5t109 180.5q10 47 10 78q0 88 -57.5 125t-171.5 37h-303z" />
<glyph unicode="&#x1e5b;" horiz-adv-x="833" d="M-53 -258q0 66 53 115t117 49q47 0 76.5 -31t29.5 -76q0 -66 -51 -116t-115 -50q-49 0 -79.5 31t-30.5 78zM20 0l209 983h250l-35 -158q76 80 195 119t260 39l-43 -197q-150 0 -269.5 -46t-183.5 -144l-124 -596h-259z" />
<glyph unicode="&#x1e5c;" horiz-adv-x="1298" d="M20 0l304 1432h598q201 0 307 -84t106 -246q0 -61 -14 -125q-35 -158 -136.5 -269.5t-254.5 -156.5l176 -551h-266l-166 524h-283l-110 -524h-261zM295 -258q0 66 53 115t117 49q47 0 76.5 -31t29.5 -76q0 -66 -51 -116t-114 -50q-50 0 -80.5 31t-30.5 78zM436 739h291 q143 0 225 57.5t109 180.5q10 47 10 78q0 88 -57.5 125t-171.5 37h-303zM436 1540l37 172h660l-37 -172h-660z" />
<glyph unicode="&#x1e5d;" horiz-adv-x="888" d="M8 -258q0 66 53.5 115t116.5 49q47 0 77 -31t30 -76q0 -66 -51.5 -116t-114.5 -50q-49 0 -80 31t-31 78zM76 0l209 983h250l-35 -158q76 80 194.5 119t259.5 39l-43 -197q-150 0 -269.5 -46t-182.5 -144l-125 -596h-258zM238 1116l36 172h660l-37 -172h-659z" />
<glyph unicode="&#x1e5e;" horiz-adv-x="1298" d="M20 0l304 1432h598q201 0 307 -84t106 -246q0 -61 -14 -125q-35 -158 -136.5 -269.5t-254.5 -156.5l176 -551h-266l-166 524h-283l-110 -524h-261zM125 -309l37 170h659l-37 -170h-659zM436 739h291q143 0 225 57.5t109 180.5q10 47 10 78q0 88 -57.5 125t-171.5 37h-303 z" />
<glyph unicode="&#x1e5f;" horiz-adv-x="833" d="M-133 -309l37 170h659l-37 -170h-659zM20 0l209 983h250l-35 -158q76 80 195 119t260 39l-43 -197q-150 0 -269.5 -46t-183.5 -144l-124 -596h-259z" />
<glyph unicode="&#x1e60;" horiz-adv-x="1161" d="M-10 55l47 224q184 -98 416 -99q141 0 222 51.5t99 141.5q6 25 6 47q0 68 -58 109.5t-216 111.5q-143 63 -220 148t-77 200q0 43 8 78q25 117 108 207t207.5 139t274.5 49q123 0 215 -19.5t174 -60.5l-47 -217q-160 86 -342 86q-131 0 -212 -48t-101 -136q-6 -25 -7 -47 q0 -47 28 -80t78 -60.5t161 -76.5q158 -72 234.5 -150t76.5 -194q0 -33 -10 -88q-41 -193 -197 -297.5t-432 -104.5q-127 0 -246 23.5t-190 62.5zM666 1649q0 66 53 114.5t117 48.5q47 0 77.5 -30.5t30.5 -77.5q0 -66 -52 -115t-116 -49q-49 0 -79.5 31t-30.5 78z" />
<glyph unicode="&#x1e61;" horiz-adv-x="1021" d="M0 61l47 220q70 -49 173.5 -79t201.5 -30t147 17.5t60 64.5q2 8 2 20q0 43 -48 68t-182 64q-141 41 -208.5 99t-67.5 150q0 29 6 62q31 147 164 222t332 75q98 0 195.5 -20.5t150.5 -53.5l-45 -211q-55 35 -139 58.5t-173 23.5q-100 0 -155 -19.5t-68 -74.5q-2 -6 -2 -19 q0 -29 25.5 -48t83 -37.5t127.5 -37.5q147 -41 208.5 -101t61.5 -148q0 -31 -6 -68q-27 -139 -141.5 -214t-354.5 -75q-106 0 -221 24.5t-174 67.5zM485 1225q0 66 53.5 115t116.5 49q47 0 78 -31t31 -78q0 -66 -52.5 -115t-115.5 -49q-49 0 -80 31t-31 78z" />
<glyph unicode="&#x1e62;" horiz-adv-x="1161" d="M-10 55l47 224q184 -98 416 -99q141 0 222 51.5t99 141.5q6 25 6 47q0 68 -58 109.5t-216 111.5q-143 63 -220 148t-77 200q0 43 8 78q25 117 108 207t207.5 139t274.5 49q123 0 215 -19.5t174 -60.5l-47 -217q-160 86 -342 86q-131 0 -212 -48t-101 -136q-6 -25 -7 -47 q0 -47 28 -80t78 -60.5t161 -76.5q158 -72 234.5 -150t76.5 -194q0 -33 -10 -88q-41 -193 -197 -297.5t-432 -104.5q-127 0 -246 23.5t-190 62.5zM260 -258q0 66 53.5 115t116.5 49q47 0 77 -31t30 -76q0 -66 -51.5 -116t-114.5 -50q-49 0 -80 31t-31 78z" />
<glyph unicode="&#x1e63;" horiz-adv-x="1021" d="M0 61l47 220q70 -49 173.5 -79t201.5 -30t147 17.5t60 64.5q2 8 2 20q0 43 -48 68t-182 64q-141 41 -208.5 99t-67.5 150q0 29 6 62q31 147 164 222t332 75q98 0 195.5 -20.5t150.5 -53.5l-45 -211q-55 35 -139 58.5t-173 23.5q-100 0 -155 -19.5t-68 -74.5q-2 -6 -2 -19 q0 -29 25.5 -48t83 -37.5t127.5 -37.5q147 -41 208.5 -101t61.5 -148q0 -31 -6 -68q-27 -139 -141.5 -214t-354.5 -75q-106 0 -221 24.5t-174 67.5zM209 -258q0 66 53 115t117 49q47 0 76.5 -31t29.5 -76q0 -66 -51 -116t-115 -50q-49 0 -79.5 31t-30.5 78z" />
<glyph unicode="&#x1e6c;" horiz-adv-x="1206" d="M197 1217l45 215h1124l-45 -215h-432l-258 -1217h-260l258 1217h-432zM313 -258q0 66 53.5 115t116.5 49q47 0 77 -31t30 -76q0 -66 -51.5 -116t-114.5 -50q-49 0 -80 31t-31 78z" />
<glyph unicode="&#x1e6d;" horiz-adv-x="794" d="M104 786l43 197h148l61 295h258l-61 -295h235l-43 -197h-235l-94 -440q-10 -55 -10 -80q0 -51 28.5 -72.5t97.5 -21.5q72 0 140 29l-41 -197q-94 -35 -223 -35t-199 63.5t-70 180.5q0 45 13 100l100 473h-148zM180 -258q0 66 53.5 115t116.5 49q47 0 77 -31t30 -76 q0 -66 -51.5 -116t-114.5 -50q-49 0 -80 31t-31 78z" />
<glyph unicode="&#x1e6e;" horiz-adv-x="1206" d="M104 -309l37 170h660l-37 -170h-660zM197 1217l45 215h1124l-45 -215h-432l-258 -1217h-260l258 1217h-432z" />
<glyph unicode="&#x1e6f;" horiz-adv-x="817" d="M-74 -309l37 170h660l-37 -170h-660zM125 786l43 197h147l62 295h258l-62 -295h236l-43 -197h-236l-94 -440q-10 -55 -10 -80q0 -51 28.5 -72.5t98.5 -21.5q72 0 139 29l-41 -197q-94 -35 -223 -35t-198.5 63.5t-69.5 180.5q0 45 12 100l100 473h-147z" />
<glyph unicode="&#x1e80;" horiz-adv-x="2060" d="M295 1432h270l70 -1012l495 1012h201l66 -1012l499 1012h271l-711 -1432h-235l-76 995l-498 -995h-248zM981 1876h272l66 -356h-238z" />
<glyph unicode="&#x1e81;" horiz-adv-x="1699" d="M188 983h258l58 -666l340 666h225l53 -666l344 666h258l-530 -983h-231l-68 668l-350 -668h-244zM707 1452h272l65 -356h-237z" />
<glyph unicode="&#x1e82;" horiz-adv-x="2060" d="M295 1432h270l70 -1012l495 1012h201l66 -1012l499 1012h271l-711 -1432h-235l-76 995l-498 -995h-248zM1104 1520l217 356h272l-252 -356h-237z" />
<glyph unicode="&#x1e83;" horiz-adv-x="1699" d="M188 983h258l58 -666l340 666h225l53 -666l344 666h258l-530 -983h-231l-68 668l-350 -668h-244zM821 1096l217 356h273l-252 -356h-238z" />
<glyph unicode="&#x1e84;" horiz-adv-x="2060" d="M295 1432h270l70 -1012l495 1012h201l66 -1012l499 1012h271l-711 -1432h-235l-76 995l-498 -995h-248zM860 1649q0 63 53.5 113t114.5 50q47 0 78 -30.5t31 -77.5q0 -66 -52.5 -115t-115.5 -49q-47 0 -78 31t-31 78zM1343 1649q0 66 53.5 114.5t116.5 48.5 q47 0 78 -30.5t31 -77.5q0 -66 -52 -115t-116 -49q-49 0 -80 31t-31 78z" />
<glyph unicode="&#x1e85;" horiz-adv-x="1699" d="M188 983h258l58 -666l340 666h225l53 -666l344 666h258l-530 -983h-231l-68 668l-350 -668h-244zM590 1225q0 63 53 113.5t115 50.5q47 0 77.5 -31t30.5 -78q0 -66 -52 -115t-116 -49q-47 0 -77.5 31t-30.5 78zM1073 1225q0 66 53.5 115t116.5 49q47 0 78 -31t31 -78 q0 -66 -52.5 -115t-115.5 -49q-49 0 -80 31t-31 78z" />
<glyph unicode="&#x1e8e;" horiz-adv-x="1486" d="M295 1432h266l234 -637l514 637h284l-719 -887l-114 -545h-248l115 545zM811 1649q0 66 53.5 114.5t116.5 48.5q47 0 78 -30.5t31 -77.5q0 -66 -52.5 -115t-115.5 -49q-50 0 -80.5 31t-30.5 78z" />
<glyph unicode="&#x1e8f;" horiz-adv-x="1228" d="M-18 -403l43 204q145 -70 346 -69q178 0 267 72.5t134 228.5l35 127q-170 -164 -404 -164q-158 0 -239.5 79t-81.5 214q0 57 10 100l127 594h258l-121 -569q-10 -55 -10 -86q0 -68 39 -98.5t125 -30.5q88 0 175 42t159 126l131 616h258l-197 -924q-57 -266 -222 -398 t-478 -132q-100 0 -198.5 18.5t-155.5 49.5zM627 1225q0 66 53 115t117 49q47 0 77.5 -31t30.5 -78q0 -66 -52 -115t-116 -49q-49 0 -79.5 31t-30.5 78z" />
<glyph unicode="&#x1e92;" horiz-adv-x="1267" d="M-20 0l34 170l973 1047h-731l45 215h1049l-37 -170l-969 -1047h784l-45 -215h-1103zM365 -258q0 66 53 115t117 49q47 0 76.5 -31t29.5 -76q0 -66 -51 -116t-115 -50q-49 0 -79.5 31t-30.5 78z" />
<glyph unicode="&#x1e93;" horiz-adv-x="1026" d="M-20 0l32 162l656 624h-508l43 197h831l-35 -162l-653 -624h537l-41 -197h-862zM227 -258q0 66 53.5 115t116.5 49q47 0 77 -31t30 -76q0 -66 -51.5 -116t-114.5 -50q-49 0 -80 31t-31 78z" />
<glyph unicode="&#x1e97;" horiz-adv-x="794" d="M104 786l43 197h148l61 295h258l-61 -295h235l-43 -197h-235l-94 -440q-10 -55 -10 -80q0 -51 28.5 -72.5t97.5 -21.5q72 0 140 29l-41 -197q-94 -35 -223 -35t-199 63.5t-70 180.5q0 45 13 100l100 473h-148zM119 1466q0 63 53 113.5t115 50.5q47 0 77.5 -30.5 t30.5 -77.5q0 -66 -52 -115t-116 -49q-47 0 -77.5 30.5t-30.5 77.5zM602 1466q0 66 53.5 115t116.5 49q47 0 78 -30.5t31 -77.5q0 -66 -52.5 -115t-115.5 -49q-49 0 -80 30.5t-31 77.5z" />
<glyph unicode="&#x1e9e;" horiz-adv-x="1306" d="M10 0l199 940q51 248 207.5 385t408.5 137q207 0 314.5 -99t107.5 -257q0 -37 -6 -78l-266 -225q129 -23 188.5 -90.5t59.5 -177.5q0 -63 -15 -127q-43 -199 -189.5 -319t-371.5 -120q-174 0 -258 39l51 240q74 -43 199 -43q127 0 207 54t102 161q6 31 6 55 q0 170 -258 170h-88l33 146l334 282q-4 66 -55.5 109t-143.5 43q-115 0 -196.5 -71t-110.5 -206l-201 -948h-258z" />
<glyph unicode="&#x1ea0;" horiz-adv-x="1560" d="M-20 0l876 1432h252l268 -1432h-256l-61 330h-606l-199 -330h-274zM489 -258q0 66 53.5 115t116.5 49q47 0 77 -31t30 -76q0 -66 -51 -116t-115 -50q-49 0 -80 31t-31 78zM569 545h463l-102 608z" />
<glyph unicode="&#x1ea1;" horiz-adv-x="1351" d="M68 367q0 63 14 122q33 154 123 274t221 185.5t287 65.5q240 0 354 -127l20 96h259l-209 -983h-250l22 115q-80 -76 -182 -111t-238 -35q-122 0 -217.5 48.5t-149.5 138.5t-54 211zM334 395q0 -223 262 -223q111 0 209 59.5t156 159.5l43 199q-10 102 -80 161.5 t-191 59.5q-145 0 -252.5 -89t-136.5 -233q-10 -57 -10 -94zM463 -258q0 66 53 115t117 49q47 0 76.5 -31t29.5 -76q0 -66 -51 -116t-115 -50q-49 0 -79.5 31t-30.5 78z" />
<glyph unicode="&#x1ea2;" horiz-adv-x="1560" d="M-20 0l876 1432h252l268 -1432h-256l-61 330h-606l-199 -330h-274zM569 545h463l-102 608zM836 1823l28 135q102 29 207 29q123 0 185.5 -43t62.5 -117q0 -92 -62.5 -157.5t-169.5 -80.5l-14 -69h-225l33 151q92 0 143 22.5t63 78.5q2 6 3 18q0 31 -27 44t-86 13 q-27 0 -73 -8t-68 -16z" />
<glyph unicode="&#x1ea3;" horiz-adv-x="1351" d="M68 367q0 63 14 122q33 154 123 274t221 185.5t287 65.5q240 0 354 -127l20 96h259l-209 -983h-250l22 115q-80 -76 -182 -111t-238 -35q-122 0 -217.5 48.5t-149.5 138.5t-54 211zM334 395q0 -223 262 -223q111 0 209 59.5t156 159.5l43 199q-10 102 -80 161.5 t-191 59.5q-145 0 -252.5 -89t-136.5 -233q-10 -57 -10 -94zM750 1399l28 135q102 29 207 29q123 0 185.5 -43t62.5 -117q0 -92 -62.5 -157.5t-169.5 -80.5l-14 -69h-225l33 151q92 0 143 22.5t63 78.5q2 6 3 18q0 31 -27 44t-86 13q-27 0 -73 -8t-68 -16z" />
<glyph unicode="&#x1ea4;" horiz-adv-x="1560" d="M-20 0l876 1432h252l268 -1432h-256l-61 330h-606l-199 -330h-274zM569 545h463l-102 608zM608 1522l350 311h218l215 -311h-242l-111 172l-184 -172h-246zM1323 1724l178 263h240l-213 -263h-205z" />
<glyph unicode="&#x1ea5;" horiz-adv-x="1351" d="M68 367q0 63 14 122q33 154 123 274t221 185.5t287 65.5q240 0 354 -127l20 96h259l-209 -983h-250l22 115q-80 -76 -182 -111t-238 -35q-122 0 -217.5 48.5t-149.5 138.5t-54 211zM334 395q0 -223 262 -223q111 0 209 59.5t156 159.5l43 199q-10 102 -80 161.5 t-191 59.5q-145 0 -252.5 -89t-136.5 -233q-10 -57 -10 -94zM537 1096l350 311h217l215 -311h-242l-110 172l-185 -172h-245zM1251 1298l179 263h239l-213 -263h-205z" />
<glyph unicode="&#x1ea6;" horiz-adv-x="1560" d="M-20 0l876 1432h252l268 -1432h-256l-61 330h-606l-199 -330h-274zM457 1985h239l70 -263h-207zM569 545h463l-102 608zM610 1520l348 311h216l219 -311h-246l-109 172l-184 -172h-244z" />
<glyph unicode="&#x1ea7;" horiz-adv-x="1351" d="M68 367q0 63 14 122q33 154 123 274t221 185.5t287 65.5q240 0 354 -127l20 96h259l-209 -983h-250l22 115q-80 -76 -182 -111t-238 -35q-122 0 -217.5 48.5t-149.5 138.5t-54 211zM334 395q0 -223 262 -223q111 0 209 59.5t156 159.5l43 199q-10 102 -80 161.5 t-191 59.5q-145 0 -252.5 -89t-136.5 -233q-10 -57 -10 -94zM369 1561h239l70 -263h-207zM522 1096l348 311h215l220 -311h-246l-109 172l-184 -172h-244z" />
<glyph unicode="&#x1ea8;" horiz-adv-x="1560" d="M-20 0l876 1432h252l268 -1432h-256l-61 330h-606l-199 -330h-274zM569 545h463l-102 608zM608 1522l350 311h218l215 -311h-242l-111 172l-184 -172h-246zM1309 1905l20 100q31 10 73 16.5t79 6.5q80 0 126 -31t46 -84q0 -61 -46 -105.5t-118 -56.5l-10 -49h-160l20 102 q59 0 90 14.5t39 49.5q2 6 2 16q0 20 -18 28.5t-57 8.5q-49 0 -86 -16z" />
<glyph unicode="&#x1ea9;" horiz-adv-x="1351" d="M68 367q0 63 14 122q33 154 123 274t221 185.5t287 65.5q240 0 354 -127l20 96h259l-209 -983h-250l22 115q-80 -76 -182 -111t-238 -35q-122 0 -217.5 48.5t-149.5 138.5t-54 211zM334 395q0 -223 262 -223q111 0 209 59.5t156 159.5l43 199q-10 102 -80 161.5 t-191 59.5q-145 0 -252.5 -89t-136.5 -233q-10 -57 -10 -94zM510 1096l350 311h217l215 -311h-241l-111 172l-184 -172h-246zM1210 1479l21 100q31 10 73 16.5t78 6.5q80 0 126 -31t46 -84q0 -61 -46 -105.5t-117 -56.5l-11 -49h-159l20 102q59 0 90 14.5t39 49.5q2 6 2 16 q0 20 -18.5 28.5t-57.5 8.5q-49 0 -86 -16z" />
<glyph unicode="&#x1eaa;" horiz-adv-x="1560" d="M-20 0l876 1432h252l268 -1432h-256l-61 330h-606l-199 -330h-274zM569 545h463l-102 608zM610 1520l351 311h217l215 -311h-242l-111 172l-184 -172h-246zM764 1858l39 182q63 72 176 71q35 0 67.5 -11t81.5 -34q8 -4 39 -16t57.5 -19.5t49.5 -7.5q49 0 92 19.5t84 66.5 l-39 -184q-63 -70 -172 -70q-37 0 -70.5 11.5t-89.5 36.5q-45 20 -75.5 30.5t-61.5 10.5q-49 0 -91 -19.5t-87 -66.5z" />
<glyph unicode="&#x1eab;" horiz-adv-x="1351" d="M68 367q0 63 14 122q33 154 123 274t221 185.5t287 65.5q240 0 354 -127l20 96h259l-209 -983h-250l22 115q-80 -76 -182 -111t-238 -35q-122 0 -217.5 48.5t-149.5 138.5t-54 211zM334 395q0 -223 262 -223q111 0 209 59.5t156 159.5l43 199q-10 102 -80 161.5 t-191 59.5q-145 0 -252.5 -89t-136.5 -233q-10 -57 -10 -94zM520 1096l350 311h217l216 -311h-242l-111 172l-184 -172h-246zM674 1434l39 182q63 72 176 72q35 0 67.5 -11.5t81.5 -34.5q8 -4 39 -16t57.5 -19.5t49.5 -7.5q49 0 92 19.5t84 67.5l-39 -185q-63 -70 -172 -69 q-37 0 -71 11t-89 36q-45 20 -75.5 30.5t-61.5 10.5q-49 0 -91 -19.5t-87 -66.5z" />
<glyph unicode="&#x1eac;" horiz-adv-x="1560" d="M-20 0l876 1432h252l268 -1432h-256l-61 330h-606l-199 -330h-274zM492 -258q0 66 53 115t117 49q47 0 76.5 -31t29.5 -76q0 -66 -51 -116t-115 -50q-49 0 -79.5 31t-30.5 78zM545 1520l375 350h229l223 -350h-248l-112 202l-199 -202h-268zM569 545h463l-102 608z" />
<glyph unicode="&#x1ead;" horiz-adv-x="1351" d="M68 367q0 63 14 122q33 154 123 274t221 185.5t287 65.5q240 0 354 -127l20 96h259l-209 -983h-250l22 115q-80 -76 -182 -111t-238 -35q-122 0 -217.5 48.5t-149.5 138.5t-54 211zM334 395q0 -223 262 -223q111 0 209 59.5t156 159.5l43 199q-10 102 -80 161.5 t-191 59.5q-145 0 -252.5 -89t-136.5 -233q-10 -57 -10 -94zM440 1096l375 350h229l224 -350h-248l-113 202l-198 -202h-269zM457 -258q0 66 53 115t117 49q47 0 76.5 -31t29.5 -76q0 -66 -51 -116t-115 -50q-49 0 -79.5 31t-30.5 78z" />
<glyph unicode="&#x1eae;" horiz-adv-x="1560" d="M-20 0l876 1432h252l268 -1432h-256l-61 330h-606l-199 -330h-274zM569 545h463l-102 608zM737 1747q0 39 8 74h189q-4 -29 -4 -39q0 -94 108 -94q63 0 103.5 33.5t54.5 99.5h186q-29 -137 -130 -219t-251 -82q-127 0 -195.5 60t-68.5 167zM977 1829l162 258h204 l-190 -258h-176z" />
<glyph unicode="&#x1eaf;" horiz-adv-x="1351" d="M68 367q0 63 14 122q33 154 123 274t221 185.5t287 65.5q240 0 354 -127l20 96h259l-209 -983h-250l22 115q-80 -76 -182 -111t-238 -35q-122 0 -217.5 48.5t-149.5 138.5t-54 211zM334 395q0 -223 262 -223q111 0 209 59.5t156 159.5l43 199q-10 102 -80 161.5 t-191 59.5q-145 0 -252.5 -89t-136.5 -233q-10 -57 -10 -94zM649 1323q0 39 8 74h189q-4 -29 -4 -39q0 -94 108 -94q63 0 103.5 33.5t54.5 99.5h186q-29 -137 -130 -219t-251 -82q-127 0 -195.5 60.5t-68.5 166.5zM889 1405l162 258h204l-190 -258h-176z" />
<glyph unicode="&#x1eb0;" horiz-adv-x="1560" d="M-20 0l876 1432h252l268 -1432h-256l-61 330h-606l-199 -330h-274zM569 545h463l-102 608zM737 1747q0 39 8 74h189q-4 -29 -4 -39q0 -94 108 -94q63 0 103.5 33.5t54.5 99.5h186q-29 -137 -130 -219t-251 -82q-127 0 -195.5 60t-68.5 167zM899 2087h207l51 -258h-176z " />
<glyph unicode="&#x1eb1;" horiz-adv-x="1351" d="M68 367q0 63 14 122q33 154 123 274t221 185.5t287 65.5q240 0 354 -127l20 96h259l-209 -983h-250l22 115q-80 -76 -182 -111t-238 -35q-122 0 -217.5 48.5t-149.5 138.5t-54 211zM334 395q0 -223 262 -223q111 0 209 59.5t156 159.5l43 199q-10 102 -80 161.5 t-191 59.5q-145 0 -252.5 -89t-136.5 -233q-10 -57 -10 -94zM639 1323q0 39 8 74h189q-4 -29 -5 -39q0 -94 109 -94q63 0 103 33.5t55 99.5h186q-29 -137 -130 -219t-251 -82q-127 0 -195.5 60.5t-68.5 166.5zM801 1663h207l51 -258h-176z" />
<glyph unicode="&#x1eb2;" horiz-adv-x="1560" d="M-20 0l876 1432h252l268 -1432h-256l-61 330h-606l-199 -330h-274zM569 545h463l-102 608zM737 1747q0 39 8 74h185q-4 -29 -4 -39q0 -47 28.5 -73t81.5 -26q63 0 106.5 36t57.5 102h182q-29 -137 -130 -219t-251 -82q-127 0 -195.5 60t-68.5 167zM975 2009l20 100 q76 23 154 23q82 0 126 -30.5t44 -86.5q0 -61 -45 -104t-117 -56l-10 -49h-162l21 103q61 0 91.5 14t39.5 49q2 6 2 17q0 20 -18.5 28t-57.5 8q-51 0 -88 -16z" />
<glyph unicode="&#x1eb3;" horiz-adv-x="1351" d="M68 367q0 63 14 122q33 154 123 274t221 185.5t287 65.5q240 0 354 -127l20 96h259l-209 -983h-250l22 115q-80 -76 -182 -111t-238 -35q-122 0 -217.5 48.5t-149.5 138.5t-54 211zM334 395q0 -223 262 -223q111 0 209 59.5t156 159.5l43 199q-10 102 -80 161.5 t-191 59.5q-145 0 -252.5 -89t-136.5 -233q-10 -57 -10 -94zM641 1313q0 39 8 73h185q-4 -29 -5 -38q0 -47 29 -73t82 -26q63 0 106.5 36t57.5 101h182q-29 -137 -130 -219t-251 -82q-127 0 -195.5 60.5t-68.5 167.5zM879 1575l20 100q76 23 154 23q82 0 126 -31t44 -86 q0 -61 -45 -104t-117 -56l-10 -49h-162l20 103q61 0 92 14t39 49q2 6 2 16q0 20 -18 28.5t-57 8.5q-51 0 -88 -16z" />
<glyph unicode="&#x1eb4;" horiz-adv-x="1560" d="M-20 0l876 1432h252l268 -1432h-256l-61 330h-606l-199 -330h-274zM569 545h463l-102 608zM737 1747q0 39 8 74h189q-4 -29 -4 -39q0 -94 108 -94q63 0 103.5 33.5t54.5 99.5h186q-29 -137 -130 -219t-251 -82q-127 0 -195.5 60t-68.5 167zM766 1896l39 183q63 72 176 71 q35 0 67.5 -11t81.5 -34q8 -4 39 -16t57.5 -19.5t49.5 -7.5q98 0 176 86l-39 -184q-63 -70 -172 -70q-37 0 -70.5 11.5t-89.5 36.5q-45 20 -75.5 30t-61.5 10q-49 0 -91 -19t-87 -67z" />
<glyph unicode="&#x1eb5;" horiz-adv-x="1351" d="M68 367q0 63 14 122q33 154 123 274t221 185.5t287 65.5q240 0 354 -127l20 96h259l-209 -983h-250l22 115q-80 -76 -182 -111t-238 -35q-122 0 -217.5 48.5t-149.5 138.5t-54 211zM334 395q0 -223 262 -223q111 0 209 59.5t156 159.5l43 199q-10 102 -80 161.5 t-191 59.5q-145 0 -252.5 -89t-136.5 -233q-10 -57 -10 -94zM680 1323q0 39 8 74h189q-4 -29 -5 -39q0 -94 109 -94q63 0 103 33.5t55 99.5h186q-29 -137 -130 -219t-251 -82q-127 0 -195.5 60.5t-68.5 166.5zM709 1473l39 182q63 72 176 71q35 0 67.5 -11t81.5 -34 q8 -4 39 -16t57.5 -19.5t49.5 -7.5q98 0 176 86l-39 -184q-63 -70 -172 -70q-37 0 -71 11.5t-89 36.5q-45 20 -75.5 30.5t-61.5 10.5q-49 0 -91 -19.5t-87 -66.5z" />
<glyph unicode="&#x1eb6;" horiz-adv-x="1560" d="M-20 0l876 1432h252l268 -1432h-256l-61 330h-606l-199 -330h-274zM492 -258q0 66 53 115t117 49q47 0 76.5 -31t29.5 -76q0 -66 -51 -116t-115 -50q-49 0 -79.5 31t-30.5 78zM569 545h463l-102 608zM688 1751q0 43 8 78h183q-4 -29 -5 -41q0 -96 111 -96q66 0 108 34.5 t56 102.5h205q-29 -139 -135.5 -224t-260.5 -85q-131 0 -200.5 61t-69.5 170z" />
<glyph unicode="&#x1eb7;" horiz-adv-x="1351" d="M68 367q0 63 14 122q33 154 123 274t221 185.5t287 65.5q240 0 354 -127l20 96h259l-209 -983h-250l22 115q-80 -76 -182 -111t-238 -35q-122 0 -217.5 48.5t-149.5 138.5t-54 211zM334 395q0 -223 262 -223q111 0 209 59.5t156 159.5l43 199q-10 102 -80 161.5 t-191 59.5q-145 0 -252.5 -89t-136.5 -233q-10 -57 -10 -94zM471 -258q0 66 53.5 115t116.5 49q47 0 77 -31t30 -76q0 -66 -51.5 -116t-114.5 -50q-50 0 -80.5 31t-30.5 78zM598 1327q0 43 8 78h182q-4 -29 -4 -41q0 -96 111 -96q66 0 107.5 34.5t56.5 102.5h205 q-29 -139 -135.5 -224t-260.5 -85q-131 0 -200.5 61.5t-69.5 169.5z" />
<glyph unicode="&#x1eb8;" horiz-adv-x="1173" d="M20 0l304 1432h968l-45 -215h-708l-84 -394h526l-45 -215h-526l-84 -393h708l-45 -215h-969zM309 -258q0 66 53.5 115t116.5 49q47 0 77 -31t30 -76q0 -66 -51.5 -116t-114.5 -50q-49 0 -80 31t-31 78z" />
<glyph unicode="&#x1eb9;" horiz-adv-x="1247" d="M68 369q0 45 14 120q53 244 220 384.5t437 140.5q211 0 327 -108.5t116 -282.5q0 -53 -13 -113l-24 -119h-838l-2 -29q0 -100 80 -145t256 -45q94 0 196.5 16.5t182.5 44.5l-43 -198q-76 -29 -189.5 -47.5t-222.5 -18.5q-227 0 -362 105.5t-135 294.5zM344 567h594 q6 35 6 64q0 90 -61.5 135t-190.5 45q-135 0 -227 -65.5t-121 -178.5zM371 -258q0 66 53 115t117 49q47 0 76.5 -31t29.5 -76q0 -66 -51 -116t-115 -50q-49 0 -79.5 31t-30.5 78z" />
<glyph unicode="&#x1eba;" horiz-adv-x="1173" d="M20 0l304 1432h968l-45 -215h-708l-84 -394h526l-45 -215h-526l-84 -393h708l-45 -215h-969zM645 1823l29 135q102 29 207 29q123 0 185 -43t62 -117q0 -92 -62 -157.5t-169 -80.5l-14 -69h-226l33 151q92 0 143.5 22.5t63.5 78.5q2 6 2 18q0 31 -26.5 44t-86.5 13 q-27 0 -72.5 -8t-68.5 -16z" />
<glyph unicode="&#x1ebb;" horiz-adv-x="1247" d="M68 369q0 45 14 120q53 244 220 384.5t437 140.5q211 0 327 -108.5t116 -282.5q0 -53 -13 -113l-24 -119h-838l-2 -29q0 -100 80 -145t256 -45q94 0 196.5 16.5t182.5 44.5l-43 -198q-76 -29 -189.5 -47.5t-222.5 -18.5q-227 0 -362 105.5t-135 294.5zM344 567h594 q6 35 6 64q0 90 -61.5 135t-190.5 45q-135 0 -227 -65.5t-121 -178.5zM600 1399l29 135q102 29 207 29q123 0 185 -43t62 -117q0 -92 -62.5 -157.5t-168.5 -80.5l-14 -69h-226l33 151q92 0 143.5 22.5t63.5 78.5q2 6 2 18q0 31 -26.5 44t-86.5 13q-27 0 -72.5 -8t-68.5 -16z " />
<glyph unicode="&#x1ebc;" horiz-adv-x="1173" d="M20 0l304 1432h968l-45 -215h-708l-84 -394h526l-45 -215h-526l-84 -393h708l-45 -215h-969zM383 1520l45 211q86 88 223 88q45 0 84 -12.5t105 -39.5q51 -25 92 -38t86 -13q127 0 225 105l-45 -211q-80 -86 -221 -86q-51 0 -94 13t-103 40q-53 25 -90 37t-80 12 q-59 0 -114.5 -24.5t-112.5 -81.5z" />
<glyph unicode="&#x1ebd;" horiz-adv-x="1247" d="M68 369q0 45 14 120q53 244 220 384.5t437 140.5q211 0 327 -108.5t116 -282.5q0 -53 -13 -113l-24 -119h-838l-2 -29q0 -100 80 -145t256 -45q94 0 196.5 16.5t182.5 44.5l-43 -198q-76 -29 -189.5 -47.5t-222.5 -18.5q-227 0 -362 105.5t-135 294.5zM342 1096l45 211 q86 88 223 88q45 0 84 -12.5t105 -39.5q51 -25 92 -38t86 -13q127 0 225 105l-45 -211q-80 -86 -221 -86q-51 0 -94 13t-103 40q-53 25 -90 37t-80 12q-59 0 -114.5 -24.5t-112.5 -81.5zM344 567h594q6 35 6 64q0 90 -61.5 135t-190.5 45q-135 0 -227 -65.5t-121 -178.5z " />
<glyph unicode="&#x1ebe;" horiz-adv-x="1153" d="M20 0l304 1432h968l-45 -215h-708l-84 -394h526l-45 -215h-526l-84 -393h708l-45 -215h-969zM397 1520l351 311h217l215 -311h-242l-111 172l-184 -172h-246zM1112 1722l178 263h240l-213 -263h-205z" />
<glyph unicode="&#x1ebf;" horiz-adv-x="1247" d="M68 369q0 45 14 120q53 244 220 384.5t437 140.5q211 0 327 -108.5t116 -282.5q0 -53 -13 -113l-24 -119h-838l-2 -29q0 -100 80 -145t256 -45q94 0 196.5 16.5t182.5 44.5l-43 -198q-76 -29 -189.5 -47.5t-222.5 -18.5q-227 0 -362 105.5t-135 294.5zM344 567h594 q6 35 6 64q0 90 -61.5 135t-190.5 45q-135 0 -227 -65.5t-121 -178.5zM379 1096l350 311h217l215 -311h-241l-111 172l-184 -172h-246zM1094 1298l178 263h239l-213 -263h-204z" />
<glyph unicode="&#x1ec0;" horiz-adv-x="1153" d="M20 0l304 1432h968l-45 -215h-708l-84 -394h526l-45 -215h-526l-84 -393h708l-45 -215h-969zM289 1985h239l70 -263h-207zM442 1520l349 311h215l219 -311h-246l-109 172l-184 -172h-244z" />
<glyph unicode="&#x1ec1;" horiz-adv-x="1247" d="M68 369q0 45 14 120q53 244 220 384.5t437 140.5q211 0 327 -108.5t116 -282.5q0 -53 -13 -113l-24 -119h-838l-2 -29q0 -100 80 -145t256 -45q94 0 196.5 16.5t182.5 44.5l-43 -198q-76 -29 -189.5 -47.5t-222.5 -18.5q-227 0 -362 105.5t-135 294.5zM236 1561h239 l70 -263h-207zM344 567h594q6 35 6 64q0 90 -61.5 135t-190.5 45q-135 0 -227 -65.5t-121 -178.5zM389 1096l348 311h215l219 -311h-245l-109 172l-184 -172h-244z" />
<glyph unicode="&#x1ec2;" horiz-adv-x="1153" d="M20 0l304 1432h968l-45 -215h-708l-84 -394h526l-45 -215h-526l-84 -393h708l-45 -215h-969zM436 1520l350 311h218l215 -311h-242l-111 172l-184 -172h-246zM1137 1903l20 100q31 10 73 16t79 6q80 0 126 -30.5t46 -83.5q0 -61 -46 -105.5t-118 -56.5l-10 -49h-160 l20 102q59 0 90 14.5t39 49.5q2 6 2 16q0 20 -18 28.5t-57 8.5q-49 0 -86 -16z" />
<glyph unicode="&#x1ec3;" horiz-adv-x="1247" d="M68 369q0 45 14 120q53 244 220 384.5t437 140.5q211 0 327 -108.5t116 -282.5q0 -53 -13 -113l-24 -119h-838l-2 -29q0 -100 80 -145t256 -45q94 0 196.5 16.5t182.5 44.5l-43 -198q-76 -29 -189.5 -47.5t-222.5 -18.5q-227 0 -362 105.5t-135 294.5zM344 567h594 q6 35 6 64q0 90 -61.5 135t-190.5 45q-135 0 -227 -65.5t-121 -178.5zM369 1096l350 311h217l215 -311h-242l-110 172l-185 -172h-245zM1069 1479l21 100q31 10 72.5 16.5t78.5 6.5q80 0 126 -31t46 -84q0 -61 -46 -105.5t-118 -56.5l-10 -49h-160l21 102q59 0 90 14.5 t39 49.5q2 6 2 16q0 20 -18.5 28.5t-57.5 8.5q-49 0 -86 -16z" />
<glyph unicode="&#x1ec4;" horiz-adv-x="1173" d="M20 0l304 1432h968l-45 -215h-708l-84 -394h526l-45 -215h-526l-84 -393h708l-45 -215h-969zM442 1520l351 311h217l215 -311h-242l-111 172l-184 -172h-246zM596 1858l39 182q63 72 176 71q35 0 67.5 -11t82.5 -34q8 -4 38.5 -16t57 -19.5t49.5 -7.5q49 0 92 19.5 t84 66.5l-39 -184q-63 -70 -172 -70q-37 0 -70.5 11.5t-89.5 36.5q-45 20 -75.5 30.5t-61.5 10.5q-49 0 -91 -19.5t-87 -66.5z" />
<glyph unicode="&#x1ec5;" horiz-adv-x="1247" d="M68 369q0 45 14 120q53 244 220 384.5t437 140.5q211 0 327 -108.5t116 -282.5q0 -53 -13 -113l-24 -119h-838l-2 -29q0 -100 80 -145t256 -45q94 0 196.5 16.5t182.5 44.5l-43 -198q-76 -29 -189.5 -47.5t-222.5 -18.5q-227 0 -362 105.5t-135 294.5zM344 567h594 q6 35 6 64q0 90 -61.5 135t-190.5 45q-135 0 -227 -65.5t-121 -178.5zM362 1096l351 311h217l215 -311h-242l-110 172l-185 -172h-246zM516 1434l39 182q63 72 176 72q35 0 67.5 -11.5t82.5 -34.5q8 -4 38.5 -16t57.5 -19.5t49 -7.5q49 0 92 19.5t84 67.5l-39 -185 q-63 -70 -172 -69q-37 0 -70.5 11t-89.5 36q-45 20 -75.5 30.5t-61.5 10.5q-49 0 -91 -19.5t-87 -66.5z" />
<glyph unicode="&#x1ec6;" horiz-adv-x="1177" d="M25 0l303 1432h968l-45 -215h-708l-84 -394h526l-45 -215h-526l-84 -393h708l-45 -215h-968zM311 -258q0 66 53.5 115t116.5 49q47 0 77 -31t30 -76q0 -66 -51.5 -116t-114.5 -50q-49 0 -80 31t-31 78zM362 1520l375 350h230l223 -350h-248l-113 202l-198 -202h-269z" />
<glyph unicode="&#x1ec7;" horiz-adv-x="1247" d="M68 369q0 45 14 120q53 244 220 384.5t437 140.5q211 0 327 -108.5t116 -282.5q0 -53 -13 -113l-24 -119h-838l-2 -29q0 -100 80 -145t256 -45q94 0 196.5 16.5t182.5 44.5l-43 -198q-76 -29 -189.5 -47.5t-222.5 -18.5q-227 0 -362 105.5t-135 294.5zM313 1096l375 350 h230l223 -350h-248l-113 202l-198 -202h-269zM344 567h594q6 35 6 64q0 90 -61.5 135t-190.5 45q-135 0 -227 -65.5t-121 -178.5zM350 -258q0 66 53.5 115t116.5 49q47 0 77 -31t30 -76q0 -66 -51.5 -116t-114.5 -50q-49 0 -80 31t-31 78z" />
<glyph unicode="&#x1ec8;" horiz-adv-x="518" d="M27 0l303 1432h260l-303 -1432h-260zM311 1823l29 135q102 29 207 29q123 0 185.5 -43t62.5 -117q0 -92 -62.5 -157.5t-169.5 -80.5l-14 -69h-225l32 151q92 0 143.5 22.5t63.5 78.5q2 6 2 18q0 31 -26.5 44t-85.5 13q-27 0 -73 -8t-69 -16z" />
<glyph unicode="&#x1ec9;" horiz-adv-x="507" d="M20 0l209 983h263l-209 -983h-263zM219 1399l29 135q102 29 207 29q123 0 185 -43t62 -117q0 -92 -62 -157.5t-169 -80.5l-14 -69h-226l33 151q92 0 143.5 22.5t63.5 78.5q2 6 2 18q0 31 -26.5 44t-86.5 13q-27 0 -72.5 -8t-68.5 -16z" />
<glyph unicode="&#x1eca;" horiz-adv-x="518" d="M-31 -258q0 66 53.5 115t116.5 49q47 0 77 -31t30 -76q0 -66 -51.5 -116t-114.5 -50q-49 0 -80 31t-31 78zM27 0l303 1432h260l-303 -1432h-260z" />
<glyph unicode="&#x1ecb;" horiz-adv-x="538" d="M-20 -258q0 66 53 115t117 49q47 0 76.5 -31t29.5 -76q0 -66 -51 -116t-115 -50q-49 0 -79.5 31t-30.5 78zM35 0l209 983h262l-209 -983h-262zM291 1268q0 72 55 124t125 52q53 0 87 -32t34 -81q0 -72 -55.5 -124t-126.5 -52q-54 0 -86.5 32t-32.5 81z" />
<glyph unicode="&#x1ecc;" horiz-adv-x="1681" d="M111 539q0 74 20 176q47 221 178 391t323.5 263t416.5 93q180 0 320 -70.5t219 -201.5t79 -305q0 -80 -18 -170q-47 -221 -177.5 -390t-320.5 -262.5t-420 -93.5q-184 0 -324.5 70t-218 199t-77.5 301zM375 551q0 -346 407 -346q138 0 263.5 62.5t217 178t123.5 269.5 q18 86 19 157q0 170 -100.5 261.5t-305.5 91.5q-139 0 -266 -63.5t-217 -179.5t-123 -267q-18 -88 -18 -164zM551 -258q0 66 53 115t117 49q47 0 76.5 -31t29.5 -76q0 -66 -51 -116t-114 -50q-50 0 -80.5 31t-30.5 78z" />
<glyph unicode="&#x1ecd;" horiz-adv-x="1314" d="M70 371q0 45 14 121q49 242 230.5 382t455.5 140q217 0 347 -109.5t130 -298.5q0 -53 -12 -114q-53 -246 -233.5 -384.5t-454.5 -138.5q-215 0 -346 107.5t-131 294.5zM338 391q0 -104 61.5 -161.5t190.5 -57.5q141 0 244.5 89t134.5 231q12 55 12 104q0 215 -254 215 q-143 0 -244.5 -85t-132.5 -234q-12 -55 -12 -101zM369 -258q0 66 53 115t117 49q47 0 76.5 -31t29.5 -76q0 -66 -51 -116t-115 -50q-49 0 -79.5 31t-30.5 78z" />
<glyph unicode="&#x1ece;" horiz-adv-x="1681" d="M111 539q0 74 20 176q47 221 178 391t323.5 263t416.5 93q180 0 320 -70.5t219 -201.5t79 -305q0 -80 -18 -170q-47 -221 -177.5 -390t-320.5 -262.5t-420 -93.5q-184 0 -324.5 70t-218 199t-77.5 301zM375 551q0 -346 407 -346q138 0 263.5 62.5t217 178t123.5 269.5 q18 86 19 157q0 170 -100.5 261.5t-305.5 91.5q-139 0 -266 -63.5t-217 -179.5t-123 -267q-18 -88 -18 -164zM887 1823l28 135q102 29 207 29q123 0 185.5 -43t62.5 -117q0 -92 -62.5 -157.5t-168.5 -80.5l-15 -69h-225l33 151q92 0 143 22.5t64 78.5q2 6 2 18q0 31 -27 44 t-86 13q-27 0 -73 -8t-68 -16z" />
<glyph unicode="&#x1ecf;" horiz-adv-x="1314" d="M70 371q0 45 14 121q49 242 230.5 382t455.5 140q217 0 347 -109.5t130 -298.5q0 -53 -12 -114q-53 -246 -233.5 -384.5t-454.5 -138.5q-215 0 -346 107.5t-131 294.5zM338 391q0 -104 61.5 -161.5t190.5 -57.5q141 0 244.5 89t134.5 231q12 55 12 104q0 215 -254 215 q-143 0 -244.5 -85t-132.5 -234q-12 -55 -12 -101zM629 1399l28 135q102 29 207 29q123 0 185.5 -43t62.5 -117q0 -92 -62.5 -157.5t-168.5 -80.5l-15 -69h-225l33 151q92 0 143 22.5t64 78.5q2 6 2 18q0 31 -27 44t-86 13q-27 0 -73 -8t-68 -16z" />
<glyph unicode="&#x1ed0;" horiz-adv-x="1681" d="M111 539q0 74 20 176q47 221 178 391t323.5 263t416.5 93q180 0 320 -70.5t219 -201.5t79 -305q0 -80 -18 -170q-47 -221 -177.5 -390t-320.5 -262.5t-420 -93.5q-184 0 -324.5 70t-218 199t-77.5 301zM375 551q0 -346 407 -346q138 0 263.5 62.5t217 178t123.5 269.5 q18 86 19 157q0 170 -100.5 261.5t-305.5 91.5q-139 0 -266 -63.5t-217 -179.5t-123 -267q-18 -88 -18 -164zM696 1520l351 311h217l215 -311h-242l-111 172l-184 -172h-246zM1411 1722l178 263h240l-213 -263h-205z" />
<glyph unicode="&#x1ed1;" horiz-adv-x="1314" d="M70 371q0 45 14 121q49 242 230.5 382t455.5 140q217 0 347 -109.5t130 -298.5q0 -53 -12 -114q-53 -246 -233.5 -384.5t-454.5 -138.5q-215 0 -346 107.5t-131 294.5zM338 391q0 -104 61.5 -161.5t190.5 -57.5q141 0 244.5 89t134.5 231q12 55 12 104q0 215 -254 215 q-143 0 -244.5 -85t-132.5 -234q-12 -55 -12 -101zM395 1096l350 311h218l215 -311h-242l-111 172l-184 -172h-246zM1110 1298l178 263h240l-213 -263h-205z" />
<glyph unicode="&#x1ed2;" horiz-adv-x="1681" d="M111 539q0 74 20 176q47 221 178 391t323.5 263t416.5 93q180 0 320 -70.5t219 -201.5t79 -305q0 -80 -18 -170q-47 -221 -177.5 -390t-320.5 -262.5t-420 -93.5q-184 0 -324.5 70t-218 199t-77.5 301zM375 551q0 -346 407 -346q138 0 263.5 62.5t217 178t123.5 269.5 q18 86 19 157q0 170 -100.5 261.5t-305.5 91.5q-139 0 -266 -63.5t-217 -179.5t-123 -267q-18 -88 -18 -164zM528 1985h240l70 -263h-207zM682 1520l348 311h215l219 -311h-245l-109 172l-184 -172h-244z" />
<glyph unicode="&#x1ed3;" horiz-adv-x="1314" d="M70 371q0 45 14 121q49 242 230.5 382t455.5 140q217 0 347 -109.5t130 -298.5q0 -53 -12 -114q-53 -246 -233.5 -384.5t-454.5 -138.5q-215 0 -346 107.5t-131 294.5zM258 1561h240l69 -263h-207zM338 391q0 -104 61.5 -161.5t190.5 -57.5q141 0 244.5 89t134.5 231 q12 55 12 104q0 215 -254 215q-143 0 -244.5 -85t-132.5 -234q-12 -55 -12 -101zM412 1096l348 311h215l219 -311h-246l-108 172l-185 -172h-243z" />
<glyph unicode="&#x1ed4;" horiz-adv-x="1681" d="M111 539q0 74 20 176q47 221 178 391t323.5 263t416.5 93q180 0 320 -70.5t219 -201.5t79 -305q0 -80 -18 -170q-47 -221 -177.5 -390t-320.5 -262.5t-420 -93.5q-184 0 -324.5 70t-218 199t-77.5 301zM375 551q0 -346 407 -346q138 0 263.5 62.5t217 178t123.5 269.5 q18 86 19 157q0 170 -100.5 261.5t-305.5 91.5q-139 0 -266 -63.5t-217 -179.5t-123 -267q-18 -88 -18 -164zM696 1520l351 311h217l215 -311h-242l-111 172l-184 -172h-246zM1397 1903l20 100q31 10 73 16t79 6q80 0 126 -30.5t46 -83.5q0 -61 -46 -105.5t-118 -56.5 l-10 -49h-160l20 102q59 0 90 14.5t39 49.5q2 6 3 16q0 20 -18.5 28.5t-57.5 8.5q-49 0 -86 -16z" />
<glyph unicode="&#x1ed5;" horiz-adv-x="1314" d="M70 371q0 45 14 121q49 242 230.5 382t455.5 140q217 0 347 -109.5t130 -298.5q0 -53 -12 -114q-53 -246 -233.5 -384.5t-454.5 -138.5q-215 0 -346 107.5t-131 294.5zM338 391q0 -104 61.5 -161.5t190.5 -57.5q141 0 244.5 89t134.5 231q12 55 12 104q0 215 -254 215 q-143 0 -244.5 -85t-132.5 -234q-12 -55 -12 -101zM397 1096l351 311h217l215 -311h-242l-111 172l-184 -172h-246zM1098 1479l20 100q31 10 73 16.5t79 6.5q80 0 126 -31t46 -84q0 -61 -46 -105.5t-118 -56.5l-10 -49h-160l20 102q59 0 90 14.5t39 49.5q2 6 3 16 q0 20 -18.5 28.5t-57.5 8.5q-49 0 -86 -16z" />
<glyph unicode="&#x1ed6;" horiz-adv-x="1681" d="M111 539q0 74 20 176q47 221 178 391t323.5 263t416.5 93q180 0 320 -70.5t219 -201.5t79 -305q0 -80 -18 -170q-47 -221 -177.5 -390t-320.5 -262.5t-420 -93.5q-184 0 -324.5 70t-218 199t-77.5 301zM375 551q0 -346 407 -346q138 0 263.5 62.5t217 178t123.5 269.5 q18 86 19 157q0 170 -100.5 261.5t-305.5 91.5q-139 0 -266 -63.5t-217 -179.5t-123 -267q-18 -88 -18 -164zM797 1747q0 39 8 74h188q-4 -29 -4 -39q0 -94 109 -94q63 0 103 33.5t54 99.5h187q-29 -137 -130.5 -219t-250.5 -82q-127 0 -195.5 60t-68.5 167zM825 1896 l39 183q63 72 176 71q35 0 68 -11t82 -34q8 -4 39 -16t57.5 -19.5t48.5 -7.5q98 0 176 86l-38 -184q-63 -70 -173 -70q-36 0 -70 11.5t-89 36.5q-45 20 -76 30t-61 10q-49 0 -91.5 -19t-87.5 -67z" />
<glyph unicode="&#x1ed7;" horiz-adv-x="1314" d="M70 371q0 45 14 121q49 242 230.5 382t455.5 140q217 0 347 -109.5t130 -298.5q0 -53 -12 -114q-53 -246 -233.5 -384.5t-454.5 -138.5q-215 0 -346 107.5t-131 294.5zM338 391q0 -104 61.5 -161.5t190.5 -57.5q141 0 244.5 89t134.5 231q12 55 12 104q0 215 -254 215 q-143 0 -244.5 -85t-132.5 -234q-12 -55 -12 -101zM524 1323q0 39 8 74h189q-4 -29 -4 -39q0 -94 108 -94q63 0 103.5 33.5t54.5 99.5h186q-29 -137 -130 -219t-251 -82q-126 0 -195 60.5t-69 166.5zM553 1473l39 182q63 72 176 71q35 0 67.5 -11t82.5 -34q8 -4 38.5 -16 t57 -19.5t49.5 -7.5q98 0 176 86l-39 -184q-63 -70 -172 -70q-37 0 -70.5 11.5t-89.5 36.5q-45 20 -75.5 30.5t-61.5 10.5q-49 0 -91 -19.5t-87 -66.5z" />
<glyph unicode="&#x1ed8;" horiz-adv-x="1681" d="M111 539q0 74 20 176q47 221 178 391t323.5 263t416.5 93q180 0 320 -70.5t219 -201.5t79 -305q0 -80 -18 -170q-47 -221 -177.5 -390t-320.5 -262.5t-420 -93.5q-184 0 -324.5 70t-218 199t-77.5 301zM375 551q0 -346 407 -346q138 0 263.5 62.5t217 178t123.5 269.5 q18 86 19 157q0 170 -100.5 261.5t-305.5 91.5q-139 0 -266 -63.5t-217 -179.5t-123 -267q-18 -88 -18 -164zM553 -258q0 66 53 115t117 49q47 0 76.5 -31t29.5 -76q0 -66 -51 -116t-114 -50q-50 0 -80.5 31t-30.5 78zM604 1520l375 350h229l224 -350h-248l-113 202 l-199 -202h-268z" />
<glyph unicode="&#x1ed9;" horiz-adv-x="1314" d="M70 371q0 45 14 121q49 242 230.5 382t455.5 140q217 0 347 -109.5t130 -298.5q0 -53 -12 -114q-53 -246 -233.5 -384.5t-454.5 -138.5q-215 0 -346 107.5t-131 294.5zM332 1096l375 350h229l223 -350h-248l-112 202l-199 -202h-268zM338 391q0 -104 61.5 -161.5 t190.5 -57.5q141 0 244.5 89t134.5 231q12 55 12 104q0 215 -254 215q-143 0 -244.5 -85t-132.5 -234q-12 -55 -12 -101zM369 -258q0 66 53 115t117 49q47 0 76.5 -31t29.5 -76q0 -66 -51 -116t-115 -50q-49 0 -79.5 31t-30.5 78z" />
<glyph unicode="&#x1eda;" horiz-adv-x="1785" d="M111 539q0 74 20 176q47 221 178 391t323.5 263t416.5 93q145 0 265 -47t204 -133q104 0 148 37t67 139l14 72h240l-19 -86q-29 -129 -118 -225.5t-216 -128.5q33 -98 33 -205q0 -80 -18 -170q-47 -221 -177.5 -390t-320.5 -262.5t-420 -93.5q-184 0 -324.5 70t-218 199 t-77.5 301zM375 551q0 -346 407 -346q138 0 263.5 62.5t217 178t123.5 269.5q18 86 19 157q0 170 -100.5 261.5t-305.5 91.5q-139 0 -266 -63.5t-217 -179.5t-123 -267q-18 -88 -18 -164zM909 1520l217 356h273l-252 -356h-238z" />
<glyph unicode="&#x1edb;" horiz-adv-x="1413" d="M70 371q0 45 14 121q49 242 230.5 382t455.5 140q111 0 202 -31t154 -88q150 25 183 176l14 72h209l-19 -86q-23 -111 -99.5 -195t-188.5 -119q23 -68 22 -139q0 -53 -12 -112q-53 -246 -233.5 -384.5t-454.5 -138.5q-215 0 -346 107.5t-131 294.5zM338 391 q0 -102 61.5 -160.5t190.5 -58.5q141 0 245.5 89t133.5 231q12 59 12 106q0 213 -254 213q-143 0 -243.5 -85t-133.5 -234q-12 -51 -12 -101zM612 1096l217 356h273l-252 -356h-238z" />
<glyph unicode="&#x1edc;" horiz-adv-x="1785" d="M111 539q0 74 20 176q47 221 178 391t323.5 263t416.5 93q145 0 265 -47t204 -133q104 0 148 37t67 139l14 72h240l-19 -86q-29 -129 -118 -225.5t-216 -128.5q33 -98 33 -205q0 -80 -18 -170q-47 -221 -177.5 -390t-320.5 -262.5t-420 -93.5q-184 0 -324.5 70t-218 199 t-77.5 301zM375 551q0 -346 407 -346q138 0 263.5 62.5t217 178t123.5 269.5q18 86 19 157q0 170 -100.5 261.5t-305.5 91.5q-139 0 -266 -63.5t-217 -179.5t-123 -267q-18 -88 -18 -164zM782 1876h273l65 -356h-237z" />
<glyph unicode="&#x1edd;" horiz-adv-x="1413" d="M70 371q0 45 14 121q49 242 230.5 382t455.5 140q111 0 202 -31t154 -88q150 25 183 176l14 72h209l-19 -86q-23 -111 -99.5 -195t-188.5 -119q23 -68 22 -139q0 -53 -12 -112q-53 -246 -233.5 -384.5t-454.5 -138.5q-215 0 -346 107.5t-131 294.5zM338 391 q0 -102 61.5 -160.5t190.5 -58.5q141 0 245.5 89t133.5 231q12 59 12 106q0 213 -254 213q-143 0 -243.5 -85t-133.5 -234q-12 -51 -12 -101zM518 1452h273l65 -356h-238z" />
<glyph unicode="&#x1ede;" horiz-adv-x="1785" d="M111 539q0 74 20 176q47 221 178 391t323.5 263t416.5 93q145 0 265 -47t204 -133q104 0 148 37t67 139l14 72h240l-19 -86q-29 -129 -118 -225.5t-216 -128.5q33 -98 33 -205q0 -80 -18 -170q-47 -221 -177.5 -390t-320.5 -262.5t-420 -93.5q-184 0 -324.5 70t-218 199 t-77.5 301zM375 551q0 -346 407 -346q138 0 263.5 62.5t217 178t123.5 269.5q18 86 19 157q0 170 -100.5 261.5t-305.5 91.5q-139 0 -266 -63.5t-217 -179.5t-123 -267q-18 -88 -18 -164zM893 1823l29 135q102 29 206 29q123 0 185.5 -43t62.5 -117q0 -92 -62.5 -157.5 t-168.5 -80.5l-15 -69h-225l33 151q92 0 143.5 22.5t63.5 78.5q2 6 2 18q0 31 -26.5 44t-86.5 13q-27 0 -73 -8t-68 -16z" />
<glyph unicode="&#x1edf;" horiz-adv-x="1413" d="M70 371q0 45 14 121q49 242 230.5 382t455.5 140q111 0 202 -31t154 -88q150 25 183 176l14 72h209l-19 -86q-23 -111 -99.5 -195t-188.5 -119q23 -68 22 -139q0 -53 -12 -112q-53 -246 -233.5 -384.5t-454.5 -138.5q-215 0 -346 107.5t-131 294.5zM338 391 q0 -102 61.5 -160.5t190.5 -58.5q141 0 245.5 89t133.5 231q12 59 12 106q0 213 -254 213q-143 0 -243.5 -85t-133.5 -234q-12 -51 -12 -101zM600 1399l29 135q102 29 207 29q123 0 185 -43t62 -117q0 -92 -62.5 -157.5t-168.5 -80.5l-14 -69h-226l33 151q92 0 143.5 22.5 t63.5 78.5q2 6 2 18q0 31 -26.5 44t-86.5 13q-27 0 -72.5 -8t-68.5 -16z" />
<glyph unicode="&#x1ee0;" horiz-adv-x="1785" d="M111 539q0 74 20 176q47 221 178 391t323.5 263t416.5 93q145 0 265 -47t204 -133q104 0 148 37t67 139l14 72h240l-19 -86q-29 -129 -118 -225.5t-216 -128.5q33 -98 33 -205q0 -80 -18 -170q-47 -221 -177.5 -390t-320.5 -262.5t-420 -93.5q-184 0 -324.5 70t-218 199 t-77.5 301zM375 551q0 -346 407 -346q138 0 263.5 62.5t217 178t123.5 269.5q18 86 19 157q0 170 -100.5 261.5t-305.5 91.5q-139 0 -266 -63.5t-217 -179.5t-123 -267q-18 -88 -18 -164zM651 1520l45 211q86 88 224 88q45 0 83.5 -12.5t104.5 -39.5q51 -25 92 -38t86 -13 q127 0 225 105l-45 -211q-80 -86 -221 -86q-51 0 -94 13t-102 40q-53 25 -90 37t-80 12q-59 0 -114.5 -24.5t-113.5 -81.5z" />
<glyph unicode="&#x1ee1;" horiz-adv-x="1413" d="M70 371q0 45 14 121q49 242 230.5 382t455.5 140q111 0 202 -31t154 -88q150 25 183 176l14 72h209l-19 -86q-23 -111 -99.5 -195t-188.5 -119q23 -68 22 -139q0 -53 -12 -112q-53 -246 -233.5 -384.5t-454.5 -138.5q-215 0 -346 107.5t-131 294.5zM338 391 q0 -102 61.5 -160.5t190.5 -58.5q141 0 245.5 89t133.5 231q12 59 12 106q0 213 -254 213q-143 0 -243.5 -85t-133.5 -234q-12 -51 -12 -101zM344 1122l45 211q86 88 223 88q45 0 84 -12t105 -39q51 -25 92 -38t86 -13q127 0 225 104l-45 -211q-80 -86 -221 -86 q-51 0 -94 13.5t-103 40.5q-53 25 -90 37t-80 12q-59 0 -114.5 -24.5t-112.5 -82.5z" />
<glyph unicode="&#x1ee2;" horiz-adv-x="1785" d="M111 539q0 74 20 176q47 221 178 391t323.5 263t416.5 93q145 0 265 -47t204 -133q104 0 148 37t67 139l14 72h240l-19 -86q-29 -129 -118 -225.5t-216 -128.5q33 -98 33 -205q0 -80 -18 -170q-47 -221 -177.5 -390t-320.5 -262.5t-420 -93.5q-184 0 -324.5 70t-218 199 t-77.5 301zM375 551q0 -346 407 -346q138 0 263.5 62.5t217 178t123.5 269.5q18 86 19 157q0 170 -100.5 261.5t-305.5 91.5q-139 0 -266 -63.5t-217 -179.5t-123 -267q-18 -88 -18 -164zM539 -258q0 66 53 115t117 49q47 0 76.5 -31t29.5 -76q0 -66 -51 -116t-115 -50 q-49 0 -79.5 31t-30.5 78z" />
<glyph unicode="&#x1ee3;" horiz-adv-x="1413" d="M70 371q0 45 14 121q49 242 230.5 382t455.5 140q111 0 202 -31t154 -88q150 25 183 176l14 72h209l-19 -86q-23 -111 -99.5 -195t-188.5 -119q23 -68 22 -139q0 -53 -12 -112q-53 -246 -233.5 -384.5t-454.5 -138.5q-215 0 -346 107.5t-131 294.5zM338 391 q0 -102 61.5 -160.5t190.5 -58.5q141 0 245.5 89t133.5 231q12 59 12 106q0 213 -254 213q-143 0 -243.5 -85t-133.5 -234q-12 -51 -12 -101zM356 -258q0 66 53.5 115t116.5 49q47 0 77 -31t30 -76q0 -66 -51.5 -116t-114.5 -50q-49 0 -80 31t-31 78z" />
<glyph unicode="&#x1ee4;" horiz-adv-x="1447" d="M113 420q0 72 14 137l186 875h260l-186 -879q-14 -63 -14 -119q0 -119 71.5 -174t221.5 -55q160 0 273.5 89t150.5 259l186 879h260l-186 -875q-125 -588 -736 -588q-157 0 -270 57.5t-172 160t-59 233.5zM434 -258q0 66 53.5 115t116.5 49q47 0 77 -31t30 -76 q0 -66 -51.5 -116t-114.5 -50q-49 0 -80 31t-31 78z" />
<glyph unicode="&#x1ee5;" horiz-adv-x="1249" d="M76 262q0 57 10 100l133 621h258l-127 -596q-10 -55 -10 -86q0 -68 39 -98.5t125 -30.5q88 0 175 42t159 126l137 643h258l-209 -983h-250l27 133q-86 -84 -191.5 -124t-212.5 -40q-157 0 -239 79t-82 214zM322 -258q0 66 53 115t117 49q47 0 76.5 -31t29.5 -76 q0 -66 -51 -116t-115 -50q-49 0 -79.5 31t-30.5 78z" />
<glyph unicode="&#x1ee6;" horiz-adv-x="1447" d="M113 420q0 72 14 137l186 875h260l-186 -879q-14 -63 -14 -119q0 -119 71.5 -174t221.5 -55q160 0 273.5 89t150.5 259l186 879h260l-186 -875q-125 -588 -736 -588q-157 0 -270 57.5t-172 160t-59 233.5zM758 1823l28 135q102 29 207 29q123 0 185.5 -43t62.5 -117 q0 -92 -62.5 -157.5t-168.5 -80.5l-15 -69h-225l33 151q92 0 143 22.5t64 78.5q2 6 2 18q0 31 -27 44t-86 13q-27 0 -73 -8t-68 -16z" />
<glyph unicode="&#x1ee7;" horiz-adv-x="1249" d="M76 262q0 57 10 100l133 621h258l-127 -596q-10 -55 -10 -86q0 -68 39 -98.5t125 -30.5q88 0 175 42t159 126l137 643h258l-209 -983h-250l27 133q-86 -84 -191.5 -124t-212.5 -40q-157 0 -239 79t-82 214zM563 1399l29 135q102 29 207 29q123 0 185.5 -43t62.5 -117 q0 -92 -62.5 -157.5t-169.5 -80.5l-14 -69h-226l33 151q92 0 143.5 22.5t63.5 78.5q2 6 2 18q0 31 -26.5 44t-85.5 13q-27 0 -73 -8t-69 -16z" />
<glyph unicode="&#x1ee8;" horiz-adv-x="1765" d="M113 420q0 72 14 137l186 875h260l-186 -879q-14 -63 -14 -119q0 -119 71.5 -174t221.5 -55q160 0 273.5 89t150.5 259l186 879h260l-33 -152q96 0 141.5 40t67.5 138l14 72h240l-18 -86q-35 -164 -157 -264.5t-331 -102.5l-110 -520q-125 -588 -736 -588 q-157 0 -270 57.5t-172 160t-59 233.5zM766 1520l217 356h272l-251 -356h-238z" />
<glyph unicode="&#x1ee9;" horiz-adv-x="1511" d="M76 262q0 57 10 100l133 621h258l-127 -596q-10 -55 -10 -86q0 -68 39 -98.5t125 -30.5q88 0 175 42t159 126l137 643h258l-21 -92q80 8 128.5 52t64.5 120l16 80h209l-18 -86q-31 -143 -139.5 -234.5t-294.5 -101.5l-154 -721h-250l27 133q-86 -84 -191.5 -124 t-212.5 -40q-157 0 -239 79t-82 214zM569 1096l217 356h273l-252 -356h-238z" />
<glyph unicode="&#x1eea;" horiz-adv-x="1765" d="M113 420q0 72 14 137l186 875h260l-186 -879q-14 -63 -14 -119q0 -119 71.5 -174t221.5 -55q160 0 273.5 89t150.5 259l186 879h260l-33 -152q96 0 141.5 40t67.5 138l14 72h240l-18 -86q-35 -164 -157 -264.5t-331 -102.5l-110 -520q-125 -588 -736 -588 q-157 0 -270 57.5t-172 160t-59 233.5zM690 1876h273l65 -356h-237z" />
<glyph unicode="&#x1eeb;" horiz-adv-x="1511" d="M76 262q0 57 10 100l133 621h258l-127 -596q-10 -55 -10 -86q0 -68 39 -98.5t125 -30.5q88 0 175 42t159 126l137 643h258l-21 -92q80 8 128.5 52t64.5 120l16 80h209l-18 -86q-31 -143 -139.5 -234.5t-294.5 -101.5l-154 -721h-250l27 133q-86 -84 -191.5 -124 t-212.5 -40q-157 0 -239 79t-82 214zM483 1452h273l65 -356h-237z" />
<glyph unicode="&#x1eec;" horiz-adv-x="1765" d="M113 420q0 72 14 137l186 875h260l-186 -879q-14 -63 -14 -119q0 -119 71.5 -174t221.5 -55q160 0 273.5 89t150.5 259l186 879h260l-33 -152q96 0 141.5 40t67.5 138l14 72h240l-18 -86q-35 -164 -157 -264.5t-331 -102.5l-110 -520q-125 -588 -736 -588 q-157 0 -270 57.5t-172 160t-59 233.5zM770 1823l29 135q102 29 207 29q123 0 185 -43t62 -117q0 -92 -62.5 -157.5t-168.5 -80.5l-14 -69h-226l33 151q92 0 143.5 22.5t63.5 78.5q2 6 2 18q0 31 -26.5 44t-86.5 13q-27 0 -72.5 -8t-68.5 -16z" />
<glyph unicode="&#x1eed;" horiz-adv-x="1511" d="M76 262q0 57 10 100l133 621h258l-127 -596q-10 -55 -10 -86q0 -68 39 -98.5t125 -30.5q88 0 175 42t159 126l137 643h258l-21 -92q80 8 128.5 52t64.5 120l16 80h209l-18 -86q-31 -143 -139.5 -234.5t-294.5 -101.5l-154 -721h-250l27 133q-86 -84 -191.5 -124 t-212.5 -40q-157 0 -239 79t-82 214zM561 1399l29 135q102 29 207 29q123 0 185 -43t62 -117q0 -92 -62 -157.5t-169 -80.5l-14 -69h-226l33 151q92 0 143.5 22.5t63.5 78.5q2 6 2 18q0 31 -26.5 44t-86.5 13q-27 0 -72.5 -8t-68.5 -16z" />
<glyph unicode="&#x1eee;" horiz-adv-x="1765" d="M113 420q0 72 14 137l186 875h260l-186 -879q-14 -63 -14 -119q0 -119 71.5 -174t221.5 -55q160 0 273.5 89t150.5 259l186 879h260l-33 -152q96 0 141.5 40t67.5 138l14 72h240l-18 -86q-35 -164 -157 -264.5t-331 -102.5l-110 -520q-125 -588 -736 -588 q-157 0 -270 57.5t-172 160t-59 233.5zM526 1520l45 211q86 88 224 88q45 0 84 -12.5t104 -39.5q51 -25 92 -38t86 -13q127 0 225 105l-45 -211q-80 -86 -221 -86q-51 0 -94 13t-102 40q-53 25 -90 37t-80 12q-59 0 -114.5 -24.5t-113.5 -81.5z" />
<glyph unicode="&#x1eef;" horiz-adv-x="1511" d="M76 262q0 57 10 100l133 621h258l-127 -596q-10 -55 -10 -86q0 -68 39 -98.5t125 -30.5q88 0 175 42t159 126l137 643h258l-21 -92q80 8 128.5 52t64.5 120l16 80h209l-18 -86q-31 -143 -139.5 -234.5t-294.5 -101.5l-154 -721h-250l27 133q-86 -84 -191.5 -124 t-212.5 -40q-157 0 -239 79t-82 214zM317 1096l45 211q86 88 224 88q45 0 84 -12.5t104 -39.5q51 -25 92 -38t86 -13q127 0 226 105l-45 -211q-80 -86 -222 -86q-51 0 -94 13t-102 40q-53 25 -90 37t-80 12q-59 0 -114.5 -24.5t-113.5 -81.5z" />
<glyph unicode="&#x1ef0;" horiz-adv-x="1765" d="M113 420q0 72 14 137l186 875h260l-186 -879q-14 -63 -14 -119q0 -119 71.5 -174t221.5 -55q160 0 273.5 89t150.5 259l186 879h260l-33 -152q96 0 141.5 40t67.5 138l14 72h240l-18 -86q-35 -164 -157 -264.5t-331 -102.5l-110 -520q-125 -588 -736 -588 q-157 0 -270 57.5t-172 160t-59 233.5zM428 -258q0 66 53.5 115t116.5 49q47 0 77 -31t30 -76q0 -66 -51.5 -116t-114.5 -50q-50 0 -80.5 31t-30.5 78z" />
<glyph unicode="&#x1ef1;" horiz-adv-x="1511" d="M76 262q0 57 10 100l133 621h258l-127 -596q-10 -55 -10 -86q0 -68 39 -98.5t125 -30.5q88 0 175 42t159 126l137 643h258l-21 -92q80 8 128.5 52t64.5 120l16 80h209l-18 -86q-31 -143 -139.5 -234.5t-294.5 -101.5l-154 -721h-250l27 133q-86 -84 -191.5 -124 t-212.5 -40q-157 0 -239 79t-82 214zM322 -258q0 66 53 115t117 49q47 0 76.5 -31t29.5 -76q0 -66 -51 -116t-115 -50q-49 0 -79.5 31t-30.5 78z" />
<glyph unicode="&#x1ef2;" horiz-adv-x="1486" d="M295 1432h266l234 -637l514 637h284l-719 -887l-114 -545h-248l115 545zM719 1876h272l66 -356h-238z" />
</font>
</defs>
</svg>
