<?xml version="1.0" standalone="no"?>
<!DOCTYPE svg PUBLIC "-//W3C//DTD SVG 1.1//EN" "http://www.w3.org/Graphics/SVG/1.1/DTD/svg11.dtd" >
<svg xmlns="http://www.w3.org/2000/svg" xmlns:xlink="http://www.w3.org/1999/xlink" version="1.1">
<metadata></metadata>
<defs>
<font id="promptextrabold" horiz-adv-x="0" >
<font-face units-per-em="2048" ascent="1536" descent="-512" />
<missing-glyph horiz-adv-x="655" />
<glyph unicode="fi" horiz-adv-x="1396" d="M10 733v250h137v119q0 133 60.5 228t166 144.5t236.5 49.5q113 0 197 -37v-287q-57 29 -129 29q-170 0 -170 -158v-88h735v-983h-360v733h-375v-733h-361v733h-137zM870 1303q0 80 55.5 134t135.5 54t136 -55.5t56 -132.5q0 -80 -56 -134.5t-136 -54.5q-82 0 -136.5 53.5 t-54.5 135.5z" />
<glyph unicode="fl" horiz-adv-x="1392" d="M10 733v250h137v123q0 133 60.5 227t166 142.5t236.5 48.5q113 0 197 -37v-287q-57 29 -129 29q-82 0 -126 -38t-44 -116v-92h381v500h360v-1483h-360v733h-381v-733h-361v733h-137z" />
<glyph unicode="&#xe24;&#xe45;" horiz-adv-x="1898" d="M41 807q260 319 657 319q203 0 340 -65q51 27 139.5 46t172.5 19q223 0 345 -118.5t122 -335.5v-1073h-410v1046q0 76 -32 115t-109 45q18 -63 18 -139v-1067h-410v1036q0 172 -178 172q-129 0 -215 -64l74 -127v-256q0 -43 19.5 -61t62.5 -18h90v-281h-319 q-127 0 -196 72.5t-69 199.5v353z" />
<glyph unicode="&#xe26;&#xe45;" horiz-adv-x="1912" d="M41 0v281h78q45 0 60.5 16t15.5 59v269l-144 182q115 152 284 235.5t376 83.5q203 0 340 -65q51 27 139 46t172 19q223 0 346 -118.5t123 -335.5v-1073h-412v1046q0 76 -31.5 115t-109.5 45q18 -63 18 -139v-1067h-409v1036q0 172 -178 172q-115 0 -205 -62l102 -129 v-342q0 -127 -68.5 -200.5t-195.5 -73.5h-301z" />
<glyph unicode=" "  horiz-adv-x="655" />
<glyph unicode="&#x09;" horiz-adv-x="655" />
<glyph unicode="&#xa0;" horiz-adv-x="655" />
<glyph unicode="!" horiz-adv-x="509" d="M41 180q0 90 61.5 150.5t153.5 60.5q88 0 150.5 -60.5t62.5 -150.5q0 -88 -62.5 -149.5t-150.5 -61.5q-92 0 -153.5 60.5t-61.5 150.5zM51 494v938h410v-938h-410z" />
<glyph unicode="&#x22;" horiz-adv-x="759" d="M41 999v433h297v-433h-297zM422 999v433h297v-433h-297z" />
<glyph unicode="#" horiz-adv-x="1603" d="M41 260v318h240l59 208h-211v316h299l94 330h373l-94 -330h241l95 330h374l-94 -330h146v-316h-234l-59 -208h203v-318h-291l-74 -260h-375l74 260h-242l-73 -260h-373l74 260h-152zM653 578h242l59 208h-241z" />
<glyph unicode="$" horiz-adv-x="1175" d="M41 70v374q113 -61 236.5 -91.5t232.5 -30.5q80 0 116 20t36 64q0 35 -22 59t-67 47t-149 68q-199 86 -288 190t-89 256q0 156 103.5 267.5t281.5 150.5v198h295v-184q170 -14 324 -86v-362q-184 98 -365 98q-80 0 -127 -23.5t-47 -68.5t44 -73t167 -77l39 -14 q145 -61 224 -120.5t114 -136.5t35 -194q0 -168 -101.5 -277.5t-306.5 -139.5v-195h-295v184q-115 10 -219 35t-172 62z" />
<glyph unicode="%" horiz-adv-x="1839" d="M41 1085q0 102 50 189.5t136 137.5t189 50q102 0 189 -50t137.5 -137t50.5 -190q0 -102 -50.5 -188t-137.5 -136t-189 -50q-103 0 -189 50t-136 136t-50 188zM287 1079q0 -55 36.5 -92t92.5 -37q55 0 92 37t37 92t-37 93t-92 38t-92 -37.5t-37 -93.5zM315 0l793 1432h418 l-793 -1432h-418zM1047 344q0 102 50 189.5t136 137.5t188 50t189.5 -50t137.5 -137.5t50 -189.5t-50 -188t-137 -136.5t-190 -50.5q-102 0 -188 50.5t-136 136.5t-50 188zM1292 338q0 -55 37 -92t92 -37q56 0 92.5 37t36.5 92t-36.5 93t-92.5 38q-55 0 -92 -38t-37 -93z " />
<glyph unicode="&#x26;" horiz-adv-x="1648" d="M41 379q0 133 58.5 226t187.5 175q-70 72 -105 145.5t-35 168.5q0 106 55.5 190t161 131t248.5 47q137 0 239.5 -48t157 -132t54.5 -188q0 -117 -49 -195t-160 -158l211 -200q29 63 29 215h350q0 -164 -22.5 -266.5t-80.5 -210.5l287 -279h-504l-92 84 q-74 -59 -184.5 -87t-269.5 -28q-244 0 -390.5 108.5t-146.5 301.5zM444 381q0 -63 45.5 -98t112.5 -35q123 0 189 63l-230 224q-61 -27 -89 -65t-28 -89zM516 1065q0 -35 20.5 -66.5t69.5 -74.5q58 39 81.5 69.5t23.5 71.5q0 51 -27 76.5t-72 25.5t-70.5 -25.5t-25.5 -76.5 z" />
<glyph unicode="'" horiz-adv-x="378" d="M41 999v433h297v-433h-297z" />
<glyph unicode="(" horiz-adv-x="784" d="M41 553q0 532 307 909h436q-311 -399 -311 -909t311 -909h-436q-307 377 -307 909z" />
<glyph unicode=")" horiz-adv-x="784" d="M0 -356q311 399 311 909t-311 909h436q307 -377 307 -909t-307 -909h-436z" />
<glyph unicode="*" horiz-adv-x="909" d="M41 1112l92 211l184 -66v175h275v-175l184 68l92 -213l-219 -76l144 -192l-211 -139l-125 174l-125 -177l-213 140l143 192z" />
<glyph unicode="+" horiz-adv-x="835" d="M41 465v317h213v193h326v-193h215v-317h-215v-193h-326v193h-213z" />
<glyph unicode="," horiz-adv-x="675" d="M41 -307l170 440h424l-221 -440h-373z" />
<glyph unicode="-" horiz-adv-x="835" d="M41 461v325h754v-325h-754z" />
<glyph unicode="." horiz-adv-x="366" d="M41 139q0 61 41 103.5t100 42.5t101.5 -42t42.5 -104q0 -57 -42 -98t-102 -41q-59 0 -100 40t-41 99z" />
<glyph unicode="/" horiz-adv-x="1085" d="M41 0l584 1462h419l-583 -1462h-420z" />
<glyph unicode="0" horiz-adv-x="1439" d="M41 715q0 231 83 400t235.5 258t359.5 89t360.5 -89t236.5 -258t83 -400t-84 -399.5t-237.5 -257.5t-358.5 -89t-357.5 89t-236.5 257t-84 400zM473 711q0 -164 63.5 -255t182.5 -91q121 0 184.5 91t63.5 255t-62.5 257t-183.5 93q-123 0 -185.5 -93.5t-62.5 -256.5z" />
<glyph unicode="1" horiz-adv-x="831" d="M41 772v397l356 263h353v-1432h-424v977z" />
<glyph unicode="2" horiz-adv-x="1198" d="M41 0v225l199 181q82 74 122 106q115 100 174.5 156.5t98.5 116t39 116.5q0 72 -47 116t-154 44q-98 0 -199.5 -37t-187.5 -102v401q94 66 224 102.5t274 36.5q164 0 283.5 -59.5t183 -162.5t63.5 -232q0 -168 -67.5 -286t-219.5 -253l-153 -137h483v-332h-1116z" />
<glyph unicode="3" horiz-adv-x="1191" d="M41 63v324q207 -96 420 -96q258 0 258 139q0 72 -60.5 102.5t-195.5 30.5h-209v316h199q225 0 225 133q0 63 -53.5 96t-149.5 33q-227 0 -409 -115v332q94 49 217 76.5t252 27.5q293 0 435 -114.5t142 -319.5q0 -86 -38 -166t-111 -141q100 -53 144 -131t44 -180 q0 -440 -629 -441q-139 0 -266 22.5t-215 71.5z" />
<glyph unicode="4" horiz-adv-x="1273" d="M0 279v253l672 900h403v-828h199v-325h-199v-279h-432v279h-643zM467 604h240v324z" />
<glyph unicode="5" horiz-adv-x="1198" d="M41 74v360q94 -63 213 -98t223 -35q129 0 187.5 45t58.5 125t-61.5 122t-174.5 42q-68 0 -146.5 -13.5t-135.5 -35.5l-154 88l58 758h956v-332h-555l-14 -176q82 20 182 20q229 0 354 -117.5t125 -343.5q0 -244 -166 -379t-493 -135q-127 0 -252 28t-205 77z" />
<glyph unicode="6" horiz-adv-x="1304" d="M41 639q0 256 96 442.5t264 283.5t381 97q158 0 281 -41v-350q-96 55 -248 55q-129 0 -219 -65.5t-113 -190.5q51 43 137.5 69t178.5 26q211 0 338 -126t127 -352q0 -147 -69 -264t-205 -185.5t-333 -68.5q-182 0 -321 82t-217 233.5t-78 354.5zM487 467q0 -76 48.5 -127 t123.5 -51q78 0 127.5 49t49.5 129q0 78 -49.5 128t-127.5 50q-74 0 -123 -50t-49 -128z" />
<glyph unicode="7" horiz-adv-x="1091" d="M20 1100v332h1051v-267l-532 -1165h-420l502 1100h-601z" />
<glyph unicode="8" horiz-adv-x="1296" d="M41 416q0 115 50 197.5t136 125.5q-70 57 -105.5 133t-35.5 166q0 201 151.5 312.5t411.5 111.5t410.5 -111.5t150.5 -312.5q0 -90 -35.5 -166.5t-105.5 -132.5q86 -43 136 -126t50 -197q0 -213 -164.5 -330t-441.5 -117q-278 0 -443 117t-165 330zM471 459 q0 -76 50 -123t128 -47t127 47t49 123q0 74 -50 122t-126 48t-127 -48.5t-51 -121.5zM496 989q0 -63 44 -105t109 -42q66 0 110 42t44 105q0 66 -44 109t-110 43t-109.5 -43t-43.5 -109z" />
<glyph unicode="9" horiz-adv-x="1304" d="M41 952q0 145 68.5 261t205 182.5t330.5 66.5q299 0 459 -179t160 -492q0 -262 -97.5 -447.5t-266.5 -280t-380 -94.5q-159 0 -280 39v350q102 -55 247 -55q131 0 223.5 64.5t112.5 189.5q-49 -41 -129 -65.5t-170 -24.5q-141 0 -250.5 57.5t-171 167t-61.5 260.5z M471 963q0 -78 49 -128.5t127 -50.5q76 0 125 49.5t49 129.5q0 76 -49 127t-125 51q-78 0 -127 -50.5t-49 -127.5z" />
<glyph unicode=":" horiz-adv-x="475" d="M41 207q0 82 57.5 139t139.5 57q80 0 138 -57t58 -139q0 -80 -58.5 -138.5t-137.5 -58.5q-82 0 -139.5 58.5t-57.5 138.5zM41 836q0 82 57.5 139t139.5 57q80 0 138 -57t58 -139q0 -80 -58.5 -138.5t-137.5 -58.5q-82 0 -139.5 58.5t-57.5 138.5z" />
<glyph unicode=";" horiz-adv-x="675" d="M41 -307l170 440h424l-221 -440h-373zM207 836q0 82 57.5 139t138.5 57q80 0 138.5 -57t58.5 -139q0 -80 -58.5 -138.5t-138.5 -58.5q-81 0 -138.5 58.5t-57.5 138.5z" />
<glyph unicode="&#x3c;" horiz-adv-x="1081" d="M41 524v287l999 489v-428l-458 -204l458 -207v-428z" />
<glyph unicode="=" horiz-adv-x="1038" d="M41 285v319h956v-319h-956zM41 752v319h956v-319h-956z" />
<glyph unicode="&#x3e;" horiz-adv-x="1081" d="M41 33v428l457 207l-457 204v428l999 -489v-287z" />
<glyph unicode="?" horiz-adv-x="1083" d="M41 1012v360q186 90 438 90q260 0 411.5 -106.5t151.5 -294.5q0 -102 -45 -168t-151 -139q-106 -74 -144 -116t-38 -110v-34h-410v38q0 98 37 178.5t112 133.5l60 39q68 43 94.5 70.5t26.5 64.5q0 92 -172 92q-190 0 -371 -98zM244 180q0 90 61.5 150.5t151.5 60.5 t152.5 -60.5t62.5 -150.5q0 -88 -62.5 -149.5t-152.5 -61.5t-151.5 60.5t-61.5 150.5z" />
<glyph unicode="@" horiz-adv-x="1847" d="M41 590q0 254 119 451.5t332 309t483 111.5q258 0 445.5 -85t286.5 -245.5t99 -386.5q0 -244 -112.5 -387t-311.5 -143q-70 0 -130 28.5t-87 75.5q-49 -49 -128 -76.5t-163 -27.5q-178 0 -291.5 92t-113.5 279q0 143 61.5 256.5t176 178t266.5 64.5q94 0 196.5 -23.5 t169.5 -64.5l-26 -481q-2 -47 13 -70.5t46 -23.5q57 0 87 89t30 234q0 229 -127 336t-389 107q-174 0 -314.5 -70.5t-221.5 -206t-81 -321.5q0 -236 145.5 -357.5t413.5 -121.5q201 0 351 49v-260q-154 -55 -351 -56q-264 0 -461.5 87t-305 255t-107.5 404zM801 606 q0 -72 25.5 -107.5t74.5 -35.5q115 0 119 117l14 239q-25 10 -69 10q-72 0 -118 -62t-46 -161z" />
<glyph unicode="A" horiz-adv-x="1634" d="M41 0l573 1432h408l571 -1432h-434l-106 272h-469l-109 -272h-434zM680 594h274l-137 401z" />
<glyph unicode="B" horiz-adv-x="1376" d="M82 0v1432h747q209 0 335 -103.5t126 -296.5q0 -86 -38 -161.5t-109 -122.5q100 -45 146 -119t46 -193q0 -133 -63.5 -232.5t-171 -151.5t-238.5 -52h-780zM506 301h237q84 0 123 30.5t39 106.5q0 74 -40 109t-126 35h-233v-281zM506 877h213q70 0 105.5 30.5t35.5 98.5 q0 70 -34.5 97t-108.5 27h-211v-253z" />
<glyph unicode="C" horiz-adv-x="1384" d="M41 715q0 229 96 398t274.5 259t415.5 90q154 0 275 -28.5t225 -92.5v-391q-90 70 -202.5 100.5t-260.5 30.5q-193 0 -292 -92t-99 -274t102.5 -275.5t288.5 -93.5q145 0 261 33t218 104v-389q-199 -125 -516 -125q-237 0 -415.5 90.5t-274.5 258t-96 397.5z" />
<glyph unicode="D" horiz-adv-x="1439" d="M82 0v1432h530q238 0 415 -86t274.5 -247t97.5 -376q0 -356 -211 -539.5t-580 -183.5h-526zM506 356h133q158 0 243 98.5t85 268.5q0 152 -86 252t-236 100h-139v-719z" />
<glyph unicode="E" horiz-adv-x="1140" d="M82 0v1432h1038v-357h-614v-196h442v-326h-442v-197h614v-356h-1038z" />
<glyph unicode="F" horiz-adv-x="1120" d="M82 0v1432h1038v-357h-614v-196h442v-326h-442v-553h-424z" />
<glyph unicode="G" horiz-adv-x="1415" d="M41 715q0 229 96 398t274.5 259t415.5 90q319 0 500 -119v-391q-90 68 -202.5 98.5t-260.5 30.5q-193 0 -292 -96t-99 -270q0 -182 95.5 -275.5t275.5 -93.5q88 0 143 25v182h-196v268h583v-717q-217 -135 -547 -135q-237 0 -415.5 90.5t-274.5 258t-96 397.5z" />
<glyph unicode="H" horiz-adv-x="1488" d="M82 0v1432h424v-527h477v527h424v-1432h-424v549h-477v-549h-424z" />
<glyph unicode="I" horiz-adv-x="587" d="M82 0v1432h424v-1432h-424z" />
<glyph unicode="J" horiz-adv-x="815" d="M0 20v365q70 -33 168 -33q84 0 117.5 35t33.5 117v928h424v-977q0 -221 -121.5 -353.5t-357.5 -132.5q-69 0 -148 15.5t-116 35.5z" />
<glyph unicode="K" horiz-adv-x="1525" d="M82 0v1432h424v-555l440 555h500l-551 -695l590 -737h-500l-479 598v-598h-424z" />
<glyph unicode="L" horiz-adv-x="1083" d="M82 0v1432h424v-1076h577v-356h-1001z" />
<glyph unicode="M" horiz-adv-x="1716" d="M82 0v1432h387l389 -842l389 842h387v-1432h-395v635l-293 -635h-176l-293 635v-635h-395z" />
<glyph unicode="N" horiz-adv-x="1445" d="M82 0v1432h412l446 -750v750h424v-1432h-410l-448 750v-750h-424z" />
<glyph unicode="O" horiz-adv-x="1626" d="M41 715q0 219 101.5 389t278.5 264t394 94t392 -94t276.5 -264t101.5 -389t-101.5 -388t-276.5 -263.5t-392 -94.5t-394 94.5t-278.5 263.5t-101.5 388zM473 715q0 -106 45 -185t123 -121t174 -42q94 0 171 42t122 120.5t45 185.5q0 158 -96 252t-242 94 q-147 0 -244.5 -94.5t-97.5 -251.5z" />
<glyph unicode="P" horiz-adv-x="1325" d="M82 0v1432h659q258 0 411 -132.5t153 -377.5q0 -246 -153 -379t-411 -133h-235v-410h-424zM506 745h156q98 0 153 39t55 138q0 96 -55 135t-153 39h-156v-351z" />
<glyph unicode="Q" horiz-adv-x="1636" d="M41 715q0 219 101.5 389t278.5 264t394 94t392 -94t276.5 -264t101.5 -389q0 -111 -51 -220.5t-127 -177.5h219v-317h-760q-248 0 -434 86t-288.5 248t-102.5 381zM473 715q0 -106 45 -185t123 -121t174 -42q94 0 171 42t122 120.5t45 185.5q0 158 -96 252t-242 94 q-147 0 -244.5 -94.5t-97.5 -251.5z" />
<glyph unicode="R" horiz-adv-x="1345" d="M82 0v1432h666q258 0 407.5 -130.5t149.5 -375.5q0 -160 -67 -272.5t-189 -172.5l239 -481h-434l-209 420h-139v-420h-424zM506 756h158q98 0 152 37.5t54 132.5q0 94 -54 132t-152 38h-158v-340z" />
<glyph unicode="S" horiz-adv-x="1175" d="M41 70v374q113 -61 236.5 -91.5t232.5 -30.5q158 0 158 84q0 35 -23.5 60.5t-71 49t-149.5 68.5q-199 86 -288 188t-89 254q0 127 70.5 226.5t197.5 154.5t293 55q135 0 239.5 -21.5t203.5 -68.5v-362q-178 98 -365 98q-82 0 -131 -23.5t-49 -68.5t44 -73t167 -77l45 -18 q145 -59 224 -117.5t114 -135.5t35 -194q0 -203 -147.5 -317.5t-444.5 -114.5q-137 0 -276.5 28t-225.5 73z" />
<glyph unicode="T" horiz-adv-x="1214" d="M10 1075v357h1194v-357h-385v-1075h-424v1075h-385z" />
<glyph unicode="U" horiz-adv-x="1482" d="M72 623v809h424v-805q0 -131 62.5 -199t182.5 -68q121 0 183.5 68t62.5 199v805h424v-809q0 -190 -72.5 -338t-222 -232t-375.5 -84q-225 0 -374.5 84t-222 231.5t-72.5 338.5z" />
<glyph unicode="V" horiz-adv-x="1634" d="M41 1432h453l323 -863l326 863h450l-571 -1432h-408z" />
<glyph unicode="W" horiz-adv-x="2027" d="M41 1432h438l199 -750l190 750h308l174 -752l196 752h441l-381 -1432h-398l-194 760l-195 -760h-397z" />
<glyph unicode="X" horiz-adv-x="1601" d="M41 0l518 719l-512 713h485l269 -375l270 375h485l-512 -713l517 -719h-486l-274 381l-275 -381h-485z" />
<glyph unicode="Y" horiz-adv-x="1568" d="M41 1432h453l282 -494l301 494h451l-541 -887v-545h-424v545z" />
<glyph unicode="Z" horiz-adv-x="1251" d="M41 0v279l598 796h-584v357h1108v-281l-596 -795h643v-356h-1169z" />
<glyph unicode="[" horiz-adv-x="716" d="M41 -197v1809h655v-357h-231v-1095h231v-357h-655z" />
<glyph unicode="\" horiz-adv-x="1085" d="M41 1462h420l583 -1462h-419z" />
<glyph unicode="]" horiz-adv-x="716" d="M20 160h232v1095h-232v357h656v-1809h-656v357z" />
<glyph unicode="^" horiz-adv-x="1228" d="M41 772l410 701h327l410 -701h-391l-183 328l-182 -328h-391z" />
<glyph unicode="_" horiz-adv-x="980" d="M41 0h899v-332h-899v332z" />
<glyph unicode="`" horiz-adv-x="632" d="M41 1528h412l139 -369h-361z" />
<glyph unicode="a" horiz-adv-x="1241" d="M41 305q0 166 110.5 253t321.5 87q76 0 154 -16.5t131 -40.5v18q0 68 -66.5 102.5t-185.5 34.5q-178 0 -328 -71v270q68 33 176.5 52.5t231.5 19.5q285 0 434 -108.5t149 -307.5v-598h-387v78q-49 -49 -135 -79t-190 -30q-189 0 -302.5 87t-113.5 249zM465 305 q0 -45 30.5 -71.5t88.5 -26.5q55 0 102 20.5t72 53.5v75q-76 49 -172 50q-57 0 -89 -27t-32 -74z" />
<glyph unicode="b" horiz-adv-x="1370" d="M82 0v1513h410v-602q55 47 139 75t176 28q156 0 274.5 -65.5t183 -185.5t64.5 -274q0 -156 -64.5 -273.5t-183 -182t-274.5 -64.5q-98 0 -183 31t-147 90v-90h-395zM492 410q27 -57 81 -90t123 -33q97 0 153 53t56 149t-56 150.5t-153 54.5q-70 0 -124 -32.5t-80 -90.5 v-161z" />
<glyph unicode="c" horiz-adv-x="1103" d="M41 489q0 254 158.5 389.5t433.5 135.5q123 0 235.5 -23.5t182.5 -66.5v-318q-61 45 -146.5 68.5t-177.5 23.5q-119 0 -190.5 -52t-71.5 -157q0 -104 70.5 -155t189.5 -51q92 0 179 24.5t159 71.5v-316q-74 -45 -186.5 -69.5t-245.5 -24.5q-273 0 -431.5 134.5 t-158.5 385.5z" />
<glyph unicode="d" horiz-adv-x="1370" d="M41 489q0 154 64.5 274t183.5 185.5t274 65.5q94 0 177 -28t139 -75v602h409v-1513h-395v90q-61 -59 -146 -90t-184 -31q-155 0 -274 64.5t-183.5 182.5t-64.5 273zM465 489q0 -96 56.5 -149t152.5 -53q69 0 123.5 32.5t81.5 90.5v161q-27 57 -81.5 90t-123.5 33 q-96 0 -152.5 -54t-56.5 -151z" />
<glyph unicode="e" horiz-adv-x="1228" d="M41 487q0 244 149.5 385.5t430.5 141.5q180 0 308 -66.5t193.5 -183.5t65.5 -262v-133h-758q49 -131 297 -131q98 0 201.5 15t175.5 44v-256q-78 -33 -194.5 -52.5t-239.5 -19.5q-297 0 -463 135.5t-166 382.5zM430 606h371q-10 66 -57.5 101.5t-129.5 35.5t-128 -36.5 t-56 -100.5z" />
<glyph unicode="f" horiz-adv-x="786" d="M10 733v250h137v123q0 199 126 308.5t327 109.5q113 0 197 -37v-287q-57 29 -129 29q-82 0 -121 -37t-39 -117v-92h227v-250h-227v-733h-361v733h-137z" />
<glyph unicode="g" horiz-adv-x="1370" d="M41 492q0 156 64.5 274.5t183.5 183t274 64.5q96 0 182 -32t148 -89v90h395v-911q0 -258 -161.5 -400.5t-503.5 -142.5q-97 0 -198 18.5t-175 49.5v272q162 -70 373 -70q133 0 194.5 54.5t61.5 158.5v58q-55 -45 -138.5 -73t-175.5 -28q-156 0 -275.5 65.5t-184 184.5 t-64.5 273zM465 494q0 -98 56.5 -152.5t152.5 -54.5q69 0 123.5 33.5t81.5 91.5v159q-27 57 -81.5 90t-123.5 33q-96 0 -152.5 -53t-56.5 -147z" />
<glyph unicode="h" horiz-adv-x="1288" d="M82 0v1513h410v-618q135 119 315 119q211 0 310.5 -107.5t99.5 -296.5v-610h-412v553q0 70 -30 105.5t-95 35.5q-123 0 -188 -110v-584h-410z" />
<glyph unicode="i" horiz-adv-x="593" d="M82 1305q0 90 61.5 150.5t153.5 60.5q90 0 152.5 -61.5t62.5 -149.5q0 -90 -62.5 -150.5t-152.5 -60.5q-92 0 -153.5 59t-61.5 152zM92 0v983h410v-983h-410z" />
<glyph unicode="j" horiz-adv-x="589" d="M-195 -109q59 -30 141 -30h5q63 0 100 33.5t37 103.5v985h412v-1036q0 -207 -134.5 -313.5t-351.5 -106.5q-127 0 -209 39v325zM78 1305q0 88 62.5 149.5t152.5 61.5t152.5 -61.5t62.5 -149.5q0 -90 -62.5 -150.5t-152.5 -60.5q-92 0 -153.5 59t-61.5 152z" />
<glyph unicode="k" horiz-adv-x="1347" d="M82 0v1513h410v-907l290 377h469l-366 -473l422 -510h-469l-346 418v-418h-410z" />
<glyph unicode="l" horiz-adv-x="573" d="M82 0v1513h410v-1513h-410z" />
<glyph unicode="m" horiz-adv-x="1800" d="M82 0v983h379v-94q57 59 134 92t167 33q109 0 173 -30t109 -91q61 57 146.5 89t173.5 32q199 0 282 -101.5t83 -294.5v-618h-392v559q0 72 -25.5 103.5t-86.5 31.5q-70 0 -113 -43v-651h-391v578q0 61 -22.5 88.5t-77.5 27.5q-88 0 -146 -96v-598h-393z" />
<glyph unicode="n" horiz-adv-x="1288" d="M82 0v983h395v-96q63 61 149.5 94t180.5 33q211 0 310.5 -107.5t99.5 -296.5v-610h-412v553q0 70 -30 105.5t-95 35.5q-123 0 -188 -110v-584h-410z" />
<glyph unicode="o" horiz-adv-x="1325" d="M41 492q0 150 76 268.5t216 186t329 67.5q188 0 329.5 -67.5t217 -186.5t75.5 -268q0 -152 -75.5 -271t-217 -185.5t-329.5 -66.5q-189 0 -329 66.5t-216 185.5t-76 271zM461 492q0 -94 54 -149.5t147 -55.5q92 0 147 55t55 150q0 94 -55 148t-147 54t-146.5 -54 t-54.5 -148z" />
<glyph unicode="p" horiz-adv-x="1370" d="M82 -449v1432h395v-90q61 57 147.5 89t182.5 32q156 0 274.5 -64.5t183 -183.5t64.5 -274q0 -154 -64.5 -273t-183 -184.5t-274.5 -65.5q-92 0 -176 28t-139 73v-519h-410zM492 412q27 -57 81 -91t123 -34q97 0 153 54t56 153q0 96 -56 149t-153 53q-70 0 -124 -33.5 t-80 -91.5v-159z" />
<glyph unicode="q" horiz-adv-x="1370" d="M41 492q0 156 64.5 274.5t183.5 183t274 64.5q96 0 182 -32t148 -89v90h395v-1432h-409v519q-55 -45 -139.5 -73t-176.5 -28q-156 0 -274.5 65.5t-183 184.5t-64.5 273zM465 494q0 -98 56.5 -152.5t152.5 -54.5q69 0 123.5 33.5t81.5 91.5v159q-27 57 -81.5 91t-123.5 34 q-96 0 -152.5 -53t-56.5 -149z" />
<glyph unicode="r" horiz-adv-x="858" d="M82 0v983h395v-106q57 59 158.5 94t222.5 35v-318q-129 0 -229.5 -35t-136.5 -102v-551h-410z" />
<glyph unicode="s" horiz-adv-x="1060" d="M41 686q0 166 131 247t358 81q109 0 235 -23.5t187 -62.5v-285q-63 41 -169.5 70.5t-194.5 29.5q-121 0 -121 -41q0 -18 29.5 -30.5t103.5 -28.5l86 -20q133 -35 205 -80t100.5 -105.5t28.5 -150.5q0 -145 -128 -231.5t-368 -86.5q-123 0 -257 22.5t-212 65.5v289 q84 -49 206 -83t220 -34q59 0 86 7.5t27 29.5q0 20 -25.5 30.5t-95.5 29.5l-94 26q-125 37 -197.5 79t-106.5 102.5t-34 152.5z" />
<glyph unicode="t" horiz-adv-x="808" d="M0 707v276h135v295h412v-295h219v-276h-219v-283q0 -74 27.5 -105.5t93.5 -31.5q74 0 141 39v-303q-59 -27 -123.5 -40.5t-163.5 -13.5q-190 0 -288.5 106.5t-98.5 289.5v342h-135z" />
<glyph unicode="u" horiz-adv-x="1288" d="M72 387v596h409v-547q0 -149 129 -149h2q59 0 106.5 28.5t76.5 81.5v586h411v-983h-397v94q-61 -61 -147.5 -93t-180.5 -32q-205 0 -307 115t-102 303z" />
<glyph unicode="v" horiz-adv-x="1302" d="M41 983h410l200 -516l201 516h410l-414 -983h-393z" />
<glyph unicode="w" horiz-adv-x="1775" d="M41 983h410l137 -512l137 512h326l137 -512l137 512h410l-332 -983h-369l-147 496l-146 -496h-368z" />
<glyph unicode="x" horiz-adv-x="1392" d="M41 0l422 508l-397 475h464l164 -199l166 199h465l-397 -475l424 -508h-461l-195 231l-194 -231h-461z" />
<glyph unicode="y" horiz-adv-x="1314" d="M41 983h410l233 -600l219 600h412l-393 -1006q-78 -197 -197 -290t-307 -93q-72 0 -150 10.5t-114 28.5v304q63 -25 139 -25q66 0 100.5 27.5t55.5 83.5l18 47z" />
<glyph unicode="z" horiz-adv-x="1087" d="M41 0v213l438 494h-428v276h979v-213l-434 -494h451v-276h-1006z" />
<glyph unicode="{" horiz-adv-x="755" d="M0 526v361h63q49 0 75 29.5t26 78.5v367q0 125 60.5 187.5t166.5 62.5h344v-357h-80q-37 0 -52 -16t-15 -53v-260q0 -84 -37 -139.5t-109 -77.5v-4q145 -51 146 -218v-260q0 -37 15 -53t52 -16h80v-357h-344q-106 0 -166.5 62.5t-60.5 185.5v367q0 51 -26.5 80.5 t-74.5 29.5h-63z" />
<glyph unicode="|" horiz-adv-x="505" d="M41 -295v1958h424v-1958h-424z" />
<glyph unicode="}" horiz-adv-x="755" d="M20 158h78q39 0 54.5 16t15.5 53v260q0 82 37 137.5t106 80.5v4q-70 23 -106.5 78t-36.5 139v260q0 37 -16.5 53t-53.5 16h-78v357h345q104 0 165.5 -62.5t61.5 -187.5v-367q0 -49 25.5 -78.5t72.5 -29.5h66v-361h-66q-47 0 -72.5 -29.5t-25.5 -80.5v-367 q0 -123 -61.5 -185.5t-165.5 -62.5h-345v357z" />
<glyph unicode="~" horiz-adv-x="1030" d="M41 467v354q78 90 233 90q51 0 106.5 -14t141.5 -43q76 -27 131.5 -41t102.5 -14q141 0 233 110v-354q-76 -92 -233 -92q-54 0 -108 14.5t-146 44.5q-80 27 -131.5 40t-96.5 13q-139 0 -233 -108z" />
<glyph unicode="&#xa1;" horiz-adv-x="509" d="M41 915q0 88 61.5 149.5t153.5 61.5q88 0 150.5 -61t62.5 -150q0 -90 -62.5 -150t-150.5 -60q-92 0 -153.5 59t-61.5 151zM51 -336v938h410v-938h-410z" />
<glyph unicode="&#xa2;" horiz-adv-x="1103" d="M41 489q0 219 121 351.5t338 163.5v186h291v-186q162 -23 260 -80v-318q-63 47 -148.5 70.5t-175.5 23.5q-119 0 -190.5 -53t-71.5 -158q0 -106 71.5 -157t188.5 -51q90 0 178 25.5t160 72.5v-316q-102 -61 -272 -83v-187h-291v187q-217 31 -338 160.5t-121 348.5z" />
<glyph unicode="&#xa3;" horiz-adv-x="989" d="M51 0v305h142v305h-136v285h136v139q0 135 62 232.5t171 146.5t242 49q115 0 198 -37v-286q-61 29 -131 28q-84 0 -132 -42t-48 -121v-109h279v-285h-279v-305h383v-305h-887z" />
<glyph unicode="&#xa4;" horiz-adv-x="1249" d="M41 258l172 127q-47 88 -47 188q0 96 47 191l-170 127l166 205l186 -148q100 59 230 60q131 0 231 -60l184 146l166 -203l-170 -127q47 -88 47 -191q0 -106 -47 -188l172 -129l-168 -207l-186 146q-102 -57 -229 -58q-125 0 -228 58l-188 -146zM467 573q0 -66 46 -111.5 t112 -45.5q65 0 112 46t47 111q0 66 -47 113t-112 47q-66 0 -112 -47t-46 -113z" />
<glyph unicode="&#xa5;" horiz-adv-x="1568" d="M41 1432h453l282 -494l301 494h451l-428 -701h133v-262h-246v-72h246v-264h-246v-133h-424v133h-246v264h246v72h-246v262h136z" />
<glyph unicode="&#xa6;" horiz-adv-x="505" d="M41 -295v834h424v-834h-424zM41 827v836h424v-836h-424z" />
<glyph unicode="&#xa7;" horiz-adv-x="1175" d="M41 127q113 -61 236.5 -92t232.5 -31q80 0 116 20.5t36 63.5q0 35 -22 59.5t-67 47t-149 67.5q-199 86 -288 190.5t-89 256.5q0 92 47 157q-47 68 -47 160q0 127 70.5 226.5t197.5 154.5t293 55q135 0 239.5 -21.5t203.5 -68.5v-362q-178 98 -365 98q-80 0 -127 -23.5 t-47 -68.5t50 -75t200 -91q145 -59 224 -118.5t114 -136.5t35 -194q0 -76 -41 -151q41 -76 41 -166q0 -203 -147.5 -317.5t-444.5 -114.5q-137 0 -276.5 27.5t-225.5 72.5v375zM459 643q0 -45 31.5 -71.5t113.5 -59.5q55 -20 86 -35.5t53 -34.5q7 16 7 39q0 47 -31 73 t-115 56q-88 35 -139 74q-6 -20 -6 -41z" />
<glyph unicode="&#xa8;" horiz-adv-x="899" d="M41 1325q0 70 50 120t120 50t118 -49t48 -121q0 -70 -48 -118t-118 -48t-120 48t-50 118zM522 1325q0 70 50.5 120t119.5 50q68 0 117 -50t49 -120t-49 -118t-117 -48q-69 0 -119.5 48t-50.5 118z" />
<glyph unicode="&#xa9;" horiz-adv-x="1613" d="M41 715q0 219 102.5 389t278.5 264t385 94t385 -94t278.5 -264t102.5 -389q0 -217 -102.5 -387t-278.5 -264.5t-385 -94.5t-385 94.5t-278.5 264.5t-102.5 387zM301 715q0 -160 64.5 -274.5t179 -173t262.5 -58.5q147 0 262 58.5t179.5 173t64.5 274.5t-64.5 273.5 t-178.5 172t-263 58.5q-150 0 -263.5 -58.5t-178 -172.5t-64.5 -273zM377 713q0 203 115.5 311.5t316.5 108.5t319 -72v-248q-100 74 -243 74q-84 0 -132 -44t-48 -130t48 -130t130 -44q143 0 256 79v-249q-135 -76 -332 -76q-201 0 -315.5 108.5t-114.5 311.5z" />
<glyph unicode="&#xaa;" horiz-adv-x="888" d="M41 954q0 119 79 181.5t232 62.5q51 0 106.5 -11t96.5 -30v14q0 47 -48 72t-132 25q-129 0 -236 -51v192q47 25 125 39t168 14q203 0 309.5 -77.5t106.5 -219.5v-428h-277v56q-35 -35 -96 -56.5t-135 -21.5q-135 0 -217 62.5t-82 176.5zM344 954q0 -33 22.5 -51t63.5 -18 q39 0 73 14t52 39v55q-55 33 -125 33q-86 0 -86 -72z" />
<glyph unicode="&#xab;" horiz-adv-x="1470" d="M41 627v82l514 473l238 -226l-318 -288l318 -289l-238 -225zM678 627v82l514 473l238 -226l-318 -288l318 -289l-238 -225z" />
<glyph unicode="&#xac;" horiz-adv-x="925" d="M41 485v301h844v-532h-355v231h-489z" />
<glyph unicode="&#xad;" horiz-adv-x="835" d="M41 461v325h754v-325h-754z" />
<glyph unicode="&#xae;" horiz-adv-x="1613" d="M41 715q0 219 102.5 389t278.5 264t385 94t385 -94t278.5 -264t102.5 -389q0 -217 -102.5 -387t-278.5 -264.5t-385 -94.5t-385 94.5t-278.5 264.5t-102.5 387zM301 715q0 -160 64.5 -274.5t179 -173t262.5 -58.5q147 0 262 58.5t179.5 173t64.5 274.5t-64.5 273.5 t-178.5 172t-263 58.5q-150 0 -263.5 -58.5t-178 -172.5t-64.5 -273zM489 340v770h369q141 0 224 -71.5t83 -207.5q0 -88 -34.5 -150.5t-100.5 -94.5l119 -246h-246l-102 211h-64v-211h-248zM737 748h82q100 0 101 83q0 82 -101 82h-82v-165z" />
<glyph unicode="&#xaf;" horiz-adv-x="811" d="M41 1176v241h729v-241h-729z" />
<glyph unicode="&#xb0;" horiz-adv-x="671" d="M41 1194q0 80 40 147.5t107.5 107.5t147.5 40t147.5 -40t107.5 -107.5t40 -147.5t-40 -147.5t-107.5 -107.5t-147.5 -40t-147.5 40t-107.5 107.5t-40 147.5zM246 1194q0 -37 26.5 -64.5t63.5 -27.5t63.5 27.5t26.5 64.5t-26.5 63.5t-63.5 26.5t-63.5 -26.5t-26.5 -63.5z " />
<glyph unicode="&#xb1;" horiz-adv-x="835" d="M41 0v317h754v-317h-754zM41 602v318h213v192h326v-192h215v-318h-215v-192h-326v192h-213z" />
<glyph unicode="&#xb2;" horiz-adv-x="700" d="M41 758v147q166 106 233.5 160.5t67.5 97.5q0 29 -20.5 42.5t-65.5 13.5q-51 0 -102.5 -18.5t-90.5 -49.5v235q43 29 123 47.5t156 18.5q147 0 225 -66.5t78 -160.5q0 -78 -46 -134.5t-159 -136.5h219v-196h-618z" />
<glyph unicode="&#xb3;" horiz-adv-x="706" d="M41 782v183q92 -47 195 -47q111 0 110 55q0 29 -25.5 40t-89.5 11h-88v143h86q98 0 99 50q0 53 -97 53q-96 0 -180 -53v184q47 23 126 37t155 14q145 0 230 -56.5t85 -152.5q0 -90 -69 -147q88 -43 88 -148q0 -96 -88.5 -153.5t-249.5 -57.5q-82 0 -160 11.5t-127 33.5z " />
<glyph unicode="&#xb4;" horiz-adv-x="632" d="M41 1159l139 369h412l-191 -369h-360z" />
<glyph unicode="&#xb6;" horiz-adv-x="1613" d="M41 1042q0 168 73.5 285t202.5 175.5t295 58.5h961v-1835h-422v1503h-129v-1503h-422v809h-51q-229 0 -368.5 131t-139.5 376z" />
<glyph unicode="&#xb7;" horiz-adv-x="366" d="M41 608q0 59 41 102.5t100 43.5t101.5 -43t42.5 -103q0 -59 -42 -100t-102 -41q-59 0 -100 41t-41 100z" />
<glyph unicode="&#xb8;" horiz-adv-x="710" d="M82 -313q25 -14 62.5 -22.5t72.5 -8.5q66 0 98.5 16.5t32.5 59.5q0 49 -47 69.5t-162 20.5l68 178h268l-37 -94q90 -12 140.5 -63.5t50.5 -127.5q0 -102 -83 -162.5t-241 -60.5q-145 0 -223 31v164z" />
<glyph unicode="&#xb9;" horiz-adv-x="477" d="M41 1042v261l174 129h262v-674h-295v385z" />
<glyph unicode="&#xba;" horiz-adv-x="972" d="M41 1087q0 106 54.5 192.5t155.5 134.5t236 48q133 0 234.5 -48t156 -134t54.5 -193q0 -109 -54.5 -193.5t-155.5 -132.5t-235 -48q-135 0 -236 48t-155.5 133t-54.5 193zM342 1087q0 -66 40 -105.5t105 -39.5q66 0 105 40t39 105q0 68 -39 107t-105 39t-105.5 -39 t-39.5 -107z" />
<glyph unicode="&#xbb;" horiz-adv-x="1470" d="M41 379l317 289l-317 288l235 226l517 -473v-82l-517 -473zM678 379l317 289l-317 288l235 226l517 -473v-82l-517 -473z" />
<glyph unicode="&#xbc;" horiz-adv-x="1617" d="M41 1042v261l174 129h262v-674h-295v385zM193 0l792 1432h418l-793 -1432h-417zM901 109v180l277 385h309v-371h90v-194h-90v-109h-295v109h-291zM1157 303h125v160z" />
<glyph unicode="&#xbd;" horiz-adv-x="1665" d="M41 1042v261l174 129h262v-674h-295v385zM193 0l792 1432h418l-793 -1432h-417zM1006 0v147q164 104 231.5 159.5t67.5 99.5q0 29 -20.5 42t-65.5 13q-51 0 -101.5 -18.5t-89.5 -49.5v236q43 29 123 47t156 18q145 0 223 -66.5t78 -160.5q0 -78 -46 -134.5t-159 -135.5 h221v-197h-618z" />
<glyph unicode="&#xbe;" horiz-adv-x="1648" d="M41 782v183q92 -47 195 -47q111 0 110 55q0 29 -25.5 40t-89.5 11h-88v143h86q98 0 99 50q0 53 -97 53q-96 0 -180 -53v184q47 23 126 37t155 14q145 0 230 -56.5t85 -152.5q0 -90 -69 -147q88 -43 88 -148q0 -96 -88.5 -153.5t-249.5 -57.5q-82 0 -160 11.5t-127 33.5z M231 0l793 1432h420l-793 -1432h-420zM932 109v180l276 385h310v-371h90v-194h-90v-109h-295v109h-291zM1188 303h125v160z" />
<glyph unicode="&#xbf;" horiz-adv-x="1083" d="M41 33q0 104 44 168.5t153 138.5q104 74 142 117t38 108v37h411v-41q0 -98 -37.5 -177t-111.5 -132l-62 -41q-66 -45 -92 -71.5t-26 -63.5q0 -90 172 -90q186 0 370 98v-363q-193 -88 -438 -88q-260 0 -411.5 105.5t-151.5 294.5zM410 915q0 88 62.5 149.5t152.5 61.5 q92 0 153.5 -60t61.5 -151q0 -92 -61.5 -151t-153.5 -59q-90 0 -152.5 60t-62.5 150z" />
<glyph unicode="&#xc0;" horiz-adv-x="1634" d="M41 0l573 1432h408l571 -1432h-434l-106 272h-469l-109 -272h-434zM436 1878h412l141 -369h-362zM680 594h274l-137 401z" />
<glyph unicode="&#xc1;" horiz-adv-x="1634" d="M41 0l573 1432h408l571 -1432h-434l-106 272h-469l-109 -272h-434zM655 1509l142 369h411l-190 -369h-363zM680 594h274l-137 401z" />
<glyph unicode="&#xc2;" horiz-adv-x="1634" d="M41 0l573 1432h408l571 -1432h-434l-106 272h-469l-109 -272h-434zM346 1532l303 352h338l303 -352h-352l-119 145l-119 -145h-354zM680 594h274l-137 401z" />
<glyph unicode="&#xc3;" horiz-adv-x="1634" d="M41 0l573 1432h408l571 -1432h-434l-106 272h-469l-109 -272h-434zM391 1520v288q72 84 219 84q45 0 91.5 -12t119.5 -39q63 -25 109.5 -38t91.5 -13q133 0 219 100v-286q-70 -84 -219 -84q-51 0 -101.5 13t-117.5 40q-68 25 -109 37t-84 12q-131 0 -219 -102zM680 594 h274l-137 401z" />
<glyph unicode="&#xc4;" horiz-adv-x="1634" d="M41 0l573 1432h408l571 -1432h-434l-106 272h-469l-109 -272h-434zM408 1686q0 70 51 119.5t119 49.5q70 0 118.5 -50t48.5 -119q0 -70 -49 -118t-118 -48q-70 0 -120 48t-50 118zM680 594h274l-137 401zM891 1686q0 70 50 119.5t120 49.5q68 0 117 -50t49 -119 q0 -70 -49.5 -118t-116.5 -48q-70 0 -120 48t-50 118z" />
<glyph unicode="&#xc5;" horiz-adv-x="1634" d="M41 0l551 1378q-37 39 -58.5 91.5t-21.5 111.5q0 84 41 152.5t111.5 108.5t152.5 40q84 0 154.5 -40t111.5 -108.5t41 -152.5q0 -117 -80 -203l549 -1378h-434l-106 272h-469l-109 -272h-434zM680 594h274l-137 401zM713 1581q0 -43 30.5 -73.5t73.5 -30.5q45 0 76 30.5 t31 73.5q0 47 -30 77t-77 30q-43 0 -73.5 -31t-30.5 -76z" />
<glyph unicode="&#xc6;" horiz-adv-x="1859" d="M41 0l600 1432h1198v-357h-573v-196h403v-326h-403v-197h573v-356h-954v272h-289l-113 -272h-442zM684 598h201v477h-13z" />
<glyph unicode="&#xc7;" horiz-adv-x="1384" d="M41 715q0 229 96 398t274.5 259t415.5 90q154 0 275 -28.5t225 -92.5v-391q-90 70 -202.5 100.5t-260.5 30.5q-193 0 -292 -92t-99 -274t102.5 -275.5t288.5 -93.5q145 0 261 33t218 104v-389q-162 -101 -391 -119l-26 -69q90 -12 140 -63.5t50 -127.5q0 -102 -83 -162.5 t-240 -60.5q-145 0 -224 31v164q25 -14 63 -22.5t73 -8.5q66 0 98.5 16.5t32.5 59.5q0 49 -47.5 69.5t-161.5 20.5l59 155q-301 39 -473 234t-172 504z" />
<glyph unicode="&#xc8;" horiz-adv-x="1140" d="M82 0v1432h1038v-357h-614v-196h442v-326h-442v-197h614v-356h-1038zM250 1890h412l141 -368h-363z" />
<glyph unicode="&#xc9;" horiz-adv-x="1140" d="M82 0v1432h1038v-357h-614v-196h442v-326h-442v-197h614v-356h-1038zM401 1509l142 369h411l-190 -369h-363z" />
<glyph unicode="&#xca;" horiz-adv-x="1140" d="M82 0v1432h1038v-357h-614v-196h442v-326h-442v-197h614v-356h-1038zM125 1524l303 352h338l303 -352h-352l-119 145l-119 -145h-354z" />
<glyph unicode="&#xcb;" horiz-adv-x="1140" d="M82 0v1432h1038v-357h-614v-196h442v-326h-442v-197h614v-356h-1038zM207 1696q0 70 51 120t119 50q70 0 119 -50.5t49 -119.5q0 -70 -49.5 -118t-118.5 -48q-70 0 -120 48t-50 118zM690 1696q0 70 50.5 120t119.5 50q68 0 117 -50.5t49 -119.5q0 -70 -49 -118t-117 -48 q-69 0 -119.5 48t-50.5 118z" />
<glyph unicode="&#xcc;" horiz-adv-x="587" d="M-76 1878h412l141 -369h-362zM82 0v1432h424v-1432h-424z" />
<glyph unicode="&#xcd;" horiz-adv-x="587" d="M82 0v1432h424v-1432h-424zM106 1509l142 369h411l-190 -369h-363z" />
<glyph unicode="&#xce;" horiz-adv-x="587" d="M-178 1518l303 352h338l303 -352h-352l-119 145l-119 -145h-354zM82 0v1432h424v-1432h-424z" />
<glyph unicode="&#xcf;" horiz-adv-x="587" d="M-117 1686q0 70 51.5 119.5t118.5 49.5q70 0 119 -50t49 -119q0 -70 -49 -118t-119 -48q-69 0 -119.5 48t-50.5 118zM82 0v1432h424v-1432h-424zM367 1686q0 70 50 119.5t120 49.5q68 0 116.5 -50t48.5 -119q0 -70 -49 -118t-116 -48q-70 0 -120 48t-50 118z" />
<glyph unicode="&#xd0;" horiz-adv-x="1513" d="M61 561v307h95v564h530q238 0 415 -86t274.5 -247t97.5 -376q0 -356 -211 -539.5t-580 -183.5h-526v561h-95zM580 377h133q160 0 242.5 90t82.5 256q0 150 -84 240t-235 90h-139v-185h254v-307h-254v-184z" />
<glyph unicode="&#xd1;" horiz-adv-x="1445" d="M82 0v1432h412l446 -750v750h424v-1432h-410l-448 750v-750h-424zM324 1520v288q72 84 219 84q45 0 91 -12t120 -39q63 -25 109 -38t91 -13q133 0 220 100v-286q-70 -84 -220 -84q-51 0 -101 13t-118 40q-68 25 -108.5 37t-83.5 12q-131 0 -219 -102z" />
<glyph unicode="&#xd2;" horiz-adv-x="1626" d="M41 715q0 219 101.5 389t278.5 264t394 94t392 -94t276.5 -264t101.5 -389t-101.5 -388t-276.5 -263.5t-392 -94.5t-394 94.5t-278.5 263.5t-101.5 388zM467 1878h412l141 -369h-363zM473 715q0 -106 45 -185t123 -121t174 -42q94 0 171 42t122 120.5t45 185.5 q0 158 -96 252t-242 94q-147 0 -244.5 -94.5t-97.5 -251.5z" />
<glyph unicode="&#xd3;" horiz-adv-x="1626" d="M41 715q0 219 101.5 389t278.5 264t394 94t392 -94t276.5 -264t101.5 -389t-101.5 -388t-276.5 -263.5t-392 -94.5t-394 94.5t-278.5 263.5t-101.5 388zM473 715q0 -106 45 -185t123 -121t174 -42q94 0 171 42t122 120.5t45 185.5q0 158 -96 252t-242 94 q-147 0 -244.5 -94.5t-97.5 -251.5zM610 1509l142 369h411l-190 -369h-363z" />
<glyph unicode="&#xd4;" horiz-adv-x="1626" d="M41 715q0 219 101.5 389t278.5 264t394 94t392 -94t276.5 -264t101.5 -389t-101.5 -388t-276.5 -263.5t-392 -94.5t-394 94.5t-278.5 263.5t-101.5 388zM342 1534l303 352h338l303 -352h-352l-119 145l-119 -145h-354zM473 715q0 -106 45 -185t123 -121t174 -42 q94 0 171 42t122 120.5t45 185.5q0 158 -96 252t-242 94q-147 0 -244.5 -94.5t-97.5 -251.5z" />
<glyph unicode="&#xd5;" horiz-adv-x="1626" d="M41 715q0 219 101.5 389t278.5 264t394 94t392 -94t276.5 -264t101.5 -389t-101.5 -388t-276.5 -263.5t-392 -94.5t-394 94.5t-278.5 263.5t-101.5 388zM391 1538v289q72 84 219 84q45 0 91.5 -12.5t119.5 -38.5q63 -25 109.5 -38.5t91.5 -13.5q133 0 219 101v-287 q-70 -84 -219 -84q-51 0 -101.5 13.5t-117.5 39.5q-68 25 -109 37t-84 12q-131 0 -219 -102zM473 715q0 -106 45 -185t123 -121t174 -42q94 0 171 42t122 120.5t45 185.5q0 158 -96 252t-242 94q-147 0 -244.5 -94.5t-97.5 -251.5z" />
<glyph unicode="&#xd6;" horiz-adv-x="1626" d="M41 715q0 219 101.5 389t278.5 264t394 94t392 -94t276.5 -264t101.5 -389t-101.5 -388t-276.5 -263.5t-392 -94.5t-394 94.5t-278.5 263.5t-101.5 388zM403 1700q0 70 51.5 120t118.5 50q70 0 119 -50.5t49 -119.5q0 -70 -49 -118t-119 -48q-69 0 -119.5 48t-50.5 118z M473 715q0 -106 45 -185t123 -121t174 -42q94 0 171 42t122 120.5t45 185.5q0 158 -96 252t-242 94q-147 0 -244.5 -94.5t-97.5 -251.5zM887 1700q0 70 50 120t120 50q68 0 117 -50.5t49 -119.5q0 -70 -49.5 -118t-116.5 -48q-70 0 -120 48t-50 118z" />
<glyph unicode="&#xd7;" horiz-adv-x="845" d="M41 489l149 150l-149 152l231 231l150 -150l151 152l232 -233l-152 -152l152 -150l-232 -231l-151 152l-150 -150z" />
<glyph unicode="&#xd8;" horiz-adv-x="1626" d="M41 715q0 219 101.5 389t278.5 264t394 94q90 0 164 -14l63 158h248l-94 -234q180 -90 284.5 -262t104.5 -395q0 -219 -101.5 -388t-276.5 -263.5t-392 -94.5q-92 0 -176 19l-66 -164h-247l96 237q-178 94 -279.5 264.5t-101.5 389.5zM473 715q0 -168 105 -262l245 608 h-8q-147 0 -244.5 -94.5t-97.5 -251.5zM791 367h24q94 0 171 42t122 120.5t45 185.5q0 86 -29.5 154.5t-85.5 113.5z" />
<glyph unicode="&#xd9;" horiz-adv-x="1482" d="M72 623v809h424v-805q0 -131 62.5 -199t182.5 -68q121 0 183.5 68t62.5 199v805h424v-809q0 -190 -72.5 -338t-222 -232t-375.5 -84q-225 0 -374.5 84t-222 231.5t-72.5 338.5zM393 1878h412l141 -369h-362z" />
<glyph unicode="&#xda;" horiz-adv-x="1482" d="M72 623v809h424v-805q0 -131 62.5 -199t182.5 -68q121 0 183.5 68t62.5 199v805h424v-809q0 -190 -72.5 -338t-222 -232t-375.5 -84q-225 0 -374.5 84t-222 231.5t-72.5 338.5zM565 1509l142 369h411l-190 -369h-363z" />
<glyph unicode="&#xdb;" horiz-adv-x="1482" d="M72 623v809h424v-805q0 -131 62.5 -199t182.5 -68q121 0 183.5 68t62.5 199v805h424v-809q0 -190 -72.5 -338t-222 -232t-375.5 -84q-225 0 -374.5 84t-222 231.5t-72.5 338.5zM270 1532l303 352h338l303 -352h-352l-119 145l-118 -145h-355z" />
<glyph unicode="&#xdc;" horiz-adv-x="1482" d="M72 623v809h424v-805q0 -131 62.5 -199t182.5 -68q121 0 183.5 68t62.5 199v805h424v-809q0 -190 -72.5 -338t-222 -232t-375.5 -84q-225 0 -374.5 84t-222 231.5t-72.5 338.5zM332 1700q0 70 51 120t119 50q70 0 119 -50.5t49 -119.5q0 -70 -49.5 -118t-118.5 -48 q-70 0 -120 48t-50 118zM815 1700q0 70 50 120t120 50q68 0 117 -50.5t49 -119.5q0 -70 -49 -118t-117 -48q-70 0 -120 48t-50 118z" />
<glyph unicode="&#xdd;" horiz-adv-x="1568" d="M41 1432h453l282 -494l301 494h451l-541 -887v-545h-424v545zM598 1522l141 368h412l-190 -368h-363z" />
<glyph unicode="&#xde;" horiz-adv-x="1325" d="M82 0v1432h424v-209h239q260 0 410 -128t150 -374t-149.5 -374t-410.5 -128h-239v-219h-424zM506 555h156q98 0 153 36t55 130t-55 130t-153 36h-156v-332z" />
<glyph unicode="&#xdf;" horiz-adv-x="1353" d="M72 0v991q0 532 592 533q315 0 453 -134.5t138 -328.5q0 -94 -36.5 -171t-110.5 -122q106 -45 155.5 -129t49.5 -207q0 -219 -125 -341t-361 -122q-166 0 -254 37v332q57 -39 154 -39q76 0 116 44t40 120q0 164 -181 164h-108v284h90q72 0 106.5 43t34.5 115 q0 66 -40 103.5t-117 37.5q-84 0 -129 -44t-45 -122v-1044h-422z" />
<glyph unicode="&#xe0;" horiz-adv-x="1241" d="M-20 305q0 166 110.5 253t321.5 87q76 0 153.5 -16.5t130.5 -40.5v18q0 68 -66.5 102.5t-185.5 34.5q-178 0 -327 -71v270q68 33 176 52.5t231 19.5q285 0 434.5 -108.5t149.5 -307.5v-598h-387v78q-49 -49 -135 -79t-191 -30q-188 0 -301.5 87t-113.5 249zM346 1427h412 l141 -368h-362zM403 305q0 -45 31 -71.5t88 -26.5q56 0 103 20.5t71 53.5v75q-76 49 -172 50q-57 0 -89 -27t-32 -74z" />
<glyph unicode="&#xe1;" horiz-adv-x="1241" d="M-20 305q0 166 110.5 253t321.5 87q76 0 153.5 -16.5t130.5 -40.5v18q0 68 -66.5 102.5t-185.5 34.5q-178 0 -327 -71v270q68 33 176 52.5t231 19.5q285 0 434.5 -108.5t149.5 -307.5v-598h-387v78q-49 -49 -135 -79t-191 -30q-188 0 -301.5 87t-113.5 249zM403 305 q0 -45 31 -71.5t88 -26.5q56 0 103 20.5t71 53.5v75q-76 49 -172 50q-57 0 -89 -27t-32 -74zM444 1059l142 368h411l-190 -368h-363z" />
<glyph unicode="&#xe2;" horiz-adv-x="1241" d="M-20 305q0 166 110.5 253t321.5 87q76 0 153.5 -16.5t130.5 -40.5v18q0 68 -66.5 102.5t-185.5 34.5q-178 0 -327 -71v270q68 33 176 52.5t231 19.5q285 0 434.5 -108.5t149.5 -307.5v-598h-387v78q-49 -49 -135 -79t-191 -30q-188 0 -301.5 87t-113.5 249zM184 1081 l303 353h338l303 -353h-352l-119 146l-118 -146h-355zM403 305q0 -45 31 -71.5t88 -26.5q56 0 103 20.5t71 53.5v75q-76 49 -172 50q-57 0 -89 -27t-32 -74z" />
<glyph unicode="&#xe3;" horiz-adv-x="1241" d="M-20 305q0 166 110.5 253t321.5 87q76 0 153.5 -16.5t130.5 -40.5v18q0 68 -66.5 102.5t-185.5 34.5q-178 0 -327 -71v270q68 33 176 52.5t231 19.5q285 0 434.5 -108.5t149.5 -307.5v-598h-387v78q-49 -49 -135 -79t-191 -30q-188 0 -301.5 87t-113.5 249zM258 1067v289 q72 84 219 84q45 0 91 -12.5t120 -38.5q63 -25 109.5 -38.5t91.5 -13.5q133 0 219 101v-287q-70 -84 -219 -84q-51 0 -101.5 13.5t-117.5 39.5q-68 25 -109 37t-84 12q-131 0 -219 -102zM403 305q0 -45 31 -71.5t88 -26.5q56 0 103 20.5t71 53.5v75q-76 49 -172 50 q-57 0 -89 -27t-32 -74z" />
<glyph unicode="&#xe4;" horiz-adv-x="1241" d="M-20 305q0 166 110.5 253t321.5 87q76 0 153.5 -16.5t130.5 -40.5v18q0 68 -66.5 102.5t-185.5 34.5q-178 0 -327 -71v270q68 33 176 52.5t231 19.5q285 0 434.5 -108.5t149.5 -307.5v-598h-387v78q-49 -49 -135 -79t-191 -30q-188 0 -301.5 87t-113.5 249zM238 1229 q0 70 51 120t119 50q70 0 118.5 -50.5t48.5 -119.5q0 -70 -49 -118t-118 -48q-70 0 -120 48t-50 118zM403 305q0 -45 31 -71.5t88 -26.5q56 0 103 20.5t71 53.5v75q-76 49 -172 50q-57 0 -89 -27t-32 -74zM721 1229q0 70 50 120t120 50q68 0 117 -50.5t49 -119.5 q0 -70 -49.5 -118t-116.5 -48q-70 0 -120 48t-50 118z" />
<glyph unicode="&#xe5;" horiz-adv-x="1241" d="M-20 305q0 166 110.5 253t321.5 87q76 0 153.5 -16.5t130.5 -40.5v18q0 68 -66.5 102.5t-185.5 34.5q-178 0 -327 -71v270q68 33 176 52.5t231 19.5q285 0 434.5 -108.5t149.5 -307.5v-598h-387v78q-49 -49 -135 -79t-191 -30q-188 0 -301.5 87t-113.5 249zM352 1366 q0 84 41 152.5t111.5 108.5t152.5 40q84 0 155 -40t112 -108.5t41 -152.5q0 -82 -41 -150.5t-112 -108.5t-155 -40q-82 0 -152.5 40t-111.5 108.5t-41 150.5zM403 305q0 -45 31 -71.5t88 -26.5q56 0 103 20.5t71 53.5v75q-76 49 -172 50q-57 0 -89 -27t-32 -74zM553 1366 q0 -43 30.5 -73.5t73.5 -30.5q45 0 76 30.5t31 73.5q0 47 -29.5 77t-77.5 30q-43 0 -73.5 -31t-30.5 -76z" />
<glyph unicode="&#xe6;" horiz-adv-x="1955" d="M41 305q0 164 109.5 252t312.5 88q76 0 153.5 -16.5t131.5 -40.5v18q0 68 -67 102.5t-185 34.5q-178 0 -328 -71v270q68 33 176.5 52.5t230.5 19.5q240 0 394 -115q72 53 170 84t209 31q180 0 308 -66.5t193.5 -183.5t65.5 -262v-129h-756q51 -135 295 -135 q98 0 201.5 15t175.5 44v-256q-78 -33 -189.5 -52.5t-232.5 -19.5q-137 0 -251 37t-191 105q-92 -68 -208 -105t-278 -37q-202 0 -321 86t-119 250zM455 305q0 -45 30.5 -71.5t87.5 -26.5q54 0 101 19.5t74 52.5v77q-76 49 -173 50q-57 0 -88.5 -27t-31.5 -74zM1159 604h369 q-10 66 -57.5 102.5t-129.5 36.5t-127 -37.5t-55 -101.5z" />
<glyph unicode="&#xe7;" horiz-adv-x="1103" d="M41 489q0 254 158.5 389.5t433.5 135.5q123 0 235.5 -23.5t182.5 -66.5v-318q-61 45 -146.5 68.5t-177.5 23.5q-119 0 -190.5 -52t-71.5 -157q0 -104 70.5 -155t189.5 -51q92 0 179 24.5t159 71.5v-316q-113 -70 -303 -88l-27 -69q90 -12 140.5 -63.5t50.5 -127.5 q0 -102 -83 -162.5t-241 -60.5q-145 0 -223 31v164q25 -14 62.5 -22.5t72.5 -8.5q66 0 98.5 16.5t32.5 59.5q0 49 -47 69.5t-162 20.5l60 158q-213 31 -333 160.5t-120 348.5z" />
<glyph unicode="&#xe8;" horiz-adv-x="1228" d="M41 487q0 244 149.5 385.5t430.5 141.5q180 0 308 -66.5t193.5 -183.5t65.5 -262v-133h-758q49 -131 297 -131q98 0 201.5 15t175.5 44v-256q-78 -33 -194.5 -52.5t-239.5 -19.5q-297 0 -463 135.5t-166 382.5zM285 1427h411l142 -368h-363zM430 606h371 q-10 66 -57.5 101.5t-129.5 35.5t-128 -36.5t-56 -100.5z" />
<glyph unicode="&#xe9;" horiz-adv-x="1228" d="M41 487q0 244 149.5 385.5t430.5 141.5q180 0 308 -66.5t193.5 -183.5t65.5 -262v-133h-758q49 -131 297 -131q98 0 201.5 15t175.5 44v-256q-78 -33 -194.5 -52.5t-239.5 -19.5q-297 0 -463 135.5t-166 382.5zM430 606h371q-10 66 -57.5 101.5t-129.5 35.5t-128 -36.5 t-56 -100.5zM432 1059l141 368h412l-190 -368h-363z" />
<glyph unicode="&#xea;" horiz-adv-x="1265" d="M78 487q0 244 149.5 385.5t429.5 141.5q180 0 308.5 -66.5t194 -183.5t65.5 -262v-133h-758q49 -131 297 -131q98 0 201.5 15t175.5 44v-256q-78 -33 -195 -52.5t-239 -19.5q-297 0 -463 135.5t-166 382.5zM199 1081l303 353h338l303 -353h-352l-119 146l-119 -146h-354z M467 606h371q-10 66 -57.5 101.5t-129.5 35.5t-128 -36.5t-56 -100.5z" />
<glyph unicode="&#xeb;" horiz-adv-x="1228" d="M41 487q0 244 149.5 385.5t430.5 141.5q180 0 308 -66.5t193.5 -183.5t65.5 -262v-133h-758q49 -131 297 -131q98 0 201.5 15t175.5 44v-256q-78 -33 -194.5 -52.5t-239.5 -19.5q-297 0 -463 135.5t-166 382.5zM223 1233q0 70 51.5 120t118.5 50q70 0 119 -50t49 -120 t-49 -118t-119 -48q-69 0 -119.5 48t-50.5 118zM430 606h371q-10 66 -57.5 101.5t-129.5 35.5t-128 -36.5t-56 -100.5zM707 1233q0 70 50 120t120 50q68 0 116.5 -50t48.5 -120t-49 -118t-116 -48q-70 0 -120 48t-50 118z" />
<glyph unicode="&#xec;" horiz-adv-x="573" d="M-74 1427h412l141 -368h-362zM82 0v983h410v-983h-410z" />
<glyph unicode="&#xed;" horiz-adv-x="573" d="M82 0v983h410v-983h-410zM98 1059l142 368h411l-190 -368h-363z" />
<glyph unicode="&#xee;" horiz-adv-x="573" d="M-184 1081l303 353h338l303 -353h-352l-119 146l-119 -146h-354zM82 0v983h410v-983h-410z" />
<glyph unicode="&#xef;" horiz-adv-x="573" d="M-125 1233q0 70 51 120t119 50q70 0 119 -50t49 -120t-49 -118t-119 -48t-120 48t-50 118zM82 0v983h410v-983h-410zM358 1233q0 70 50.5 120t119.5 50q68 0 117 -50t49 -120t-49 -118t-117 -48q-69 0 -119.5 48t-50.5 118z" />
<glyph unicode="&#xf0;" horiz-adv-x="1304" d="M41 469q0 227 144.5 349t379.5 122q82 0 161 -22.5t128 -61.5q-23 172 -121 246l-239 -133v131l100 55q-37 4 -57 4q-174 0 -279 -55v315q55 18 132 30.5t157 12.5q236 0 405 -108l242 133v-129l-145 -80q215 -209 215 -606q0 -211 -78 -370t-220.5 -246t-334.5 -87 q-291 0 -440.5 137.5t-149.5 362.5zM473 459q0 -84 46 -132t128 -48q80 0 125 51t45 129q0 82 -47 130t-123 48q-82 0 -128 -47t-46 -131z" />
<glyph unicode="&#xf1;" horiz-adv-x="1288" d="M82 0v983h395v-96q63 61 149.5 94t180.5 33q211 0 310.5 -107.5t99.5 -296.5v-610h-412v553q0 70 -30 105.5t-95 35.5q-123 0 -188 -110v-584h-410zM225 1067v289q72 84 219 84q45 0 91.5 -12.5t119.5 -38.5q63 -25 109.5 -38.5t91.5 -13.5q133 0 219 101v-287 q-70 -84 -219 -84q-51 0 -101 13.5t-118 39.5q-68 25 -109 37t-84 12q-131 0 -219 -102z" />
<glyph unicode="&#xf2;" horiz-adv-x="1325" d="M41 492q0 150 76 268.5t216 186t329 67.5q188 0 329.5 -67.5t217 -186.5t75.5 -268q0 -152 -75.5 -271t-217 -185.5t-329.5 -66.5q-189 0 -329 66.5t-216 185.5t-76 271zM322 1427h411l141 -368h-362zM461 492q0 -94 54 -149.5t147 -55.5q92 0 147 55t55 150 q0 94 -55 148t-147 54t-146.5 -54t-54.5 -148z" />
<glyph unicode="&#xf3;" horiz-adv-x="1325" d="M41 492q0 150 76 268.5t216 186t329 67.5q188 0 329.5 -67.5t217 -186.5t75.5 -268q0 -152 -75.5 -271t-217 -185.5t-329.5 -66.5q-189 0 -329 66.5t-216 185.5t-76 271zM461 492q0 -94 54 -149.5t147 -55.5q92 0 147 55t55 150q0 94 -55 148t-147 54t-146.5 -54 t-54.5 -148zM475 1059l141 368h412l-190 -368h-363z" />
<glyph unicode="&#xf4;" horiz-adv-x="1325" d="M41 492q0 150 76 268.5t216 186t329 67.5q188 0 329.5 -67.5t217 -186.5t75.5 -268q0 -152 -75.5 -271t-217 -185.5t-329.5 -66.5q-189 0 -329 66.5t-216 185.5t-76 271zM190 1081l304 353h337l304 -353h-353l-118 146l-119 -146h-355zM461 492q0 -94 54 -149.5 t147 -55.5q92 0 147 55t55 150q0 94 -55 148t-147 54t-146.5 -54t-54.5 -148z" />
<glyph unicode="&#xf5;" horiz-adv-x="1325" d="M41 492q0 150 76 268.5t216 186t329 67.5q188 0 329.5 -67.5t217 -186.5t75.5 -268q0 -152 -75.5 -271t-217 -185.5t-329.5 -66.5q-189 0 -329 66.5t-216 185.5t-76 271zM238 1073v289q72 84 219 84q45 0 91 -12.5t120 -38.5q63 -25 109 -38.5t91 -13.5q133 0 219 101 v-287q-70 -84 -219 -84q-51 0 -101 13.5t-118 39.5q-68 25 -108.5 37.5t-83.5 12.5q-131 0 -219 -103zM461 492q0 -94 54 -149.5t147 -55.5q92 0 147 55t55 150q0 94 -55 148t-147 54t-146.5 -54t-54.5 -148z" />
<glyph unicode="&#xf6;" horiz-adv-x="1325" d="M41 492q0 150 76 268.5t216 186t329 67.5q188 0 329.5 -67.5t217 -186.5t75.5 -268q0 -152 -75.5 -271t-217 -185.5t-329.5 -66.5q-189 0 -329 66.5t-216 185.5t-76 271zM252 1233q0 70 51 120t119 50q70 0 119 -50t49 -120t-49 -118t-119 -48t-120 48t-50 118zM461 492 q0 -94 54 -149.5t147 -55.5q92 0 147 55t55 150q0 94 -55 148t-147 54t-146.5 -54t-54.5 -148zM735 1233q0 70 50.5 120t119.5 50q68 0 117 -50t49 -120t-49 -118t-117 -48q-69 0 -119.5 48t-50.5 118z" />
<glyph unicode="&#xf7;" horiz-adv-x="835" d="M41 461v325h754v-325h-754zM266 256q0 61 42 104t102 43q61 0 104 -43t43 -104q0 -59 -43 -101t-104 -42q-60 0 -102 42t-42 101zM266 987q0 61 42 104.5t102 43.5q61 0 104 -43t43 -105q0 -59 -43 -101t-104 -42q-60 0 -102 42t-42 101z" />
<glyph unicode="&#xf8;" horiz-adv-x="1325" d="M41 492q0 150 76 268.5t216 186t329 67.5q49 0 92 -6l61 151h227l-81 -201q154 -63 238.5 -186t84.5 -280q0 -152 -75.5 -271t-217 -185.5t-329.5 -66.5q-51 0 -99 6l-59 -151h-225l79 201q-150 61 -233.5 184t-83.5 283zM453 492q0 -80 39 -136l139 344 q-84 -10 -131 -65t-47 -143zM688 281q84 10 133 65t49 146q0 86 -43 137z" />
<glyph unicode="&#xf9;" horiz-adv-x="1288" d="M72 387v596h409v-547q0 -150 131 -149q59 0 106.5 28.5t76.5 81.5v586h411v-983h-397v94q-61 -61 -147.5 -93t-180.5 -32q-205 0 -307 115t-102 303zM299 1427h412l141 -368h-363z" />
<glyph unicode="&#xfa;" horiz-adv-x="1288" d="M72 387v596h409v-547q0 -150 131 -149q59 0 106.5 28.5t76.5 81.5v586h411v-983h-397v94q-61 -61 -147.5 -93t-180.5 -32q-205 0 -307 115t-102 303zM444 1059l142 368h411l-190 -368h-363z" />
<glyph unicode="&#xfb;" horiz-adv-x="1288" d="M72 387v596h409v-547q0 -150 131 -149q59 0 106.5 28.5t76.5 81.5v586h411v-983h-397v94q-61 -61 -147.5 -93t-180.5 -32q-205 0 -307 115t-102 303zM174 1081l303 353h338l303 -353h-352l-119 146l-119 -146h-354z" />
<glyph unicode="&#xfc;" horiz-adv-x="1288" d="M72 387v596h409v-547q0 -150 131 -149q59 0 106.5 28.5t76.5 81.5v586h411v-983h-397v94q-61 -61 -147.5 -93t-180.5 -32q-205 0 -307 115t-102 303zM238 1233q0 70 51 120t119 50q70 0 118.5 -50t48.5 -120t-49 -118t-118 -48q-70 0 -120 48t-50 118zM721 1233 q0 70 50 120t120 50q68 0 117 -50t49 -120t-49.5 -118t-116.5 -48q-70 0 -120 48t-50 118z" />
<glyph unicode="&#xfd;" horiz-adv-x="1314" d="M41 983h410l233 -600l219 600h412l-393 -1006q-78 -197 -197 -290t-307 -93q-72 0 -150 10.5t-114 28.5v304q63 -25 139 -25q66 0 100.5 27.5t55.5 83.5l18 47zM487 1061l142 369h411l-190 -369h-363z" />
<glyph unicode="&#xfe;" horiz-adv-x="1370" d="M82 -449v1881h410v-521q55 47 139 75t176 28q156 0 274.5 -64.5t183 -183.5t64.5 -274q0 -154 -64.5 -273t-183 -184.5t-274.5 -65.5q-92 0 -176 28t-139 73v-519h-410zM492 412q27 -57 81 -91t123 -34q97 0 153 54t56 153q0 96 -56 149t-153 53q-70 0 -124 -33.5 t-80 -91.5v-159z" />
<glyph unicode="&#xff;" horiz-adv-x="1314" d="M41 983h410l233 -600l219 600h412l-393 -1006q-78 -197 -197 -290t-307 -93q-72 0 -150 10.5t-114 28.5v304q63 -25 139 -25q66 0 100.5 27.5t55.5 83.5l18 47zM289 1233q0 70 51 120t119 50q70 0 119 -50t49 -120t-49.5 -118t-118.5 -48q-70 0 -120 48t-50 118z M772 1233q0 70 50 120t120 50q68 0 117 -50t49 -120t-49 -118t-117 -48q-70 0 -120 48t-50 118z" />
<glyph unicode="&#x100;" horiz-adv-x="1634" d="M41 0l573 1432h408l571 -1432h-434l-106 272h-469l-109 -272h-434zM453 1540v242h729v-242h-729zM680 594h274l-137 401z" />
<glyph unicode="&#x101;" horiz-adv-x="1241" d="M-20 305q0 166 110.5 253t321.5 87q76 0 153.5 -16.5t130.5 -40.5v18q0 68 -66.5 102.5t-185.5 34.5q-178 0 -327 -71v270q68 33 176 52.5t231 19.5q285 0 434.5 -108.5t149.5 -307.5v-598h-387v78q-49 -49 -135 -79t-191 -30q-188 0 -301.5 87t-113.5 249zM276 1087v242 h730v-242h-730zM403 305q0 -45 31 -71.5t88 -26.5q56 0 103 20.5t71 53.5v75q-76 49 -172 50q-57 0 -89 -27t-32 -74z" />
<glyph unicode="&#x102;" horiz-adv-x="1634" d="M41 0l573 1432h408l571 -1432h-434l-106 272h-469l-109 -272h-434zM420 1896h305q0 -123 92 -122q92 0 92 122h305q0 -176 -103 -276t-294 -100q-190 0 -293.5 100t-103.5 276zM680 594h274l-137 401z" />
<glyph unicode="&#x103;" horiz-adv-x="1241" d="M-20 305q0 166 110.5 253t321.5 87q76 0 153.5 -16.5t130.5 -40.5v18q0 68 -66.5 102.5t-185.5 34.5q-178 0 -327 -71v270q68 33 176 52.5t231 19.5q285 0 434.5 -108.5t149.5 -307.5v-598h-387v78q-49 -49 -135 -79t-191 -30q-188 0 -301.5 87t-113.5 249zM272 1444h306 q0 -123 92 -123t92 123h305q0 -176 -103.5 -276.5t-293.5 -100.5q-191 0 -294.5 100.5t-103.5 276.5zM403 305q0 -45 31 -71.5t88 -26.5q56 0 103 20.5t71 53.5v75q-76 49 -172 50q-57 0 -89 -27t-32 -74z" />
<glyph unicode="&#x104;" horiz-adv-x="1634" d="M41 0l573 1432h408l571 -1432h-61q-86 -43 -124 -80t-38 -80q0 -27 16.5 -42t45.5 -15q51 0 100 24v-221q-106 -33 -238 -32q-125 0 -201.5 51t-76.5 153q0 78 38 139.5t105 102.5l-106 272h-469l-109 -272h-434zM680 594h274l-137 401z" />
<glyph unicode="&#x105;" horiz-adv-x="1241" d="M-20 305q0 166 110.5 253t321.5 87q76 0 153.5 -16.5t130.5 -40.5v18q0 68 -66.5 102.5t-185.5 34.5q-178 0 -327 -71v270q68 33 176 52.5t231 19.5q285 0 434.5 -108.5t149.5 -307.5v-598h61q-86 -43 -123.5 -80t-37.5 -80q0 -26 16 -41.5t45 -15.5q51 0 100 24v-221 q-106 -33 -237 -32q-125 0 -202 51t-77 153q0 78 38 139.5t106 102.5h-76v78q-49 -49 -135 -79t-191 -30q-188 0 -301.5 87t-113.5 249zM403 305q0 -45 31 -71.5t88 -26.5q55 0 102.5 20.5t71.5 53.5v75q-76 49 -172 50q-57 0 -89 -27t-32 -74z" />
<glyph unicode="&#x106;" horiz-adv-x="1384" d="M41 715q0 229 96 398t274.5 259t415.5 90q154 0 275 -28.5t225 -92.5v-391q-90 70 -202.5 100.5t-260.5 30.5q-193 0 -292 -92t-99 -274t102.5 -275.5t288.5 -93.5q145 0 261 33t218 104v-389q-199 -125 -516 -125q-237 0 -415.5 90.5t-274.5 258t-96 397.5zM649 1509 l142 369h411l-190 -369h-363z" />
<glyph unicode="&#x107;" horiz-adv-x="1103" d="M41 489q0 254 158.5 389.5t433.5 135.5q123 0 235.5 -23.5t182.5 -66.5v-318q-61 45 -146.5 68.5t-177.5 23.5q-119 0 -190.5 -52t-71.5 -157q0 -104 70.5 -155t189.5 -51q92 0 179 24.5t159 71.5v-316q-74 -45 -186.5 -69.5t-245.5 -24.5q-273 0 -431.5 134.5 t-158.5 385.5zM446 1059l142 368h411l-190 -368h-363z" />
<glyph unicode="&#x108;" horiz-adv-x="1384" d="M41 715q0 229 96 398t274.5 259t415.5 90q154 0 275 -28.5t225 -92.5v-391q-90 70 -202.5 100.5t-260.5 30.5q-193 0 -292 -92t-99 -274t102.5 -275.5t288.5 -93.5q145 0 261 33t218 104v-389q-199 -125 -516 -125q-237 0 -415.5 90.5t-274.5 258t-96 397.5zM326 1532 l303 352h338l303 -352h-352l-119 145l-119 -145h-354z" />
<glyph unicode="&#x109;" horiz-adv-x="1130" d="M41 489q0 254 158.5 389.5t433.5 135.5q123 0 235.5 -23.5t182.5 -66.5v-318q-61 45 -146.5 68.5t-177.5 23.5q-119 0 -190.5 -52t-71.5 -157q0 -104 70.5 -155t189.5 -51q92 0 179 24.5t159 71.5v-316q-74 -45 -186.5 -69.5t-245.5 -24.5q-273 0 -431.5 134.5 t-158.5 385.5zM156 1081l303 353h338l303 -353h-352l-119 146l-119 -146h-354z" />
<glyph unicode="&#x10a;" horiz-adv-x="1384" d="M41 715q0 229 96 398t274.5 259t415.5 90q154 0 275 -28.5t225 -92.5v-391q-90 70 -202.5 100.5t-260.5 30.5q-193 0 -292 -92t-99 -274t102.5 -275.5t288.5 -93.5q145 0 261 33t218 104v-389q-199 -125 -516 -125q-237 0 -415.5 90.5t-274.5 258t-96 397.5zM690 1686 q0 70 50.5 119.5t119.5 49.5q70 0 118 -49t48 -120q0 -70 -48 -118t-118 -48q-69 0 -119.5 48t-50.5 118z" />
<glyph unicode="&#x10b;" horiz-adv-x="1103" d="M41 489q0 254 158.5 389.5t433.5 135.5q123 0 235.5 -23.5t182.5 -66.5v-318q-61 45 -146.5 68.5t-177.5 23.5q-119 0 -190.5 -52t-71.5 -157q0 -104 70.5 -155t189.5 -51q92 0 179 24.5t159 71.5v-316q-74 -45 -186.5 -69.5t-245.5 -24.5q-273 0 -431.5 134.5 t-158.5 385.5zM469 1233q0 70 50 120t120 50t118 -49t48 -121q0 -70 -48 -118t-118 -48t-120 48t-50 118z" />
<glyph unicode="&#x10c;" horiz-adv-x="1384" d="M41 715q0 229 96 398t274.5 259t415.5 90q154 0 275 -28.5t225 -92.5v-391q-90 70 -202.5 100.5t-260.5 30.5q-193 0 -292 -92t-99 -274t102.5 -275.5t288.5 -93.5q145 0 261 33t218 104v-389q-199 -125 -516 -125q-237 0 -415.5 90.5t-274.5 258t-96 397.5zM362 1884 h355l119 -145l118 145h353l-303 -352h-338z" />
<glyph unicode="&#x10d;" horiz-adv-x="1099" d="M41 489q0 254 158.5 389.5t433.5 135.5q123 0 235.5 -23.5t182.5 -66.5v-318q-61 45 -146.5 68.5t-177.5 23.5q-119 0 -190.5 -52t-71.5 -157q0 -104 70.5 -155t189.5 -51q92 0 179 24.5t159 71.5v-316q-74 -45 -186.5 -69.5t-245.5 -24.5q-273 0 -431.5 134.5 t-158.5 385.5zM135 1434h354l119 -146l119 146h352l-303 -353h-338z" />
<glyph unicode="&#x10e;" horiz-adv-x="1439" d="M82 0v1432h530q238 0 415 -86t274.5 -247t97.5 -376q0 -356 -211 -539.5t-580 -183.5h-526zM197 1884h354l119 -145l118 145h353l-303 -352h-338zM506 356h133q158 0 243 98.5t85 268.5q0 152 -86 252t-236 100h-139v-719z" />
<glyph unicode="&#x10f;" horiz-adv-x="1521" d="M41 485q0 154 64.5 273t182.5 184.5t275 65.5q94 0 179 -31t137 -82v612h409v-1513h-395v100q-55 -59 -143 -95t-187 -36q-155 0 -274 64.5t-183.5 183.5t-64.5 274zM465 483q0 -98 57.5 -150t151.5 -52q69 0 123.5 32.5t81.5 89.5v164q-27 57 -81.5 90t-123.5 33 q-94 0 -151.5 -54t-57.5 -153zM1321 1165l172 410h336l-207 -410h-301z" />
<glyph unicode="&#x110;" horiz-adv-x="1513" d="M61 561v307h95v564h530q238 0 415 -86t274.5 -247t97.5 -376q0 -356 -211 -539.5t-580 -183.5h-526v561h-95zM580 377h133q160 0 242.5 90t82.5 256q0 150 -84 240t-235 90h-139v-185h254v-307h-254v-184z" />
<glyph unicode="&#x111;" horiz-adv-x="1392" d="M41 489q0 154 64.5 274t183.5 185.5t274 65.5q94 0 177 -28t139 -75v162h-279v305h279v135h409v-135h84v-305h-84v-1073h-395v90q-61 -59 -146 -90t-184 -31q-155 0 -274 64.5t-183.5 182.5t-64.5 273zM465 489q0 -96 56.5 -149t152.5 -53q69 0 123.5 32.5t81.5 90.5v161 q-27 57 -81.5 90t-123.5 33q-96 0 -152.5 -54t-56.5 -151z" />
<glyph unicode="&#x112;" horiz-adv-x="1140" d="M82 0v1432h1038v-357h-614v-196h442v-326h-442v-197h614v-356h-1038zM258 1550v242h729v-242h-729z" />
<glyph unicode="&#x113;" horiz-adv-x="1228" d="M41 487q0 244 149.5 385.5t430.5 141.5q180 0 308 -66.5t193.5 -183.5t65.5 -262v-133h-758q49 -131 297 -131q98 0 201.5 15t175.5 44v-256q-78 -33 -194.5 -52.5t-239.5 -19.5q-297 0 -463 135.5t-166 382.5zM270 1087v242h729v-242h-729zM430 606h371 q-10 66 -57.5 101.5t-129.5 35.5t-128 -36.5t-56 -100.5z" />
<glyph unicode="&#x114;" horiz-adv-x="1140" d="M82 0v1432h1038v-357h-614v-196h442v-326h-442v-197h614v-356h-1038zM211 1894h305q0 -123 92 -122q92 0 92 122h306q0 -176 -103.5 -276t-294.5 -100q-190 0 -293.5 100t-103.5 276z" />
<glyph unicode="&#x115;" horiz-adv-x="1228" d="M41 487q0 244 149.5 385.5t430.5 141.5q180 0 308 -66.5t193.5 -183.5t65.5 -262v-133h-758q49 -131 297 -131q98 0 201.5 15t175.5 44v-256q-78 -33 -194.5 -52.5t-239.5 -19.5q-297 0 -463 135.5t-166 382.5zM248 1444h305q0 -123 92 -123t92 123h305 q0 -176 -103 -276.5t-294 -100.5q-190 0 -293.5 100.5t-103.5 276.5zM430 606h371q-10 66 -57.5 101.5t-129.5 35.5t-128 -36.5t-56 -100.5z" />
<glyph unicode="&#x116;" horiz-adv-x="1140" d="M82 0v1432h1038v-357h-614v-196h442v-326h-442v-197h614v-356h-1038zM438 1686q0 70 50.5 119.5t119.5 49.5q70 0 118 -49t48 -120q0 -70 -48 -118t-118 -48q-69 0 -119.5 48t-50.5 118z" />
<glyph unicode="&#x117;" horiz-adv-x="1228" d="M41 487q0 244 149.5 385.5t430.5 141.5q180 0 308 -66.5t193.5 -183.5t65.5 -262v-133h-758q49 -131 297 -131q98 0 201.5 15t175.5 44v-256q-78 -33 -194.5 -52.5t-239.5 -19.5q-297 0 -463 135.5t-166 382.5zM430 606h371q-10 66 -57.5 101.5t-129.5 35.5t-128 -36.5 t-56 -100.5zM453 1233q0 70 50 120t120 50t117.5 -49t47.5 -121q0 -70 -48 -118t-117 -48q-70 0 -120 48t-50 118z" />
<glyph unicode="&#x118;" horiz-adv-x="1144" d="M82 0v1432h1038v-357h-614v-196h442v-326h-442v-197h614v-356h4q-86 -43 -123.5 -80t-37.5 -80q0 -26 16 -41.5t45 -15.5q51 0 100 24v-221q-106 -33 -237 -32q-125 0 -202 51t-77 153q0 78 38 139.5t106 102.5h-670z" />
<glyph unicode="&#x119;" horiz-adv-x="1228" d="M41 487q0 244 149.5 385.5t430.5 141.5q180 0 308 -66.5t193.5 -183.5t65.5 -262v-133h-758q49 -131 297 -131q98 0 201.5 15t175.5 44v-256q-59 -25 -146 -43q-84 -43 -120.5 -79t-36.5 -79q0 -27 16.5 -42t44.5 -15q51 0 101 24v-221q-106 -33 -238 -32q-125 0 -202 51 t-77 153q0 133 107 217q-244 25 -378 158t-134 354zM430 606h371q-10 66 -57.5 101.5t-129.5 35.5t-128 -36.5t-56 -100.5z" />
<glyph unicode="&#x11a;" horiz-adv-x="1140" d="M82 0v1432h1038v-357h-614v-196h442v-326h-442v-197h614v-356h-1038zM154 1884h354l119 -145l118 145h353l-303 -352h-338z" />
<glyph unicode="&#x11b;" horiz-adv-x="1269" d="M82 487q0 244 149.5 385.5t430.5 141.5q180 0 308 -66.5t193.5 -183.5t65.5 -262v-133h-758q49 -131 297 -131q98 0 201.5 15t175.5 44v-256q-78 -33 -194.5 -52.5t-239.5 -19.5q-297 0 -463 135.5t-166 382.5zM199 1434h354l119 -146l119 146h352l-303 -353h-338z M471 606h371q-10 66 -57.5 101.5t-129.5 35.5t-128 -36.5t-56 -100.5z" />
<glyph unicode="&#x11c;" horiz-adv-x="1415" d="M41 715q0 229 96 398t274.5 259t415.5 90q319 0 500 -119v-391q-90 68 -202.5 98.5t-260.5 30.5q-193 0 -292 -96t-99 -270q0 -182 95.5 -275.5t275.5 -93.5q88 0 143 25v182h-196v268h583v-717q-217 -135 -547 -135q-237 0 -415.5 90.5t-274.5 258t-96 397.5zM336 1532 l303 352h338l303 -352h-352l-119 145l-119 -145h-354z" />
<glyph unicode="&#x11d;" horiz-adv-x="1370" d="M41 492q0 156 64.5 274.5t183.5 183t274 64.5q96 0 182 -32t148 -89v90h395v-911q0 -258 -161.5 -400.5t-503.5 -142.5q-97 0 -198 18.5t-175 49.5v272q162 -70 373 -70q133 0 194.5 54.5t61.5 158.5v58q-55 -45 -138.5 -73t-175.5 -28q-156 0 -275.5 65.5t-184 184.5 t-64.5 273zM262 1081l303 353h338l303 -353h-352l-119 146l-119 -146h-354zM465 494q0 -98 56.5 -152.5t152.5 -54.5q69 0 123.5 33.5t81.5 91.5v159q-27 57 -81.5 90t-123.5 33q-96 0 -152.5 -53t-56.5 -147z" />
<glyph unicode="&#x11e;" horiz-adv-x="1415" d="M41 715q0 229 96 398t274.5 259t415.5 90q319 0 500 -119v-391q-90 68 -202.5 98.5t-260.5 30.5q-193 0 -292 -96t-99 -270q0 -182 95.5 -275.5t275.5 -93.5q88 0 143 25v182h-196v268h583v-717q-217 -135 -547 -135q-237 0 -415.5 90.5t-274.5 258t-96 397.5zM457 1894 h305q0 -123 92 -122q92 0 92 122h305q0 -176 -103.5 -276t-293.5 -100t-293.5 100t-103.5 276z" />
<glyph unicode="&#x11f;" horiz-adv-x="1370" d="M41 492q0 156 64.5 274.5t183.5 183t274 64.5q96 0 182 -32t148 -89v90h395v-911q0 -258 -161.5 -400.5t-503.5 -142.5q-97 0 -198 18.5t-175 49.5v272q162 -70 373 -70q133 0 194.5 54.5t61.5 158.5v58q-55 -45 -138.5 -73t-175.5 -28q-156 0 -275.5 65.5t-184 184.5 t-64.5 273zM319 1444h306q0 -123 92 -123t92 123h305q0 -176 -103.5 -276.5t-293.5 -100.5q-191 0 -294.5 100.5t-103.5 276.5zM465 494q0 -98 56.5 -152.5t152.5 -54.5q69 0 123.5 33.5t81.5 91.5v159q-27 57 -81.5 90t-123.5 33q-96 0 -152.5 -53t-56.5 -147z" />
<glyph unicode="&#x120;" horiz-adv-x="1415" d="M41 715q0 229 96 398t274.5 259t415.5 90q319 0 500 -119v-391q-90 68 -202.5 98.5t-260.5 30.5q-193 0 -292 -96t-99 -270q0 -182 95.5 -275.5t275.5 -93.5q88 0 143 25v182h-196v268h583v-717q-217 -135 -547 -135q-237 0 -415.5 90.5t-274.5 258t-96 397.5zM684 1686 q0 70 50 119.5t120 49.5t118 -49t48 -120q0 -70 -48 -118t-118 -48t-120 48t-50 118z" />
<glyph unicode="&#x121;" horiz-adv-x="1370" d="M41 492q0 156 64.5 274.5t183.5 183t274 64.5q96 0 182 -32t148 -89v90h395v-911q0 -258 -161.5 -400.5t-503.5 -142.5q-97 0 -198 18.5t-175 49.5v272q162 -70 373 -70q133 0 194.5 54.5t61.5 158.5v58q-55 -45 -138.5 -73t-175.5 -28q-156 0 -275.5 65.5t-184 184.5 t-64.5 273zM465 494q0 -98 56.5 -152.5t152.5 -54.5q69 0 123.5 33.5t81.5 91.5v159q-27 57 -81.5 90t-123.5 33q-96 0 -152.5 -53t-56.5 -147zM604 1233q0 70 50.5 120t119.5 50q70 0 118 -49t48 -121q0 -70 -48 -118t-118 -48q-69 0 -119.5 48t-50.5 118z" />
<glyph unicode="&#x122;" horiz-adv-x="1415" d="M41 715q0 229 96 398t274.5 259t415.5 90q319 0 500 -119v-391q-90 68 -202.5 98.5t-260.5 30.5q-193 0 -292 -96t-99 -270q0 -182 95.5 -275.5t275.5 -93.5q88 0 143 25v182h-196v268h583v-717q-217 -135 -547 -135q-237 0 -415.5 90.5t-274.5 258t-96 397.5zM483 -532 l170 440h404l-221 -440h-353z" />
<glyph unicode="&#x123;" horiz-adv-x="1370" d="M41 492q0 156 64.5 274.5t183.5 183t274 64.5q96 0 182 -32t148 -89v90h395v-911q0 -258 -161.5 -400.5t-503.5 -142.5q-97 0 -198 18.5t-175 49.5v272q162 -70 373 -70q133 0 194.5 54.5t61.5 158.5v58q-55 -45 -138.5 -73t-175.5 -28q-156 0 -275.5 65.5t-184 184.5 t-64.5 273zM465 494q0 -98 56.5 -152.5t152.5 -54.5q69 0 123.5 33.5t81.5 91.5v159q-27 57 -81.5 90t-123.5 33q-96 0 -152.5 -53t-56.5 -147zM553 1067l221 440h352l-170 -440h-403z" />
<glyph unicode="&#x124;" horiz-adv-x="1488" d="M82 0v1432h424v-527h477v527h424v-1432h-424v549h-477v-549h-424zM272 1532l303 352h338l304 -352h-353l-119 145l-118 -145h-355z" />
<glyph unicode="&#x125;" horiz-adv-x="1288" d="M82 0v1513h410v-618q135 119 315 119q211 0 310.5 -107.5t99.5 -296.5v-610h-412v553q0 70 -30 105.5t-95 35.5q-123 0 -188 -110v-584h-410zM94 1567l303 352h338l303 -352h-352l-119 145l-118 -145h-355z" />
<glyph unicode="&#x126;" horiz-adv-x="1622" d="M61 1059v270h86v103h433v-103h460v103h433v-103h88v-270h-88v-1059h-433v526h-460v-526h-433v1059h-86zM580 928h460v131h-460v-131z" />
<glyph unicode="&#x127;" horiz-adv-x="1290" d="M0 1094v268h84v151h410v-151h229v-268h-229v-201q66 59 146.5 90t168.5 31q211 0 310.5 -106.5t99.5 -295.5v-612h-412v553q0 70 -29.5 105.5t-97.5 35.5q-121 0 -186 -110v-584h-410v1094h-84z" />
<glyph unicode="&#x128;" horiz-adv-x="587" d="M-131 1520v288q72 84 219 84q45 0 91 -12t120 -39q63 -25 109.5 -38t91.5 -13q133 0 219 100v-286q-70 -84 -219 -84q-51 0 -101.5 13t-117.5 40q-68 25 -109 37t-84 12q-131 0 -219 -102zM82 0v1432h424v-1432h-424z" />
<glyph unicode="&#x129;" horiz-adv-x="573" d="M-137 1067v289q72 84 219 84q45 0 91 -12.5t120 -38.5q63 -25 109.5 -38.5t91.5 -13.5q133 0 219 101v-287q-70 -84 -219 -84q-51 0 -101.5 13.5t-118.5 39.5q-68 25 -108.5 37t-83.5 12q-131 0 -219 -102zM82 0v983h410v-983h-410z" />
<glyph unicode="&#x12a;" horiz-adv-x="587" d="M-88 1530v262h764v-262h-764zM82 0v1432h424v-1432h-424z" />
<glyph unicode="&#x12b;" horiz-adv-x="573" d="M-94 1077v262h764v-262h-764zM82 0v983h410v-983h-410z" />
<glyph unicode="&#x12c;" horiz-adv-x="587" d="M-104 1894h305q0 -123 92 -122q92 0 92 122h305q0 -176 -103.5 -276t-293.5 -100q-191 0 -294 100t-103 276zM82 0v1432h424v-1432h-424z" />
<glyph unicode="&#x12d;" horiz-adv-x="573" d="M-111 1444h306q0 -123 92 -123t92 123h305q0 -176 -103.5 -276.5t-293.5 -100.5q-191 0 -294.5 100.5t-103.5 276.5zM82 0v983h410v-983h-410z" />
<glyph unicode="&#x12e;" horiz-adv-x="587" d="M-20 -242q0 78 37.5 139.5t105.5 102.5h-41v1432h424v-1432h-10q-86 -43 -124 -80t-38 -80q0 -27 16.5 -42t44.5 -15q51 0 101 24v-221q-106 -33 -238 -32q-125 0 -201.5 51t-76.5 153z" />
<glyph unicode="&#x12f;" horiz-adv-x="593" d="M-25 -242q0 78 38 139.5t106 102.5h-27v983h410v-983h-10q-86 -43 -124 -80t-38 -80q0 -27 16 -42t45 -15q51 0 101 24v-221q-106 -33 -238 -32q-125 0 -202 51t-77 153zM82 1305q0 90 61.5 150.5t153.5 60.5q90 0 152.5 -61.5t62.5 -149.5q0 -90 -62.5 -150.5 t-152.5 -60.5q-92 0 -153.5 59t-61.5 152z" />
<glyph unicode="&#x130;" horiz-adv-x="587" d="M82 0v1432h424v-1432h-424zM125 1686q0 70 50 119.5t120 49.5t118 -49t48 -120q0 -70 -48 -118t-118 -48t-120 48t-50 118z" />
<glyph unicode="&#x131;" horiz-adv-x="573" d="M82 0v983h410v-983h-410z" />
<glyph unicode="&#x132;" horiz-adv-x="1392" d="M82 0v1432h424v-1432h-424zM578 20v365q70 -33 167 -33q84 0 118 35t34 117v928h424v-977q0 -221 -122 -353.5t-357 -132.5q-70 0 -149 15.5t-115 35.5z" />
<glyph unicode="&#x133;" horiz-adv-x="1140" d="M82 1305q0 90 61.5 150.5t153.5 60.5q90 0 152.5 -61.5t62.5 -149.5q0 -90 -62.5 -150.5t-152.5 -60.5q-92 0 -153.5 59t-61.5 152zM92 0v983h410v-983h-410zM356 -109q61 -31 146 -30q63 0 100 33.5t37 103.5v985h412v-1036q0 -207 -134.5 -313.5t-351.5 -106.5 q-127 0 -209 39v325zM629 1305q0 88 62.5 149.5t152.5 61.5t152.5 -61.5t62.5 -149.5q0 -90 -62.5 -150.5t-152.5 -60.5q-92 0 -153.5 59t-61.5 152z" />
<glyph unicode="&#x134;" horiz-adv-x="815" d="M0 20v365q70 -33 168 -33q84 0 117.5 35t33.5 117v928h424v-977q0 -221 -121.5 -353.5t-357.5 -132.5q-69 0 -148 15.5t-116 35.5zM45 1518l303 352h338l303 -352h-352l-119 145l-119 -145h-354z" />
<glyph unicode="&#x135;" horiz-adv-x="581" d="M-195 -109q61 -31 146 -30q63 0 100 33.5t37 103.5v985h412v-1036q0 -207 -134.5 -313.5t-351.5 -106.5q-127 0 -209 39v325zM-180 1081l303 353h338l303 -353h-352l-119 146l-119 -146h-354z" />
<glyph unicode="&#x136;" horiz-adv-x="1525" d="M82 0v1432h424v-555l440 555h500l-551 -695l590 -737h-500l-479 598v-598h-424zM369 -532l170 440h403l-221 -440h-352z" />
<glyph unicode="&#x137;" horiz-adv-x="1347" d="M82 0v1513h410v-907l290 377h469l-366 -473l422 -510h-469l-346 418v-418h-410zM285 -532l170 440h403l-221 -440h-352z" />
<glyph unicode="&#x138;" horiz-adv-x="1347" d="M82 0v983h410v-391l290 391h469l-366 -491l422 -492h-469l-346 403v-403h-410z" />
<glyph unicode="&#x139;" horiz-adv-x="1083" d="M82 0v1432h424v-1076h577v-356h-1001zM119 1516l141 368h412l-191 -368h-362z" />
<glyph unicode="&#x13a;" horiz-adv-x="573" d="M82 0v1513h410v-1513h-410zM109 1577l141 369h412l-191 -369h-362z" />
<glyph unicode="&#x13b;" horiz-adv-x="1083" d="M82 0v1432h424v-1076h577v-356h-1001zM268 -532l170 440h404l-221 -440h-353z" />
<glyph unicode="&#x13c;" horiz-adv-x="587" d="M-82 -532l170 440h404l-222 -440h-352zM82 0v1432h424v-1432h-424z" />
<glyph unicode="&#x13d;" horiz-adv-x="1124" d="M82 0v1432h424v-1076h577v-356h-1001zM657 1030l170 440h404l-221 -440h-353z" />
<glyph unicode="&#x13e;" horiz-adv-x="1095" d="M82 0v1513h410v-1513h-410zM561 1124l170 441h404l-222 -441h-352z" />
<glyph unicode="&#x13f;" horiz-adv-x="1083" d="M82 0v1432h424v-1076h577v-356h-1001zM662 815q0 70 50 120t119 50q70 0 118 -49t48 -121q0 -70 -48 -118t-118 -48q-69 0 -119 48t-50 118z" />
<glyph unicode="&#x140;" horiz-adv-x="876" d="M82 0v1513h410v-1513h-410zM561 791q0 70 50.5 120t119.5 50q70 0 118 -49.5t48 -120.5q0 -70 -48 -118t-118 -48q-69 0 -119.5 48t-50.5 118z" />
<glyph unicode="&#x141;" horiz-adv-x="1099" d="M-41 434v397l139 62v539h432v-347l261 117v-395l-261 -117v-328h570v-362h-1002v496z" />
<glyph unicode="&#x142;" horiz-adv-x="647" d="M-92 381v397l201 88v647h409v-462l221 98v-397l-221 -99v-653h-409v469z" />
<glyph unicode="&#x143;" horiz-adv-x="1445" d="M82 0v1432h412l446 -750v750h424v-1432h-410l-448 750v-750h-424zM537 1509l141 369h412l-191 -369h-362z" />
<glyph unicode="&#x144;" horiz-adv-x="1288" d="M82 0v983h395v-96q63 61 149.5 94t180.5 33q211 0 310.5 -107.5t99.5 -296.5v-610h-412v553q0 70 -30 105.5t-95 35.5q-123 0 -188 -110v-584h-410zM420 1071l141 369h412l-191 -369h-362z" />
<glyph unicode="&#x145;" horiz-adv-x="1445" d="M82 0v1432h412l446 -750v750h424v-1432h-410l-448 750v-750h-424zM381 -532l170 440h403l-221 -440h-352z" />
<glyph unicode="&#x146;" horiz-adv-x="1288" d="M82 0v983h395v-96q63 61 149.5 94t180.5 33q211 0 310.5 -107.5t99.5 -296.5v-610h-412v553q0 70 -30 105.5t-95 35.5q-123 0 -188 -110v-584h-410zM305 -532l170 440h404l-222 -440h-352z" />
<glyph unicode="&#x147;" horiz-adv-x="1445" d="M82 0v1432h412l446 -750v750h424v-1432h-410l-448 750v-750h-424zM266 1884h355l118 -145l119 145h352l-303 -352h-338z" />
<glyph unicode="&#x148;" horiz-adv-x="1300" d="M94 0v983h395v-96q63 61 149.5 94t180.5 33q211 0 310.5 -107.5t99.5 -296.5v-610h-412v553q0 70 -29.5 105.5t-95.5 35.5q-123 0 -188 -110v-584h-410zM154 1448h354l119 -145l118 145h353l-303 -352h-338z" />
<glyph unicode="&#x149;" horiz-adv-x="1538" d="M-82 1030l170 440h404l-222 -440h-352zM332 0v983h395v-96q63 61 149.5 94t180.5 33q211 0 310 -107.5t99 -296.5v-610h-411v553q0 70 -30 105.5t-95 35.5q-123 0 -189 -110v-584h-409z" />
<glyph unicode="&#x14a;" horiz-adv-x="1445" d="M82 0v1432h412l446 -750v750h424v-1473q0 -209 -135 -320.5t-350 -111.5q-127 0 -209 39v325q61 -31 145 -30q63 0 100 33.5t37 103.5v14l-446 738v-750h-424z" />
<glyph unicode="&#x14b;" horiz-adv-x="1286" d="M82 0v983h395v-96q63 61 149.5 94t180.5 33q211 0 309 -107.5t98 -296.5v-661q0 -209 -133 -315.5t-350 -106.5q-127 0 -209 39v328q59 -33 146 -33q63 0 100 33.5t37 103.5v555q0 70 -30 105.5t-95 35.5q-123 0 -188 -110v-584h-410z" />
<glyph unicode="&#x14c;" horiz-adv-x="1626" d="M41 715q0 219 101.5 389t278.5 264t394 94t392 -94t276.5 -264t101.5 -389t-101.5 -388t-276.5 -263.5t-392 -94.5t-394 94.5t-278.5 263.5t-101.5 388zM451 1550v242h729v-242h-729zM473 715q0 -106 45 -185t123 -121t174 -42q94 0 171 42t122 120.5t45 185.5 q0 158 -96 252t-242 94q-147 0 -244.5 -94.5t-97.5 -251.5z" />
<glyph unicode="&#x14d;" horiz-adv-x="1325" d="M41 492q0 150 76 268.5t216 186t329 67.5q188 0 329.5 -67.5t217 -186.5t75.5 -268q0 -152 -75.5 -271t-217 -185.5t-329.5 -66.5q-189 0 -329 66.5t-216 185.5t-76 271zM297 1098v241h729v-241h-729zM461 492q0 -94 54 -149.5t147 -55.5q92 0 147 55t55 150 q0 94 -55 148t-147 54t-146.5 -54t-54.5 -148z" />
<glyph unicode="&#x14e;" horiz-adv-x="1626" d="M41 715q0 219 101.5 389t278.5 264t394 94t392 -94t276.5 -264t101.5 -389t-101.5 -388t-276.5 -263.5t-392 -94.5t-394 94.5t-278.5 263.5t-101.5 388zM416 1894h305q0 -123 92 -122q92 0 92 122h305q0 -176 -103 -276t-294 -100q-190 0 -293.5 100t-103.5 276zM473 715 q0 -106 45 -185t123 -121t174 -42q94 0 171 42t122 120.5t45 185.5q0 158 -96 252t-242 94q-147 0 -244.5 -94.5t-97.5 -251.5z" />
<glyph unicode="&#x14f;" horiz-adv-x="1325" d="M41 492q0 150 76 268.5t216 186t329 67.5q188 0 329.5 -67.5t217 -186.5t75.5 -268q0 -152 -75.5 -271t-217 -185.5t-329.5 -66.5q-189 0 -329 66.5t-216 185.5t-76 271zM264 1434h305q0 -123 93 -123q92 0 92 123h305q0 -176 -103.5 -276.5t-293.5 -100.5 q-191 0 -294.5 100t-103.5 277zM461 492q0 -94 54 -149.5t147 -55.5q92 0 147 55t55 150q0 94 -55 148t-147 54t-146.5 -54t-54.5 -148z" />
<glyph unicode="&#x150;" horiz-adv-x="1626" d="M41 715q0 219 101.5 389t278.5 264t394 94t392 -94t276.5 -264t101.5 -389t-101.5 -388t-276.5 -263.5t-392 -94.5t-394 94.5t-278.5 263.5t-101.5 388zM354 1518l140 366h397l-191 -366h-346zM473 715q0 -106 45 -185t123 -121t174 -42q94 0 171 42t122 120.5t45 185.5 q0 158 -96 252t-242 94q-147 0 -244.5 -94.5t-97.5 -251.5zM899 1518l139 366h396l-189 -366h-346z" />
<glyph unicode="&#x151;" horiz-adv-x="1325" d="M41 492q0 150 76 268.5t216 186t329 67.5q188 0 329.5 -67.5t217 -186.5t75.5 -268q0 -152 -75.5 -271t-217 -185.5t-329.5 -66.5q-189 0 -329 66.5t-216 185.5t-76 271zM186 1067l140 367h397l-191 -367h-346zM461 492q0 -94 54 -149.5t147 -55.5q92 0 147 55t55 150 q0 94 -55 148t-147 54t-146.5 -54t-54.5 -148zM731 1067l139 367h396l-189 -367h-346z" />
<glyph unicode="&#x152;" horiz-adv-x="1824" d="M41 715q0 219 105.5 382t295 249t432.5 86h910v-357h-545v-196h373v-326h-373v-197h545v-356h-910q-243 0 -432.5 86t-295 248t-105.5 381zM473 715q0 -164 89 -249t253 -85v668q-166 0 -254 -86t-88 -248z" />
<glyph unicode="&#x153;" horiz-adv-x="2203" d="M41 492q0 150 76 268.5t216 186t329 67.5q152 0 272.5 -44t204.5 -124q74 82 188.5 125t267.5 43q180 0 308.5 -66.5t194 -183.5t65.5 -262v-133h-758q49 -131 297 -131q98 0 201.5 15t175.5 44v-256q-78 -33 -195 -52.5t-239 -19.5q-168 0 -295 44t-207 128 q-82 -82 -205 -127t-276 -45q-188 0 -328.5 66.5t-216.5 185.5t-76 271zM461 492q0 -94 54 -149.5t147 -55.5q92 0 147 55t55 150q0 94 -55 148t-147 54t-146.5 -54t-54.5 -148zM1405 606h371q-10 66 -57.5 101.5t-129.5 35.5t-128 -36.5t-56 -100.5z" />
<glyph unicode="&#x154;" horiz-adv-x="1345" d="M82 0v1432h666q258 0 407.5 -130.5t149.5 -375.5q0 -160 -67 -272.5t-189 -172.5l239 -481h-434l-209 420h-139v-420h-424zM383 1509l141 369h412l-191 -369h-362zM506 756h158q98 0 152 37.5t54 132.5q0 94 -54 132t-152 38h-158v-340z" />
<glyph unicode="&#x155;" horiz-adv-x="858" d="M82 0v983h395v-106q57 59 158.5 94t222.5 35v-318q-129 0 -229.5 -35t-136.5 -102v-551h-410zM113 1059l141 368h412l-191 -368h-362z" />
<glyph unicode="&#x156;" horiz-adv-x="1345" d="M82 0v1432h666q258 0 407.5 -130.5t149.5 -375.5q0 -160 -67 -272.5t-189 -172.5l239 -481h-434l-209 420h-139v-420h-424zM303 -532l170 440h404l-222 -440h-352zM506 756h158q98 0 152 37.5t54 132.5q0 94 -54 132t-152 38h-158v-340z" />
<glyph unicode="&#x157;" horiz-adv-x="845" d="M-96 -532l170 440h403l-221 -440h-352zM70 0v983h395v-106q57 59 158.5 94t222.5 35v-318q-129 0 -229.5 -35t-137.5 -102v-551h-409z" />
<glyph unicode="&#x158;" horiz-adv-x="1345" d="M82 0v1432h666q258 0 407.5 -130.5t149.5 -375.5q0 -160 -67 -272.5t-189 -172.5l239 -481h-434l-209 420h-139v-420h-424zM203 1884h354l119 -145l119 145h352l-303 -352h-338zM506 756h158q98 0 152 37.5t54 132.5q0 94 -54 132t-152 38h-158v-340z" />
<glyph unicode="&#x159;" horiz-adv-x="841" d="M-150 1434h355l119 -146l118 146h353l-303 -353h-338zM66 0v983h395v-106q57 59 158.5 94t222.5 35v-318q-129 0 -229.5 -35t-137.5 -102v-551h-409z" />
<glyph unicode="&#x15a;" horiz-adv-x="1175" d="M41 70v374q113 -61 236.5 -91.5t232.5 -30.5q158 0 158 84q0 35 -23.5 60.5t-71 49t-149.5 68.5q-199 86 -288 188t-89 254q0 127 70.5 226.5t197.5 154.5t293 55q135 0 239.5 -21.5t203.5 -68.5v-362q-178 98 -365 98q-82 0 -131 -23.5t-49 -68.5t44 -73t167 -77l45 -18 q145 -59 224 -117.5t114 -135.5t35 -194q0 -203 -147.5 -317.5t-444.5 -114.5q-137 0 -276.5 28t-225.5 73zM397 1509l142 369h411l-190 -369h-363z" />
<glyph unicode="&#x15b;" horiz-adv-x="1060" d="M41 686q0 166 131 247t358 81q109 0 235 -23.5t187 -62.5v-285q-63 41 -169.5 70.5t-194.5 29.5q-121 0 -121 -41q0 -18 29.5 -30.5t103.5 -28.5l86 -20q133 -35 205 -80t100.5 -105.5t28.5 -150.5q0 -145 -128 -231.5t-368 -86.5q-123 0 -257 22.5t-212 65.5v289 q84 -49 206 -83t220 -34q59 0 86 7.5t27 29.5q0 20 -25.5 30.5t-95.5 29.5l-94 26q-125 37 -197.5 79t-106.5 102.5t-34 152.5zM301 1059l141 368h412l-190 -368h-363z" />
<glyph unicode="&#x15c;" horiz-adv-x="1175" d="M41 70v374q113 -61 236.5 -91.5t232.5 -30.5q158 0 158 84q0 35 -23.5 60.5t-71 49t-149.5 68.5q-199 86 -288 188t-89 254q0 127 70.5 226.5t197.5 154.5t293 55q135 0 239.5 -21.5t203.5 -68.5v-362q-178 98 -365 98q-82 0 -131 -23.5t-49 -68.5t44 -73t167 -77l45 -18 q145 -59 224 -117.5t114 -135.5t35 -194q0 -203 -147.5 -317.5t-444.5 -114.5q-137 0 -276.5 28t-225.5 73zM117 1532l303 352h338l303 -352h-352l-119 145l-119 -145h-354z" />
<glyph unicode="&#x15d;" horiz-adv-x="1038" d="M10 686q0 166 131 247t359 81q109 0 234.5 -23.5t187.5 -62.5v-285q-63 41 -170 70.5t-195 29.5q-121 0 -121 -41q0 -18 30 -30.5t103 -28.5l86 -20q133 -35 205 -80t100.5 -105.5t28.5 -150.5q0 -145 -128 -231.5t-367 -86.5q-123 0 -257.5 22.5t-211.5 65.5v289 q84 -49 205.5 -83t220.5 -34q59 0 85.5 7.5t26.5 29.5q0 20 -25.5 30.5t-95.5 29.5l-94 26q-125 37 -197.5 79t-106.5 102.5t-34 152.5zM20 1081l304 353h338l303 -353h-353l-118 146l-119 -146h-355z" />
<glyph unicode="&#x15e;" horiz-adv-x="1175" d="M41 70v374q113 -61 236.5 -91.5t232.5 -30.5q158 0 158 84q0 35 -23.5 60.5t-71 49t-149.5 68.5q-199 86 -288 188t-89 254q0 127 70.5 226.5t197.5 154.5t293 55q135 0 239.5 -21.5t203.5 -68.5v-362q-178 98 -365 98q-82 0 -131 -23.5t-49 -68.5t44 -73t167 -77l45 -18 q145 -59 224 -117.5t114 -135.5t35 -194q0 -178 -114 -289.5t-343 -136.5l-27 -69q90 -12 140.5 -63.5t50.5 -127.5q0 -102 -83 -162.5t-241 -60.5q-145 0 -223 31v164q25 -14 62.5 -22.5t72.5 -8.5q66 0 98.5 16.5t32.5 59.5q0 49 -47 69.5t-162 20.5l58 153 q-109 10 -207.5 35t-161.5 60z" />
<glyph unicode="&#x15f;" horiz-adv-x="1060" d="M41 686q0 166 131 247t358 81q109 0 235 -23.5t187 -62.5v-285q-63 41 -169.5 70.5t-194.5 29.5q-121 0 -121 -41q0 -18 29.5 -30.5t103.5 -28.5l86 -20q133 -35 205 -80t100.5 -105.5t28.5 -150.5q0 -125 -96.5 -208t-280.5 -104l-27 -69q90 -12 140.5 -63.5 t50.5 -127.5q0 -102 -83 -162.5t-241 -60.5q-145 0 -223 31v164q25 -14 62.5 -22.5t72.5 -8.5q66 0 98.5 16.5t32.5 59.5q0 49 -47 69.5t-162 20.5l60 155q-217 23 -322 80v289q84 -49 206 -83t220 -34q59 0 86 7.5t27 29.5q0 20 -25.5 30.5t-95.5 29.5l-94 26 q-125 37 -197.5 79t-106.5 102.5t-34 152.5z" />
<glyph unicode="&#x160;" horiz-adv-x="1175" d="M41 70v374q113 -61 236.5 -91.5t232.5 -30.5q158 0 158 84q0 35 -23.5 60.5t-71 49t-149.5 68.5q-199 86 -288 188t-89 254q0 127 70.5 226.5t197.5 154.5t293 55q135 0 239.5 -21.5t203.5 -68.5v-362q-178 98 -365 98q-82 0 -131 -23.5t-49 -68.5t44 -73t167 -77l45 -18 q145 -59 224 -117.5t114 -135.5t35 -194q0 -203 -147.5 -317.5t-444.5 -114.5q-137 0 -276.5 28t-225.5 73zM115 1884h354l119 -145l119 145h352l-303 -352h-338z" />
<glyph unicode="&#x161;" horiz-adv-x="1048" d="M29 686q0 166 131 247t358 81q109 0 235 -23.5t187 -62.5v-285q-63 41 -169.5 70.5t-195.5 29.5q-121 0 -120 -41q0 -18 29.5 -30.5t103.5 -28.5l86 -20q133 -35 204.5 -80t100.5 -105.5t29 -150.5q0 -145 -128 -231.5t-368 -86.5q-123 0 -257 22.5t-212 65.5v289 q84 -49 206 -83t220 -34q59 0 86 7.5t27 29.5q0 20 -26 30.5t-95 29.5l-94 26q-125 37 -198 79t-106.5 102.5t-33.5 152.5zM51 1434h355l118 -146l119 146h352l-303 -353h-338z" />
<glyph unicode="&#x162;" horiz-adv-x="1214" d="M10 1075v357h1194v-357h-385v-1075h-76l-36 -94q90 -12 140 -63.5t50 -127.5q0 -102 -83 -162.5t-241 -60.5q-145 0 -223 31v164q25 -14 63 -22.5t72 -8.5q66 0 98.5 16.5t32.5 59.5q0 49 -47 69.5t-161 20.5l67 178h-80v1075h-385z" />
<glyph unicode="&#x163;" horiz-adv-x="808" d="M0 707v276h135v295h412v-295h219v-276h-219v-283q0 -74 27.5 -105.5t93.5 -31.5q74 0 141 39v-303q-80 -40 -180 -50l-27 -67q90 -12 140.5 -63.5t50.5 -127.5q0 -102 -83 -162.5t-241 -60.5q-145 0 -223 31v164q25 -14 62.5 -22.5t72.5 -8.5q66 0 98.5 16.5t32.5 59.5 q0 49 -47 69.5t-162 20.5l66 170q-115 37 -174.5 135t-59.5 238v342h-135z" />
<glyph unicode="&#x164;" horiz-adv-x="1214" d="M10 1075v357h1194v-357h-385v-1075h-424v1075h-385zM143 1884h355l118 -145l119 145h352l-303 -352h-338z" />
<glyph unicode="&#x165;" horiz-adv-x="1175" d="M0 707v276h135v295h412v-295h219v-276h-219v-283q0 -74 27.5 -105.5t93.5 -31.5q74 0 141 39v-303q-59 -27 -123.5 -40.5t-163.5 -13.5q-190 0 -288.5 106.5t-98.5 289.5v342h-135zM678 1196l170 440h403l-221 -440h-352z" />
<glyph unicode="&#x166;" horiz-adv-x="1214" d="M10 1067v365h1194v-365h-381v-229h209v-346h-209v-492h-432v492h-203v346h203v229h-381z" />
<glyph unicode="&#x167;" horiz-adv-x="808" d="M0 410v217h137v84h-137v272h137v295h410v-295h219v-272h-219v-84h219v-217h-219q2 -66 30.5 -94.5t92.5 -28.5q74 0 139 39v-303q-57 -27 -121.5 -40.5t-163.5 -13.5q-192 0 -289.5 106.5t-97.5 289.5v45h-137z" />
<glyph unicode="&#x168;" horiz-adv-x="1482" d="M72 623v809h424v-805q0 -131 62.5 -199t182.5 -68q121 0 183.5 68t62.5 199v805h424v-809q0 -190 -72.5 -338t-222 -232t-375.5 -84q-225 0 -374.5 84t-222 231.5t-72.5 338.5zM332 1520v288q72 84 219 84q45 0 91 -12t120 -39q63 -25 109.5 -38t91.5 -13q133 0 219 100 v-286q-70 -84 -219 -84q-51 0 -101.5 13t-118.5 40q-68 25 -108.5 37t-83.5 12q-131 0 -219 -102z" />
<glyph unicode="&#x169;" horiz-adv-x="1288" d="M72 387v596h409v-547q0 -150 131 -149q59 0 106.5 28.5t76.5 81.5v586h411v-983h-397v94q-61 -61 -147.5 -93t-180.5 -32q-205 0 -307 115t-102 303zM240 1067v289q72 84 219 84q45 0 91 -12.5t120 -38.5q63 -25 109 -38.5t91 -13.5q133 0 220 101v-287q-70 -84 -220 -84 q-51 0 -101 13.5t-118 39.5q-68 25 -108.5 37t-83.5 12q-131 0 -219 -102z" />
<glyph unicode="&#x16a;" horiz-adv-x="1482" d="M72 623v809h424v-805q0 -131 62.5 -199t182.5 -68q121 0 183.5 68t62.5 199v805h424v-809q0 -190 -72.5 -338t-222 -232t-375.5 -84q-225 0 -374.5 84t-222 231.5t-72.5 338.5zM389 1550v242h729v-242h-729z" />
<glyph unicode="&#x16b;" horiz-adv-x="1288" d="M72 387v596h409v-547q0 -150 131 -149q59 0 106.5 28.5t76.5 81.5v586h411v-983h-397v94q-61 -61 -147.5 -93t-180.5 -32q-205 0 -307 115t-102 303zM291 1098v241h729v-241h-729z" />
<glyph unicode="&#x16c;" horiz-adv-x="1482" d="M72 623v809h424v-805q0 -131 62.5 -199t182.5 -68q121 0 183.5 68t62.5 199v805h424v-809q0 -190 -72.5 -338t-222 -232t-375.5 -84q-225 0 -374.5 84t-222 231.5t-72.5 338.5zM356 1894h306q0 -123 92 -122q92 0 92 122h305q0 -176 -103.5 -276t-293.5 -100 q-191 0 -294.5 100t-103.5 276z" />
<glyph unicode="&#x16d;" horiz-adv-x="1288" d="M72 387v596h409v-547q0 -150 131 -149q59 0 106.5 28.5t76.5 81.5v586h411v-983h-397v94q-61 -61 -147.5 -93t-180.5 -32q-205 0 -307 115t-102 303zM252 1444h305q0 -123 92 -123t92 123h306q0 -176 -103.5 -276.5t-294.5 -100.5q-190 0 -293.5 100.5t-103.5 276.5z" />
<glyph unicode="&#x16e;" horiz-adv-x="1482" d="M72 623v809h424v-805q0 -131 62.5 -199t182.5 -68q121 0 183.5 68t62.5 199v805h424v-809q0 -190 -72.5 -338t-222 -232t-375.5 -84q-225 0 -374.5 84t-222 231.5t-72.5 338.5zM446 1817q0 84 41 152.5t112 108.5t153 40q84 0 154.5 -40t111.5 -108.5t41 -152.5 q0 -82 -41 -151t-111.5 -108.5t-154.5 -39.5q-82 0 -153 39.5t-112 108.5t-41 151zM647 1817q0 -43 31 -74t74 -31q45 0 75.5 31t30.5 74q0 47 -29.5 76.5t-76.5 29.5q-43 0 -74 -30.5t-31 -75.5z" />
<glyph unicode="&#x16f;" horiz-adv-x="1288" d="M72 387v596h409v-547q0 -150 131 -149q59 0 106.5 28.5t76.5 81.5v586h411v-983h-397v94q-61 -61 -147.5 -93t-180.5 -32q-205 0 -307 115t-102 303zM346 1366q0 84 41 152.5t111.5 108.5t152.5 40q84 0 155 -40t111.5 -108.5t40.5 -152.5q0 -82 -40.5 -150.5 t-111.5 -108.5t-155 -40q-82 0 -152.5 40t-111.5 108.5t-41 150.5zM547 1366q0 -43 30.5 -73.5t73.5 -30.5q45 0 76 30.5t31 73.5q0 47 -30 77t-77 30q-43 0 -73.5 -31t-30.5 -76z" />
<glyph unicode="&#x170;" horiz-adv-x="1482" d="M72 623v809h424v-805q0 -131 62.5 -199t182.5 -68q121 0 183.5 68t62.5 199v805h424v-809q0 -190 -72.5 -338t-222 -232t-375.5 -84q-225 0 -374.5 84t-222 231.5t-72.5 338.5zM303 1518l139 366h398l-191 -366h-346zM848 1518l139 366h395l-188 -366h-346z" />
<glyph unicode="&#x171;" horiz-adv-x="1290" d="M72 387v596h409v-547q0 -150 131 -149q59 0 106.5 28.5t76.5 81.5v586h411v-983h-397v94q-61 -61 -147.5 -93t-180.5 -32q-205 0 -307 115t-102 303zM180 1067l139 367h398l-191 -367h-346zM725 1067l139 367h396l-189 -367h-346z" />
<glyph unicode="&#x172;" horiz-adv-x="1482" d="M72 623v809h424v-805q0 -131 62.5 -199t182.5 -68q121 0 183.5 68t62.5 199v805h424v-809q0 -244 -115.5 -412t-349.5 -221q-76 -39 -109.5 -74t-33.5 -76q0 -27 16.5 -42t44.5 -15q51 0 101 24v-221q-106 -33 -238 -32q-125 0 -201.5 51t-76.5 153q0 141 118 226 q-248 45 -371.5 216t-123.5 423z" />
<glyph unicode="&#x173;" horiz-adv-x="1288" d="M72 387v596h409v-547q0 -150 131 -149q59 0 106.5 28.5t76.5 81.5v586h411v-983h-12q-86 -43 -124 -80t-38 -80q0 -27 16.5 -42t45.5 -15q51 0 100 24v-221q-106 -33 -238 -32q-125 0 -201.5 51t-76.5 153q0 78 38 139.5t105 102.5h-12v94q-61 -61 -147.5 -93t-180.5 -32 q-205 0 -307 115t-102 303z" />
<glyph unicode="&#x174;" horiz-adv-x="2027" d="M41 1432h438l199 -750l190 750h308l174 -752l196 752h441l-381 -1432h-398l-194 760l-195 -760h-397zM553 1532l303 352h338l303 -352h-352l-119 145l-119 -145h-354z" />
<glyph unicode="&#x175;" horiz-adv-x="1775" d="M41 983h410l137 -512l137 512h326l137 -512l137 512h410l-332 -983h-369l-147 496l-146 -496h-368zM426 1081l303 353h338l303 -353h-352l-119 146l-119 -146h-354z" />
<glyph unicode="&#x176;" horiz-adv-x="1568" d="M41 1432h453l282 -494l301 494h451l-541 -887v-545h-424v545zM315 1532l303 352h338l304 -352h-353l-119 145l-118 -145h-355z" />
<glyph unicode="&#x177;" horiz-adv-x="1345" d="M72 983h409l234 -600l219 600h412l-394 -1006q-78 -197 -196.5 -290t-306.5 -93q-72 0 -150 10.5t-115 28.5v304q63 -25 140 -25q66 0 100.5 27.5t54.5 83.5l19 47zM254 1081l303 353h338l303 -353h-352l-119 146l-119 -146h-354z" />
<glyph unicode="&#x178;" horiz-adv-x="1568" d="M41 1432h453l282 -494l301 494h451l-541 -887v-545h-424v545zM367 1696q0 70 51 120t119 50q70 0 119 -50.5t49 -119.5q0 -70 -49.5 -118t-118.5 -48q-70 0 -120 48t-50 118zM850 1696q0 70 50 120t120 50q68 0 117 -50.5t49 -119.5q0 -70 -49.5 -118t-116.5 -48 q-70 0 -120 48t-50 118z" />
<glyph unicode="&#x179;" horiz-adv-x="1251" d="M41 0v279l598 796h-584v357h1108v-281l-596 -795h643v-356h-1169zM397 1509l142 369h411l-190 -369h-363z" />
<glyph unicode="&#x17a;" horiz-adv-x="1087" d="M41 0v213l438 494h-428v276h979v-213l-434 -494h451v-276h-1006zM354 1059l142 368h411l-190 -368h-363z" />
<glyph unicode="&#x17b;" horiz-adv-x="1251" d="M41 0v279l598 796h-584v357h1108v-281l-596 -795h643v-356h-1169zM451 1686q0 70 50 119.5t120 49.5t117.5 -49t47.5 -120q0 -70 -48 -118t-117 -48q-70 0 -120 48t-50 118z" />
<glyph unicode="&#x17c;" horiz-adv-x="1087" d="M41 0v213l438 494h-428v276h979v-213l-434 -494h451v-276h-1006zM403 1233q0 70 50.5 120t119.5 50q70 0 118 -49t48 -121q0 -70 -48 -118t-118 -48q-69 0 -119.5 48t-50.5 118z" />
<glyph unicode="&#x17d;" horiz-adv-x="1251" d="M41 0v279l598 796h-584v357h1108v-281l-596 -795h643v-356h-1169zM152 1884h354l119 -145l118 145h353l-303 -352h-338z" />
<glyph unicode="&#x17e;" horiz-adv-x="1116" d="M41 0v213l438 494h-428v276h979v-213l-434 -494h451v-276h-1006zM90 1434h354l119 -146l119 146h352l-303 -353h-338z" />
<glyph unicode="&#x18f;" horiz-adv-x="1685" d="M41 698v174h1087q-23 121 -126 179.5t-320 58.5q-135 0 -276.5 -22.5t-245.5 -63.5v336q113 47 271.5 74.5t330.5 27.5q274 0 473 -87t304.5 -254t105.5 -400q0 -229 -93.5 -398t-275.5 -261.5t-442 -92.5q-259 0 -437 95.5t-267 260t-89 373.5zM512 569 q14 -109 94 -181.5t217 -72.5q138 0 215.5 69t89.5 185h-616z" />
<glyph unicode="&#x192;" horiz-adv-x="1150" d="M-225 -436l59 289q55 -31 125 -31q82 0 130 38t65 115l159 758h-141l49 250h144l26 123q47 219 178 318.5t355 99.5q125 0 198 -37l-57 -287q-53 29 -129 29q-160 0 -191 -154l-20 -92h242l-49 -250h-244l-168 -786q-45 -219 -173 -318.5t-360 -99.5q-124 0 -198 35z" />
<glyph unicode="&#x1a0;" horiz-adv-x="1857" d="M41 715q0 219 101.5 389t278.5 264t394 94q145 0 275.5 -44t230.5 -126q113 0 158 42t45 128v68h334v-94q0 -162 -87.5 -272.5t-246.5 -139.5q61 -145 61 -309q0 -219 -101.5 -388t-276.5 -263.5t-392 -94.5t-394 94.5t-278.5 263.5t-101.5 388zM479 715 q0 -158 95.5 -250t240.5 -92q143 0 237.5 92t94.5 250q0 156 -94.5 248t-237.5 92q-145 0 -240.5 -92.5t-95.5 -247.5z" />
<glyph unicode="&#x1a1;" horiz-adv-x="1536" d="M41 492q0 150 76 268.5t216 186t329 67.5q240 0 405 -111q76 12 108.5 55t32.5 117v68h328v-94q0 -145 -71.5 -251t-204.5 -147q25 -76 24 -159q0 -152 -75.5 -271t-217 -185.5t-329.5 -66.5q-189 0 -329 66.5t-216 185.5t-76 271zM461 492q0 -94 54 -149.5t147 -55.5 q92 0 147 55t55 150q0 94 -55 148t-147 54t-146.5 -54t-54.5 -148z" />
<glyph unicode="&#x1af;" horiz-adv-x="1847" d="M82 600v832h379v-826q0 -145 69.5 -218t202.5 -73t202 73t69 218v826h380v-138q94 0 127 37t33 129v70h303v-92q0 -182 -112.5 -292t-350.5 -110v-436q0 -285 -163.5 -458t-487.5 -173q-323 0 -487 173t-164 458z" />
<glyph unicode="&#x1b0;" horiz-adv-x="1642" d="M72 387v596h409v-547q0 -150 131 -149q59 0 106.5 28.5t76.5 81.5v586h411v-76q78 6 105.5 44t27.5 122v70h303v-92q0 -176 -106 -285t-330 -117v-649h-397v94q-61 -61 -147.5 -93t-180.5 -32q-205 0 -307 115t-102 303z" />
<glyph unicode="&#x1cd;" horiz-adv-x="1634" d="M41 0l573 1432h408l571 -1432h-434l-106 272h-469l-109 -272h-434zM346 1884h354l119 -145l119 145h352l-303 -352h-338zM680 594h274l-137 401z" />
<glyph unicode="&#x1ce;" horiz-adv-x="1269" d="M-20 305q0 166 110.5 253t321.5 87q76 0 153.5 -16.5t130.5 -40.5v18q0 68 -66.5 102.5t-185.5 34.5q-178 0 -327 -71v270q68 33 176 52.5t231 19.5q285 0 434.5 -108.5t149.5 -307.5v-598h-387v78q-49 -49 -135 -79t-191 -30q-188 0 -301.5 87t-113.5 249zM213 1434h354 l119 -146l119 146h352l-303 -353h-338zM403 305q0 -45 31 -71.5t88 -26.5q56 0 103 20.5t71 53.5v75q-76 49 -172 50q-57 0 -89 -27t-32 -74z" />
<glyph unicode="&#x1cf;" horiz-adv-x="587" d="M-178 1890h354l119 -145l119 145h352l-303 -352h-338zM82 0v1432h424v-1432h-424z" />
<glyph unicode="&#x1d0;" horiz-adv-x="575" d="M-184 1438h354l119 -146l119 146h352l-303 -353h-338zM84 0v983h410v-983h-410z" />
<glyph unicode="&#x1d1;" horiz-adv-x="1626" d="M41 715q0 219 101.5 389t278.5 264t394 94t392 -94t276.5 -264t101.5 -389t-101.5 -388t-276.5 -263.5t-392 -94.5t-394 94.5t-278.5 263.5t-101.5 388zM342 1884h354l119 -145l119 145h352l-303 -352h-338zM473 715q0 -106 45 -185t123 -121t174 -42q94 0 171 42 t122 120.5t45 185.5q0 158 -96 252t-242 94q-147 0 -244.5 -94.5t-97.5 -251.5z" />
<glyph unicode="&#x1d2;" horiz-adv-x="1325" d="M41 492q0 150 76 268.5t216 186t329 67.5q188 0 329.5 -67.5t217 -186.5t75.5 -268q0 -152 -75.5 -271t-217 -185.5t-329.5 -66.5q-189 0 -329 66.5t-216 185.5t-76 271zM190 1434h355l119 -146l118 146h353l-304 -353h-337zM461 492q0 -94 54 -149.5t147 -55.5 q92 0 147 55t55 150q0 94 -55 148t-147 54t-146.5 -54t-54.5 -148z" />
<glyph unicode="&#x1d3;" horiz-adv-x="1482" d="M72 623v809h424v-805q0 -131 62.5 -199t182.5 -68q121 0 183.5 68t62.5 199v805h424v-809q0 -190 -72.5 -338t-222 -232t-375.5 -84q-225 0 -374.5 84t-222 231.5t-72.5 338.5zM281 1884h354l119 -145l118 145h353l-303 -352h-338z" />
<glyph unicode="&#x1d4;" horiz-adv-x="1288" d="M72 387v596h409v-547q0 -150 131 -149q59 0 106.5 28.5t76.5 81.5v586h411v-983h-397v94q-61 -61 -147.5 -93t-180.5 -32q-205 0 -307 115t-102 303zM182 1434h355l118 -146l119 146h352l-303 -353h-338z" />
<glyph unicode="&#x1d5;" horiz-adv-x="1482" d="M72 623v809h424v-805q0 -131 62.5 -199t182.5 -68q121 0 183.5 68t62.5 199v805h424v-809q0 -190 -72.5 -338t-222 -232t-375.5 -84q-225 0 -374.5 84t-222 231.5t-72.5 338.5zM344 1683q0 70 51 120t119 50q70 0 119 -50t49 -120t-49 -117.5t-119 -47.5t-120 48t-50 117 zM389 1954v241h729v-241h-729zM827 1683q0 70 50.5 120t119.5 50q68 0 117 -50t49 -120t-49 -117.5t-117 -47.5q-69 0 -119.5 48t-50.5 117z" />
<glyph unicode="&#x1d6;" horiz-adv-x="1288" d="M72 387v596h409v-547q0 -150 131 -149q59 0 106.5 28.5t76.5 81.5v586h411v-983h-397v94q-61 -61 -147.5 -93t-180.5 -32q-205 0 -307 115t-102 303zM252 1233q0 70 51 120t119 50q70 0 119 -50t49 -120t-49 -118t-119 -48t-120 48t-50 118zM297 1528v241h729v-241h-729z M735 1233q0 70 50.5 120t119.5 50q68 0 117 -50t49 -120t-49 -118t-117 -48q-69 0 -119.5 48t-50.5 118z" />
<glyph unicode="&#x1d7;" horiz-adv-x="1482" d="M72 623v809h424v-805q0 -131 62.5 -199t182.5 -68q121 0 183.5 68t62.5 199v805h424v-809q0 -190 -72.5 -338t-222 -232t-375.5 -84q-225 0 -374.5 84t-222 231.5t-72.5 338.5zM354 1692q0 63 47.5 109t108.5 46q63 0 108.5 -46t45.5 -109t-45.5 -107.5t-108.5 -44.5 q-64 0 -110 44t-46 108zM608 1860l119 294h336l-168 -294h-287zM838 1692q0 63 46 109t109 46q61 0 106.5 -46t45.5 -109t-45 -107.5t-107 -44.5q-63 0 -109 44t-46 108z" />
<glyph unicode="&#x1d8;" horiz-adv-x="1288" d="M72 387v596h409v-547q0 -150 131 -149q59 0 106.5 28.5t76.5 81.5v586h411v-983h-397v94q-61 -61 -147.5 -93t-180.5 -32q-205 0 -307 115t-102 303zM240 1233q0 63 47 109.5t108 46.5q63 0 108.5 -46.5t45.5 -109.5t-45 -107.5t-109 -44.5q-63 0 -109 44t-46 108z M494 1401l118 295h336l-168 -295h-286zM723 1233q0 63 46 109.5t110 46.5q61 0 106 -46.5t45 -109.5t-45 -107.5t-106 -44.5q-64 0 -110 44t-46 108z" />
<glyph unicode="&#x1d9;" horiz-adv-x="1482" d="M72 623v809h424v-805q0 -131 62.5 -199t182.5 -68q121 0 183.5 68t62.5 199v805h424v-809q0 -190 -72.5 -338t-222 -232t-375.5 -84q-225 0 -374.5 84t-222 231.5t-72.5 338.5zM350 1686q0 63 45 109t107 46q63 0 109 -46t46 -109t-46 -107.5t-109 -44.5q-62 0 -107 44 t-45 108zM379 2083h280l84 -94l84 94h281l-256 -258h-215zM831 1686q0 63 45.5 109t108.5 46q61 0 108.5 -46t47.5 -109t-46 -107.5t-110 -44.5q-63 0 -108.5 44t-45.5 108z" />
<glyph unicode="&#x1da;" horiz-adv-x="1288" d="M72 387v596h409v-547q0 -150 131 -149q59 0 106.5 28.5t76.5 81.5v586h411v-983h-397v94q-61 -61 -147.5 -93t-180.5 -32q-205 0 -307 115t-102 303zM242 1233q0 63 45 109.5t106 46.5q63 0 109.5 -46.5t46.5 -109.5t-46 -107.5t-110 -44.5q-61 0 -106 44t-45 108z M270 1630h281l84 -94l84 94h280l-256 -258h-215zM723 1233q0 63 45 109.5t109 46.5q61 0 108 -46.5t47 -109.5t-46 -107.5t-109 -44.5q-64 0 -109 44t-45 108z" />
<glyph unicode="&#x1db;" horiz-adv-x="1482" d="M72 623v809h424v-805q0 -131 62.5 -199t182.5 -68q121 0 183.5 68t62.5 199v805h424v-809q0 -190 -72.5 -338t-222 -232t-375.5 -84q-225 0 -374.5 84t-222 231.5t-72.5 338.5zM356 1686q0 63 45 109t107 46q63 0 109.5 -46t46.5 -109t-46.5 -107.5t-109.5 -44.5 q-62 0 -107 44t-45 108zM438 2148h336l119 -295h-287zM838 1686q0 63 45 109t108 46q61 0 108.5 -46t47.5 -109t-46 -107.5t-110 -44.5q-63 0 -108 44t-45 108z" />
<glyph unicode="&#x1dc;" horiz-adv-x="1288" d="M72 387v596h409v-547q0 -150 131 -149q59 0 106.5 28.5t76.5 81.5v586h411v-983h-397v94q-61 -61 -147.5 -93t-180.5 -32q-205 0 -307 115t-102 303zM246 1233q0 63 45 109.5t106 46.5q63 0 109.5 -46.5t46.5 -109.5t-46 -107.5t-110 -44.5q-61 0 -106 44t-45 108z M328 1696h336l118 -295h-286zM727 1233q0 63 45 109.5t109 46.5q61 0 108 -46.5t47 -109.5t-46 -107.5t-109 -44.5q-64 0 -109 44t-45 108z" />
<glyph unicode="&#x1e6;" horiz-adv-x="1415" d="M41 715q0 229 96 398t274.5 259t415.5 90q319 0 500 -119v-391q-90 68 -202.5 98.5t-260.5 30.5q-193 0 -292 -96t-99 -270q0 -182 95.5 -275.5t275.5 -93.5q88 0 143 25v182h-196v268h583v-717q-217 -135 -547 -135q-237 0 -415.5 90.5t-274.5 258t-96 397.5zM244 1896 h354l119 -145l119 145h352l-303 -352h-338z" />
<glyph unicode="&#x1e7;" horiz-adv-x="1370" d="M41 492q0 156 64.5 274.5t183.5 183t274 64.5q96 0 182 -32t148 -89v90h395v-911q0 -258 -161.5 -400.5t-503.5 -142.5q-97 0 -198 18.5t-175 49.5v272q162 -70 373 -70q133 0 194.5 54.5t61.5 158.5v58q-55 -45 -138.5 -73t-175.5 -28q-156 0 -275.5 65.5t-184 184.5 t-64.5 273zM209 1454h354l119 -145l119 145h352l-303 -352h-338zM465 494q0 -98 56.5 -152.5t152.5 -54.5q69 0 123.5 33.5t81.5 91.5v159q-27 57 -81.5 90t-123.5 33q-96 0 -152.5 -53t-56.5 -147z" />
<glyph unicode="&#x1fa;" horiz-adv-x="1634" d="M41 0l551 1378q-37 39 -58.5 91.5t-21.5 111.5q0 84 41 152.5t111.5 108.5t152.5 40q84 0 154.5 -40t111.5 -108.5t41 -152.5q0 -117 -80 -203l549 -1378h-434l-106 272h-469l-109 -272h-434zM627 1915l141 295h412l-191 -295h-362zM680 594h274l-137 401zM713 1581 q0 -43 30.5 -73.5t73.5 -30.5q45 0 76 30.5t31 73.5q0 47 -30 77t-77 30q-43 0 -73.5 -31t-30.5 -76z" />
<glyph unicode="&#x1fb;" horiz-adv-x="1241" d="M-20 305q0 166 110.5 253t321.5 87q76 0 153.5 -16.5t130.5 -40.5v18q0 68 -66.5 102.5t-185.5 34.5q-178 0 -327 -71v270q68 33 176 52.5t231 19.5q285 0 434.5 -108.5t149.5 -307.5v-598h-387v78q-49 -49 -135 -79t-191 -30q-188 0 -301.5 87t-113.5 249zM348 1364 q0 84 41 152.5t111.5 108.5t152.5 40q84 0 155 -40t112 -108.5t41 -152.5q0 -82 -41 -150.5t-112 -108.5t-155 -40q-82 0 -152.5 40t-111.5 108.5t-41 150.5zM403 305q0 -45 31 -71.5t88 -26.5q56 0 103 20.5t71 53.5v75q-76 49 -172 50q-57 0 -89 -27t-32 -74zM449 1710 l141 295h411l-190 -295h-362zM549 1364q0 -43 30.5 -73.5t73.5 -30.5q45 0 76 30.5t31 73.5q0 47 -30 76.5t-77 29.5q-43 0 -73.5 -30.5t-30.5 -75.5z" />
<glyph unicode="&#x1fc;" horiz-adv-x="1880" d="M41 0l600 1432h1198v-357h-573v-196h403v-326h-403v-197h573v-356h-954v272h-289l-113 -272h-442zM684 598h201v477h-13zM930 1509l141 369h412l-191 -369h-362z" />
<glyph unicode="&#x1fd;" horiz-adv-x="1955" d="M41 305q0 164 109.5 252t312.5 88q76 0 153.5 -16.5t131.5 -40.5v18q0 68 -67 102.5t-185 34.5q-178 0 -328 -71v270q68 33 176.5 52.5t230.5 19.5q240 0 394 -115q72 53 170 84t209 31q180 0 308 -66.5t193.5 -183.5t65.5 -262v-129h-756q51 -135 295 -135 q98 0 201.5 15t175.5 44v-256q-78 -33 -189.5 -52.5t-232.5 -19.5q-137 0 -251 37t-191 105q-92 -68 -208 -105t-278 -37q-202 0 -321 86t-119 250zM455 305q0 -45 30.5 -71.5t87.5 -26.5q54 0 101 19.5t74 52.5v77q-76 49 -173 50q-57 0 -88.5 -27t-31.5 -74zM713 1071 l141 369h412l-191 -369h-362zM1159 604h369q-10 66 -57.5 102.5t-129.5 36.5t-127 -37.5t-55 -101.5z" />
<glyph unicode="&#x1fe;" horiz-adv-x="1626" d="M41 715q0 219 101.5 389t278.5 264t394 94q78 0 148 -12l63 156h281l-97 -240q174 -94 274.5 -264t100.5 -387q0 -219 -101.5 -388t-276.5 -263.5t-392 -94.5q-72 0 -162 15l-63 -160h-279l99 246q-172 94 -270.5 262t-98.5 383zM479 715q0 -156 90 -246l236 586 q-143 -4 -234.5 -96.5t-91.5 -243.5zM541 1520l139 366h432l-188 -366h-383zM811 373h4q143 0 237.5 92t94.5 250q0 156 -98 250z" />
<glyph unicode="&#x1ff;" horiz-adv-x="1325" d="M41 492q0 150 76 268.5t216 186t329 67.5q49 0 92 -6l61 151h227l-81 -201q154 -63 238.5 -186t84.5 -280q0 -152 -75.5 -271t-217 -185.5t-329.5 -66.5q-51 0 -99 6l-59 -151h-225l79 201q-150 61 -233.5 184t-83.5 283zM313 1071l142 369h411l-190 -369h-363zM453 492 q0 -80 39 -136l139 344q-84 -10 -131 -65t-47 -143zM688 281q84 10 133 65t49 146q0 86 -43 137z" />
<glyph unicode="&#x218;" horiz-adv-x="1175" d="M41 70v374q113 -61 236.5 -91.5t232.5 -30.5q158 0 158 84q0 35 -23.5 60.5t-71 49t-149.5 68.5q-199 86 -288 188t-89 254q0 127 70.5 226.5t197.5 154.5t293 55q135 0 239.5 -21.5t203.5 -68.5v-362q-178 98 -365 98q-82 0 -131 -23.5t-49 -68.5t44 -73t167 -77l45 -18 q145 -59 224 -117.5t114 -135.5t35 -194q0 -203 -147.5 -317.5t-444.5 -114.5q-137 0 -276.5 28t-225.5 73zM223 -530l172 438h422l-219 -438h-375z" />
<glyph unicode="&#x219;" horiz-adv-x="1060" d="M41 686q0 166 131 247t358 81q109 0 235 -23.5t187 -62.5v-285q-63 41 -169.5 70.5t-194.5 29.5q-121 0 -121 -41q0 -18 29.5 -30.5t103.5 -28.5l86 -20q133 -35 205 -80t100.5 -105.5t28.5 -150.5q0 -145 -128 -231.5t-368 -86.5q-123 0 -257 22.5t-212 65.5v289 q84 -49 206 -83t220 -34q59 0 86 7.5t27 29.5q0 20 -25.5 30.5t-95.5 29.5l-94 26q-125 37 -197.5 79t-106.5 102.5t-34 152.5zM186 -530l172 438h422l-219 -438h-375z" />
<glyph unicode="&#x21a;" horiz-adv-x="1214" d="M10 1075v357h1194v-357h-385v-1075h-424v1075h-385zM231 -532l170 440h404l-221 -440h-353z" />
<glyph unicode="&#x21b;" horiz-adv-x="808" d="M0 707v276h135v295h412v-295h219v-276h-219v-283q0 -74 27.5 -105.5t93.5 -31.5q74 0 141 39v-303q-59 -27 -123.5 -40.5t-163.5 -13.5q-190 0 -288.5 106.5t-98.5 289.5v342h-135zM141 -532l170 440h404l-221 -440h-353z" />
<glyph unicode="&#x237;" horiz-adv-x="581" d="M-195 -109q61 -31 146 -30q63 0 100 33.5t37 103.5v985h412v-1036q0 -207 -134.5 -313.5t-351.5 -106.5q-127 0 -209 39v325z" />
<glyph unicode="&#x251;" horiz-adv-x="1370" d="M41 489q0 154 64.5 274t183.5 185.5t274 65.5q94 0 177 -28t139 -75v72h409v-983h-395v90q-61 -59 -146 -90t-184 -31q-155 0 -274 64.5t-183.5 182.5t-64.5 273zM465 489q0 -96 56.5 -149t152.5 -53q69 0 123.5 32.5t81.5 90.5v161q-27 57 -81.5 90t-123.5 33 q-96 0 -152.5 -54t-56.5 -151z" />
<glyph unicode="&#x259;" horiz-adv-x="1228" d="M41 481v133h756q-49 131 -297 131q-94 0 -197.5 -16t-179.5 -45v258q80 33 196.5 52.5t237.5 19.5q297 0 464 -135.5t167 -382.5q0 -244 -150.5 -385.5t-431.5 -141.5q-180 0 -307 66.5t-192.5 183.5t-65.5 262zM428 375q10 -63 57 -99t129 -36q80 0 126 36.5t57 98.5 h-369z" />
<glyph unicode="&#x2bb;" horiz-adv-x="600" d="M41 1049l172 413h346l-129 -413h-389z" />
<glyph unicode="&#x2bc;" horiz-adv-x="600" d="M41 1049l129 413h389l-172 -413h-346z" />
<glyph unicode="&#x2be;" d="M-190 1012v272q123 0 122 86q0 88 -122 88v271q178 0 278 -90.5t100 -268.5q0 -176 -100 -267t-278 -91z" />
<glyph unicode="&#x2bf;" d="M-190 1370q0 178 100 268.5t278 90.5v-271q-123 0 -122 -88q0 -86 122 -86v-272q-178 0 -278 91t-100 267z" />
<glyph unicode="&#x2c6;" horiz-adv-x="1107" d="M82 1184l303 352h338l303 -352h-352l-119 145l-119 -145h-354z" />
<glyph unicode="&#x2c7;" horiz-adv-x="1105" d="M80 1536h354l119 -145l119 145h352l-303 -352h-338z" />
<glyph unicode="&#x2c8;" d="M-152 1161v428h297v-428h-297z" />
<glyph unicode="&#x2c9;" horiz-adv-x="1206" d="M215 1155v262h764v-262h-764z" />
<glyph unicode="&#x2ca;" d="M-293 1167l141 367h412l-190 -367h-363z" />
<glyph unicode="&#x2cb;" d="M-295 1167l191 367h362l-141 -367h-412z" />
<glyph unicode="&#x2cc;" d="M-152 -111h297v-426h-297v426z" />
<glyph unicode="&#x2d8;" horiz-adv-x="876" d="M41 1532h305q0 -123 92 -123t92 123h306q0 -176 -103.5 -276.5t-294.5 -100.5q-190 0 -293.5 100.5t-103.5 276.5z" />
<glyph unicode="&#x2d9;" horiz-adv-x="417" d="M41 1325q0 70 50 120t120 50t118 -49t48 -121q0 -70 -48 -118t-118 -48t-120 48t-50 118z" />
<glyph unicode="&#x2da;" horiz-adv-x="694" d="M41 1327q0 84 41 152.5t111.5 108.5t152.5 40q84 0 154.5 -40t111.5 -108.5t41 -152.5q0 -82 -41 -150.5t-111.5 -108.5t-154.5 -40q-82 0 -152.5 40t-111.5 108.5t-41 150.5zM242 1327q0 -43 30.5 -73.5t73.5 -30.5q45 0 76 30.5t31 73.5q0 47 -30 77t-77 30 q-43 0 -73.5 -31t-30.5 -76z" />
<glyph unicode="&#x2db;" horiz-adv-x="598" d="M41 -242q0 78 38 139.5t105 102.5h373q-86 -43 -124 -80t-38 -80q0 -27 16.5 -42t45.5 -15q51 0 100 24v-221q-106 -33 -238 -32q-124 0 -201 51t-77 153z" />
<glyph unicode="&#x2dc;" horiz-adv-x="931" d="M41 1169v289q72 84 219 84q45 0 91 -12t120 -39q63 -25 109.5 -38t91.5 -13q133 0 219 100v-287q-70 -84 -219 -84q-51 0 -101.5 13.5t-117.5 40.5q-68 25 -109 37t-84 12q-131 0 -219 -103z" />
<glyph unicode="&#x2dd;" horiz-adv-x="1161" d="M41 1167l139 367h398l-191 -367h-346zM586 1167l139 367h395l-188 -367h-346z" />
<glyph unicode="&#x300;" d="M-1069 1528h412l141 -369h-363z" />
<glyph unicode="&#x301;" d="M-881 1159l142 369h411l-190 -369h-363z" />
<glyph unicode="&#x302;" d="M-473 1184l303 352h338l303 -352h-352l-119 145l-119 -145h-354z" />
<glyph unicode="&#x303;" d="M-1057 1169v289q72 84 219 84q45 0 91.5 -12t119.5 -39q63 -25 109.5 -38t91.5 -13q133 0 219 100v-287q-70 -84 -219 -84q-51 0 -101.5 13.5t-117.5 40.5q-68 25 -109 37t-84 12q-131 0 -219 -103z" />
<glyph unicode="&#x304;" d="M-354 1176v241h729v-241h-729z" />
<glyph unicode="&#x306;" d="M-397 1532h305q0 -123 92 -123t92 123h305q0 -176 -103.5 -276.5t-293.5 -100.5t-293.5 100.5t-103.5 276.5z" />
<glyph unicode="&#x307;" d="M-170 1325q0 70 50 120t120 50t118 -49t48 -121q0 -70 -48 -118t-118 -48t-120 48t-50 118z" />
<glyph unicode="&#x308;" d="M-412 1325q0 70 51.5 120t118.5 50q70 0 119 -50t49 -120t-49 -118t-119 -48q-69 0 -119.5 48t-50.5 118zM72 1325q0 70 50 120t120 50q68 0 117 -50t49 -120t-49.5 -118t-116.5 -48q-70 0 -120 48t-50 118z" />
<glyph unicode="&#x309;" d="M-997 1434v172q115 37 266 36q168 0 256 -61t88 -164q0 -76 -50 -128t-149 -68v-62h-340v148q182 0 183 79q0 68 -127 68q-35 0 -72 -6t-55 -14z" />
<glyph unicode="&#x30a;" d="M-281 1327q0 84 41 152.5t112 108.5t153 40q84 0 154.5 -40t111.5 -108.5t41 -152.5q0 -82 -41 -150.5t-111.5 -108.5t-154.5 -40q-82 0 -153 40t-112 108.5t-41 150.5zM-80 1327q0 -43 31 -73.5t74 -30.5q45 0 75.5 30.5t30.5 73.5q0 47 -29.5 77t-76.5 30 q-43 0 -74 -31t-31 -76z" />
<glyph unicode="&#x30b;" d="M-571 1167l139 367h397l-190 -367h-346zM-27 1167l140 367h395l-189 -367h-346z" />
<glyph unicode="&#x30c;" d="M-473 1536h354l119 -145l119 145h352l-303 -352h-338z" />
<glyph unicode="&#x31b;" d="M-223 1022v281q88 0 124 38.5t36 120.5v68h325v-94q0 -188 -119.5 -301t-365.5 -113z" />
<glyph unicode="&#x323;" d="M-170 -262q0 70 50 119t120 49t118 -49.5t48 -118.5q0 -70 -48 -119t-118 -49t-120 49t-50 119z" />
<glyph unicode="&#x324;" d="M-406 -262q0 70 51.5 119t118.5 49q70 0 119 -49.5t49 -118.5q0 -70 -49 -119t-119 -49q-67 0 -118.5 49t-51.5 119zM66 -262q0 70 50 119t120 49q68 0 116.5 -49.5t48.5 -118.5q0 -70 -49 -119t-116 -49q-70 0 -120 49t-50 119z" />
<glyph unicode="&#x326;" d="M-614 -532l170 440h403l-221 -440h-352z" />
<glyph unicode="&#x327;" d="M-289 -313q25 -14 63 -22.5t72 -8.5q66 0 98.5 16.5t32.5 59.5q0 49 -47 69.5t-161 20.5l67 178h268l-36 -94q90 -12 140 -63.5t50 -127.5q0 -102 -83 -162.5t-241 -60.5q-145 0 -223 31v164z" />
<glyph unicode="&#x328;" d="M-252 -242q0 78 38 139.5t105 102.5h373q-86 -43 -124 -80t-38 -80q0 -27 16.5 -42t45.5 -15q51 0 100 24v-221q-106 -33 -237 -32q-125 0 -202 51t-77 153z" />
<glyph unicode="&#x32e;" d="M-397 -106h305q0 -123 92 -123t92 123h305q0 -176 -103.5 -276.5t-293.5 -100.5t-293.5 100t-103.5 277z" />
<glyph unicode="&#x331;" d="M-354 -111h729v-241h-729v241z" />
<glyph unicode="&#x394;" horiz-adv-x="1406" d="M41 0v291l496 1171h333l496 -1171v-291h-1325zM446 352h512l-256 600z" />
<glyph unicode="&#x3a9;" horiz-adv-x="1636" d="M41 0v350h190q-90 80 -139 190.5t-49 247.5q0 203 95 355.5t271.5 235.5t407.5 83q233 0 408.5 -83t271.5 -235.5t96 -355.5q0 -137 -49 -247.5t-139 -190.5h190v-350h-706v311q135 78 203.5 178.5t68.5 231.5q0 158 -94 250t-250 92t-249 -92t-93 -250 q0 -131 68.5 -231.5t204.5 -178.5v-311h-707z" />
<glyph unicode="&#x3bc;" horiz-adv-x="1259" d="M82 -449v1432h360v-563q0 -170 154 -170q70 0 127 32.5t94 96.5v604h361v-983h-349v106q-63 -68 -153 -102.5t-189 -34.5q-31 0 -45 2v-420h-360z" />
<glyph unicode="&#x3c0;" horiz-adv-x="1370" d="M20 614v369h1237v-369h-135v-204q0 -66 23.5 -93.5t79.5 -27.5q59 0 125 39v-308q-106 -51 -260 -51q-193 0 -286 105.5t-93 294.5v245h-144v-614h-411v614h-136z" />
<glyph unicode="&#xe01;" horiz-adv-x="1355" d="M31 807q260 319 657 319q281 0 433.5 -122.5t152.5 -337.5v-666h-410v635q0 172 -178 172q-129 0 -215 -64l74 -127v-616h-412v625z" />
<glyph unicode="&#xe02;" horiz-adv-x="1292" d="M41 831v265h379q98 0 153.5 -52.5t55.5 -140.5q0 -59 -21.5 -105t-62.5 -110q-39 -57 -59.5 -101t-20.5 -98v-40q0 -82 44 -122t126 -40q88 0 129 46t41 124v639h405v-625q0 -238 -144 -370t-431 -132q-184 0 -314.5 50.5t-198 138.5t-67.5 202v54q0 78 25.5 135 t73.5 123q29 39 41 63.5t12 46.5q0 49 -57 49h-109z" />
<glyph unicode="&#xe03;" horiz-adv-x="1331" d="M41 915v181h268v-72q0 -53 49 -53q33 0 54 16v109h284v-162q0 -68 -25.5 -121t-74.5 -123q-45 -61 -66.5 -105t-21.5 -93v-46q0 -160 166 -159q88 0 129 45t41 123v641h405v-625q0 -238 -144 -370t-431 -132q-185 0 -314 50.5t-195.5 138.5t-66.5 202v56q0 68 26 129 t54.5 99t91.5 118q-31 -12 -80 -12q-66 0 -107.5 39.5t-41.5 125.5z" />
<glyph unicode="&#xe04;" horiz-adv-x="1366" d="M82 0v647q0 240 162 359.5t438 119.5t439 -119.5t163 -359.5v-647h-412v629q0 88 -48 133t-142 45t-142 -45t-48 -133v-103q23 23 61.5 35t81.5 12h143v-280h-164q-59 0 -90.5 -32t-31.5 -93v-168h-410z" />
<glyph unicode="&#xe05;" horiz-adv-x="1366" d="M82 0v766q0 162 92 261t268 99q170 0 240 -92q72 92 242 92q176 0 268 -99t92 -261v-766h-412v719q0 45 -13 66.5t-48 21.5q-31 0 -46 -21.5t-24 -62.5h-118q-6 41 -21.5 62.5t-46.5 21.5q-35 0 -49 -21.5t-14 -66.5v-193q23 20 60.5 33.5t82.5 13.5h143v-280h-164 q-59 0 -90.5 -34t-31.5 -91v-168h-410z" />
<glyph unicode="&#xe06;" horiz-adv-x="1325" d="M41 915v181h268v-72q0 -53 49 -53q33 0 54 16v109h280v-162q0 -68 -25.5 -121t-74.5 -123q-45 -61 -66.5 -105t-21.5 -93v-95q55 -111 176 -110q74 0 114 37.5t40 109.5v662h409v-688q0 -125 -49 -224.5t-144.5 -157t-230.5 -57.5q-100 0 -190 35t-148 98v-102h-383v416 q0 68 26 129t54.5 99t91.5 118q-31 -12 -80 -12q-66 0 -107.5 39.5t-41.5 125.5z" />
<glyph unicode="&#xe07;" horiz-adv-x="1333" d="M41 958h403l197 -665q106 0 166.5 79t60.5 220q0 217 -161 217q-61 0 -115 -23v308q41 14 100.5 23t112.5 9q254 0 370.5 -137t116.5 -397q0 -184 -83 -318.5t-222 -204t-307 -69.5h-352z" />
<glyph unicode="&#xe08;" horiz-adv-x="1218" d="M41 735v316q86 35 203.5 55t236.5 20q338 0 517.5 -148.5t179.5 -424.5q0 -170 -83 -296t-224.5 -191.5t-309.5 -65.5h-360l-150 602h408l78 -309q53 0 103 29.5t82 87t32 135.5q0 129 -77 196.5t-274 67.5q-90 0 -194.5 -20.5t-167.5 -53.5z" />
<glyph unicode="&#xe09;" horiz-adv-x="1284" d="M41 735v316q84 33 222 54t259 21q367 0 523.5 -142t156.5 -417v-567h-387v102q-59 -61 -151.5 -97t-200.5 -36q-203 0 -310.5 118t-107.5 319v210h412v-184q0 -145 145 -145q61 0 111.5 29.5t79.5 80.5v154q0 131 -73 194.5t-265 63.5q-96 0 -224.5 -21.5t-189.5 -52.5z " />
<glyph unicode="&#xe0a;" horiz-adv-x="1312" d="M41 831v265h369q98 0 153 -52.5t55 -140.5q0 -61 -20 -108t-59 -107q-37 -59 -55.5 -102t-18.5 -97v-40q0 -82 44 -122t126 -40q174 0 174 192q0 109 -38 161t-112 52v176l181 258h432l-221 -313q86 -55 124.5 -137t38.5 -205q0 -227 -147 -364.5t-432 -137.5 q-184 0 -314.5 50.5t-198 138.5t-67.5 202v54q0 78 24.5 135t67.5 123q25 39 37.5 63.5t12.5 46.5q0 49 -58 49h-98z" />
<glyph unicode="&#xe0b;" horiz-adv-x="1355" d="M41 911v185h266v-72q0 -53 49 -53q33 0 54 16v109h274v-162q0 -68 -23.5 -121t-68.5 -123q-41 -61 -60.5 -105t-19.5 -93v-43q0 -162 166 -162q88 0 131 49t43 137q0 113 -33 166t-102 53v176l166 258h432l-207 -313q82 -57 115.5 -136t33.5 -206q0 -233 -147 -367.5 t-432 -134.5q-184 0 -314.5 50.5t-197 138.5t-66.5 202v56q0 88 39 159.5t80 123t51 63.5q-31 -12 -82 -12q-66 0 -106.5 40.5t-40.5 120.5z" />
<glyph unicode="&#xe0c;" horiz-adv-x="2045" d="M31 807q260 319 641 319q274 0 418.5 -122.5t144.5 -337.5v-269q59 -111 176 -110q68 0 104.5 37.5t36.5 109.5v662h412v-688q0 -195 -105.5 -317t-304.5 -122q-202 0 -335 133v-102h-385v635q0 88 -40 130t-122 42q-115 0 -201 -64l74 -127v-256q0 -43 19.5 -61 t62.5 -18h86v-281h-316q-127 0 -195.5 72.5t-68.5 199.5v353z" />
<glyph unicode="&#xe0d;" horiz-adv-x="2076" d="M31 807q260 319 641 319q272 0 417.5 -120.5t145.5 -329.5v-25q0 -102 39 -152t133 -50q92 0 132 48t40 148v451h412v-494q0 -131 -68 -233q92 -92 92 -228q0 -166 -158.5 -254t-439.5 -88q-129 0 -243.5 19.5t-194.5 56.5v285q109 -53 215 -76t223 -23q121 0 193.5 26 t72.5 77q0 35 -10 51q-111 -66 -266 -65q-573 0 -573 452v33q0 88 -40 130t-122 42q-115 0 -201 -64l74 -127v-256q0 -43 19.5 -61t62.5 -18h86v-281h-316q-127 0 -195.5 72.5t-68.5 199.5v353z" />
<glyph unicode="&#xe0e;" horiz-adv-x="1378" d="M41 0v281h78q45 0 60.5 16t15.5 59v269l-144 182q115 152 284 235.5t376 83.5q281 0 433 -122.5t152 -337.5v-1119h-340q-53 47 -132 72t-167 25q-98 0 -193 -30t-165 -83v301q68 51 162 76.5t196 25.5q61 0 123 -12t107 -33v746q0 172 -178 172q-115 0 -205 -62 l102 -129v-342q0 -127 -68.5 -200.5t-195.5 -73.5h-301z" />
<glyph unicode="&#xe0f;" horiz-adv-x="1378" d="M41 0v281h78q45 0 60.5 16t15.5 59v269l-144 182q115 152 284 235.5t376 83.5q281 0 433 -122.5t152 -337.5v-1119h-358l-213 125q-49 -68 -118.5 -99.5t-170.5 -31.5q-74 0 -141.5 18.5t-112.5 55.5v291q92 -63 211 -64q59 0 102.5 30t59.5 87h182l150 -86v762 q0 172 -178 172q-115 0 -205 -62l102 -129v-342q0 -127 -68.5 -200.5t-195.5 -73.5h-301z" />
<glyph unicode="&#xe10;" horiz-adv-x="1294" d="M41 735v316q86 35 203.5 55t236.5 20q178 0 316 -47l80 99h438l-244 -285q106 -127 107 -340q0 -170 -83 -296t-224.5 -191.5t-309.5 -65.5h-360l-150 602h408l78 -309q53 0 103 29.5t82 87t32 135.5q0 129 -77 196.5t-274 67.5q-90 0 -194.5 -20.5t-167.5 -53.5z M45 -115q49 -33 99.5 -48t111.5 -15q59 0 101 30.5t61 90.5h178l154 -90v124h407v-430h-354l-215 127q-49 -70 -118 -101.5t-171 -31.5q-74 0 -141.5 18.5t-112.5 55.5v270z" />
<glyph unicode="&#xe11;" horiz-adv-x="1339" d="M41 915v181h274v-72q0 -53 47 -53q33 0 54 16v109h276v-70q49 45 123 72.5t148 27.5q156 0 225 -84t69 -249v-793h-409v719q0 86 -74 86q-76 0 -131 -62q-23 -47 -45 -81q-39 -66 -58.5 -119.5t-19.5 -136.5v-406h-411v401q0 104 43 187.5t116 173.5q-31 -12 -80 -12 q-66 0 -106.5 39.5t-40.5 125.5z" />
<glyph unicode="&#xe12;" horiz-adv-x="2154" d="M41 537q0 186 59.5 319t163 201.5t234.5 68.5q72 0 130 -25.5t95 -66.5q35 47 100.5 69.5t147.5 22.5q174 0 274.5 -98t100.5 -256v-375q27 -51 70.5 -80.5t103.5 -29.5q70 0 106.5 37.5t36.5 109.5v662h410v-688q0 -195 -104.5 -317t-305.5 -122q-102 0 -187 35t-149 98 v-102h-379v719q0 88 -65 88q-39 0 -56.5 -22.5t-27.5 -69.5h-146q-6 45 -22.5 68.5t-46.5 23.5q-53 0 -86 -66.5t-33 -203.5q0 -121 59.5 -185.5t165.5 -64.5q72 0 135 26v-313q-92 -31 -215 -31q-157 0 -286 64.5t-206 192.5t-77 311z" />
<glyph unicode="&#xe13;" horiz-adv-x="2041" d="M31 807q260 319 641 319q274 0 418.5 -122.5t144.5 -337.5v-232q0 -72 37 -109.5t106 -37.5q113 0 172 110v699h410v-1096h-385v102q-133 -133 -336 -133q-199 0 -302 122t-103 317v227q0 88 -40 130t-122 42q-115 0 -201 -64l74 -127v-256q0 -43 19.5 -61t62.5 -18h86 v-281h-316q-127 0 -195.5 72.5t-68.5 199.5v353z" />
<glyph unicode="&#xe14;" horiz-adv-x="1445" d="M41 518q0 190 82 327.5t233.5 209t358.5 71.5q330 0 489.5 -149.5t159.5 -407.5v-569h-412v571q0 117 -54 176.5t-181 59.5q-115 0 -183.5 -74t-68.5 -215q0 -119 61.5 -175t163.5 -56q72 0 135 26v-313q-92 -31 -215 -31q-159 0 -288 60.5t-205 183.5t-76 305z" />
<glyph unicode="&#xe15;" horiz-adv-x="1445" d="M41 537q0 186 59.5 319t163 201.5t234.5 68.5q74 0 133 -25.5t94 -66.5q37 47 102.5 69.5t147.5 22.5q117 0 205 -45t136 -126t48 -183v-772h-412v719q0 88 -65 88q-39 0 -57.5 -23.5t-28.5 -68.5h-146q-14 92 -75 92q-53 0 -84 -65.5t-31 -204.5q0 -123 56.5 -186.5 t168.5 -63.5q72 0 135 26v-313q-92 -31 -215 -31q-164 0 -292 64.5t-202.5 192.5t-74.5 311z" />
<glyph unicode="&#xe16;" horiz-adv-x="1355" d="M31 807q260 319 657 319q281 0 433.5 -122.5t152.5 -337.5v-666h-410v635q0 172 -178 172q-129 0 -215 -64l74 -127v-256q0 -43 19.5 -61t62.5 -18h90v-281h-320q-127 0 -195.5 72.5t-68.5 199.5v353z" />
<glyph unicode="&#xe17;" horiz-adv-x="1323" d="M82 0v1096h387v-105q66 63 160 99t190 36q213 0 317.5 -109.5t104.5 -295.5v-721h-412v666q0 141 -139 141q-63 0 -114.5 -27.5t-83.5 -83.5v-696h-410z" />
<glyph unicode="&#xe18;" horiz-adv-x="1171" d="M41 793q0 166 147.5 249.5t380.5 83.5q135 0 278.5 -25.5t213.5 -64.5v-299q-66 45 -187.5 75t-232.5 30q-90 0 -134 -10.5t-44 -38.5q0 -25 33.5 -37.5t117.5 -28.5q86 -16 152 -33q141 -35 221 -83t111.5 -114.5t31.5 -162.5q0 -102 -63 -185t-186 -131.5t-295 -48.5 q-260 0 -401.5 92.5t-141.5 245.5v127h406v-84q0 -53 37.5 -78.5t99.5 -25.5q55 0 88 25.5t33 62.5q0 41 -21.5 65.5t-74 42t-162.5 39.5q-211 41 -309.5 109.5t-98.5 202.5z" />
<glyph unicode="&#xe19;" horiz-adv-x="1323" d="M82 408v688h410v-662q0 -72 39.5 -109.5t113.5 -37.5q68 0 111 26.5t73 83.5v699h412v-1096h-389v102q-61 -61 -153.5 -97t-192.5 -36q-135 0 -230.5 57.5t-144.5 157t-49 224.5z" />
<glyph unicode="&#xe1a;" horiz-adv-x="1357" d="M82 449v647h410v-604q0 -102 43 -153.5t143 -51.5q98 0 142 51t44 154v604h412v-647q0 -139 -74 -248t-210 -170.5t-314 -61.5t-313.5 61.5t-209 170t-73.5 248.5z" />
<glyph unicode="&#xe1b;" horiz-adv-x="1357" d="M82 449v647h410v-604q0 -102 43 -153.5t143 -51.5q98 0 142 51t44 154v970h412v-1013q0 -139 -74 -248t-210 -170.5t-314 -61.5t-313.5 61.5t-209 170t-73.5 248.5z" />
<glyph unicode="&#xe1c;" horiz-adv-x="1392" d="M82 0v819q0 129 69.5 203t198.5 74h291v-283h-74q-43 0 -62.5 -18.5t-19.5 -61.5v-250l150 209h123l147 -209v613h406v-1096h-365l-250 344l-250 -344h-364z" />
<glyph unicode="&#xe1d;" horiz-adv-x="1392" d="M82 0v819q0 129 69.5 203t198.5 74h291v-283h-74q-43 0 -62.5 -18.5t-19.5 -61.5v-250l150 209h123l147 -209v979h406v-1462h-365l-250 344l-250 -344h-364z" />
<glyph unicode="&#xe1e;" horiz-adv-x="1650" d="M20 1096h410l109 -539l141 539h289l141 -539l109 539h411l-305 -1096h-350l-152 541l-147 -541h-350z" />
<glyph unicode="&#xe1f;" horiz-adv-x="1607" d="M20 1096h410l109 -539l141 539h289l141 -539l190 905h390l-365 -1462h-350l-152 541l-147 -541h-350z" />
<glyph unicode="&#xe20;" horiz-adv-x="1368" d="M31 0v281h78q45 0 60 16t15 59v269l-143 182q115 152 284 235.5t375 83.5q281 0 433.5 -122.5t152.5 -337.5v-666h-409v635q0 172 -179 172q-115 0 -204 -62l102 -129v-342q0 -127 -68.5 -200.5t-195.5 -73.5h-301z" />
<glyph unicode="&#xe21;" horiz-adv-x="1323" d="M82 0v1096h410v-699q31 -57 74.5 -83.5t111.5 -26.5q74 0 112.5 37.5t38.5 109.5v662h412v-688q0 -193 -111.5 -316t-314.5 -123q-100 0 -192.5 36t-153.5 97v-102h-387z" />
<glyph unicode="&#xe22;" horiz-adv-x="1355" d="M41 330q0 154 129 223q-55 37 -89 100.5t-34 134.5q0 154 109.5 246t332.5 92q59 0 129 -10t103 -20v-291q-31 14 -70 23.5t-69 9.5q-111 0 -111 -82t111 -82h139v-240h-129q-127 0 -127 -86q0 -98 184 -98q111 0 162 46t51 140v662h412v-660q0 -119 -63.5 -225.5 t-204 -175t-357.5 -68.5q-280 0 -444 90.5t-164 270.5z" />
<glyph unicode="&#xe23;" horiz-adv-x="1087" d="M41 774q0 170 133 261t361 91q131 0 251.5 -24.5t190.5 -63.5v-305q-63 45 -164.5 75t-189.5 30q-160 0 -160 -64q0 -31 42 -50t136 -46l84 -25q129 -41 198.5 -90t96.5 -112.5t27 -153.5q0 -154 -130.5 -241t-390.5 -87q-127 0 -260 22.5t-211 67.5v303 q86 -51 202 -83.5t204 -32.5q162 0 162 59q0 29 -41 48.5t-148 52.5q-53 16 -65 20q-174 57 -251 135t-77 213z" />
<glyph unicode="&#xe24;" horiz-adv-x="1355" d="M31 807q260 319 657 319q281 0 433.5 -122.5t152.5 -337.5v-1067h-410v1036q0 172 -178 172q-129 0 -215 -64l74 -127v-256q0 -43 19.5 -61t62.5 -18h90v-281h-320q-127 0 -195.5 72.5t-68.5 199.5v353z" />
<glyph unicode="&#xe25;" horiz-adv-x="1314" d="M41 328q0 180 120 279.5t333 99.5q84 0 175 -15.5t152 -42.5v27q0 76 -72.5 115.5t-218.5 39.5q-100 0 -195 -21.5t-173 -57.5v292q72 37 195.5 59.5t263.5 22.5q313 0 462.5 -114.5t149.5 -341.5v-670h-412v379q-43 23 -99 36t-112 13q-145 0 -145 -102q0 -98 131 -99 q55 0 102 21v-248q-92 -31 -235 -31q-201 0 -311.5 89t-110.5 270z" />
<glyph unicode="&#xe26;" horiz-adv-x="1368" d="M31 0v281h78q45 0 60 16t15 59v269l-143 182q115 152 284 235.5t375 83.5q281 0 433.5 -122.5t152.5 -337.5v-1067h-409v1036q0 172 -179 172q-115 0 -204 -62l102 -129v-342q0 -127 -68.5 -200.5t-195.5 -73.5h-301z" />
<glyph unicode="&#xe27;" horiz-adv-x="1138" d="M41 61v316q133 -90 336 -90q139 0 218 63.5t79 196.5q0 131 -79 195.5t-218 64.5q-205 0 -328 -86v315q74 43 185.5 66.5t234.5 23.5q299 0 464 -151.5t165 -427.5q0 -274 -165 -426t-464 -152q-133 0 -243.5 23.5t-184.5 68.5z" />
<glyph unicode="&#xe28;" horiz-adv-x="1398" d="M82 0v647q0 240 162 359.5t438 119.5q111 0 197 -24l59 76h440l-198 -232q104 -104 104 -315v-631h-412v629q0 88 -48 133t-142 45t-142 -45t-48 -133v-103q23 23 61.5 35t81.5 12h143v-280h-164q-59 0 -90.5 -32t-31.5 -93v-168h-410z" />
<glyph unicode="&#xe29;" horiz-adv-x="1386" d="M82 449v647h410v-604q0 -102 43 -153.5t143 -51.5q98 0 142 51t44 154v32h-180v281h180v291h412v-291h90v-281h-90v-75q0 -139 -74 -248t-210 -170.5t-314 -61.5t-313.5 61.5t-209 170t-73.5 248.5z" />
<glyph unicode="&#xe2a;" horiz-adv-x="1349" d="M41 328q0 180 120 279.5t333 99.5q84 0 175 -15.5t152 -42.5v27q0 76 -72.5 115.5t-218.5 39.5q-100 0 -195 -21.5t-173 -57.5v292q72 37 195.5 59.5t263.5 22.5q117 0 208 -26l62 78h438l-199 -232q102 -115 103 -299v-647h-412v379q-43 23 -99 36t-112 13 q-145 0 -145 -102q0 -98 131 -99q55 0 102 21v-248q-92 -31 -235 -31q-201 0 -311.5 89t-110.5 270z" />
<glyph unicode="&#xe2b;" horiz-adv-x="1325" d="M82 0v1096h410v-305l301 305h464l-280 -289q150 -49 208 -137t58 -240v-430h-412v387q0 78 -22.5 114t-87.5 54l-229 -217v-338h-410z" />
<glyph unicode="&#xe2c;" horiz-adv-x="1394" d="M82 0v1096h403v-607l152 218h125l149 -218v295q0 94 -40 139.5t-142 45.5v188l205 305h461l-236 -334q92 -45 124 -115.5t32 -199.5v-813h-365l-252 356l-252 -356h-364z" />
<glyph unicode="&#xe2d;" horiz-adv-x="1288" d="M41 66v579h569v-248h-178v-92q20 -10 60 -16t81 -6q123 0 186.5 71.5t63.5 202.5q0 135 -85 193.5t-287 58.5q-104 0 -211 -19.5t-183 -56.5v316q88 35 215 56t265 21q342 0 526 -148.5t184 -420.5q0 -180 -80 -312t-231.5 -204t-362.5 -72q-147 0 -293.5 27t-238.5 70z " />
<glyph unicode="&#xe2e;" horiz-adv-x="1331" d="M41 66v579h569v-248h-178v-92q20 -10 60 -16t81 -6q125 0 187.5 69.5t62.5 200.5q0 135 -85 195.5t-287 60.5q-104 0 -211 -19.5t-183 -56.5v316q88 35 215 56t265 21q152 0 262 -36l71 88h441l-215 -252q152 -145 151 -373q0 -180 -80 -311t-231.5 -202t-362.5 -71 q-147 0 -293.5 27t-238.5 70z" />
<glyph unicode="&#xe2f;" horiz-adv-x="1267" d="M41 760q0 176 111.5 271t291.5 95q147 0 236 -32v-246q-47 18 -102 18q-53 0 -83 -24.5t-30 -71.5q0 -51 30.5 -73.5t96.5 -22.5q98 0 182 49v373h412v-1096h-412v453q-59 -27 -141 -43.5t-164 -16.5q-195 0 -311.5 96.5t-116.5 270.5z" />
<glyph unicode="&#xe30;" horiz-adv-x="735" d="M41 266v217h365v-98q0 -43 47 -43h241v-270h-432q-221 -1 -221 194zM41 811v217h365v-98q0 -43 47 -43h241v-271h-432q-221 0 -221 195z" />
<glyph unicode="&#xe31;" d="M-737 1405v213h366v-115q0 -43 45 -43h426v-254h-614q-111 0 -167 50.5t-56 148.5z" />
<glyph unicode="&#xe32;" horiz-adv-x="847" d="M0 760v305q47 25 134 43t163 18q227 0 348 -115.5t121 -338.5v-672h-412v645q0 78 -39 120t-129 42q-96 0 -186 -47z" />
<glyph unicode="&#xe33;" horiz-adv-x="851" d="M-561 1432q0 74 36 135t97 97t133 36t133.5 -36t97 -97.5t35.5 -134.5q0 -72 -35.5 -133.5t-97 -96.5t-133.5 -35t-133 35t-97 96.5t-36 133.5zM-367 1430q0 -31 20.5 -52.5t51.5 -21.5q29 0 50.5 22.5t21.5 51.5q0 31 -20.5 52t-51.5 21t-51.5 -21.5t-20.5 -51.5zM4 760 v305q47 25 135 43t164 18q225 0 346 -115.5t121 -338.5v-672h-410v645q0 78 -38.5 120t-128.5 42q-94 0 -189 -47z" />
<glyph unicode="&#xe34;" d="M-1094 1206v254h1010v-254h-1010z" />
<glyph unicode="&#xe35;" d="M-1094 1206v254h637v211h373v-465h-1010z" />
<glyph unicode="&#xe36;" d="M-1094 1206v254h557q4 100 73 171t173 71q111 0 179.5 -71.5t68.5 -176.5q0 -106 -73.5 -177t-186.5 -71h-791zM-367 1454q0 -31 22.5 -53.5t53.5 -22.5t53.5 22.5t22.5 53.5t-22.5 53.5t-53.5 22.5t-53.5 -22.5t-22.5 -53.5z" />
<glyph unicode="&#xe37;" d="M-1094 1206v254h349v211h280v-211h100v211h281v-465h-1010z" />
<glyph unicode="&#xe38;" d="M-578 -76h261q125 0 180 -60.5t55 -185.5v-262h-367v183q0 39 -16 55t-55 16h-58v254z" />
<glyph unicode="&#xe39;" d="M-893 -76h285q68 0 94.5 -29.5t26.5 -95.5v-108q0 -27 15 -41.5t42 -14.5q53 0 53 56v233h295v-268q0 -109 -87 -179.5t-247 -70.5q-176 0 -272 65.5t-96 174.5v35q0 27 -9.5 37t-33.5 10h-66v196z" />
<glyph unicode="&#xe3a;" d="M-469 -272q0 82 58.5 140t140.5 58t141 -58t59 -140t-59 -140.5t-141 -58.5q-84 0 -141.5 57.5t-57.5 141.5z" />
<glyph unicode="&#xe3f;" horiz-adv-x="1376" d="M82 0v1432h354v210h295v-210h98q209 0 335 -103.5t126 -296.5q0 -86 -38 -161.5t-109 -122.5q100 -45 146 -119t46 -193q0 -133 -63.5 -232.5t-171 -151.5t-238.5 -52h-131v-211h-295v211h-354zM506 301h237q84 0 123 30.5t39 106.5q0 74 -40 109t-126 35h-233v-281z M506 877h213q70 0 105.5 30.5t35.5 98.5q0 70 -34.5 97t-108.5 27h-211v-253z" />
<glyph unicode="&#xe40;" horiz-adv-x="669" d="M82 272v824h410v-736q0 -45 18 -62t61 -17h68v-281h-295q-127 0 -194.5 72.5t-67.5 199.5z" />
<glyph unicode="&#xe41;" horiz-adv-x="1286" d="M82 272v824h410v-736q0 -45 18 -62t61 -17h64v-281h-291q-127 0 -194.5 72.5t-67.5 199.5zM702 272v824h410v-736q0 -45 18.5 -62t61.5 -17h63v-281h-290q-127 0 -195 72.5t-68 199.5z" />
<glyph unicode="&#xe42;" horiz-adv-x="741" d="M-51 1290v250h813v-283h-291q57 -53 80.5 -117.5t23.5 -158.5v-621q0 -43 18.5 -61t59.5 -18h78v-281h-305q-125 0 -193.5 72.5t-68.5 199.5v715q0 125 -50.5 194.5t-164.5 108.5z" />
<glyph unicode="&#xe43;" horiz-adv-x="667" d="M-61 1157v318q68 41 162 63.5t196 22.5q199 0 295 -84t96 -226q0 -78 -29.5 -138t-87.5 -144q-57 -78 -84.5 -135.5t-27.5 -128.5v-345q0 -45 18.5 -62t61.5 -17h77v-281h-305q-127 0 -194.5 72.5t-67.5 199.5v441q0 94 36 157.5t101 141.5q39 43 58.5 72.5t19.5 60.5 q0 49 -25.5 73.5t-86.5 24.5q-59 0 -114.5 -23.5t-98.5 -62.5z" />
<glyph unicode="&#xe44;" horiz-adv-x="741" d="M-51 1257v283h813v-250q-115 -45 -165 -137t-50 -233v-560q0 -45 18.5 -62t61.5 -17h78v-281h-306q-127 0 -194.5 72.5t-67.5 199.5v643q0 236 125 342h-313z" />
<glyph unicode="&#xe45;" horiz-adv-x="847" d="M0 760v305q47 25 134 43t163 18q227 0 348 -115.5t121 -338.5v-1073h-412v1046q0 78 -39 120t-129 42q-96 0 -186 -47z" />
<glyph unicode="&#xe46;" horiz-adv-x="1376" d="M41 694q0 199 104.5 315.5t296.5 116.5q72 0 130.5 -25.5t95.5 -66.5q72 92 237 92q180 0 284.5 -101t104.5 -261v-764h-411v723q0 43 -15.5 63.5t-50.5 20.5q-37 0 -55.5 -23.5t-26.5 -68.5h-145q-6 45 -21.5 68.5t-48.5 23.5q-70 0 -69 -100q0 -57 33.5 -84t105.5 -27 q68 0 135 27v-310q-96 -31 -217 -30q-213 0 -340 104.5t-127 306.5z" />
<glyph unicode="&#xe47;" d="M-1055 1452q0 150 87 226.5t235 76.5h549v-205h-521q-88 0 -88 -67q0 -33 19.5 -50.5t52.5 -17.5q76 0 76 82h203q0 -41 23.5 -57.5t66.5 -16.5h133v-217h-127q-72 0 -128 22.5t-75 61.5q-20 -39 -80.5 -65.5t-136.5 -26.5q-131 0 -210 69.5t-79 184.5z" />
<glyph unicode="&#xe48;" d="M-494 1206v387h410v-387h-410z" />
<glyph unicode="&#xe49;" d="M-782 1378v273h233q156 0 156 -135v-56h399v-254h-651v135q0 18 -8.5 27.5t-28.5 9.5h-100z" />
<glyph unicode="&#xe4a;" d="M-1083 1407q0 121 64.5 198.5t168.5 77.5q63 0 101 -20.5t63 -58.5q55 74 162 73q184 0 184 -196v-62h12q25 0 32 11.5t7 37.5v195h205v-236q0 -98 -64.5 -159.5t-168.5 -61.5h-205v166q0 55 -39 55q-45 0 -45 -53v-39h-152v37q0 55 -39 55q-49 0 -49 -88 q0 -31 13.5 -68.5t31.5 -64.5h-235q-47 80 -47 201z" />
<glyph unicode="&#xe4b;" d="M-582 1298v226h95v90h393v-90h96v-226h-96v-92h-393v92h-95z" />
<glyph unicode="&#xe4c;" d="M-702 1206v201q0 193 225 192h473v-251h-285q-47 0 -47 -45v-97h-366z" />
<glyph unicode="&#xe4d;" d="M-561 1452q0 74 36 135.5t97 97t133 35.5t133.5 -35.5t97 -97t35.5 -135.5q0 -72 -35.5 -133.5t-97 -96t-133.5 -34.5t-133 34.5t-97 96t-36 133.5zM-367 1450q0 -31 20.5 -52.5t51.5 -21.5q29 0 50.5 22.5t21.5 51.5q0 31 -20.5 52.5t-51.5 21.5t-51.5 -21.5 t-20.5 -52.5z" />
<glyph unicode="&#xe4e;" d="M-649 1395q0 82 43 130t121 56q-23 31 -23 84q0 74 58.5 115t148.5 41q94 0 147 -31v-148q-41 37 -88 37q-49 0 -49 -37q0 -33 55 -49v-143q-53 18 -96 18q-72 0 -71 -57q0 -55 73 -55q63 0 111 35v-148q-31 -20 -82 -28.5t-102 -8.5q-115 0 -180.5 51.5t-65.5 137.5z " />
<glyph unicode="&#xe4f;" horiz-adv-x="1124" d="M41 492q0 143 69.5 262.5t189.5 189.5t263 70q141 0 261 -70t189.5 -189.5t69.5 -262.5t-69.5 -263t-189 -190t-261.5 -70q-143 0 -263 70t-189.5 189.5t-69.5 263.5zM276 492q0 -125 82 -207t205 -82t205 83t82 206t-83 204.5t-204 81.5q-123 0 -205 -82t-82 -204z M326 492q0 102 69.5 169.5t169.5 67.5t169 -67.5t69 -169.5q0 -104 -68.5 -171t-169.5 -67q-102 0 -170.5 66.5t-68.5 171.5zM494 492q0 -31 20.5 -51.5t50.5 -20.5q31 0 50.5 20.5t19.5 51.5t-20.5 50t-49.5 19q-31 0 -51 -19.5t-20 -49.5z" />
<glyph unicode="&#xe50;" horiz-adv-x="1193" d="M41 492q0 154 71.5 272.5t198.5 184t287 65.5t286 -65.5t197.5 -184.5t71.5 -272q0 -154 -71.5 -273t-197.5 -184.5t-286 -65.5t-287 65.5t-198.5 184.5t-71.5 273zM391 492q0 -98 57.5 -154.5t149.5 -56.5q90 0 148.5 56t58.5 155q0 94 -58.5 151t-148.5 57t-148.5 -57 t-58.5 -151z" />
<glyph unicode="&#xe51;" horiz-adv-x="1206" d="M41 565q0 135 68.5 236.5t192.5 157t282 55.5q287 0 434 -139.5t147 -376.5q0 -530 -686 -684v315q133 29 201 78t89.5 115.5t21.5 169.5q0 106 -53.5 163.5t-155.5 57.5q-80 0 -127 -30t-47 -91q0 -55 31.5 -87t92.5 -32q63 0 121 27v-262q-39 -25 -97 -38.5t-124 -13.5 q-176 0 -283.5 100.5t-107.5 278.5z" />
<glyph unicode="&#xe52;" horiz-adv-x="1470" d="M82 502v624h293v-616q0 -133 105.5 -213t269.5 -80q168 0 254 56.5t86 162.5v215q0 74 -56 74q-37 0 -47 -27.5t-12 -89.5h-137l-43 23q-2 47 -14.5 71.5t-39.5 24.5q-61 0 -61 -102q0 -57 36 -86t97 -29q80 0 133 20v-227q-39 -14 -77 -20.5t-97 -6.5q-172 0 -267 96.5 t-95 270.5q0 176 79.5 273.5t215.5 97.5q121 0 182 -107q29 45 87 76t132 31q145 0 214 -89t69 -247v-244q0 -145 -89.5 -250.5t-235.5 -160t-314 -54.5q-177 0 -329.5 57.5t-245.5 177.5t-93 298z" />
<glyph unicode="&#xe53;" horiz-adv-x="1327" d="M41 481q0 172 52 292t144.5 180.5t211.5 60.5q70 0 122 -24.5t84 -61.5q37 41 98.5 63.5t135.5 22.5q172 0 264 -93.5t92 -238.5v-682h-348v635q0 74 -61 74q-37 0 -51.5 -20.5t-14.5 -63.5v-236h-242v236q0 84 -57 84q-47 0 -68.5 -55.5t-21.5 -182.5q0 -106 46 -157.5 t142 -51.5q41 0 98.5 7t84.5 18v-291q-43 -10 -107.5 -18.5t-122.5 -8.5q-219 0 -350 132t-131 380z" />
<glyph unicode="&#xe54;" horiz-adv-x="1263" d="M41 492q0 166 74.5 291.5t216 195.5t336.5 70q98 0 148 7t77 29.5t41 69.5h330q-31 -129 -81 -210t-147.5 -124t-257.5 -43q-178 0 -275 -81t-97 -228q0 -104 40.5 -159.5t104.5 -55.5h22q-20 25 -32.5 63.5t-12.5 79.5q0 147 90.5 226t260.5 79q174 0 266 -45v-235 q-70 41 -150 41q-59 0 -91 -27.5t-32 -77.5q0 -104 134 -104h178v-254h-604q-258 0 -398.5 123t-140.5 369z" />
<glyph unicode="&#xe55;" horiz-adv-x="1263" d="M41 492q0 190 93 324t265 190q-6 25 -6 51q0 104 64.5 167.5t169.5 63.5q113 0 172 -63.5t59 -163.5q43 8 59.5 28.5t20.5 65.5h326q-29 -127 -82.5 -209t-150.5 -125t-257 -43q-172 0 -270 -81t-98 -228q0 -104 40.5 -159.5t104.5 -55.5h22q-20 25 -32.5 63.5 t-12.5 79.5q0 147 88.5 226t262.5 79t266 -45v-235q-70 41 -150 41q-59 0 -91 -27.5t-32 -77.5q0 -104 134 -104h178v-254h-604q-258 0 -398.5 123t-140.5 369zM575 1061q0 -23 16.5 -39t39.5 -16q24 0 40.5 16t16.5 39q0 25 -16.5 41t-40.5 16q-23 0 -39.5 -16.5 t-16.5 -40.5z" />
<glyph unicode="&#xe56;" horiz-adv-x="1273" d="M0 1128h293l55 -251q57 63 148.5 100t201.5 37q281 0 408 -143.5t127 -385.5q0 -147 -67.5 -264t-206 -184.5t-338.5 -67.5q-123 0 -230.5 30t-177.5 89v303q82 -72 184.5 -107.5t208.5 -35.5q125 0 189.5 62.5t64.5 174.5q0 117 -58.5 175.5t-168.5 58.5 q-88 0 -152.5 -45t-95.5 -137h-242z" />
<glyph unicode="&#xe57;" horiz-adv-x="1644" d="M41 481q0 256 102.5 394.5t280.5 138.5q129 0 207 -86q37 41 98.5 63.5t134.5 22.5q311 0 312 -332v-391q47 0 67.5 22.5t20.5 71.5v741h299v-718q0 -219 -129 -313.5t-332 -94.5h-230v639q0 37 -14 55.5t-49 18.5t-49.5 -20.5t-14.5 -63.5v-240h-235v240 q0 41 -12.5 62.5t-44.5 21.5q-47 0 -69 -57.5t-22 -184.5q0 -111 47.5 -165t143.5 -54q41 0 94 7t80 20v-283q-43 -10 -108.5 -18.5t-122.5 -8.5q-207 0 -331 132t-124 380z" />
<glyph unicode="&#xe58;" horiz-adv-x="1323" d="M41 479q0 166 76 296t218 202t333 72q102 0 151 7t76 28.5t39 70.5h330q-31 -129 -81 -210t-147.5 -124t-257.5 -43q-201 0 -290 -80t-89 -247q0 -129 23.5 -177.5t66.5 -48.5q68 0 68 84v86h258v-84q0 -41 13.5 -63.5t48.5 -22.5q39 0 56 31t17 109q0 113 -88 112 q-55 0 -102 -22v235q33 12 83 19.5t99 7.5q166 0 253 -89t87 -263q0 -190 -98.5 -293t-263.5 -103q-63 0 -128 24.5t-106 67.5q-39 -45 -99.5 -68.5t-135.5 -23.5q-183 0 -296.5 130t-113.5 380z" />
<glyph unicode="&#xe59;" horiz-adv-x="1531" d="M41 479q0 170 53 291t146.5 182.5t212.5 61.5q68 0 121 -26.5t88 -63.5q86 90 215 90q143 0 213 -101l84 213h358l-270 -651h-213l4 137q-6 41 -24.5 63.5t-53.5 22.5q-27 0 -42 -15t-15 -42q0 -23 8 -41l200 -600h-338l-200 606q-18 53 -35.5 72.5t-56.5 19.5 q-51 0 -83 -54t-32 -171q0 -111 30.5 -161t100.5 -50q37 0 60.5 5t54.5 20v-291q-102 -27 -195 -27q-176 0 -283.5 132t-107.5 378z" />
<glyph unicode="&#xe5a;" horiz-adv-x="1943" d="M41 760q0 176 111.5 271t291.5 95q147 0 236 -32v-246q-47 18 -102 18q-53 0 -83 -24.5t-30 -71.5q0 -51 30.5 -73.5t96.5 -22.5q98 0 182 49v373h412v-371q27 -51 96 -51q92 0 168 49v373h412v-1096h-412v453q-72 -45 -166 -52q-37 -4 -55 -4q-14 0 -43 4v-401h-412v453 q-59 -27 -141 -43.5t-164 -16.5q-195 0 -311.5 96.5t-116.5 270.5z" />
<glyph unicode="&#xe5b;" horiz-adv-x="2324" d="M41 487q0 152 59.5 271t170 187.5t257.5 68.5q215 0 339 -104.5t124 -297.5q0 -186 -104.5 -273t-261.5 -87q-109 0 -185 45v211q27 -20 68 -31.5t82 -11.5q72 0 111.5 29.5t39.5 117.5q0 158 -206 158q-109 0 -173.5 -71.5t-64.5 -211.5q0 -291 311 -290q225 0 330.5 95 t105.5 314v236h275l96 -275h4l47 246h197l59 -213h4l37 172h176l66 -168h4l45 76h230v-236h-150l-53 -145h-154l-59 107h-4l-45 -158h-185l-63 192h-4l-54 -235h-188l-72 244h-4q-27 -236 -201 -358t-440 -122q-258 0 -412.5 134.5t-154.5 383.5z" />
<glyph unicode="&#x1e0c;" horiz-adv-x="1439" d="M82 0v1432h530q238 0 415 -86t274.5 -247t97.5 -376q0 -356 -211 -539.5t-580 -183.5h-526zM473 -262q0 70 50 119t120 49t118 -49.5t48 -118.5q0 -70 -48 -119t-118 -49t-120 49t-50 119zM506 356h133q158 0 243 98.5t85 268.5q0 152 -86 252t-236 100h-139v-719z" />
<glyph unicode="&#x1e0d;" horiz-adv-x="1370" d="M41 489q0 154 64.5 274t183.5 185.5t274 65.5q94 0 177 -28t139 -75v602h409v-1513h-395v90q-61 -59 -146 -90t-184 -31q-155 0 -274 64.5t-183.5 182.5t-64.5 273zM465 489q0 -96 56.5 -149t152.5 -53q69 0 123.5 32.5t81.5 90.5v161q-27 57 -81.5 90t-123.5 33 q-96 0 -152.5 -54t-56.5 -151zM549 -262q0 70 50 119t120 49t118 -49.5t48 -118.5q0 -70 -48.5 -119t-117.5 -49q-70 0 -120 49t-50 119z" />
<glyph unicode="&#x1e0e;" horiz-adv-x="1439" d="M82 0v1432h530q238 0 415 -86t274.5 -247t97.5 -376q0 -356 -211 -539.5t-580 -183.5h-526zM274 -111h730v-241h-730v241zM506 356h133q158 0 243 98.5t85 268.5q0 152 -86 252t-236 100h-139v-719z" />
<glyph unicode="&#x1e0f;" horiz-adv-x="1370" d="M41 489q0 154 64.5 274t183.5 185.5t274 65.5q94 0 177 -28t139 -75v602h409v-1513h-395v90q-61 -59 -146 -90t-184 -31q-155 0 -274 64.5t-183.5 182.5t-64.5 273zM383 -111h729v-241h-729v241zM465 489q0 -96 56.5 -149t152.5 -53q69 0 123.5 32.5t81.5 90.5v161 q-27 57 -81.5 90t-123.5 33q-96 0 -152.5 -54t-56.5 -151z" />
<glyph unicode="&#x1e20;" horiz-adv-x="1415" d="M41 715q0 229 96 398t274.5 259t415.5 90q319 0 500 -119v-391q-90 68 -202.5 98.5t-260.5 30.5q-193 0 -292 -96t-99 -270q0 -182 95.5 -275.5t275.5 -93.5q88 0 143 25v182h-196v268h583v-717q-217 -135 -547 -135q-237 0 -415.5 90.5t-274.5 258t-96 397.5zM459 1550 v242h729v-242h-729z" />
<glyph unicode="&#x1e21;" horiz-adv-x="1370" d="M41 492q0 156 64.5 274.5t183.5 183t274 64.5q96 0 182 -32t148 -89v90h395v-911q0 -258 -161.5 -400.5t-503.5 -142.5q-97 0 -198 18.5t-175 49.5v272q162 -70 373 -70q133 0 194.5 54.5t61.5 158.5v58q-55 -45 -138.5 -73t-175.5 -28q-156 0 -275.5 65.5t-184 184.5 t-64.5 273zM358 1098v241h729v-241h-729zM465 494q0 -98 56.5 -152.5t152.5 -54.5q69 0 123.5 33.5t81.5 91.5v159q-27 57 -81.5 90t-123.5 33q-96 0 -152.5 -53t-56.5 -147z" />
<glyph unicode="&#x1e24;" horiz-adv-x="1488" d="M82 0v1432h424v-527h477v527h424v-1432h-424v549h-477v-549h-424zM575 -262q0 70 50.5 119t119.5 49q70 0 118 -49.5t48 -118.5q0 -70 -48 -119t-118 -49q-69 0 -119.5 49t-50.5 119z" />
<glyph unicode="&#x1e25;" horiz-adv-x="1288" d="M82 0v1513h410v-618q135 119 315 119q211 0 310.5 -107.5t99.5 -296.5v-610h-412v553q0 70 -30 105.5t-95 35.5q-123 0 -188 -110v-584h-410zM487 -262q0 70 50.5 119t119.5 49q70 0 118 -49.5t48 -118.5q0 -70 -48 -119t-118 -49q-69 0 -119.5 49t-50.5 119z" />
<glyph unicode="&#x1e2a;" horiz-adv-x="1488" d="M82 0v1432h424v-527h477v527h424v-1432h-424v549h-477v-549h-424zM346 -106h305q0 -123 92 -123t93 123h305q0 -176 -103.5 -276.5t-294.5 -100.5q-190 0 -293.5 100t-103.5 277z" />
<glyph unicode="&#x1e2b;" horiz-adv-x="1288" d="M82 0v1513h410v-618q135 119 315 119q211 0 310.5 -107.5t99.5 -296.5v-610h-412v553q0 70 -30 105.5t-95 35.5q-123 0 -188 -110v-584h-410zM252 -106h305q0 -123 92 -123t92 123h306q0 -176 -103.5 -276.5t-294.5 -100.5q-190 0 -293.5 100t-103.5 277z" />
<glyph unicode="&#x1e36;" horiz-adv-x="1083" d="M82 0v1432h424v-1076h577v-356h-1001zM395 -262q0 70 50.5 119t119.5 49q70 0 118 -49.5t48 -118.5q0 -70 -48 -119t-118 -49q-69 0 -119.5 49t-50.5 119z" />
<glyph unicode="&#x1e37;" horiz-adv-x="573" d="M82 0v1513h410v-1513h-410zM121 -262q0 70 50 119t120 49t118 -49.5t48 -118.5q0 -70 -48.5 -119t-117.5 -49q-70 0 -120 49t-50 119z" />
<glyph unicode="&#x1e38;" horiz-adv-x="1085" d="M-2 1565v241h729v-241h-729zM84 0v1432h424v-1076h577v-356h-1001zM408 -262q0 70 50 119t120 49t117.5 -49.5t47.5 -118.5q0 -70 -48 -119t-117 -49q-70 0 -120 49t-50 119z" />
<glyph unicode="&#x1e39;" horiz-adv-x="573" d="M-76 1591v242h729v-242h-729zM82 0v1513h410v-1513h-410zM121 -262q0 70 50 119t120 49t118 -49.5t48 -118.5q0 -70 -48.5 -119t-117.5 -49q-70 0 -120 49t-50 119z" />
<glyph unicode="&#x1e3a;" horiz-adv-x="1083" d="M82 0v1432h424v-1076h577v-356h-1001zM225 -111h729v-241h-729v241z" />
<glyph unicode="&#x1e3b;" horiz-adv-x="573" d="M-76 -111h729v-241h-729v241zM82 0v1513h410v-1513h-410z" />
<glyph unicode="&#x1e42;" horiz-adv-x="1716" d="M82 0v1432h387l389 -842l389 842h387v-1432h-395v635l-293 -635h-176l-293 635v-635h-395zM702 -262q0 70 50.5 119t119.5 49q70 0 118 -49.5t48 -118.5q0 -70 -48 -119t-118 -49q-69 0 -119.5 49t-50.5 119z" />
<glyph unicode="&#x1e43;" horiz-adv-x="1800" d="M82 0v983h379v-94q57 59 134 92t167 33q109 0 173 -30t109 -91q61 57 146.5 89t173.5 32q199 0 282 -101.5t83 -294.5v-618h-392v559q0 72 -25.5 103.5t-86.5 31.5q-70 0 -113 -43v-651h-391v578q0 61 -22.5 88.5t-77.5 27.5q-88 0 -146 -96v-598h-393zM762 -262 q0 70 50 119t120 49t118 -49.5t48 -118.5q0 -70 -48.5 -119t-117.5 -49q-70 0 -120 49t-50 119z" />
<glyph unicode="&#x1e44;" horiz-adv-x="1445" d="M82 0v1432h412l446 -750v750h424v-1432h-410l-448 750v-750h-424zM569 1686q0 70 50.5 119.5t119.5 49.5q70 0 118 -49t48 -120q0 -70 -48 -118t-118 -48q-69 0 -119.5 48t-50.5 118z" />
<glyph unicode="&#x1e45;" horiz-adv-x="1288" d="M82 0v983h395v-96q63 61 149.5 94t180.5 33q211 0 310.5 -107.5t99.5 -296.5v-610h-412v553q0 70 -30 105.5t-95 35.5q-123 0 -188 -110v-584h-410zM489 1233q0 70 50.5 120t119.5 50q70 0 118 -49t48 -121q0 -70 -48 -118t-118 -48q-69 0 -119.5 48t-50.5 118z" />
<glyph unicode="&#x1e46;" horiz-adv-x="1445" d="M82 0v1432h412l446 -750v750h424v-1432h-410l-448 750v-750h-424zM567 -262q0 70 50.5 119t119.5 49q70 0 118 -49.5t48 -118.5q0 -70 -48 -119t-118 -49q-69 0 -119.5 49t-50.5 119z" />
<glyph unicode="&#x1e47;" horiz-adv-x="1288" d="M82 0v983h395v-96q63 61 149.5 94t180.5 33q211 0 310.5 -107.5t99.5 -296.5v-610h-412v553q0 70 -30 105.5t-95 35.5q-123 0 -188 -110v-584h-410zM504 -262q0 70 50 119t120 49t118 -49.5t48 -118.5q0 -70 -48.5 -119t-117.5 -49q-70 0 -120 49t-50 119z" />
<glyph unicode="&#x1e48;" horiz-adv-x="1445" d="M82 0v1432h412l446 -750v750h424v-1432h-410l-448 750v-750h-424zM375 -111h729v-241h-729v241z" />
<glyph unicode="&#x1e49;" horiz-adv-x="1288" d="M82 0v983h395v-96q63 61 149.5 94t180.5 33q211 0 310.5 -107.5t99.5 -296.5v-610h-412v553q0 70 -30 105.5t-95 35.5q-123 0 -188 -110v-584h-410zM319 -111h730v-241h-730v241z" />
<glyph unicode="&#x1e5a;" horiz-adv-x="1345" d="M82 0v1432h666q258 0 407.5 -130.5t149.5 -375.5q0 -160 -67 -272.5t-189 -172.5l239 -481h-434l-209 420h-139v-420h-424zM492 -262q0 70 50 119t120 49t117.5 -49.5t47.5 -118.5q0 -70 -48 -119t-117 -49q-70 0 -120 49t-50 119zM506 756h158q98 0 152 37.5t54 132.5 q0 94 -54 132t-152 38h-158v-340z" />
<glyph unicode="&#x1e5b;" horiz-adv-x="858" d="M82 0v983h395v-106q57 59 158.5 94t222.5 35v-318q-129 0 -229.5 -35t-136.5 -102v-551h-410zM119 -262q0 70 50 119t120 49t118 -49.5t48 -118.5q0 -70 -48.5 -119t-117.5 -49q-70 0 -120 49t-50 119z" />
<glyph unicode="&#x1e5c;" horiz-adv-x="1345" d="M82 0v1432h666q258 0 407.5 -130.5t149.5 -375.5q0 -160 -67 -272.5t-189 -172.5l239 -481h-434l-209 420h-139v-420h-424zM264 1550v242h729v-242h-729zM461 -262q0 70 50 119t120 49t118 -49.5t48 -118.5q0 -70 -48.5 -119t-117.5 -49q-70 0 -120 49t-50 119zM506 756 h158q98 0 152 37.5t54 132.5q0 94 -54 132t-152 38h-158v-340z" />
<glyph unicode="&#x1e5d;" horiz-adv-x="858" d="M82 0v983h395v-106q57 59 158.5 94t222.5 35v-318q-129 0 -229.5 -35t-136.5 -102v-551h-410zM84 1098v241h729v-241h-729zM121 -262q0 70 50 119t120 49t118 -49.5t48 -118.5q0 -70 -48.5 -119t-117.5 -49q-70 0 -120 49t-50 119z" />
<glyph unicode="&#x1e5e;" horiz-adv-x="1345" d="M82 0v1432h666q258 0 407.5 -130.5t149.5 -375.5q0 -160 -67 -272.5t-189 -172.5l239 -481h-434l-209 420h-139v-420h-424zM297 -111h729v-241h-729v241zM506 756h158q98 0 152 37.5t54 132.5q0 94 -54 132t-152 38h-158v-340z" />
<glyph unicode="&#x1e5f;" horiz-adv-x="858" d="M80 -111h729v-241h-729v241zM82 0v983h395v-106q57 59 158.5 94t222.5 35v-318q-129 0 -229.5 -35t-136.5 -102v-551h-410z" />
<glyph unicode="&#x1e60;" horiz-adv-x="1175" d="M41 70v374q113 -61 236.5 -91.5t232.5 -30.5q158 0 158 84q0 35 -23.5 60.5t-71 49t-149.5 68.5q-199 86 -288 188t-89 254q0 127 70.5 226.5t197.5 154.5t293 55q135 0 239.5 -21.5t203.5 -68.5v-362q-178 98 -365 98q-82 0 -131 -23.5t-49 -68.5t44 -73t167 -77l45 -18 q145 -59 224 -117.5t114 -135.5t35 -194q0 -203 -147.5 -317.5t-444.5 -114.5q-137 0 -276.5 28t-225.5 73zM432 1686q0 70 50 119.5t120 49.5t118 -49t48 -120q0 -70 -48 -118t-118 -48t-120 48t-50 118z" />
<glyph unicode="&#x1e61;" horiz-adv-x="1060" d="M41 686q0 166 131 247t358 81q109 0 235 -23.5t187 -62.5v-285q-63 41 -169.5 70.5t-194.5 29.5q-121 0 -121 -41q0 -18 29.5 -30.5t103.5 -28.5l86 -20q133 -35 205 -80t100.5 -105.5t28.5 -150.5q0 -145 -128 -231.5t-368 -86.5q-123 0 -257 22.5t-212 65.5v289 q84 -49 206 -83t220 -34q59 0 86 7.5t27 29.5q0 20 -25.5 30.5t-95.5 29.5l-94 26q-125 37 -197.5 79t-106.5 102.5t-34 152.5zM358 1233q0 70 50.5 120t119.5 50q70 0 118 -49t48 -121q0 -70 -48 -118t-118 -48q-69 0 -119.5 48t-50.5 118z" />
<glyph unicode="&#x1e62;" horiz-adv-x="1175" d="M41 70v374q113 -61 236.5 -91.5t232.5 -30.5q158 0 158 84q0 35 -23.5 60.5t-71 49t-149.5 68.5q-199 86 -288 188t-89 254q0 127 70.5 226.5t197.5 154.5t293 55q135 0 239.5 -21.5t203.5 -68.5v-362q-178 98 -365 98q-82 0 -131 -23.5t-49 -68.5t44 -73t167 -77l45 -18 q145 -59 224 -117.5t114 -135.5t35 -194q0 -203 -147.5 -317.5t-444.5 -114.5q-137 0 -276.5 28t-225.5 73zM412 -262q0 70 50 119t120 49t118 -49.5t48 -118.5q0 -70 -48.5 -119t-117.5 -49q-70 0 -120 49t-50 119z" />
<glyph unicode="&#x1e63;" horiz-adv-x="1060" d="M41 686q0 166 131 247t358 81q109 0 235 -23.5t187 -62.5v-285q-63 41 -169.5 70.5t-194.5 29.5q-121 0 -121 -41q0 -18 29.5 -30.5t103.5 -28.5l86 -20q133 -35 205 -80t100.5 -105.5t28.5 -150.5q0 -145 -128 -231.5t-368 -86.5q-123 0 -257 22.5t-212 65.5v289 q84 -49 206 -83t220 -34q59 0 86 7.5t27 29.5q0 20 -25.5 30.5t-95.5 29.5l-94 26q-125 37 -197.5 79t-106.5 102.5t-34 152.5zM381 -262q0 70 50 119t120 49t118 -49.5t48 -118.5q0 -70 -48 -119t-118 -49t-120 49t-50 119z" />
<glyph unicode="&#x1e6c;" horiz-adv-x="1214" d="M10 1075v357h1194v-357h-385v-1075h-424v1075h-385zM449 -262q0 70 50 119t119 49q70 0 118 -49.5t48 -118.5q0 -70 -48 -119t-118 -49q-69 0 -119 49t-50 119z" />
<glyph unicode="&#x1e6d;" horiz-adv-x="808" d="M0 707v276h135v295h412v-295h219v-276h-219v-283q0 -74 27.5 -105.5t93.5 -31.5q74 0 141 39v-303q-59 -27 -123.5 -40.5t-163.5 -13.5q-190 0 -288.5 106.5t-98.5 289.5v342h-135zM324 -262q0 70 50 119t120 49t117.5 -49.5t47.5 -118.5q0 -70 -48 -119t-117 -49 q-70 0 -120 49t-50 119z" />
<glyph unicode="&#x1e6e;" horiz-adv-x="1214" d="M10 1075v357h1194v-357h-385v-1075h-424v1075h-385zM223 -111h729v-241h-729v241z" />
<glyph unicode="&#x1e6f;" horiz-adv-x="808" d="M0 707v276h135v295h412v-295h219v-276h-219v-283q0 -74 27.5 -105.5t93.5 -31.5q74 0 141 39v-303q-59 -27 -123.5 -40.5t-163.5 -13.5q-190 0 -288.5 106.5t-98.5 289.5v342h-135zM68 -111h729v-241h-729v241z" />
<glyph unicode="&#x1e80;" horiz-adv-x="2027" d="M41 1432h438l199 -750l190 750h308l174 -752l196 752h441l-381 -1432h-398l-194 760l-195 -760h-397zM655 1878h412l141 -369h-362z" />
<glyph unicode="&#x1e81;" horiz-adv-x="1775" d="M41 983h410l137 -512l137 512h326l137 -512l137 512h410l-332 -983h-369l-147 496l-146 -496h-368zM528 1427h412l141 -368h-362z" />
<glyph unicode="&#x1e82;" horiz-adv-x="2027" d="M41 1432h438l199 -750l190 750h308l174 -752l196 752h441l-381 -1432h-398l-194 760l-195 -760h-397zM850 1509l141 369h412l-191 -369h-362z" />
<glyph unicode="&#x1e83;" horiz-adv-x="1775" d="M41 983h410l137 -512l137 512h326l137 -512l137 512h410l-332 -983h-369l-147 496l-146 -496h-368zM723 1059l141 368h412l-191 -368h-362z" />
<glyph unicode="&#x1e84;" horiz-adv-x="2027" d="M41 1432h438l199 -750l190 750h308l174 -752l196 752h441l-381 -1432h-398l-194 760l-195 -760h-397zM616 1686q0 70 51.5 119.5t118.5 49.5q70 0 119 -50t49 -119q0 -70 -49 -118t-119 -48q-69 0 -119.5 48t-50.5 118zM1100 1686q0 70 50 119.5t120 49.5q68 0 117 -50 t49 -119q0 -70 -49.5 -118t-116.5 -48q-70 0 -120 48t-50 118z" />
<glyph unicode="&#x1e85;" horiz-adv-x="1775" d="M41 983h410l137 -512l137 512h326l137 -512l137 512h410l-332 -983h-369l-147 496l-146 -496h-368zM489 1233q0 70 51.5 120t118.5 50q70 0 119 -50t49 -120t-49 -118t-119 -48q-69 0 -119.5 48t-50.5 118zM973 1233q0 70 50 120t120 50q68 0 117 -50t49 -120t-49.5 -118 t-116.5 -48q-70 0 -120 48t-50 118z" />
<glyph unicode="&#x1e8e;" horiz-adv-x="1568" d="M41 1432h453l282 -494l301 494h451l-541 -887v-545h-424v545zM610 1686q0 70 50.5 119.5t119.5 49.5q70 0 118 -49t48 -120q0 -70 -48 -118t-118 -48q-69 0 -119.5 48t-50.5 118z" />
<glyph unicode="&#x1e8f;" horiz-adv-x="1314" d="M41 983h410l233 -600l219 600h412l-393 -1006q-78 -197 -197 -290t-307 -93q-72 0 -150 10.5t-114 28.5v304q63 -25 139 -25q66 0 100.5 27.5t55.5 83.5l18 47zM516 1233q0 70 50 120t120 50t118 -49t48 -121q0 -70 -48 -118t-118 -48t-120 48t-50 118z" />
<glyph unicode="&#x1e92;" horiz-adv-x="1251" d="M41 0v279l598 796h-584v357h1108v-281l-596 -795h643v-356h-1169zM438 -262q0 70 50.5 119t119.5 49q70 0 118 -49.5t48 -118.5q0 -70 -48 -119t-118 -49q-69 0 -119.5 49t-50.5 119z" />
<glyph unicode="&#x1e93;" horiz-adv-x="1087" d="M41 0v213l438 494h-428v276h979v-213l-434 -494h451v-276h-1006zM377 -262q0 70 50 119t120 49t118 -49.5t48 -118.5q0 -70 -48.5 -119t-117.5 -49q-70 0 -120 49t-50 119z" />
<glyph unicode="&#x1e97;" horiz-adv-x="821" d="M-51 1513q0 70 51 120t119 50q70 0 119 -50t49 -120t-49.5 -117.5t-118.5 -47.5q-70 0 -120 48t-50 117zM12 707v276h135v295h412v-295h219v-276h-219v-283q0 -74 27.5 -105.5t93.5 -31.5q74 0 141 39v-303q-59 -27 -123.5 -40.5t-162.5 -13.5q-191 0 -289.5 106.5 t-98.5 289.5v342h-135zM432 1513q0 70 50 120t120 50q68 0 117 -50t49 -120t-49 -117.5t-117 -47.5q-70 0 -120 48t-50 117z" />
<glyph unicode="&#x1e9e;" horiz-adv-x="1357" d="M72 0v926q0 256 147.5 396t427.5 140q188 0 316.5 -64.5t194 -168t77.5 -228.5l-195 -221q276 -86 277 -381q0 -205 -129 -317.5t-365 -112.5q-71 0 -141 9.5t-113 27.5v332q57 -39 148 -39q170 0 170 141q0 76 -44 111t-141 35h-114v200l203 232q-4 57 -39 94t-101 37 q-158 0 -157 -172v-977h-422z" />
<glyph unicode="&#x1ea0;" horiz-adv-x="1634" d="M41 0l573 1432h408l571 -1432h-434l-106 272h-469l-109 -272h-434zM649 -262q0 70 50.5 119t119.5 49q70 0 118 -49.5t48 -118.5q0 -70 -48 -119t-118 -49q-69 0 -119.5 49t-50.5 119zM680 594h274l-137 401z" />
<glyph unicode="&#x1ea1;" horiz-adv-x="1241" d="M-20 305q0 166 110.5 253t321.5 87q76 0 153.5 -16.5t130.5 -40.5v18q0 68 -66.5 102.5t-185.5 34.5q-178 0 -327 -71v270q68 33 176 52.5t231 19.5q285 0 434.5 -108.5t149.5 -307.5v-598h-387v78q-49 -49 -135 -79t-191 -30q-188 0 -301.5 87t-113.5 249zM403 305 q0 -45 31 -71.5t88 -26.5q56 0 103 20.5t71 53.5v75q-76 49 -172 50q-57 0 -89 -27t-32 -74zM471 -262q0 70 50 119t120 49t118 -49.5t48 -118.5q0 -70 -48 -119t-118 -49t-120 49t-50 119z" />
<glyph unicode="&#x1ea2;" horiz-adv-x="1634" d="M41 0l573 1432h408l571 -1432h-434l-106 272h-469l-109 -272h-434zM559 1794v172q115 37 266 37q168 0 256 -61.5t88 -163.5q0 -76 -50 -128.5t-148 -68.5v-61h-340v147q182 0 182 80q0 68 -127 68q-35 0 -71.5 -6.5t-55.5 -14.5zM680 594h274l-137 401z" />
<glyph unicode="&#x1ea3;" horiz-adv-x="1241" d="M-20 305q0 166 110.5 253t321.5 87q76 0 153.5 -16.5t130.5 -40.5v18q0 68 -66.5 102.5t-185.5 34.5q-178 0 -327 -71v270q68 33 176 52.5t231 19.5q285 0 434.5 -108.5t149.5 -307.5v-598h-387v78q-49 -49 -135 -79t-191 -30q-188 0 -301.5 87t-113.5 249zM373 1341v172 q115 37 266 37q168 0 256 -61.5t88 -163.5q0 -76 -50 -128t-149 -69v-61h-340v147q182 0 183 80q0 68 -127 68q-35 0 -72 -6t-55 -15zM403 305q0 -45 31 -71.5t88 -26.5q56 0 103 20.5t71 53.5v75q-76 49 -172 50q-57 0 -89 -27t-32 -74z" />
<glyph unicode="&#x1ea4;" horiz-adv-x="1632" d="M41 0l573 1432h408l571 -1432h-434l-106 272h-469l-109 -272h-434zM352 1524l324 325h272l326 -325h-336l-125 139l-125 -139h-336zM680 594h274l-137 401zM1090 1778l118 295h336l-168 -295h-286z" />
<glyph unicode="&#x1ea5;" horiz-adv-x="1241" d="M-20 305q0 166 110.5 253t321.5 87q76 0 153.5 -16.5t130.5 -40.5v18q0 68 -66.5 102.5t-185.5 34.5q-178 0 -327 -71v270q68 33 176 52.5t231 19.5q285 0 434.5 -108.5t149.5 -307.5v-598h-387v78q-49 -49 -135 -79t-191 -30q-188 0 -301.5 87t-113.5 249zM168 1067 l324 326h272l326 -326h-336l-125 139l-125 -139h-336zM403 305q0 -45 31 -71.5t88 -26.5q56 0 103 20.5t71 53.5v75q-76 49 -172 50q-57 0 -89 -27t-32 -74zM905 1321l119 295h336l-168 -295h-287z" />
<glyph unicode="&#x1ea6;" horiz-adv-x="1628" d="M33 0l573 1432h408l571 -1432h-434l-107 272h-469l-108 -272h-434zM80 2066h336l119 -294h-287zM350 1518l326 325h272l324 -325h-336l-125 139l-125 -139h-336zM672 594h274l-137 401z" />
<glyph unicode="&#x1ea7;" horiz-adv-x="1241" d="M-82 1616h336l119 -295h-287zM-20 305q0 166 110.5 253t321.5 87q76 0 153.5 -16.5t130.5 -40.5v18q0 68 -66.5 102.5t-185.5 34.5q-178 0 -327 -71v270q68 33 176 52.5t231 19.5q285 0 434.5 -108.5t149.5 -307.5v-598h-387v78q-49 -49 -135 -79t-191 -30 q-188 0 -301.5 87t-113.5 249zM188 1067l326 326h272l324 -326h-336l-125 139l-125 -139h-336zM403 305q0 -45 31 -71.5t88 -26.5q56 0 103 20.5t71 53.5v75q-76 49 -172 50q-57 0 -89 -27t-32 -74z" />
<glyph unicode="&#x1ea8;" horiz-adv-x="1634" d="M41 0l573 1432h408l571 -1432h-434l-106 272h-469l-109 -272h-434zM365 1524l323 325h273l325 -325h-336l-125 139l-125 -139h-335zM680 594h274l-137 401zM1040 1939v132q37 10 92.5 17t98.5 7q113 0 173 -41t60 -112q0 -49 -31.5 -84t-91.5 -52v-51h-249v105 q100 0 100 49q0 43 -80 43q-43 0 -72 -13z" />
<glyph unicode="&#x1ea9;" horiz-adv-x="1241" d="M-20 305q0 166 110.5 253t321.5 87q76 0 153.5 -16.5t130.5 -40.5v18q0 68 -66.5 102.5t-185.5 34.5q-178 0 -327 -71v270q68 33 176 52.5t231 19.5q285 0 434.5 -108.5t149.5 -307.5v-598h-387v78q-49 -49 -135 -79t-191 -30q-188 0 -301.5 87t-113.5 249zM176 1067 l324 326h272l326 -326h-336l-125 139l-125 -139h-336zM403 305q0 -45 31 -71.5t88 -26.5q56 0 103 20.5t71 53.5v75q-76 49 -172 50q-57 0 -89 -27t-32 -74zM852 1483v131q37 10 92 17t98 7q113 0 173.5 -41t60.5 -112q0 -49 -32 -84t-91 -51v-52h-250v105q100 0 101 49 q0 43 -80 43q-43 0 -72 -12z" />
<glyph unicode="&#x1eaa;" horiz-adv-x="1634" d="M41 0l573 1432h408l571 -1432h-434l-106 272h-469l-109 -272h-434zM356 1518l324 325h272l326 -325h-336l-125 139l-125 -139h-336zM496 1868v219q59 68 174 67q37 0 74.5 -11t95.5 -32q55 -20 91 -30t70 -10q106 0 177 81v-221q-57 -66 -177 -65q-38 0 -76 10t-100 33 q-55 20 -87.5 30.5t-67.5 10.5q-104 0 -174 -82zM680 594h274l-137 401z" />
<glyph unicode="&#x1eab;" horiz-adv-x="1241" d="M-20 305q0 166 110.5 253t321.5 87q76 0 153.5 -16.5t130.5 -40.5v18q0 68 -66.5 102.5t-185.5 34.5q-178 0 -327 -71v270q68 33 176 52.5t231 19.5q285 0 434.5 -108.5t149.5 -307.5v-598h-387v78q-49 -49 -135 -79t-191 -30q-188 0 -301.5 87t-113.5 249zM186 1067 l324 326h272l326 -326h-336l-125 139l-125 -139h-336zM326 1417v219q59 68 174 68q37 0 74.5 -11.5t95.5 -31.5q55 -20 91 -30.5t70 -10.5q106 0 177 82v-221q-57 -66 -177 -66q-38 0 -76 10.5t-100 32.5q-55 20 -87.5 30.5t-67.5 10.5q-104 0 -174 -82zM403 305 q0 -45 31 -71.5t88 -26.5q56 0 103 20.5t71 53.5v75q-76 49 -172 50q-57 0 -89 -27t-32 -74z" />
<glyph unicode="&#x1eac;" horiz-adv-x="1634" d="M41 0l573 1432h408l571 -1432h-434l-106 272h-469l-109 -272h-434zM346 1532l303 352h338l303 -352h-352l-119 145l-119 -145h-354zM649 -262q0 70 50.5 119t119.5 49q70 0 118 -49.5t48 -118.5q0 -70 -48 -119t-118 -49q-69 0 -119.5 49t-50.5 119zM680 594h274 l-137 401z" />
<glyph unicode="&#x1ead;" horiz-adv-x="1241" d="M-20 305q0 166 110.5 253t321.5 87q76 0 153.5 -16.5t130.5 -40.5v18q0 68 -66.5 102.5t-185.5 34.5q-178 0 -327 -71v270q68 33 176 52.5t231 19.5q285 0 434.5 -108.5t149.5 -307.5v-598h-387v78q-49 -49 -135 -79t-191 -30q-188 0 -301.5 87t-113.5 249zM162 1081 l303 353h338l303 -353h-352l-119 146l-119 -146h-354zM403 305q0 -45 31 -71.5t88 -26.5q56 0 103 20.5t71 53.5v75q-76 49 -172 50q-57 0 -89 -27t-32 -74zM469 -262q0 70 50 119t120 49t118 -49.5t48 -118.5q0 -70 -48 -119t-118 -49t-120 49t-50 119z" />
<glyph unicode="&#x1eae;" horiz-adv-x="1634" d="M41 0l573 1432h408l571 -1432h-434l-106 272h-469l-109 -272h-434zM446 1837h261q0 -109 112 -108q111 0 111 108h260q0 -147 -102.5 -233t-268.5 -86t-269.5 86t-103.5 233zM672 1878l106 274h338l-153 -274h-291zM680 594h274l-137 401z" />
<glyph unicode="&#x1eaf;" horiz-adv-x="1241" d="M-20 305q0 166 110.5 253t321.5 87q76 0 153.5 -16.5t130.5 -40.5v18q0 68 -66.5 102.5t-185.5 34.5q-178 0 -327 -71v270q68 33 176 52.5t231 19.5q285 0 434.5 -108.5t149.5 -307.5v-598h-387v78q-49 -49 -135 -79t-191 -30q-188 0 -301.5 87t-113.5 249zM281 1384h260 q0 -109 112 -108q111 0 111 108h260q0 -147 -102.5 -233t-268.5 -86t-269 86t-103 233zM403 305q0 -45 31 -71.5t88 -26.5q56 0 103 20.5t71 53.5v75q-76 49 -172 50q-57 0 -89 -27t-32 -74zM506 1425l106 275h338l-153 -275h-291z" />
<glyph unicode="&#x1eb0;" horiz-adv-x="1634" d="M41 0l573 1432h408l571 -1432h-434l-106 272h-469l-109 -272h-434zM446 1837h263q0 -109 110 -108q111 0 111 108h260q0 -147 -102.5 -233t-268.5 -86t-269.5 86t-103.5 233zM522 2152h338l107 -274h-293zM680 594h274l-137 401z" />
<glyph unicode="&#x1eb1;" horiz-adv-x="1241" d="M-20 305q0 166 110.5 253t321.5 87q76 0 153.5 -16.5t130.5 -40.5v18q0 68 -66.5 102.5t-185.5 34.5q-178 0 -327 -71v270q68 33 176 52.5t231 19.5q285 0 434.5 -108.5t149.5 -307.5v-598h-387v78q-49 -49 -135 -79t-191 -30q-188 0 -301.5 87t-113.5 249zM293 1382h262 q0 -109 111 -108q111 0 110 108h260q0 -147 -102.5 -233t-267.5 -86q-166 0 -269.5 86t-103.5 233zM369 1698h338l106 -275h-293zM403 305q0 -45 31 -71.5t88 -26.5q56 0 103 20.5t71 53.5v75q-76 49 -172 50q-57 0 -89 -27t-32 -74z" />
<glyph unicode="&#x1eb2;" horiz-adv-x="1634" d="M41 0l573 1432h408l571 -1432h-434l-106 272h-469l-109 -272h-434zM446 1837h263q0 -109 110 -108q111 0 111 108h260q0 -147 -102.5 -233t-268.5 -86t-269.5 86t-103.5 233zM651 2042v131q33 10 88.5 17.5t100.5 7.5q115 0 174 -41t59 -113q0 -104 -121 -137v-41h-252 v96q100 0 101 49q0 43 -80 43q-49 0 -70 -12zM680 594h274l-137 401z" />
<glyph unicode="&#x1eb3;" horiz-adv-x="1241" d="M-20 305q0 166 110.5 253t321.5 87q76 0 153.5 -16.5t130.5 -40.5v18q0 68 -66.5 102.5t-185.5 34.5q-178 0 -327 -71v270q68 33 176 52.5t231 19.5q285 0 434.5 -108.5t149.5 -307.5v-598h-387v78q-49 -49 -135 -79t-191 -30q-188 0 -301.5 87t-113.5 249zM287 1382h262 q0 -109 110 -108q111 0 111 108h260q0 -147 -102.5 -233t-268.5 -86q-165 0 -268.5 86t-103.5 233zM403 305q0 -45 31 -71.5t88 -26.5q56 0 103 20.5t71 53.5v75q-76 49 -172 50q-57 0 -89 -27t-32 -74zM492 1587v131q33 10 88 17.5t100 7.5q115 0 174 -41t59 -113 q0 -104 -120 -137v-41h-252v96q100 0 100 49q0 43 -80 43q-49 0 -69 -12z" />
<glyph unicode="&#x1eb4;" horiz-adv-x="1634" d="M41 0l573 1432h408l571 -1432h-434l-106 272h-469l-109 -272h-434zM446 1837h263q0 -109 110 -108q111 0 111 108h260q0 -147 -102.5 -233t-268.5 -86t-269.5 86t-103.5 233zM477 1886v219q59 68 174 68q61 0 170 -43q55 -20 92 -30.5t72 -10.5q104 0 174 82v-221 q-57 -66 -174 -66q-41 0 -79 10.5t-99 32.5q-55 20 -88 30.5t-68 10.5q-104 0 -174 -82zM680 594h274l-137 401z" />
<glyph unicode="&#x1eb5;" horiz-adv-x="1241" d="M-20 305q0 166 110.5 253t321.5 87q76 0 153.5 -16.5t130.5 -40.5v18q0 68 -66.5 102.5t-185.5 34.5q-178 0 -327 -71v270q68 33 176 52.5t231 19.5q285 0 434.5 -108.5t149.5 -307.5v-598h-387v78q-49 -49 -135 -79t-191 -30q-188 0 -301.5 87t-113.5 249zM293 1384h262 q0 -109 111 -108q111 0 110 108h260q0 -147 -102.5 -233t-267.5 -86q-166 0 -269.5 86t-103.5 233zM324 1434v219q59 68 174 67q61 0 170 -43q55 -20 92 -30.5t71 -10.5q104 0 175 82v-221q-57 -66 -175 -65q-40 0 -78 10t-100 33q-55 20 -88 30.5t-67 10.5q-104 0 -174 -82 zM403 305q0 -45 31 -71.5t88 -26.5q56 0 103 20.5t71 53.5v75q-76 49 -172 50q-57 0 -89 -27t-32 -74z" />
<glyph unicode="&#x1eb6;" horiz-adv-x="1634" d="M41 0l573 1432h408l571 -1432h-434l-106 272h-469l-109 -272h-434zM420 1894h305q0 -123 92 -122q92 0 92 122h305q0 -176 -103 -276t-294 -100q-190 0 -293.5 100t-103.5 276zM649 -262q0 70 50.5 119t119.5 49q70 0 118 -49.5t48 -118.5q0 -70 -48 -119t-118 -49 q-69 0 -119.5 49t-50.5 119zM680 594h274l-137 401z" />
<glyph unicode="&#x1eb7;" horiz-adv-x="1241" d="M-20 305q0 166 110.5 253t321.5 87q76 0 153.5 -16.5t130.5 -40.5v18q0 68 -66.5 102.5t-185.5 34.5q-178 0 -327 -71v270q68 33 176 52.5t231 19.5q285 0 434.5 -108.5t149.5 -307.5v-598h-387v78q-49 -49 -135 -79t-191 -30q-188 0 -301.5 87t-113.5 249zM254 1444h305 q0 -123 92 -123t92 123h306q0 -176 -103.5 -276.5t-294.5 -100.5q-190 0 -293.5 100.5t-103.5 276.5zM403 305q0 -45 31 -71.5t88 -26.5q56 0 103 20.5t71 53.5v75q-76 49 -172 50q-57 0 -89 -27t-32 -74zM481 -262q0 70 50.5 119t119.5 49q70 0 118 -49.5t48 -118.5 q0 -70 -48 -119t-118 -49q-69 0 -119.5 49t-50.5 119z" />
<glyph unicode="&#x1eb8;" horiz-adv-x="1140" d="M82 0v1432h1038v-357h-614v-196h442v-326h-442v-197h614v-356h-1038zM418 -262q0 70 50 119t120 49t118 -49.5t48 -118.5q0 -70 -48.5 -119t-117.5 -49q-70 0 -120 49t-50 119z" />
<glyph unicode="&#x1eb9;" horiz-adv-x="1228" d="M41 487q0 244 149.5 385.5t430.5 141.5q180 0 308 -66.5t193.5 -183.5t65.5 -262v-133h-758q49 -131 297 -131q98 0 201.5 15t175.5 44v-256q-78 -33 -194.5 -52.5t-239.5 -19.5q-297 0 -463 135.5t-166 382.5zM430 606h371q-10 66 -57.5 101.5t-129.5 35.5t-128 -36.5 t-56 -100.5zM489 -262q0 70 50.5 119t119.5 49q70 0 118 -49.5t48 -118.5q0 -70 -48 -119t-118 -49q-69 0 -119.5 49t-50.5 119z" />
<glyph unicode="&#x1eba;" horiz-adv-x="1140" d="M82 0v1432h1038v-357h-614v-196h442v-326h-442v-197h614v-356h-1038zM328 1794v172q115 37 266 37q168 0 256 -61.5t88 -163.5q0 -76 -50 -128.5t-149 -68.5v-61h-340v147q182 0 183 80q0 68 -127 68q-35 0 -72 -6.5t-55 -14.5z" />
<glyph unicode="&#x1ebb;" horiz-adv-x="1228" d="M41 487q0 244 149.5 385.5t430.5 141.5q180 0 308 -66.5t193.5 -183.5t65.5 -262v-133h-758q49 -131 297 -131q98 0 201.5 15t175.5 44v-256q-78 -33 -194.5 -52.5t-239.5 -19.5q-297 0 -463 135.5t-166 382.5zM362 1341v172q115 37 267 37q168 0 256 -61.5t88 -163.5 q0 -76 -50.5 -128t-148.5 -69v-61h-340v147q182 0 182 80q0 68 -127 68q-35 0 -71.5 -6t-55.5 -15zM430 606h371q-10 66 -57.5 101.5t-129.5 35.5t-128 -36.5t-56 -100.5z" />
<glyph unicode="&#x1ebc;" horiz-adv-x="1140" d="M82 0v1432h1038v-357h-614v-196h442v-326h-442v-197h614v-356h-1038zM205 1520v288q72 84 219 84q45 0 91 -12t120 -39q63 -25 109.5 -38t91.5 -13q133 0 219 100v-286q-70 -84 -219 -84q-51 0 -101.5 13t-118.5 40q-68 25 -108.5 37t-83.5 12q-131 0 -219 -102z" />
<glyph unicode="&#x1ebd;" horiz-adv-x="1228" d="M41 487q0 244 149.5 385.5t430.5 141.5q180 0 308 -66.5t193.5 -183.5t65.5 -262v-133h-758q49 -131 297 -131q98 0 201.5 15t175.5 44v-256q-78 -33 -194.5 -52.5t-239.5 -19.5q-297 0 -463 135.5t-166 382.5zM225 1067v289q72 84 219 84q45 0 91.5 -12.5t119.5 -38.5 q63 -25 109.5 -38.5t91.5 -13.5q133 0 219 101v-287q-70 -84 -219 -84q-51 0 -101 13.5t-118 39.5q-68 25 -109 37t-84 12q-131 0 -219 -102zM430 606h371q-10 66 -57.5 101.5t-129.5 35.5t-128 -36.5t-56 -100.5z" />
<glyph unicode="&#x1ebe;" horiz-adv-x="1140" d="M82 0v1432h1038v-357h-614v-196h442v-326h-442v-197h614v-356h-1038zM147 1518l324 325h272l326 -325h-336l-125 139l-125 -139h-336zM885 1772l119 294h335l-168 -294h-286z" />
<glyph unicode="&#x1ebf;" horiz-adv-x="1198" d="M41 487q0 244 149.5 385.5t430.5 141.5q180 0 308 -66.5t193.5 -183.5t65.5 -262v-133h-758q49 -131 297 -131q98 0 201.5 15t175.5 44v-256q-78 -33 -194.5 -52.5t-239.5 -19.5q-297 0 -463 135.5t-166 382.5zM172 1067l324 326h272l326 -326h-336l-125 139l-125 -139 h-336zM430 606h371q-10 66 -57.5 101.5t-129.5 35.5t-128 -36.5t-56 -100.5zM909 1321l119 295h336l-168 -295h-287z" />
<glyph unicode="&#x1ec0;" horiz-adv-x="1140" d="M-113 2066h336l119 -294h-287zM82 0v1432h1038v-357h-614v-196h442v-326h-442v-197h614v-356h-1038zM158 1518l325 325h273l323 -325h-336l-125 139l-124 -139h-336z" />
<glyph unicode="&#x1ec1;" horiz-adv-x="1167" d="M-152 1616h336l119 -295h-287zM-20 487q0 244 149.5 385.5t429.5 141.5q180 0 308 -66.5t193.5 -183.5t65.5 -262v-133h-757q49 -131 297 -131q98 0 201.5 15t174.5 44v-256q-78 -33 -194.5 -52.5t-239.5 -19.5q-297 0 -462.5 135.5t-165.5 382.5zM119 1067l325 326h273 l323 -326h-335l-125 139l-125 -139h-336zM369 606h370q-10 66 -57 101.5t-129 35.5t-128 -36.5t-56 -100.5z" />
<glyph unicode="&#x1ec2;" horiz-adv-x="1146" d="M82 0v1432h1038v-357h-614v-196h442v-326h-442v-197h614v-356h-1038zM131 1518l324 325h272l326 -325h-336l-125 139l-125 -139h-336zM807 1933v131q37 10 92 17.5t98 7.5q113 0 173.5 -41t60.5 -113q0 -49 -32 -83.5t-91 -51.5v-51h-250v104q100 0 100 50q0 43 -79 43 q-45 0 -72 -13z" />
<glyph unicode="&#x1ec3;" horiz-adv-x="1255" d="M41 487q0 244 149.5 385.5t430.5 141.5q180 0 308 -66.5t193.5 -183.5t65.5 -262v-133h-758q49 -131 297 -131q98 0 201.5 15t175.5 44v-256q-78 -33 -194.5 -52.5t-239.5 -19.5q-297 0 -463 135.5t-166 382.5zM156 1081l323 326h273l325 -326h-336l-125 140l-124 -140 h-336zM430 606h371q-10 66 -57.5 101.5t-129.5 35.5t-128 -36.5t-56 -100.5zM831 1497v131q37 10 92.5 17.5t98.5 7.5q113 0 173 -41t60 -113q0 -49 -31.5 -84t-90.5 -51v-51h-250v104q100 0 100 49q0 43 -80 43q-43 0 -72 -12z" />
<glyph unicode="&#x1ec4;" horiz-adv-x="1140" d="M82 0v1432h1038v-357h-614v-196h442v-326h-442v-197h614v-356h-1038zM143 1518l324 325h272l326 -325h-336l-125 139l-125 -139h-336zM283 1868v219q59 68 174 67q37 0 74.5 -11t95.5 -32q55 -20 91 -30t70 -10q106 0 177 81v-221q-57 -66 -177 -65q-38 0 -76 10t-100 33 q-55 20 -87.5 30.5t-67.5 10.5q-104 0 -174 -82z" />
<glyph unicode="&#x1ec5;" horiz-adv-x="1228" d="M41 487q0 244 149.5 385.5t430.5 141.5q180 0 308 -66.5t193.5 -183.5t65.5 -262v-133h-758q49 -131 297 -131q98 0 201.5 15t175.5 44v-256q-78 -33 -194.5 -52.5t-239.5 -19.5q-297 0 -463 135.5t-166 382.5zM174 1067l324 326h272l326 -326h-336l-125 139l-125 -139 h-336zM313 1417v219q59 68 174 68q37 0 75 -11.5t95 -31.5q55 -20 91 -30.5t71 -10.5q106 0 176 82v-221q-57 -66 -176 -66q-39 0 -76.5 10.5t-99.5 32.5q-55 20 -88 30.5t-68 10.5q-104 0 -174 -82zM430 606h371q-10 66 -57.5 101.5t-129.5 35.5t-128 -36.5t-56 -100.5z " />
<glyph unicode="&#x1ec6;" horiz-adv-x="1140" d="M82 0v1432h1038v-357h-614v-196h442v-326h-442v-197h614v-356h-1038zM145 1532l304 352h337l304 -352h-353l-119 145l-118 -145h-355zM451 -262q0 70 50 119t120 49t117.5 -49.5t47.5 -118.5q0 -70 -48 -119t-117 -49q-70 0 -120 49t-50 119z" />
<glyph unicode="&#x1ec7;" horiz-adv-x="1257" d="M70 487q0 244 149.5 385.5t429.5 141.5q180 0 308 -66.5t194 -183.5t66 -262v-133h-758q49 -131 297 -131q98 0 201.5 15t175.5 44v-256q-78 -33 -195 -52.5t-240 -19.5q-297 0 -462.5 135.5t-165.5 382.5zM186 1081l303 353h338l303 -353h-352l-119 146l-118 -146h-355z M459 606h370q-10 66 -57 101.5t-129 35.5t-128 -36.5t-56 -100.5zM492 -262q0 70 50 119t120 49t117.5 -49.5t47.5 -118.5q0 -70 -48 -119t-117 -49q-70 0 -120 49t-50 119z" />
<glyph unicode="&#x1ec8;" horiz-adv-x="587" d="M51 1794v172q115 37 266 37q168 0 256.5 -61.5t88.5 -163.5q0 -76 -50.5 -128.5t-148.5 -68.5v-61h-340v147q182 0 182 80q0 68 -127 68q-35 0 -71.5 -6.5t-55.5 -14.5zM82 0v1432h424v-1432h-424z" />
<glyph unicode="&#x1ec9;" horiz-adv-x="573" d="M39 1341v172q115 37 266 37q168 0 256 -61.5t88 -163.5q0 -76 -50 -128t-148 -69v-61h-340v147q182 0 182 80q0 68 -127 68q-35 0 -72 -6t-55 -15zM82 0v983h410v-983h-410z" />
<glyph unicode="&#x1eca;" horiz-adv-x="587" d="M82 0v1432h424v-1432h-424zM125 -262q0 70 50 119t120 49t118 -49.5t48 -118.5q0 -70 -48 -119t-118 -49t-120 49t-50 119z" />
<glyph unicode="&#x1ecb;" horiz-adv-x="593" d="M82 1305q0 90 61.5 150.5t153.5 60.5q90 0 152.5 -61.5t62.5 -149.5q0 -90 -62.5 -150.5t-152.5 -60.5q-92 0 -153.5 59t-61.5 152zM92 0v983h410v-983h-410zM131 -262q0 70 50 119t120 49t118 -49.5t48 -118.5q0 -70 -48 -119t-118 -49t-120 49t-50 119z" />
<glyph unicode="&#x1ecc;" horiz-adv-x="1626" d="M41 715q0 219 101.5 389t278.5 264t394 94t392 -94t276.5 -264t101.5 -389t-101.5 -388t-276.5 -263.5t-392 -94.5t-394 94.5t-278.5 263.5t-101.5 388zM473 715q0 -106 45 -185t123 -121t174 -42q94 0 171 42t122 120.5t45 185.5q0 158 -96 252t-242 94 q-147 0 -244.5 -94.5t-97.5 -251.5zM645 -262q0 70 50 119t120 49t118 -49.5t48 -118.5q0 -70 -48 -119t-118 -49t-120 49t-50 119z" />
<glyph unicode="&#x1ecd;" horiz-adv-x="1325" d="M41 492q0 150 76 268.5t216 186t329 67.5q188 0 329.5 -67.5t217 -186.5t75.5 -268q0 -152 -75.5 -271t-217 -185.5t-329.5 -66.5q-189 0 -329 66.5t-216 185.5t-76 271zM461 492q0 -94 54 -149.5t147 -55.5q92 0 147 55t55 150q0 94 -55 148t-147 54t-146.5 -54 t-54.5 -148zM494 -262q0 70 50 119t120 49t117.5 -49.5t47.5 -118.5q0 -70 -48 -119t-117 -49q-70 0 -120 49t-50 119z" />
<glyph unicode="&#x1ece;" horiz-adv-x="1626" d="M41 715q0 219 101.5 389t278.5 264t394 94t392 -94t276.5 -264t101.5 -389t-101.5 -388t-276.5 -263.5t-392 -94.5t-394 94.5t-278.5 263.5t-101.5 388zM473 715q0 -106 45 -185t123 -121t174 -42q94 0 171 42t122 120.5t45 185.5q0 158 -96 252t-242 94 q-147 0 -244.5 -94.5t-97.5 -251.5zM537 1794v172q115 37 266 37q168 0 256 -61.5t88 -163.5q0 -76 -50 -128.5t-149 -68.5v-61h-340v147q182 0 183 80q0 68 -127 68q-35 0 -72 -6.5t-55 -14.5z" />
<glyph unicode="&#x1ecf;" horiz-adv-x="1325" d="M41 492q0 150 76 268.5t216 186t329 67.5q188 0 329.5 -67.5t217 -186.5t75.5 -268q0 -152 -75.5 -271t-217 -185.5t-329.5 -66.5q-189 0 -329 66.5t-216 185.5t-76 271zM422 1341v172q115 37 266 37q168 0 256 -61.5t88 -163.5q0 -76 -50 -128t-148 -69v-61h-340v147 q182 0 182 80q0 68 -127 68q-35 0 -72 -6t-55 -15zM461 492q0 -94 54 -149.5t147 -55.5q92 0 147 55t55 150q0 94 -55 148t-147 54t-146.5 -54t-54.5 -148z" />
<glyph unicode="&#x1ed0;" horiz-adv-x="1626" d="M41 715q0 219 101.5 389t278.5 264t394 94t392 -94t276.5 -264t101.5 -389t-101.5 -388t-276.5 -263.5t-392 -94.5t-394 94.5t-278.5 263.5t-101.5 388zM354 1518l324 325h272l326 -325h-336l-125 139l-125 -139h-336zM473 715q0 -106 45 -185t123 -121t174 -42 q94 0 171 42t122 120.5t45 185.5q0 158 -96 252t-242 94q-147 0 -244.5 -94.5t-97.5 -251.5zM1092 1772l118 294h336l-168 -294h-286z" />
<glyph unicode="&#x1ed1;" horiz-adv-x="1325" d="M41 492q0 150 76 268.5t216 186t329 67.5q188 0 329.5 -67.5t217 -186.5t75.5 -268q0 -152 -75.5 -271t-217 -185.5t-329.5 -66.5q-189 0 -329 66.5t-216 185.5t-76 271zM184 1067l324 326h272l326 -326h-336l-125 139l-125 -139h-336zM461 492q0 -94 54 -149.5 t147 -55.5q92 0 147 55t55 150q0 94 -55 148t-147 54t-146.5 -54t-54.5 -148zM922 1321l118 295h336l-168 -295h-286z" />
<glyph unicode="&#x1ed2;" horiz-adv-x="1626" d="M41 715q0 219 101.5 389t278.5 264t394 94t392 -94t276.5 -264t101.5 -389t-101.5 -388t-276.5 -263.5t-392 -94.5t-394 94.5t-278.5 263.5t-101.5 388zM78 2066h336l118 -294h-286zM348 1518l326 325h272l324 -325h-336l-125 139l-125 -139h-336zM473 715 q0 -106 45 -185t123 -121t174 -42q94 0 171 42t122 120.5t45 185.5q0 158 -96 252t-242 94q-147 0 -244.5 -94.5t-97.5 -251.5z" />
<glyph unicode="&#x1ed3;" horiz-adv-x="1325" d="M-61 1616h335l119 -295h-287zM41 492q0 150 76 268.5t216 186t329 67.5q188 0 329.5 -67.5t217 -186.5t75.5 -268q0 -152 -75.5 -271t-217 -185.5t-329.5 -66.5q-189 0 -329 66.5t-216 185.5t-76 271zM209 1067l326 326h272l323 -326h-335l-125 139l-125 -139h-336z M461 492q0 -94 54 -149.5t147 -55.5q92 0 147 55t55 150q0 94 -55 148t-147 54t-146.5 -54t-54.5 -148z" />
<glyph unicode="&#x1ed4;" horiz-adv-x="1626" d="M41 715q0 219 101.5 389t278.5 264t394 94t392 -94t276.5 -264t101.5 -389t-101.5 -388t-276.5 -263.5t-392 -94.5t-394 94.5t-278.5 263.5t-101.5 388zM381 1518l324 325h272l326 -325h-336l-125 139l-125 -139h-336zM473 715q0 -106 45 -185t123 -121t174 -42 q94 0 171 42t122 120.5t45 185.5q0 158 -96 252t-242 94q-147 0 -244.5 -94.5t-97.5 -251.5zM1057 1933v131q37 10 92 17.5t98 7.5q113 0 173.5 -41t60.5 -113q0 -49 -32 -83.5t-91 -51.5v-51h-250v104q100 0 100 50q0 43 -80 43q-45 0 -71 -13z" />
<glyph unicode="&#x1ed5;" horiz-adv-x="1329" d="M41 492q0 150 76 268.5t216 186t329 67.5q188 0 329.5 -67.5t217 -186.5t75.5 -268q0 -152 -75.5 -271t-217 -185.5t-329.5 -66.5q-189 0 -329 66.5t-216 185.5t-76 271zM213 1067l324 326h272l326 -326h-336l-125 139l-125 -139h-336zM461 492q0 -94 54 -149.5 t147 -55.5q92 0 147 55t55 150q0 94 -55 148t-147 54t-146.5 -54t-54.5 -148zM889 1483v131q37 10 92 17t98 7q113 0 173.5 -41t60.5 -112q0 -49 -32 -84t-91 -51v-52h-250v105q100 0 100 49q0 43 -79 43q-43 0 -72 -12z" />
<glyph unicode="&#x1ed6;" horiz-adv-x="1626" d="M41 715q0 219 101.5 389t278.5 264t394 94t392 -94t276.5 -264t101.5 -389t-101.5 -388t-276.5 -263.5t-392 -94.5t-394 94.5t-278.5 263.5t-101.5 388zM442 1837h263q0 -109 110 -108q111 0 111 108h260q0 -147 -102.5 -233t-268.5 -86t-269.5 86t-103.5 233zM473 715 q0 -106 45 -185t123 -121t174 -42q94 0 171 42t122 120.5t45 185.5q0 158 -96 252t-242 94q-147 0 -244.5 -94.5t-97.5 -251.5zM473 1886v219q59 68 174 68q61 0 170 -43q55 -20 92 -30.5t72 -10.5q104 0 174 82v-221q-57 -66 -174 -66q-41 0 -79 10.5t-99 32.5 q-55 20 -88 30.5t-68 10.5q-104 0 -174 -82z" />
<glyph unicode="&#x1ed7;" horiz-adv-x="1325" d="M41 492q0 150 76 268.5t216 186t329 67.5q188 0 329.5 -67.5t217 -186.5t75.5 -268q0 -152 -75.5 -271t-217 -185.5t-329.5 -66.5q-189 0 -329 66.5t-216 185.5t-76 271zM291 1384h262q0 -109 111 -108q111 0 110 108h260q0 -147 -102.5 -233t-267.5 -86 q-166 0 -269.5 86t-103.5 233zM322 1434v219q59 68 174 67q61 0 170 -43q55 -20 92 -30.5t71 -10.5q104 0 175 82v-221q-57 -66 -175 -65q-41 0 -78.5 10t-99.5 33q-55 20 -88 30.5t-67 10.5q-104 0 -174 -82zM461 492q0 -94 54 -149.5t147 -55.5q92 0 147 55t55 150 q0 94 -55 148t-147 54t-146.5 -54t-54.5 -148z" />
<glyph unicode="&#x1ed8;" horiz-adv-x="1626" d="M41 715q0 219 101.5 389t278.5 264t394 94t392 -94t276.5 -264t101.5 -389t-101.5 -388t-276.5 -263.5t-392 -94.5t-394 94.5t-278.5 263.5t-101.5 388zM342 1532l303 352h338l303 -352h-352l-119 145l-119 -145h-354zM473 715q0 -106 45 -185t123 -121t174 -42 q94 0 171 42t122 120.5t45 185.5q0 158 -96 252t-242 94q-147 0 -244.5 -94.5t-97.5 -251.5zM645 -262q0 70 50 119t120 49t118 -49.5t48 -118.5q0 -70 -48 -119t-118 -49t-120 49t-50 119z" />
<glyph unicode="&#x1ed9;" horiz-adv-x="1333" d="M49 492q0 150 76 268.5t216 186t329 67.5q188 0 329.5 -67.5t217 -186.5t75.5 -268q0 -152 -75.5 -271t-217 -185.5t-329.5 -66.5q-189 0 -329 66.5t-216 185.5t-76 271zM201 1081l303 353h338l303 -353h-352l-119 146l-119 -146h-354zM469 492q0 -94 54.5 -149.5 t146.5 -55.5t147 55t55 150q0 94 -55 148t-147 54t-146.5 -54t-54.5 -148zM506 -262q0 70 50 119t120 49t118 -49.5t48 -118.5q0 -70 -48.5 -119t-117.5 -49q-70 0 -120 49t-50 119z" />
<glyph unicode="&#x1eda;" horiz-adv-x="1857" d="M41 715q0 219 101.5 389t278.5 264t394 94q145 0 275.5 -44t230.5 -126q113 0 158 42t45 128v68h334v-94q0 -162 -87.5 -272.5t-246.5 -139.5q61 -145 61 -309q0 -219 -101.5 -388t-276.5 -263.5t-392 -94.5t-394 94.5t-278.5 263.5t-101.5 388zM479 715 q0 -158 95.5 -250t240.5 -92q143 0 237.5 92t94.5 250q0 156 -94.5 248t-237.5 92q-145 0 -240.5 -92.5t-95.5 -247.5zM649 1509l142 369h411l-190 -369h-363z" />
<glyph unicode="&#x1edb;" horiz-adv-x="1536" d="M41 492q0 150 76 268.5t216 186t329 67.5q240 0 405 -111q76 12 108.5 55t32.5 117v68h328v-94q0 -145 -71.5 -251t-204.5 -147q25 -76 24 -159q0 -152 -75.5 -271t-217 -185.5t-329.5 -66.5q-189 0 -329 66.5t-216 185.5t-76 271zM457 1059l141 368h412l-191 -368h-362z M461 492q0 -94 54 -149.5t147 -55.5q92 0 147 55t55 150q0 94 -55 148t-147 54t-146.5 -54t-54.5 -148z" />
<glyph unicode="&#x1edc;" horiz-adv-x="1857" d="M41 715q0 219 101.5 389t278.5 264t394 94q145 0 275.5 -44t230.5 -126q113 0 158 42t45 128v68h334v-94q0 -162 -87.5 -272.5t-246.5 -139.5q61 -145 61 -309q0 -219 -101.5 -388t-276.5 -263.5t-392 -94.5t-394 94.5t-278.5 263.5t-101.5 388zM438 1878h412l141 -369 h-362zM479 715q0 -158 95.5 -250t240.5 -92q143 0 237.5 92t94.5 250q0 156 -94.5 248t-237.5 92q-145 0 -240.5 -92.5t-95.5 -247.5z" />
<glyph unicode="&#x1edd;" horiz-adv-x="1536" d="M41 492q0 150 76 268.5t216 186t329 67.5q240 0 405 -111q76 12 108.5 55t32.5 117v68h328v-94q0 -145 -71.5 -251t-204.5 -147q25 -76 24 -159q0 -152 -75.5 -271t-217 -185.5t-329.5 -66.5q-189 0 -329 66.5t-216 185.5t-76 271zM281 1427h411l142 -368h-363zM461 492 q0 -94 54 -149.5t147 -55.5q92 0 147 55t55 150q0 94 -55 148t-147 54t-146.5 -54t-54.5 -148z" />
<glyph unicode="&#x1ede;" horiz-adv-x="1857" d="M41 715q0 219 101.5 389t278.5 264t394 94q145 0 275.5 -44t230.5 -126q113 0 158 42t45 128v68h334v-94q0 -162 -87.5 -272.5t-246.5 -139.5q61 -145 61 -309q0 -219 -101.5 -388t-276.5 -263.5t-392 -94.5t-394 94.5t-278.5 263.5t-101.5 388zM479 715 q0 -158 95.5 -250t240.5 -92q143 0 237.5 92t94.5 250q0 156 -94.5 248t-237.5 92q-145 0 -240.5 -92.5t-95.5 -247.5zM565 1794v172q115 37 266 37q168 0 256.5 -61.5t88.5 -163.5q0 -76 -50.5 -128.5t-148.5 -68.5v-61h-340v147q182 0 182 80q0 68 -127 68 q-35 0 -71.5 -6.5t-55.5 -14.5z" />
<glyph unicode="&#x1edf;" horiz-adv-x="1536" d="M41 492q0 150 76 268.5t216 186t329 67.5q240 0 405 -111q76 12 108.5 55t32.5 117v68h328v-94q0 -145 -71.5 -251t-204.5 -147q25 -76 24 -159q0 -152 -75.5 -271t-217 -185.5t-329.5 -66.5q-189 0 -329 66.5t-216 185.5t-76 271zM381 1341v172q115 37 266 37 q168 0 256 -61.5t88 -163.5q0 -76 -50 -128t-148 -69v-61h-340v147q182 0 182 80q0 68 -127 68q-35 0 -72 -6t-55 -15zM461 492q0 -94 54 -149.5t147 -55.5q92 0 147 55t55 150q0 94 -55 148t-147 54t-146.5 -54t-54.5 -148z" />
<glyph unicode="&#x1ee0;" horiz-adv-x="1857" d="M41 715q0 219 101.5 389t278.5 264t394 94q145 0 275.5 -44t230.5 -126q113 0 158 42t45 128v68h334v-94q0 -162 -87.5 -272.5t-246.5 -139.5q61 -145 61 -309q0 -219 -101.5 -388t-276.5 -263.5t-392 -94.5t-394 94.5t-278.5 263.5t-101.5 388zM424 1520v288 q72 84 219 84q45 0 91 -12t120 -39q63 -25 109.5 -38t91.5 -13q133 0 219 100v-286q-70 -84 -219 -84q-51 0 -101.5 13t-117.5 40q-68 25 -109 37t-84 12q-131 0 -219 -102zM479 715q0 -158 95.5 -250t240.5 -92q143 0 237.5 92t94.5 250q0 156 -94.5 248t-237.5 92 q-145 0 -240.5 -92.5t-95.5 -247.5z" />
<glyph unicode="&#x1ee1;" horiz-adv-x="1536" d="M41 492q0 150 76 268.5t216 186t329 67.5q240 0 405 -111q76 12 108.5 55t32.5 117v68h328v-94q0 -145 -71.5 -251t-204.5 -147q25 -76 24 -159q0 -152 -75.5 -271t-217 -185.5t-329.5 -66.5q-189 0 -329 66.5t-216 185.5t-76 271zM223 1073v289q72 84 219 84 q45 0 91.5 -12.5t119.5 -38.5q63 -25 109.5 -38.5t91.5 -13.5q133 0 219 101v-287q-70 -84 -219 -84q-51 0 -101.5 13.5t-117.5 39.5q-68 25 -109 37.5t-84 12.5q-131 0 -219 -103zM461 492q0 -94 54 -149.5t147 -55.5q92 0 147 55t55 150q0 94 -55 148t-147 54t-146.5 -54 t-54.5 -148z" />
<glyph unicode="&#x1ee2;" horiz-adv-x="1857" d="M41 715q0 219 101.5 389t278.5 264t394 94q145 0 275.5 -44t230.5 -126q113 0 158 42t45 128v68h334v-94q0 -162 -87.5 -272.5t-246.5 -139.5q61 -145 61 -309q0 -219 -101.5 -388t-276.5 -263.5t-392 -94.5t-394 94.5t-278.5 263.5t-101.5 388zM479 715 q0 -158 95.5 -250t240.5 -92q143 0 237.5 92t94.5 250q0 156 -94.5 248t-237.5 92q-145 0 -240.5 -92.5t-95.5 -247.5zM653 -262q0 70 50.5 119t119.5 49q70 0 118 -49.5t48 -118.5q0 -70 -48 -119t-118 -49q-69 0 -119.5 49t-50.5 119z" />
<glyph unicode="&#x1ee3;" horiz-adv-x="1536" d="M41 492q0 150 76 268.5t216 186t329 67.5q240 0 405 -111q76 12 108.5 55t32.5 117v68h328v-94q0 -145 -71.5 -251t-204.5 -147q25 -76 24 -159q0 -152 -75.5 -271t-217 -185.5t-329.5 -66.5q-189 0 -329 66.5t-216 185.5t-76 271zM461 492q0 -94 54 -149.5t147 -55.5 q92 0 147 55t55 150q0 94 -55 148t-147 54t-146.5 -54t-54.5 -148zM496 -262q0 70 50 119t120 49t117.5 -49.5t47.5 -118.5q0 -70 -48 -119t-117 -49q-70 0 -120 49t-50 119z" />
<glyph unicode="&#x1ee4;" horiz-adv-x="1482" d="M72 623v809h424v-805q0 -131 62.5 -199t182.5 -68q121 0 183.5 68t62.5 199v805h424v-809q0 -190 -72.5 -338t-222 -232t-375.5 -84q-225 0 -374.5 84t-222 231.5t-72.5 338.5zM573 -262q0 70 50.5 119t119.5 49q70 0 118 -49.5t48 -118.5q0 -70 -48 -119t-118 -49 q-69 0 -119.5 49t-50.5 119z" />
<glyph unicode="&#x1ee5;" horiz-adv-x="1288" d="M72 387v596h409v-547q0 -150 131 -149q59 0 106.5 28.5t76.5 81.5v586h411v-983h-397v94q-61 -61 -147.5 -93t-180.5 -32q-205 0 -307 115t-102 303zM477 -262q0 70 50.5 119t119.5 49q70 0 118 -49.5t48 -118.5q0 -70 -48 -119t-118 -49q-69 0 -119.5 49t-50.5 119z" />
<glyph unicode="&#x1ee6;" horiz-adv-x="1482" d="M72 623v809h424v-805q0 -131 62.5 -199t182.5 -68q121 0 183.5 68t62.5 199v805h424v-809q0 -190 -72.5 -338t-222 -232t-375.5 -84q-225 0 -374.5 84t-222 231.5t-72.5 338.5zM485 1794v172q115 37 267 37q168 0 256 -61.5t88 -163.5q0 -76 -50.5 -128.5t-148.5 -68.5 v-61h-340v147q182 0 182 80q0 68 -127 68q-35 0 -71.5 -6.5t-55.5 -14.5z" />
<glyph unicode="&#x1ee7;" horiz-adv-x="1288" d="M72 387v596h409v-547q0 -150 131 -149q59 0 106.5 28.5t76.5 81.5v586h411v-983h-397v94q-61 -61 -147.5 -93t-180.5 -32q-205 0 -307 115t-102 303zM385 1341v172q115 37 266 37q168 0 256 -61.5t88 -163.5q0 -76 -50 -128t-148 -69v-61h-340v147q182 0 182 80 q0 68 -127 68q-35 0 -72 -6t-55 -15z" />
<glyph unicode="&#x1ee8;" horiz-adv-x="1847" d="M82 600v832h379v-826q0 -145 69.5 -218t202.5 -73t202 73t69 218v826h380v-138q94 0 127 37t33 129v70h303v-92q0 -182 -112.5 -292t-350.5 -110v-436q0 -285 -163.5 -458t-487.5 -173q-323 0 -487 173t-164 458zM559 1509l141 369h412l-190 -369h-363z" />
<glyph unicode="&#x1ee9;" horiz-adv-x="1642" d="M72 387v596h409v-547q0 -150 131 -149q59 0 106.5 28.5t76.5 81.5v586h411v-76q78 6 105.5 44t27.5 122v70h303v-92q0 -176 -106 -285t-330 -117v-649h-397v94q-61 -61 -147.5 -93t-180.5 -32q-205 0 -307 115t-102 303zM440 1096l142 368h411l-190 -368h-363z" />
<glyph unicode="&#x1eea;" horiz-adv-x="1847" d="M82 600v832h379v-826q0 -145 69.5 -218t202.5 -73t202 73t69 218v826h380v-138q94 0 127 37t33 129v70h303v-92q0 -182 -112.5 -292t-350.5 -110v-436q0 -285 -163.5 -458t-487.5 -173q-323 0 -487 173t-164 458zM387 1878h412l141 -369h-362z" />
<glyph unicode="&#x1eeb;" horiz-adv-x="1642" d="M72 387v596h409v-547q0 -150 131 -149q59 0 106.5 28.5t76.5 81.5v586h411v-76q78 6 105.5 44t27.5 122v70h303v-92q0 -176 -106 -285t-330 -117v-649h-397v94q-61 -61 -147.5 -93t-180.5 -32q-205 0 -307 115t-102 303zM285 1464h411l142 -368h-363z" />
<glyph unicode="&#x1eec;" horiz-adv-x="1847" d="M82 600v832h379v-826q0 -145 69.5 -218t202.5 -73t202 73t69 218v826h380v-138q94 0 127 37t33 129v70h303v-92q0 -182 -112.5 -292t-350.5 -110v-436q0 -285 -163.5 -458t-487.5 -173q-323 0 -487 173t-164 458zM510 1794v172q115 37 266 37q168 0 256 -61.5t88 -163.5 q0 -76 -50 -128.5t-148 -68.5v-61h-340v147q182 0 182 80q0 68 -127 68q-35 0 -72 -6.5t-55 -14.5z" />
<glyph unicode="&#x1eed;" horiz-adv-x="1642" d="M72 387v596h409v-547q0 -150 131 -149q59 0 106.5 28.5t76.5 81.5v586h411v-76q78 6 105.5 44t27.5 122v70h303v-92q0 -176 -106 -285t-330 -117v-649h-397v94q-61 -61 -147.5 -93t-180.5 -32q-205 0 -307 115t-102 303zM385 1370v172q115 37 266 37q168 0 256 -61.5 t88 -163.5q0 -76 -50 -128t-148 -69v-61h-340v147q182 0 182 80q0 68 -127 68q-35 0 -72 -6.5t-55 -14.5z" />
<glyph unicode="&#x1eee;" horiz-adv-x="1847" d="M82 600v832h379v-826q0 -145 69.5 -218t202.5 -73t202 73t69 218v826h380v-138q94 0 127 37t33 129v70h303v-92q0 -182 -112.5 -292t-350.5 -110v-436q0 -285 -163.5 -458t-487.5 -173q-323 0 -487 173t-164 458zM369 1520v288q72 84 219 84q45 0 91 -12t120 -39 q63 -25 109 -38t91 -13q133 0 220 100v-286q-70 -84 -220 -84q-51 0 -101 13t-118 40q-68 25 -108.5 37t-83.5 12q-131 0 -219 -102z" />
<glyph unicode="&#x1eef;" horiz-adv-x="1642" d="M72 387v596h409v-547q0 -150 131 -149q59 0 106.5 28.5t76.5 81.5v586h411v-76q78 6 105.5 44t27.5 122v70h303v-92q0 -176 -106 -285t-330 -117v-649h-397v94q-61 -61 -147.5 -93t-180.5 -32q-205 0 -307 115t-102 303zM246 1096v288q72 84 219 84q45 0 91 -12t120 -39 q63 -25 109 -38t92 -13q133 0 219 100v-286q-70 -84 -219 -84q-51 0 -101.5 13t-118.5 40q-68 25 -108.5 37t-83.5 12q-131 0 -219 -102z" />
<glyph unicode="&#x1ef0;" horiz-adv-x="1847" d="M82 600v832h379v-826q0 -145 69.5 -218t202.5 -73t202 73t69 218v826h380v-138q94 0 127 37t33 129v70h303v-92q0 -182 -112.5 -292t-350.5 -110v-436q0 -285 -163.5 -458t-487.5 -173q-323 0 -487 173t-164 458zM588 -262q0 70 50 119t120 49t118 -49.5t48 -118.5 q0 -70 -48.5 -119t-117.5 -49q-70 0 -120 49t-50 119z" />
<glyph unicode="&#x1ef1;" horiz-adv-x="1642" d="M72 387v596h409v-547q0 -150 131 -149q59 0 106.5 28.5t76.5 81.5v586h411v-76q78 6 105.5 44t27.5 122v70h303v-92q0 -176 -106 -285t-330 -117v-649h-397v94q-61 -61 -147.5 -93t-180.5 -32q-205 0 -307 115t-102 303zM487 -262q0 70 50.5 119t119.5 49q70 0 118 -49.5 t48 -118.5q0 -70 -48 -119t-118 -49q-69 0 -119.5 49t-50.5 119z" />
<glyph unicode="&#x1ef2;" horiz-adv-x="1568" d="M41 1432h453l282 -494l301 494h451l-541 -887v-545h-424v545zM418 1878h411l142 -369h-363z" />
<glyph unicode="&#x1ef3;" horiz-adv-x="1314" d="M41 983h410l233 -600l219 600h412l-393 -1006q-78 -197 -197 -290t-307 -93q-72 0 -150 10.5t-114 28.5v304q63 -25 139 -25q66 0 100.5 27.5t55.5 83.5l18 47zM330 1427h411l142 -368h-363z" />
<glyph unicode="&#x1ef4;" horiz-adv-x="1568" d="M41 1432h453l282 -494l301 494h451l-541 -887v-545h-424v545zM621 -262q0 70 50 119t120 49t117.5 -49.5t47.5 -118.5q0 -70 -48 -119t-117 -49q-70 0 -120 49t-50 119z" />
<glyph unicode="&#x1ef5;" horiz-adv-x="1314" d="M41 983h410l233 -600l219 600h412l-393 -1006q-78 -197 -197 -290t-307 -93q-72 0 -150 10.5t-114 28.5v304q63 -25 139 -25q66 0 100.5 27.5t55.5 83.5l18 47zM948 -246q0 70 50.5 119t119.5 49q70 0 118 -49t48 -119t-48 -119t-118 -49q-69 0 -119.5 49.5t-50.5 118.5z " />
<glyph unicode="&#x1ef6;" horiz-adv-x="1568" d="M41 1432h453l282 -494l301 494h451l-541 -887v-545h-424v545zM532 1794v172q115 37 267 37q168 0 256 -61.5t88 -163.5q0 -76 -50.5 -128.5t-148.5 -68.5v-61h-340v147q182 0 182 80q0 68 -127 68q-35 0 -71.5 -6.5t-55.5 -14.5z" />
<glyph unicode="&#x1ef7;" horiz-adv-x="1314" d="M41 983h410l233 -600l219 600h412l-393 -1006q-78 -197 -197 -290t-307 -93q-72 0 -150 10.5t-114 28.5v304q63 -25 139 -25q66 0 100.5 27.5t55.5 83.5l18 47zM438 1341v172q115 37 267 37q168 0 256 -61.5t88 -163.5q0 -76 -50.5 -128t-148.5 -69v-61h-340v147 q182 0 182 80q0 68 -127 68q-35 0 -71.5 -6t-55.5 -15z" />
<glyph unicode="&#x1ef8;" horiz-adv-x="1568" d="M41 1432h453l282 -494l301 494h451l-541 -887v-545h-424v545zM352 1520v288q72 84 219 84q45 0 91.5 -12t119.5 -39q63 -25 109.5 -38t91.5 -13q133 0 219 100v-286q-70 -84 -219 -84q-51 0 -101.5 13t-117.5 40q-68 25 -109 37t-84 12q-131 0 -219 -102z" />
<glyph unicode="&#x1ef9;" horiz-adv-x="1314" d="M41 983h410l233 -600l219 600h412l-393 -1006q-78 -197 -197 -290t-307 -93q-72 0 -150 10.5t-114 28.5v304q63 -25 139 -25q66 0 100.5 27.5t55.5 83.5l18 47zM264 1067v289q72 84 219 84q45 0 91.5 -12.5t119.5 -38.5q63 -25 109.5 -38.5t91.5 -13.5q133 0 219 101 v-287q-70 -84 -219 -84q-51 0 -101.5 13.5t-117.5 39.5q-68 25 -109 37t-84 12q-131 0 -219 -102z" />
<glyph unicode="&#x2000;" horiz-adv-x="1130" />
<glyph unicode="&#x2001;" horiz-adv-x="2261" />
<glyph unicode="&#x2002;" horiz-adv-x="1130" />
<glyph unicode="&#x2003;" horiz-adv-x="2261" />
<glyph unicode="&#x2004;" horiz-adv-x="753" />
<glyph unicode="&#x2005;" horiz-adv-x="565" />
<glyph unicode="&#x2006;" horiz-adv-x="376" />
<glyph unicode="&#x2007;" />
<glyph unicode="&#x2008;" horiz-adv-x="282" />
<glyph unicode="&#x2009;" horiz-adv-x="452" />
<glyph unicode="&#x200a;" horiz-adv-x="125" />
<glyph unicode="&#x2010;" horiz-adv-x="880" d="M41 440v326h799v-326h-799z" />
<glyph unicode="&#x2011;" horiz-adv-x="835" d="M41 461v325h754v-325h-754z" />
<glyph unicode="&#x2012;" horiz-adv-x="1427" d="M41 440v326h1345v-326h-1345z" />
<glyph unicode="&#x2013;" horiz-adv-x="1363" d="M41 461v325h1282v-325h-1282z" />
<glyph unicode="&#x2014;" horiz-adv-x="1634" d="M41 461v325h1552v-325h-1552z" />
<glyph unicode="&#x2015;" horiz-adv-x="1984" d="M41 440v326h1903v-326h-1903z" />
<glyph unicode="&#x2018;" horiz-adv-x="591" d="M41 1049l172 413h338l-129 -413h-381z" />
<glyph unicode="&#x2019;" horiz-adv-x="600" d="M41 1049l129 413h389l-172 -413h-346z" />
<glyph unicode="&#x201a;" horiz-adv-x="600" d="M41 -268l129 413h389l-172 -413h-346z" />
<glyph unicode="&#x201c;" horiz-adv-x="1003" d="M41 1049l172 413h326l-129 -413h-369zM465 1049l172 413h326l-129 -413h-369z" />
<glyph unicode="&#x201d;" horiz-adv-x="1003" d="M41 1049l129 413h369l-172 -413h-326zM465 1049l129 413h369l-172 -413h-326z" />
<glyph unicode="&#x201e;" horiz-adv-x="1003" d="M41 -268l129 413h369l-172 -413h-326zM465 -268l129 413h369l-172 -413h-326z" />
<glyph unicode="&#x2020;" horiz-adv-x="1107" d="M41 748v356h301v328h424v-328h301v-356h-301v-891h-424v891h-301z" />
<glyph unicode="&#x2021;" horiz-adv-x="1087" d="M51 287v303h311v254h-311v305h311v283h363v-283h311v-305h-311v-254h311v-303h-311v-287h-363v287h-311z" />
<glyph unicode="&#x2022;" horiz-adv-x="526" d="M41 610q0 94 64.5 157.5t158.5 63.5t157.5 -63t63.5 -158q0 -94 -63.5 -158.5t-157.5 -64.5t-158.5 64.5t-64.5 158.5z" />
<glyph unicode="&#x2026;" horiz-adv-x="1189" d="M41 139q0 61 41 103.5t100 42.5t101.5 -42t42.5 -104q0 -57 -42 -98t-102 -41q-59 0 -100 40t-41 99zM453 139q0 61 41 103.5t100 42.5t101 -42t42 -104q0 -57 -42 -98t-101 -41t-100 40t-41 99zM864 139q0 61 41 103.5t101 42.5q59 0 101 -42t42 -104q0 -57 -42 -98 t-101 -41q-60 0 -101 40t-41 99z" />
<glyph unicode="&#x202f;" horiz-adv-x="452" />
<glyph unicode="&#x2030;" horiz-adv-x="2656" d="M41 1085q0 102 50 189.5t136 137.5t189 50q102 0 189 -50t137.5 -137t50.5 -190q0 -102 -50.5 -188t-137.5 -136t-189 -50q-103 0 -189 50t-136 136t-50 188zM287 1079q0 -55 36.5 -92t92.5 -37q55 0 92 37t37 92t-37 93t-92 38t-92 -37.5t-37 -93.5zM315 0l793 1432h418 l-793 -1432h-418zM1047 344q0 102 50 189.5t136 137.5t188 50t189.5 -50t137.5 -137.5t50 -189.5t-50 -188t-137 -136.5t-190 -50.5q-102 0 -188 50.5t-136 136.5t-50 188zM1292 338q0 -55 37 -92t92 -37q56 0 92.5 37t36.5 92t-36.5 93t-92.5 38q-55 0 -92 -38t-37 -93z M1864 344q0 102 50 189.5t136 137.5t188 50t189.5 -50t137.5 -137.5t50 -189.5t-50 -188t-137 -136.5t-190 -50.5q-102 0 -188 50.5t-136 136.5t-50 188zM2109 338q0 -55 37 -92t92 -37q56 0 92.5 37t36.5 92t-36.5 93t-92.5 38q-55 0 -92 -38t-37 -93z" />
<glyph unicode="&#x2032;" horiz-adv-x="387" d="M41 999v433h305v-433h-305z" />
<glyph unicode="&#x2033;" horiz-adv-x="768" d="M41 999v433h305v-433h-305zM422 999v433h305v-433h-305z" />
<glyph unicode="&#x2039;" horiz-adv-x="833" d="M41 627v82l514 473l238 -226l-318 -288l318 -289l-238 -225z" />
<glyph unicode="&#x203a;" horiz-adv-x="833" d="M41 379l317 289l-317 288l235 226l517 -473v-82l-517 -473z" />
<glyph unicode="&#x2044;" horiz-adv-x="552" d="M-328 -31l789 1493h420l-789 -1493h-420z" />
<glyph unicode="&#x205f;" horiz-adv-x="565" />
<glyph unicode="&#x2070;" horiz-adv-x="839" d="M41 1094q0 168 101.5 263t279.5 95q176 0 276.5 -95t100.5 -263t-101.5 -263.5t-275.5 -95.5q-178 0 -279.5 95.5t-101.5 263.5zM307 1092q0 -170 115 -170q53 0 81.5 43t28.5 127q0 174 -110 174q-115 0 -115 -174z" />
<glyph unicode="&#x2074;" horiz-adv-x="673" d="M0 866v181l291 385h293v-371h90v-195h-90v-108h-295v108h-289zM256 1061h125v160z" />
<glyph unicode="&#x2075;" horiz-adv-x="706" d="M41 788v189q45 -27 98.5 -42t106.5 -15q61 0 90 20.5t29 50.5q0 33 -29 51.5t-80 18.5q-78 0 -135 -23l-74 43l27 351h549v-187h-316l-4 -53q57 12 125 12q115 0 176.5 -58.5t61.5 -160.5q0 -119 -101.5 -183.5t-267.5 -64.5q-70 0 -140.5 14.5t-115.5 36.5z" />
<glyph unicode="&#x2076;" horiz-adv-x="747" d="M41 1061q0 184 107.5 287.5t285.5 103.5q49 0 101.5 -6t74.5 -16v-177q-23 12 -63.5 17.5t-79.5 5.5q-59 0 -104.5 -22.5t-59.5 -69.5q25 16 65 25.5t81 9.5q123 0 190.5 -60.5t67.5 -171.5q0 -109 -83 -179.5t-243 -70.5q-162 0 -251 87t-89 237zM295 977 q0 -35 21.5 -57.5t58.5 -22.5q39 0 59.5 21.5t20.5 58.5q0 39 -20.5 60.5t-59.5 21.5q-35 0 -57.5 -21.5t-22.5 -60.5z" />
<glyph unicode="&#x2077;" horiz-adv-x="636" d="M20 1204v228h596v-150l-237 -524h-293l207 446h-273z" />
<glyph unicode="&#x2078;" horiz-adv-x="772" d="M41 950q0 55 25.5 96t66.5 60q-70 49 -70 139q0 100 86.5 153.5t237.5 53.5q152 0 237 -53t85 -154q0 -90 -70 -139q41 -18 66.5 -59t25.5 -97q0 -100 -88 -156.5t-256 -56.5q-170 0 -258 56.5t-88 156.5zM307 971q0 -33 22.5 -54.5t57.5 -21.5q33 0 55.5 21.5t22.5 54.5 t-22.5 54.5t-55.5 21.5q-35 0 -57.5 -21.5t-22.5 -54.5zM317 1227q0 -29 20.5 -47.5t49.5 -18.5t48.5 18.5t19.5 47.5q0 27 -19.5 46t-48.5 19t-49.5 -19.5t-20.5 -45.5z" />
<glyph unicode="&#x2079;" horiz-adv-x="747" d="M41 1200q0 109 83 180.5t241 71.5q162 0 252 -87t90 -239q0 -184 -107.5 -286.5t-286.5 -102.5q-51 0 -102 5.5t-74 15.5v176q23 -12 64 -17.5t80 -5.5q59 0 104 23.5t57 71.5q-25 -18 -63.5 -27.5t-79.5 -9.5q-125 0 -191.5 60.5t-66.5 170.5zM291 1210 q0 -39 20.5 -60.5t59.5 -21.5q37 0 58.5 23t21.5 59q0 35 -21.5 57.5t-58.5 22.5q-39 0 -59.5 -21.5t-20.5 -58.5z" />
<glyph unicode="&#x207d;" horiz-adv-x="505" d="M41 1094q0 213 119 358h305q-121 -156 -121 -358q0 -203 121 -357h-305q-58 66 -88.5 158t-30.5 199z" />
<glyph unicode="&#x207e;" horiz-adv-x="505" d="M41 737q121 154 121 357t-121 358h305q119 -145 119 -358q0 -106 -31 -198.5t-88 -158.5h-305z" />
<glyph unicode="&#x207f;" horiz-adv-x="907" d="M51 737v695h287v-60q45 43 106.5 66.5t126.5 23.5q152 0 223.5 -75.5t71.5 -210.5v-439h-295v393q0 100 -94 101q-84 0 -131 -78v-416h-295z" />
<glyph unicode="&#x2080;" horiz-adv-x="839" d="M41 8q0 168 101.5 263.5t279.5 95.5q176 0 276.5 -95.5t100.5 -263.5t-101.5 -262t-275.5 -94q-178 0 -279.5 94t-101.5 262zM307 6q0 -170 115 -170q53 0 81.5 43t28.5 127q0 174 -110 174q-115 0 -115 -174z" />
<glyph unicode="&#x2081;" horiz-adv-x="477" d="M41 -43v260l174 129h262v-674h-295v385z" />
<glyph unicode="&#x2082;" horiz-adv-x="700" d="M41 -180q166 106 233.5 160.5t67.5 97.5q0 29 -20.5 41t-65.5 12q-53 0 -104.5 -17.5t-88.5 -47.5v233q43 29 123 47.5t156 18.5q147 0 225 -66t78 -162q0 -76 -46 -132t-159 -136h219v-199h-618v150z" />
<glyph unicode="&#x2083;" horiz-adv-x="706" d="M41 -121q92 -47 195 -47q111 0 110 55q0 29 -25.5 40.5t-89.5 11.5h-88v143h86q98 0 99 49q0 53 -97 53q-96 0 -180 -53v184q47 23 126 37.5t155 14.5q145 0 230 -56.5t85 -152.5q0 -90 -69 -148q88 -45 88 -147q0 -96 -88.5 -153.5t-249.5 -57.5q-82 0 -160 11t-127 34 v182z" />
<glyph unicode="&#x2084;" horiz-adv-x="673" d="M0 -39l291 385h293v-371h90v-194h-90v-109h-295v109h-289v180zM256 -25h125v160z" />
<glyph unicode="&#x2085;" horiz-adv-x="706" d="M41 -109q45 -27 98.5 -42t106.5 -15q61 0 88.5 19.5t27.5 52.5q0 68 -106 67q-74 0 -135 -20l-74 43l27 350h549v-186h-316l-4 -54q59 12 125 13q115 0 176.5 -58.5t61.5 -160.5q0 -119 -101.5 -183.5t-267.5 -64.5q-70 0 -140.5 14.5t-115.5 36.5v188z" />
<glyph unicode="&#x2086;" horiz-adv-x="747" d="M41 -25q0 184 107.5 288t285.5 104q49 0 101.5 -6.5t74.5 -16.5v-176q-23 12 -63.5 17t-79.5 5q-59 0 -104.5 -22.5t-59.5 -69.5q25 16 65 25.5t81 9.5q123 0 190.5 -60.5t67.5 -170.5q0 -109 -83 -179.5t-243 -70.5q-162 0 -251 87t-89 236zM295 -109q0 -35 21.5 -57 t58.5 -22q39 0 59.5 21.5t20.5 57.5q0 39 -20.5 60.5t-59.5 21.5q-35 0 -57.5 -22.5t-22.5 -59.5z" />
<glyph unicode="&#x2087;" horiz-adv-x="636" d="M20 119v227h596v-149l-237 -525h-293l207 447h-273z" />
<glyph unicode="&#x2088;" horiz-adv-x="772" d="M41 -135q0 55 25.5 96t66.5 59q-70 49 -70 140q0 100 86.5 153.5t237.5 53.5q152 0 237 -53.5t85 -153.5q0 -90 -70 -140q41 -18 66.5 -59t25.5 -96q0 -100 -88 -156.5t-256 -56.5q-170 0 -258 56t-88 157zM307 -115q0 -33 22.5 -54t57.5 -21q33 0 55.5 21.5t22.5 53.5 q0 33 -22.5 54.5t-55.5 21.5q-35 0 -57.5 -21.5t-22.5 -54.5zM317 141q0 -29 20.5 -47t49.5 -18t48.5 18.5t19.5 46.5q0 27 -19.5 46.5t-48.5 19.5t-49.5 -19.5t-20.5 -46.5z" />
<glyph unicode="&#x2089;" horiz-adv-x="747" d="M41 115q0 109 83 180.5t241 71.5q162 0 252 -87t90 -239q0 -184 -107.5 -286.5t-286.5 -102.5q-51 0 -102 5t-74 15v176q23 -12 64 -17t80 -5q59 0 104 23.5t57 70.5q-25 -18 -63.5 -27.5t-79.5 -9.5q-125 0 -191.5 60.5t-66.5 171.5zM291 125q0 -39 20.5 -60.5 t59.5 -21.5q37 0 58.5 22.5t21.5 59.5q0 35 -21.5 57.5t-58.5 22.5q-39 0 -59.5 -21.5t-20.5 -58.5z" />
<glyph unicode="&#x208d;" horiz-adv-x="505" d="M41 -12q0 213 119 358h305q-121 -156 -121 -358q0 -203 121 -357h-305q-58 66 -88.5 158t-30.5 199z" />
<glyph unicode="&#x208e;" horiz-adv-x="505" d="M41 346h305q119 -145 119 -358q0 -106 -31 -198.5t-88 -158.5h-305q121 154 121 357t-121 358z" />
<glyph unicode="&#x20a1;" horiz-adv-x="1376" d="M41 715q0 291 148.5 481t410.5 246l62 164h249l-53 -146q100 -4 168 -16l59 162h250l-86 -236l51 -29v-401q-90 70 -197.5 100.5t-252.5 30.5q-184 0 -280.5 -92t-96.5 -264t98.5 -265.5t278.5 -93.5q143 0 253.5 33t213.5 105v-400q-102 -63 -226 -94t-280 -31l-31 2 l-45 -125h-252l60 158q-96 29 -152 62l-80 -220h-252l140 377q-158 193 -158 492z" />
<glyph unicode="&#x20a4;" horiz-adv-x="989" d="M51 0v258h142v88h-136v240h136v98h-136v240h136v110q0 135 62 232.5t171 146.5t242 49q115 0 198 -37v-286q-61 29 -131 28q-84 0 -132 -42t-48 -121v-80h279v-240h-279v-98h279v-240h-279v-88h383v-258h-887z" />
<glyph unicode="&#x20a6;" horiz-adv-x="1495" d="M41 334v309h127v148h-127v325h127v316h397l344 -727v727h416v-316h129v-325h-129v-148h129v-309h-129v-334h-397l-342 727v-727h-418v334h-127z" />
<glyph unicode="&#x20a7;" horiz-adv-x="2983" d="M82 0v1432h567q242 0 390.5 -115t164.5 -334h90v295h412v-295h199v-276h-199v-283q0 -74 27.5 -105.5t93.5 -31.5q74 0 141 39q78 -47 198 -72t228 -25q59 0 86 7.5t27 29.5q0 20 -25.5 30.5t-95.5 29.5l-94 26q-125 37 -198 79t-106.5 102.5t-33.5 152.5q0 166 131 247 t358 81q109 0 235 -23.5t187 -62.5v-285q-63 41 -169.5 70.5t-194.5 29.5q-121 0 -121 -41q0 -20 29.5 -31.5t103.5 -27.5l86 -20q133 -35 204.5 -80t100.5 -105.5t29 -150.5q0 -145 -128 -231.5t-368 -86.5q-137 0 -262 16.5t-207 49.5q-51 -33 -119.5 -49.5t-167.5 -16.5 q-190 0 -288.5 106.5t-98.5 289.5v342h-127q-57 -139 -191 -210t-327 -71h-135v-426h-432zM514 754h64q96 0 144 37.5t48 136.5q0 102 -50 139t-153 37h-53v-350z" />
<glyph unicode="&#x20ab;" horiz-adv-x="1341" d="M41 489q0 154 64.5 274t183.5 185.5t274 65.5q94 0 177 -28t139 -75v162h-340v305h340v135h409v-135h23v-305h-23v-1073h-395v90q-61 -59 -146 -90t-184 -31q-155 0 -274 64.5t-183.5 182.5t-64.5 273zM180 -106h1061v-310h-1061v310zM465 489q0 -96 56.5 -149t152.5 -53 q69 0 123.5 32.5t81.5 90.5v161q-27 57 -81.5 90t-123.5 33q-96 0 -152.5 -54t-56.5 -151z" />
<glyph unicode="&#x20ac;" horiz-adv-x="1265" d="M20 453v200h99q-2 20 -2 62q0 43 2 63h-99v201h132q63 227 232 355t411 128q137 0 235 -26.5t199 -87.5v-392q-88 68 -177 96.5t-204 28.5q-170 0 -240 -102h246v-201h-303q-2 -20 -2 -63t2 -62h303v-200h-248q70 -106 242 -107q115 0 206 31t191 102v-389 q-100 -66 -201.5 -93.5t-248.5 -27.5q-242 0 -411 127t-234 357h-130z" />
<glyph unicode="&#x20b1;" horiz-adv-x="1343" d="M0 623v239h92v139h-92v242h92v189h621q152 0 270.5 -48.5t192.5 -140.5h167v-242h-73q6 -39 6 -79q0 -23 -4 -60h71v-239h-151q-70 -104 -192.5 -158.5t-286.5 -54.5h-197v-410h-424v623h-92zM516 745h131q96 0 150.5 39t54.5 138q0 98 -53.5 136t-151.5 38h-131v-351z " />
<glyph unicode="&#x20b2;" horiz-adv-x="1413" d="M51 715q0 295 159 487.5t435 243.5v196h248v-182q131 -4 237.5 -33.5t198.5 -89.5v-344q-86 68 -193.5 99.5t-242.5 35.5v-313h479v-713q-199 -119 -479 -131v-182h-248v197q-276 49 -435 241.5t-159 487.5zM424 715q0 -137 57.5 -235.5t163.5 -145.5v747 q-104 -51 -162.5 -145t-58.5 -221zM893 295q76 6 135 37v229h-135v-266z" />
<glyph unicode="&#x20b5;" horiz-adv-x="1384" d="M41 715q0 211 83 371.5t237.5 256t365.5 113.5v186h295v-194q168 -25 305 -107v-401q-129 96 -305 121v-694q180 27 321 127v-400q-139 -86 -321 -110v-195h-295v186q-211 16 -365.5 110.5t-237.5 255.5t-83 374zM473 715q0 -135 66.5 -223.5t187.5 -118.5v682 q-123 -31 -188.5 -118t-65.5 -222z" />
<glyph unicode="&#x20b9;" horiz-adv-x="1034" d="M41 428v272h278q106 0 142 84h-420v279h420q-39 86 -137 86h-283v283h952v-283h-157q27 -33 36 -86h121v-279h-121q-31 -133 -134 -223t-265 -123l256 -438h-442z" />
<glyph unicode="&#x20ba;" horiz-adv-x="1310" d="M51 543v237l152 47v95l-152 -50v238l152 49v273h379v-148l286 96v-237l-286 -96v-95l286 97v-238l-286 -96v-424q160 16 230.5 91t70.5 220v66h366v-74q0 -176 -90 -310t-252 -209t-368 -75h-336v590z" />
<glyph unicode="&#x20bd;" horiz-adv-x="1411" d="M51 133v260h111v86h-111v305h111v648h631q250 0 394 -120t144 -351q0 -236 -144.5 -359t-395.5 -123h-267v-86h205v-260h-205v-133h-362v133h-111zM524 784h201q113 0 173 36t60 141q0 92 -61 128.5t-172 36.5h-201v-342z" />
<glyph unicode="&#x210a;" horiz-adv-x="1370" d="M41 492q0 156 64.5 274.5t183.5 183t274 64.5q96 0 182 -32t148 -89v90h395v-911q0 -258 -161.5 -400.5t-503.5 -142.5q-97 0 -198 18.5t-175 49.5v272q162 -70 373 -70q133 0 194.5 54.5t61.5 158.5v58q-55 -45 -138.5 -73t-175.5 -28q-156 0 -275.5 65.5t-184 184.5 t-64.5 273zM465 494q0 -98 56.5 -152.5t152.5 -54.5q69 0 123.5 33.5t81.5 91.5v159q-27 57 -81.5 90t-123.5 33q-96 0 -152.5 -53t-56.5 -147z" />
<glyph unicode="&#x2113;" horiz-adv-x="952" d="M0 489v328q90 23 127 45v314q0 164 104.5 262t284.5 98q193 0 291 -106.5t98 -268.5q0 -180 -109.5 -308t-303.5 -208v-301q0 -53 17 -76.5t52 -23.5q39 0 55.5 28.5t16.5 89.5h319q0 -172 -97 -282.5t-320 -110.5q-193 0 -300.5 99.5t-107.5 259.5v207q-49 -20 -127 -46 zM461 971q69 30 99 71t30 103q0 88 -64 88q-31 0 -48 -20.5t-17 -61.5v-180z" />
<glyph unicode="&#x2117;" horiz-adv-x="1613" d="M41 715q0 219 102.5 389t278.5 264t385 94t385 -94t278.5 -264t102.5 -389q0 -217 -102.5 -387t-278.5 -264.5t-385 -94.5t-385 94.5t-278.5 264.5t-102.5 387zM301 715q0 -160 64.5 -274.5t179 -173t262.5 -58.5q147 0 262 58.5t179.5 173t64.5 274.5t-64.5 273.5 t-178.5 172t-263 58.5q-150 0 -263.5 -58.5t-178 -172.5t-64.5 -273zM516 311v797h404q141 0 226 -75t85 -212q0 -139 -85 -214t-226 -75h-142v-221h-262zM778 735h103q102 0 102 86q0 84 -102 84h-103v-170z" />
<glyph unicode="&#x2120;" horiz-adv-x="1619" d="M41 1229q0 113 90 169t246 56q78 0 165 -17.5t128 -43.5v-195q-43 29 -117 49.5t-133 20.5q-84 0 -84 -29q0 -14 19.5 -22.5t68.5 -18.5q-6 2 61 -16q135 -37 184.5 -87.5t49.5 -144.5q0 -100 -90 -159.5t-256 -59.5q-86 0 -177.5 16.5t-144.5 47.5v198q57 -35 141 -58.5 t154 -23.5q39 0 58.5 5.5t19.5 19.5t-15.5 21.5t-66.5 21.5l-68 18q-129 39 -181 88.5t-52 143.5zM758 750v682h239l170 -326l172 326h240v-682h-238v245l-131 -245h-88l-129 245v-245h-235z" />
<glyph unicode="&#x2122;" horiz-adv-x="1579" d="M41 1198v234h637v-234h-184v-448h-269v448h-184zM717 750v682h239l170 -326l172 326h240v-682h-238v245l-131 -245h-88l-129 245v-245h-235z" />
<glyph unicode="&#x2126;" horiz-adv-x="1636" d="M41 0v350h190q-90 80 -139 190.5t-49 247.5q0 203 95 355.5t271.5 235.5t407.5 83q233 0 408.5 -83t271.5 -235.5t96 -355.5q0 -137 -49 -247.5t-139 -190.5h190v-350h-706v311q135 78 203.5 178.5t68.5 231.5q0 158 -94 250t-250 92t-249 -92t-93 -250 q0 -131 68.5 -231.5t204.5 -178.5v-311h-707z" />
<glyph unicode="&#x212e;" horiz-adv-x="1560" d="M41 700q0 229 101.5 395.5t269.5 251.5t368 85q197 0 366 -89.5t271.5 -248t102.5 -357.5v-37h-1176v-464q61 -80 188 -132.5t275 -52.5q201 0 338 61.5t237 215.5l72 -35q-119 -184 -273.5 -254t-373.5 -70q-225 0 -399.5 96.5t-270.5 263.5t-96 371zM344 788h875v400 q-66 72 -180.5 117t-260.5 45q-268 0 -434 -160v-402z" />
<glyph unicode="&#x2153;" horiz-adv-x="1693" d="M41 1042v261l174 129h262v-674h-295v385zM193 0l792 1432h418l-793 -1432h-417zM1028 16v183q45 -23 96.5 -35t96.5 -12q113 0 112 57q0 29 -25.5 39t-88.5 10h-89v145h84q51 0 76 11.5t25 38.5q0 51 -96 51t-181 -53v186q47 23 126 36t155 13q145 0 230 -56.5t85 -152.5 q0 -90 -69 -147q88 -43 88 -148q0 -96 -89 -153.5t-249 -57.5q-82 0 -160 11.5t-127 33.5z" />
<glyph unicode="&#x2154;" horiz-adv-x="1820" d="M41 758v147q166 106 233.5 160.5t67.5 97.5q0 29 -20.5 42.5t-65.5 13.5q-51 0 -102.5 -18.5t-90.5 -49.5v235q43 29 123 47.5t156 18.5q147 0 225 -66.5t78 -160.5q0 -78 -46 -134.5t-159 -136.5h219v-196h-618zM319 0l793 1432h418l-793 -1432h-418zM1155 16v183 q45 -23 96.5 -35t96.5 -12q113 0 112 57q0 29 -25.5 39t-88.5 10h-89v145h84q51 0 76 11.5t25 38.5q0 51 -96 51q-98 0 -181 -53v186q47 23 126 36t155 13q145 0 230 -56.5t85 -152.5q0 -90 -69 -147q88 -43 88 -148q0 -96 -89 -153.5t-249 -57.5q-82 0 -160 11.5t-127 33.5 z" />
<glyph unicode="&#x215b;" horiz-adv-x="1703" d="M41 1042v261l174 129h262v-674h-295v385zM193 0l792 1432h418l-793 -1432h-417zM973 201q0 55 25.5 96t66.5 59q-70 49 -70 138q0 102 85 154t237 52q154 0 238.5 -52t84.5 -154q0 -88 -69 -138q41 -18 66.5 -59t25.5 -96q0 -100 -89 -157.5t-257 -57.5t-256 57t-88 158z M1237 219q0 -31 23.5 -52.5t56.5 -21.5q35 0 57.5 21.5t22.5 52.5q0 35 -22.5 56.5t-57.5 21.5t-57.5 -22.5t-22.5 -55.5zM1249 477q0 -29 19.5 -48t48.5 -19t49 19.5t20 47.5q0 27 -20 46.5t-49 19.5t-48.5 -19.5t-19.5 -46.5z" />
<glyph unicode="&#x215c;" horiz-adv-x="1763" d="M41 774v182q92 -47 195 -47q111 0 110 58q0 29 -25.5 39t-89.5 10h-88v145h86q98 0 99 49q0 51 -97 52q-96 0 -180 -54v187q47 23 126 36t155 13q145 0 230 -56.5t85 -152.5q0 -90 -69 -148q88 -43 88 -147q0 -96 -88.5 -153.5t-249.5 -57.5q-82 0 -160 11.5t-127 33.5z M252 0l792 1432h420l-792 -1432h-420zM1032 201q0 55 25.5 96t66.5 59q-70 49 -69 138q0 102 85 154t238 52q152 0 237 -52t85 -154q0 -88 -70 -138q41 -18 66.5 -59t25.5 -96q0 -100 -88 -157.5t-256 -57.5t-257 57t-89 158zM1298 219q0 -31 22.5 -52.5t57.5 -21.5 q33 0 55.5 21.5t22.5 52.5q0 35 -21.5 56.5t-56.5 21.5t-57.5 -21.5t-22.5 -56.5zM1309 477q0 -29 20.5 -48t48.5 -19q29 0 48.5 19.5t19.5 47.5q0 27 -19.5 46.5t-48.5 19.5t-49 -19.5t-20 -46.5z" />
<glyph unicode="&#x215d;" horiz-adv-x="1740" d="M41 788v189q45 -27 98.5 -42t106.5 -15q61 0 90 20.5t29 50.5q0 33 -29 51.5t-80 18.5q-78 0 -135 -23l-74 43l27 351h549v-187h-316l-4 -53q57 12 125 12q115 0 176.5 -58.5t61.5 -160.5q0 -119 -101.5 -183.5t-267.5 -64.5q-70 0 -140.5 14.5t-115.5 36.5zM229 0 l793 1432h420l-793 -1432h-420zM1010 201q0 55 25.5 96t66.5 59q-70 49 -70 138q0 102 85 154t239 52q152 0 236.5 -52t84.5 -154q0 -88 -69 -138q41 -18 66.5 -59t25.5 -96q0 -100 -88 -157.5t-256 -57.5t-257 57t-89 158zM1276 219q0 -31 22.5 -52.5t57.5 -21.5 q33 0 55.5 21.5t22.5 52.5q0 35 -21.5 56.5t-56.5 21.5t-57.5 -21.5t-22.5 -56.5zM1286 477q0 -29 20.5 -48t49.5 -19q28 0 47.5 19.5t19.5 47.5q0 27 -19.5 46.5t-47.5 19.5q-29 0 -49.5 -19.5t-20.5 -46.5z" />
<glyph unicode="&#x215e;" horiz-adv-x="1681" d="M41 1204v228h596v-150l-238 -524h-293l207 446h-272zM170 0l793 1432h419l-792 -1432h-420zM950 201q0 55 25.5 96t66.5 59q-70 49 -69 138q0 102 85 154t238 52q152 0 237 -52t85 -154q0 -88 -70 -138q41 -18 66.5 -59t25.5 -96q0 -100 -88 -157.5t-256 -57.5t-257 57 t-89 158zM1217 219q0 -31 22.5 -52.5t56.5 -21.5q33 0 55.5 21.5t22.5 52.5q0 35 -21.5 56.5t-56.5 21.5t-57 -21.5t-22 -56.5zM1227 477q0 -29 20.5 -48t48.5 -19q29 0 48.5 19.5t19.5 47.5q0 27 -19.5 46.5t-48.5 19.5t-49 -19.5t-20 -46.5z" />
<glyph unicode="&#x2190;" horiz-adv-x="1593" d="M41 569l557 498l164 -205l-215 -174h1005v-239h-1001l211 -173l-164 -204z" />
<glyph unicode="&#x2191;" horiz-adv-x="1077" d="M41 768l498 557l497 -557l-205 -164l-174 215v-1005h-241v1001l-172 -211z" />
<glyph unicode="&#x2192;" horiz-adv-x="1593" d="M41 449v239h1006l-216 174l164 205l557 -498l-557 -497l-164 204l211 173h-1001z" />
<glyph unicode="&#x2193;" horiz-adv-x="1077" d="M41 371l203 164l172 -211v1001h241v-1006l174 216l205 -164l-497 -557z" />
<glyph unicode="&#x2202;" horiz-adv-x="1374" d="M41 377q0 53 12 110q33 152 122 259.5t216 163t268 55.5q164 0 256 -93q6 129 -54 191.5t-197 62.5q-160 0 -269 -55l76 350q131 41 289 41q272 0 421.5 -158.5t149.5 -433.5q0 -127 -28 -249q-45 -197 -150.5 -344.5t-262.5 -227.5t-351 -80q-240 0 -369 113t-129 295z M477 414q0 -61 36 -93t105 -32q80 0 135.5 50t73.5 128q4 16 4 49q0 61 -35.5 95t-101.5 34q-82 0 -138 -47t-73 -131q-6 -27 -6 -53z" />
<glyph unicode="&#x220f;" horiz-adv-x="1501" d="M82 -518v1980h1337v-1980h-422v1601h-493v-1601h-422z" />
<glyph unicode="&#x2211;" horiz-adv-x="1255" d="M41 -39l459 600l-459 598v273h1173v-357h-630l397 -514l-397 -514h630v-356h-1173v270z" />
<glyph unicode="&#x2212;" horiz-adv-x="835" d="M41 465v317h754v-317h-754z" />
<glyph unicode="&#x2215;" horiz-adv-x="1290" d="M41 -31l788 1493h420l-788 -1493h-420z" />
<glyph unicode="&#x2219;" horiz-adv-x="366" d="M41 608q0 59 41 102.5t100 43.5t101.5 -43t42.5 -103q0 -59 -42 -100t-102 -41q-59 0 -100 41t-41 100z" />
<glyph unicode="&#x221a;" horiz-adv-x="1624" d="M41 637v313h496l157 -471l471 1225h418l-670 -1704h-397l-250 637h-225z" />
</font>
</defs>
</svg>
