<?xml version="1.0" standalone="no"?>
<!DOCTYPE svg PUBLIC "-//W3C//DTD SVG 1.1//EN" "http://www.w3.org/Graphics/SVG/1.1/DTD/svg11.dtd" >
<svg xmlns="http://www.w3.org/2000/svg" xmlns:xlink="http://www.w3.org/1999/xlink" version="1.1">
<metadata></metadata>
<defs>
<font id="promptthin_italic" horiz-adv-x="0" >
<font-face units-per-em="2048" ascent="1536" descent="-512" />
<missing-glyph horiz-adv-x="819" />
<glyph unicode="fi" horiz-adv-x="1079" d="M141 0l197 934h-162l12 49h162l56 264q29 137 129 207t227 70q66 0 117 -13l-11 -51q-43 14 -98 15q-119 0 -201 -56.5t-106 -167.5l-55 -268h589l-209 -983h-57l197 934h-533l-196 -934h-58zM977 1280q0 25 21.5 44t45.5 19q18 0 30.5 -12t12.5 -31q0 -25 -20 -44 t-45 -19q-18 0 -31.5 12.5t-13.5 30.5z" />
<glyph unicode="fl" horiz-adv-x="1054" d="M141 0l197 934h-162l12 49h162l56 264q29 137 129 207t227 70q66 0 117 -13l-11 -51q-43 14 -98 15q-119 0 -201 -56.5t-106 -167.5l-55 -268h532l82 393h57l-291 -1376h-57l197 934h-533l-196 -934h-58z" />
<glyph unicode="&#xe24;&#xe45;" horiz-adv-x="1716" d="M152 123q0 23 6 49l118 553l-69 154q123 123 257 185t314 62q154 0 254 -55q55 25 131 40t154 15q303 0 303 -264q0 -55 -16 -131l-240 -1132h-57l241 1134q16 78 17 131q0 104 -60.5 158.5t-193.5 54.5q-135 0 -240 -37q84 -74 84 -206q0 -57 -10 -101l-242 -1134h-57 l239 1126q12 61 13 111q0 125 -81 183t-249 58q-152 0 -267.5 -46t-230.5 -152l66 -146l-121 -565q-6 -25 -6 -45q0 -39 25.5 -56.5t84.5 -17.5h105l-10 -49h-121q-70 0 -105.5 31.5t-35.5 91.5z" />
<glyph unicode="&#xe26;&#xe45;" horiz-adv-x="1785" d="M20 0l11 49h84q68 0 103.5 26.5t49.5 92.5l119 557l-111 154q123 123 257.5 185t314.5 62q154 0 254 -55q55 25 131 40t153 15q303 0 304 -264q0 -55 -17 -131l-239 -1132h-58l242 1134q14 66 14 129q0 106 -59.5 160.5t-192.5 54.5q-135 0 -239 -37q84 -74 84 -206 q0 -57 -11 -101l-241 -1134h-58l240 1126q12 61 12 111q0 125 -80.5 183t-248.5 58q-152 0 -267.5 -45t-230.5 -151l106 -146l-120 -563q-18 -86 -65.5 -129t-139.5 -43h-101z" />
<glyph unicode=" "  horiz-adv-x="819" />
<glyph unicode="&#x09;" horiz-adv-x="819" />
<glyph unicode="&#xa0;" horiz-adv-x="819" />
<glyph unicode="!" horiz-adv-x="352" d="M23 12q0 25 20 44.5t45 19.5q18 0 31.5 -12.5t13.5 -30.5q0 -25 -21.5 -44.5t-45.5 -19.5q-19 0 -31 12.5t-12 30.5zM121 360l227 1072h58l-228 -1072h-57z" />
<glyph unicode="&#x22;" horiz-adv-x="626" d="M250 1085l74 347h57l-74 -347h-57zM573 1085l74 347h58l-74 -347h-58z" />
<glyph unicode="#" horiz-adv-x="1517" d="M109 422l10 49h233l242 490h-289l10 49h303l209 422h58l-209 -422h563l209 422h57l-209 -422h209l-10 -49h-223l-242 -490h279l-11 -49h-292l-207 -422h-58l207 422h-563l-207 -422h-57l207 422h-219zM410 471h563l241 490h-563z" />
<glyph unicode="$" horiz-adv-x="1114" d="M27 35l10 51q84 -35 183 -51.5t231 -16.5l147 687q-166 68 -249 141.5t-83 189.5q0 33 10 84q33 152 163 244t319 98l39 180h57l-39 -180q174 -6 309 -65l-10 -51q-145 61 -309 67l-143 -680q109 -45 171 -82t99 -92t37 -137q0 -49 -11 -92q-35 -154 -151.5 -246 t-306.5 -111l-39 -184h-58l37 180q-135 0 -241.5 17.5t-171.5 48.5zM319 1040q0 -90 66 -154.5t223 -131.5l140 659q-170 -6 -281 -87t-137 -206q-10 -47 -11 -80zM510 23q336 33 395 307q8 41 8 82q0 94 -61 152.5t-203 117.5z" />
<glyph unicode="%" horiz-adv-x="1777" d="M242 1006q0 41 8 79q23 104 89.5 190.5t162.5 136.5t203 50q135 0 220 -84t85 -213q0 -45 -9 -80q-23 -104 -90 -189t-163.5 -135t-202.5 -50q-135 0 -219 83t-84 212zM291 1010q0 -113 70.5 -181.5t193.5 -68.5q90 0 174 43t144.5 117.5t78.5 164.5q8 35 9 80 q0 113 -72 180.5t-195 67.5q-90 0 -174 -44t-143.5 -118.5t-77.5 -165.5q-8 -35 -8 -75zM360 0l1096 1432h57l-1095 -1432h-58zM864 264q0 41 8 80q23 104 89.5 190.5t163 136.5t202.5 50q135 0 220 -84t85 -213q0 -45 -8 -80q-23 -104 -90.5 -189t-163.5 -135.5t-203 -50.5 q-135 0 -219 83t-84 212zM913 268q0 -113 71 -181.5t194 -68.5q90 0 174 43t144 118t79 165q8 35 8 80q0 113 -71.5 180.5t-194.5 67.5q-90 0 -174 -44t-143.5 -119t-77.5 -165q-8 -35 -9 -76z" />
<glyph unicode="&#x26;" horiz-adv-x="1511" d="M82 256q0 39 8 74q20 104 77.5 182t155 143.5t257.5 143.5q-92 104 -134.5 170.5t-42.5 140.5q0 27 7 53q29 135 137 217t244 82q117 0 188.5 -63.5t71.5 -167.5q0 -37 -9 -68q-16 -76 -55 -134t-117.5 -114.5t-214.5 -126.5l428 -518q76 84 116 180.5t71 241.5h55 q-31 -150 -79 -256t-134 -200l195 -236h-66l-162 195q-131 -127 -283.5 -176.5t-322.5 -49.5q-172 0 -281.5 74t-109.5 213zM135 260q0 -125 99.5 -183.5t248.5 -58.5q339 0 566 213l-439 533q-162 -78 -254 -139.5t-143 -131t-70 -163.5q-8 -33 -8 -70zM457 1112 q0 -68 37.5 -127t132.5 -162q184 92 264 165t100 175q6 35 6 64q0 86 -55 136t-162 50q-117 0 -206 -70.5t-111 -179.5q-6 -27 -6 -51z" />
<glyph unicode="'" horiz-adv-x="303" d="M250 1085l74 347h57l-74 -347h-57z" />
<glyph unicode="(" horiz-adv-x="569" d="M100 223q0 158 37 330q117 537 498 909h59q-395 -399 -504 -909q-35 -170 -34 -317q0 -319 153 -592h-57q-152 245 -152 579z" />
<glyph unicode=")" horiz-adv-x="569" d="M-96 -356q395 399 504 909q35 170 34 317q0 319 -153 592h57q72 -119 110 -269.5t38 -318.5q0 -160 -33 -321q-113 -532 -498 -909h-59z" />
<glyph unicode="*" horiz-adv-x="864" d="M281 1229l26 43l246 -98l55 258h49l-55 -258l287 98l10 -45l-293 -97l127 -258l-43 -24l-123 252l-233 -252l-39 24l237 261z" />
<glyph unicode="+" horiz-adv-x="825" d="M141 575l11 50h264l57 266h49l-57 -266h266l-10 -50h-266l-56 -264h-49l56 264h-265z" />
<glyph unicode="," horiz-adv-x="471" d="M-43 -297l244 387h63l-256 -387h-51z" />
<glyph unicode="-" horiz-adv-x="825" d="M141 575l11 50h579l-10 -50h-580z" />
<glyph unicode="." horiz-adv-x="352" d="M29 43q0 25 21.5 44t45.5 19q18 0 30.5 -12t12.5 -31q0 -25 -20.5 -44t-44.5 -19q-19 0 -32 12.5t-13 30.5z" />
<glyph unicode="/" horiz-adv-x="886" d="M20 0l893 1462h58l-893 -1462h-58z" />
<glyph unicode="0" horiz-adv-x="1314" d="M141 449q0 123 31 266q74 348 254 547.5t438 199.5q197 0 302.5 -127t105.5 -356q0 -119 -31 -264q-74 -344 -257 -545t-437 -201q-197 0 -301.5 127t-104.5 353zM195 451q0 -207 92 -320t270 -113q148 0 273.5 84t219 242t138.5 371q31 147 31 266q0 207 -92.5 319.5 t-272.5 112.5q-150 0 -275.5 -85t-217 -242.5t-136.5 -370.5q-31 -143 -30 -264z" />
<glyph unicode="1" horiz-adv-x="669" d="M258 1124l14 70l377 238h58l-304 -1432h-57l289 1362z" />
<glyph unicode="2" horiz-adv-x="1169" d="M20 0l11 49l477 408q33 27 35 28q170 145 263 233.5t163.5 185.5t91.5 198q10 51 10 88q0 223 -309 223q-100 0 -190.5 -27.5t-198.5 -97.5l14 62q94 59 183 85.5t202 26.5q170 0 260 -72.5t90 -203.5q0 -45 -8 -84q-20 -106 -92 -208.5t-177.5 -203t-293.5 -260.5 l-445 -381h848l-10 -49h-924z" />
<glyph unicode="3" horiz-adv-x="1144" d="M27 39l12 55q78 -39 179 -57.5t208 -18.5q219 0 350 92.5t168 256.5q10 51 10 88q0 129 -102 190.5t-309 61.5h-137l10 49h137q186 0 324.5 88t173.5 246q10 55 10 90q0 233 -307 233q-104 0 -200.5 -25.5t-211.5 -87.5l12 54q98 55 197.5 81.5t212.5 26.5 q172 0 261 -72.5t89 -205.5q0 -39 -10 -94q-29 -135 -130.5 -230.5t-266.5 -126.5q141 -12 221 -85t80 -193q0 -37 -11 -88q-39 -184 -182 -291t-401 -107q-107 0 -208.5 18.5t-178.5 51.5z" />
<glyph unicode="4" horiz-adv-x="1183" d="M61 393l11 47l923 992h82l-211 -992h226l-11 -47h-225l-82 -393h-57l82 393h-738zM139 440h670l199 930z" />
<glyph unicode="5" horiz-adv-x="1126" d="M29 45l12 55q66 -41 154 -61.5t182 -20.5q223 0 371.5 111t191.5 313q12 55 12 105q0 131 -91 200.5t-275 69.5q-80 0 -163 -14.5t-155 -40.5l-41 29l187 641h682l-11 -50h-632l-166 -565q158 49 315 49q193 0 298.5 -85t105.5 -234q0 -49 -13 -105q-47 -225 -207.5 -349 t-423.5 -124q-186 0 -333 76z" />
<glyph unicode="6" horiz-adv-x="1189" d="M115 367q0 78 18 172q98 461 299 692t526 231q82 0 140 -10l-11 -51q-49 12 -135 12q-293 0 -470 -201.5t-283 -607.5q80 133 211 211t280 78q174 0 275.5 -94t101.5 -254q0 -53 -12 -115q-29 -135 -109 -239.5t-197.5 -163t-254.5 -58.5q-168 0 -273.5 101.5 t-105.5 296.5zM170 338q0 -137 87 -228.5t247 -91.5q186 0 324.5 113t177.5 299q12 61 12 115q0 141 -87 220t-251 79q-113 0 -218.5 -53.5t-181 -148.5t-100.5 -212q-10 -51 -10 -92z" />
<glyph unicode="7" horiz-adv-x="1122" d="M250 0l907 1382h-864l10 50h918l-13 -60l-901 -1372h-57z" />
<glyph unicode="8" horiz-adv-x="1167" d="M88 272q0 57 10 101q35 156 144.5 256t257.5 125q-94 29 -148.5 97.5t-54.5 166.5q0 43 8 78q35 166 168 266t318 100q158 0 248.5 -74.5t90.5 -205.5q0 -35 -10 -86q-27 -131 -119 -224.5t-219 -117.5q111 -18 179.5 -97t68.5 -196q0 -37 -10 -88 q-43 -197 -184.5 -300.5t-362.5 -103.5q-180 0 -282.5 79t-102.5 224zM135 274q0 -127 88 -192.5t260 -65.5q197 0 325 91.5t165 265.5q10 55 10 92q0 127 -90 195.5t-258 68.5q-188 0 -320.5 -94t-169.5 -262q-10 -43 -10 -99zM344 1018q0 -115 78 -178.5t223 -63.5 q166 0 281.5 86t146.5 234q10 47 10 82q0 113 -78.5 175t-224.5 62q-164 0 -279.5 -86t-148.5 -233q-8 -35 -8 -78z" />
<glyph unicode="9" horiz-adv-x="1189" d="M188 -20l13 51q49 -12 133 -13q293 0 470 202t283 607q-80 -133 -211 -210.5t-280 -77.5q-174 0 -275.5 94t-101.5 254q0 53 12 114q45 211 199 336t363 125q168 0 274.5 -100t106.5 -293q0 -86 -21 -176q-98 -461 -298 -692.5t-527 -231.5q-79 1 -140 11zM268 889 q0 -143 88 -222t252 -79q113 0 218.5 53t180 148.5t99.5 211.5q10 41 10 99q0 137 -85 225t-249 88q-186 0 -324.5 -113.5t-176.5 -298.5q-12 -57 -13 -112z" />
<glyph unicode=":" horiz-adv-x="352" d="M41 104q0 25 21.5 44.5t46.5 19.5q18 0 30.5 -12.5t12.5 -30.5q0 -25 -20.5 -44.5t-45.5 -19.5q-18 0 -31.5 12.5t-13.5 30.5zM209 891q0 25 21.5 44t45.5 19q18 0 30.5 -12t12.5 -31q0 -25 -21.5 -44t-45.5 -19q-19 0 -31 12t-12 31z" />
<glyph unicode=";" horiz-adv-x="487" d="M-43 -297l244 387h63l-256 -387h-51zM344 891q0 25 21.5 44t46.5 19q18 0 30.5 -12t12.5 -31q0 -25 -21.5 -44t-46.5 -19q-18 0 -30.5 12t-12.5 31z" />
<glyph unicode="&#x3c;" horiz-adv-x="1126" d="M156 637l8 45l973 432l-13 -61l-893 -398l725 -397l-12 -53z" />
<glyph unicode="=" horiz-adv-x="1138" d="M125 494l10 49h893l-10 -49h-893zM215 924l10 49h893l-10 -49h-893z" />
<glyph unicode="&#x3e;" horiz-adv-x="1126" d="M63 205l13 61l893 398l-725 397l12 53l788 -432l-8 -45z" />
<glyph unicode="?" horiz-adv-x="1036" d="M264 12q0 25 20.5 44.5t45.5 19.5q18 0 31.5 -12.5t13.5 -30.5q0 -25 -21.5 -44.5t-46.5 -19.5q-18 0 -30.5 12.5t-12.5 30.5zM305 1346l10 51q92 35 180.5 50t192.5 15q174 0 269.5 -76.5t95.5 -205.5q0 -37 -11 -84q-27 -131 -99.5 -211t-235.5 -166 q-109 -57 -162 -105.5t-79 -110t-50 -173.5l-10 -41h-58l10 41q27 121 59 191.5t90 122.5t167 110q117 61 178 110t91 101.5t46 130.5q10 47 10 82q0 111 -79.5 173t-241.5 62q-100 0 -189.5 -16.5t-183.5 -50.5z" />
<glyph unicode="@" horiz-adv-x="1861" d="M121 383q0 92 20 188q55 262 201.5 464t366 314.5t487.5 112.5q297 0 461 -131t164 -377q0 -88 -21 -182q-47 -221 -162.5 -378.5t-271.5 -157.5q-80 0 -130 49t-48 135q-66 -90 -161 -137t-208 -47q-109 0 -173 62t-64 179q0 49 12 111q27 131 100.5 237.5t183 168 t236.5 61.5q135 0 262 -49l-135 -502q-10 -35 -10 -76q0 -68 37 -105.5t100 -37.5q129 0 231.5 138t147.5 349q20 90 20 180q0 223 -146 342t-435 119q-252 0 -458 -105.5t-343 -296t-190 -440.5q-20 -94 -21 -184q0 -238 156.5 -365.5t464.5 -127.5q221 0 432 69l-10 -45 q-209 -74 -433 -74q-311 0 -487 138.5t-176 400.5zM633 471q0 -94 50 -140t159 -46q137 0 235.5 79.5t126.5 184.5l117 422q-45 20 -95 27.5t-122 7.5q-104 0 -199.5 -53.5t-164 -148.5t-93.5 -216q-14 -59 -14 -117z" />
<glyph unicode="A" horiz-adv-x="1433" d="M20 0l875 1432h45l268 -1432h-53l-84 440h-721l-268 -440h-62zM381 489h680l-158 857z" />
<glyph unicode="B" horiz-adv-x="1280" d="M61 0l304 1432h589q141 0 215 -61.5t74 -186.5q0 -41 -14 -117q-25 -121 -103.5 -209t-177.5 -125q90 -18 144.5 -88t54.5 -172q0 -43 -12 -96q-39 -178 -160 -277.5t-287 -99.5h-627zM129 49h555q131 0 247 81t150 247q12 55 13 102q0 229 -285 230h-541zM279 758h563 q70 0 139.5 36.5t121.5 106.5t73 166q14 59 14 113q0 111 -62.5 156.5t-175.5 45.5h-540z" />
<glyph unicode="C" horiz-adv-x="1490" d="M152 537q0 90 20 178q49 221 180 390t317.5 263t399.5 94q297 0 453 -168l-15 -59q-145 178 -448 178q-193 0 -367 -86t-299 -244.5t-168 -367.5q-20 -88 -20 -176q0 -160 69.5 -278t195.5 -180.5t292 -62.5q158 0 292 45.5t255 147.5l-13 -64q-217 -178 -544 -178 q-179 0 -315 71t-210.5 200t-74.5 297z" />
<glyph unicode="D" horiz-adv-x="1425" d="M61 0l304 1432h407q289 0 446.5 -137.5t157.5 -381.5q0 -84 -22 -190q-80 -365 -311.5 -544t-616.5 -179h-365zM129 49h283q745 0 888 674q23 106 23 188q0 227 -144.5 349t-426.5 122h-340z" />
<glyph unicode="E" horiz-adv-x="1140" d="M61 0l304 1432h874l-10 -50h-817l-138 -641h621l-10 -49h-621l-135 -643h817l-10 -49h-875z" />
<glyph unicode="F" horiz-adv-x="1120" d="M61 0l304 1432h874l-10 -50h-817l-138 -641h621l-10 -49h-621l-145 -692h-58z" />
<glyph unicode="G" horiz-adv-x="1490" d="M152 535q0 90 20 180q47 219 179 389t320.5 264t397.5 94q301 0 451 -162l-13 -61q-76 92 -185.5 133t-262.5 41q-193 0 -367 -86t-299 -244.5t-168 -367.5q-20 -90 -20 -180q0 -242 150.5 -379.5t406.5 -137.5q139 0 253.5 33t225.5 107l115 536h-363l11 49h419 l-127 -596q-203 -178 -544 -178q-179 0 -315 70t-210.5 198t-74.5 298z" />
<glyph unicode="H" horiz-adv-x="1376" d="M61 0l304 1432h57l-143 -676h933l144 676h57l-303 -1432h-57l149 707h-934l-149 -707h-58z" />
<glyph unicode="I" horiz-adv-x="385" d="M61 0l304 1432h57l-303 -1432h-58z" />
<glyph unicode="J" horiz-adv-x="712" d="M-23 -8l11 49q29 -10 77 -17.5t85 -7.5q123 0 200.5 61.5t104.5 184.5l247 1170h58l-248 -1170q-33 -147 -128 -220t-230 -73q-48 0 -97 6.5t-80 16.5z" />
<glyph unicode="K" horiz-adv-x="1206" d="M61 0l304 1432h57l-150 -703l887 703h80l-899 -715l633 -717h-72l-631 717l-151 -717h-58z" />
<glyph unicode="L" horiz-adv-x="1120" d="M61 0l304 1432h57l-293 -1383h817l-10 -49h-875z" />
<glyph unicode="M" horiz-adv-x="1677" d="M61 0l304 1432h65l326 -1338l893 1338h65l-303 -1432h-53l278 1315l-876 -1315h-39l-320 1315l-278 -1315h-62z" />
<glyph unicode="N" horiz-adv-x="1357" d="M61 0l304 1432h51l641 -1326l280 1326h58l-303 -1432h-45l-644 1329l-280 -1329h-62z" />
<glyph unicode="O" horiz-adv-x="1724" d="M152 535q0 90 20 180q47 221 177 391t317.5 263t402.5 93q178 0 315.5 -69.5t212 -198.5t74.5 -301q0 -72 -20 -178q-47 -221 -177.5 -390t-317.5 -262.5t-404 -93.5q-179 0 -315 70t-210.5 198t-74.5 298zM205 537q0 -160 68.5 -277t194.5 -179.5t294 -62.5 q188 0 363 85t301 244t171 368q20 106 21 178q0 160 -68.5 277.5t-194.5 180t-296 62.5q-193 0 -367 -86t-299 -244.5t-168 -367.5q-20 -90 -20 -178z" />
<glyph unicode="P" horiz-adv-x="1167" d="M61 0l304 1432h489q180 0 272.5 -62.5t92.5 -200.5q0 -51 -13 -112q-43 -199 -167 -287t-345 -88h-432l-143 -682h-58zM272 731h439q172 0 287.5 70.5t154.5 255.5q12 61 12 110q0 121 -79.5 168t-235.5 47h-438z" />
<glyph unicode="Q" horiz-adv-x="1734" d="M154 543q0 80 18 172q47 221 177 391t318.5 263t401.5 93q178 0 315.5 -69.5t212 -198.5t74.5 -301q0 -72 -20 -178q-55 -254 -221 -430t-398 -236h488l-11 -49h-739q-188 0 -327.5 65.5t-214 188.5t-74.5 289zM207 545q0 -236 153.5 -366t409.5 -130q184 0 357 79 t299 229.5t171 357.5q18 92 19 176q0 160 -68.5 277.5t-194.5 181t-294 63.5q-193 0 -367 -86t-299 -244.5t-168 -367.5q-18 -92 -18 -170z" />
<glyph unicode="R" horiz-adv-x="1210" d="M61 0l304 1432h507q348 0 349 -267q0 -45 -13 -104q-35 -160 -154.5 -261.5t-320.5 -103.5l252 -696h-59l-252 696h-408l-147 -696h-58zM276 745h457q166 0 277.5 81t144.5 235q12 59 12 104q0 117 -75.5 167t-221.5 50h-458z" />
<glyph unicode="S" horiz-adv-x="1114" d="M27 35l10 51q162 -68 377 -68q424 0 491 312q10 43 10 92q0 68 -33.5 113t-102 82.5t-204.5 95.5q-156 63 -231.5 140t-75.5 185q0 43 8 82q33 158 167.5 250t336.5 92q104 0 186.5 -15t157.5 -50l-10 -51q-152 67 -339 67h-5q-178 0 -296 -82t-144 -211q-10 -47 -11 -82 q0 -92 70 -157.5t236 -132.5q127 -51 193.5 -88t108.5 -93.5t42 -142.5q0 -51 -11 -94q-37 -176 -175 -268.5t-380 -92.5q-110 0 -211.5 18.5t-164.5 47.5z" />
<glyph unicode="T" horiz-adv-x="1196" d="M272 1382l11 50h1032l-10 -50h-488l-293 -1382h-57l293 1382h-488z" />
<glyph unicode="U" horiz-adv-x="1372" d="M133 326q0 61 17 143l204 963h58l-209 -983q-14 -63 -15 -125q0 -156 104.5 -231t293.5 -75q211 0 366.5 112t200.5 319l209 983h57l-205 -963q-51 -238 -209.5 -369t-429.5 -131q-219 0 -330.5 92.5t-111.5 264.5z" />
<glyph unicode="V" horiz-adv-x="1433" d="M324 1432h55l250 -1346l823 1346h59l-874 -1432h-45z" />
<glyph unicode="W" horiz-adv-x="2074" d="M324 1432h57l129 -1336l698 1336h60l129 -1336l698 1336h57l-751 -1432h-45l-133 1362l-709 -1362h-45z" />
<glyph unicode="X" horiz-adv-x="1417" d="M20 0l713 739l-368 693h59l348 -650l623 650h63l-665 -693l399 -739h-59l-375 698l-674 -698h-64z" />
<glyph unicode="Y" horiz-adv-x="1347" d="M324 1432h53l315 -840l672 840h61l-710 -889l-115 -543h-57l114 543z" />
<glyph unicode="Z" horiz-adv-x="1259" d="M20 0l11 53l1208 1329h-901l10 50h967l-10 -54l-1209 -1329h948l-10 -49h-1014z" />
<glyph unicode="[" horiz-adv-x="538" d="M-23 -197l385 1809h314l-10 -49h-256l-365 -1710h256l-10 -50h-314z" />
<glyph unicode="\" horiz-adv-x="886" d="M330 1462h57l275 -1462h-58z" />
<glyph unicode="]" horiz-adv-x="538" d="M-43 -197l10 50h256l365 1710h-256l10 49h313l-385 -1809h-313z" />
<glyph unicode="^" horiz-adv-x="1028" d="M195 821l507 652h41l234 -652h-57l-209 586l-459 -586h-57z" />
<glyph unicode="_" horiz-adv-x="995" d="M8 -49l12 49h750l-12 -49h-750z" />
<glyph unicode="`" horiz-adv-x="448" d="M342 1513h57l72 -342h-45z" />
<glyph unicode="a" horiz-adv-x="1275" d="M109 365q0 61 12 124q33 160 126 279t224 182.5t274 63.5q150 0 262.5 -70t151.5 -196l51 235h56l-209 -983h-56l50 231q-94 -129 -230.5 -195.5t-298.5 -66.5q-184 0 -298.5 106.5t-114.5 289.5zM160 369q0 -162 100 -256.5t272 -94.5q173 0 318 86t223 240l62 291 q-18 160 -121 245t-279 85q-125 0 -242.5 -58.5t-202.5 -167t-116 -250.5q-14 -76 -14 -120z" />
<glyph unicode="b" horiz-adv-x="1327" d="M61 0l322 1513h57l-164 -765q86 129 231.5 197.5t297.5 68.5q184 0 299 -108.5t115 -289.5q0 -63 -15 -127q-33 -156 -127 -274.5t-224 -182t-271 -63.5q-158 0 -264.5 70t-149.5 192l-49 -231h-58zM190 344q14 -156 122 -241t280 -85q125 0 242.5 58.5t201.5 165 t115 247.5q14 63 14 125q0 164 -98 257.5t-272 93.5q-170 0 -318.5 -88.5t-224.5 -241.5z" />
<glyph unicode="c" horiz-adv-x="1118" d="M109 362q0 63 14 127q35 162 127 281t223 181.5t283 62.5q109 0 185.5 -20.5t131.5 -69.5l-10 -52q-61 51 -136 72t-182 21q-131 0 -249.5 -57.5t-203.5 -166t-116 -252.5q-14 -76 -14 -120q0 -164 101.5 -257.5t271.5 -93.5q117 0 204.5 24t178.5 77l-11 -51 q-82 -51 -175 -75t-208 -24q-184 0 -299.5 105.5t-115.5 287.5z" />
<glyph unicode="d" horiz-adv-x="1327" d="M111 367q0 59 12 122q33 160 126 279t224 182.5t275 63.5q152 0 267 -68.5t146 -197.5l164 765h57l-321 -1513h-57l49 231q-88 -129 -223.5 -195.5t-305.5 -66.5q-186 0 -299.5 106.5t-113.5 291.5zM164 371q0 -164 101.5 -258.5t269.5 -94.5q172 0 317 86t223 240 l62 291q-8 156 -115 243t-285 87q-125 0 -242.5 -58.5t-202.5 -167t-116 -250.5q-12 -63 -12 -118z" />
<glyph unicode="e" horiz-adv-x="1243" d="M109 344q0 76 16 148q49 242 209 382t399 140q203 0 306.5 -97.5t103.5 -265.5q0 -66 -15 -129l-12 -51h-946q-14 -63 -14 -127q0 -162 106.5 -245t306.5 -83q94 0 189.5 17.5t171.5 44.5l-12 -49q-61 -25 -165 -42.5t-194 -17.5q-219 0 -334.5 97.5t-115.5 277.5z M180 518h895q16 76 17 137q0 145 -89.5 228.5t-279.5 83.5q-145 0 -259 -62.5t-185.5 -165t-98.5 -221.5z" />
<glyph unicode="f" horiz-adv-x="661" d="M141 0l197 934h-162l12 49h162l56 264q29 141 111.5 209t203.5 68q66 0 117 -13l-11 -51q-43 14 -98 15q-115 0 -178.5 -54.5t-87.5 -169.5l-55 -268h260l-13 -49h-260l-196 -934h-58z" />
<glyph unicode="g" horiz-adv-x="1327" d="M111 369q0 47 14 125q33 158 126 275.5t224 181t273 63.5q160 0 266 -67.5t149 -194.5l49 231h58l-205 -960q-53 -248 -200.5 -371t-407.5 -123q-101 0 -191 18.5t-139 49.5l10 51q129 -70 330 -70q451 0 539 432l45 219q-90 -127 -231.5 -193.5t-295.5 -66.5 q-186 0 -299.5 108.5t-113.5 291.5zM166 373q0 -164 100.5 -259.5t268.5 -95.5q163 0 316 89.5t226 240.5l62 291q-14 156 -122 241t-280 85q-125 0 -241.5 -58.5t-201.5 -166t-116 -246.5q-12 -63 -12 -121z" />
<glyph unicode="h" horiz-adv-x="1173" d="M61 0l322 1513h57l-151 -712q102 113 224 163t245 50q158 0 233.5 -67.5t75.5 -188.5q0 -49 -12 -105l-137 -653h-58l137 651q12 59 13 109q0 100 -61.5 152.5t-200.5 52.5q-264 0 -476 -242l-153 -723h-58z" />
<glyph unicode="i" horiz-adv-x="434" d="M86 0l209 983h57l-209 -983h-57zM332 1280q0 25 21.5 44t45.5 19q18 0 30.5 -12t12.5 -31q0 -25 -20.5 -44t-44.5 -19q-19 0 -32 12.5t-13 30.5z" />
<glyph unicode="j" horiz-adv-x="428" d="M-322 -461l11 51q43 -14 100 -14q111 0 167 52.5t81 170.5l252 1184h57l-252 -1180q-31 -147 -105.5 -211.5t-193.5 -64.5q-66 0 -117 12zM326 1280q0 25 21.5 44t45.5 19q18 0 30.5 -12t12.5 -31q0 -25 -20.5 -44t-44.5 -19q-19 0 -32 12.5t-13 30.5z" />
<glyph unicode="k" horiz-adv-x="991" d="M61 0l322 1513h57l-217 -1015l625 485h82l-635 -491l471 -492h-82l-463 485l-102 -485h-58z" />
<glyph unicode="l" horiz-adv-x="385" d="M61 0l322 1513h57l-321 -1513h-58z" />
<glyph unicode="m" horiz-adv-x="1738" d="M61 0l209 983h58l-39 -176q106 115 205.5 161t210.5 46q244 0 260 -191q166 190 413 191q135 0 197.5 -54.5t62.5 -164.5q0 -53 -16 -131l-139 -664h-58l140 662q18 84 18 139q0 88 -49 126t-166 38q-106 0 -205.5 -45.5t-197.5 -157.5q-4 -53 -17 -109l-137 -653h-57 l137 651q18 84 18 142q0 90 -49 131t-166 41t-213 -53.5t-209 -182.5l-153 -729h-58z" />
<glyph unicode="n" horiz-adv-x="1173" d="M61 0l209 983h58l-39 -182q102 113 224 163t245 50q158 0 233.5 -67.5t75.5 -188.5q0 -49 -12 -105l-137 -653h-58l137 651q12 55 13 103q0 211 -262 211q-264 0 -476 -242l-153 -723h-58z" />
<glyph unicode="o" horiz-adv-x="1273" d="M111 365q0 63 14 127q33 158 124 276.5t222 182t279 63.5q188 0 302.5 -106.5t114.5 -286.5q0 -66 -14 -129q-35 -158 -125 -276t-220 -182.5t-282 -64.5q-188 0 -301.5 107.5t-113.5 288.5zM164 362q0 -162 99 -253t274 -91q133 0 249.5 58.5t199.5 165t114 250.5 q14 76 14 122q0 164 -99.5 257.5t-275.5 93.5q-133 0 -250.5 -58.5t-199.5 -166t-111 -248.5q-14 -63 -14 -130z" />
<glyph unicode="p" horiz-adv-x="1327" d="M-35 -449l305 1432h58l-49 -231q92 127 228 194.5t298 67.5q184 0 300 -105.5t116 -287.5q0 -63 -15 -127q-33 -156 -125 -275t-223 -184.5t-276 -65.5q-150 0 -264.5 71t-149.5 196l-145 -685h-58zM193 348q8 -154 118.5 -242t280.5 -88q125 0 242.5 58.5t202.5 167 t116 250.5q14 63 14 127q0 164 -100 254t-272 90t-317.5 -86t-223.5 -240z" />
<glyph unicode="q" horiz-adv-x="1327" d="M113 371q0 59 12 123q33 160 125 277.5t222 180t276 62.5q158 0 265 -70t150 -192l49 231h58l-305 -1432h-58l146 685q-88 -131 -227.5 -199t-301.5 -68q-119 0 -213 49.5t-146 140.5t-52 212zM166 377q0 -164 102.5 -261.5t266.5 -97.5q170 0 318 88.5t224 241.5l62 291 q-14 156 -122 241t-280 85q-125 0 -242.5 -58.5t-201.5 -165t-115 -247.5q-12 -61 -12 -117z" />
<glyph unicode="r" horiz-adv-x="774" d="M61 0l209 983h58l-49 -225q92 121 222 173t298 52l-13 -49q-375 0 -532 -289l-135 -645h-58z" />
<glyph unicode="s" horiz-adv-x="942" d="M33 66l12 51q66 -47 148.5 -73t173.5 -26q299 0 342 201q8 41 8 60q0 68 -57.5 111.5t-206.5 86.5q-147 43 -213 90t-66 135q0 27 6 58q25 125 137.5 189.5t272.5 64.5q92 0 155.5 -14.5t116.5 -43.5l-12 -51q-98 59 -270 60q-141 0 -232.5 -51.5t-114.5 -153.5 q-6 -31 -6 -55q0 -47 27 -79t83 -56.5t161 -53.5q143 -41 206.5 -96t63.5 -139q0 -141 -104.5 -226.5t-309.5 -85.5q-82 0 -175 29t-146 68z" />
<glyph unicode="t" horiz-adv-x="702" d="M176 934l12 49h162l62 295h57l-61 -295h260l-13 -49h-260l-145 -692q-10 -55 -10 -86q0 -72 42 -105t136 -33q57 0 106 15l-10 -51q-57 -12 -125 -13q-98 0 -152.5 46t-54.5 141q0 35 11 90l145 688h-162z" />
<glyph unicode="u" horiz-adv-x="1173" d="M113 248q0 41 10 92l137 643h57l-137 -639q-12 -51 -12 -98q0 -106 68.5 -167t212.5 -61q129 0 238.5 57.5t215.5 184.5l156 723h57l-209 -983h-57l37 182q-186 -213 -449 -213q-162 0 -243.5 77t-81.5 202z" />
<glyph unicode="v" horiz-adv-x="1073" d="M229 983h56l164 -897l548 897h60l-600 -983h-45z" />
<glyph unicode="w" horiz-adv-x="1568" d="M229 983h56l86 -920l481 920h74l88 -920l483 920h55l-516 -983h-63l-92 944l-490 -944h-63z" />
<glyph unicode="x" horiz-adv-x="1148" d="M20 0l533 518l-277 465h60l252 -426l438 426h64l-478 -465l312 -518h-58l-291 479l-493 -479h-62z" />
<glyph unicode="y" horiz-adv-x="1087" d="M14 -403l11 51q129 -70 329 -70q217 0 335 105.5t163 326.5l39 193q-186 -213 -449 -213q-162 0 -243.5 76.5t-81.5 201.5q0 41 10 92l133 623h57l-133 -618q-12 -51 -12 -99q0 -106 68.5 -166.5t212.5 -60.5q129 0 238.5 57.5t215.5 184.5l152 702h57l-205 -960 q-55 -254 -184 -374t-383 -120q-100 0 -190.5 18.5t-139.5 49.5z" />
<glyph unicode="z" horiz-adv-x="954" d="M20 0l11 51l815 883h-613l13 49h676l-13 -51l-815 -883h645l-10 -49h-709z" />
<glyph unicode="{" horiz-adv-x="587" d="M123 684l12 49h23q84 0 133 47t69 144l115 532q16 82 53 119t109 37h88l-10 -49h-76q-49 0 -71.5 -23.5t-37.5 -85.5l-110 -526q-20 -94 -61.5 -148.5t-112.5 -72.5v-5q88 -23 88 -137q0 -41 -8 -76l-113 -528q-6 -31 -6 -51q0 -31 15.5 -44t51.5 -13h76l-10 -50h-88 q-102 1 -102 99q0 27 6 57l114 535q8 39 9 73q0 61 -33 89t-101 28h-22z" />
<glyph unicode="|" horiz-adv-x="303" d="M-43 -295l416 1958h57l-416 -1958h-57z" />
<glyph unicode="}" horiz-adv-x="587" d="M-43 -197l10 50h76q49 0 71.5 23.5t35.5 84.5l112 528q43 190 174 222v4q-47 16 -68.5 48t-21.5 83q0 31 10 82l111 526q8 45 8 55q0 29 -16.5 41.5t-50.5 12.5h-76l10 49h88q102 0 102 -99q0 -27 -6 -57l-114 -532q-8 -35 -9 -70q0 -121 134 -121h22l-12 -49h-23 q-84 0 -133 -47t-69 -143l-115 -535q-16 -82 -56 -119t-106 -37h-88z" />
<glyph unicode="~" horiz-adv-x="1181" d="M156 641l14 66q35 53 104.5 84.5t145.5 31.5q70 0 123 -17.5t119 -51.5q61 -31 108 -47.5t107 -16.5q72 0 132 29t121 104l-14 -65q-37 -53 -105.5 -85t-144.5 -32q-66 0 -115 17.5t-112 50.5q-70 33 -118 49t-111 16q-72 0 -132.5 -28.5t-121.5 -104.5z" />
<glyph unicode="&#xa1;" horiz-adv-x="352" d="M-27 -336l228 1071h57l-227 -1071h-58zM246 1063q0 25 20.5 44t44.5 19q18 0 31.5 -12t13.5 -31q0 -25 -21.5 -44t-45.5 -19q-19 0 -31 12t-12 31z" />
<glyph unicode="&#xa2;" horiz-adv-x="1118" d="M109 362q0 63 14 127q33 147 120 263t208.5 184t257.5 76l36 178h58l-37 -176q207 -4 307 -90l-10 -52q-109 88 -307 93l-203 -947q111 2 193.5 26t171.5 75l-11 -51q-78 -49 -167 -73t-197 -26l-37 -176h-57l38 178q-170 10 -274 114.5t-104 276.5zM164 371 q0 -154 90 -247t242 -106l200 945q-119 -8 -227.5 -68.5t-186 -165t-106.5 -240.5q-12 -61 -12 -118z" />
<glyph unicode="&#xa3;" horiz-adv-x="1001" d="M20 0l11 49h182l152 721h-162l12 49h162l67 326q35 154 141.5 235.5t243.5 81.5q68 0 119 -12l-10 -51q-43 14 -100 14q-131 0 -219.5 -68.5t-114.5 -195.5l-70 -330h434l-12 -49h-434l-152 -721h516l-10 -49h-756z" />
<glyph unicode="&#xa4;" horiz-adv-x="1165" d="M59 190l203 134q-39 59 -39 147q0 45 8 80q29 131 127 227l-145 133l39 41l147 -137q129 102 275 103q72 0 131 -27t98 -76l207 137l23 -41l-203 -133q41 -66 41 -153q0 -41 -8 -74q-27 -123 -129 -229l145 -132l-39 -40l-147 135q-59 -47 -130 -74t-143 -27t-132 27 t-101 74l-205 -135zM276 477q0 -106 68 -175t184 -69q86 0 167 43t138.5 116t75.5 159q8 33 9 72q0 106 -69 175.5t-185 69.5q-86 0 -166 -43t-137.5 -115.5t-75.5 -158.5q-8 -33 -9 -74z" />
<glyph unicode="&#xa5;" horiz-adv-x="1347" d="M297 279l12 49h303l43 207h-303l10 49h279l-317 848h53l315 -840l672 838h61l-677 -846h278l-10 -49h-303l-43 -207h303l-12 -49h-304l-57 -279h-57l57 279h-303z" />
<glyph unicode="&#xa6;" horiz-adv-x="303" d="M-43 -295l158 746h57l-158 -746h-57zM215 920l158 743h57l-158 -743h-57z" />
<glyph unicode="&#xa7;" horiz-adv-x="1114" d="M-41 -283l10 52q162 -68 377 -68q424 0 492 311q10 51 10 84q0 72 -37 121t-106.5 88t-194.5 90q-162 66 -236.5 139.5t-74.5 182.5q0 35 10 86q18 84 67 151q-12 35 -12 74q0 43 12 92q33 156 170.5 249t333.5 93q104 0 186.5 -15t157.5 -50l-10 -51q-154 68 -344 67 q-178 0 -296 -82t-144 -211q-10 -47 -11 -82q0 -92 70 -157.5t236 -132.5q127 -51 193.5 -88t108.5 -93.5t42 -142.5q0 -51 -11 -94q-16 -78 -65 -156q8 -31 8 -74q0 -47 -10 -88q-37 -174 -179.5 -267t-375.5 -93q-111 0 -212 18.5t-165 46.5zM254 723q0 -94 68.5 -159.5 t234.5 -133.5q135 -55 207 -96t108 -103q21 50 33 99q10 51 10 84q0 72 -36.5 121t-106.5 88t-197 90q-109 43 -176 88t-100 100q-29 -55 -37 -98q-8 -39 -8 -80z" />
<glyph unicode="&#xa8;" horiz-adv-x="774" d="M299 1311q4 25 26.5 43t47.5 18t39 -18.5t10 -42.5q-6 -25 -28.5 -43.5t-47.5 -18.5q-24 0 -38.5 18.5t-8.5 43.5zM705 1311q4 25 26.5 43t46.5 18q25 0 39 -18.5t10 -42.5q-6 -25 -28.5 -43.5t-46.5 -18.5q-25 0 -39.5 18.5t-7.5 43.5z" />
<glyph unicode="&#xa9;" horiz-adv-x="1724" d="M152 535q0 90 20 180q49 227 181 396t318.5 260t397.5 91q178 0 315.5 -69.5t212 -198.5t74.5 -299q0 -90 -20 -180q-49 -225 -181.5 -395t-319.5 -260.5t-398 -90.5q-179 0 -315 70t-210.5 198t-74.5 298zM205 535q0 -242 150.5 -379.5t406.5 -137.5q188 0 363 85 t301 244t171 368q20 90 21 180q0 242 -149.5 380t-409.5 138q-193 0 -367 -86t-299 -244.5t-168 -367.5q-20 -90 -20 -180zM377 592q0 57 12 121q33 156 125 274.5t224 184t284 65.5q109 0 186.5 -20.5t132.5 -69.5l-12 -51q-61 51 -136 71.5t-181 20.5q-131 0 -250 -57.5 t-204 -166t-116 -251.5q-14 -76 -14 -123q0 -164 100.5 -256t274.5 -92q117 0 204 23.5t177 76.5l-10 -51q-82 -51 -175.5 -74.5t-207.5 -23.5q-117 0 -211.5 48t-148.5 138t-54 213z" />
<glyph unicode="&#xaa;" horiz-adv-x="858" d="M213 885q0 25 6 51q23 113 105 170t206 57q168 0 277 -67l22 106q8 33 9 70q0 74 -51.5 107.5t-159.5 33.5q-115 0 -230 -43l11 51q47 18 109.5 29.5t119.5 11.5q129 0 193.5 -49t64.5 -141q0 -39 -8 -72l-99 -463h-53l21 99q-125 -121 -318 -121q-104 0 -164.5 44 t-60.5 126zM266 891q0 -127 189 -127q102 0 181 37t130 104l31 142q-59 35 -124 51t-151 16q-215 0 -250 -178q-6 -25 -6 -45z" />
<glyph unicode="&#xab;" horiz-adv-x="1052" d="M156 637l8 45l520 350l18 -41l-497 -336l354 -336l-35 -32zM492 637l8 45l520 350l18 -41l-497 -336l354 -336l-35 -32z" />
<glyph unicode="&#xac;" horiz-adv-x="866" d="M141 575l11 50h620l-70 -334h-49l60 284h-572z" />
<glyph unicode="&#xad;" horiz-adv-x="825" d="M141 575l11 50h579l-10 -50h-580z" />
<glyph unicode="&#xae;" horiz-adv-x="1724" d="M152 535q0 90 20 180q49 227 181 396t318.5 260t397.5 91q178 0 315.5 -69.5t212 -198.5t74.5 -299q0 -90 -20 -180q-49 -225 -181.5 -395t-319.5 -260.5t-398 -90.5q-179 0 -315 70t-210.5 198t-74.5 298zM205 535q0 -242 150.5 -379.5t406.5 -137.5q188 0 363 85 t301 244t171 368q20 90 21 180q0 242 -149.5 380t-409.5 138q-193 0 -367 -86t-299 -244.5t-168 -367.5q-20 -90 -20 -180zM473 180l229 1082h388q135 0 200.5 -46.5t65.5 -142.5q0 -41 -13 -94q-27 -123 -115.5 -198.5t-246.5 -78.5l184 -522h-51l-184 522h-295l-111 -522 h-51zM645 745h340q125 0 206 58.5t105 175.5q10 51 11 80q0 88 -55.5 123t-164.5 35h-342z" />
<glyph unicode="&#xaf;" horiz-adv-x="815" d="M295 1300l12 50h570l-13 -50h-569z" />
<glyph unicode="&#xb0;" horiz-adv-x="835" d="M266 1135q0 92 53.5 174t138.5 131t173 49q104 0 170.5 -66.5t66.5 -167.5q0 -31 -6 -61q-16 -80 -70.5 -147.5t-130 -107.5t-155.5 -40q-105 0 -172.5 67.5t-67.5 168.5zM313 1143q0 -84 56.5 -141.5t144.5 -57.5q78 0 148.5 43t114.5 112.5t44 145.5q0 86 -55 142.5 t-145 56.5q-76 0 -148 -43t-116 -112.5t-44 -145.5z" />
<glyph unicode="&#xb1;" horiz-adv-x="784" d="M20 0l11 49h538l-10 -49h-539zM133 535l10 49h244l53 245h49l-53 -245h246l-10 -49h-246l-51 -244h-49l51 244h-244z" />
<glyph unicode="&#xb2;" horiz-adv-x="698" d="M180 758l10 49l238 180l35 27q117 88 162 135t59 117q4 14 4 39q0 98 -141 98q-115 0 -201 -53l10 53q41 25 97.5 37t103.5 12q86 0 134 -38t48 -105q0 -29 -4 -43q-12 -59 -46 -106.5t-77 -83.5t-141 -111l-209 -158h381l-10 -49h-453z" />
<glyph unicode="&#xb3;" horiz-adv-x="696" d="M182 770l13 55q70 -39 194 -39q111 0 172.5 47.5t61.5 139.5q0 55 -42 78.5t-137 23.5h-73l10 49h74q102 0 160.5 50.5t58.5 138.5q0 47 -35 68.5t-111 21.5q-109 0 -204 -55l12 51q90 53 203 53q90 0 138 -35t48 -100q0 -20 -6 -45q-27 -137 -180 -172q133 -8 133 -125 q0 -106 -80 -172t-213 -66q-119 0 -197 33z" />
<glyph unicode="&#xb4;" horiz-adv-x="448" d="M268 1171l219 342h58l-232 -342h-45z" />
<glyph unicode="&#xb6;" horiz-adv-x="1413" d="M227 915q0 57 17 144q53 246 212.5 374t389.5 128h672l-390 -1835h-57l379 1785h-389l-379 -1785h-57l180 843h-201q-176 0 -276.5 88t-100.5 258z" />
<glyph unicode="&#xb7;" horiz-adv-x="352" d="M145 592q0 25 21.5 44t46.5 19q18 0 30.5 -12t12.5 -31q0 -25 -21.5 -44t-46.5 -19q-18 0 -30.5 12t-12.5 31z" />
<glyph unicode="&#xb8;" horiz-adv-x="569" d="M-86 -492l12 50q16 -8 48 -12.5t61 -4.5q158 0 184 129q4 14 4 39q0 51 -44 76t-146 25l114 190h58l-92 -152q84 -4 123.5 -39.5t39.5 -97.5q0 -29 -4 -43q-18 -80 -81.5 -128t-165.5 -48q-29 0 -61 5t-50 11z" />
<glyph unicode="&#xb9;" horiz-adv-x="460" d="M279 1219l14 65l231 148h56l-144 -674h-55l129 608z" />
<glyph unicode="&#xba;" horiz-adv-x="980" d="M240 997q0 39 10 90q37 170 158.5 272.5t289.5 102.5q135 0 216 -76.5t81 -205.5q0 -37 -10 -93q-35 -168 -156.5 -270t-287.5 -102q-138 0 -219.5 76.5t-81.5 205.5zM293 999q0 -113 66.5 -174t191.5 -61q139 0 245.5 88t137.5 235q10 41 10 95q0 109 -65.5 170 t-190.5 61q-139 0 -245.5 -89t-139.5 -237q-10 -51 -10 -88z" />
<glyph unicode="&#xbb;" horiz-adv-x="1052" d="M88 328l498 336l-355 335l35 33l369 -350l-8 -45l-521 -350zM424 328l498 336l-355 335l35 33l369 -350l-8 -45l-521 -350z" />
<glyph unicode="&#xbc;" horiz-adv-x="1359" d="M152 0l1095 1432h58l-1096 -1432h-57zM279 1219l14 65l231 148h56l-144 -674h-55l129 608zM664 178l10 47l432 449h68l-95 -449h103l-11 -47h-102l-37 -178h-55l37 178h-350zM731 225h293l82 385z" />
<glyph unicode="&#xbd;" horiz-adv-x="1445" d="M152 0l1095 1432h58l-1096 -1432h-57zM279 1219l14 65l231 148h56l-144 -674h-55l129 608zM758 0l10 49l236 180q139 104 190 157.5t68 127.5q4 29 4 39q0 49 -34 75.5t-106 26.5q-117 0 -202 -53l12 53q39 25 96.5 37.5t104.5 12.5q84 0 132 -40t48 -108q0 -29 -4 -43 q-18 -84 -75.5 -144.5t-190.5 -162.5l-207 -158h391l-10 -49h-463z" />
<glyph unicode="&#xbe;" horiz-adv-x="1449" d="M182 770l13 55q70 -39 194 -39q106 0 170 47.5t64 139.5q0 55 -42 78.5t-137 23.5h-73l10 49h74q100 0 158.5 50.5t58.5 138.5q0 47 -34 68.5t-110 21.5q-109 0 -204 -55l12 51q90 53 203 53q90 0 138 -35t48 -100q0 -20 -6 -45q-27 -135 -180 -170q68 -4 100.5 -39 t32.5 -92q0 -106 -81 -170t-212 -64q-119 0 -197 33zM242 0l1095 1432h58l-1096 -1432h-57zM754 178l10 47l432 449h68l-95 -449h103l-10 -47h-103l-37 -178h-55l37 178h-350zM821 225h293l82 385z" />
<glyph unicode="&#xbf;" horiz-adv-x="1036" d="M12 -80q0 41 8 80q27 131 100 211t236 166q106 57 160.5 105t81.5 109.5t49 174.5l8 41h58l-8 -41q-27 -121 -59 -191.5t-90 -123t-167 -109.5q-117 -61 -179.5 -110.5t-91 -101.5t-44.5 -130q-8 -35 -8 -78q0 -111 80.5 -175t238.5 -64q100 0 189.5 16t183.5 51l-13 -51 q-172 -66 -372 -66q-170 0 -265.5 78t-95.5 209zM688 1063q0 25 20.5 44t45.5 19q18 0 31.5 -12t13.5 -31q0 -25 -21.5 -44t-46.5 -19q-18 0 -30.5 12t-12.5 31z" />
<glyph unicode="&#xc0;" horiz-adv-x="1433" d="M20 0l875 1432h45l268 -1432h-53l-84 440h-721l-268 -440h-62zM381 489h680l-158 857zM807 1915h57l72 -342h-45z" />
<glyph unicode="&#xc1;" horiz-adv-x="1433" d="M20 0l875 1432h45l268 -1432h-53l-84 440h-721l-268 -440h-62zM381 489h680l-158 857zM938 1573l219 342h57l-231 -342h-45z" />
<glyph unicode="&#xc2;" horiz-adv-x="1433" d="M20 0l875 1432h45l268 -1432h-53l-84 440h-721l-268 -440h-62zM381 489h680l-158 857zM668 1585l325 309h45l197 -309h-59l-166 264l-277 -264h-65z" />
<glyph unicode="&#xc3;" horiz-adv-x="1433" d="M20 0l875 1432h45l268 -1432h-53l-84 440h-721l-268 -440h-62zM381 489h680l-158 857zM594 1610l14 67q76 92 205 92q47 0 83 -12t87 -39q47 -25 83 -38t81 -13q57 0 107.5 24.5t99.5 86.5l-15 -68q-72 -92 -202 -92q-51 0 -90 13.5t-89 39.5q-49 25 -80.5 37t-74.5 12 q-55 0 -105.5 -24.5t-103.5 -85.5z" />
<glyph unicode="&#xc4;" horiz-adv-x="1433" d="M20 0l875 1432h45l268 -1432h-53l-84 440h-721l-268 -440h-62zM381 489h680l-158 857zM705 1651q4 23 24.5 40t42.5 17q23 0 37 -17.5t10 -39.5q-6 -23 -26.5 -40.5t-42.5 -17.5q-23 0 -37.5 17.5t-7.5 40.5zM1110 1651q4 23 24.5 40t43.5 17t37 -17.5t10 -39.5 q-6 -23 -26.5 -40.5t-43.5 -17.5q-22 0 -36.5 17.5t-8.5 40.5z" />
<glyph unicode="&#xc5;" horiz-adv-x="1433" d="M20 0l850 1393q-51 10 -81.5 50t-30.5 93q0 57 32.5 109.5t86 84t110.5 31.5q66 0 109 -42t43 -105q0 -78 -57.5 -142.5t-135.5 -78.5l262 -1393h-57l-84 440h-721l-268 -440h-58zM377 489h680l-158 857zM803 1544q0 -45 28.5 -76.5t73.5 -35.5h25q66 4 115 57t49 117 q0 49 -32 80.5t-83 31.5q-68 0 -122 -53t-54 -121z" />
<glyph unicode="&#xc6;" horiz-adv-x="1878" d="M20 0l1084 1432h852l-10 -50h-715l-137 -641h518l-10 -49h-519l-135 -643h715l-10 -49h-772l92 440h-563l-332 -440h-58zM446 489h537l191 893h-50z" />
<glyph unicode="&#xc7;" horiz-adv-x="1490" d="M152 535q0 90 20 180q49 221 180 390t317.5 263t399.5 94q297 0 453 -168l-15 -59q-145 178 -448 178q-193 0 -367 -86t-299 -244.5t-168 -367.5q-20 -88 -20 -176q0 -160 69.5 -278t195.5 -180.5t292 -62.5q158 0 292 45.5t255 147.5l-13 -64q-205 -168 -503 -178 l-72 -121q82 -4 122 -39.5t40 -97.5q0 -29 -4 -43q-18 -80 -81 -128t-165 -48q-29 0 -60.5 5t-50.5 11l13 50q16 -8 47.5 -12.5t60.5 -4.5q156 0 182 129q4 14 4 39q0 51 -43 76t-145 25l94 161q-174 2 -306 74t-204.5 198t-72.5 292z" />
<glyph unicode="&#xc8;" horiz-adv-x="1161" d="M61 0l304 1432h874l-10 -50h-817l-138 -641h621l-10 -49h-621l-135 -643h817l-10 -49h-875zM729 1964h57l72 -342h-45z" />
<glyph unicode="&#xc9;" horiz-adv-x="1140" d="M61 0l304 1432h874l-10 -50h-817l-138 -641h621l-10 -49h-621l-135 -643h817l-10 -49h-875zM735 1622l219 342h58l-232 -342h-45z" />
<glyph unicode="&#xca;" horiz-adv-x="1161" d="M61 0l304 1432h874l-10 -50h-817l-138 -641h621l-10 -49h-621l-135 -643h817l-10 -49h-875zM547 1585l325 309h46l196 -309h-59l-166 264l-277 -264h-65z" />
<glyph unicode="&#xcb;" horiz-adv-x="1161" d="M61 0l304 1432h874l-10 -50h-817l-138 -641h621l-10 -49h-621l-135 -643h817l-10 -49h-875zM559 1700q4 23 24.5 40t43.5 17t37 -17.5t10 -39.5q-6 -23 -26.5 -40.5t-43.5 -17.5q-22 0 -36.5 17.5t-8.5 40.5zM965 1700q4 23 24.5 40t42.5 17q23 0 37 -17.5t10 -39.5 q-6 -23 -26.5 -40.5t-42.5 -17.5q-23 0 -37.5 17.5t-7.5 40.5z" />
<glyph unicode="&#xcc;" horiz-adv-x="385" d="M61 0l304 1432h57l-303 -1432h-58zM334 1964h57l72 -342h-45z" />
<glyph unicode="&#xcd;" horiz-adv-x="385" d="M61 0l304 1432h57l-303 -1432h-58zM403 1573l220 342h57l-231 -342h-46z" />
<glyph unicode="&#xce;" horiz-adv-x="385" d="M61 0l304 1432h57l-303 -1432h-58zM143 1585l326 309h45l197 -309h-60l-166 264l-276 -264h-66z" />
<glyph unicode="&#xcf;" horiz-adv-x="385" d="M61 0l304 1432h57l-303 -1432h-58zM190 1700q4 23 25 40t43 17q23 0 37 -17.5t10 -39.5q-6 -23 -26.5 -40.5t-42.5 -17.5q-23 0 -37.5 17.5t-8.5 40.5zM596 1700q4 23 24.5 40t43.5 17t37 -17.5t10 -39.5q-6 -23 -26.5 -40.5t-43.5 -17.5t-37 17.5t-8 40.5z" />
<glyph unicode="&#xd0;" horiz-adv-x="1464" d="M125 690l10 49h162l147 693h408q289 0 445.5 -137.5t156.5 -383.5q0 -94 -20 -188q-78 -360 -312.5 -541.5t-617.5 -181.5h-363l146 690h-162zM209 49h283q745 0 888 674q23 106 23 188q0 227 -144.5 349t-427.5 122h-339l-138 -643h463l-10 -49h-463z" />
<glyph unicode="&#xd1;" horiz-adv-x="1357" d="M61 0l304 1432h51l641 -1326l280 1326h58l-303 -1432h-45l-644 1329l-280 -1329h-62zM575 1659l15 67q76 92 205 93q47 0 82.5 -12.5t87.5 -39.5q47 -25 82.5 -38t80.5 -13q57 0 107.5 24.5t99.5 86.5l-14 -68q-72 -92 -203 -92q-51 0 -90 13.5t-88 39.5q-49 25 -81 37 t-75 12q-55 0 -105 -24.5t-104 -85.5z" />
<glyph unicode="&#xd2;" horiz-adv-x="1724" d="M152 535q0 90 20 180q47 221 177 391t317.5 263t402.5 93q178 0 315.5 -69.5t212 -198.5t74.5 -301q0 -72 -20 -178q-47 -221 -177.5 -390t-317.5 -262.5t-404 -93.5q-179 0 -315 70t-210.5 198t-74.5 298zM205 537q0 -160 68.5 -277t194.5 -179.5t294 -62.5 q188 0 363 85t301 244t171 368q20 106 21 178q0 160 -68.5 277.5t-194.5 180t-296 62.5q-193 0 -367 -86t-299 -244.5t-168 -367.5q-20 -90 -20 -178zM1040 1964h58l71 -342h-45z" />
<glyph unicode="&#xd3;" horiz-adv-x="1724" d="M152 535q0 90 20 180q47 221 177 391t317.5 263t402.5 93q178 0 315.5 -69.5t212 -198.5t74.5 -301q0 -72 -20 -178q-47 -221 -177.5 -390t-317.5 -262.5t-404 -93.5q-179 0 -315 70t-210.5 198t-74.5 298zM205 537q0 -160 68.5 -277t194.5 -179.5t294 -62.5 q188 0 363 85t301 244t171 368q20 106 21 178q0 160 -68.5 277.5t-194.5 180t-296 62.5q-193 0 -367 -86t-299 -244.5t-168 -367.5q-20 -90 -20 -178zM1044 1622l220 342h57l-231 -342h-46z" />
<glyph unicode="&#xd4;" horiz-adv-x="1724" d="M152 535q0 90 20 180q47 221 177 391t317.5 263t402.5 93q178 0 315.5 -69.5t212 -198.5t74.5 -301q0 -72 -20 -178q-47 -221 -177.5 -390t-317.5 -262.5t-404 -93.5q-179 0 -315 70t-210.5 198t-74.5 298zM205 537q0 -160 68.5 -277t194.5 -179.5t294 -62.5 q188 0 363 85t301 244t171 368q20 106 21 178q0 160 -68.5 277.5t-194.5 180t-296 62.5q-193 0 -367 -86t-299 -244.5t-168 -367.5q-20 -90 -20 -178zM813 1634l326 310h45l196 -310h-59l-166 264l-276 -264h-66z" />
<glyph unicode="&#xd5;" horiz-adv-x="1724" d="M152 535q0 90 20 180q47 221 177 391t317.5 263t402.5 93q178 0 315.5 -69.5t212 -198.5t74.5 -301q0 -72 -20 -178q-47 -221 -177.5 -390t-317.5 -262.5t-404 -93.5q-179 0 -315 70t-210.5 198t-74.5 298zM205 537q0 -160 68.5 -277t194.5 -179.5t294 -62.5 q188 0 363 85t301 244t171 368q20 106 21 178q0 160 -68.5 277.5t-194.5 180t-296 62.5q-193 0 -367 -86t-299 -244.5t-168 -367.5q-20 -90 -20 -178zM750 1659l14 67q76 92 205 93q47 0 82.5 -12.5t87.5 -39.5q47 -25 82.5 -38t81.5 -13q57 0 107 24.5t99 86.5l-14 -68 q-72 -92 -203 -92q-51 0 -90 13.5t-88 39.5q-49 25 -81 37t-75 12q-55 0 -105 -24.5t-103 -85.5z" />
<glyph unicode="&#xd6;" horiz-adv-x="1724" d="M152 535q0 90 20 180q47 221 177 391t317.5 263t402.5 93q178 0 315.5 -69.5t212 -198.5t74.5 -301q0 -72 -20 -178q-47 -221 -177.5 -390t-317.5 -262.5t-404 -93.5q-179 0 -315 70t-210.5 198t-74.5 298zM205 537q0 -160 68.5 -277t194.5 -179.5t294 -62.5 q188 0 363 85t301 244t171 368q20 106 21 178q0 160 -68.5 277.5t-194.5 180t-296 62.5q-193 0 -367 -86t-299 -244.5t-168 -367.5q-20 -90 -20 -178zM860 1700q4 23 24.5 40t43.5 17t37 -17.5t10 -39.5q-6 -23 -26.5 -40.5t-43.5 -17.5q-22 0 -36.5 17.5t-8.5 40.5z M1266 1700q4 23 24.5 40t42.5 17q23 0 37 -17.5t10 -39.5q-6 -23 -26.5 -40.5t-42.5 -17.5q-23 0 -37 17.5t-8 40.5z" />
<glyph unicode="&#xd7;" horiz-adv-x="692" d="M109 414l227 186l-150 188l43 35l148 -188l229 188l27 -35l-227 -188l145 -186l-41 -35l-148 186l-225 -186z" />
<glyph unicode="&#xd8;" horiz-adv-x="1724" d="M152 535q0 90 20 180q47 227 179 397t319.5 260t398.5 90q137 0 260 -45l115 189h57l-127 -207q139 -68 217 -199t78 -307q0 -82 -18 -178q-47 -221 -176 -390t-316.5 -262.5t-406.5 -93.5q-125 0 -236 35l-110 -180h-58l123 199q-152 63 -235.5 196t-83.5 316zM207 545 q0 -170 77.5 -293t215.5 -182l800 1300q-106 43 -241 43q-193 0 -367 -86t-299 -244.5t-168 -367.5q-18 -88 -18 -170zM545 51q96 -33 217 -33q188 0 363 85t301 244t171 368q18 92 19 174q0 164 -70.5 283.5t-199.5 179.5z" />
<glyph unicode="&#xd9;" horiz-adv-x="1372" d="M133 326q0 61 17 143l204 963h58l-209 -983q-14 -63 -15 -125q0 -156 104.5 -231t293.5 -75q211 0 366.5 112t200.5 319l209 983h57l-205 -963q-51 -238 -209.5 -369t-429.5 -131q-219 0 -330.5 92.5t-111.5 264.5zM846 1964h57l72 -342h-45z" />
<glyph unicode="&#xda;" horiz-adv-x="1372" d="M133 326q0 61 17 143l204 963h58l-209 -983q-14 -63 -15 -125q0 -156 104.5 -231t293.5 -75q211 0 366.5 112t200.5 319l209 983h57l-205 -963q-51 -238 -209.5 -369t-429.5 -131q-219 0 -330.5 92.5t-111.5 264.5zM891 1622l219 342h57l-231 -342h-45z" />
<glyph unicode="&#xdb;" horiz-adv-x="1372" d="M133 326q0 61 17 143l204 963h58l-209 -983q-14 -63 -15 -125q0 -156 104.5 -231t293.5 -75q211 0 366.5 112t200.5 319l209 983h57l-205 -963q-51 -238 -209.5 -369t-429.5 -131q-219 0 -330.5 92.5t-111.5 264.5zM647 1634l326 310h45l196 -310h-59l-166 264l-276 -264 h-66z" />
<glyph unicode="&#xdc;" horiz-adv-x="1372" d="M133 326q0 61 17 143l204 963h58l-209 -983q-14 -63 -15 -125q0 -156 104.5 -231t293.5 -75q211 0 366.5 112t200.5 319l209 983h57l-205 -963q-51 -238 -209.5 -369t-429.5 -131q-219 0 -330.5 92.5t-111.5 264.5zM684 1700q4 23 24.5 40t43.5 17t37 -17.5t10 -39.5 q-6 -23 -26.5 -40.5t-43.5 -17.5q-22 0 -36.5 17.5t-8.5 40.5zM1090 1700q4 23 24.5 40t42.5 17q23 0 37 -17.5t10 -39.5q-6 -23 -26.5 -40.5t-42.5 -17.5q-23 0 -37.5 17.5t-7.5 40.5z" />
<glyph unicode="&#xdd;" horiz-adv-x="1347" d="M324 1432h53l315 -840l672 840h61l-710 -889l-115 -543h-57l114 543zM877 1622l219 342h57l-231 -342h-45z" />
<glyph unicode="&#xde;" horiz-adv-x="1208" d="M61 0l304 1432h57l-72 -340h432q365 0 365 -265q0 -49 -12 -110q-43 -199 -166 -287t-346 -88h-433l-71 -342h-58zM201 391h438q176 0 289.5 70.5t152.5 255.5q12 59 13 102q0 125 -83 174t-233 49h-438z" />
<glyph unicode="&#xdf;" horiz-adv-x="1208" d="M51 0l225 1069q51 238 183.5 346.5t306.5 108.5q154 0 234.5 -79t80.5 -204q0 -43 -8 -82q-27 -129 -101.5 -219t-178.5 -127q123 -16 205.5 -92t82.5 -209q0 -37 -10 -94q-41 -193 -178 -321t-346 -128q-181 0 -275 43l11 49q59 -25 120.5 -35t153.5 -10q170 0 296 112 t165 290q10 51 10 86q0 141 -102.5 210.5t-253.5 69.5h-74l10 50h86q111 0 203 91t123 234q8 35 8 74q0 111 -74.5 177.5t-197.5 66.5q-143 0 -259 -94.5t-161 -307.5l-227 -1075h-58z" />
<glyph unicode="&#xe0;" horiz-adv-x="1275" d="M109 365q0 61 12 124q33 160 126 279t224 182.5t274 63.5q150 0 262.5 -70t151.5 -196l51 235h56l-209 -983h-56l50 231q-94 -129 -230.5 -195.5t-298.5 -66.5q-184 0 -298.5 106.5t-114.5 289.5zM160 369q0 -162 100 -256.5t272 -94.5q173 0 318 86t223 240l62 291 q-18 160 -121 245t-279 85q-125 0 -242.5 -58.5t-202.5 -167t-116 -250.5q-14 -76 -14 -120zM903 1493h58l71 -342h-45z" />
<glyph unicode="&#xe1;" horiz-adv-x="1275" d="M109 365q0 61 12 124q33 160 126 279t224 182.5t274 63.5q150 0 262.5 -70t151.5 -196l51 235h56l-209 -983h-56l50 231q-94 -129 -230.5 -195.5t-298.5 -66.5q-184 0 -298.5 106.5t-114.5 289.5zM160 369q0 -162 100 -256.5t272 -94.5q173 0 318 86t223 240l62 291 q-18 160 -121 245t-279 85q-125 0 -242.5 -58.5t-202.5 -167t-116 -250.5q-14 -76 -14 -120zM922 1151l219 342h57l-231 -342h-45z" />
<glyph unicode="&#xe2;" horiz-adv-x="1275" d="M109 365q0 61 12 124q33 160 126 279t224 182.5t274 63.5q150 0 262.5 -70t151.5 -196l51 235h56l-209 -983h-56l50 231q-94 -129 -230.5 -195.5t-298.5 -66.5q-184 0 -298.5 106.5t-114.5 289.5zM160 369q0 -162 100 -256.5t272 -94.5q173 0 318 86t223 240l62 291 q-18 160 -121 245t-279 85q-125 0 -242.5 -58.5t-202.5 -167t-116 -250.5q-14 -76 -14 -120zM668 1151l325 309h45l197 -309h-59l-166 264l-277 -264h-65z" />
<glyph unicode="&#xe3;" horiz-adv-x="1275" d="M109 365q0 61 12 124q33 160 126 279t224 182.5t274 63.5q150 0 262.5 -70t151.5 -196l51 235h56l-209 -983h-56l50 231q-94 -129 -230.5 -195.5t-298.5 -66.5q-184 0 -298.5 106.5t-114.5 289.5zM160 369q0 -162 100 -256.5t272 -94.5q173 0 318 86t223 240l62 291 q-18 160 -121 245t-279 85q-125 0 -242.5 -58.5t-202.5 -167t-116 -250.5q-14 -76 -14 -120zM524 1151l15 68q76 92 204 92q47 0 83 -12.5t87 -38.5q47 -25 83 -38.5t81 -13.5q57 0 107.5 24.5t99.5 86.5l-14 -68q-72 -92 -203 -92q-51 0 -90 13.5t-88 39.5q-49 25 -81 37.5 t-75 12.5q-55 0 -105 -25t-104 -86z" />
<glyph unicode="&#xe4;" horiz-adv-x="1275" d="M109 365q0 61 12 124q33 160 126 279t224 182.5t274 63.5q150 0 262.5 -70t151.5 -196l51 235h56l-209 -983h-56l50 231q-94 -129 -230.5 -195.5t-298.5 -66.5q-184 0 -298.5 106.5t-114.5 289.5zM160 369q0 -162 100 -256.5t272 -94.5q173 0 318 86t223 240l62 291 q-18 160 -121 245t-279 85q-125 0 -242.5 -58.5t-202.5 -167t-116 -250.5q-14 -76 -14 -120zM645 1229q4 23 24.5 40t43.5 17t37 -17.5t10 -39.5q-6 -23 -26.5 -40.5t-43.5 -17.5q-22 0 -36.5 17.5t-8.5 40.5zM1051 1229q4 23 24.5 40t42.5 17q23 0 37 -17.5t10 -39.5 q-6 -23 -26.5 -40.5t-42.5 -17.5q-23 0 -37.5 17.5t-7.5 40.5z" />
<glyph unicode="&#xe5;" horiz-adv-x="1275" d="M109 365q0 61 12 124q33 160 126 279t224 182.5t274 63.5q150 0 262.5 -70t151.5 -196l51 235h56l-209 -983h-56l50 231q-94 -129 -230.5 -195.5t-298.5 -66.5q-184 0 -298.5 106.5t-114.5 289.5zM160 369q0 -162 100 -256.5t272 -94.5q173 0 318 86t223 240l62 291 q-18 160 -121 245t-279 85q-125 0 -242.5 -58.5t-202.5 -167t-116 -250.5q-14 -76 -14 -120zM733 1257q0 57 33 109.5t86 84.5t111 32q68 0 109.5 -43t41.5 -107q0 -57 -33.5 -109.5t-87 -83t-110.5 -30.5q-66 0 -108 42t-42 105zM778 1266q0 -47 33 -80t82 -33 q59 0 108.5 42t63.5 101q4 20 4 29q0 49 -32.5 82t-84.5 33q-68 0 -121 -53.5t-53 -120.5z" />
<glyph unicode="&#xe6;" horiz-adv-x="2050" d="M70 203q0 39 8 71q66 309 454 310q225 0 392 -101l34 166q12 55 13 101q0 109 -74 162t-229 53q-162 0 -322 -60l12 51q66 25 153 41.5t167 16.5q180 0 265 -74t81 -205q76 131 211 205t305 74q203 0 306.5 -97.5t103.5 -265.5q0 -66 -15 -129l-12 -51h-946 q-14 -59 -14 -121q0 -166 110.5 -250t302.5 -84q94 0 189.5 17.5t171.5 44.5l-13 -49q-61 -25 -164.5 -42.5t-193.5 -17.5q-190 0 -306 78t-136 223q-78 -150 -203 -225.5t-328 -75.5q-149 0 -236 60.5t-87 173.5zM123 207q0 -188 297 -189q190 0 315 86t160 250l18 80 q-88 53 -177 77t-214 24q-180 0 -271 -64.5t-120 -196.5q-8 -33 -8 -67zM987 518h895q16 76 16 135q0 147 -89 230.5t-279 83.5q-219 0 -359.5 -125t-183.5 -324z" />
<glyph unicode="&#xe7;" horiz-adv-x="1118" d="M109 362q0 63 14 127q35 162 127 281t223 181.5t283 62.5q109 0 185.5 -20.5t131.5 -69.5l-10 -52q-61 51 -136 72t-182 21q-131 0 -249.5 -57.5t-203.5 -166t-116 -252.5q-14 -76 -14 -120q0 -164 101.5 -257.5t271.5 -93.5q117 0 204.5 24t178.5 77l-11 -51 q-145 -92 -350 -99l-72 -121q82 -4 122 -39.5t40 -97.5q0 -29 -4 -43q-18 -80 -80.5 -128t-165.5 -48q-28 0 -60 5t-50 11l12 50q16 -8 48 -12.5t61 -4.5q156 0 182 129q4 14 4 39q0 51 -43 76t-145 25l94 159q-176 8 -283.5 112.5t-107.5 280.5z" />
<glyph unicode="&#xe8;" horiz-adv-x="1243" d="M109 344q0 76 16 148q49 242 209 382t399 140q203 0 306.5 -97.5t103.5 -265.5q0 -66 -15 -129l-12 -51h-946q-14 -63 -14 -127q0 -162 106.5 -245t306.5 -83q94 0 189.5 17.5t171.5 44.5l-12 -49q-61 -25 -165 -42.5t-194 -17.5q-219 0 -334.5 97.5t-115.5 277.5z M180 518h895q16 76 17 137q0 145 -89.5 228.5t-279.5 83.5q-145 0 -259 -62.5t-185.5 -165t-98.5 -221.5zM696 1493h58l71 -342h-45z" />
<glyph unicode="&#xe9;" horiz-adv-x="1243" d="M109 344q0 76 16 148q49 242 209 382t399 140q203 0 306.5 -97.5t103.5 -265.5q0 -66 -15 -129l-12 -51h-946q-14 -63 -14 -127q0 -162 106.5 -245t306.5 -83q94 0 189.5 17.5t171.5 44.5l-12 -49q-61 -25 -165 -42.5t-194 -17.5q-219 0 -334.5 97.5t-115.5 277.5z M180 518h895q16 76 17 137q0 145 -89.5 228.5t-279.5 83.5q-145 0 -259 -62.5t-185.5 -165t-98.5 -221.5zM702 1151l220 342h57l-231 -342h-46z" />
<glyph unicode="&#xea;" horiz-adv-x="1243" d="M109 344q0 76 16 148q49 242 209 382t399 140q203 0 306.5 -97.5t103.5 -265.5q0 -66 -15 -129l-12 -51h-946q-14 -63 -14 -127q0 -162 106.5 -245t306.5 -83q94 0 189.5 17.5t171.5 44.5l-12 -49q-61 -25 -165 -42.5t-194 -17.5q-219 0 -334.5 97.5t-115.5 277.5z M180 518h895q16 76 17 137q0 145 -89.5 228.5t-279.5 83.5q-145 0 -259 -62.5t-185.5 -165t-98.5 -221.5zM485 1151l326 309h45l197 -309h-60l-166 264l-276 -264h-66z" />
<glyph unicode="&#xeb;" horiz-adv-x="1243" d="M109 344q0 76 16 148q49 242 209 382t399 140q203 0 306.5 -97.5t103.5 -265.5q0 -66 -15 -129l-12 -51h-946q-14 -63 -14 -127q0 -162 106.5 -245t306.5 -83q94 0 189.5 17.5t171.5 44.5l-12 -49q-61 -25 -165 -42.5t-194 -17.5q-219 0 -334.5 97.5t-115.5 277.5z M180 518h895q16 76 17 137q0 145 -89.5 228.5t-279.5 83.5q-145 0 -259 -62.5t-185.5 -165t-98.5 -221.5zM526 1229q4 23 24.5 40t43.5 17t37 -17.5t10 -39.5q-6 -23 -26.5 -40.5t-43.5 -17.5q-22 0 -36.5 17.5t-8.5 40.5zM932 1229q4 23 24.5 40t42.5 17q23 0 37.5 -17.5 t10.5 -39.5q-6 -23 -27 -40.5t-43 -17.5q-23 0 -37 17.5t-8 40.5z" />
<glyph unicode="&#xec;" horiz-adv-x="385" d="M61 0l209 983h58l-209 -983h-58zM236 1493h57l72 -342h-46z" />
<glyph unicode="&#xed;" horiz-adv-x="385" d="M61 0l209 983h58l-209 -983h-58zM315 1151l220 342h57l-232 -342h-45z" />
<glyph unicode="&#xee;" horiz-adv-x="385" d="M51 1151l326 309h45l196 -309h-59l-166 264l-276 -264h-66zM61 0l209 983h58l-209 -983h-58z" />
<glyph unicode="&#xef;" horiz-adv-x="385" d="M61 0l209 983h58l-209 -983h-58zM90 1229q4 23 24.5 40t43.5 17t37 -17.5t10 -39.5q-6 -23 -26.5 -40.5t-43.5 -17.5q-22 0 -36.5 17.5t-8.5 40.5zM496 1229q4 23 24.5 40t42.5 17q23 0 37 -17.5t10 -39.5q-6 -23 -26.5 -40.5t-42.5 -17.5q-23 0 -37.5 17.5t-7.5 40.5z " />
<glyph unicode="&#xf0;" horiz-adv-x="1228" d="M96 315q0 47 15 115q47 213 200.5 338t360.5 125q141 0 242.5 -79t125.5 -210q51 281 52 428q0 143 -45 234l-416 -168l12 49l383 156q-66 111 -293 110q-86 0 -139 -12l10 51q66 10 144 10q123 0 204.5 -33.5t130.5 -103.5l220 90l-11 -49l-192 -80q45 -92 45 -244 q0 -176 -68 -503q-39 -190 -131 -318.5t-215 -190t-256 -61.5q-174 0 -276.5 94.5t-102.5 251.5zM147 319q0 -139 88.5 -220t249.5 -81q121 0 227.5 57.5t178.5 153t94 201.5q10 43 10 98q0 141 -91 228.5t-242 87.5q-186 0 -323.5 -114t-178.5 -300q-12 -57 -13 -111z" />
<glyph unicode="&#xf1;" horiz-adv-x="1173" d="M61 0l209 983h58l-39 -182q102 113 224 163t245 50q158 0 233.5 -67.5t75.5 -188.5q0 -49 -12 -105l-137 -653h-58l137 651q12 55 13 103q0 211 -262 211q-264 0 -476 -242l-153 -723h-58zM379 1151l14 68q76 92 205 92q47 0 83 -12.5t87 -38.5q47 -25 83 -38.5t81 -13.5 q57 0 107.5 24.5t99.5 86.5l-15 -68q-72 -92 -202 -92q-51 0 -90 13.5t-89 39.5q-49 25 -80.5 37.5t-74.5 12.5q-55 0 -105.5 -25t-103.5 -86z" />
<glyph unicode="&#xf2;" horiz-adv-x="1273" d="M111 365q0 63 14 127q33 158 124 276.5t222 182t279 63.5q188 0 302.5 -106.5t114.5 -286.5q0 -66 -14 -129q-35 -158 -125 -276t-220 -182.5t-282 -64.5q-188 0 -301.5 107.5t-113.5 288.5zM164 362q0 -162 99 -253t274 -91q133 0 249.5 58.5t199.5 165t114 250.5 q14 76 14 122q0 164 -99.5 257.5t-275.5 93.5q-133 0 -250.5 -58.5t-199.5 -166t-111 -248.5q-14 -63 -14 -130zM674 1493h57l72 -342h-45z" />
<glyph unicode="&#xf3;" horiz-adv-x="1273" d="M111 365q0 63 14 127q33 158 124 276.5t222 182t279 63.5q188 0 302.5 -106.5t114.5 -286.5q0 -66 -14 -129q-35 -158 -125 -276t-220 -182.5t-282 -64.5q-188 0 -301.5 107.5t-113.5 288.5zM164 362q0 -162 99 -253t274 -91q133 0 249.5 58.5t199.5 165t114 250.5 q14 76 14 122q0 164 -99.5 257.5t-275.5 93.5q-133 0 -250.5 -58.5t-199.5 -166t-111 -248.5q-14 -63 -14 -130zM698 1151l220 342h57l-232 -342h-45z" />
<glyph unicode="&#xf4;" horiz-adv-x="1273" d="M111 365q0 63 14 127q33 158 124 276.5t222 182t279 63.5q188 0 302.5 -106.5t114.5 -286.5q0 -66 -14 -129q-35 -158 -125 -276t-220 -182.5t-282 -64.5q-188 0 -301.5 107.5t-113.5 288.5zM164 362q0 -162 99 -253t274 -91q133 0 249.5 58.5t199.5 165t114 250.5 q14 76 14 122q0 164 -99.5 257.5t-275.5 93.5q-133 0 -250.5 -58.5t-199.5 -166t-111 -248.5q-14 -63 -14 -130zM496 1151l325 309h45l197 -309h-59l-166 264l-277 -264h-65z" />
<glyph unicode="&#xf5;" horiz-adv-x="1273" d="M111 365q0 63 14 127q33 158 124 276.5t222 182t279 63.5q188 0 302.5 -106.5t114.5 -286.5q0 -66 -14 -129q-35 -158 -125 -276t-220 -182.5t-282 -64.5q-188 0 -301.5 107.5t-113.5 288.5zM164 362q0 -162 99 -253t274 -91q133 0 249.5 58.5t199.5 165t114 250.5 q14 76 14 122q0 164 -99.5 257.5t-275.5 93.5q-133 0 -250.5 -58.5t-199.5 -166t-111 -248.5q-14 -63 -14 -130zM416 1151l14 68q76 92 205 92q47 0 83 -12.5t87 -38.5q47 -25 83 -38.5t81 -13.5q57 0 107 24.5t100 86.5l-15 -68q-72 -92 -203 -92q-51 0 -90 13.5t-88 39.5 q-49 25 -80.5 37.5t-74.5 12.5q-55 0 -105.5 -25t-103.5 -86z" />
<glyph unicode="&#xf6;" horiz-adv-x="1273" d="M111 365q0 63 14 127q33 158 124 276.5t222 182t279 63.5q188 0 302.5 -106.5t114.5 -286.5q0 -66 -14 -129q-35 -158 -125 -276t-220 -182.5t-282 -64.5q-188 0 -301.5 107.5t-113.5 288.5zM164 362q0 -162 99 -253t274 -91q133 0 249.5 58.5t199.5 165t114 250.5 q14 76 14 122q0 164 -99.5 257.5t-275.5 93.5q-133 0 -250.5 -58.5t-199.5 -166t-111 -248.5q-14 -63 -14 -130zM535 1229q4 23 24.5 40t42.5 17q23 0 37 -17.5t10 -39.5q-6 -23 -26.5 -40.5t-42.5 -17.5q-23 0 -37.5 17.5t-7.5 40.5zM940 1229q4 23 24.5 40t43.5 17 t37 -17.5t10 -39.5q-6 -23 -26.5 -40.5t-43.5 -17.5q-22 0 -36.5 17.5t-8.5 40.5z" />
<glyph unicode="&#xf7;" horiz-adv-x="823" d="M141 575l11 50h577l-10 -50h-578zM328 342q0 25 21.5 44.5t45.5 19.5q18 0 30.5 -12.5t12.5 -31.5q0 -25 -20.5 -44t-44.5 -19q-19 0 -32 12.5t-13 30.5zM434 848q4 20 23.5 36.5t42.5 16.5q20 0 32.5 -15.5t8.5 -37.5q-2 -20 -21.5 -36.5t-42.5 -16.5q-20 0 -33.5 15 t-9.5 38z" />
<glyph unicode="&#xf8;" horiz-adv-x="1273" d="M111 360q0 66 14 132q33 154 123 272.5t221 184t281 65.5q90 0 170 -29l106 174h57l-118 -192q96 -49 149 -139.5t53 -211.5q0 -49 -14 -124q-33 -156 -123 -274t-221 -183.5t-283 -65.5q-86 0 -157 25l-105 -170h-57l115 186q-100 47 -155.5 137.5t-55.5 212.5zM162 360 q0 -109 48 -186.5t138 -118.5l543 885q-68 25 -152 25q-133 0 -250.5 -58.5t-199.5 -166t-111 -248.5q-16 -76 -16 -132zM397 39q59 -20 140 -21q133 0 249.5 58.5t199.5 165t114 250.5q14 76 14 122q0 109 -45 187t-133 121z" />
<glyph unicode="&#xf9;" horiz-adv-x="1173" d="M113 248q0 41 10 92l137 643h57l-137 -639q-12 -51 -12 -98q0 -106 68.5 -167t212.5 -61q129 0 238.5 57.5t215.5 184.5l156 723h57l-209 -983h-57l37 182q-186 -213 -449 -213q-162 0 -243.5 77t-81.5 202zM670 1493h57l72 -342h-45z" />
<glyph unicode="&#xfa;" horiz-adv-x="1173" d="M113 248q0 41 10 92l137 643h57l-137 -639q-12 -51 -12 -98q0 -106 68.5 -167t212.5 -61q129 0 238.5 57.5t215.5 184.5l156 723h57l-209 -983h-57l37 182q-186 -213 -449 -213q-162 0 -243.5 77t-81.5 202zM696 1151l219 342h58l-232 -342h-45z" />
<glyph unicode="&#xfb;" horiz-adv-x="1173" d="M113 248q0 41 10 92l137 643h57l-137 -639q-12 -51 -12 -98q0 -106 68.5 -167t212.5 -61q129 0 238.5 57.5t215.5 184.5l156 723h57l-209 -983h-57l37 182q-186 -213 -449 -213q-162 0 -243.5 77t-81.5 202zM428 1151l326 309h45l196 -309h-59l-166 264l-276 -264h-66z " />
<glyph unicode="&#xfc;" horiz-adv-x="1173" d="M113 248q0 41 10 92l137 643h57l-137 -639q-12 -51 -12 -98q0 -106 68.5 -167t212.5 -61q129 0 238.5 57.5t215.5 184.5l156 723h57l-209 -983h-57l37 182q-186 -213 -449 -213q-162 0 -243.5 77t-81.5 202zM479 1229q4 23 24.5 40t43.5 17t37 -17.5t10 -39.5 q-6 -23 -26.5 -40.5t-43.5 -17.5q-22 0 -36.5 17.5t-8.5 40.5zM885 1229q4 23 24.5 40t42.5 17q23 0 37.5 -17.5t9.5 -39.5q-6 -23 -26.5 -40.5t-42.5 -17.5q-23 0 -37 17.5t-8 40.5z" />
<glyph unicode="&#xfd;" horiz-adv-x="1087" d="M14 -403l11 51q129 -70 329 -70q217 0 335 105.5t163 326.5l39 193q-186 -213 -449 -213q-162 0 -243.5 76.5t-81.5 201.5q0 41 10 92l133 623h57l-133 -618q-12 -51 -12 -99q0 -106 68.5 -166.5t212.5 -60.5q129 0 238.5 57.5t215.5 184.5l152 702h57l-205 -960 q-55 -254 -184 -374t-383 -120q-100 0 -190.5 18.5t-139.5 49.5zM653 1151l219 342h58l-232 -342h-45z" />
<glyph unicode="&#xfe;" horiz-adv-x="1327" d="M-35 -449l400 1881h57l-143 -680q92 127 229 194.5t297 67.5q184 0 300 -105.5t116 -287.5q0 -63 -15 -127q-33 -156 -125 -275t-222 -184.5t-277 -65.5t-261 70t-153 197l-145 -685h-58zM193 348q8 -154 118.5 -242t280.5 -88q125 0 242.5 58.5t202.5 167t116 250.5 q12 66 12 118q0 164 -101 258.5t-269 94.5q-170 0 -314.5 -86t-226.5 -240z" />
<glyph unicode="&#xff;" horiz-adv-x="1087" d="M14 -403l11 51q129 -70 329 -70q217 0 335 105.5t163 326.5l39 193q-186 -213 -449 -213q-162 0 -243.5 76.5t-81.5 201.5q0 41 10 92l133 623h57l-133 -618q-12 -51 -12 -99q0 -106 68.5 -166.5t212.5 -60.5q129 0 238.5 57.5t215.5 184.5l152 702h57l-205 -960 q-55 -254 -184 -374t-383 -120q-100 0 -190.5 18.5t-139.5 49.5zM457 1229q4 23 24.5 40t42.5 17q23 0 37 -17.5t10 -39.5q-6 -23 -26.5 -40.5t-42.5 -17.5q-23 0 -37 17.5t-8 40.5zM862 1229q4 23 24.5 40t43.5 17t37 -17.5t10 -39.5q-6 -23 -26.5 -40.5t-43.5 -17.5 q-22 0 -36.5 17.5t-8.5 40.5z" />
<glyph unicode="&#x100;" horiz-adv-x="1433" d="M20 0l875 1432h45l268 -1432h-53l-84 440h-721l-268 -440h-62zM381 489h680l-158 857zM686 1690l12 49h570l-13 -49h-569z" />
<glyph unicode="&#x101;" horiz-adv-x="1275" d="M109 365q0 61 12 124q33 160 126 279t224 182.5t274 63.5q150 0 262.5 -70t151.5 -196l51 235h56l-209 -983h-56l50 231q-94 -129 -230.5 -195.5t-298.5 -66.5q-184 0 -298.5 106.5t-114.5 289.5zM160 369q0 -162 100 -256.5t272 -94.5q173 0 318 86t223 240l62 291 q-18 160 -121 245t-279 85q-125 0 -242.5 -58.5t-202.5 -167t-116 -250.5q-14 -76 -14 -120zM614 1219l13 49h569l-12 -49h-570z" />
<glyph unicode="&#x102;" horiz-adv-x="1433" d="M20 0l875 1432h45l268 -1432h-53l-84 440h-721l-268 -440h-62zM381 489h680l-158 857zM748 1751q0 23 6 47h45q-4 -25 -4 -39q0 -59 42 -97t117 -38q88 0 150.5 49t79.5 125h53q-20 -94 -101 -157.5t-188 -63.5q-92 0 -146 49t-54 125z" />
<glyph unicode="&#x103;" horiz-adv-x="1275" d="M109 365q0 61 12 124q33 160 126 279t224 182.5t274 63.5q150 0 262.5 -70t151.5 -196l51 235h56l-209 -983h-56l50 231q-94 -129 -230.5 -195.5t-298.5 -66.5q-184 0 -298.5 106.5t-114.5 289.5zM160 369q0 -162 100 -256.5t272 -94.5q173 0 318 86t223 240l62 291 q-18 160 -121 245t-279 85q-125 0 -242.5 -58.5t-202.5 -167t-116 -250.5q-14 -76 -14 -120zM715 1362q0 23 6 47h45q-4 -25 -4 -39q0 -59 42 -97t118 -38q88 0 150.5 49t78.5 125h53q-20 -94 -101 -157.5t-188 -63.5q-92 0 -146 49t-54 125z" />
<glyph unicode="&#x104;" horiz-adv-x="1445" d="M20 0l875 1432h45l268 -1432q-188 -125 -215 -256q-4 -25 -4 -33q0 -41 25.5 -62.5t68.5 -21.5q51 0 97 17l-13 -50q-39 -16 -94 -16q-59 0 -98 32t-39 91q0 86 63.5 167t155.5 132l-84 440h-721l-268 -440h-62zM381 489h680l-158 857z" />
<glyph unicode="&#x105;" horiz-adv-x="1320" d="M109 365q0 61 12 124q33 160 126 279t224 182.5t274 63.5q150 0 262.5 -70t151.5 -196l51 235h56l-209 -983q-188 -125 -215 -256q-4 -25 -4 -33q0 -41 25.5 -62.5t68.5 -21.5q51 0 96 17l-12 -50q-39 -16 -94 -16q-60 0 -99 32t-39 91q0 86 63.5 166t153.5 133l50 231 q-94 -129 -230.5 -195.5t-298.5 -66.5q-184 0 -298.5 106.5t-114.5 289.5zM160 369q0 -162 100 -256.5t272 -94.5q173 0 318 86t223 240l62 291q-18 160 -121 245t-279 85q-125 0 -242.5 -58.5t-202.5 -167t-116 -250.5q-14 -76 -14 -120z" />
<glyph unicode="&#x106;" horiz-adv-x="1490" d="M152 537q0 90 20 178q49 221 180 390t317.5 263t399.5 94q297 0 453 -168l-15 -59q-145 178 -448 178q-193 0 -367 -86t-299 -244.5t-168 -367.5q-20 -88 -20 -176q0 -160 69.5 -278t195.5 -180.5t292 -62.5q158 0 292 45.5t255 147.5l-13 -64q-217 -178 -544 -178 q-179 0 -315 71t-210.5 200t-74.5 297zM1018 1622l219 342h57l-231 -342h-45z" />
<glyph unicode="&#x107;" horiz-adv-x="1118" d="M109 362q0 63 14 127q35 162 127 281t223 181.5t283 62.5q109 0 185.5 -20.5t131.5 -69.5l-10 -52q-61 51 -136 72t-182 21q-131 0 -249.5 -57.5t-203.5 -166t-116 -252.5q-14 -76 -14 -120q0 -164 101.5 -257.5t271.5 -93.5q117 0 204.5 24t178.5 77l-11 -51 q-82 -51 -175 -75t-208 -24q-184 0 -299.5 105.5t-115.5 287.5zM748 1151l219 342h57l-231 -342h-45z" />
<glyph unicode="&#x108;" horiz-adv-x="1490" d="M152 537q0 90 20 178q49 221 180 390t317.5 263t399.5 94q297 0 453 -168l-15 -59q-145 178 -448 178q-193 0 -367 -86t-299 -244.5t-168 -367.5q-20 -88 -20 -176q0 -160 69.5 -278t195.5 -180.5t292 -62.5q158 0 292 45.5t255 147.5l-13 -64q-217 -178 -544 -178 q-179 0 -315 71t-210.5 200t-74.5 297zM801 1610l325 309h45l197 -309h-59l-166 264l-277 -264h-65z" />
<glyph unicode="&#x109;" horiz-adv-x="1118" d="M109 362q0 63 14 127q35 162 127 281t223 181.5t283 62.5q109 0 185.5 -20.5t131.5 -69.5l-10 -52q-61 51 -136 72t-182 21q-131 0 -249.5 -57.5t-203.5 -166t-116 -252.5q-14 -76 -14 -120q0 -164 101.5 -257.5t271.5 -93.5q117 0 204.5 24t178.5 77l-11 -51 q-82 -51 -175 -75t-208 -24q-184 0 -299.5 105.5t-115.5 287.5zM508 1151l326 309h45l196 -309h-59l-166 264l-277 -264h-65z" />
<glyph unicode="&#x10a;" horiz-adv-x="1490" d="M152 537q0 90 20 178q49 221 180 390t317.5 263t399.5 94q297 0 453 -168l-15 -59q-145 178 -448 178q-193 0 -367 -86t-299 -244.5t-168 -367.5q-20 -88 -20 -176q0 -160 69.5 -278t195.5 -180.5t292 -62.5q158 0 292 45.5t255 147.5l-13 -64q-217 -178 -544 -178 q-179 0 -315 71t-210.5 200t-74.5 297zM1069 1700q4 23 24.5 40t43.5 17t37 -17.5t10 -39.5q-6 -23 -26.5 -40.5t-43.5 -17.5q-22 0 -36.5 17.5t-8.5 40.5z" />
<glyph unicode="&#x10b;" horiz-adv-x="1118" d="M109 362q0 63 14 127q35 162 127 281t223 181.5t283 62.5q109 0 185.5 -20.5t131.5 -69.5l-10 -52q-61 51 -136 72t-182 21q-131 0 -249.5 -57.5t-203.5 -166t-116 -252.5q-14 -76 -14 -120q0 -164 101.5 -257.5t271.5 -93.5q117 0 204.5 24t178.5 77l-11 -51 q-82 -51 -175 -75t-208 -24q-184 0 -299.5 105.5t-115.5 287.5zM745 1229q4 23 25 40t43 17q23 0 37 -17.5t10 -39.5q-6 -23 -26.5 -40.5t-42.5 -17.5q-23 0 -37.5 17.5t-8.5 40.5z" />
<glyph unicode="&#x10c;" horiz-adv-x="1490" d="M152 537q0 90 20 178q49 221 180 390t317.5 263t399.5 94q297 0 453 -168l-15 -59q-145 178 -448 178q-193 0 -367 -86t-299 -244.5t-168 -367.5q-20 -88 -20 -176q0 -160 69.5 -278t195.5 -180.5t292 -62.5q158 0 292 45.5t255 147.5l-13 -64q-217 -178 -544 -178 q-179 0 -315 71t-210.5 200t-74.5 297zM879 1944h59l164 -265l278 265h68l-328 -310h-45z" />
<glyph unicode="&#x10d;" horiz-adv-x="1118" d="M109 362q0 63 14 127q35 162 127 281t223 181.5t283 62.5q109 0 185.5 -20.5t131.5 -69.5l-10 -52q-61 51 -136 72t-182 21q-131 0 -249.5 -57.5t-203.5 -166t-116 -252.5q-14 -76 -14 -120q0 -164 101.5 -257.5t271.5 -93.5q117 0 204.5 24t178.5 77l-11 -51 q-82 -51 -175 -75t-208 -24q-184 0 -299.5 105.5t-115.5 287.5zM561 1460h60l163 -264l279 264h67l-327 -309h-45z" />
<glyph unicode="&#x10e;" horiz-adv-x="1425" d="M61 0l304 1432h407q289 0 446.5 -137.5t157.5 -381.5q0 -84 -22 -190q-80 -365 -311.5 -544t-616.5 -179h-365zM129 49h283q745 0 888 674q23 106 23 188q0 227 -144.5 349t-426.5 122h-340zM604 1944h60l163 -265l279 265h68l-328 -310h-45z" />
<glyph unicode="&#x10f;" horiz-adv-x="1550" d="M102 328q0 59 13 123q33 160 126 278.5t224 182t274 63.5q152 0 267.5 -68.5t146.5 -197.5l164 766h57l-321 -1514h-58l49 232q-88 -129 -223 -196t-305 -67q-186 0 -300 106.5t-114 291.5zM156 332q0 -164 101 -258t269 -94q172 0 317.5 86t223.5 239l61 291 q-8 156 -114.5 243t-284.5 87q-125 0 -242.5 -58.5t-202.5 -167t-116 -249.5q-12 -63 -12 -119zM1444 1233l219 342h57l-231 -342h-45z" />
<glyph unicode="&#x110;" horiz-adv-x="1484" d="M104 690l11 49h161l148 693h407q289 0 446 -137.5t157 -383.5q0 -94 -21 -188q-78 -360 -314.5 -541.5t-615.5 -181.5h-362l145 690h-162zM188 49h283q745 0 889 674q20 96 20 186q0 227 -145 350t-428 123h-336l-137 -643h463l-11 -49h-462z" />
<glyph unicode="&#x111;" horiz-adv-x="1361" d="M109 362q0 63 14 127q33 156 126 275t225 184.5t274 65.5q150 0 264 -71t149 -195l88 415h-487l10 49h488l65 301h57l-65 -301h137l-10 -49h-137l-246 -1163h-57l49 231q-96 -127 -232.5 -194.5t-296.5 -67.5q-184 0 -299.5 105.5t-115.5 287.5zM162 369 q0 -162 101.5 -256.5t271.5 -94.5q172 0 317 86t223 240l62 291q-8 156 -116 243t-284 87q-125 0 -242.5 -58.5t-202.5 -167t-116 -250.5q-14 -76 -14 -120z" />
<glyph unicode="&#x112;" horiz-adv-x="1161" d="M61 0l304 1432h874l-10 -50h-817l-138 -641h621l-10 -49h-621l-135 -643h817l-10 -49h-875zM561 1690l12 49h570l-13 -49h-569z" />
<glyph unicode="&#x113;" horiz-adv-x="1243" d="M109 344q0 76 16 148q49 242 209 382t399 140q203 0 306.5 -97.5t103.5 -265.5q0 -66 -15 -129l-12 -51h-946q-14 -63 -14 -127q0 -162 106.5 -245t306.5 -83q94 0 189.5 17.5t171.5 44.5l-12 -49q-61 -25 -165 -42.5t-194 -17.5q-219 0 -334.5 97.5t-115.5 277.5z M180 518h895q16 76 17 137q0 145 -89.5 228.5t-279.5 83.5q-145 0 -259 -62.5t-185.5 -165t-98.5 -221.5zM483 1198l13 49h569l-12 -49h-570z" />
<glyph unicode="&#x114;" horiz-adv-x="1161" d="M61 0l304 1432h874l-10 -50h-817l-138 -641h621l-10 -49h-621l-135 -643h817l-10 -49h-875zM610 1751q0 23 6 47h46q-4 -25 -5 -39q0 -59 42 -97t118 -38q88 0 150.5 49t79.5 125h53q-20 -94 -101 -157.5t-188 -63.5q-92 0 -146.5 49t-54.5 125z" />
<glyph unicode="&#x115;" horiz-adv-x="1243" d="M109 344q0 76 16 148q49 242 209 382t399 140q203 0 306.5 -97.5t103.5 -265.5q0 -66 -15 -129l-12 -51h-946q-14 -63 -14 -127q0 -162 106.5 -245t306.5 -83q94 0 189.5 17.5t171.5 44.5l-12 -49q-61 -25 -165 -42.5t-194 -17.5q-219 0 -334.5 97.5t-115.5 277.5z M180 518h895q16 76 17 137q0 145 -89.5 228.5t-279.5 83.5q-145 0 -259 -62.5t-185.5 -165t-98.5 -221.5zM567 1325q0 23 6 47h45q-4 -25 -4 -39q0 -59 42 -97t118 -38q88 0 150.5 49t79.5 125h53q-20 -94 -101.5 -157.5t-187.5 -63.5q-92 0 -146.5 49t-54.5 125z" />
<glyph unicode="&#x116;" horiz-adv-x="1161" d="M61 0l304 1432h874l-10 -50h-817l-138 -641h621l-10 -49h-621l-135 -643h817l-10 -49h-875zM760 1700q4 23 24.5 40t42.5 17q23 0 37.5 -17.5t9.5 -39.5q-6 -23 -26.5 -40.5t-42.5 -17.5q-23 0 -37 17.5t-8 40.5z" />
<glyph unicode="&#x117;" horiz-adv-x="1243" d="M109 344q0 76 16 148q49 242 209 382t399 140q203 0 306.5 -97.5t103.5 -265.5q0 -66 -15 -129l-12 -51h-946q-14 -63 -14 -127q0 -162 106.5 -245t306.5 -83q94 0 189.5 17.5t171.5 44.5l-12 -49q-61 -25 -165 -42.5t-194 -17.5q-219 0 -334.5 97.5t-115.5 277.5z M180 518h895q16 76 17 137q0 145 -89.5 228.5t-279.5 83.5q-145 0 -259 -62.5t-185.5 -165t-98.5 -221.5zM752 1239q4 23 24.5 40t42.5 17q23 0 37 -17t10 -40q-6 -23 -26.5 -40t-42.5 -17q-23 0 -37.5 17.5t-7.5 39.5z" />
<glyph unicode="&#x118;" horiz-adv-x="1161" d="M61 0l304 1432h874l-10 -50h-817l-138 -641h621l-10 -49h-621l-135 -643h817l-10 -49h-10q-188 -125 -215 -256q-4 -25 -4 -33q0 -41 25.5 -62.5t68.5 -21.5q51 0 96 17l-12 -50q-39 -16 -94 -16q-60 0 -99 32t-39 91q0 86 62.5 166t152.5 133h-807z" />
<glyph unicode="&#x119;" horiz-adv-x="1243" d="M109 346q0 63 16 146q51 242 211 382t397 140q203 0 306.5 -97.5t103.5 -265.5q0 -66 -15 -129l-12 -51h-946q-14 -63 -14 -127q0 -162 106.5 -245t306.5 -83q94 0 189.5 17.5t171.5 44.5l-12 -49q-47 -18 -142 -37q-176 -121 -201 -248q-4 -25 -4 -33q0 -41 26 -62.5 t69 -21.5q51 0 96 17l-12 -50q-39 -16 -95 -16q-59 0 -98 33t-39 92q0 12 4 41q14 68 62.5 128t113.5 108q-78 -10 -139 -11q-219 0 -334.5 98.5t-115.5 278.5zM180 518h895q16 76 17 137q0 145 -89.5 228.5t-279.5 83.5q-145 0 -259 -62.5t-185.5 -165t-98.5 -221.5z" />
<glyph unicode="&#x11a;" horiz-adv-x="1161" d="M61 0l304 1432h874l-10 -50h-817l-138 -641h621l-10 -49h-621l-135 -643h817l-10 -49h-875zM584 1944h59l164 -265l278 265h68l-328 -310h-45z" />
<glyph unicode="&#x11b;" horiz-adv-x="1243" d="M109 344q0 76 16 148q49 242 209 382t399 140q203 0 306.5 -97.5t103.5 -265.5q0 -66 -15 -129l-12 -51h-946q-14 -63 -14 -127q0 -162 106.5 -245t306.5 -83q94 0 189.5 17.5t171.5 44.5l-12 -49q-61 -25 -165 -42.5t-194 -17.5q-219 0 -334.5 97.5t-115.5 277.5z M180 518h895q16 76 17 137q0 145 -89.5 228.5t-279.5 83.5q-145 0 -259 -62.5t-185.5 -165t-98.5 -221.5zM559 1460h59l164 -264l279 264h67l-327 -309h-45z" />
<glyph unicode="&#x11c;" horiz-adv-x="1490" d="M152 535q0 90 20 180q47 219 179 389t320.5 264t397.5 94q301 0 451 -162l-13 -61q-76 92 -185.5 133t-262.5 41q-193 0 -367 -86t-299 -244.5t-168 -367.5q-20 -90 -20 -180q0 -242 150.5 -379.5t406.5 -137.5q139 0 253.5 33t225.5 107l115 536h-363l11 49h419 l-127 -596q-203 -178 -544 -178q-179 0 -315 70t-210.5 198t-74.5 298zM801 1585l325 309h45l197 -309h-59l-166 264l-277 -264h-65z" />
<glyph unicode="&#x11d;" horiz-adv-x="1327" d="M111 369q0 47 14 125q33 158 126 275.5t224 181t273 63.5q160 0 266 -67.5t149 -194.5l49 231h58l-205 -960q-53 -248 -200.5 -371t-407.5 -123q-101 0 -191 18.5t-139 49.5l10 51q129 -70 330 -70q451 0 539 432l45 219q-90 -127 -231.5 -193.5t-295.5 -66.5 q-186 0 -299.5 108.5t-113.5 291.5zM166 373q0 -164 100.5 -259.5t268.5 -95.5q163 0 316 89.5t226 240.5l62 291q-14 156 -122 241t-280 85q-125 0 -241.5 -58.5t-201.5 -166t-116 -246.5q-12 -63 -12 -121zM541 1151l325 309h45l197 -309h-59l-166 264l-277 -264h-65z" />
<glyph unicode="&#x11e;" horiz-adv-x="1490" d="M152 535q0 90 20 180q47 219 179 389t320.5 264t397.5 94q301 0 451 -162l-13 -61q-76 92 -185.5 133t-262.5 41q-193 0 -367 -86t-299 -244.5t-168 -367.5q-20 -90 -20 -180q0 -242 150.5 -379.5t406.5 -137.5q139 0 253.5 33t225.5 107l115 536h-363l11 49h419 l-127 -596q-203 -178 -544 -178q-179 0 -315 70t-210.5 198t-74.5 298zM850 1702q0 23 6 47h45q-4 -25 -4 -39q0 -59 42 -97t118 -38q88 0 150.5 49t78.5 125h53q-20 -94 -101 -157.5t-187 -63.5q-93 0 -147 49t-54 125z" />
<glyph unicode="&#x11f;" horiz-adv-x="1327" d="M111 369q0 47 14 125q33 158 126 275.5t224 181t273 63.5q160 0 266 -67.5t149 -194.5l49 231h58l-205 -960q-53 -248 -200.5 -371t-407.5 -123q-101 0 -191 18.5t-139 49.5l10 51q129 -70 330 -70q451 0 539 432l45 219q-90 -127 -231.5 -193.5t-295.5 -66.5 q-186 0 -299.5 108.5t-113.5 291.5zM166 373q0 -164 100.5 -259.5t268.5 -95.5q163 0 316 89.5t226 240.5l62 291q-14 156 -122 241t-280 85q-125 0 -241.5 -58.5t-201.5 -166t-116 -246.5q-12 -63 -12 -121zM588 1325q0 23 6 47h45q-4 -25 -4 -39q0 -59 42 -97t118 -38 q88 0 150.5 49t78.5 125h53q-20 -94 -101 -157.5t-188 -63.5q-92 0 -146 49t-54 125z" />
<glyph unicode="&#x120;" horiz-adv-x="1490" d="M152 535q0 90 20 180q47 219 179 389t320.5 264t397.5 94q301 0 451 -162l-13 -61q-76 92 -185.5 133t-262.5 41q-193 0 -367 -86t-299 -244.5t-168 -367.5q-20 -90 -20 -180q0 -242 150.5 -379.5t406.5 -137.5q139 0 253.5 33t225.5 107l115 536h-363l11 49h419 l-127 -596q-203 -178 -544 -178q-179 0 -315 70t-210.5 198t-74.5 298zM1034 1620q4 23 24.5 40t43.5 17t37 -17.5t10 -39.5q-6 -23 -26.5 -40t-43.5 -17q-22 0 -36.5 17t-8.5 40z" />
<glyph unicode="&#x121;" horiz-adv-x="1327" d="M111 369q0 47 14 125q33 158 126 275.5t224 181t273 63.5q160 0 266 -67.5t149 -194.5l49 231h58l-205 -960q-53 -248 -200.5 -371t-407.5 -123q-101 0 -191 18.5t-139 49.5l10 51q129 -70 330 -70q451 0 539 432l45 219q-90 -127 -231.5 -193.5t-295.5 -66.5 q-186 0 -299.5 108.5t-113.5 291.5zM166 373q0 -164 100.5 -259.5t268.5 -95.5q163 0 316 89.5t226 240.5l62 291q-14 156 -122 241t-280 85q-125 0 -241.5 -58.5t-201.5 -166t-116 -246.5q-12 -63 -12 -121zM772 1239q4 23 24.5 40t43.5 17t37 -17t10 -40q-6 -23 -26.5 -40 t-43.5 -17q-22 0 -36.5 17.5t-8.5 39.5z" />
<glyph unicode="&#x122;" horiz-adv-x="1490" d="M152 535q0 90 20 180q47 219 179 389t320.5 264t397.5 94q301 0 451 -162l-13 -61q-76 92 -185.5 133t-262.5 41q-193 0 -367 -86t-299 -244.5t-168 -367.5q-20 -90 -20 -180q0 -242 150.5 -379.5t406.5 -137.5q139 0 253.5 33t225.5 107l115 536h-363l11 49h419 l-127 -596q-203 -178 -544 -178q-179 0 -315 70t-210.5 198t-74.5 298zM453 -530l245 387h64l-258 -387h-51z" />
<glyph unicode="&#x123;" horiz-adv-x="1327" d="M111 369q0 47 14 125q33 158 126 275.5t224 181t273 63.5q160 0 266 -67.5t149 -194.5l49 231h58l-205 -960q-53 -248 -200.5 -371t-407.5 -123q-101 0 -191 18.5t-139 49.5l10 51q129 -70 330 -70q451 0 539 432l45 219q-90 -127 -231.5 -193.5t-295.5 -66.5 q-186 0 -299.5 108.5t-113.5 291.5zM166 373q0 -164 100.5 -259.5t268.5 -95.5q163 0 316 89.5t226 240.5l62 291q-14 156 -122 241t-280 85q-125 0 -241.5 -58.5t-201.5 -166t-116 -246.5q-12 -63 -12 -121zM752 1151l258 387h51l-246 -387h-63z" />
<glyph unicode="&#x124;" horiz-adv-x="1376" d="M61 0l304 1432h57l-143 -676h933l144 676h57l-303 -1432h-57l149 707h-934l-149 -707h-58zM649 1634l326 310h45l197 -310h-60l-166 264l-276 -264h-66z" />
<glyph unicode="&#x125;" horiz-adv-x="1173" d="M61 0l322 1513h57l-151 -712q102 113 224 163t245 50q158 0 233.5 -67.5t75.5 -188.5q0 -49 -12 -105l-137 -653h-58l137 651q12 59 13 109q0 100 -61.5 152.5t-200.5 52.5q-264 0 -476 -242l-153 -723h-58zM403 1573l326 309h45l197 -309h-60l-166 264l-276 -264h-66z " />
<glyph unicode="&#x126;" horiz-adv-x="1441" d="M80 0l225 1063h-100l10 49h100l68 320h57l-67 -320h934l67 320h58l-68 -320h129l-10 -49h-129l-226 -1063h-57l150 707h-934l-150 -707h-57zM297 756h934l65 307h-934z" />
<glyph unicode="&#x127;" horiz-adv-x="1191" d="M80 0l250 1184h-101l11 49h100l61 280h58l-62 -280h422l-10 -49h-422l-80 -383q102 113 224 163t245 50q158 0 233.5 -67.5t75.5 -188.5q0 -49 -12 -105l-137 -653h-57l137 651q12 55 12 103q0 211 -262 211q-264 0 -475 -242l-154 -723h-57z" />
<glyph unicode="&#x128;" horiz-adv-x="385" d="M61 0l304 1432h57l-303 -1432h-58zM70 1610l14 67q76 92 205 92q47 0 83 -12t87 -39q47 -25 83 -38t81 -13q57 0 107 24.5t99 86.5l-14 -68q-72 -92 -203 -92q-51 0 -90 13.5t-88 39.5q-49 25 -80.5 37t-74.5 12q-55 0 -105.5 -24.5t-103.5 -85.5z" />
<glyph unicode="&#x129;" horiz-adv-x="385" d="M-29 1151l15 68q76 92 204 92q47 0 83 -12.5t87 -38.5q47 -25 83 -38.5t81 -13.5q57 0 107.5 24.5t99.5 86.5l-14 -68q-72 -92 -203 -92q-51 0 -90 13.5t-88 39.5q-49 25 -81 37.5t-75 12.5q-55 0 -105 -25t-104 -86zM61 0l209 983h58l-209 -983h-58z" />
<glyph unicode="&#x12a;" horiz-adv-x="385" d="M61 0l304 1432h57l-303 -1432h-58zM137 1567l13 49h569l-12 -49h-570z" />
<glyph unicode="&#x12b;" horiz-adv-x="385" d="M59 1198l13 49h569l-12 -49h-570zM61 0l209 983h58l-209 -983h-58z" />
<glyph unicode="&#x12c;" horiz-adv-x="385" d="M61 0l304 1432h57l-303 -1432h-58zM225 1765q0 23 6 47h45q-4 -25 -4 -38q0 -59 42 -97.5t118 -38.5q88 0 150.5 49.5t79.5 124.5h53q-20 -94 -101.5 -157.5t-187.5 -63.5q-92 0 -146.5 49.5t-54.5 124.5z" />
<glyph unicode="&#x12d;" horiz-adv-x="385" d="M61 0l209 983h58l-209 -983h-58zM133 1325q0 23 6 47h45q-4 -25 -4 -39q0 -59 42 -97t118 -38q88 0 150.5 49t78.5 125h54q-20 -94 -101.5 -157.5t-187.5 -63.5q-92 0 -146.5 49t-54.5 125z" />
<glyph unicode="&#x12e;" horiz-adv-x="385" d="M-154 -299q0 86 62.5 166t152.5 133l304 1432h57l-303 -1432q-188 -125 -215 -256q-4 -25 -4 -33q0 -41 25.5 -62.5t68.5 -21.5q51 0 96 17l-12 -50q-39 -16 -94 -16q-59 0 -98.5 32t-39.5 91z" />
<glyph unicode="&#x12f;" horiz-adv-x="434" d="M-129 -299q0 86 62.5 166t152.5 133l209 983h57l-209 -983q-188 -125 -215 -256q-4 -25 -4 -33q0 -41 25.5 -62.5t68.5 -21.5q51 0 97 17l-13 -50q-39 -16 -94 -16q-59 0 -98 32t-39 91zM332 1280q0 25 21.5 44t45.5 19q19 0 31 -12t12 -31q0 -25 -20.5 -44t-44.5 -19 q-18 0 -31.5 12.5t-13.5 30.5z" />
<glyph unicode="&#x130;" horiz-adv-x="385" d="M61 0l304 1432h57l-303 -1432h-58zM377 1620q4 23 24.5 40t42.5 17q23 0 37.5 -17.5t10.5 -39.5q-6 -23 -27 -40t-43 -17q-23 0 -37 17t-8 40z" />
<glyph unicode="&#x131;" horiz-adv-x="385" d="M61 0l209 983h58l-209 -983h-58z" />
<glyph unicode="&#x132;" horiz-adv-x="1134" d="M61 0l304 1432h57l-303 -1432h-58zM399 -8l11 49q29 -10 77 -17.5t84 -7.5q123 0 201 61.5t105 184.5l247 1170h58l-248 -1170q-33 -147 -128 -220t-231 -73q-47 0 -96 6.5t-80 16.5z" />
<glyph unicode="&#x133;" horiz-adv-x="731" d="M-18 -461l10 51q43 -14 100 -14q111 0 167 52.5t81 170.5l252 1184h57l-252 -1180q-31 -147 -105.5 -211.5t-193.5 -64.5q-65 0 -116 12zM86 0l209 983h57l-209 -983h-57zM332 1280q0 25 21.5 44t45.5 19q18 0 30.5 -12t12.5 -31q0 -25 -20.5 -44t-44.5 -19 q-19 0 -32 12.5t-13 30.5zM629 1280q0 25 21.5 44t45.5 19q18 0 30.5 -12t12.5 -31q0 -25 -20.5 -44t-44.5 -19q-19 0 -32 12.5t-13 30.5z" />
<glyph unicode="&#x134;" horiz-adv-x="712" d="M-23 -8l11 49q29 -10 77 -17.5t85 -7.5q123 0 200.5 61.5t104.5 184.5l247 1170h58l-248 -1170q-33 -147 -128 -220t-230 -73q-48 0 -97 6.5t-80 16.5zM481 1585l326 309h45l197 -309h-60l-166 264l-276 -264h-66z" />
<glyph unicode="&#x135;" horiz-adv-x="403" d="M-322 -461l11 51q43 -14 100 -14q111 0 167 52.5t81 170.5l252 1184h57l-252 -1180q-57 -276 -299 -276q-66 0 -117 12zM72 1151l325 309h45l197 -309h-59l-166 264l-277 -264h-65z" />
<glyph unicode="&#x136;" horiz-adv-x="1206" d="M61 0l304 1432h57l-150 -703l887 703h80l-899 -715l633 -717h-72l-631 717l-151 -717h-58zM152 -530l245 387h64l-258 -387h-51z" />
<glyph unicode="&#x137;" horiz-adv-x="991" d="M61 0l322 1513h57l-217 -1015l625 485h82l-635 -491l471 -492h-82l-463 485l-102 -485h-58zM96 -530l246 387h64l-259 -387h-51z" />
<glyph unicode="&#x138;" horiz-adv-x="991" d="M61 0l209 983h58l-105 -485l625 485h82l-635 -491l471 -492h-82l-463 485l-102 -485h-58z" />
<glyph unicode="&#x139;" horiz-adv-x="1120" d="M61 0l304 1432h57l-293 -1383h817l-10 -49h-875zM403 1573l220 342h57l-231 -342h-46z" />
<glyph unicode="&#x13a;" horiz-adv-x="385" d="M61 0l304 1432h57l-303 -1432h-58zM403 1573l220 342h57l-231 -342h-46z" />
<glyph unicode="&#x13b;" horiz-adv-x="1120" d="M61 0l304 1432h57l-293 -1383h817l-10 -49h-875zM197 -530l245 387h64l-258 -387h-51z" />
<glyph unicode="&#x13c;" horiz-adv-x="385" d="M-217 -530l246 387h63l-258 -387h-51zM61 0l322 1513h57l-321 -1513h-58z" />
<glyph unicode="&#x13d;" horiz-adv-x="1120" d="M61 0l304 1432h57l-293 -1383h817l-10 -49h-875zM602 1032l246 387h63l-258 -387h-51z" />
<glyph unicode="&#x13e;" horiz-adv-x="727" d="M61 0l322 1513h57l-321 -1513h-58zM485 1126l246 387h64l-258 -387h-52z" />
<glyph unicode="&#x13f;" horiz-adv-x="1120" d="M61 0l304 1432h57l-293 -1383h817l-10 -49h-875zM653 762q4 23 24.5 40t43.5 17t37 -17.5t10 -39.5q-6 -23 -26.5 -40t-43.5 -17q-22 0 -36.5 17t-8.5 40z" />
<glyph unicode="&#x140;" horiz-adv-x="563" d="M61 0l322 1513h57l-321 -1513h-58zM449 776q4 23 24.5 40.5t42.5 17.5q23 0 37 -17.5t10 -40.5q-6 -23 -26.5 -40t-42.5 -17q-23 0 -37.5 17.5t-7.5 39.5z" />
<glyph unicode="&#x141;" horiz-adv-x="1277" d="M80 569l10 54l285 114l147 695h58l-142 -668l406 166l-13 -53l-405 -166l-139 -662h817l-10 -49h-875l143 684z" />
<glyph unicode="&#x142;" horiz-adv-x="811" d="M80 569l10 54l307 125l164 765h57l-157 -741l383 158l-13 -53l-382 -158l-152 -719h-57l147 694z" />
<glyph unicode="&#x143;" horiz-adv-x="1357" d="M61 0l304 1432h51l641 -1326l280 1326h58l-303 -1432h-45l-644 1329l-280 -1329h-62zM911 1597l219 342h58l-232 -342h-45z" />
<glyph unicode="&#x144;" horiz-adv-x="1173" d="M61 0l209 983h58l-39 -182q102 113 224 163t245 50q158 0 233.5 -67.5t75.5 -188.5q0 -49 -12 -105l-137 -653h-58l137 651q12 55 13 103q0 211 -262 211q-264 0 -476 -242l-153 -723h-58zM717 1151l219 342h57l-231 -342h-45z" />
<glyph unicode="&#x145;" horiz-adv-x="1357" d="M61 0l304 1432h51l641 -1326l280 1326h58l-303 -1432h-45l-644 1329l-280 -1329h-62zM332 -530l246 387h63l-258 -387h-51z" />
<glyph unicode="&#x146;" horiz-adv-x="1173" d="M61 0l209 983h58l-39 -182q102 113 224 163t245 50q158 0 233.5 -67.5t75.5 -188.5q0 -49 -12 -105l-137 -653h-58l137 651q12 55 13 103q0 211 -262 211q-264 0 -476 -242l-153 -723h-58zM250 -530l246 387h63l-258 -387h-51z" />
<glyph unicode="&#x147;" horiz-adv-x="1357" d="M61 0l304 1432h51l641 -1326l280 1326h58l-303 -1432h-45l-644 1329l-280 -1329h-62zM698 1919h60l164 -264l278 264h68l-328 -309h-45z" />
<glyph unicode="&#x148;" horiz-adv-x="1173" d="M61 0l209 983h58l-39 -182q102 113 224 163t245 50q158 0 233.5 -67.5t75.5 -188.5q0 -49 -12 -105l-137 -653h-58l137 651q12 55 13 103q0 211 -262 211q-264 0 -476 -242l-153 -723h-58zM543 1460h59l164 -264l278 264h68l-328 -309h-45z" />
<glyph unicode="&#x149;" horiz-adv-x="1302" d="M190 0l209 983h58l-39 -182q102 113 224 163t245 50q158 0 233.5 -67.5t75.5 -188.5q0 -49 -12 -105l-137 -653h-58l137 651q12 55 13 103q0 211 -262 211q-264 0 -476 -242l-153 -723h-58zM197 1032l245 387h64l-258 -387h-51z" />
<glyph unicode="&#x14a;" horiz-adv-x="1357" d="M61 0l304 1432h51l641 -1326l280 1326h58l-346 -1629q-57 -276 -301 -276q-64 0 -117 12l10 51q43 -14 100 -14q111 0 169.5 56.5t80.5 166.5l45 213l-637 1317l-280 -1329h-58z" />
<glyph unicode="&#x14b;" horiz-adv-x="1173" d="M61 0l209 983h58l-39 -182q102 113 224 163t245 50q158 0 233.5 -67.5t75.5 -188.5q0 -49 -12 -105l-181 -850q-57 -276 -301 -276q-63 0 -116 12l10 51q43 -14 100 -14q106 0 166 53.5t84 169.5l180 852q12 59 13 109q0 100 -61.5 152.5t-200.5 52.5q-264 0 -476 -242 l-153 -723h-58z" />
<glyph unicode="&#x14c;" horiz-adv-x="1724" d="M152 535q0 90 20 180q47 221 177 391t317.5 263t402.5 93q178 0 315.5 -69.5t212 -198.5t74.5 -301q0 -72 -20 -178q-47 -221 -177.5 -390t-317.5 -262.5t-404 -93.5q-179 0 -315 70t-210.5 198t-74.5 298zM205 537q0 -160 68.5 -277t194.5 -179.5t294 -62.5 q188 0 363 85t301 244t171 368q20 106 21 178q0 160 -68.5 277.5t-194.5 180t-296 62.5q-193 0 -367 -86t-299 -244.5t-168 -367.5q-20 -90 -20 -178zM788 1665l13 49h569l-12 -49h-570z" />
<glyph unicode="&#x14d;" horiz-adv-x="1273" d="M111 365q0 63 14 127q33 158 124 276.5t222 182t279 63.5q188 0 302.5 -106.5t114.5 -286.5q0 -66 -14 -129q-35 -158 -125 -276t-220 -182.5t-282 -64.5q-188 0 -301.5 107.5t-113.5 288.5zM164 362q0 -162 99 -253t274 -91q133 0 249.5 58.5t199.5 165t114 250.5 q14 76 14 122q0 164 -99.5 257.5t-275.5 93.5q-133 0 -250.5 -58.5t-199.5 -166t-111 -248.5q-14 -63 -14 -130zM506 1219l12 49h569l-12 -49h-569z" />
<glyph unicode="&#x14e;" horiz-adv-x="1724" d="M152 535q0 90 20 180q47 221 177 391t317.5 263t402.5 93q178 0 315.5 -69.5t212 -198.5t74.5 -301q0 -72 -20 -178q-47 -221 -177.5 -390t-317.5 -262.5t-404 -93.5q-179 0 -315 70t-210.5 198t-74.5 298zM205 537q0 -160 68.5 -277t194.5 -179.5t294 -62.5 q188 0 363 85t301 244t171 368q20 106 21 178q0 160 -68.5 277.5t-194.5 180t-296 62.5q-193 0 -367 -86t-299 -244.5t-168 -367.5q-20 -90 -20 -178zM887 1726q0 23 6 48h45q-4 -25 -4 -39q0 -59 42 -97.5t118 -38.5q88 0 150.5 49.5t78.5 125.5h53q-20 -94 -101 -158 t-188 -64q-92 0 -146 49.5t-54 124.5z" />
<glyph unicode="&#x14f;" horiz-adv-x="1273" d="M111 365q0 63 14 127q33 158 124 276.5t222 182t279 63.5q188 0 302.5 -106.5t114.5 -286.5q0 -66 -14 -129q-35 -158 -125 -276t-220 -182.5t-282 -64.5q-188 0 -301.5 107.5t-113.5 288.5zM164 362q0 -162 99 -253t274 -91q133 0 249.5 58.5t199.5 165t114 250.5 q14 76 14 122q0 164 -99.5 257.5t-275.5 93.5q-133 0 -250.5 -58.5t-199.5 -166t-111 -248.5q-14 -63 -14 -130zM578 1325q0 23 6 47h45q-4 -25 -4 -39q0 -59 42 -97t117 -38q88 0 150.5 49t79.5 125h53q-20 -94 -101 -157.5t-188 -63.5q-92 0 -146 49t-54 125z" />
<glyph unicode="&#x150;" horiz-adv-x="1724" d="M152 535q0 90 20 180q47 221 177 391t317.5 263t402.5 93q178 0 315.5 -69.5t212 -198.5t74.5 -301q0 -72 -20 -178q-47 -221 -177.5 -390t-317.5 -262.5t-404 -93.5q-179 0 -315 70t-210.5 198t-74.5 298zM205 537q0 -160 68.5 -277t194.5 -179.5t294 -62.5 q188 0 363 85t301 244t171 368q20 106 21 178q0 160 -68.5 277.5t-194.5 180t-296 62.5q-193 0 -367 -86t-299 -244.5t-168 -367.5q-20 -90 -20 -178zM858 1597l217 342h58l-232 -342h-43zM1198 1597l219 342h58l-232 -342h-45z" />
<glyph unicode="&#x151;" horiz-adv-x="1273" d="M111 365q0 63 14 127q33 158 124 276.5t222 182t279 63.5q188 0 302.5 -106.5t114.5 -286.5q0 -66 -14 -129q-35 -158 -125 -276t-220 -182.5t-282 -64.5q-188 0 -301.5 107.5t-113.5 288.5zM164 362q0 -162 99 -253t274 -91q133 0 249.5 58.5t199.5 165t114 250.5 q14 76 14 122q0 164 -99.5 257.5t-275.5 93.5q-133 0 -250.5 -58.5t-199.5 -166t-111 -248.5q-14 -63 -14 -130zM549 1151l217 342h57l-231 -342h-43zM889 1151l219 342h57l-231 -342h-45z" />
<glyph unicode="&#x152;" horiz-adv-x="1812" d="M154 545q0 82 18 170q47 225 174 387t312.5 246t404.5 84h827l-10 -50h-694l-137 -641h497l-10 -49h-498l-135 -643h694l-10 -49h-827q-178 0 -315.5 64.5t-214 188.5t-76.5 292zM207 549q0 -158 71.5 -270.5t199.5 -171t292 -58.5h76l282 1333h-75q-195 0 -367 -78.5 t-295 -229t-166 -359.5q-18 -88 -18 -166z" />
<glyph unicode="&#x153;" horiz-adv-x="2220" d="M113 367q0 57 12 125q33 158 123 275.5t221 182t281 64.5q172 0 280.5 -93.5t128.5 -246.5q78 162 220.5 251t330.5 89q201 0 306.5 -100.5t105.5 -262.5q0 -57 -17 -129l-12 -51h-946q-14 -76 -14 -121q0 -164 109.5 -249t303.5 -85q94 0 189.5 17.5t171.5 44.5l-13 -49 q-61 -25 -164.5 -42.5t-193.5 -17.5q-201 0 -319.5 91.5t-129.5 248.5q-86 -160 -230 -250t-331 -90q-190 0 -301.5 107.5t-111.5 290.5zM164 362q0 -162 98 -253t275 -91q133 0 249.5 58.5t199.5 165t114 250.5q12 66 12 122q0 164 -98.5 257.5t-274.5 93.5 q-133 0 -250.5 -58.5t-199.5 -166t-111 -248.5q-14 -63 -14 -130zM1157 518h895q14 63 14 131q0 147 -90 232.5t-276 85.5q-223 0 -362.5 -127t-180.5 -322z" />
<glyph unicode="&#x154;" horiz-adv-x="1210" d="M61 0l304 1432h507q348 0 349 -267q0 -45 -13 -104q-35 -160 -154.5 -261.5t-320.5 -103.5l252 -696h-59l-252 696h-408l-147 -696h-58zM276 745h457q166 0 277.5 81t144.5 235q12 59 12 104q0 117 -75.5 167t-221.5 50h-458zM711 1597l219 342h57l-231 -342h-45z" />
<glyph unicode="&#x155;" horiz-adv-x="774" d="M61 0l209 983h58l-49 -225q92 121 222 173t298 52l-13 -49q-375 0 -532 -289l-135 -645h-58zM494 1151l219 342h57l-231 -342h-45z" />
<glyph unicode="&#x156;" horiz-adv-x="1210" d="M61 0l304 1432h507q348 0 349 -267q0 -45 -13 -104q-35 -160 -154.5 -261.5t-320.5 -103.5l252 -696h-59l-252 696h-408l-147 -696h-58zM162 -530l246 387h63l-258 -387h-51zM276 745h457q166 0 277.5 81t144.5 235q12 59 12 104q0 117 -75.5 167t-221.5 50h-458z" />
<glyph unicode="&#x157;" horiz-adv-x="774" d="M-215 -530l246 387h63l-258 -387h-51zM61 0l209 983h58l-49 -225q92 121 222 173t298 52l-13 -49q-375 0 -532 -289l-135 -645h-58z" />
<glyph unicode="&#x158;" horiz-adv-x="1210" d="M61 0l304 1432h507q348 0 349 -267q0 -45 -13 -104q-35 -160 -154.5 -261.5t-320.5 -103.5l252 -696h-59l-252 696h-408l-147 -696h-58zM276 745h457q166 0 277.5 81t144.5 235q12 59 12 104q0 117 -75.5 167t-221.5 50h-458zM590 1915h59l164 -264l279 264h67l-328 -309 h-45z" />
<glyph unicode="&#x159;" horiz-adv-x="790" d="M78 0l209 983h57l-49 -225q92 121 222 173t298 52l-12 -49q-375 0 -533 -289l-135 -645h-57zM330 1462h59l164 -264l278 264h68l-328 -309h-45z" />
<glyph unicode="&#x15a;" horiz-adv-x="1114" d="M27 35l10 51q162 -68 377 -68q424 0 491 312q10 43 10 92q0 68 -33.5 113t-102 82.5t-204.5 95.5q-156 63 -231.5 140t-75.5 185q0 43 8 82q33 158 167.5 250t336.5 92q104 0 186.5 -15t157.5 -50l-10 -51q-154 68 -344 67q-178 0 -296 -82t-144 -211q-10 -47 -11 -82 q0 -92 70 -157.5t236 -132.5q127 -51 193.5 -88t108.5 -93.5t42 -142.5q0 -51 -11 -94q-37 -176 -175 -268.5t-380 -92.5q-110 0 -211.5 18.5t-164.5 47.5zM782 1606l219 342h58l-232 -342h-45z" />
<glyph unicode="&#x15b;" horiz-adv-x="942" d="M33 66l12 51q66 -47 148.5 -73t173.5 -26q299 0 342 201q8 41 8 60q0 68 -57.5 111.5t-206.5 86.5q-147 43 -213 90t-66 135q0 27 6 58q25 125 137.5 189.5t272.5 64.5q92 0 155.5 -14.5t116.5 -43.5l-12 -51q-98 59 -270 60q-141 0 -232.5 -51.5t-114.5 -153.5 q-6 -31 -6 -55q0 -47 27 -79t83 -56.5t161 -53.5q143 -41 206.5 -96t63.5 -139q0 -141 -104.5 -226.5t-309.5 -85.5q-82 0 -175 29t-146 68zM545 1151l219 342h57l-231 -342h-45z" />
<glyph unicode="&#x15c;" horiz-adv-x="1114" d="M27 35l10 51q162 -68 377 -68q424 0 491 312q10 43 10 92q0 68 -33.5 113t-102 82.5t-204.5 95.5q-156 63 -231.5 140t-75.5 185q0 43 8 82q33 158 167.5 250t336.5 92q104 0 186.5 -15t157.5 -50l-10 -51q-154 68 -344 67q-178 0 -296 -82t-144 -211q-10 -47 -11 -82 q0 -92 70 -157.5t236 -132.5q127 -51 193.5 -88t108.5 -93.5t42 -142.5q0 -51 -11 -94q-37 -176 -175 -268.5t-380 -92.5q-110 0 -211.5 18.5t-164.5 47.5zM526 1606l326 309h45l197 -309h-60l-166 264l-276 -264h-66z" />
<glyph unicode="&#x15d;" horiz-adv-x="942" d="M33 66l12 51q66 -47 148.5 -73t173.5 -26q299 0 342 201q8 41 8 60q0 68 -57.5 111.5t-206.5 86.5q-147 43 -213 90t-66 135q0 27 6 58q25 125 137.5 189.5t272.5 64.5q92 0 155.5 -14.5t116.5 -43.5l-12 -51q-98 59 -270 60q-141 0 -232.5 -51.5t-114.5 -153.5 q-6 -31 -6 -55q0 -47 27 -79t83 -56.5t161 -53.5q143 -41 206.5 -96t63.5 -139q0 -141 -104.5 -226.5t-309.5 -85.5q-82 0 -175 29t-146 68zM336 1153l326 309h45l196 -309h-59l-166 264l-277 -264h-65z" />
<glyph unicode="&#x15e;" horiz-adv-x="1114" d="M27 35l10 51q162 -68 377 -68q424 0 491 312q10 43 10 92q0 68 -33.5 113t-102 82.5t-204.5 95.5q-156 63 -231.5 140t-75.5 185q0 43 8 82q33 158 167.5 250t336.5 92q104 0 186.5 -15t157.5 -50l-10 -51q-154 68 -344 67q-178 0 -296 -82t-144 -211q-10 -47 -11 -82 q0 -92 70 -157.5t236 -132.5q127 -51 193.5 -88t108.5 -93.5t42 -142.5q0 -51 -11 -94q-70 -326 -475 -357l-73 -125q82 -4 121.5 -39.5t39.5 -97.5q0 -29 -4 -43q-18 -80 -80.5 -128t-164.5 -48q-29 0 -61 5t-50 11l12 50q16 -8 48 -12.5t61 -4.5q156 0 182 129q4 14 4 39 q0 51 -43 76t-145 25l94 159h-21q-111 0 -212 18.5t-164 47.5z" />
<glyph unicode="&#x15f;" horiz-adv-x="942" d="M33 66l12 51q66 -47 148.5 -73t173.5 -26q299 0 342 201q8 41 8 60q0 68 -57.5 111.5t-206.5 86.5q-147 43 -213 90t-66 135q0 27 6 58q25 125 137.5 189.5t272.5 64.5q92 0 155.5 -14.5t116.5 -43.5l-12 -51q-98 59 -270 60q-141 0 -232.5 -51.5t-114.5 -153.5 q-6 -31 -6 -55q0 -47 27 -79t83 -56.5t161 -53.5q143 -41 206.5 -96t63.5 -139q0 -129 -91 -213t-271 -97l-72 -123q82 -4 122 -39.5t40 -97.5q0 -29 -4 -43q-18 -80 -81 -128t-165 -48q-29 0 -60.5 5t-50.5 11l12 50q16 -8 48 -12.5t61 -4.5q156 0 182 129q4 14 4 39 q0 51 -43 76t-145 25l94 159q-84 2 -174 30t-141 67z" />
<glyph unicode="&#x160;" horiz-adv-x="1114" d="M27 35l10 51q162 -68 377 -68q424 0 491 312q10 43 10 92q0 68 -33.5 113t-102 82.5t-204.5 95.5q-156 63 -231.5 140t-75.5 185q0 43 8 82q33 158 167.5 250t336.5 92q104 0 186.5 -15t157.5 -50l-10 -51q-154 68 -344 67q-178 0 -296 -82t-144 -211q-10 -47 -11 -82 q0 -92 70 -157.5t236 -132.5q127 -51 193.5 -88t108.5 -93.5t42 -142.5q0 -51 -11 -94q-37 -176 -175 -268.5t-380 -92.5q-110 0 -211.5 18.5t-164.5 47.5zM639 1915h59l164 -264l279 264h67l-327 -309h-45z" />
<glyph unicode="&#x161;" horiz-adv-x="942" d="M33 66l12 51q66 -47 148.5 -73t173.5 -26q299 0 342 201q8 41 8 60q0 68 -57.5 111.5t-206.5 86.5q-147 43 -213 90t-66 135q0 27 6 58q25 125 137.5 189.5t272.5 64.5q92 0 155.5 -14.5t116.5 -43.5l-12 -51q-98 59 -270 60q-141 0 -232.5 -51.5t-114.5 -153.5 q-6 -31 -6 -55q0 -47 27 -79t83 -56.5t161 -53.5q143 -41 206.5 -96t63.5 -139q0 -141 -104.5 -226.5t-309.5 -85.5q-82 0 -175 29t-146 68zM399 1460h60l164 -264l278 264h68l-328 -309h-45z" />
<glyph unicode="&#x162;" horiz-adv-x="1196" d="M236 -492l12 50q16 -8 48 -12.5t60 -4.5q156 0 183 129q4 14 4 39q0 51 -43 76t-146 25l113 190l293 1382h-488l11 50h1032l-10 -50h-488l-293 -1382l-90 -152q82 -4 122 -39.5t40 -97.5q0 -29 -4 -43q-18 -80 -80.5 -128t-165.5 -48q-29 0 -60.5 5t-49.5 11z" />
<glyph unicode="&#x163;" horiz-adv-x="727" d="M115 -492l12 50q16 -8 48 -12.5t61 -4.5q156 0 182 129q4 14 4 39q0 51 -43 76t-146 25l97 165q-147 23 -148 181q0 49 11 90l145 688h-162l12 49h162l62 295h57l-61 -295h260l-13 -49h-260l-145 -692q-10 -55 -10 -86q0 -72 42 -105t136 -33q57 0 106 15l-10 -51 q-57 -12 -125 -13h-4l-72 -121q82 -4 122 -39.5t40 -97.5q0 -29 -4 -43q-18 -80 -80.5 -128t-165.5 -48q-28 0 -60 5t-50 11z" />
<glyph unicode="&#x164;" horiz-adv-x="1196" d="M272 1382l11 50h1032l-10 -50h-488l-293 -1382h-57l293 1382h-488zM616 1915h60l164 -264l278 264h68l-328 -309h-45z" />
<glyph unicode="&#x165;" horiz-adv-x="739" d="M176 934l12 49h162l62 295h57l-61 -295h260l-13 -49h-260l-145 -692q-10 -55 -10 -86q0 -72 42 -105t136 -33q57 0 106 15l-10 -51q-57 -12 -125 -13q-98 0 -152.5 46t-54.5 141q0 35 11 90l145 688h-162zM582 1198l245 387h64l-258 -387h-51z" />
<glyph unicode="&#x166;" horiz-adv-x="1196" d="M272 1382l11 50h1032l-10 -50h-488l-139 -655h289l-11 -49h-288l-144 -678h-57l143 678h-293l11 49h293l139 655h-488z" />
<glyph unicode="&#x167;" horiz-adv-x="704" d="M90 520l12 49h162l76 365h-162l12 49h162l62 295h57l-61 -295h260l-13 -49h-260l-75 -365h258l-13 -49h-258l-57 -278q-10 -51 -10 -84q0 -72 42 -106t136 -34q57 0 106 15l-10 -51q-59 -12 -125 -13q-98 0 -152.5 46t-54.5 141q0 35 11 90l57 274h-162z" />
<glyph unicode="&#x168;" horiz-adv-x="1372" d="M133 326q0 61 17 143l204 963h58l-209 -983q-14 -63 -15 -125q0 -156 104.5 -231t293.5 -75q211 0 366.5 112t200.5 319l209 983h57l-205 -963q-51 -238 -209.5 -369t-429.5 -131q-219 0 -330.5 92.5t-111.5 264.5zM635 1606l14 67q76 92 205 92q47 0 83 -12t87 -39 q47 -25 83 -38t81 -13q57 0 107.5 24.5t99.5 86.5l-15 -68q-72 -92 -202 -92q-51 0 -90 13t-89 40q-49 25 -80.5 37t-74.5 12q-55 0 -105.5 -24.5t-103.5 -85.5z" />
<glyph unicode="&#x169;" horiz-adv-x="1173" d="M113 248q0 41 10 92l137 643h57l-137 -639q-12 -51 -12 -98q0 -106 68.5 -167t212.5 -61q129 0 238.5 57.5t215.5 184.5l156 723h57l-209 -983h-57l37 182q-186 -213 -449 -213q-162 0 -243.5 77t-81.5 202zM379 1151l14 68q76 92 205 92q47 0 83 -12.5t87 -38.5 q47 -25 83 -38.5t81 -13.5q57 0 107.5 24.5t99.5 86.5l-15 -68q-72 -92 -202 -92q-51 0 -90 13.5t-89 39.5q-49 25 -80.5 37.5t-74.5 12.5q-55 0 -105.5 -25t-103.5 -86z" />
<glyph unicode="&#x16a;" horiz-adv-x="1372" d="M133 326q0 61 17 143l204 963h58l-209 -983q-14 -63 -15 -125q0 -156 104.5 -231t293.5 -75q211 0 366.5 112t200.5 319l209 983h57l-205 -963q-51 -238 -209.5 -369t-429.5 -131q-219 0 -330.5 92.5t-111.5 264.5zM649 1665l13 49h569l-12 -49h-570z" />
<glyph unicode="&#x16b;" horiz-adv-x="1173" d="M113 248q0 41 10 92l137 643h57l-137 -639q-12 -51 -12 -98q0 -106 68.5 -167t212.5 -61q129 0 238.5 57.5t215.5 184.5l156 723h57l-209 -983h-57l37 182q-186 -213 -449 -213q-162 0 -243.5 77t-81.5 202zM461 1219l12 49h569l-12 -49h-569z" />
<glyph unicode="&#x16c;" horiz-adv-x="1372" d="M133 326q0 61 17 143l204 963h58l-209 -983q-14 -63 -15 -125q0 -156 104.5 -231t293.5 -75q211 0 366.5 112t200.5 319l209 983h57l-205 -963q-51 -238 -209.5 -369t-429.5 -131q-219 0 -330.5 92.5t-111.5 264.5zM711 1726q0 23 6 48h45q-4 -25 -4 -39q0 -59 42 -97.5 t118 -38.5q88 0 150 49.5t79 125.5h53q-20 -94 -101 -158t-188 -64q-92 0 -146 49.5t-54 124.5z" />
<glyph unicode="&#x16d;" horiz-adv-x="1173" d="M113 248q0 41 10 92l137 643h57l-137 -639q-12 -51 -12 -98q0 -106 68.5 -167t212.5 -61q129 0 238.5 57.5t215.5 184.5l156 723h57l-209 -983h-57l37 182q-186 -213 -449 -213q-162 0 -243.5 77t-81.5 202zM520 1325q0 23 6 47h45q-4 -25 -4 -39q0 -59 42 -97t118 -38 q88 0 150.5 49t78.5 125h54q-20 -94 -101.5 -157.5t-187.5 -63.5q-92 0 -146.5 49t-54.5 125z" />
<glyph unicode="&#x16e;" horiz-adv-x="1372" d="M133 326q0 61 17 143l204 963h58l-209 -983q-14 -63 -15 -125q0 -156 104.5 -231t293.5 -75q211 0 366.5 112t200.5 319l209 983h57l-205 -963q-51 -238 -209.5 -369t-429.5 -131q-219 0 -330.5 92.5t-111.5 264.5zM762 1704q0 57 32.5 109.5t86 84t110.5 31.5 q68 0 110 -43t42 -106q0 -57 -34 -109.5t-87 -83.5t-111 -31q-65 0 -107 42t-42 106zM807 1712q0 -47 32.5 -80t82.5 -33q59 0 108 42t64 102q4 20 4 29q0 49 -33 81.5t-84 32.5q-68 0 -121 -53t-53 -121z" />
<glyph unicode="&#x16f;" horiz-adv-x="1173" d="M113 248q0 41 10 92l137 643h57l-137 -639q-12 -51 -12 -98q0 -106 68.5 -167t212.5 -61q129 0 238.5 57.5t215.5 184.5l156 723h57l-209 -983h-57l37 182q-186 -213 -449 -213q-162 0 -243.5 77t-81.5 202zM580 1298q0 57 32.5 109.5t86 84.5t110.5 32q68 0 110 -43 t42 -107q0 -57 -34 -109.5t-87.5 -83t-110.5 -30.5q-65 0 -107 42t-42 105zM625 1307q0 -47 32.5 -80t81.5 -33q60 0 109 42t63 101q4 20 4 29q0 49 -32.5 82t-83.5 33q-68 0 -121 -53.5t-53 -120.5z" />
<glyph unicode="&#x170;" horiz-adv-x="1372" d="M133 326q0 61 17 143l204 963h58l-209 -983q-14 -63 -15 -125q0 -156 104.5 -231t293.5 -75q211 0 366.5 112t200.5 319l209 983h57l-205 -963q-51 -238 -209.5 -369t-429.5 -131q-219 0 -330.5 92.5t-111.5 264.5zM694 1597l217 342h58l-232 -342h-43zM1034 1597 l219 342h58l-232 -342h-45z" />
<glyph unicode="&#x171;" horiz-adv-x="1173" d="M113 248q0 41 10 92l137 643h57l-137 -639q-12 -51 -12 -98q0 -106 68.5 -167t212.5 -61q129 0 238.5 57.5t215.5 184.5l156 723h57l-209 -983h-57l37 182q-186 -213 -449 -213q-162 0 -243.5 77t-81.5 202zM504 1151l217 342h57l-231 -342h-43zM844 1151l219 342h57 l-231 -342h-45z" />
<glyph unicode="&#x172;" horiz-adv-x="1372" d="M133 326q0 61 17 143l204 963h58l-209 -983q-14 -63 -15 -125q0 -156 104.5 -231t293.5 -75q211 0 366.5 112t200.5 319l209 983h57l-205 -963q-47 -219 -184 -347t-366 -149q-150 -106 -177 -229q-4 -25 -4 -33q0 -41 26 -62.5t69 -21.5q51 0 96 17l-12 -50 q-39 -16 -95 -16q-59 0 -98 32t-39 91q0 76 47 146.5t121 121.5h-23q-219 0 -330.5 92.5t-111.5 264.5z" />
<glyph unicode="&#x173;" horiz-adv-x="1179" d="M113 248q0 41 10 92l137 643h57l-137 -639q-12 -51 -12 -98q0 -106 68.5 -167t212.5 -61q129 0 238.5 57.5t215.5 184.5l156 723h57l-209 -983q-188 -125 -215 -256q-4 -25 -4 -33q0 -41 25.5 -62.5t68.5 -21.5q51 0 97 17l-13 -50q-39 -16 -94 -16q-59 0 -98 32t-39 91 q0 86 62.5 166t152.5 133l37 182q-186 -213 -449 -213q-162 0 -243.5 77t-81.5 202z" />
<glyph unicode="&#x174;" horiz-adv-x="2074" d="M324 1432h57l129 -1336l698 1336h60l129 -1336l698 1336h57l-751 -1432h-45l-133 1362l-709 -1362h-45zM991 1606l326 309h45l197 -309h-60l-166 264l-276 -264h-66z" />
<glyph unicode="&#x175;" horiz-adv-x="1568" d="M229 983h56l86 -920l481 920h74l88 -920l483 920h55l-516 -983h-63l-92 944l-490 -944h-63zM643 1151l326 309h45l196 -309h-59l-166 264l-276 -264h-66z" />
<glyph unicode="&#x176;" horiz-adv-x="1347" d="M324 1432h53l315 -840l672 840h61l-710 -889l-115 -543h-57l114 543zM629 1606l325 309h45l197 -309h-59l-166 264l-277 -264h-65z" />
<glyph unicode="&#x177;" horiz-adv-x="1087" d="M14 -403l11 51q129 -70 329 -70q217 0 335 105.5t163 326.5l39 193q-186 -213 -449 -213q-162 0 -243.5 76.5t-81.5 201.5q0 41 10 92l133 623h57l-133 -618q-12 -51 -12 -99q0 -106 68.5 -166.5t212.5 -60.5q129 0 238.5 57.5t215.5 184.5l152 702h57l-205 -960 q-55 -254 -184 -374t-383 -120q-100 0 -190.5 18.5t-139.5 49.5zM428 1151l326 309h45l196 -309h-59l-166 264l-276 -264h-66z" />
<glyph unicode="&#x178;" horiz-adv-x="1347" d="M324 1432h53l315 -840l672 840h61l-710 -889l-115 -543h-57l114 543zM672 1700q4 23 24.5 40t42.5 17q23 0 37.5 -17.5t9.5 -39.5q-6 -23 -26.5 -40.5t-42.5 -17.5q-23 0 -37 17.5t-8 40.5zM1077 1700q4 23 24.5 40t43.5 17t37 -17.5t10 -39.5q-6 -23 -26.5 -40.5 t-43.5 -17.5q-22 0 -36.5 17.5t-8.5 40.5z" />
<glyph unicode="&#x179;" horiz-adv-x="1259" d="M20 0l11 53l1208 1329h-901l10 50h967l-10 -54l-1209 -1329h948l-10 -49h-1014zM791 1606l219 342h57l-231 -342h-45z" />
<glyph unicode="&#x17a;" horiz-adv-x="954" d="M20 0l11 51l815 883h-613l13 49h676l-13 -51l-815 -883h645l-10 -49h-709zM586 1151l219 342h57l-231 -342h-45z" />
<glyph unicode="&#x17b;" horiz-adv-x="1259" d="M20 0l11 53l1208 1329h-901l10 50h967l-10 -54l-1209 -1329h948l-10 -49h-1014zM809 1675q4 23 24.5 40.5t43.5 17.5t37 -17.5t10 -40.5q-6 -23 -26.5 -40t-43.5 -17t-37 17.5t-8 39.5z" />
<glyph unicode="&#x17c;" horiz-adv-x="954" d="M20 0l11 51l815 883h-613l13 49h676l-13 -51l-815 -883h645l-10 -49h-709zM590 1229q4 23 24.5 40t42.5 17q23 0 37.5 -17.5t10.5 -39.5q-6 -23 -27 -40.5t-43 -17.5q-23 0 -37 17.5t-8 40.5z" />
<glyph unicode="&#x17d;" horiz-adv-x="1259" d="M20 0l11 53l1208 1329h-901l10 50h967l-10 -54l-1209 -1329h948l-10 -49h-1014zM664 1915h59l164 -264l278 264h68l-328 -309h-45z" />
<glyph unicode="&#x17e;" horiz-adv-x="954" d="M20 0l11 51l815 883h-613l13 49h676l-13 -51l-815 -883h645l-10 -49h-709zM428 1460h59l164 -264l279 264h67l-327 -309h-45z" />
<glyph unicode="&#x18f;" horiz-adv-x="1671" d="M141 487q0 94 21 185l12 53h1372q23 113 23 201q0 240 -150.5 364.5t-443.5 124.5q-137 0 -278.5 -23.5t-245.5 -62.5l12 49q88 33 235.5 58.5t274.5 25.5q315 0 482 -139t167 -399q0 -94 -25 -209q-76 -352 -299 -549t-571 -197q-289 0 -437.5 140.5t-148.5 377.5z M197 487q0 -217 132 -344t408 -127q211 0 378 87t274.5 238t146.5 337h-1319q-20 -94 -20 -191z" />
<glyph unicode="&#x192;" horiz-adv-x="1081" d="M-352 -457l10 51q39 -16 109 -16q115 0 185.5 53.5t121.5 169.5l479 1133h-191l13 49h203l110 264q66 154 152 215.5t217 61.5q76 0 119 -15l-11 -49q-41 14 -112 15q-119 0 -189.5 -55.5t-118.5 -168.5l-110 -268h301l-12 -49h-314l-479 -1129q-61 -143 -150.5 -209.5 t-216.5 -66.5q-71 0 -116 14z" />
<glyph unicode="&#x1a0;" horiz-adv-x="1687" d="M152 537q0 88 20 178q47 221 176 391t316.5 263t404.5 93q152 0 271.5 -50t199.5 -142q88 2 156.5 56t85.5 128l16 76h49l-16 -76q-16 -82 -90 -146.5t-166 -80.5q94 -137 94 -336q0 -84 -18 -176q-47 -221 -177.5 -390t-317.5 -262.5t-404 -93.5q-177 0 -313 70 t-211.5 199t-75.5 299zM207 545q0 -162 70.5 -281t196.5 -182.5t288 -63.5q188 0 363 85t301 244t171 368q20 106 21 178q0 242 -150.5 381t-408.5 139q-193 0 -367 -86t-299 -244.5t-168 -367.5q-18 -88 -18 -170z" />
<glyph unicode="&#x1a1;" horiz-adv-x="1292" d="M111 362q0 66 14 130q33 154 125 272.5t223 184t277 65.5q104 0 187 -34t136 -97q84 8 150.5 61t81.5 123l16 76h49l-16 -76q-16 -80 -87 -142.5t-163 -82.5q61 -92 61 -226q0 -59 -12 -124q-33 -156 -123 -274t-221 -183.5t-283 -65.5q-188 0 -301.5 107.5t-113.5 285.5 zM166 367q0 -166 96 -257.5t275 -91.5q133 0 249.5 58.5t199.5 165t114 250.5q12 66 12 122q0 164 -99.5 257.5t-273.5 93.5q-129 0 -247.5 -60.5t-202.5 -169t-111 -243.5q-12 -68 -12 -125z" />
<glyph unicode="&#x1af;" horiz-adv-x="1542" d="M133 330q0 61 17 139l204 963h58l-209 -983q-14 -63 -15 -123q0 -158 104.5 -233t293.5 -75q217 0 368.5 105.5t198.5 325.5l209 983h57l-35 -162q90 0 163 54t89 130l17 76h49l-16 -76q-12 -61 -59.5 -114.5t-115 -85t-137.5 -31.5l-160 -754q-51 -242 -210.5 -371 t-428.5 -129q-215 0 -328.5 93.5t-113.5 267.5z" />
<glyph unicode="&#x1b0;" horiz-adv-x="1333" d="M113 244q0 41 10 96l137 643h57l-137 -639q-12 -51 -12 -98q0 -106 68.5 -167t212.5 -61q129 0 238.5 57.5t215.5 184.5l156 723h57l-22 -100q90 0 162.5 54t89.5 130l16 76h49l-16 -76q-12 -61 -59.5 -114.5t-115 -85t-137.5 -31.5l-176 -836h-57l37 182 q-90 -111 -209 -162t-240 -51q-162 0 -243.5 74t-81.5 201z" />
<glyph unicode="&#x1cd;" horiz-adv-x="1433" d="M20 0l875 1432h45l268 -1432h-53l-84 440h-721l-268 -440h-62zM381 489h680l-158 857zM735 1915h60l163 -264l279 264h68l-328 -309h-45z" />
<glyph unicode="&#x1ce;" horiz-adv-x="1275" d="M109 365q0 61 12 124q33 160 126 279t224 182.5t274 63.5q150 0 262.5 -70t151.5 -196l51 235h56l-209 -983h-56l50 231q-94 -129 -230.5 -195.5t-298.5 -66.5q-184 0 -298.5 106.5t-114.5 289.5zM160 369q0 -162 100 -256.5t272 -94.5q173 0 318 86t223 240l62 291 q-18 160 -121 245t-279 85q-125 0 -242.5 -58.5t-202.5 -167t-116 -250.5q-14 -76 -14 -120zM676 1460h59l164 -264l279 264h67l-327 -309h-46z" />
<glyph unicode="&#x1cf;" horiz-adv-x="385" d="M61 0l304 1432h57l-303 -1432h-58zM211 1915h59l164 -264l279 264h67l-327 -309h-45z" />
<glyph unicode="&#x1d0;" horiz-adv-x="385" d="M61 0l209 983h58l-209 -983h-58zM115 1460h59l164 -264l278 264h68l-328 -309h-45z" />
<glyph unicode="&#x1d1;" horiz-adv-x="1724" d="M152 535q0 90 20 180q47 221 177 391t317.5 263t402.5 93q178 0 315.5 -69.5t212 -198.5t74.5 -301q0 -72 -20 -178q-47 -221 -177.5 -390t-317.5 -262.5t-404 -93.5q-179 0 -315 70t-210.5 198t-74.5 298zM205 537q0 -160 68.5 -277t194.5 -179.5t294 -62.5 q188 0 363 85t301 244t171 368q20 106 21 178q0 160 -68.5 277.5t-194.5 180t-296 62.5q-193 0 -367 -86t-299 -244.5t-168 -367.5q-20 -90 -20 -178zM881 1915h59l164 -264l278 264h68l-328 -309h-45z" />
<glyph unicode="&#x1d2;" horiz-adv-x="1273" d="M111 365q0 63 14 127q33 158 124 276.5t222 182t279 63.5q188 0 302.5 -106.5t114.5 -286.5q0 -66 -14 -129q-35 -158 -125 -276t-220 -182.5t-282 -64.5q-188 0 -301.5 107.5t-113.5 288.5zM164 362q0 -162 99 -253t274 -91q133 0 249.5 58.5t199.5 165t114 250.5 q14 76 14 122q0 164 -99.5 257.5t-275.5 93.5q-133 0 -250.5 -58.5t-199.5 -166t-111 -248.5q-14 -63 -14 -130zM559 1460h59l164 -264l279 264h67l-327 -309h-45z" />
<glyph unicode="&#x1d3;" horiz-adv-x="1372" d="M133 326q0 61 17 143l204 963h58l-209 -983q-14 -63 -15 -125q0 -156 104.5 -231t293.5 -75q211 0 366.5 112t200.5 319l209 983h57l-205 -963q-51 -238 -209.5 -369t-429.5 -131q-219 0 -330.5 92.5t-111.5 264.5zM705 1915h59l164 -264l278 264h68l-328 -309h-45z" />
<glyph unicode="&#x1d4;" horiz-adv-x="1173" d="M113 248q0 41 10 92l137 643h57l-137 -639q-12 -51 -12 -98q0 -106 68.5 -167t212.5 -61q129 0 238.5 57.5t215.5 184.5l156 723h57l-209 -983h-57l37 182q-186 -213 -449 -213q-162 0 -243.5 77t-81.5 202zM508 1460h59l164 -264l279 264h67l-327 -309h-45z" />
<glyph unicode="&#x1d5;" horiz-adv-x="1372" d="M133 326q0 61 17 143l204 963h58l-209 -983q-14 -63 -15 -125q0 -156 104.5 -231t293.5 -75q211 0 366.5 112t200.5 319l209 983h57l-205 -963q-51 -238 -209.5 -369t-429.5 -131q-219 0 -330.5 92.5t-111.5 264.5zM666 1610q4 23 24.5 40t42.5 17q23 0 37 -17.5 t10 -39.5q-6 -23 -26.5 -40.5t-42.5 -17.5q-23 0 -37.5 17.5t-7.5 40.5zM692 1862l13 49h569l-12 -49h-570zM1071 1610q4 23 24.5 40t43.5 17t37 -17.5t10 -39.5q-6 -23 -26.5 -40.5t-43.5 -17.5q-22 0 -36.5 17.5t-8.5 40.5z" />
<glyph unicode="&#x1d6;" horiz-adv-x="1173" d="M113 248q0 41 10 92l137 643h57l-137 -639q-12 -51 -12 -98q0 -106 68.5 -167t212.5 -61q129 0 238.5 57.5t215.5 184.5l156 723h57l-209 -983h-57l37 182q-186 -213 -449 -213q-162 0 -243.5 77t-81.5 202zM485 1253q4 23 24.5 40.5t43.5 17.5t37 -17.5t10 -40.5 q-6 -23 -26.5 -40t-43.5 -17q-22 0 -36.5 17.5t-8.5 39.5zM498 1452l12 49h569l-12 -49h-569zM891 1253q4 23 24.5 40.5t42.5 17.5q23 0 37.5 -17.5t10.5 -40.5q-6 -23 -27 -40t-43 -17q-23 0 -37 17.5t-8 39.5z" />
<glyph unicode="&#x1d7;" horiz-adv-x="1372" d="M133 326q0 61 17 143l204 963h58l-209 -983q-14 -63 -15 -125q0 -156 104.5 -231t293.5 -75q211 0 366.5 112t200.5 319l209 983h57l-205 -963q-51 -238 -209.5 -369t-429.5 -131q-219 0 -330.5 92.5t-111.5 264.5zM686 1663q4 23 24.5 40t43.5 17t37 -17t10 -40 q-6 -23 -26.5 -40t-43.5 -17q-22 0 -36.5 17t-8.5 40zM915 1702l179 270h57l-190 -270h-46zM1090 1663q4 23 24.5 40t42.5 17q23 0 37 -17t10 -40q-6 -23 -26.5 -40t-42.5 -17q-23 0 -37.5 17t-7.5 40z" />
<glyph unicode="&#x1d8;" horiz-adv-x="1173" d="M113 248q0 41 10 92l137 643h57l-137 -639q-12 -51 -12 -98q0 -106 68.5 -167t212.5 -61q129 0 238.5 57.5t215.5 184.5l156 723h57l-209 -983h-57l37 182q-186 -213 -449 -213q-162 0 -243.5 77t-81.5 202zM483 1231q4 23 24.5 40t43.5 17t37 -17.5t10 -39.5 q-6 -23 -26.5 -40t-43.5 -17q-22 0 -36.5 17t-8.5 40zM713 1270l178 270h57l-190 -270h-45zM887 1231q4 23 24.5 40t42.5 17q23 0 37.5 -17.5t9.5 -39.5q-6 -23 -26.5 -40t-42.5 -17q-23 0 -37 17t-8 40z" />
<glyph unicode="&#x1d9;" horiz-adv-x="1372" d="M133 326q0 61 17 143l204 963h58l-209 -983q-14 -63 -15 -125q0 -156 104.5 -231t293.5 -75q211 0 366.5 112t200.5 319l209 983h57l-205 -963q-51 -238 -209.5 -369t-429.5 -131q-219 0 -330.5 92.5t-111.5 264.5zM682 1663q4 23 24.5 40t43.5 17t37 -17t10 -40 q-6 -23 -26.5 -40t-43.5 -17q-22 0 -36.5 17t-8.5 40zM762 1972h63l133 -225l230 225h63l-278 -270h-45zM1085 1663q4 23 24.5 40t43.5 17t37 -17t10 -40q-6 -23 -26.5 -40t-43.5 -17q-22 0 -36.5 17t-8.5 40z" />
<glyph unicode="&#x1da;" horiz-adv-x="1173" d="M113 248q0 41 10 92l137 643h57l-137 -639q-12 -51 -12 -98q0 -106 68.5 -167t212.5 -61q129 0 238.5 57.5t215.5 184.5l156 723h57l-209 -983h-57l37 182q-186 -213 -449 -213q-162 0 -243.5 77t-81.5 202zM483 1227q4 23 24.5 40t43.5 17t37 -17.5t10 -39.5 q-6 -23 -26.5 -40.5t-43.5 -17.5q-22 0 -36.5 17.5t-8.5 40.5zM563 1536h64l133 -225l229 225h64l-279 -270h-45zM887 1227q4 23 24.5 40t42.5 17q23 0 37.5 -17.5t9.5 -39.5q-6 -23 -26.5 -40.5t-42.5 -17.5q-23 0 -37 17.5t-8 40.5z" />
<glyph unicode="&#x1db;" horiz-adv-x="1372" d="M133 326q0 61 17 143l204 963h58l-209 -983q-14 -63 -15 -125q0 -156 104.5 -231t293.5 -75q211 0 366.5 112t200.5 319l209 983h57l-205 -963q-51 -238 -209.5 -369t-429.5 -131q-219 0 -330.5 92.5t-111.5 264.5zM676 1663q4 23 24.5 40t42.5 17q23 0 37.5 -17 t10.5 -40q-6 -23 -27 -40t-43 -17q-23 0 -37 17t-8 40zM860 1972h58l65 -270h-45zM1079 1663q4 23 24.5 40t43.5 17t37 -17t10 -40q-6 -23 -26.5 -40t-43.5 -17q-22 0 -36.5 17t-8.5 40z" />
<glyph unicode="&#x1dc;" horiz-adv-x="1173" d="M113 248q0 41 10 92l137 643h57l-137 -639q-12 -51 -12 -98q0 -106 68.5 -167t212.5 -61q129 0 238.5 57.5t215.5 184.5l156 723h57l-209 -983h-57l37 182q-186 -213 -449 -213q-162 0 -243.5 77t-81.5 202zM467 1231q4 23 24.5 40t43.5 17t37 -17.5t10 -39.5 q-6 -23 -26.5 -40t-43.5 -17t-37 17t-8 40zM651 1540h58l65 -270h-45zM870 1231q4 23 24.5 40t43.5 17t37 -17.5t10 -39.5q-6 -23 -26.5 -40t-43.5 -17q-22 0 -36.5 17t-8.5 40z" />
<glyph unicode="&#x1e6;" horiz-adv-x="1490" d="M152 535q0 90 20 180q47 219 179 389t320.5 264t397.5 94q301 0 451 -162l-13 -61q-76 92 -185.5 133t-262.5 41q-193 0 -367 -86t-299 -244.5t-168 -367.5q-20 -90 -20 -180q0 -242 150.5 -379.5t406.5 -137.5q139 0 253.5 33t225.5 107l115 536h-363l11 49h419 l-127 -596q-203 -178 -544 -178q-179 0 -315 70t-210.5 198t-74.5 298zM874 1915h60l164 -264l278 264h68l-328 -309h-45z" />
<glyph unicode="&#x1e7;" horiz-adv-x="1327" d="M111 369q0 47 14 125q33 158 126 275.5t224 181t273 63.5q160 0 266 -67.5t149 -194.5l49 231h58l-205 -960q-53 -248 -200.5 -371t-407.5 -123q-101 0 -191 18.5t-139 49.5l10 51q129 -70 330 -70q451 0 539 432l45 219q-90 -127 -231.5 -193.5t-295.5 -66.5 q-186 0 -299.5 108.5t-113.5 291.5zM166 373q0 -164 100.5 -259.5t268.5 -95.5q163 0 316 89.5t226 240.5l62 291q-14 156 -122 241t-280 85q-125 0 -241.5 -58.5t-201.5 -166t-116 -246.5q-12 -63 -12 -121zM592 1460h59l164 -264l279 264h67l-327 -309h-46z" />
<glyph unicode="&#x1fa;" horiz-adv-x="1433" d="M20 0l850 1393q-51 10 -81.5 50t-30.5 93q0 57 32.5 109.5t86 84t110.5 31.5q66 0 109 -42t43 -105q0 -78 -57.5 -142.5t-135.5 -78.5l262 -1393h-57l-84 440h-721l-268 -440h-58zM377 489h680l-158 857zM803 1544q0 -45 28.5 -76.5t73.5 -35.5h25q66 4 115 57t49 117 q0 49 -32 80.5t-83 31.5q-68 0 -122 -53t-54 -121zM1026 1831l219 272h58l-232 -272h-45z" />
<glyph unicode="&#x1fb;" horiz-adv-x="1275" d="M109 365q0 61 12 124q33 160 126 279t224 182.5t274 63.5q150 0 262.5 -70t151.5 -196l51 235h56l-209 -983h-56l50 231q-94 -129 -230.5 -195.5t-298.5 -66.5q-184 0 -298.5 106.5t-114.5 289.5zM160 369q0 -162 100 -256.5t272 -94.5q173 0 318 86t223 240l62 291 q-18 160 -121 245t-279 85q-125 0 -242.5 -58.5t-202.5 -167t-116 -250.5q-14 -76 -14 -120zM707 1257q0 57 32.5 109.5t86 84.5t110.5 32q68 0 109.5 -43t41.5 -107q0 -57 -33.5 -109.5t-87 -83t-110.5 -30.5q-65 0 -107 42t-42 105zM752 1266q0 -47 32.5 -80t81.5 -33 q60 0 109 42t63 101q4 20 4 29q0 49 -32.5 82t-83.5 33q-68 0 -121 -53.5t-53 -120.5zM993 1626l219 272h58l-232 -272h-45z" />
<glyph unicode="&#x1fc;" horiz-adv-x="1878" d="M20 0l1084 1432h852l-10 -50h-715l-137 -641h518l-10 -49h-519l-135 -643h715l-10 -49h-772l92 440h-563l-332 -440h-58zM446 489h537l191 893h-50zM1245 1606l219 342h58l-232 -342h-45z" />
<glyph unicode="&#x1fd;" horiz-adv-x="2050" d="M70 203q0 39 8 71q66 309 454 310q225 0 392 -101l34 166q12 55 13 101q0 109 -74 162t-229 53q-162 0 -322 -60l12 51q66 25 153 41.5t167 16.5q180 0 265 -74t81 -205q76 131 211 205t305 74q203 0 306.5 -97.5t103.5 -265.5q0 -66 -15 -129l-12 -51h-946 q-14 -59 -14 -121q0 -166 110.5 -250t302.5 -84q94 0 189.5 17.5t171.5 44.5l-13 -49q-61 -25 -164.5 -42.5t-193.5 -17.5q-190 0 -306 78t-136 223q-78 -150 -203 -225.5t-328 -75.5q-149 0 -236 60.5t-87 173.5zM123 207q0 -188 297 -189q190 0 315 86t160 250l18 80 q-88 53 -177 77t-214 24q-180 0 -271 -64.5t-120 -196.5q-8 -33 -8 -67zM987 518h895q16 76 16 135q0 147 -89 230.5t-279 83.5q-219 0 -359.5 -125t-183.5 -324zM1067 1151l219 342h57l-231 -342h-45z" />
<glyph unicode="&#x1fe;" horiz-adv-x="1724" d="M152 535q0 90 20 180q47 227 179 397t319.5 260t398.5 90q137 0 260 -45l115 189h57l-127 -207q139 -68 217 -199t78 -307q0 -82 -18 -178q-47 -221 -176 -390t-316.5 -262.5t-406.5 -93.5q-125 0 -236 35l-110 -180h-58l123 199q-152 63 -235.5 196t-83.5 316zM207 545 q0 -170 77.5 -293t215.5 -182l800 1300q-106 43 -241 43q-193 0 -367 -86t-299 -244.5t-168 -367.5q-18 -88 -18 -170zM545 51q96 -33 217 -33q188 0 363 85t301 244t171 368q18 92 19 174q0 164 -70.5 283.5t-199.5 179.5zM1096 1606l219 342h57l-231 -342h-45z" />
<glyph unicode="&#x1ff;" horiz-adv-x="1273" d="M111 360q0 66 14 132q33 154 123 272.5t221 184t281 65.5q90 0 170 -29l106 174h57l-118 -192q96 -49 149 -139.5t53 -211.5q0 -49 -14 -124q-33 -156 -123 -274t-221 -183.5t-283 -65.5q-86 0 -157 25l-105 -170h-57l115 186q-100 47 -155.5 137.5t-55.5 212.5zM162 360 q0 -109 48 -186.5t138 -118.5l543 885q-68 25 -152 25q-133 0 -250.5 -58.5t-199.5 -166t-111 -248.5q-16 -76 -16 -132zM397 39q59 -20 140 -21q133 0 249.5 58.5t199.5 165t114 250.5q14 76 14 122q0 109 -45 187t-133 121zM711 1151l219 342h57l-231 -342h-45z" />
<glyph unicode="&#x218;" horiz-adv-x="1114" d="M27 35l10 51q162 -68 377 -68q424 0 491 312q10 43 10 92q0 68 -33.5 113t-102 82.5t-204.5 95.5q-156 63 -231.5 140t-75.5 185q0 43 8 82q33 158 167.5 250t336.5 92q104 0 186.5 -15t157.5 -50l-10 -51q-154 68 -344 67q-178 0 -296 -82t-144 -211q-10 -47 -11 -82 q0 -92 70 -157.5t236 -132.5q127 -51 193.5 -88t108.5 -93.5t42 -142.5q0 -51 -11 -94q-37 -176 -175 -268.5t-380 -92.5q-110 0 -211.5 18.5t-164.5 47.5zM190 -530l244 387h64l-256 -387h-52z" />
<glyph unicode="&#x219;" horiz-adv-x="942" d="M33 66l12 51q66 -47 148.5 -73t173.5 -26q299 0 342 201q8 41 8 60q0 68 -57.5 111.5t-206.5 86.5q-147 43 -213 90t-66 135q0 27 6 58q25 125 137.5 189.5t272.5 64.5q92 0 155.5 -14.5t116.5 -43.5l-12 -51q-98 59 -270 60q-141 0 -232.5 -51.5t-114.5 -153.5 q-6 -31 -6 -55q0 -47 27 -79t83 -56.5t161 -53.5q143 -41 206.5 -96t63.5 -139q0 -141 -104.5 -226.5t-309.5 -85.5q-82 0 -175 29t-146 68zM92 -530l244 387h63l-256 -387h-51z" />
<glyph unicode="&#x21a;" horiz-adv-x="1196" d="M190 -530l246 387h64l-258 -387h-52zM272 1382l11 50h1032l-10 -50h-488l-293 -1382h-57l293 1382h-488z" />
<glyph unicode="&#x21b;" horiz-adv-x="702" d="M53 -530l246 387h63l-258 -387h-51zM176 934l12 49h162l62 295h57l-61 -295h260l-13 -49h-260l-145 -692q-10 -55 -10 -86q0 -72 42 -105t136 -33q57 0 106 15l-10 -51q-57 -12 -125 -13q-98 0 -152.5 46t-54.5 141q0 35 11 90l145 688h-162z" />
<glyph unicode="&#x237;" horiz-adv-x="403" d="M-322 -461l11 51q43 -14 100 -14q111 0 167 52.5t81 170.5l252 1184h57l-252 -1180q-57 -276 -299 -276q-66 0 -117 12z" />
<glyph unicode="&#x251;" horiz-adv-x="1275" d="M109 365q0 61 12 124q33 160 126 279t224 182.5t274 63.5q150 0 262.5 -70t151.5 -196l51 235h56l-209 -983h-56l50 231q-94 -129 -230.5 -195.5t-298.5 -66.5q-184 0 -298.5 106.5t-114.5 289.5zM160 369q0 -162 100 -256.5t272 -94.5q173 0 318 86t223 240l62 291 q-18 160 -121 245t-279 85q-125 0 -242.5 -58.5t-202.5 -167t-116 -250.5q-14 -76 -14 -120z" />
<glyph unicode="&#x259;" horiz-adv-x="1243" d="M102 332q0 66 15 129l12 51h946q14 63 15 125q0 162 -108 246t-306 84q-94 0 -189.5 -17.5t-171.5 -44.5l13 49q61 25 164.5 42.5t193.5 17.5q219 0 336 -98.5t117 -280.5q0 -61 -17 -143q-53 -244 -206.5 -383.5t-403.5 -139.5q-203 0 -306.5 97.5t-103.5 265.5z M154 328q0 -145 89 -228.5t279 -83.5q223 0 362.5 127t180.5 322h-895q-16 -76 -16 -137z" />
<glyph unicode="&#x2bb;" horiz-adv-x="450" d="M248 1075l235 387h52l-224 -387h-63z" />
<glyph unicode="&#x2bc;" horiz-adv-x="450" d="M248 1075l223 387h64l-236 -387h-51z" />
<glyph unicode="&#x2be;" d="M33 1159l10 47q76 0 131 42t74 122q4 16 4 43q0 59 -37 90t-102 31l10 47q82 0 130 -42t48 -116q0 -25 -6 -53q-20 -98 -94 -154.5t-168 -56.5z" />
<glyph unicode="&#x2bf;" d="M72 1317q0 27 6 53q20 98 94 154.5t168 56.5l-10 -47q-78 0 -133.5 -42t-71.5 -122q-6 -25 -6 -45q0 -57 38 -88t103 -31l-10 -47q-82 0 -130 42t-48 116z" />
<glyph unicode="&#x2c6;" horiz-adv-x="815" d="M289 1266l327 309h46l196 -309h-59l-166 264l-277 -264h-67z" />
<glyph unicode="&#x2c7;" horiz-adv-x="815" d="M354 1575h60l166 -264l276 264h68l-328 -309h-45z" />
<glyph unicode="&#x2c8;" d="M127 1217l63 301h56l-64 -301h-55z" />
<glyph unicode="&#x2c9;" horiz-adv-x="1206" d="M496 1300l12 50h569l-12 -50h-569z" />
<glyph unicode="&#x2ca;" d="M68 1233l219 342h57l-231 -342h-45z" />
<glyph unicode="&#x2cb;" d="M68 1233l231 342h45l-219 -342h-57z" />
<glyph unicode="&#x2cc;" d="M-225 -446l63 301h56l-64 -301h-55z" />
<glyph unicode="&#x2d8;" horiz-adv-x="729" d="M313 1362q0 23 6 47h46q-4 -25 -5 -39q0 -59 42 -97t118 -38q88 0 150.5 49t79.5 125h53q-20 -94 -101 -157.5t-188 -63.5q-92 0 -146.5 49t-54.5 125z" />
<glyph unicode="&#x2d9;" horiz-adv-x="360" d="M299 1311q4 23 24.5 40t43.5 17t37 -17.5t10 -39.5q-6 -23 -26.5 -40.5t-43.5 -17.5q-22 0 -36.5 17.5t-8.5 40.5z" />
<glyph unicode="&#x2da;" horiz-adv-x="618" d="M309 1339q0 90 67.5 158t162.5 68q68 0 109.5 -43t41.5 -107q0 -12 -4 -37q-16 -80 -79.5 -133t-147.5 -53q-66 0 -108 42t-42 105zM354 1341q0 -47 30 -76.5t85 -29.5q70 0 123 54t53 122q0 49 -30.5 80t-86.5 31q-68 0 -121 -55.5t-53 -125.5z" />
<glyph unicode="&#x2db;" horiz-adv-x="507" d="M-39 -299q0 86 63.5 166t153.5 133h58q-190 -125 -218 -256q-4 -25 -4 -33q0 -41 26 -62.5t69 -21.5q53 0 98 17l-12 -50q-39 -16 -97 -16q-59 0 -98 32t-39 91z" />
<glyph unicode="&#x2dc;" horiz-adv-x="970" d="M289 1270l14 67q76 92 205 93q47 0 83 -12.5t87 -39.5q47 -25 83 -38t81 -13q55 0 106 24.5t103 86.5l-15 -68q-76 -92 -205 -92q-51 0 -90 13.5t-88 39.5q-49 25 -80.5 37t-74.5 12q-55 0 -105.5 -24.5t-103.5 -85.5z" />
<glyph unicode="&#x2dd;" horiz-adv-x="790" d="M268 1171l219 342h58l-232 -342h-45zM610 1171l219 342h58l-232 -342h-45z" />
<glyph unicode="&#x300;" d="M-612 1575h57l72 -342h-45z" />
<glyph unicode="&#x301;" d="M-422 1233l219 342h58l-232 -342h-45z" />
<glyph unicode="&#x302;" d="M-121 1245l326 309h45l196 -309h-59l-166 264l-276 -264h-66z" />
<glyph unicode="&#x303;" d="M-825 1270l14 67q76 92 205 93q47 0 83 -12.5t87 -39.5q47 -25 83 -38t81 -13q57 0 107 24.5t99 86.5l-14 -68q-72 -92 -203 -92q-51 0 -90 13.5t-88 39.5q-49 25 -80.5 37t-74.5 12q-55 0 -105.5 -24.5t-103.5 -85.5z" />
<glyph unicode="&#x304;" d="M-100 1300l12 50h569l-12 -50h-569z" />
<glyph unicode="&#x306;" d="M-51 1362q0 23 6 47h45q-4 -25 -4 -39q0 -59 42 -97t118 -38q88 0 150.5 49t78.5 125h53q-20 -94 -101 -157.5t-187 -63.5q-93 0 -147 49t-54 125z" />
<glyph unicode="&#x307;" d="M119 1311q4 23 24.5 40t42.5 17q23 0 37.5 -17.5t9.5 -39.5q-6 -23 -26.5 -40.5t-42.5 -17.5q-23 0 -37 17.5t-8 40.5z" />
<glyph unicode="&#x308;" d="M-84 1311q4 23 24.5 40t43.5 17t37 -17.5t10 -39.5q-6 -23 -26.5 -40.5t-43.5 -17.5q-22 0 -36.5 17.5t-8.5 40.5zM322 1311q4 23 24.5 40t42.5 17q23 0 37 -17.5t10 -39.5q-6 -23 -26.5 -40.5t-42.5 -17.5q-23 0 -37.5 17.5t-7.5 40.5z" />
<glyph unicode="&#x309;" d="M-582 1159l27 129q106 0 156.5 34t64.5 103q4 25 4 37q0 92 -133 92q-29 0 -63.5 -4t-53.5 -12l11 49q18 6 53 11.5t63 5.5q88 0 133.5 -37t45.5 -99q0 -12 -5 -41q-18 -78 -78.5 -126t-158.5 -52l-19 -90h-47z" />
<glyph unicode="&#x30a;" d="M0 1339q0 57 33 109.5t86 84.5t110 32q68 0 110 -43t42 -107q0 -57 -34 -109.5t-87 -83t-110 -30.5q-66 0 -108 42t-42 105zM45 1348q0 -47 33 -80t82 -33q59 0 108 42t64 101q4 20 4 29q0 49 -33 82t-84 33q-68 0 -121 -53.5t-53 -120.5z" />
<glyph unicode="&#x30b;" d="M-121 1233l217 342h58l-232 -342h-43zM219 1233l219 342h58l-232 -342h-45z" />
<glyph unicode="&#x30c;" d="M-57 1554h59l164 -264l278 264h68l-328 -309h-45z" />
<glyph unicode="&#x31b;" d="M23 1223l10 47q90 0 162.5 54t89.5 130l16 76h49l-16 -76q-12 -61 -59.5 -114.5t-115 -85t-136.5 -31.5z" />
<glyph unicode="&#x323;" d="M-201 -201q0 27 22.5 47.5t49.5 20.5q18 0 31.5 -13.5t13.5 -33.5q0 -27 -21.5 -47.5t-48.5 -20.5q-20 0 -33.5 13.5t-13.5 33.5z" />
<glyph unicode="&#x324;" d="M-403 -201q0 27 22.5 47.5t48.5 20.5q20 0 33.5 -13.5t13.5 -33.5q0 -27 -22.5 -47.5t-48.5 -20.5q-21 0 -34 13.5t-13 33.5zM0 -201q0 27 22.5 47.5t49.5 20.5q20 0 33.5 -13.5t13.5 -33.5q0 -27 -22.5 -47.5t-49.5 -20.5q-20 0 -33.5 13.5t-13.5 33.5z" />
<glyph unicode="&#x326;" d="M-565 -530l246 387h63l-258 -387h-51z" />
<glyph unicode="&#x327;" d="M-356 -492l12 50q16 -8 48 -12.5t60 -4.5q156 0 183 129q4 14 4 39q0 51 -43 76t-146 25l113 190h57l-90 -152q82 -4 122 -39.5t40 -97.5q0 -29 -4 -43q-18 -80 -80.5 -128t-165.5 -48q-28 0 -60 5t-50 11z" />
<glyph unicode="&#x328;" d="M-283 -299q0 86 62.5 166t152.5 133h58q-188 -125 -215 -256q-4 -25 -4 -33q0 -41 25.5 -62.5t68.5 -21.5q51 0 96 17l-12 -50q-39 -16 -94 -16q-60 0 -99 32t-39 91z" />
<glyph unicode="&#x32e;" d="M-377 -182q0 29 4 45h49q-4 -25 -4 -39q0 -59 42 -97t118 -38q88 0 149.5 49t77.5 125h50q-18 -94 -100.5 -157.5t-186.5 -63.5q-92 0 -145.5 49t-53.5 127z" />
<glyph unicode="&#x331;" d="M-422 -225l10 49h568l-11 -49h-567z" />
<glyph unicode="&#x394;" horiz-adv-x="1392" d="M20 0l11 51l831 1411h82l234 -1411l-11 -51h-1147zM90 49h1034l-225 1374z" />
<glyph unicode="&#x3a9;" horiz-adv-x="1695" d="M20 0l11 49h403q-129 86 -201.5 214t-72.5 298q0 90 20 184q43 203 162 366t302 257t411 94q182 0 316 -70.5t204 -196.5t70 -286q0 -78 -19 -164q-102 -475 -549 -696h404l-11 -49h-501l8 43q258 119 401.5 293t194.5 409q18 86 18 162q0 150 -64.5 264.5t-188.5 178 t-294 63.5q-193 0 -363.5 -87t-288.5 -238.5t-159 -342.5q-23 -102 -22 -188q0 -164 78 -292t241 -222l-8 -43h-502z" />
<glyph unicode="&#x3bc;" horiz-adv-x="1183" d="M-35 -449l305 1432h58l-138 -645q-12 -51 -12 -96q0 -223 281 -224q129 0 238.5 57.5t215.5 184.5l156 723h57l-208 -983h-58l37 182q-186 -213 -448 -213q-123 0 -199 40t-107 114l-120 -572h-58z" />
<glyph unicode="&#x3c0;" horiz-adv-x="1437" d="M197 934l12 49h1169l-12 -49h-236l-151 -713q-10 -51 -10 -82q0 -66 39 -93.5t125 -27.5q57 0 106 15l-10 -51q-57 -12 -125 -13q-191 0 -191 168q0 33 11 88l149 709h-584l-196 -934h-57l196 934h-235z" />
<glyph unicode="&#xe01;" horiz-adv-x="1255" d="M123 0l153 725l-69 154q123 123 257 185t314 62q186 0 282.5 -75.5t96.5 -214.5q0 -47 -12 -103l-156 -733h-57l153 725q12 61 13 111q0 125 -81 183t-249 58q-152 0 -267.5 -46t-230.5 -152l66 -146l-156 -733h-57z" />
<glyph unicode="&#xe02;" horiz-adv-x="1105" d="M92 258q0 49 12 107l31 141q14 61 54 114.5t114 124.5q59 59 92 101.5t43 85.5q4 14 4 41q0 41 -25.5 57.5t-82.5 16.5h-92l10 49h104q141 0 142 -115q0 -20 -6 -49q-10 -47 -46 -94t-102 -113q-68 -70 -104.5 -117t-46.5 -98l-33 -158q-10 -43 -10 -98 q0 -117 72.5 -176.5t213.5 -59.5q168 0 276.5 87.5t143.5 246.5l158 744h57l-156 -731q-39 -193 -165.5 -294.5t-323.5 -101.5q-160 0 -247 76t-87 213z" />
<glyph unicode="&#xe03;" horiz-adv-x="1097" d="M84 254q0 53 12 111l31 141q14 61 58 115.5t120 123.5q63 61 98 102.5t46 84.5l2 6q-49 -29 -113 -29q-49 0 -77 22.5t-28 65.5q0 8 5 29l14 70h57l-12 -64q-4 -25 -4 -33q0 -23 15.5 -32t53.5 -9q51 0 99 29l22 109h54l-35 -168q-10 -49 -48 -95.5t-110 -113.5 q-70 -63 -109.5 -110.5t-50.5 -98.5l-32 -158q-12 -55 -13 -100q0 -113 73 -173.5t216 -60.5q168 0 276.5 87.5t143.5 246.5l158 744h57l-156 -731q-41 -193 -165 -294.5t-324 -101.5q-160 0 -247 74t-87 211z" />
<glyph unicode="&#xe04;" horiz-adv-x="1253" d="M61 0l154 723q41 195 181.5 299t365.5 104q188 0 288.5 -77.5t100.5 -223.5q0 -55 -10 -102l-154 -723h-57l153 723q10 43 11 98q0 129 -88 192.5t-254 63.5q-188 0 -315.5 -88t-164.5 -266l-67 -313q47 70 131 114.5t182 44.5h156l-12 -49h-166q-72 0 -141.5 -37 t-118 -94t-60.5 -117l-57 -272h-58z" />
<glyph unicode="&#xe05;" horiz-adv-x="1253" d="M61 0l177 831q31 143 102.5 219t204.5 76q80 0 126 -38.5t56 -110.5h2q39 72 103.5 110.5t146.5 38.5q197 0 197 -188q0 -47 -13 -107l-176 -831h-57l176 829q14 72 14 111q0 70 -34.5 103.5t-116.5 33.5q-78 0 -131.5 -38t-92.5 -119h-55q-4 84 -41 120.5t-114 36.5 q-104 0 -158.5 -61.5t-81.5 -184.5l-90 -421q49 72 129 115.5t184 43.5h156l-12 -49h-166q-72 0 -141.5 -37t-118 -94t-60.5 -117l-57 -272h-58z" />
<glyph unicode="&#xe06;" horiz-adv-x="1204" d="M20 0l101 475q14 61 58 119.5t122 138.5q66 66 101.5 111t46.5 88l2 6q-49 -29 -113 -29q-47 0 -76 23.5t-29 64.5q0 8 5 29l14 70h57l-12 -64q-4 -25 -4 -31q0 -23 15.5 -33t53.5 -10q51 0 99 29l22 109h54l-35 -168q-10 -47 -49 -97.5t-111 -121.5q-72 -74 -113 -126.5 t-51 -103.5l-47 -219q109 -242 391 -242q178 0 288 83t142 237l160 758h57l-161 -760q-35 -174 -165 -270.5t-331 -96.5q-121 0 -226.5 52.5t-168.5 166.5l-39 -188h-58z" />
<glyph unicode="&#xe07;" horiz-adv-x="1208" d="M223 958h58l131 -909q254 0 420.5 137.5t216.5 372.5q23 109 22 195q0 324 -315 323q-76 0 -135 -18l12 51q57 16 143 16q174 0 261 -97t87 -275q0 -86 -22 -195q-39 -176 -134.5 -302t-232.5 -191.5t-297 -65.5h-78z" />
<glyph unicode="&#xe08;" horiz-adv-x="1175" d="M233 1006l11 51q80 33 185.5 51t219.5 18q215 0 328 -100t113 -291q0 -74 -19 -164q-35 -170 -142.5 -299t-262 -200.5t-326.5 -71.5h-82l-20 602h57l18 -553q172 0 320.5 63.5t249 181.5t135.5 277q18 90 18 164q0 342 -397 342q-227 0 -406 -71z" />
<glyph unicode="&#xe09;" horiz-adv-x="1202" d="M127 236q0 57 10 100l64 299h57l-61 -297q-12 -55 -13 -105q0 -109 67.5 -162t213.5 -53q127 0 241.5 60.5t227.5 187.5l76 359q20 102 20 166q0 147 -89 216.5t-288 69.5q-115 0 -224.5 -18.5t-195.5 -52.5l11 51q78 33 190.5 51t229.5 18q213 0 318 -82.5t105 -252.5 q0 -63 -20 -166l-131 -625h-57l39 188q-104 -113 -223.5 -166t-239.5 -53q-162 0 -245 70t-83 197z" />
<glyph unicode="&#xe0a;" horiz-adv-x="1163" d="M94 264q0 47 12 103l31 151q14 63 55 115.5t117 126.5q57 55 89 94t40 78q4 14 4 41q0 41 -25.5 57.5t-82.5 16.5h-92l10 49h104q141 0 142 -115q0 -20 -6 -49q-10 -45 -44 -88t-98 -107q-70 -70 -107.5 -118t-47.5 -101l-35 -164q-10 -55 -10 -92q0 -119 79.5 -181.5 t229.5 -62.5q190 0 318 95.5t171 292.5q16 68 17 137q0 236 -250 235l10 41l309 307h70l-309 -307q113 -18 167 -93t54 -189q0 -68 -15 -131q-49 -223 -194 -330t-358 -107q-164 0 -259.5 77t-95.5 218z" />
<glyph unicode="&#xe0b;" horiz-adv-x="1155" d="M86 264q0 47 12 103l29 139q14 61 58 115.5t120 123.5q63 61 98 102.5t46 84.5l2 6q-49 -29 -113 -29q-47 0 -76 23.5t-29 64.5q0 8 5 29l14 70h57l-12 -64q-4 -25 -4 -33q0 -23 15.5 -32t53.5 -9q51 0 99 29l22 109h54l-35 -168q-10 -51 -49 -97.5t-111 -113.5 q-72 -70 -109.5 -115t-48.5 -96l-32 -152q-10 -55 -11 -90q0 -119 79 -182.5t231 -63.5q190 0 319 96.5t170 291.5q14 70 14 131q0 242 -247 241l10 41l309 307h70l-310 -307q111 -18 166.5 -95t55.5 -194q0 -49 -15 -124q-49 -223 -194.5 -330t-358.5 -107q-164 0 -259 77 t-95 218z" />
<glyph unicode="&#xe0c;" horiz-adv-x="2033" d="M152 123q0 23 6 49l118 553l-69 154q123 125 251 186t300 61q178 0 268 -73.5t90 -210.5q0 -49 -12 -109l-100 -467q57 -127 149 -187.5t219 -60.5q170 0 273.5 83t136.5 237l160 758h57l-162 -760q-37 -176 -154.5 -271.5t-320.5 -95.5q-111 0 -209 53.5t-166 165.5 l-39 -188h-57l153 725q14 76 15 117q0 123 -76 179t-235 56q-143 0 -253 -46t-225 -152l66 -146l-121 -565q-6 -25 -6 -43q0 -41 26.5 -58.5t83.5 -17.5h105l-10 -49h-121q-70 0 -105.5 31.5t-35.5 91.5z" />
<glyph unicode="&#xe0d;" horiz-adv-x="2035" d="M152 123q0 23 6 49l118 553l-69 154q123 125 251 186t300 61q178 0 268 -73.5t90 -210.5q0 -49 -12 -109l-41 -186q-14 -72 -14 -115q0 -250 317 -250q184 0 304 99.5t155 265.5l117 549h57l-115 -539q-33 -168 -143 -278q57 -57 57 -142q0 -27 -6 -57 q-31 -139 -161 -210t-335 -71q-92 0 -188 28t-143 67l12 51q66 -47 151.5 -72t178.5 -25q178 0 292.5 57.5t139.5 174.5q6 31 6 55q0 61 -43 107q-141 -109 -346 -109q-180 0 -270.5 80t-90.5 225q0 55 13 119l36 168q14 76 15 117q0 121 -77 178t-234 57q-143 0 -253 -46 t-225 -152l66 -146l-121 -565q-6 -25 -6 -43q0 -41 25.5 -58.5t80.5 -17.5h109l-10 -49h-121q-70 0 -105.5 31.5t-35.5 91.5z" />
<glyph unicode="&#xe0e;" horiz-adv-x="1325" d="M20 0l11 49h84q68 0 103.5 26.5t49.5 92.5l119 557l-111 154q123 123 257.5 185t314.5 62q186 0 282.5 -75.5t96.5 -214.5q0 -47 -13 -103l-251 -1186h-58q-88 72 -162.5 98.5t-175.5 26.5q-88 0 -177 -34.5t-159 -96.5l13 60q49 49 148.5 84.5t187.5 35.5 q92 0 174 -28.5t161 -93.5l240 1126q12 59 12 106q0 127 -81.5 186.5t-247.5 59.5q-152 0 -267.5 -46t-230.5 -152l106 -146l-120 -561q-16 -82 -69.5 -127t-135.5 -45h-101z" />
<glyph unicode="&#xe0f;" horiz-adv-x="1325" d="M20 0l11 49h84q68 0 103.5 26.5t49.5 92.5l119 557l-111 154q123 123 257.5 185t314.5 62q186 0 282.5 -75.5t96.5 -214.5q0 -47 -13 -103l-251 -1186h-58l-280 197q-57 -111 -138 -157t-194 -46q-53 0 -105.5 15.5t-78.5 37.5l12 50q33 -25 82 -39.5t100 -14.5 q111 0 177.5 45.5t113.5 149.5h57l264 -184l240 1124q12 61 12 111q0 127 -83 184t-246 57q-152 0 -267.5 -45t-230.5 -151l106 -146l-120 -563q-35 -172 -205 -172h-101z" />
<glyph unicode="&#xe10;" horiz-adv-x="1181" d="M-41 -408l12 52q33 -25 82 -39.5t101 -14.5q111 0 177 45.5t113 149.5h58l264 -184l53 247h58l-64 -301h-57l-281 197q-57 -111 -138 -157t-194 -46q-51 0 -103 15.5t-81 35.5zM233 1006l11 51q80 33 185.5 51t219.5 18q209 0 324 -98l170 150h63l-202 -179 q86 -98 86 -264q0 -74 -19 -164q-37 -172 -144.5 -301t-261 -199.5t-325.5 -70.5h-82l-20 602h57l18 -553q172 0 320.5 63.5t249 181.5t135.5 277q18 90 18 164q0 342 -397 342q-227 0 -406 -71z" />
<glyph unicode="&#xe11;" horiz-adv-x="1224" d="M41 0l106 506q14 61 53.5 112.5t112.5 126.5q59 59 92 101.5t44 85.5l2 6q-49 -29 -113 -29q-47 0 -76 23.5t-29 64.5q0 8 5 29l14 70h57l-12 -64q-4 -25 -4 -31q0 -23 15.5 -33t53.5 -10q51 0 99 29l22 109h54l-27 -127q166 158 379 157q248 0 248 -227q0 -51 -13 -117 l-166 -782h-57l164 780q14 63 14 121q0 88 -47 132t-153 44q-109 0 -204 -44t-188 -140q-18 -45 -49.5 -85t-93.5 -103q-59 -57 -94 -101.5t-45 -93.5l-107 -510h-57z" />
<glyph unicode="&#xe12;" horiz-adv-x="2099" d="M113 360q0 76 18 168q61 285 177 441.5t278 156.5q86 0 126 -37.5t52 -111.5h2q39 70 106.5 109.5t149.5 39.5q180 0 180 -180q0 -53 -12 -115l-121 -575q106 -238 369 -238q162 0 269.5 84t139.5 236l160 758h57l-161 -760q-37 -176 -156 -271.5t-320 -95.5 q-119 0 -218 55.5t-156 163.5l-39 -188h-58l177 829q14 76 14 113q0 68 -32 101.5t-103 33.5q-80 0 -134.5 -38t-93.5 -119h-57q-4 84 -39 120.5t-113 36.5q-125 0 -230 -145.5t-161 -403.5q-18 -92 -18 -168q0 -168 91 -255t261 -87q35 0 79 4.5t73 10.5l-11 -47 q-27 -6 -71.5 -11.5t-79.5 -5.5q-186 0 -290.5 100.5t-104.5 290.5z" />
<glyph unicode="&#xe13;" horiz-adv-x="2033" d="M152 123q0 23 6 49l118 553l-69 154q123 125 251 186t300 61q178 0 268 -73.5t90 -210.5q0 -49 -12 -109l-84 -395q-12 -51 -12 -98q0 -221 282 -222q256 0 475 248l177 830h57l-232 -1096h-57l39 188q-109 -113 -232.5 -166t-236.5 -53q-162 0 -246 71t-84 200 q0 39 11 96l83 389q14 76 15 119q0 121 -76 177t-235 56q-143 0 -253 -46t-225 -152l66 -146l-121 -565q-6 -25 -6 -45q0 -39 24.5 -56.5t79.5 -17.5h111l-10 -49h-121q-70 0 -105.5 31.5t-35.5 91.5z" />
<glyph unicode="&#xe14;" horiz-adv-x="1320" d="M113 362q0 78 18 166q61 283 236.5 440.5t437.5 157.5q219 0 314 -89t95 -230q0 -53 -12 -109l-147 -698h-58l148 700q12 59 12 111q0 129 -86 197.5t-276 68.5q-227 0 -391 -144.5t-220 -404.5q-18 -92 -18 -166q0 -168 92 -256t260 -88q35 0 79 4.5t73 10.5l-11 -47 q-27 -6 -71.5 -11.5t-79.5 -5.5q-184 0 -289.5 102.5t-105.5 290.5z" />
<glyph unicode="&#xe15;" horiz-adv-x="1320" d="M111 356q0 66 20 172q59 279 187 438.5t286 159.5q86 0 128 -37.5t54 -111.5h2q39 70 110 109.5t153 39.5q193 0 192 -192q0 -47 -12 -103l-176 -831h-58l177 829q12 59 12 107q0 70 -34 105.5t-110 35.5q-164 0 -237 -157h-57q-4 84 -39 120.5t-113 36.5 q-82 0 -163 -65.5t-146.5 -189.5t-102.5 -294q-20 -90 -20 -172q0 -166 91 -252t263 -86q35 0 79 4.5t73 10.5l-11 -47q-27 -6 -71.5 -11.5t-79.5 -5.5q-189 0 -293 100.5t-104 286.5z" />
<glyph unicode="&#xe16;" horiz-adv-x="1255" d="M152 123q0 23 6 49l118 553l-69 154q123 123 257 185t314 62q186 0 282.5 -75.5t96.5 -214.5q0 -47 -12 -103l-156 -733h-57l153 725q12 61 13 111q0 125 -81 183t-249 58q-152 0 -267.5 -46t-230.5 -152l66 -146l-121 -565q-6 -25 -6 -45q0 -39 24.5 -56.5t77.5 -17.5 h113l-10 -49h-121q-70 0 -105.5 31.5t-35.5 91.5z" />
<glyph unicode="&#xe17;" horiz-adv-x="1245" d="M61 0l232 1096h57l-39 -183q106 111 240.5 162t259.5 51q166 0 253 -72.5t87 -199.5q0 -37 -10 -88l-162 -766h-57l161 764q10 51 11 88q0 109 -73 167t-220 58q-293 0 -506 -241l-176 -836h-58z" />
<glyph unicode="&#xe18;" horiz-adv-x="1105" d="M78 227q0 18 8 64l31 143h57l-33 -153q-6 -27 -6 -52q0 -102 90 -156.5t242 -54.5q170 0 279.5 61.5t136.5 184.5q10 47 10 76q0 59 -33 98t-100.5 68t-192.5 61q-129 35 -199.5 61.5t-118.5 73t-48 119.5q0 31 4 47q27 141 149.5 199.5t327.5 58.5q96 0 203.5 -24.5 t152.5 -59.5l-12 -51q-59 41 -152.5 63.5t-201.5 22.5q-180 0 -284.5 -45t-129.5 -164q-6 -25 -6 -45q0 -57 39 -93t107.5 -60.5t203.5 -61.5q125 -35 193.5 -63.5t109.5 -75.5t41 -123q0 -31 -10 -82q-31 -141 -150.5 -218t-328.5 -77q-164 0 -271.5 67.5t-107.5 190.5z " />
<glyph unicode="&#xe19;" horiz-adv-x="1245" d="M121 246q0 35 10 90l162 760h57l-160 -758q-10 -55 -10 -92q0 -227 301 -228q276 0 496 248l176 830h57l-231 -1096h-57l39 188q-109 -113 -239 -166t-251 -53q-170 0 -260 73t-90 204z" />
<glyph unicode="&#xe1a;" horiz-adv-x="1273" d="M133 293q0 57 10 100l150 703h57l-151 -715q-10 -51 -11 -90q0 -127 88.5 -200t260.5 -73q197 0 327.5 99.5t165.5 263.5l152 715h57l-149 -703q-43 -201 -189.5 -312.5t-374.5 -111.5q-186 0 -289.5 86t-103.5 238z" />
<glyph unicode="&#xe1b;" horiz-adv-x="1273" d="M133 293q0 57 10 100l150 703h57l-151 -715q-10 -55 -11 -94q0 -127 88.5 -198t260.5 -71q197 0 327.5 99.5t165.5 263.5l230 1081h57l-227 -1069q-41 -197 -189.5 -310.5t-374.5 -113.5q-186 0 -289.5 86t-103.5 238z" />
<glyph unicode="&#xe1c;" horiz-adv-x="1275" d="M61 0l195 924q35 172 199 172h92l-10 -49h-74q-63 0 -98 -27t-50 -92l-176 -830l549 701h31l254 -701l211 998h57l-231 -1096h-58l-260 725l-569 -725h-62z" />
<glyph unicode="&#xe1d;" horiz-adv-x="1275" d="M61 0l195 924q37 172 199 172h92l-10 -49h-74q-63 0 -98 -27t-50 -92l-176 -830l549 701h31l254 -701l289 1364h57l-309 -1462h-58l-260 725l-569 -725h-62z" />
<glyph unicode="&#xe1e;" horiz-adv-x="1538" d="M231 1096h58l55 -1000l522 1000h64l96 -1000l481 1000h58l-535 -1096h-41l-100 1036l-537 -1036h-49z" />
<glyph unicode="&#xe1f;" horiz-adv-x="1527" d="M231 1096h58l55 -1000l522 1000h64l96 -1000l651 1366h58l-705 -1462h-41l-100 1036l-537 -1036h-49z" />
<glyph unicode="&#xe20;" horiz-adv-x="1325" d="M20 0l11 49h84q68 0 103.5 26.5t49.5 92.5l119 557l-111 154q123 123 257.5 185t314.5 62q184 0 280.5 -75.5t96.5 -216.5q0 -57 -11 -101l-155 -733h-58l154 725q12 61 12 111q0 125 -80.5 183t-248.5 58q-152 0 -267.5 -45t-230.5 -151l106 -146l-120 -563 q-18 -84 -66.5 -128t-138.5 -44h-101z" />
<glyph unicode="&#xe21;" horiz-adv-x="1245" d="M61 0l232 1096h57l-176 -834q55 -123 154.5 -183.5t234.5 -60.5q178 0 288 83t142 237l160 758h57l-161 -760q-37 -176 -161 -271.5t-335 -95.5q-119 0 -225.5 54.5t-169.5 164.5l-39 -188h-58z" />
<glyph unicode="&#xe22;" horiz-adv-x="1236" d="M76 225q0 39 8 74q23 111 93.5 186.5t176.5 102.5q-160 55 -159 196q0 29 6 62q27 123 122 201.5t236 78.5q88 0 146 -20l-11 -47q-55 18 -145 18q-113 0 -193 -63.5t-102 -167.5q-6 -25 -6 -51q0 -84 63.5 -135.5t177.5 -51.5h109l-10 -49h-105q-137 0 -228 -65.5 t-118 -194.5q-8 -45 -8 -66q0 -106 92 -160.5t271 -54.5q217 0 341.5 100.5t161.5 276.5l148 701h57l-147 -699q-39 -182 -172 -305t-400 -123q-186 0 -295.5 62.5t-109.5 193.5z" />
<glyph unicode="&#xe23;" horiz-adv-x="1003" d="M37 80l10 51q143 -113 352 -113q170 0 262.5 56.5t114.5 169.5q10 47 10 75q0 74 -59 119t-219 88q-164 47 -241 98.5t-77 151.5q0 16 9 66q31 143 144.5 213.5t297.5 70.5q86 0 164 -23.5t131 -60.5l-12 -51q-63 43 -132 64.5t-161 21.5q-330 0 -379 -235q-8 -45 -8 -62 q0 -80 65.5 -124t231.5 -89q160 -43 228.5 -97t68.5 -148q0 -39 -9 -78q-55 -274 -442 -275q-94 0 -191.5 31t-158.5 80z" />
<glyph unicode="&#xe24;" horiz-adv-x="1255" d="M152 123q0 23 6 49l118 553l-69 154q123 123 257 185t314 62q186 0 282.5 -75.5t96.5 -214.5q0 -47 -12 -103l-242 -1134h-57l239 1126q14 76 15 115q0 123 -82 180t-250 57q-152 0 -267.5 -46t-230.5 -152l66 -146l-121 -565q-6 -25 -6 -45q0 -39 24.5 -56.5t77.5 -17.5 h113l-10 -49h-121q-70 0 -105.5 31.5t-35.5 91.5z" />
<glyph unicode="&#xe25;" horiz-adv-x="1177" d="M74 215q0 37 10 92q37 166 160 252t313 86q238 0 412 -96l41 190q12 61 12 111q0 119 -79 173t-243 54q-94 0 -184 -14t-158 -43l13 51q57 25 153.5 40t186.5 15q188 0 278 -72.5t90 -207.5q0 -51 -12 -111l-156 -735h-57l104 500q-90 51 -189 73.5t-222 22.5 q-166 0 -272.5 -73.5t-137.5 -215.5q-10 -51 -10 -86q0 -203 270 -203q35 0 79 4.5t73 10.5l-10 -47q-27 -6 -72 -11.5t-80 -5.5q-151 0 -232 62.5t-81 183.5z" />
<glyph unicode="&#xe26;" horiz-adv-x="1325" d="M20 0l11 49h84q68 0 103.5 26.5t49.5 92.5l119 557l-111 154q123 123 257.5 185t314.5 62q186 0 282.5 -75.5t96.5 -214.5q0 -47 -13 -103l-241 -1134h-58l240 1126q12 59 12 109q0 125 -81.5 184t-247.5 59q-152 0 -267.5 -45t-230.5 -151l106 -146l-120 -563 q-35 -172 -205 -172h-101z" />
<glyph unicode="&#xe27;" horiz-adv-x="1193" d="M35 74l12 59q109 -115 352 -115q242 0 410 135.5t221 393.5q18 90 19 162q0 182 -110 275t-314 93q-244 0 -402 -114l15 59q168 104 397 104q219 0 343 -108.5t124 -308.5q0 -76 -19 -162q-57 -274 -241.5 -426t-452.5 -152q-229 1 -354 105z" />
<glyph unicode="&#xe28;" horiz-adv-x="1255" d="M61 0l154 723q39 193 182.5 298t364.5 105q186 0 285 -73l141 125h67l-176 -158q74 -74 74 -199q0 -45 -12 -98l-154 -723h-57l153 723q10 43 11 98q0 129 -88 192.5t-254 63.5q-188 0 -315.5 -88t-164.5 -266l-67 -313q47 70 131 114.5t182 44.5h156l-12 -49h-166 q-72 0 -141.5 -37t-118 -94t-60.5 -117l-57 -272h-58z" />
<glyph unicode="&#xe29;" horiz-adv-x="1318" d="M133 293q0 57 10 100l150 703h57l-151 -715q-10 -51 -11 -86q0 -127 90.5 -202t258.5 -75q197 0 327.5 99.5t165.5 263.5l45 215h-321l10 49h321l97 451h57l-96 -451h137l-10 -49h-137l-43 -203q-41 -193 -193 -308.5t-371 -115.5q-186 0 -289.5 86t-103.5 238z" />
<glyph unicode="&#xe2a;" horiz-adv-x="1181" d="M74 215q0 37 10 92q37 164 162 251t311 87q238 0 412 -96l41 190q12 59 12 105q0 119 -80 176t-242 57q-94 0 -184 -14t-158 -43l13 51q57 25 153.5 40t186.5 15q184 0 280 -77l148 129h67l-182 -160q55 -68 55 -174q0 -49 -12 -109l-156 -735h-57l104 500 q-90 51 -189 73.5t-222 22.5q-162 0 -270.5 -73.5t-139.5 -215.5q-10 -51 -10 -86q0 -203 270 -203q35 0 79 4.5t73 10.5l-10 -47q-27 -6 -72 -11.5t-80 -5.5q-151 0 -232 62.5t-81 183.5z" />
<glyph unicode="&#xe2b;" horiz-adv-x="1183" d="M61 0l232 1096h57l-131 -613l834 613h77l-346 -260q127 -31 184.5 -95.5t57.5 -162.5q0 -47 -12 -107l-99 -471h-57l98 471q12 59 13 107q0 90 -54.5 141t-181.5 78l-528 -383l-86 -414h-58z" />
<glyph unicode="&#xe2c;" horiz-adv-x="1277" d="M61 0l232 1096h57l-211 -998l549 701h31l254 -701l155 733q14 63 15 117q0 86 -49.5 126t-163.5 40l8 41l311 307h70l-311 -307q104 -18 148 -69.5t44 -135.5q0 -43 -14 -119l-176 -831h-56l-262 725l-567 -725h-64z" />
<glyph unicode="&#xe2d;" horiz-adv-x="1200" d="M39 94l98 463h346l-10 -49h-289l-84 -397q106 -92 306 -93q240 0 408.5 135.5t221.5 393.5q18 90 19 162q0 182 -109.5 275t-314.5 93q-231 0 -402 -114l15 59q178 104 397 104t343 -108.5t124 -308.5q0 -76 -18 -162q-57 -272 -241.5 -425t-453.5 -153q-108 0 -202.5 31 t-153.5 94z" />
<glyph unicode="&#xe2e;" horiz-adv-x="1200" d="M39 94l98 463h346l-10 -49h-289l-84 -397q61 -51 135 -72t171 -21q240 0 408.5 135.5t221.5 393.5q18 86 19 160q0 182 -110.5 276t-313.5 94q-244 0 -402 -114l15 59q162 104 397 104q207 0 328 -98l172 150h63l-203 -179q104 -104 105 -292q0 -84 -16 -160 q-55 -274 -241.5 -426t-453.5 -152q-108 0 -202.5 31t-153.5 94z" />
<glyph unicode="&#xe2f;" horiz-adv-x="946" d="M145 754q0 37 9 71q31 147 128 224t234 77q96 0 143 -20l-10 -47q-49 18 -143 18q-115 0 -194 -62.5t-105 -189.5q-8 -49 -8 -65q0 -92 62.5 -137t170.5 -45q180 0 334 100l88 418h57l-231 -1096h-57l133 627q-68 -47 -157 -73t-177 -26q-123 0 -200 57.5t-77 168.5z" />
<glyph unicode="&#xe30;" horiz-adv-x="618" d="M68 211q0 8 4 33l16 75h57l-14 -65q-4 -25 -4 -29q0 -23 16.5 -33t53.5 -10h233l-10 -49h-252q-100 0 -100 78zM188 780q0 8 5 33l16 76h57l-14 -66q-4 -20 -4 -28q0 -23 16.5 -33t54.5 -10h234l-12 -50h-252q-101 0 -101 78z" />
<glyph unicode="&#xe31;" d="M-387 1376q0 8 4 33l16 76h58l-15 -66q-4 -25 -4 -28q0 -23 16.5 -33t53.5 -10h471l-10 -50h-490q-100 0 -100 78z" />
<glyph unicode="&#xe32;" horiz-adv-x="870" d="M174 1020l12 51q55 25 131 40t154 15q303 0 303 -264q0 -55 -16 -131l-154 -731h-57l155 733q16 78 17 131q0 104 -60.5 158.5t-193.5 54.5q-92 0 -157.5 -13t-133.5 -44z" />
<glyph unicode="&#xe33;" horiz-adv-x="870" d="M-242 1376q0 61 36 115.5t92.5 87.5t113.5 33q70 0 113 -43t43 -111q0 -63 -35 -117.5t-90.5 -87t-114.5 -32.5q-70 0 -114 44t-44 111zM-190 1386q0 -51 32.5 -86.5t83.5 -35.5q68 0 125.5 57t57.5 127q0 49 -34 83t-85 34q-70 0 -125 -55.5t-55 -123.5zM172 1020l12 51 q55 25 131 40t154 15q303 0 303 -264q0 -55 -16 -131l-154 -731h-57l155 733q16 78 17 131q0 104 -60.5 158.5t-193.5 54.5q-92 0 -157.5 -13t-133.5 -44z" />
<glyph unicode="&#xe34;" d="M-780 1298l10 50h788l-10 -50h-788z" />
<glyph unicode="&#xe35;" d="M-780 1298l10 50h739l49 231h50l-60 -281h-788z" />
<glyph unicode="&#xe36;" d="M-780 1298l10 50h549q-29 25 -29 77q0 10 4 35q16 72 70.5 117t128.5 45q66 0 100.5 -31.5t34.5 -87.5q0 -88 -59.5 -146.5t-151.5 -58.5h-657zM-201 1427q0 -41 24.5 -63.5t72.5 -22.5q61 0 102 43t41 107q0 41 -24.5 64.5t-71.5 23.5q-63 0 -103.5 -43t-40.5 -109z" />
<glyph unicode="&#xe37;" d="M-780 1298l10 50h465l49 231h49l-49 -231h225l49 231h50l-60 -281h-788z" />
<glyph unicode="&#xe38;" d="M-504 -197l10 50h99q80 0 80 -68l-4 -33l-56 -256h-57l53 250l4 25q0 18 -11 25t-38 7h-80z" />
<glyph unicode="&#xe39;" d="M-817 -197l10 50h96q33 0 48.5 -12.5t15.5 -41.5q0 -6 -4 -35l-25 -120q-4 -25 -4 -35q0 -84 115 -84q135 0 164 119l43 209h57l-45 -211q-16 -76 -77.5 -121t-151.5 -45q-78 0 -121 34.5t-43 94.5q0 12 4 37l24 114l4 25q0 14 -8 18t-28 4h-74z" />
<glyph unicode="&#xe3a;" d="M-399 -195q0 25 21.5 44.5t45.5 19.5q18 0 30.5 -12.5t12.5 -30.5q0 -25 -20.5 -44.5t-44.5 -19.5q-19 0 -32 12.5t-13 30.5z" />
<glyph unicode="&#xe3f;" horiz-adv-x="1280" d="M61 0l304 1432h415l45 210h58l-45 -210h116q145 0 217 -59.5t72 -180.5q0 -61 -14 -125q-25 -121 -103.5 -209t-177.5 -125q92 -18 145.5 -83.5t53.5 -170.5q0 -47 -12 -102q-39 -180 -156 -278.5t-291 -98.5h-153l-46 -211h-57l45 211h-416zM129 49h358l140 660h-359z M279 758h358l133 624h-358zM545 49h141q133 0 247 81t148 247q10 43 11 96q0 119 -75 177.5t-208 58.5h-125zM694 758h148q70 0 139.5 36.5t121.5 106.5t73 166q14 63 14 119q0 106 -60.5 151t-177.5 45h-125z" />
<glyph unicode="&#xe40;" horiz-adv-x="540" d="M90 121q0 25 6 51l197 924h57l-196 -928q-6 -25 -7 -45q0 -39 25 -56.5t76 -17.5h78l-11 -49h-92q-65 0 -99 30.5t-34 90.5z" />
<glyph unicode="&#xe41;" horiz-adv-x="997" d="M90 121q0 25 6 51l197 924h57l-196 -928q-6 -25 -7 -45q0 -39 25 -56.5t76 -17.5h78l-11 -49h-92q-65 0 -99 30.5t-34 90.5zM547 121q0 25 6 51l197 924h57l-197 -928q-6 -25 -6 -45q0 -39 24.5 -56.5t76.5 -17.5h77l-10 -49h-92q-66 0 -99.5 30.5t-33.5 90.5z" />
<glyph unicode="&#xe42;" horiz-adv-x="612" d="M205 121q0 25 6 51l195 909q14 66 14 125q0 98 -44 162t-134 113l12 59h520l-10 -49h-447q160 -84 160 -281q0 -57 -16 -135l-193 -907q-6 -25 -6 -45q0 -39 24.5 -56.5t75.5 -17.5h78l-10 -49h-92q-66 0 -99.5 30.5t-33.5 90.5z" />
<glyph unicode="&#xe43;" horiz-adv-x="565" d="M129 121q0 25 6 51l141 664q25 119 79.5 187.5t142.5 141.5q59 47 91 83t42 85q6 31 6 56q0 59 -38 90.5t-126 31.5q-119 0 -248 -65l11 51q119 63 249 64q104 0 154.5 -44t50.5 -124q0 -88 -38 -140.5t-115 -115.5q-82 -68 -130.5 -128.5t-70.5 -162.5l-143 -678 q-6 -25 -7 -45q0 -39 25 -56.5t76 -17.5h78l-11 -49h-92q-65 0 -99 30.5t-34 90.5z" />
<glyph unicode="&#xe44;" horiz-adv-x="612" d="M172 121q0 25 6 51l193 903q68 307 319 416h-446l10 49h520l-12 -59q-141 -63 -220 -152.5t-112 -247.5l-194 -913q-6 -25 -7 -45q0 -39 25 -56.5t76 -17.5h78l-11 -49h-92q-65 0 -99 30.5t-34 90.5z" />
<glyph unicode="&#xe45;" horiz-adv-x="870" d="M174 1020l12 51q55 25 131 40t154 15q303 0 303 -264q0 -55 -16 -131l-240 -1132h-57l241 1134q14 63 15 125q0 109 -60.5 164t-191.5 55q-92 0 -157.5 -13t-133.5 -44z" />
<glyph unicode="&#xe46;" horiz-adv-x="1136" d="M133 686q0 51 10 92q41 186 126 267t196 81q82 0 117.5 -36.5t48.5 -112.5h2q37 72 101.5 110.5t146.5 38.5q94 0 137 -46t43 -132q0 -49 -12 -110l-179 -838h-57l176 838q16 72 17 116q0 61 -32 92t-104 31q-76 0 -127 -36.5t-92 -120.5h-57q-4 86 -35 121.5t-104 35.5 q-80 0 -152 -67.5t-106 -231.5q-10 -55 -11 -90q0 -102 64.5 -146t185.5 -44q35 0 79 4t73 10l-10 -47q-27 -6 -72 -11t-80 -5q-133 0 -213 58t-80 179z" />
<glyph unicode="&#xe47;" d="M-684 1393q0 25 6 49q23 102 95.5 156.5t179.5 54.5h432l-11 -49h-432q-178 0 -211 -162q-4 -16 -4 -43q0 -51 31 -79t86 -28q70 0 117 38t59 97h53q-4 -25 -4 -34q0 -43 28 -68t81 -25h96l-8 -47h-94q-68 0 -105 31t-37 72q-23 -43 -77 -77t-119 -34q-76 0 -119 40 t-43 108z" />
<glyph unicode="&#xe48;" d="M-45 1298l65 308h50l-66 -308h-49z" />
<glyph unicode="&#xe49;" d="M-440 1477l10 49h94q82 0 82 -66q0 -10 -4 -26l-18 -88h415l-10 -48h-473l27 127q2 8 2 23q0 16 -9.5 22.5t-29.5 6.5h-86z" />
<glyph unicode="&#xe4a;" d="M-686 1407q0 27 6 53q23 102 78 151.5t127 49.5q104 0 115 -90h2q20 43 60 66.5t89 23.5q119 0 119 -107q0 -27 -6 -57l-33 -151h43q80 0 96 77l49 238h50l-50 -238q-12 -57 -51 -91t-98 -34h-96l41 197q6 31 6 51q0 37 -18.5 52.5t-61.5 15.5q-106 0 -135 -127l-6 -31 h-50l7 31q4 14 4 41q0 86 -86 86q-55 0 -90 -38t-52 -116q-4 -29 -4 -47q0 -63 29 -115h-55q-29 48 -29 109z" />
<glyph unicode="&#xe4b;" d="M-305 1446l10 49h152l30 147h50l-31 -147h153l-10 -49h-153l-33 -148h-49l32 148h-151z" />
<glyph unicode="&#xe4c;" d="M-387 1298l16 76q25 111 146 111h448l-10 -49h-430q-47 0 -67.5 -15.5t-30.5 -56.5l-15 -66h-57z" />
<glyph unicode="&#xe4d;" d="M-242 1376q0 61 36 115.5t92.5 87.5t113.5 33q70 0 113 -43t43 -111q0 -63 -35 -117.5t-90.5 -87t-114.5 -32.5q-70 0 -114 44t-44 111zM-190 1386q0 -51 32.5 -86.5t83.5 -35.5q68 0 125.5 57t57.5 127q0 49 -34 83t-85 34q-70 0 -125 -55.5t-55 -123.5z" />
<glyph unicode="&#xe4e;" d="M-344 1415q0 12 4 37q16 76 73.5 118t137.5 46q-29 25 -29 61q0 59 52.5 101.5t117.5 42.5q63 0 99 -23l-11 -45q-37 25 -96 25q-49 0 -79.5 -27t-30.5 -70q0 -55 77 -69l-8 -41q-25 8 -74 8q-80 0 -122.5 -30.5t-57.5 -96.5q-4 -20 -4 -29q0 -82 115 -82q78 0 131 35 l-10 -45q-55 -33 -131 -33q-74 0 -114 31t-40 86z" />
<glyph unicode="&#xe4f;" horiz-adv-x="1282" d="M111 365q0 63 14 127q33 154 125 272.5t224 184t280 65.5q190 0 306 -108.5t116 -289.5q0 -49 -15 -124q-33 -154 -126 -273t-225 -184.5t-280 -65.5q-190 0 -304.5 107.5t-114.5 288.5zM164 362q0 -162 99 -253t278 -91q133 0 250.5 58.5t201.5 165t115 250.5 q12 66 12 120q0 166 -99 259.5t-278 93.5q-133 0 -251.5 -58.5t-201.5 -166t-112 -248.5q-14 -63 -14 -130zM283 408q0 33 10 84q20 102 82.5 183t152.5 125t189 44q129 0 206.5 -73t77.5 -198q0 -43 -8 -81q-23 -102 -85 -183.5t-152 -125.5t-189 -44q-129 0 -206.5 73 t-77.5 196zM336 408q0 -102 63.5 -161t178.5 -59q131 0 231 83t131 221q8 39 8 81q0 104 -62.5 163t-178.5 59q-131 0 -231.5 -83t-129.5 -220q-10 -51 -10 -84z" />
<glyph unicode="&#xe50;" horiz-adv-x="1282" d="M111 365q0 63 14 127q33 156 122 273.5t221 183t286 65.5q190 0 306 -108.5t116 -289.5q0 -49 -15 -124q-33 -156 -123 -274t-222 -183.5t-286 -65.5q-190 0 -304.5 107.5t-114.5 288.5zM164 365q0 -162 100.5 -254.5t276.5 -92.5q133 0 250.5 58.5t201.5 165t115 250.5 q14 80 14 124q0 162 -99 255.5t-280 93.5q-133 0 -251.5 -58.5t-201.5 -166t-112 -248.5q-14 -63 -14 -127z" />
<glyph unicode="&#xe51;" horiz-adv-x="1314" d="M119 416q0 53 12 110q49 229 214 358.5t421 129.5q223 0 332.5 -97.5t109.5 -279.5q0 -68 -20 -170q-53 -248 -230.5 -406.5t-498.5 -230.5l10 51q565 119 666 586q20 102 20 170q0 160 -95 244t-304 84q-229 0 -379 -116t-193 -323q-12 -57 -12 -108q0 -127 80 -195.5 t229 -68.5q63 0 125 14t101 41l-11 -51q-102 -53 -227 -54q-166 0 -258 83t-92 229z" />
<glyph unicode="&#xe52;" horiz-adv-x="1427" d="M139 319q0 53 13 111l147 696h57l-151 -714q-10 -55 -10 -95q0 -150 113.5 -224.5t305.5 -74.5q129 0 250 39t207 117t109 188l88 412q8 39 8 76q0 61 -33 88t-100 27q-66 0 -121 -39t-94 -119h-58q-2 82 -32.5 120t-96.5 38q-184 0 -249 -310q-10 -55 -11 -88 q0 -94 55.5 -138t151.5 -44q88 0 143 16l-10 -51q-63 -14 -143 -14q-119 0 -184.5 59.5t-65.5 167.5q0 51 10 92q74 358 314 359q82 0 118.5 -39t40.5 -111h2q35 68 99.5 109t140.5 41q182 0 182 -160q0 -37 -8 -72l-86 -401q-29 -133 -122 -226.5t-227 -139.5t-288 -46 q-209 0 -337 88t-128 262z" />
<glyph unicode="&#xe53;" horiz-adv-x="1325" d="M96 274q0 82 23 195q57 268 176 406.5t283 138.5q154 0 186 -123q49 57 121.5 90t144.5 33q88 0 143.5 -46t55.5 -134q0 -16 -8 -66l-162 -768h-58l162 768q8 33 8 66q0 131 -163 131q-76 0 -146.5 -46.5t-85.5 -117.5l-98 -461h-57l98 461q4 25 4 37q0 59 -41 93 t-109 34q-143 0 -245.5 -132.5t-153.5 -363.5q-23 -113 -22 -188q0 -129 51 -195t145 -66q84 0 148 19l-13 -53q-72 -16 -147 -17q-115 0 -177.5 79t-62.5 226z" />
<glyph unicode="&#xe54;" horiz-adv-x="1265" d="M104 338q0 68 15 133q117 543 737 543h82q125 0 204 26.5t122 114.5h53q-43 -86 -101.5 -127t-141.5 -53t-230 -12q-285 0 -453 -125t-219 -367q-14 -66 -14 -127q0 -150 92 -223.5t264 -73.5h223q-49 27 -76.5 77t-27.5 114q0 35 6 67q27 133 120 215t228 82 q109 0 162 -33l-12 -51q-23 16 -65 25.5t-89 9.5q-117 0 -191.5 -68.5t-99.5 -179.5q-8 -49 -8 -67q0 -188 264 -189h144l-11 -49h-575q-191 0 -296.5 86t-105.5 252z" />
<glyph unicode="&#xe55;" horiz-adv-x="1265" d="M104 336q0 66 15 135q53 246 215 382t430 157q-31 29 -31 84q0 23 2 32q16 72 70.5 118t128.5 46q59 0 96 -35.5t37 -91.5q0 -41 -20.5 -82t-55.5 -67q96 4 165 33.5t108 107.5h53q-41 -82 -97.5 -123t-136 -55t-213.5 -14h-26q-285 0 -453 -125t-219 -367 q-14 -66 -14 -129q0 -295 356 -295h223q-47 23 -75.5 75t-28.5 120q0 31 6 63q27 131 120 214t228 83q109 0 162 -33l-12 -51q-23 16 -65 25.5t-89 9.5q-117 0 -191.5 -68.5t-99.5 -179.5q-8 -49 -8 -67q0 -188 264 -189h144l-11 -49h-575q-193 0 -297.5 85t-104.5 251z M780 1098q0 -41 25.5 -67.5t68.5 -26.5q60 0 104 45t44 106q0 39 -25.5 64.5t-70.5 25.5q-61 0 -103.5 -44t-42.5 -103z" />
<glyph unicode="&#xe56;" horiz-adv-x="1353" d="M178 100l10 54q80 -68 181.5 -101t232.5 -33q133 0 254 56.5t206 162t116 246.5q16 82 16 146q0 156 -88 245t-275 89q-362 0 -546 -342h-54l-12 505h53l2 -436q86 152 231.5 237t336.5 85q201 0 303 -104.5t102 -278.5q0 -63 -16 -146q-33 -152 -124 -268.5t-225 -182 t-292 -65.5q-127 0 -239.5 35t-172.5 96z" />
<glyph unicode="&#xe57;" horiz-adv-x="1679" d="M96 274q0 82 23 195q59 270 171.5 407.5t276.5 137.5q80 0 122 -32t59 -91q49 57 118.5 90t141.5 33q86 0 137 -45t51 -131q0 -37 -8 -70l-152 -719q158 0 255.5 56.5t131.5 216.5l170 804h58l-166 -786q-41 -195 -153.5 -267.5t-305.5 -72.5h-57l161 768q8 35 9 70 q0 66 -38 96.5t-116 30.5q-76 0 -143.5 -46.5t-81.5 -117.5l-98 -461h-58l98 461q4 29 5 41q0 57 -38 90t-106 33q-141 0 -239.5 -130t-149.5 -366q-23 -117 -22 -193q0 -127 51 -191.5t145 -64.5q84 0 148 19l-13 -53q-72 -16 -147 -17q-115 0 -177.5 79t-62.5 226z" />
<glyph unicode="&#xe58;" horiz-adv-x="1331" d="M90 250q0 86 25 203q61 289 242.5 425t478.5 136q127 0 195.5 5t136 35.5t102.5 100.5h53q-43 -86 -104.5 -126t-149.5 -52t-244 -12q-258 0 -428 -122t-227 -390q-25 -117 -25 -201q0 -121 53.5 -177.5t161.5 -56.5q76 0 141.5 38t82.5 110l43 203h57l-43 -205 q-2 -8 -2 -23q0 -57 58.5 -90t119.5 -33q111 0 189.5 73t109.5 220q10 57 10 90q0 147 -141 148q-94 0 -158 -35l11 51q66 33 166 33q78 0 128 -48t50 -147q0 -37 -11 -92q-37 -166 -133 -254t-229 -88q-70 0 -125 29t-86 82q-45 -53 -111.5 -82t-142.5 -29q-254 0 -254 281 z" />
<glyph unicode="&#xe59;" horiz-adv-x="1437" d="M98 281q0 86 21 182q57 272 168.5 411.5t273.5 139.5q80 0 120 -29t64 -88q39 55 104.5 86t141.5 31q104 0 160.5 -49.5t56.5 -147.5q0 -16 -4 -57l234 366h53l-328 -516h-53l43 68q10 76 10 117q0 96 -41 132t-137 36q-86 0 -155.5 -46.5t-65.5 -109.5l59 -807h-57 l-59 815q-4 74 -40 111t-118 37q-137 0 -231.5 -134.5t-143.5 -365.5q-23 -109 -22 -184q0 -131 56 -196t163 -65q88 0 143 17l-10 -51q-63 -14 -144 -15q-124 0 -193 81t-69 231z" />
<glyph unicode="&#xe5a;" horiz-adv-x="1599" d="M186 754q0 39 9 71q31 147 128 224t234 77q96 0 143 -20l-10 -47q-49 18 -143 18q-113 0 -193 -63.5t-106 -188.5q-8 -33 -8 -69q0 -90 61 -134t172 -44q180 0 334 100l88 418h57l-86 -408q37 -59 92.5 -84.5t137.5 -25.5q90 0 166.5 23.5t156.5 76.5l88 418h58 l-232 -1096h-57l133 627q-70 -47 -152.5 -73t-171.5 -26q-66 0 -131 26t-102 71l-131 -625h-57l133 627q-68 -47 -157 -73t-177 -26q-121 0 -199 57.5t-78 168.5z" />
<glyph unicode="&#xe5b;" horiz-adv-x="2312" d="M106 340q0 61 17 147q49 236 197.5 381.5t369.5 145.5q172 0 260 -80t88 -217q0 -49 -12 -105q-43 -205 -150.5 -295t-242.5 -90q-57 0 -98 13.5t-80 40.5l10 51q29 -27 76 -41.5t100 -14.5q111 0 201 74t131 262q10 55 10 95q0 121 -74.5 189.5t-228.5 68.5 q-190 0 -324.5 -132.5t-179.5 -345.5q-16 -82 -16 -139q0 -168 106.5 -249t304.5 -81q246 0 414 149.5t229 432.5l43 207h64l39 -500h4l190 471h54l51 -422h4l162 381h47l51 -336h4l84 158h195l-11 -45h-165l-95 -178h-45l-49 326h-4l-160 -377h-55l-51 413h-4l-185 -456 h-57l-39 493h-4q-33 -358 -219 -562t-502 -204q-221 0 -338 94.5t-117 276.5z" />
<glyph unicode="&#x1e0c;" horiz-adv-x="1425" d="M61 0l304 1432h407q289 0 446.5 -137.5t157.5 -381.5q0 -84 -22 -190q-80 -365 -311.5 -544t-616.5 -179h-365zM129 49h283q745 0 888 674q23 106 23 188q0 227 -144.5 349t-426.5 122h-340zM360 -201q0 27 23 47.5t49 20.5q18 0 31.5 -13.5t13.5 -33.5 q0 -27 -21.5 -47.5t-47.5 -20.5q-21 0 -34.5 13.5t-13.5 33.5z" />
<glyph unicode="&#x1e0d;" horiz-adv-x="1327" d="M111 367q0 59 12 122q33 160 126 279t224 182.5t275 63.5q152 0 267 -68.5t146 -197.5l164 765h57l-321 -1513h-57l49 231q-88 -129 -223.5 -195.5t-305.5 -66.5q-186 0 -299.5 106.5t-113.5 291.5zM164 371q0 -164 101.5 -258.5t269.5 -94.5q172 0 317 86t223 240 l62 291q-8 156 -115 243t-285 87q-125 0 -242.5 -58.5t-202.5 -167t-116 -250.5q-12 -63 -12 -118zM446 -201q0 27 23 47.5t49 20.5q18 0 31.5 -13.5t13.5 -33.5q0 -27 -21.5 -47.5t-47.5 -20.5q-21 0 -34.5 13.5t-13.5 33.5z" />
<glyph unicode="&#x1e0e;" horiz-adv-x="1425" d="M61 0l304 1432h407q289 0 446.5 -137.5t157.5 -381.5q0 -84 -22 -190q-80 -365 -311.5 -544t-616.5 -179h-365zM86 -225l10 49h568l-11 -49h-567zM129 49h283q745 0 888 674q23 106 23 188q0 227 -144.5 349t-426.5 122h-340z" />
<glyph unicode="&#x1e0f;" horiz-adv-x="1327" d="M111 367q0 59 12 122q33 160 126 279t224 182.5t275 63.5q152 0 267 -68.5t146 -197.5l164 765h57l-321 -1513h-57l49 231q-88 -129 -223.5 -195.5t-305.5 -66.5q-186 0 -299.5 106.5t-113.5 291.5zM164 371q0 -164 101.5 -258.5t269.5 -94.5q172 0 317 86t223 240 l62 291q-8 156 -115 243t-285 87q-125 0 -242.5 -58.5t-202.5 -167t-116 -250.5q-12 -63 -12 -118zM215 -225l10 49h568l-11 -49h-567z" />
<glyph unicode="&#x1e20;" horiz-adv-x="1490" d="M152 535q0 90 20 180q47 219 179 389t320.5 264t397.5 94q301 0 451 -162l-13 -61q-76 92 -185.5 133t-262.5 41q-193 0 -367 -86t-299 -244.5t-168 -367.5q-20 -90 -20 -180q0 -242 150.5 -379.5t406.5 -137.5q139 0 253.5 33t225.5 107l115 536h-363l11 49h419 l-127 -596q-203 -178 -544 -178q-179 0 -315 70t-210.5 198t-74.5 298zM848 1665l12 49h570l-13 -49h-569z" />
<glyph unicode="&#x1e21;" horiz-adv-x="1327" d="M111 369q0 47 14 125q33 158 126 275.5t224 181t273 63.5q160 0 266 -67.5t149 -194.5l49 231h58l-205 -960q-53 -248 -200.5 -371t-407.5 -123q-101 0 -191 18.5t-139 49.5l10 51q129 -70 330 -70q451 0 539 432l45 219q-90 -127 -231.5 -193.5t-295.5 -66.5 q-186 0 -299.5 108.5t-113.5 291.5zM166 373q0 -164 100.5 -259.5t268.5 -95.5q163 0 316 89.5t226 240.5l62 291q-14 156 -122 241t-280 85q-125 0 -241.5 -58.5t-201.5 -166t-116 -246.5q-12 -63 -12 -121zM516 1300l12 50h570l-13 -50h-569z" />
<glyph unicode="&#x1e24;" horiz-adv-x="1376" d="M61 0l304 1432h57l-143 -676h933l144 676h57l-303 -1432h-57l149 707h-934l-149 -707h-58zM487 -201q0 27 22.5 47.5t49.5 20.5q18 0 31.5 -13.5t13.5 -33.5q0 -27 -21.5 -47.5t-47.5 -20.5q-21 0 -34.5 13.5t-13.5 33.5z" />
<glyph unicode="&#x1e25;" horiz-adv-x="1173" d="M61 0l322 1513h57l-151 -712q102 113 224 163t245 50q158 0 233.5 -67.5t75.5 -188.5q0 -49 -12 -105l-137 -653h-58l137 651q12 59 13 109q0 100 -61.5 152.5t-200.5 52.5q-264 0 -476 -242l-153 -723h-58zM422 -201q0 27 22.5 47.5t49.5 20.5q18 0 31.5 -13.5 t13.5 -33.5q0 -27 -21.5 -47.5t-48.5 -20.5q-20 0 -33.5 13.5t-13.5 33.5z" />
<glyph unicode="&#x1e2a;" horiz-adv-x="1376" d="M61 0l304 1432h57l-143 -676h933l144 676h57l-303 -1432h-57l149 707h-934l-149 -707h-58zM326 -182q0 12 4 45h49q-4 -25 -4 -39q0 -59 42 -97t118 -38q88 0 149 49t78 125h49q-18 -94 -100 -157.5t-187 -63.5q-92 0 -145 49t-53 127z" />
<glyph unicode="&#x1e2b;" horiz-adv-x="1173" d="M61 0l322 1513h57l-151 -712q102 113 224 163t245 50q158 0 233.5 -67.5t75.5 -188.5q0 -49 -12 -105l-137 -653h-58l137 651q12 59 13 109q0 100 -61.5 152.5t-200.5 52.5q-264 0 -476 -242l-153 -723h-58zM264 -182q0 12 4 45h49q-4 -25 -4 -39q0 -59 42 -97t118 -38 q88 0 149.5 49t77.5 125h50q-18 -94 -100.5 -157.5t-186.5 -63.5q-92 0 -145.5 49t-53.5 127z" />
<glyph unicode="&#x1e36;" horiz-adv-x="1120" d="M61 0l304 1432h57l-293 -1383h817l-10 -49h-875zM391 -201q0 27 22.5 47.5t49.5 20.5q18 0 31.5 -13.5t13.5 -33.5q0 -27 -21.5 -47.5t-48.5 -20.5q-20 0 -33.5 13.5t-13.5 33.5z" />
<glyph unicode="&#x1e37;" horiz-adv-x="385" d="M-10 -201q0 27 22.5 47.5t48.5 20.5q18 0 31.5 -13.5t13.5 -33.5q0 -27 -21.5 -47.5t-47.5 -20.5q-21 0 -34 13.5t-13 33.5zM61 0l322 1513h57l-321 -1513h-58z" />
<glyph unicode="&#x1e38;" horiz-adv-x="1120" d="M61 0l304 1432h57l-293 -1383h817l-10 -49h-875zM154 1645l12 49h569l-12 -49h-569zM397 -201q0 27 22.5 47.5t49.5 20.5q18 0 31.5 -13.5t13.5 -33.5q0 -27 -21.5 -47.5t-48.5 -20.5q-20 0 -33.5 13.5t-13.5 33.5z" />
<glyph unicode="&#x1e39;" horiz-adv-x="385" d="M-8 -201q0 27 22.5 47.5t48.5 20.5q18 0 32 -13.5t14 -33.5q0 -27 -21.5 -47.5t-48.5 -20.5q-21 0 -34 13.5t-13 33.5zM61 0l322 1513h57l-321 -1513h-58zM156 1665l12 49h569l-12 -49h-569z" />
<glyph unicode="&#x1e3a;" horiz-adv-x="1120" d="M61 0l304 1432h57l-293 -1383h817l-10 -49h-875zM184 -225l11 49h567l-10 -49h-568z" />
<glyph unicode="&#x1e3b;" horiz-adv-x="385" d="M-242 -225l11 49h567l-10 -49h-568zM61 0l322 1513h57l-321 -1513h-58z" />
<glyph unicode="&#x1e42;" horiz-adv-x="1677" d="M61 0l304 1432h65l326 -1338l893 1338h65l-303 -1432h-53l278 1315l-876 -1315h-39l-320 1315l-278 -1315h-62zM639 -201q0 27 22.5 47.5t49.5 20.5q18 0 31.5 -13.5t13.5 -33.5q0 -27 -21.5 -47.5t-48.5 -20.5q-20 0 -33.5 13.5t-13.5 33.5z" />
<glyph unicode="&#x1e43;" horiz-adv-x="1738" d="M61 0l209 983h58l-39 -176q106 115 205.5 161t210.5 46q244 0 260 -191q166 190 413 191q135 0 197.5 -54.5t62.5 -164.5q0 -53 -16 -131l-139 -664h-58l140 662q18 84 18 139q0 88 -49 126t-166 38q-106 0 -205.5 -45.5t-197.5 -157.5q-4 -53 -17 -109l-137 -653h-57 l137 651q18 84 18 142q0 90 -49 131t-166 41t-213 -53.5t-209 -182.5l-153 -729h-58zM688 -201q0 27 22.5 47.5t49.5 20.5q18 0 31.5 -13.5t13.5 -33.5q0 -27 -21.5 -47.5t-48.5 -20.5q-20 0 -33.5 13.5t-13.5 33.5z" />
<glyph unicode="&#x1e44;" horiz-adv-x="1357" d="M61 0l304 1432h51l641 -1326l280 1326h58l-303 -1432h-45l-644 1329l-280 -1329h-62zM913 1675q4 23 24.5 40.5t43.5 17.5t37 -17.5t10 -40.5q-6 -23 -26.5 -40t-43.5 -17q-22 0 -36.5 17.5t-8.5 39.5z" />
<glyph unicode="&#x1e45;" horiz-adv-x="1173" d="M61 0l209 983h58l-39 -182q102 113 224 163t245 50q158 0 233.5 -67.5t75.5 -188.5q0 -49 -12 -105l-137 -653h-58l137 651q12 55 13 103q0 211 -262 211q-264 0 -476 -242l-153 -723h-58zM721 1229q4 23 24.5 40t42.5 17q23 0 37.5 -17.5t10.5 -39.5q-6 -23 -27 -40.5 t-43 -17.5q-23 0 -37 17.5t-8 40.5z" />
<glyph unicode="&#x1e46;" horiz-adv-x="1357" d="M61 0l304 1432h51l641 -1326l280 1326h58l-303 -1432h-45l-644 1329l-280 -1329h-62zM498 -201q0 27 22.5 47.5t48.5 20.5q18 0 31.5 -13.5t13.5 -33.5q0 -27 -21.5 -47.5t-47.5 -20.5q-21 0 -34 13.5t-13 33.5z" />
<glyph unicode="&#x1e47;" horiz-adv-x="1173" d="M61 0l209 983h58l-39 -182q102 113 224 163t245 50q158 0 233.5 -67.5t75.5 -188.5q0 -49 -12 -105l-137 -653h-58l137 651q12 55 13 103q0 211 -262 211q-264 0 -476 -242l-153 -723h-58zM403 -201q0 27 23 47.5t49 20.5q18 0 31.5 -13.5t13.5 -33.5q0 -27 -21.5 -47.5 t-47.5 -20.5q-21 0 -34.5 13.5t-13.5 33.5z" />
<glyph unicode="&#x1e48;" horiz-adv-x="1357" d="M61 0l304 1432h51l641 -1326l280 1326h58l-303 -1432h-45l-644 1329l-280 -1329h-62zM283 -225l10 49h567l-10 -49h-567z" />
<glyph unicode="&#x1e49;" horiz-adv-x="1173" d="M61 0l209 983h58l-39 -182q102 113 224 163t245 50q158 0 233.5 -67.5t75.5 -188.5q0 -49 -12 -105l-137 -653h-58l137 651q12 55 13 103q0 211 -262 211q-264 0 -476 -242l-153 -723h-58zM178 -225l10 49h568l-11 -49h-567z" />
<glyph unicode="&#x1e5a;" horiz-adv-x="1210" d="M61 0l304 1432h507q348 0 349 -267q0 -45 -13 -104q-35 -160 -154.5 -261.5t-320.5 -103.5l252 -696h-59l-252 696h-408l-147 -696h-58zM276 745h457q166 0 277.5 81t144.5 235q12 59 12 104q0 117 -75.5 167t-221.5 50h-458zM389 -201q0 27 22.5 47.5t49.5 20.5 q18 0 31.5 -13.5t13.5 -33.5q0 -27 -21.5 -47.5t-48.5 -20.5q-20 0 -33.5 13.5t-13.5 33.5z" />
<glyph unicode="&#x1e5b;" horiz-adv-x="782" d="M20 -201q0 27 23 47.5t49 20.5q18 0 31.5 -13.5t13.5 -33.5q0 -27 -21.5 -47.5t-47.5 -20.5q-21 0 -34.5 13.5t-13.5 33.5zM70 0l209 983h57l-49 -225q92 121 222 173t298 52l-12 -49q-375 0 -533 -289l-135 -645h-57z" />
<glyph unicode="&#x1e5c;" horiz-adv-x="1210" d="M61 0l304 1432h507q348 0 349 -267q0 -45 -13 -104q-35 -160 -154.5 -261.5t-320.5 -103.5l252 -696h-59l-252 696h-408l-147 -696h-58zM276 745h457q166 0 277.5 81t144.5 235q12 59 12 104q0 117 -75.5 167t-221.5 50h-458zM340 -201q0 27 22.5 47.5t49.5 20.5 q18 0 31.5 -13.5t13.5 -33.5q0 -27 -21.5 -47.5t-48.5 -20.5q-20 0 -33.5 13.5t-13.5 33.5zM510 1665l12 49h570l-13 -49h-569z" />
<glyph unicode="&#x1e5d;" horiz-adv-x="815" d="M10 -201q0 27 22.5 47.5t49.5 20.5q18 0 31.5 -13.5t13.5 -33.5q0 -27 -21.5 -47.5t-48.5 -20.5q-20 0 -33.5 13.5t-13.5 33.5zM80 0l209 983h57l-49 -225q92 121 222 173t298 52l-12 -49q-375 0 -533 -289l-135 -645h-57zM336 1300l12 50h570l-13 -50h-569z" />
<glyph unicode="&#x1e5e;" horiz-adv-x="1210" d="M61 0l304 1432h507q348 0 349 -267q0 -45 -13 -104q-35 -160 -154.5 -261.5t-320.5 -103.5l252 -696h-59l-252 696h-408l-147 -696h-58zM123 -225l10 49h567l-10 -49h-567zM276 745h457q166 0 277.5 81t144.5 235q12 59 12 104q0 117 -75.5 167t-221.5 50h-458z" />
<glyph unicode="&#x1e5f;" horiz-adv-x="815" d="M14 -225l11 49h567l-10 -49h-568zM98 0l209 983h58l-50 -225q92 121 222.5 173t298.5 52l-13 -49q-375 0 -532 -289l-135 -645h-58z" />
<glyph unicode="&#x1e60;" horiz-adv-x="1114" d="M27 35l10 51q162 -68 377 -68q424 0 491 312q10 43 10 92q0 68 -33.5 113t-102 82.5t-204.5 95.5q-156 63 -231.5 140t-75.5 185q0 43 8 82q33 158 167.5 250t336.5 92q104 0 186.5 -15t157.5 -50l-10 -51q-154 68 -344 67q-178 0 -296 -82t-144 -211q-10 -47 -11 -82 q0 -92 70 -157.5t236 -132.5q127 -51 193.5 -88t108.5 -93.5t42 -142.5q0 -51 -11 -94q-37 -176 -175 -268.5t-380 -92.5q-110 0 -211.5 18.5t-164.5 47.5zM797 1675q4 23 24.5 40.5t42.5 17.5q23 0 37 -17.5t10 -40.5q-6 -23 -26.5 -40t-42.5 -17q-23 0 -37 17.5t-8 39.5z " />
<glyph unicode="&#x1e61;" horiz-adv-x="942" d="M33 66l12 51q66 -47 148.5 -73t173.5 -26q299 0 342 201q8 41 8 60q0 68 -57.5 111.5t-206.5 86.5q-147 43 -213 90t-66 135q0 27 6 58q25 125 137.5 189.5t272.5 64.5q92 0 155.5 -14.5t116.5 -43.5l-12 -51q-98 59 -270 60q-141 0 -232.5 -51.5t-114.5 -153.5 q-6 -31 -6 -55q0 -47 27 -79t83 -56.5t161 -53.5q143 -41 206.5 -96t63.5 -139q0 -141 -104.5 -226.5t-309.5 -85.5q-82 0 -175 29t-146 68zM580 1229q4 23 24.5 40t42.5 17q23 0 37 -17.5t10 -39.5q-6 -23 -26.5 -40.5t-42.5 -17.5q-23 0 -37.5 17.5t-7.5 40.5z" />
<glyph unicode="&#x1e62;" horiz-adv-x="1114" d="M27 35l10 51q162 -68 377 -68q424 0 491 312q10 43 10 92q0 68 -33.5 113t-102 82.5t-204.5 95.5q-156 63 -231.5 140t-75.5 185q0 43 8 82q33 158 167.5 250t336.5 92q104 0 186.5 -15t157.5 -50l-10 -51q-154 68 -344 67q-178 0 -296 -82t-144 -211q-10 -47 -11 -82 q0 -92 70 -157.5t236 -132.5q127 -51 193.5 -88t108.5 -93.5t42 -142.5q0 -51 -11 -94q-37 -176 -175 -268.5t-380 -92.5q-110 0 -211.5 18.5t-164.5 47.5zM356 -201q0 27 22.5 47.5t49.5 20.5q18 0 31.5 -13.5t13.5 -33.5q0 -27 -21.5 -47.5t-48.5 -20.5q-20 0 -33.5 13.5 t-13.5 33.5z" />
<glyph unicode="&#x1e63;" horiz-adv-x="942" d="M33 66l12 51q66 -47 148.5 -73t173.5 -26q299 0 342 201q8 41 8 60q0 68 -57.5 111.5t-206.5 86.5q-147 43 -213 90t-66 135q0 27 6 58q25 125 137.5 189.5t272.5 64.5q92 0 155.5 -14.5t116.5 -43.5l-12 -51q-98 59 -270 60q-141 0 -232.5 -51.5t-114.5 -153.5 q-6 -31 -6 -55q0 -47 27 -79t83 -56.5t161 -53.5q143 -41 206.5 -96t63.5 -139q0 -141 -104.5 -226.5t-309.5 -85.5q-82 0 -175 29t-146 68zM270 -201q0 27 22.5 47.5t49.5 20.5q18 0 31.5 -13.5t13.5 -33.5q0 -27 -21.5 -47.5t-48.5 -20.5q-20 0 -33.5 13.5t-13.5 33.5z " />
<glyph unicode="&#x1e6c;" horiz-adv-x="1196" d="M272 1382l11 50h1032l-10 -50h-488l-293 -1382h-57l293 1382h-488zM397 -201q0 27 22.5 47.5t49.5 20.5q18 0 31.5 -13.5t13.5 -33.5q0 -27 -21.5 -47.5t-48.5 -20.5q-20 0 -33.5 13.5t-13.5 33.5z" />
<glyph unicode="&#x1e6d;" horiz-adv-x="702" d="M176 934l12 49h162l62 295h57l-61 -295h260l-13 -49h-260l-145 -692q-10 -55 -10 -86q0 -72 42 -105t136 -33q57 0 106 15l-10 -51q-57 -12 -125 -13q-98 0 -152.5 46t-54.5 141q0 35 11 90l145 688h-162zM279 -201q0 27 22.5 47.5t48.5 20.5q18 0 31.5 -13.5t13.5 -33.5 q0 -27 -21.5 -47.5t-47.5 -20.5q-21 0 -34 13.5t-13 33.5z" />
<glyph unicode="&#x1e6e;" horiz-adv-x="1196" d="M164 -225l10 49h567l-10 -49h-567zM272 1382l11 50h1032l-10 -50h-488l-293 -1382h-57l293 1382h-488z" />
<glyph unicode="&#x1e6f;" horiz-adv-x="733" d="M-68 -225l11 49h567l-10 -49h-568zM190 934l13 49h162l61 295h57l-61 -295h260l-12 -49h-260l-146 -692q-10 -55 -10 -86q0 -72 42 -105t136 -33q57 0 107 15l-11 -51q-57 -12 -125 -13q-98 0 -152 46t-54 141q0 35 10 90l145 688h-162z" />
<glyph unicode="&#x1e80;" horiz-adv-x="2074" d="M324 1432h57l129 -1336l698 1336h60l129 -1336l698 1336h57l-751 -1432h-45l-133 1362l-709 -1362h-45zM1161 1946h58l71 -342h-45z" />
<glyph unicode="&#x1e81;" horiz-adv-x="1568" d="M229 983h56l86 -920l481 920h74l88 -920l483 920h55l-516 -983h-63l-92 944l-490 -944h-63zM803 1493h57l72 -342h-45z" />
<glyph unicode="&#x1e82;" horiz-adv-x="2074" d="M324 1432h57l129 -1336l698 1336h60l129 -1336l698 1336h57l-751 -1432h-45l-133 1362l-709 -1362h-45zM1245 1604l219 342h58l-232 -342h-45z" />
<glyph unicode="&#x1e83;" horiz-adv-x="1568" d="M229 983h56l86 -920l481 920h74l88 -920l483 920h55l-516 -983h-63l-92 944l-490 -944h-63zM911 1151l219 342h58l-232 -342h-45z" />
<glyph unicode="&#x1e84;" horiz-adv-x="2074" d="M324 1432h57l129 -1336l698 1336h60l129 -1336l698 1336h57l-751 -1432h-45l-133 1362l-709 -1362h-45zM1028 1675q4 23 24.5 40.5t43.5 17.5t37 -17.5t10 -40.5q-6 -23 -26.5 -40t-43.5 -17q-22 0 -36.5 17.5t-8.5 39.5zM1434 1675q4 23 24.5 40.5t42.5 17.5 q23 0 37 -17.5t10 -40.5q-6 -23 -26.5 -40t-42.5 -17q-23 0 -37.5 17.5t-7.5 39.5z" />
<glyph unicode="&#x1e85;" horiz-adv-x="1568" d="M229 983h56l86 -920l481 920h74l88 -920l483 920h55l-516 -983h-63l-92 944l-490 -944h-63zM682 1229q4 23 24.5 40t43.5 17t37 -17.5t10 -39.5q-6 -23 -26.5 -40.5t-43.5 -17.5q-22 0 -36.5 17.5t-8.5 40.5zM1087 1229q4 23 25 40t43 17q23 0 37 -17.5t10 -39.5 q-6 -23 -26.5 -40.5t-42.5 -17.5q-23 0 -37.5 17.5t-8.5 40.5z" />
<glyph unicode="&#x1e8e;" horiz-adv-x="1347" d="M324 1432h53l315 -840l672 840h61l-710 -889l-115 -543h-57l114 543zM868 1675q4 23 24.5 40.5t43.5 17.5t37 -17.5t10 -40.5q-6 -23 -26.5 -40t-43.5 -17q-22 0 -36.5 17.5t-8.5 39.5z" />
<glyph unicode="&#x1e8f;" horiz-adv-x="1087" d="M14 -403l11 51q129 -70 329 -70q217 0 335 105.5t163 326.5l39 193q-186 -213 -449 -213q-162 0 -243.5 76.5t-81.5 201.5q0 41 10 92l133 623h57l-133 -618q-12 -51 -12 -99q0 -106 68.5 -166.5t212.5 -60.5q129 0 238.5 57.5t215.5 184.5l152 702h57l-205 -960 q-55 -254 -184 -374t-383 -120q-100 0 -190.5 18.5t-139.5 49.5zM672 1229q4 23 24.5 40t42.5 17q23 0 37.5 -17.5t9.5 -39.5q-6 -23 -26.5 -40.5t-42.5 -17.5q-23 0 -37 17.5t-8 40.5z" />
<glyph unicode="&#x1e92;" horiz-adv-x="1259" d="M20 0l11 53l1208 1329h-901l10 50h967l-10 -54l-1209 -1329h948l-10 -49h-1014zM446 -201q0 27 23 47.5t49 20.5q18 0 31.5 -13.5t13.5 -33.5q0 -27 -21.5 -47.5t-47.5 -20.5q-21 0 -34.5 13.5t-13.5 33.5z" />
<glyph unicode="&#x1e93;" horiz-adv-x="954" d="M20 0l11 51l815 883h-613l13 49h676l-13 -51l-815 -883h645l-10 -49h-709zM291 -201q0 27 22.5 47.5t48.5 20.5q18 0 32 -13.5t14 -33.5q0 -27 -21.5 -47.5t-48.5 -20.5q-21 0 -34 13.5t-13 33.5z" />
<glyph unicode="&#x1e97;" horiz-adv-x="772" d="M246 934l12 49h162l61 295h58l-62 -295h260l-12 -49h-260l-146 -692q-10 -55 -10 -86q0 -72 42 -105t136 -33q57 0 107 15l-10 -51q-57 -12 -125 -13q-99 0 -153 46t-54 141q0 35 10 90l146 688h-162zM289 1464q4 23 24.5 40.5t42.5 17.5q23 0 37.5 -17.5t9.5 -40.5 q-6 -23 -26.5 -40t-42.5 -17q-23 0 -37 17.5t-8 39.5zM694 1464q4 23 24.5 40.5t43.5 17.5t37 -17.5t10 -40.5q-6 -23 -26.5 -40t-43.5 -17q-22 0 -36.5 17.5t-8.5 39.5z" />
<glyph unicode="&#x1e9e;" horiz-adv-x="1208" d="M51 0l217 1028q51 236 176 335t308 99q156 0 236.5 -77.5t80.5 -200.5q0 -43 -8 -82l-391 -309q195 0 300 -78t105 -226q0 -55 -10 -98q-41 -193 -169 -307.5t-349 -114.5q-181 0 -275 43l11 49q59 -25 120.5 -35t153.5 -10q176 0 296 97.5t159 277.5q10 43 10 98 q0 256 -358 256h-74l10 50l412 325q8 33 8 72q0 106 -74 164.5t-205 58.5q-145 0 -257.5 -87t-155.5 -294l-219 -1034h-58z" />
<glyph unicode="&#x1ea0;" horiz-adv-x="1433" d="M20 0l875 1432h45l268 -1432h-53l-84 440h-721l-268 -440h-62zM381 489h680l-158 857zM516 -201q0 27 22.5 47.5t49.5 20.5q18 0 31.5 -13.5t13.5 -33.5q0 -27 -21.5 -47.5t-48.5 -20.5q-20 0 -33.5 13.5t-13.5 33.5z" />
<glyph unicode="&#x1ea1;" horiz-adv-x="1275" d="M109 365q0 61 12 124q33 160 126 279t224 182.5t274 63.5q150 0 262.5 -70t151.5 -196l51 235h56l-209 -983h-56l50 231q-94 -129 -230.5 -195.5t-298.5 -66.5q-184 0 -298.5 106.5t-114.5 289.5zM160 369q0 -162 100 -256.5t272 -94.5q173 0 318 86t223 240l62 291 q-18 160 -121 245t-279 85q-125 0 -242.5 -58.5t-202.5 -167t-116 -250.5q-14 -76 -14 -120zM502 -201q0 27 22.5 47.5t48.5 20.5q18 0 31.5 -13.5t13.5 -33.5q0 -27 -21.5 -47.5t-47.5 -20.5q-21 0 -34 13.5t-13 33.5z" />
<glyph unicode="&#x1ea2;" horiz-adv-x="1433" d="M20 0l875 1432h45l268 -1432h-53l-84 440h-721l-268 -440h-62zM381 489h680l-158 857zM915 1524l27 129q106 0 156.5 33.5t64.5 103.5q4 25 4 37q0 92 -133 92q-29 0 -63.5 -4t-52.5 -12l10 49q18 6 53 11t63 5q88 0 133.5 -37t45.5 -98q0 -12 -4 -41q-18 -78 -79 -126 t-159 -52l-18 -90h-48z" />
<glyph unicode="&#x1ea3;" horiz-adv-x="1275" d="M109 365q0 61 12 124q33 160 126 279t224 182.5t274 63.5q150 0 262.5 -70t151.5 -196l51 235h56l-209 -983h-56l50 231q-94 -129 -230.5 -195.5t-298.5 -66.5q-184 0 -298.5 106.5t-114.5 289.5zM160 369q0 -162 100 -256.5t272 -94.5q173 0 318 86t223 240l62 291 q-18 160 -121 245t-279 85q-125 0 -242.5 -58.5t-202.5 -167t-116 -250.5q-14 -76 -14 -120zM864 1151l27 129q106 0 156.5 34t64.5 103q4 25 4 37q0 92 -133 92q-29 0 -63.5 -4t-53.5 -12l11 49q18 6 53 11t63 5q88 0 133 -36.5t45 -98.5q0 -12 -4 -41q-18 -78 -78.5 -126 t-158.5 -52l-19 -90h-47z" />
<glyph unicode="&#x1ea4;" horiz-adv-x="1433" d="M20 0l875 1432h45l268 -1432h-53l-84 440h-721l-268 -440h-62zM381 489h680l-158 857zM655 1530l314 248h45l211 -248h-64l-178 209l-264 -209h-64zM1143 1700l178 221h57l-190 -221h-45z" />
<glyph unicode="&#x1ea5;" horiz-adv-x="1275" d="M109 365q0 61 12 124q33 160 126 279t224 182.5t274 63.5q150 0 262.5 -70t151.5 -196l51 235h56l-209 -983h-56l50 231q-94 -129 -230.5 -195.5t-298.5 -66.5q-184 0 -298.5 106.5t-114.5 289.5zM160 369q0 -162 100 -256.5t272 -94.5q173 0 318 86t223 240l62 291 q-18 160 -121 245t-279 85q-125 0 -242.5 -58.5t-202.5 -167t-116 -250.5q-14 -76 -14 -120zM580 1143l313 248h45l211 -248h-64l-178 209l-264 -209h-63zM1067 1313l178 221h58l-191 -221h-45z" />
<glyph unicode="&#x1ea6;" horiz-adv-x="1433" d="M20 0l875 1432h45l268 -1432h-53l-84 440h-721l-268 -440h-62zM381 489h680l-158 857zM657 1530l314 248h45l209 -248h-62l-178 209l-264 -209h-64zM666 1921h57l86 -221h-45z" />
<glyph unicode="&#x1ea7;" horiz-adv-x="1275" d="M109 365q0 61 12 124q33 160 126 279t224 182.5t274 63.5q150 0 262.5 -70t151.5 -196l51 235h56l-209 -983h-56l50 231q-94 -129 -230.5 -195.5t-298.5 -66.5q-184 0 -298.5 106.5t-114.5 289.5zM160 369q0 -162 100 -256.5t272 -94.5q173 0 318 86t223 240l62 291 q-18 160 -121 245t-279 85q-125 0 -242.5 -58.5t-202.5 -167t-116 -250.5q-14 -76 -14 -120zM594 1143l313 248h45l209 -248h-61l-178 209l-265 -209h-63zM602 1534h57l86 -221h-45z" />
<glyph unicode="&#x1ea8;" horiz-adv-x="1433" d="M20 0l875 1432h45l268 -1432h-53l-84 440h-721l-268 -440h-62zM381 489h680l-158 857zM659 1530l314 248h45l209 -248h-62l-178 209l-264 -209h-64zM1141 1921l10 47q49 16 102 17q121 0 121 -95q0 -8 -4 -32q-12 -53 -57 -87t-111 -36l-12 -56h-43l20 93q74 0 109 19 t45 67q2 10 2 24q0 31 -19.5 44t-60.5 13q-57 0 -102 -18z" />
<glyph unicode="&#x1ea9;" horiz-adv-x="1275" d="M109 365q0 61 12 124q33 160 126 279t224 182.5t274 63.5q150 0 262.5 -70t151.5 -196l51 235h56l-209 -983h-56l50 231q-94 -129 -230.5 -195.5t-298.5 -66.5q-184 0 -298.5 106.5t-114.5 289.5zM160 369q0 -162 100 -256.5t272 -94.5q173 0 318 86t223 240l62 291 q-18 160 -121 245t-279 85q-125 0 -242.5 -58.5t-202.5 -167t-116 -250.5q-14 -76 -14 -120zM590 1143l313 248h45l209 -248h-61l-178 209l-265 -209h-63zM1071 1534l10 47q49 16 103 16q121 0 121 -94q0 -8 -5 -33q-12 -53 -57 -86.5t-110 -35.5l-13 -56h-43l21 92 q74 0 108.5 19.5t44.5 66.5q2 10 2 25q0 31 -19.5 44t-59.5 13q-57 0 -103 -18z" />
<glyph unicode="&#x1eaa;" horiz-adv-x="1433" d="M20 0l875 1432h45l268 -1432h-53l-84 440h-721l-268 -440h-62zM381 489h680l-158 857zM655 1530l314 248h45l209 -248h-62l-178 209l-264 -209h-64zM711 1806l14 62q29 39 66.5 57.5t91.5 18.5q31 0 63.5 -12.5t75.5 -37.5q47 -23 74.5 -34t56.5 -11q47 0 83 20.5 t75 72.5l-13 -62q-31 -39 -67.5 -57.5t-87.5 -18.5q-35 0 -65.5 12.5t-82.5 38.5q-43 23 -69.5 33t-53.5 10q-47 0 -82.5 -19t-78.5 -73z" />
<glyph unicode="&#x1eab;" horiz-adv-x="1275" d="M109 365q0 61 12 124q33 160 126 279t224 182.5t274 63.5q150 0 262.5 -70t151.5 -196l51 235h56l-209 -983h-56l50 231q-94 -129 -230.5 -195.5t-298.5 -66.5q-184 0 -298.5 106.5t-114.5 289.5zM160 369q0 -162 100 -256.5t272 -94.5q173 0 318 86t223 240l62 291 q-18 160 -121 245t-279 85q-125 0 -242.5 -58.5t-202.5 -167t-116 -250.5q-14 -76 -14 -120zM586 1143l313 248h45l209 -248h-61l-179 209l-264 -209h-63zM641 1419l14 62q29 39 67 57t91 18q31 0 63.5 -12t75.5 -37q47 -23 75 -34t56 -11q47 0 83 20.5t75 71.5l-12 -61 q-31 -39 -68 -57.5t-88 -18.5q-35 0 -65.5 12.5t-81.5 38.5q-43 23 -70 33t-53 10q-47 0 -83 -19t-79 -73z" />
<glyph unicode="&#x1eac;" horiz-adv-x="1433" d="M20 0l875 1432h45l268 -1432h-53l-84 440h-721l-268 -440h-62zM381 489h680l-158 857zM516 -201q0 27 22.5 47.5t49.5 20.5q18 0 31.5 -13.5t13.5 -33.5q0 -27 -21.5 -47.5t-48.5 -20.5q-20 0 -33.5 13.5t-13.5 33.5zM672 1606l325 309h45l197 -309h-59l-166 264 l-277 -264h-65z" />
<glyph unicode="&#x1ead;" horiz-adv-x="1275" d="M109 365q0 61 12 124q33 160 126 279t224 182.5t274 63.5q150 0 262.5 -70t151.5 -196l51 235h56l-209 -983h-56l50 231q-94 -129 -230.5 -195.5t-298.5 -66.5q-184 0 -298.5 106.5t-114.5 289.5zM160 369q0 -162 100 -256.5t272 -94.5q173 0 318 86t223 240l62 291 q-18 160 -121 245t-279 85q-125 0 -242.5 -58.5t-202.5 -167t-116 -250.5q-14 -76 -14 -120zM526 -201q0 27 22.5 47.5t49.5 20.5q18 0 31.5 -13.5t13.5 -33.5q0 -27 -21.5 -47.5t-48.5 -20.5q-20 0 -33.5 13.5t-13.5 33.5zM586 1163l325 310h45l197 -310h-59l-166 264 l-277 -264h-65z" />
<glyph unicode="&#x1eae;" horiz-adv-x="1433" d="M20 0l875 1432h45l268 -1432h-53l-84 440h-721l-268 -440h-62zM381 489h680l-158 857zM741 1712q0 23 7 47h49q-4 -25 -4 -39q0 -59 42 -97t117 -38q88 0 150.5 49t79.5 125h49q-20 -94 -101 -157.5t-188 -63.5q-92 0 -146.5 49t-54.5 125zM920 1690l161 245h58 l-174 -245h-45z" />
<glyph unicode="&#x1eaf;" horiz-adv-x="1275" d="M109 365q0 61 12 124q33 160 126 279t224 182.5t274 63.5q150 0 262.5 -70t151.5 -196l51 235h56l-209 -983h-56l50 231q-94 -129 -230.5 -195.5t-298.5 -66.5q-184 0 -298.5 106.5t-114.5 289.5zM160 369q0 -162 100 -256.5t272 -94.5q173 0 318 86t223 240l62 291 q-18 160 -121 245t-279 85q-125 0 -242.5 -58.5t-202.5 -167t-116 -250.5q-14 -76 -14 -120zM676 1331q0 23 6 47h49q-4 -25 -4 -39q0 -59 42 -97t118 -38q88 0 150.5 49.5t78.5 124.5h49q-20 -94 -101 -157.5t-187 -63.5q-93 0 -147 49t-54 125zM854 1309l162 245h57 l-174 -245h-45z" />
<glyph unicode="&#x1eb0;" horiz-adv-x="1433" d="M20 0l875 1432h45l268 -1432h-53l-84 440h-721l-268 -440h-62zM381 489h680l-158 857zM741 1712q0 23 7 47h49q-4 -29 -4 -39q0 -59 42 -97t117 -38q88 0 150.5 49t79.5 125h49q-20 -94 -101 -157.5t-188 -63.5q-92 0 -146.5 49t-54.5 125zM913 1935h58l59 -245h-45z" />
<glyph unicode="&#x1eb1;" horiz-adv-x="1275" d="M109 365q0 61 12 124q33 160 126 279t224 182.5t274 63.5q150 0 262.5 -70t151.5 -196l51 235h56l-209 -983h-56l50 231q-94 -129 -230.5 -195.5t-298.5 -66.5q-184 0 -298.5 106.5t-114.5 289.5zM160 369q0 -162 100 -256.5t272 -94.5q173 0 318 86t223 240l62 291 q-18 160 -121 245t-279 85q-125 0 -242.5 -58.5t-202.5 -167t-116 -250.5q-14 -76 -14 -120zM674 1331q0 23 6 47h49q-4 -29 -4 -39q0 -59 42 -97t118 -38q88 0 150.5 49.5t78.5 124.5h49q-20 -94 -101 -157.5t-188 -63.5q-92 0 -146 49t-54 125zM846 1554h57l60 -245h-45z " />
<glyph unicode="&#x1eb2;" horiz-adv-x="1433" d="M20 0l875 1432h45l268 -1432h-53l-84 440h-721l-268 -440h-62zM381 489h680l-158 857zM739 1710q0 23 6 47h50q-4 -25 -4 -39q0 -59 41.5 -97t117.5 -38q88 0 150.5 49t79.5 125h49q-20 -94 -101 -157.5t-188 -63.5q-92 0 -146.5 49t-54.5 125zM926 1909l10 47 q49 16 102 16q61 0 91 -24.5t30 -67.5q0 -68 -47 -112t-127 -46l-12 -65h-43l20 102q74 0 111 19.5t45 66.5q4 20 4 29q0 53 -80 53q-27 0 -56.5 -5t-47.5 -13z" />
<glyph unicode="&#x1eb3;" horiz-adv-x="1275" d="M109 365q0 61 12 124q33 160 126 279t224 182.5t274 63.5q150 0 262.5 -70t151.5 -196l51 235h56l-209 -983h-56l50 231q-94 -129 -230.5 -195.5t-298.5 -66.5q-184 0 -298.5 106.5t-114.5 289.5zM160 369q0 -162 100 -256.5t272 -94.5q173 0 318 86t223 240l62 291 q-18 160 -121 245t-279 85q-125 0 -242.5 -58.5t-202.5 -167t-116 -250.5q-14 -76 -14 -120zM680 1331q0 23 6 47h49q-4 -25 -4 -39q0 -59 42 -97t118 -38q88 0 150.5 49.5t78.5 124.5h49q-20 -94 -101 -157.5t-187 -63.5q-93 0 -147 49t-54 125zM866 1530l11 47 q49 16 102 16q61 0 91 -24.5t30 -67.5q0 -68 -47 -111.5t-127 -46.5l-13 -65h-43l21 102q74 0 110.5 19.5t45.5 66.5q4 20 4 29q0 53 -80 53q-27 0 -56.5 -5t-48.5 -13z" />
<glyph unicode="&#x1eb4;" horiz-adv-x="1433" d="M20 0l875 1432h45l268 -1432h-53l-84 440h-721l-268 -440h-62zM381 489h680l-158 857zM713 1817l14 61q29 39 65.5 57.5t90.5 18.5q31 0 62.5 -12.5t78.5 -36.5q47 -23 74.5 -34t56.5 -11q47 0 83 20.5t75 71.5l-13 -62q-31 -41 -67.5 -58t-87.5 -17q-35 0 -65.5 12 t-82.5 39q-43 23 -69.5 33t-53.5 10q-47 0 -82.5 -19.5t-78.5 -72.5zM739 1710q0 23 6 47h50q-4 -25 -4 -39q0 -59 41.5 -97t117.5 -38q88 0 150.5 49t79.5 125h49q-20 -94 -101 -157.5t-188 -63.5q-92 0 -146.5 49t-54.5 125z" />
<glyph unicode="&#x1eb5;" horiz-adv-x="1275" d="M109 365q0 61 12 124q33 160 126 279t224 182.5t274 63.5q150 0 262.5 -70t151.5 -196l51 235h56l-209 -983h-56l50 231q-94 -129 -230.5 -195.5t-298.5 -66.5q-184 0 -298.5 106.5t-114.5 289.5zM160 369q0 -162 100 -256.5t272 -94.5q173 0 318 86t223 240l62 291 q-18 160 -121 245t-279 85q-125 0 -242.5 -58.5t-202.5 -167t-116 -250.5q-14 -76 -14 -120zM664 1438l14 61q29 39 65.5 57.5t90.5 18.5q31 0 62.5 -12.5t78.5 -36.5q47 -23 74.5 -34t56.5 -11q47 0 83 20.5t75 71.5l-13 -62q-31 -41 -67.5 -58t-87.5 -17q-35 0 -66 12 t-82 39q-43 23 -69.5 33t-53.5 10q-47 0 -82.5 -19.5t-78.5 -72.5zM690 1331q0 23 6 47h49q-4 -25 -4 -39q0 -59 42 -97t118 -38q88 0 150.5 49.5t78.5 124.5h50q-20 -94 -101.5 -157.5t-187.5 -63.5q-92 0 -146.5 49t-54.5 125z" />
<glyph unicode="&#x1eb6;" horiz-adv-x="1433" d="M20 0l875 1432h45l268 -1432h-53l-84 440h-721l-268 -440h-62zM381 489h680l-158 857zM516 -201q0 27 22.5 47.5t49.5 20.5q18 0 31.5 -13.5t13.5 -33.5q0 -27 -21.5 -47.5t-48.5 -20.5q-20 0 -33.5 13.5t-13.5 33.5zM754 1778q0 23 6 47h45q-4 -25 -4 -39q0 -59 42 -97 t118 -38q88 0 150.5 49t78.5 125h53q-20 -94 -101 -157.5t-188 -63.5q-92 0 -146 49t-54 125z" />
<glyph unicode="&#x1eb7;" horiz-adv-x="1275" d="M109 365q0 61 12 124q33 160 126 279t224 182.5t274 63.5q150 0 262.5 -70t151.5 -196l51 235h56l-209 -983h-56l50 231q-94 -129 -230.5 -195.5t-298.5 -66.5q-184 0 -298.5 106.5t-114.5 289.5zM160 369q0 -162 100 -256.5t272 -94.5q173 0 318 86t223 240l62 291 q-18 160 -121 245t-279 85q-125 0 -242.5 -58.5t-202.5 -167t-116 -250.5q-14 -76 -14 -120zM524 -201q0 27 22.5 47.5t49.5 20.5q18 0 31.5 -13.5t13.5 -33.5q0 -27 -21.5 -47.5t-48.5 -20.5q-20 0 -33.5 13.5t-13.5 33.5zM664 1321q0 23 6 47h45q-4 -25 -4 -39 q0 -59 42 -97t117 -38q88 0 150.5 49t79.5 125h53q-20 -94 -101 -157.5t-188 -63.5q-92 0 -146 49t-54 125z" />
<glyph unicode="&#x1eb8;" horiz-adv-x="1161" d="M61 0l304 1432h874l-10 -50h-817l-138 -641h621l-10 -49h-621l-135 -643h817l-10 -49h-875zM344 -201q0 27 22.5 47.5t49.5 20.5q18 0 31.5 -13.5t13.5 -33.5q0 -27 -21.5 -47.5t-48.5 -20.5q-20 0 -33.5 13.5t-13.5 33.5z" />
<glyph unicode="&#x1eb9;" horiz-adv-x="1243" d="M109 344q0 76 16 148q49 242 209 382t399 140q203 0 306.5 -97.5t103.5 -265.5q0 -66 -15 -129l-12 -51h-946q-14 -63 -14 -127q0 -162 106.5 -245t306.5 -83q94 0 189.5 17.5t171.5 44.5l-12 -49q-61 -25 -165 -42.5t-194 -17.5q-219 0 -334.5 97.5t-115.5 277.5z M180 518h895q16 76 17 137q0 145 -89.5 228.5t-279.5 83.5q-145 0 -259 -62.5t-185.5 -165t-98.5 -221.5zM418 -201q0 27 22.5 47.5t48.5 20.5q18 0 32 -13.5t14 -33.5q0 -27 -21.5 -47.5t-48.5 -20.5q-21 0 -34 13.5t-13 33.5z" />
<glyph unicode="&#x1eba;" horiz-adv-x="1161" d="M61 0l304 1432h874l-10 -50h-817l-138 -641h621l-10 -49h-621l-135 -643h817l-10 -49h-875zM760 1606l26 129q106 0 156.5 33.5t65.5 103.5q4 25 4 37q0 92 -133 92q-29 0 -64 -4t-53 -12l10 49q18 6 53 11t64 5q88 0 133 -37t45 -98q0 -12 -4 -41q-18 -78 -78.5 -126 t-159.5 -52l-18 -90h-47z" />
<glyph unicode="&#x1ebb;" horiz-adv-x="1243" d="M109 344q0 76 16 148q49 242 209 382t399 140q203 0 306.5 -97.5t103.5 -265.5q0 -66 -15 -129l-12 -51h-946q-14 -63 -14 -127q0 -162 106.5 -245t306.5 -83q94 0 189.5 17.5t171.5 44.5l-12 -49q-61 -25 -165 -42.5t-194 -17.5q-219 0 -334.5 97.5t-115.5 277.5z M180 518h895q16 76 17 137q0 145 -89.5 228.5t-279.5 83.5q-145 0 -259 -62.5t-185.5 -165t-98.5 -221.5zM754 1159l26 129q106 0 156.5 34t64.5 103q4 25 5 37q0 92 -134 92q-29 0 -63.5 -4t-52.5 -12l10 49q18 6 53 11.5t64 5.5q88 0 133 -37t45 -99q0 -12 -4 -41 q-18 -78 -78.5 -126t-159.5 -52l-18 -90h-47z" />
<glyph unicode="&#x1ebc;" horiz-adv-x="1161" d="M61 0l304 1432h874l-10 -50h-817l-138 -641h621l-10 -49h-621l-135 -643h817l-10 -49h-875zM434 1606l15 67q76 92 204 92q47 0 83 -12t87 -39q47 -25 83 -38t81 -13q57 0 107.5 24.5t99.5 86.5l-14 -68q-72 -92 -203 -92q-51 0 -90 13t-88 40q-49 25 -81 37t-75 12 q-55 0 -105.5 -24.5t-103.5 -85.5z" />
<glyph unicode="&#x1ebd;" horiz-adv-x="1243" d="M109 344q0 76 16 148q49 242 209 382t399 140q203 0 306.5 -97.5t103.5 -265.5q0 -66 -15 -129l-12 -51h-946q-14 -63 -14 -127q0 -162 106.5 -245t306.5 -83q94 0 189.5 17.5t171.5 44.5l-12 -49q-61 -25 -165 -42.5t-194 -17.5q-219 0 -334.5 97.5t-115.5 277.5z M180 518h895q16 76 17 137q0 145 -89.5 228.5t-279.5 83.5q-145 0 -259 -62.5t-185.5 -165t-98.5 -221.5zM414 1188l14 67q76 92 205 93q47 0 83 -12.5t87 -39.5q47 -25 83 -38t81 -13q57 0 107 24.5t100 86.5l-15 -68q-72 -92 -203 -92q-51 0 -90 13.5t-88 39.5 q-49 25 -80.5 37t-74.5 12q-55 0 -105.5 -24.5t-103.5 -85.5z" />
<glyph unicode="&#x1ebe;" horiz-adv-x="1161" d="M61 0l304 1432h874l-10 -50h-817l-138 -641h621l-10 -49h-621l-135 -643h817l-10 -49h-875zM506 1550l313 248h45l211 -248h-63l-178 209l-265 -209h-63zM993 1720l178 222h58l-191 -222h-45z" />
<glyph unicode="&#x1ebf;" horiz-adv-x="1243" d="M109 344q0 76 16 148q49 242 209 382t399 140q203 0 306.5 -97.5t103.5 -265.5q0 -66 -15 -129l-12 -51h-946q-14 -63 -14 -127q0 -162 106.5 -245t306.5 -83q94 0 189.5 17.5t171.5 44.5l-12 -49q-61 -25 -165 -42.5t-194 -17.5q-219 0 -334.5 97.5t-115.5 277.5z M180 518h895q16 76 17 137q0 145 -89.5 228.5t-279.5 83.5q-145 0 -259 -62.5t-185.5 -165t-98.5 -221.5zM502 1143l313 248h45l211 -248h-63l-179 209l-264 -209h-63zM989 1313l178 221h58l-191 -221h-45z" />
<glyph unicode="&#x1ec0;" horiz-adv-x="1161" d="M61 0l304 1432h874l-10 -50h-817l-138 -641h621l-10 -49h-621l-135 -643h817l-10 -49h-875zM545 1550l313 248h45l209 -248h-61l-179 209l-264 -209h-63zM553 1942h57l86 -222h-45z" />
<glyph unicode="&#x1ec1;" horiz-adv-x="1243" d="M109 344q0 76 16 148q49 242 209 382t399 140q203 0 306.5 -97.5t103.5 -265.5q0 -66 -15 -129l-12 -51h-946q-14 -63 -14 -127q0 -162 106.5 -245t306.5 -83q94 0 189.5 17.5t171.5 44.5l-12 -49q-61 -25 -165 -42.5t-194 -17.5q-219 0 -334.5 97.5t-115.5 277.5z M180 518h895q16 76 17 137q0 145 -89.5 228.5t-279.5 83.5q-145 0 -259 -62.5t-185.5 -165t-98.5 -221.5zM500 1143l313 248h45l209 -248h-61l-179 209l-264 -209h-63zM508 1534h57l86 -221h-45z" />
<glyph unicode="&#x1ec2;" horiz-adv-x="1161" d="M61 0l304 1432h874l-10 -50h-817l-138 -641h621l-10 -49h-621l-135 -643h817l-10 -49h-875zM528 1550l314 248h45l209 -248h-62l-178 209l-264 -209h-64zM1010 1942l10 47q49 16 102 16q121 0 121 -94q0 -8 -4 -33q-12 -53 -57 -87t-111 -36l-12 -55h-43l20 92 q74 0 109 19.5t45 66.5q2 10 2 25q0 31 -19.5 44t-60.5 13q-57 0 -102 -18z" />
<glyph unicode="&#x1ec3;" horiz-adv-x="1243" d="M109 344q0 76 16 148q49 242 209 382t399 140q203 0 306.5 -97.5t103.5 -265.5q0 -66 -15 -129l-12 -51h-946q-14 -63 -14 -127q0 -162 106.5 -245t306.5 -83q94 0 189.5 17.5t171.5 44.5l-12 -49q-61 -25 -165 -42.5t-194 -17.5q-219 0 -334.5 97.5t-115.5 277.5z M180 518h895q16 76 17 137q0 145 -89.5 228.5t-279.5 83.5q-145 0 -259 -62.5t-185.5 -165t-98.5 -221.5zM506 1143l313 248h45l209 -248h-61l-178 209l-265 -209h-63zM987 1534l10 47q49 16 103 16q121 0 121 -94q0 -8 -4 -33q-12 -53 -57.5 -86.5t-110.5 -35.5l-13 -56 h-43l21 92q74 0 108.5 19.5t44.5 66.5q2 10 2 25q0 31 -19.5 44t-59.5 13q-57 0 -103 -18z" />
<glyph unicode="&#x1ec4;" horiz-adv-x="1161" d="M61 0l304 1432h874l-10 -50h-817l-138 -641h621l-10 -49h-621l-135 -643h817l-10 -49h-875zM530 1550l314 248h45l209 -248h-62l-178 209l-264 -209h-64zM586 1827l14 61q29 39 67 57.5t91 18.5q31 0 63.5 -12.5t75.5 -36.5q47 -23 74.5 -34t56.5 -11q47 0 83 20.5 t75 71.5l-12 -61q-31 -39 -68 -57.5t-88 -18.5q-35 0 -65.5 12t-82.5 39q-43 23 -69.5 33t-52.5 10q-47 0 -83 -19.5t-79 -72.5z" />
<glyph unicode="&#x1ec5;" horiz-adv-x="1243" d="M109 344q0 76 16 148q49 242 209 382t399 140q203 0 306.5 -97.5t103.5 -265.5q0 -66 -15 -129l-12 -51h-946q-14 -63 -14 -127q0 -162 106.5 -245t306.5 -83q94 0 189.5 17.5t171.5 44.5l-12 -49q-61 -25 -165 -42.5t-194 -17.5q-219 0 -334.5 97.5t-115.5 277.5z M180 518h895q16 76 17 137q0 145 -89.5 228.5t-279.5 83.5q-145 0 -259 -62.5t-185.5 -165t-98.5 -221.5zM487 1143l314 248h45l209 -248h-62l-178 209l-264 -209h-64zM543 1419l14 62q29 39 67 57t91 18q31 0 63.5 -12t75.5 -37q47 -23 74.5 -34t56.5 -11q47 0 83 20.5 t75 71.5l-13 -61q-31 -39 -67.5 -57.5t-87.5 -18.5q-35 0 -65.5 12.5t-82.5 38.5q-43 23 -69.5 33t-52.5 10q-47 0 -83 -19t-79 -73z" />
<glyph unicode="&#x1ec6;" horiz-adv-x="1161" d="M61 0l304 1432h874l-10 -50h-817l-138 -641h621l-10 -49h-621l-135 -643h817l-10 -49h-875zM379 -201q0 27 22.5 47.5t49.5 20.5q18 0 31.5 -13.5t13.5 -33.5q0 -27 -21.5 -47.5t-48.5 -20.5q-20 0 -33.5 13.5t-13.5 33.5zM535 1606l325 309h45l197 -309h-60l-165 264 l-277 -264h-65z" />
<glyph unicode="&#x1ec7;" horiz-adv-x="1243" d="M109 344q0 76 16 148q49 242 209 382t399 140q203 0 306.5 -97.5t103.5 -265.5q0 -66 -15 -129l-12 -51h-946q-14 -63 -14 -127q0 -162 106.5 -245t306.5 -83q94 0 189.5 17.5t171.5 44.5l-12 -49q-61 -25 -165 -42.5t-194 -17.5q-219 0 -334.5 97.5t-115.5 277.5z M180 518h895q16 76 17 137q0 145 -89.5 228.5t-279.5 83.5q-145 0 -259 -62.5t-185.5 -165t-98.5 -221.5zM426 -201q0 27 22.5 47.5t49.5 20.5q18 0 31.5 -13.5t13.5 -33.5q0 -27 -21.5 -47.5t-48.5 -20.5q-20 0 -33.5 13.5t-13.5 33.5zM479 1122l326 310h45l197 -310h-60 l-166 264l-276 -264h-66z" />
<glyph unicode="&#x1ec8;" horiz-adv-x="385" d="M61 0l304 1432h57l-303 -1432h-58zM410 1606l26 129q106 0 156.5 33.5t64.5 103.5q4 25 5 37q0 92 -134 92q-29 0 -63.5 -4t-52.5 -12l10 49q18 6 53 11t64 5q88 0 133 -37t45 -98q0 -12 -4 -41q-18 -78 -79 -126t-159 -52l-18 -90h-47z" />
<glyph unicode="&#x1ec9;" horiz-adv-x="385" d="M61 0l209 983h58l-209 -983h-58zM311 1153l27 129q106 0 156.5 34t64.5 103q4 25 4 37q0 92 -133 92q-29 0 -63.5 -4t-53.5 -12l11 49q18 6 53 11t63 5q88 0 133 -36.5t45 -98.5q0 -12 -4 -41q-18 -78 -78.5 -126t-158.5 -52l-19 -90h-47z" />
<glyph unicode="&#x1eca;" horiz-adv-x="385" d="M-8 -201q0 27 22.5 47.5t48.5 20.5q18 0 32 -13.5t14 -33.5q0 -27 -21.5 -47.5t-48.5 -20.5q-21 0 -34 13.5t-13 33.5zM61 0l304 1432h57l-303 -1432h-58z" />
<glyph unicode="&#x1ecb;" horiz-adv-x="434" d="M16 -201q0 27 22.5 47.5t49.5 20.5q18 0 31.5 -13.5t13.5 -33.5q0 -27 -21.5 -47.5t-48.5 -20.5q-20 0 -33.5 13.5t-13.5 33.5zM86 0l209 983h57l-209 -983h-57zM332 1280q0 25 21.5 44t45.5 19q18 0 30.5 -12t12.5 -31q0 -25 -20.5 -44t-44.5 -19q-19 0 -32 12.5 t-13 30.5z" />
<glyph unicode="&#x1ecc;" horiz-adv-x="1724" d="M152 535q0 90 20 180q47 221 177 391t317.5 263t402.5 93q178 0 315.5 -69.5t212 -198.5t74.5 -301q0 -72 -20 -178q-47 -221 -177.5 -390t-317.5 -262.5t-404 -93.5q-179 0 -315 70t-210.5 198t-74.5 298zM205 537q0 -160 68.5 -277t194.5 -179.5t294 -62.5 q188 0 363 85t301 244t171 368q20 106 21 178q0 160 -68.5 277.5t-194.5 180t-296 62.5q-193 0 -367 -86t-299 -244.5t-168 -367.5q-20 -90 -20 -178zM662 -201q0 27 22.5 47.5t48.5 20.5q18 0 31.5 -13.5t13.5 -33.5q0 -27 -21.5 -47.5t-47.5 -20.5q-21 0 -34 13.5 t-13 33.5z" />
<glyph unicode="&#x1ecd;" horiz-adv-x="1273" d="M111 365q0 63 14 127q33 158 124 276.5t222 182t279 63.5q188 0 302.5 -106.5t114.5 -286.5q0 -66 -14 -129q-35 -158 -125 -276t-220 -182.5t-282 -64.5q-188 0 -301.5 107.5t-113.5 288.5zM164 362q0 -162 99 -253t274 -91q133 0 249.5 58.5t199.5 165t114 250.5 q14 76 14 122q0 164 -99.5 257.5t-275.5 93.5q-133 0 -250.5 -58.5t-199.5 -166t-111 -248.5q-14 -63 -14 -130zM436 -201q0 27 22.5 47.5t49.5 20.5q18 0 31.5 -13.5t13.5 -33.5q0 -27 -21.5 -47.5t-48.5 -20.5q-20 0 -33.5 13.5t-13.5 33.5z" />
<glyph unicode="&#x1ece;" horiz-adv-x="1724" d="M152 535q0 90 20 180q47 221 177 391t317.5 263t402.5 93q178 0 315.5 -69.5t212 -198.5t74.5 -301q0 -72 -20 -178q-47 -221 -177.5 -390t-317.5 -262.5t-404 -93.5q-179 0 -315 70t-210.5 198t-74.5 298zM205 537q0 -160 68.5 -277t194.5 -179.5t294 -62.5 q188 0 363 85t301 244t171 368q20 106 21 178q0 160 -68.5 277.5t-194.5 180t-296 62.5q-193 0 -367 -86t-299 -244.5t-168 -367.5q-20 -90 -20 -178zM1057 1606l26 129q106 0 156.5 33.5t65.5 103.5q4 25 4 37q0 92 -133 92q-29 0 -64 -4t-53 -12l10 49q18 6 53 11t64 5 q88 0 133 -37t45 -98q0 -12 -4 -41q-18 -78 -78.5 -126t-159.5 -52l-18 -90h-47z" />
<glyph unicode="&#x1ecf;" horiz-adv-x="1273" d="M111 365q0 63 14 127q33 158 124 276.5t222 182t279 63.5q188 0 302.5 -106.5t114.5 -286.5q0 -66 -14 -129q-35 -158 -125 -276t-220 -182.5t-282 -64.5q-188 0 -301.5 107.5t-113.5 288.5zM164 362q0 -162 99 -253t274 -91q133 0 249.5 58.5t199.5 165t114 250.5 q14 76 14 122q0 164 -99.5 257.5t-275.5 93.5q-133 0 -250.5 -58.5t-199.5 -166t-111 -248.5q-14 -63 -14 -130zM745 1153l27 129q106 0 156.5 34t64.5 103q4 25 4 37q0 92 -133 92q-29 0 -63.5 -4t-52.5 -12l10 49q18 6 53 11t63 5q88 0 133.5 -36.5t45.5 -98.5 q0 -12 -4 -41q-18 -78 -79 -126t-159 -52l-18 -90h-48z" />
<glyph unicode="&#x1ed0;" horiz-adv-x="1724" d="M152 535q0 90 20 180q47 221 177 391t317.5 263t402.5 93q178 0 315.5 -69.5t212 -198.5t74.5 -301q0 -72 -20 -178q-47 -221 -177.5 -390t-317.5 -262.5t-404 -93.5q-179 0 -315 70t-210.5 198t-74.5 298zM205 537q0 -160 68.5 -277t194.5 -179.5t294 -62.5 q188 0 363 85t301 244t171 368q20 106 21 178q0 160 -68.5 277.5t-194.5 180t-296 62.5q-193 0 -367 -86t-299 -244.5t-168 -367.5q-20 -90 -20 -178zM805 1550l313 248h45l211 -248h-63l-178 209l-265 -209h-63zM1292 1720l178 222h58l-191 -222h-45z" />
<glyph unicode="&#x1ed1;" horiz-adv-x="1273" d="M111 365q0 63 14 127q33 158 124 276.5t222 182t279 63.5q188 0 302.5 -106.5t114.5 -286.5q0 -66 -14 -129q-35 -158 -125 -276t-220 -182.5t-282 -64.5q-188 0 -301.5 107.5t-113.5 288.5zM164 362q0 -162 99 -253t274 -91q133 0 249.5 58.5t199.5 165t114 250.5 q14 76 14 122q0 164 -99.5 257.5t-275.5 93.5q-133 0 -250.5 -58.5t-199.5 -166t-111 -248.5q-14 -63 -14 -130zM510 1151l313 248h45l211 -248h-63l-178 209l-265 -209h-63zM997 1321l179 221h57l-191 -221h-45z" />
<glyph unicode="&#x1ed2;" horiz-adv-x="1724" d="M152 535q0 90 20 180q47 221 177 391t317.5 263t402.5 93q178 0 315.5 -69.5t212 -198.5t74.5 -301q0 -72 -20 -178q-47 -221 -177.5 -390t-317.5 -262.5t-404 -93.5q-179 0 -315 70t-210.5 198t-74.5 298zM205 537q0 -160 68.5 -277t194.5 -179.5t294 -62.5 q188 0 363 85t301 244t171 368q20 106 21 178q0 160 -68.5 277.5t-194.5 180t-296 62.5q-193 0 -367 -86t-299 -244.5t-168 -367.5q-20 -90 -20 -178zM776 1550l314 248h45l208 -248h-61l-178 209l-264 -209h-64zM784 1942h58l86 -222h-45z" />
<glyph unicode="&#x1ed3;" horiz-adv-x="1273" d="M111 365q0 63 14 127q33 158 124 276.5t222 182t279 63.5q188 0 302.5 -106.5t114.5 -286.5q0 -66 -14 -129q-35 -158 -125 -276t-220 -182.5t-282 -64.5q-188 0 -301.5 107.5t-113.5 288.5zM164 362q0 -162 99 -253t274 -91q133 0 249.5 58.5t199.5 165t114 250.5 q14 76 14 122q0 164 -99.5 257.5t-275.5 93.5q-133 0 -250.5 -58.5t-199.5 -166t-111 -248.5q-14 -63 -14 -130zM485 1151l314 248h45l209 -248h-62l-178 209l-264 -209h-64zM494 1542h57l86 -221h-45z" />
<glyph unicode="&#x1ed4;" horiz-adv-x="1724" d="M152 535q0 90 20 180q47 221 177 391t317.5 263t402.5 93q178 0 315.5 -69.5t212 -198.5t74.5 -301q0 -72 -20 -178q-47 -221 -177.5 -390t-317.5 -262.5t-404 -93.5q-179 0 -315 70t-210.5 198t-74.5 298zM205 537q0 -160 68.5 -277t194.5 -179.5t294 -62.5 q188 0 363 85t301 244t171 368q20 106 21 178q0 160 -68.5 277.5t-194.5 180t-296 62.5q-193 0 -367 -86t-299 -244.5t-168 -367.5q-20 -90 -20 -178zM797 1550l313 248h45l209 -248h-61l-179 209l-264 -209h-63zM1278 1942l10 47q49 16 103 16q121 0 120 -94q0 -8 -4 -33 q-12 -53 -57 -87t-111 -36l-12 -55h-43l21 92q74 0 108.5 19.5t44.5 66.5q2 10 2 25q0 31 -19.5 44t-60.5 13q-57 0 -102 -18z" />
<glyph unicode="&#x1ed5;" horiz-adv-x="1273" d="M111 365q0 63 14 127q33 158 124 276.5t222 182t279 63.5q188 0 302.5 -106.5t114.5 -286.5q0 -66 -14 -129q-35 -158 -125 -276t-220 -182.5t-282 -64.5q-188 0 -301.5 107.5t-113.5 288.5zM164 362q0 -162 99 -253t274 -91q133 0 249.5 58.5t199.5 165t114 250.5 q14 76 14 122q0 164 -99.5 257.5t-275.5 93.5q-133 0 -250.5 -58.5t-199.5 -166t-111 -248.5q-14 -63 -14 -130zM496 1151l313 248h45l209 -248h-62l-178 209l-264 -209h-63zM977 1542l10 47q49 16 103 17q121 0 120 -95q0 -8 -4 -32q-12 -53 -57 -87t-111 -36l-12 -56h-43 l21 93q74 0 108.5 19.5t44.5 66.5q2 10 2 24q0 31 -19.5 44.5t-60.5 13.5q-57 0 -102 -19z" />
<glyph unicode="&#x1ed6;" horiz-adv-x="1724" d="M152 535q0 90 20 180q47 221 177 391t317.5 263t402.5 93q178 0 315.5 -69.5t212 -198.5t74.5 -301q0 -72 -20 -178q-47 -221 -177.5 -390t-317.5 -262.5t-404 -93.5q-179 0 -315 70t-210.5 198t-74.5 298zM205 537q0 -160 68.5 -277t194.5 -179.5t294 -62.5 q188 0 363 85t301 244t171 368q20 106 21 178q0 160 -68.5 277.5t-194.5 180t-296 62.5q-193 0 -367 -86t-299 -244.5t-168 -367.5q-20 -90 -20 -178zM862 1837l15 61q29 39 65.5 57.5t89.5 18.5q31 0 62.5 -12t79.5 -37q47 -23 74.5 -34t56.5 -11q47 0 82.5 20.5t74.5 71.5 l-12 -61q-31 -41 -67.5 -58.5t-88.5 -17.5q-34 0 -65 12.5t-82 38.5q-43 23 -69.5 33t-53.5 10q-47 0 -83 -19.5t-79 -72.5zM889 1731q0 23 6 47h49q-4 -25 -4 -39q0 -59 42 -97t118 -38q88 0 150.5 49t78.5 125h49q-20 -94 -101 -158t-187 -64q-93 0 -147 49.5t-54 125.5z " />
<glyph unicode="&#x1ed7;" horiz-adv-x="1273" d="M111 365q0 63 14 127q33 158 124 276.5t222 182t279 63.5q188 0 302.5 -106.5t114.5 -286.5q0 -66 -14 -129q-35 -158 -125 -276t-220 -182.5t-282 -64.5q-188 0 -301.5 107.5t-113.5 288.5zM164 362q0 -162 99 -253t274 -91q133 0 249.5 58.5t199.5 165t114 250.5 q14 76 14 122q0 164 -99.5 257.5t-275.5 93.5q-133 0 -250.5 -58.5t-199.5 -166t-111 -248.5q-14 -63 -14 -130zM553 1432l14 61q29 39 66 57.5t90 18.5q31 0 62.5 -12.5t78.5 -36.5q47 -23 75 -34t56 -11q47 0 83 20.5t75 71.5l-12 -62q-31 -41 -68 -58t-88 -17 q-35 0 -65.5 12t-81.5 39q-43 23 -70 33t-53 10q-47 0 -83 -19.5t-79 -72.5zM580 1325q0 23 6 47h49q-4 -25 -4 -39q0 -59 42 -97t118 -38q88 0 150.5 49t78.5 125h49q-20 -94 -101 -157.5t-188 -63.5q-92 0 -146 49t-54 125z" />
<glyph unicode="&#x1ed8;" horiz-adv-x="1724" d="M152 535q0 90 20 180q47 221 177 391t317.5 263t402.5 93q178 0 315.5 -69.5t212 -198.5t74.5 -301q0 -72 -20 -178q-47 -221 -177.5 -390t-317.5 -262.5t-404 -93.5q-179 0 -315 70t-210.5 198t-74.5 298zM205 537q0 -160 68.5 -277t194.5 -179.5t294 -62.5 q188 0 363 85t301 244t171 368q20 106 21 178q0 160 -68.5 277.5t-194.5 180t-296 62.5q-193 0 -367 -86t-299 -244.5t-168 -367.5q-20 -90 -20 -178zM662 -201q0 27 22.5 47.5t48.5 20.5q18 0 31.5 -13.5t13.5 -33.5q0 -27 -21.5 -47.5t-47.5 -20.5q-21 0 -34 13.5 t-13 33.5zM817 1606l326 309h45l196 -309h-59l-166 264l-276 -264h-66z" />
<glyph unicode="&#x1ed9;" horiz-adv-x="1273" d="M111 365q0 63 14 127q33 158 124 276.5t222 182t279 63.5q188 0 302.5 -106.5t114.5 -286.5q0 -66 -14 -129q-35 -158 -125 -276t-220 -182.5t-282 -64.5q-188 0 -301.5 107.5t-113.5 288.5zM164 362q0 -162 99 -253t274 -91q133 0 249.5 58.5t199.5 165t114 250.5 q14 76 14 122q0 164 -99.5 257.5t-275.5 93.5q-133 0 -250.5 -58.5t-199.5 -166t-111 -248.5q-14 -63 -14 -130zM436 -201q0 27 22.5 47.5t49.5 20.5q18 0 31.5 -13.5t13.5 -33.5q0 -27 -21.5 -47.5t-48.5 -20.5q-20 0 -33.5 13.5t-13.5 33.5zM496 1151l325 309h45l197 -309 h-59l-166 264l-277 -264h-65z" />
<glyph unicode="&#x1eda;" horiz-adv-x="1708" d="M152 537q0 88 20 178q47 221 176 391t316.5 263t404.5 93q152 0 271.5 -50t199.5 -142q88 2 156.5 56t85.5 128l16 76h49l-16 -76q-16 -82 -90 -146.5t-166 -80.5q94 -137 94 -336q0 -84 -18 -176q-47 -221 -177.5 -390t-317.5 -262.5t-404 -93.5q-177 0 -313 70 t-211.5 199t-75.5 299zM207 545q0 -162 70.5 -281t196.5 -182.5t288 -63.5q188 0 363 85t301 244t171 368q20 106 21 178q0 242 -150.5 381t-408.5 139q-193 0 -367 -86t-299 -244.5t-168 -367.5q-18 -88 -18 -170zM1096 1604l219 342h57l-231 -342h-45z" />
<glyph unicode="&#x1edb;" horiz-adv-x="1312" d="M111 362q0 66 14 130q33 154 125 272.5t223 184t277 65.5q104 0 187 -34t136 -97q84 8 150.5 61t81.5 123l16 76h49l-16 -76q-16 -80 -87 -142.5t-163 -82.5q61 -92 61 -226q0 -59 -12 -124q-33 -156 -123 -274t-221 -183.5t-283 -65.5q-188 0 -301.5 107.5t-113.5 285.5 zM166 367q0 -166 96 -257.5t275 -91.5q133 0 249.5 58.5t199.5 165t114 250.5q12 66 12 122q0 164 -99.5 257.5t-273.5 93.5q-129 0 -247.5 -60.5t-202.5 -169t-111 -243.5q-12 -68 -12 -125zM737 1151l219 342h58l-232 -342h-45z" />
<glyph unicode="&#x1edc;" horiz-adv-x="1708" d="M152 537q0 88 20 178q47 221 176 391t316.5 263t404.5 93q152 0 271.5 -50t199.5 -142q88 2 156.5 56t85.5 128l16 76h49l-16 -76q-16 -82 -90 -146.5t-166 -80.5q94 -137 94 -336q0 -84 -18 -176q-47 -221 -177.5 -390t-317.5 -262.5t-404 -93.5q-177 0 -313 70 t-211.5 199t-75.5 299zM207 545q0 -162 70.5 -281t196.5 -182.5t288 -63.5q188 0 363 85t301 244t171 368q20 106 21 178q0 242 -150.5 381t-408.5 139q-193 0 -367 -86t-299 -244.5t-168 -367.5q-18 -88 -18 -170zM1028 1946h57l72 -342h-45z" />
<glyph unicode="&#x1edd;" horiz-adv-x="1312" d="M111 362q0 66 14 130q33 154 125 272.5t223 184t277 65.5q104 0 187 -34t136 -97q84 8 150.5 61t81.5 123l16 76h49l-16 -76q-16 -80 -87 -142.5t-163 -82.5q61 -92 61 -226q0 -59 -12 -124q-33 -156 -123 -274t-221 -183.5t-283 -65.5q-188 0 -301.5 107.5t-113.5 285.5 zM166 367q0 -166 96 -257.5t275 -91.5q133 0 249.5 58.5t199.5 165t114 250.5q12 66 12 122q0 164 -99.5 257.5t-273.5 93.5q-129 0 -247.5 -60.5t-202.5 -169t-111 -243.5q-12 -68 -12 -125zM696 1493h58l71 -342h-45z" />
<glyph unicode="&#x1ede;" horiz-adv-x="1708" d="M152 537q0 88 20 178q47 221 176 391t316.5 263t404.5 93q152 0 271.5 -50t199.5 -142q88 2 156.5 56t85.5 128l16 76h49l-16 -76q-16 -82 -90 -146.5t-166 -80.5q94 -137 94 -336q0 -84 -18 -176q-47 -221 -177.5 -390t-317.5 -262.5t-404 -93.5q-177 0 -313 70 t-211.5 199t-75.5 299zM207 545q0 -162 70.5 -281t196.5 -182.5t288 -63.5q188 0 363 85t301 244t171 368q20 106 21 178q0 242 -150.5 381t-408.5 139q-193 0 -367 -86t-299 -244.5t-168 -367.5q-18 -88 -18 -170zM1094 1606l26 129q106 0 156.5 33.5t64.5 103.5q4 25 5 37 q0 92 -134 92q-29 0 -63.5 -4t-52.5 -12l10 49q18 6 53 11t64 5q88 0 133 -37t45 -98q0 -12 -4 -41q-18 -78 -79 -126t-159 -52l-18 -90h-47z" />
<glyph unicode="&#x1edf;" horiz-adv-x="1312" d="M111 362q0 66 14 130q33 154 125 272.5t223 184t277 65.5q104 0 187 -34t136 -97q84 8 150.5 61t81.5 123l16 76h49l-16 -76q-16 -80 -87 -142.5t-163 -82.5q61 -92 61 -226q0 -59 -12 -124q-33 -156 -123 -274t-221 -183.5t-283 -65.5q-188 0 -301.5 107.5t-113.5 285.5 zM166 367q0 -166 96 -257.5t275 -91.5q133 0 249.5 58.5t199.5 165t114 250.5q12 66 12 122q0 164 -99.5 257.5t-273.5 93.5q-129 0 -247.5 -60.5t-202.5 -169t-111 -243.5q-12 -68 -12 -125zM772 1153l27 129q106 0 156.5 34t64.5 103q4 25 4 37q0 92 -133 92 q-29 0 -63.5 -4t-53.5 -12l10 49q18 6 53 11t64 5q88 0 133 -36.5t45 -98.5q0 -12 -4 -41q-18 -78 -78.5 -126t-158.5 -52l-19 -90h-47z" />
<glyph unicode="&#x1ee0;" horiz-adv-x="1708" d="M152 537q0 88 20 178q47 221 176 391t316.5 263t404.5 93q152 0 271.5 -50t199.5 -142q88 2 156.5 56t85.5 128l16 76h49l-16 -76q-16 -82 -90 -146.5t-166 -80.5q94 -137 94 -336q0 -84 -18 -176q-47 -221 -177.5 -390t-317.5 -262.5t-404 -93.5q-177 0 -313 70 t-211.5 199t-75.5 299zM207 545q0 -162 70.5 -281t196.5 -182.5t288 -63.5q188 0 363 85t301 244t171 368q20 106 21 178q0 242 -150.5 381t-408.5 139q-193 0 -367 -86t-299 -244.5t-168 -367.5q-18 -88 -18 -170zM762 1606l14 67q76 92 205 92q47 0 83 -12t87 -39 q47 -25 83 -38t81 -13q57 0 107.5 24.5t99.5 86.5l-15 -68q-72 -92 -202 -92q-51 0 -90 13t-89 40q-49 25 -80.5 37t-74.5 12q-55 0 -105.5 -24.5t-103.5 -85.5z" />
<glyph unicode="&#x1ee1;" horiz-adv-x="1312" d="M111 362q0 66 14 130q33 154 125 272.5t223 184t277 65.5q104 0 187 -34t136 -97q84 8 150.5 61t81.5 123l16 76h49l-16 -76q-16 -80 -87 -142.5t-163 -82.5q61 -92 61 -226q0 -59 -12 -124q-33 -156 -123 -274t-221 -183.5t-283 -65.5q-188 0 -301.5 107.5t-113.5 285.5 zM166 367q0 -166 96 -257.5t275 -91.5q133 0 249.5 58.5t199.5 165t114 250.5q12 66 12 122q0 164 -99.5 257.5t-273.5 93.5q-129 0 -247.5 -60.5t-202.5 -169t-111 -243.5q-12 -68 -12 -125zM430 1151l14 68q76 92 205 92q47 0 83 -12.5t87 -38.5q47 -25 83 -38.5t81 -13.5 q57 0 107.5 24.5t99.5 86.5l-14 -68q-72 -92 -203 -92q-51 0 -90 13.5t-88 39.5q-49 25 -81 37.5t-75 12.5q-55 0 -105.5 -25t-103.5 -86z" />
<glyph unicode="&#x1ee2;" horiz-adv-x="1708" d="M152 537q0 88 20 178q47 221 176 391t316.5 263t404.5 93q152 0 271.5 -50t199.5 -142q88 2 156.5 56t85.5 128l16 76h49l-16 -76q-16 -82 -90 -146.5t-166 -80.5q94 -137 94 -336q0 -84 -18 -176q-47 -221 -177.5 -390t-317.5 -262.5t-404 -93.5q-177 0 -313 70 t-211.5 199t-75.5 299zM207 545q0 -162 70.5 -281t196.5 -182.5t288 -63.5q188 0 363 85t301 244t171 368q20 106 21 178q0 242 -150.5 381t-408.5 139q-193 0 -367 -86t-299 -244.5t-168 -367.5q-18 -88 -18 -170zM678 -201q0 27 22.5 47.5t49.5 20.5q18 0 31.5 -13.5 t13.5 -33.5q0 -27 -21.5 -47.5t-48.5 -20.5q-20 0 -33.5 13.5t-13.5 33.5z" />
<glyph unicode="&#x1ee3;" horiz-adv-x="1312" d="M111 362q0 66 14 130q33 154 125 272.5t223 184t277 65.5q104 0 187 -34t136 -97q84 8 150.5 61t81.5 123l16 76h49l-16 -76q-16 -80 -87 -142.5t-163 -82.5q61 -92 61 -226q0 -59 -12 -124q-33 -156 -123 -274t-221 -183.5t-283 -65.5q-188 0 -301.5 107.5t-113.5 285.5 zM166 367q0 -166 96 -257.5t275 -91.5q133 0 249.5 58.5t199.5 165t114 250.5q12 66 12 122q0 164 -99.5 257.5t-273.5 93.5q-129 0 -247.5 -60.5t-202.5 -169t-111 -243.5q-12 -68 -12 -125zM428 -201q0 27 22.5 47.5t49.5 20.5q18 0 31.5 -13.5t13.5 -33.5 q0 -27 -21.5 -47.5t-48.5 -20.5q-20 0 -33.5 13.5t-13.5 33.5z" />
<glyph unicode="&#x1ee4;" horiz-adv-x="1372" d="M133 326q0 61 17 143l204 963h58l-209 -983q-14 -63 -15 -125q0 -156 104.5 -231t293.5 -75q211 0 366.5 112t200.5 319l209 983h57l-205 -963q-51 -238 -209.5 -369t-429.5 -131q-219 0 -330.5 92.5t-111.5 264.5zM485 -201q0 27 22.5 47.5t49.5 20.5q18 0 31.5 -13.5 t13.5 -33.5q0 -27 -21.5 -47.5t-48.5 -20.5q-20 0 -33.5 13.5t-13.5 33.5z" />
</font>
</defs>
</svg>
